<?xml version="1.0" encoding="utf-8" standalone="no"?>
<!DOCTYPE svg PUBLIC "-//W3C//DTD SVG 1.1//EN"
  "http://www.w3.org/Graphics/SVG/1.1/DTD/svg11.dtd">
<svg height="144pt" version="1.1" viewBox="0 0 144 144" width="144pt" xmlns="http://www.w3.org/2000/svg" xmlns:xlink="http://www.w3.org/1999/xlink">
 <metadata>
  <rdf:RDF xmlns:cc="http://creativecommons.org/ns#" xmlns:dc="http://purl.org/dc/elements/1.1/" xmlns:rdf="http://www.w3.org/1999/02/22-rdf-syntax-ns#">
   <cc:Work>
    <dc:type rdf:resource="http://purl.org/dc/dcmitype/StillImage"/>
    <dc:date>2021-07-29T15:58:49.791305</dc:date>
    <dc:format>image/svg+xml</dc:format>
    <dc:creator>
     <cc:Agent>
      <dc:title>Matplotlib v3.4.2, https://matplotlib.org/</dc:title>
     </cc:Agent>
    </dc:creator>
   </cc:Work>
  </rdf:RDF>
 </metadata>
 <defs>
  <style type="text/css">*{stroke-linecap:butt;stroke-linejoin:round;}</style>
 </defs>
 <g id="figure_1">
  <g id="patch_1">
   <path d="M 0 144 
L 144 144 
L 144 0 
L 0 0 
z
" style="fill:none;"/>
  </g>
  <g id="axes_1">
   <g id="patch_2">
    <path d="M 18 126 
L 129.6 126 
L 129.6 17.28 
L 18 17.28 
z
" style="fill:#ffffff;"/>
   </g>
   <g id="matplotlib.axis_1">
    <g id="xtick_1">
     <g id="line2d_1">
      <defs>
       <path d="M 0 0 
L 0 3.5 
" id="m954f6f2870" style="stroke:#000000;stroke-width:0.8;"/>
      </defs>
      <g>
       <use style="stroke:#000000;stroke-width:0.8;" x="42.26087" xlink:href="#m954f6f2870" y="126"/>
      </g>
     </g>
     <g id="text_1">
      <!-- 5 -->
      <g transform="translate(39.71587 139.07875)scale(0.08 -0.08)">
       <defs>
        <path d="M 691 4666 
L 3169 4666 
L 3169 4134 
L 1269 4134 
L 1269 2991 
Q 1406 3038 1543 3061 
Q 1681 3084 1819 3084 
Q 2600 3084 3056 2656 
Q 3513 2228 3513 1497 
Q 3513 744 3044 326 
Q 2575 -91 1722 -91 
Q 1428 -91 1123 -41 
Q 819 9 494 109 
L 494 744 
Q 775 591 1075 516 
Q 1375 441 1709 441 
Q 2250 441 2565 725 
Q 2881 1009 2881 1497 
Q 2881 1984 2565 2268 
Q 2250 2553 1709 2553 
Q 1456 2553 1204 2497 
Q 953 2441 691 2322 
L 691 4666 
z
" id="DejaVuSans-35" transform="scale(0.015625)"/>
       </defs>
       <use xlink:href="#DejaVuSans-35"/>
      </g>
     </g>
    </g>
    <g id="xtick_2">
     <g id="line2d_2">
      <g>
       <use style="stroke:#000000;stroke-width:0.8;" x="66.521739" xlink:href="#m954f6f2870" y="126"/>
      </g>
     </g>
     <g id="text_2">
      <!-- 10 -->
      <g transform="translate(61.431739 139.07875)scale(0.08 -0.08)">
       <defs>
        <path d="M 794 531 
L 1825 531 
L 1825 4091 
L 703 3866 
L 703 4441 
L 1819 4666 
L 2450 4666 
L 2450 531 
L 3481 531 
L 3481 0 
L 794 0 
L 794 531 
z
" id="DejaVuSans-31" transform="scale(0.015625)"/>
        <path d="M 2034 4250 
Q 1547 4250 1301 3770 
Q 1056 3291 1056 2328 
Q 1056 1369 1301 889 
Q 1547 409 2034 409 
Q 2525 409 2770 889 
Q 3016 1369 3016 2328 
Q 3016 3291 2770 3770 
Q 2525 4250 2034 4250 
z
M 2034 4750 
Q 2819 4750 3233 4129 
Q 3647 3509 3647 2328 
Q 3647 1150 3233 529 
Q 2819 -91 2034 -91 
Q 1250 -91 836 529 
Q 422 1150 422 2328 
Q 422 3509 836 4129 
Q 1250 4750 2034 4750 
z
" id="DejaVuSans-30" transform="scale(0.015625)"/>
       </defs>
       <use xlink:href="#DejaVuSans-31"/>
       <use x="63.623047" xlink:href="#DejaVuSans-30"/>
      </g>
     </g>
    </g>
    <g id="xtick_3">
     <g id="line2d_3">
      <g>
       <use style="stroke:#000000;stroke-width:0.8;" x="90.782609" xlink:href="#m954f6f2870" y="126"/>
      </g>
     </g>
     <g id="text_3">
      <!-- 15 -->
      <g transform="translate(85.692609 139.07875)scale(0.08 -0.08)">
       <use xlink:href="#DejaVuSans-31"/>
       <use x="63.623047" xlink:href="#DejaVuSans-35"/>
      </g>
     </g>
    </g>
    <g id="xtick_4">
     <g id="line2d_4">
      <g>
       <use style="stroke:#000000;stroke-width:0.8;" x="115.043478" xlink:href="#m954f6f2870" y="126"/>
      </g>
     </g>
     <g id="text_4">
      <!-- 20 -->
      <g transform="translate(109.953478 139.07875)scale(0.08 -0.08)">
       <defs>
        <path d="M 1228 531 
L 3431 531 
L 3431 0 
L 469 0 
L 469 531 
Q 828 903 1448 1529 
Q 2069 2156 2228 2338 
Q 2531 2678 2651 2914 
Q 2772 3150 2772 3378 
Q 2772 3750 2511 3984 
Q 2250 4219 1831 4219 
Q 1534 4219 1204 4116 
Q 875 4013 500 3803 
L 500 4441 
Q 881 4594 1212 4672 
Q 1544 4750 1819 4750 
Q 2544 4750 2975 4387 
Q 3406 4025 3406 3419 
Q 3406 3131 3298 2873 
Q 3191 2616 2906 2266 
Q 2828 2175 2409 1742 
Q 1991 1309 1228 531 
z
" id="DejaVuSans-32" transform="scale(0.015625)"/>
       </defs>
       <use xlink:href="#DejaVuSans-32"/>
       <use x="63.623047" xlink:href="#DejaVuSans-30"/>
      </g>
     </g>
    </g>
    <g id="text_5">
     <!-- $g$ (true) -->
     <g transform="translate(55.65 152.3425)scale(0.1 -0.1)">
      <defs>
       <path d="M 91 -916 
Q 91 -759 198 -642 
Q 306 -525 459 -525 
Q 563 -525 633 -589 
Q 703 -653 703 -756 
Q 703 -872 637 -964 
Q 572 -1056 469 -1094 
Q 641 -1147 1006 -1147 
Q 1300 -1147 1544 -920 
Q 1788 -694 1863 -397 
L 2047 353 
Q 1700 0 1325 0 
Q 1050 0 854 140 
Q 659 281 556 515 
Q 453 750 453 1013 
Q 453 1306 573 1628 
Q 694 1950 911 2225 
Q 1128 2500 1409 2664 
Q 1691 2828 2003 2828 
Q 2191 2828 2341 2725 
Q 2491 2622 2578 2450 
Q 2641 2700 2853 2700 
Q 2934 2700 2990 2651 
Q 3047 2603 3047 2522 
Q 3047 2503 3045 2493 
Q 3044 2484 3041 2472 
L 2309 -434 
Q 2259 -634 2125 -800 
Q 1991 -966 1809 -1077 
Q 1628 -1188 1412 -1250 
Q 1197 -1313 997 -1313 
Q 631 -1313 361 -1242 
Q 91 -1172 91 -916 
z
M 1338 166 
Q 1747 166 2144 728 
L 2497 2125 
Q 2453 2347 2322 2505 
Q 2191 2663 1991 2663 
Q 1778 2663 1589 2489 
Q 1400 2316 1275 2075 
Q 1156 1844 1045 1411 
Q 934 978 934 728 
Q 934 509 1034 337 
Q 1134 166 1338 166 
z
" id="Cmmi10-67" transform="scale(0.015625)"/>
       <path id="DejaVuSans-20" transform="scale(0.015625)"/>
       <path d="M 1984 4856 
Q 1566 4138 1362 3434 
Q 1159 2731 1159 2009 
Q 1159 1288 1364 580 
Q 1569 -128 1984 -844 
L 1484 -844 
Q 1016 -109 783 600 
Q 550 1309 550 2009 
Q 550 2706 781 3412 
Q 1013 4119 1484 4856 
L 1984 4856 
z
" id="DejaVuSans-28" transform="scale(0.015625)"/>
       <path d="M 1172 4494 
L 1172 3500 
L 2356 3500 
L 2356 3053 
L 1172 3053 
L 1172 1153 
Q 1172 725 1289 603 
Q 1406 481 1766 481 
L 2356 481 
L 2356 0 
L 1766 0 
Q 1100 0 847 248 
Q 594 497 594 1153 
L 594 3053 
L 172 3053 
L 172 3500 
L 594 3500 
L 594 4494 
L 1172 4494 
z
" id="DejaVuSans-74" transform="scale(0.015625)"/>
       <path d="M 2631 2963 
Q 2534 3019 2420 3045 
Q 2306 3072 2169 3072 
Q 1681 3072 1420 2755 
Q 1159 2438 1159 1844 
L 1159 0 
L 581 0 
L 581 3500 
L 1159 3500 
L 1159 2956 
Q 1341 3275 1631 3429 
Q 1922 3584 2338 3584 
Q 2397 3584 2469 3576 
Q 2541 3569 2628 3553 
L 2631 2963 
z
" id="DejaVuSans-72" transform="scale(0.015625)"/>
       <path d="M 544 1381 
L 544 3500 
L 1119 3500 
L 1119 1403 
Q 1119 906 1312 657 
Q 1506 409 1894 409 
Q 2359 409 2629 706 
Q 2900 1003 2900 1516 
L 2900 3500 
L 3475 3500 
L 3475 0 
L 2900 0 
L 2900 538 
Q 2691 219 2414 64 
Q 2138 -91 1772 -91 
Q 1169 -91 856 284 
Q 544 659 544 1381 
z
M 1991 3584 
L 1991 3584 
z
" id="DejaVuSans-75" transform="scale(0.015625)"/>
       <path d="M 3597 1894 
L 3597 1613 
L 953 1613 
Q 991 1019 1311 708 
Q 1631 397 2203 397 
Q 2534 397 2845 478 
Q 3156 559 3463 722 
L 3463 178 
Q 3153 47 2828 -22 
Q 2503 -91 2169 -91 
Q 1331 -91 842 396 
Q 353 884 353 1716 
Q 353 2575 817 3079 
Q 1281 3584 2069 3584 
Q 2775 3584 3186 3129 
Q 3597 2675 3597 1894 
z
M 3022 2063 
Q 3016 2534 2758 2815 
Q 2500 3097 2075 3097 
Q 1594 3097 1305 2825 
Q 1016 2553 972 2059 
L 3022 2063 
z
" id="DejaVuSans-65" transform="scale(0.015625)"/>
       <path d="M 513 4856 
L 1013 4856 
Q 1481 4119 1714 3412 
Q 1947 2706 1947 2009 
Q 1947 1309 1714 600 
Q 1481 -109 1013 -844 
L 513 -844 
Q 928 -128 1133 580 
Q 1338 1288 1338 2009 
Q 1338 2731 1133 3434 
Q 928 4138 513 4856 
z
" id="DejaVuSans-29" transform="scale(0.015625)"/>
      </defs>
      <use transform="translate(0 0.125)" xlink:href="#Cmmi10-67"/>
      <use transform="translate(47.705078 0.125)" xlink:href="#DejaVuSans-20"/>
      <use transform="translate(79.492188 0.125)" xlink:href="#DejaVuSans-28"/>
      <use transform="translate(118.505859 0.125)" xlink:href="#DejaVuSans-74"/>
      <use transform="translate(157.714844 0.125)" xlink:href="#DejaVuSans-72"/>
      <use transform="translate(198.828125 0.125)" xlink:href="#DejaVuSans-75"/>
      <use transform="translate(262.207031 0.125)" xlink:href="#DejaVuSans-65"/>
      <use transform="translate(323.730469 0.125)" xlink:href="#DejaVuSans-29"/>
     </g>
    </g>
   </g>
   <g id="matplotlib.axis_2">
    <g id="ytick_1">
     <g id="line2d_5">
      <defs>
       <path d="M 0 0 
L -3.5 0 
" id="m6d41006613" style="stroke:#000000;stroke-width:0.8;"/>
      </defs>
      <g>
       <use style="stroke:#000000;stroke-width:0.8;" x="18" xlink:href="#m6d41006613" y="126"/>
      </g>
     </g>
     <g id="text_6">
      <!-- 0 -->
      <g transform="translate(5.91 129.039375)scale(0.08 -0.08)">
       <use xlink:href="#DejaVuSans-30"/>
      </g>
     </g>
    </g>
    <g id="ytick_2">
     <g id="line2d_6">
      <g>
       <use style="stroke:#000000;stroke-width:0.8;" x="18" xlink:href="#m6d41006613" y="102.365217"/>
      </g>
     </g>
     <g id="text_7">
      <!-- 5 -->
      <g transform="translate(5.91 105.404592)scale(0.08 -0.08)">
       <use xlink:href="#DejaVuSans-35"/>
      </g>
     </g>
    </g>
    <g id="ytick_3">
     <g id="line2d_7">
      <g>
       <use style="stroke:#000000;stroke-width:0.8;" x="18" xlink:href="#m6d41006613" y="78.730435"/>
      </g>
     </g>
     <g id="text_8">
      <!-- 10 -->
      <g transform="translate(0.82 81.76981)scale(0.08 -0.08)">
       <use xlink:href="#DejaVuSans-31"/>
       <use x="63.623047" xlink:href="#DejaVuSans-30"/>
      </g>
     </g>
    </g>
    <g id="ytick_4">
     <g id="line2d_8">
      <g>
       <use style="stroke:#000000;stroke-width:0.8;" x="18" xlink:href="#m6d41006613" y="55.095652"/>
      </g>
     </g>
     <g id="text_9">
      <!-- 15 -->
      <g transform="translate(0.82 58.135027)scale(0.08 -0.08)">
       <use xlink:href="#DejaVuSans-31"/>
       <use x="63.623047" xlink:href="#DejaVuSans-35"/>
      </g>
     </g>
    </g>
    <g id="ytick_5">
     <g id="line2d_9">
      <g>
       <use style="stroke:#000000;stroke-width:0.8;" x="18" xlink:href="#m6d41006613" y="31.46087"/>
      </g>
     </g>
     <g id="text_10">
      <!-- 20 -->
      <g transform="translate(0.82 34.500245)scale(0.08 -0.08)">
       <use xlink:href="#DejaVuSans-32"/>
       <use x="63.623047" xlink:href="#DejaVuSans-30"/>
      </g>
     </g>
    </g>
    <g id="text_11">
     <!-- $g$ (fit) -->
     <g transform="translate(-5.28 84.64)rotate(-90)scale(0.1 -0.1)">
      <defs>
       <path d="M 2375 4863 
L 2375 4384 
L 1825 4384 
Q 1516 4384 1395 4259 
Q 1275 4134 1275 3809 
L 1275 3500 
L 2222 3500 
L 2222 3053 
L 1275 3053 
L 1275 0 
L 697 0 
L 697 3053 
L 147 3053 
L 147 3500 
L 697 3500 
L 697 3744 
Q 697 4328 969 4595 
Q 1241 4863 1831 4863 
L 2375 4863 
z
" id="DejaVuSans-66" transform="scale(0.015625)"/>
       <path d="M 603 3500 
L 1178 3500 
L 1178 0 
L 603 0 
L 603 3500 
z
M 603 4863 
L 1178 4863 
L 1178 4134 
L 603 4134 
L 603 4863 
z
" id="DejaVuSans-69" transform="scale(0.015625)"/>
      </defs>
      <use transform="translate(0 0.015625)" xlink:href="#Cmmi10-67"/>
      <use transform="translate(47.705078 0.015625)" xlink:href="#DejaVuSans-20"/>
      <use transform="translate(79.492188 0.015625)" xlink:href="#DejaVuSans-28"/>
      <use transform="translate(118.505859 0.015625)" xlink:href="#DejaVuSans-66"/>
      <use transform="translate(153.710938 0.015625)" xlink:href="#DejaVuSans-69"/>
      <use transform="translate(181.494141 0.015625)" xlink:href="#DejaVuSans-74"/>
      <use transform="translate(220.703125 0.015625)" xlink:href="#DejaVuSans-29"/>
     </g>
    </g>
   </g>
   <g id="LineCollection_1">
    <path clip-path="url(#pf7c3ec302c)" d="M 100.700526 44.469706 
L 100.700526 43.992085 
" style="fill:none;stroke:#1f77b4;stroke-width:1.5;"/>
    <path clip-path="url(#pf7c3ec302c)" d="M 35.239389 108.973185 
L 35.239389 108.884132 
" style="fill:none;stroke:#1f77b4;stroke-width:1.5;"/>
    <path clip-path="url(#pf7c3ec302c)" d="M 110.99022 34.289275 
L 110.99022 33.829841 
" style="fill:none;stroke:#1f77b4;stroke-width:1.5;"/>
    <path clip-path="url(#pf7c3ec302c)" d="M 44.790443 99.669533 
L 44.790443 99.531634 
" style="fill:none;stroke:#1f77b4;stroke-width:1.5;"/>
    <path clip-path="url(#pf7c3ec302c)" d="M 44.613755 99.946664 
L 44.613755 99.801401 
" style="fill:none;stroke:#1f77b4;stroke-width:1.5;"/>
    <path clip-path="url(#pf7c3ec302c)" d="M 80.278294 64.866789 
L 80.278294 64.517354 
" style="fill:none;stroke:#1f77b4;stroke-width:1.5;"/>
    <path clip-path="url(#pf7c3ec302c)" d="M 95.991231 49.879124 
L 95.991231 49.446919 
" style="fill:none;stroke:#1f77b4;stroke-width:1.5;"/>
    <path clip-path="url(#pf7c3ec302c)" d="M 52.706739 91.964129 
L 52.706739 91.7852 
" style="fill:none;stroke:#1f77b4;stroke-width:1.5;"/>
    <path clip-path="url(#pf7c3ec302c)" d="M 43.752483 100.928197 
L 43.752483 100.798015 
" style="fill:none;stroke:#1f77b4;stroke-width:1.5;"/>
    <path clip-path="url(#pf7c3ec302c)" d="M 65.537426 79.59094 
L 65.537426 79.323977 
" style="fill:none;stroke:#1f77b4;stroke-width:1.5;"/>
    <path clip-path="url(#pf7c3ec302c)" d="M 75.530524 69.544076 
L 75.530524 69.212909 
" style="fill:none;stroke:#1f77b4;stroke-width:1.5;"/>
    <path clip-path="url(#pf7c3ec302c)" d="M 64.557635 80.559503 
L 64.557635 80.299053 
" style="fill:none;stroke:#1f77b4;stroke-width:1.5;"/>
    <path clip-path="url(#pf7c3ec302c)" d="M 66.603464 78.773609 
L 66.603464 78.542423 
" style="fill:none;stroke:#1f77b4;stroke-width:1.5;"/>
    <path clip-path="url(#pf7c3ec302c)" d="M 46.730505 97.8981 
L 46.730505 97.73878 
" style="fill:none;stroke:#1f77b4;stroke-width:1.5;"/>
    <path clip-path="url(#pf7c3ec302c)" d="M 32.700836 111.652572 
L 32.700836 111.567495 
" style="fill:none;stroke:#1f77b4;stroke-width:1.5;"/>
    <path clip-path="url(#pf7c3ec302c)" d="M 56.18143 88.526644 
L 56.18143 88.302356 
" style="fill:none;stroke:#1f77b4;stroke-width:1.5;"/>
   </g>
   <g id="line2d_10">
    <path clip-path="url(#pf7c3ec302c)" d="M 32.700836 111.67854 
L 35.239389 109.205499 
L 43.752483 100.912097 
L 44.613755 100.073051 
L 44.790443 99.900923 
L 46.730505 98.010928 
L 52.706739 92.188919 
L 56.18143 88.803897 
L 64.557635 80.643852 
L 65.537426 79.689346 
L 66.603464 78.650819 
L 75.530524 69.954134 
L 80.278294 65.328888 
L 95.991231 50.021446 
L 100.700526 45.433681 
L 110.99022 35.409527 
" style="fill:none;stroke:#000000;stroke-dasharray:5.55,2.4;stroke-dashoffset:0;stroke-width:1.5;"/>
   </g>
   <g id="line2d_11">
    <defs>
     <path d="M 2 0 
L -2 -0 
" id="m647ffc4d4e" style="stroke:#1f77b4;"/>
    </defs>
    <g clip-path="url(#pf7c3ec302c)">
     <use style="fill:#1f77b4;stroke:#1f77b4;" x="100.700526" xlink:href="#m647ffc4d4e" y="44.469706"/>
     <use style="fill:#1f77b4;stroke:#1f77b4;" x="35.239389" xlink:href="#m647ffc4d4e" y="108.973185"/>
     <use style="fill:#1f77b4;stroke:#1f77b4;" x="110.99022" xlink:href="#m647ffc4d4e" y="34.289275"/>
     <use style="fill:#1f77b4;stroke:#1f77b4;" x="44.790443" xlink:href="#m647ffc4d4e" y="99.669533"/>
     <use style="fill:#1f77b4;stroke:#1f77b4;" x="44.613755" xlink:href="#m647ffc4d4e" y="99.946664"/>
     <use style="fill:#1f77b4;stroke:#1f77b4;" x="80.278294" xlink:href="#m647ffc4d4e" y="64.866789"/>
     <use style="fill:#1f77b4;stroke:#1f77b4;" x="95.991231" xlink:href="#m647ffc4d4e" y="49.879124"/>
     <use style="fill:#1f77b4;stroke:#1f77b4;" x="52.706739" xlink:href="#m647ffc4d4e" y="91.964129"/>
     <use style="fill:#1f77b4;stroke:#1f77b4;" x="43.752483" xlink:href="#m647ffc4d4e" y="100.928197"/>
     <use style="fill:#1f77b4;stroke:#1f77b4;" x="65.537426" xlink:href="#m647ffc4d4e" y="79.59094"/>
     <use style="fill:#1f77b4;stroke:#1f77b4;" x="75.530524" xlink:href="#m647ffc4d4e" y="69.544076"/>
     <use style="fill:#1f77b4;stroke:#1f77b4;" x="64.557635" xlink:href="#m647ffc4d4e" y="80.559503"/>
     <use style="fill:#1f77b4;stroke:#1f77b4;" x="66.603464" xlink:href="#m647ffc4d4e" y="78.773609"/>
     <use style="fill:#1f77b4;stroke:#1f77b4;" x="46.730505" xlink:href="#m647ffc4d4e" y="97.8981"/>
     <use style="fill:#1f77b4;stroke:#1f77b4;" x="32.700836" xlink:href="#m647ffc4d4e" y="111.652572"/>
     <use style="fill:#1f77b4;stroke:#1f77b4;" x="56.18143" xlink:href="#m647ffc4d4e" y="88.526644"/>
    </g>
   </g>
   <g id="line2d_12">
    <g clip-path="url(#pf7c3ec302c)">
     <use style="fill:#1f77b4;stroke:#1f77b4;" x="100.700526" xlink:href="#m647ffc4d4e" y="43.992085"/>
     <use style="fill:#1f77b4;stroke:#1f77b4;" x="35.239389" xlink:href="#m647ffc4d4e" y="108.884132"/>
     <use style="fill:#1f77b4;stroke:#1f77b4;" x="110.99022" xlink:href="#m647ffc4d4e" y="33.829841"/>
     <use style="fill:#1f77b4;stroke:#1f77b4;" x="44.790443" xlink:href="#m647ffc4d4e" y="99.531634"/>
     <use style="fill:#1f77b4;stroke:#1f77b4;" x="44.613755" xlink:href="#m647ffc4d4e" y="99.801401"/>
     <use style="fill:#1f77b4;stroke:#1f77b4;" x="80.278294" xlink:href="#m647ffc4d4e" y="64.517354"/>
     <use style="fill:#1f77b4;stroke:#1f77b4;" x="95.991231" xlink:href="#m647ffc4d4e" y="49.446919"/>
     <use style="fill:#1f77b4;stroke:#1f77b4;" x="52.706739" xlink:href="#m647ffc4d4e" y="91.7852"/>
     <use style="fill:#1f77b4;stroke:#1f77b4;" x="43.752483" xlink:href="#m647ffc4d4e" y="100.798015"/>
     <use style="fill:#1f77b4;stroke:#1f77b4;" x="65.537426" xlink:href="#m647ffc4d4e" y="79.323977"/>
     <use style="fill:#1f77b4;stroke:#1f77b4;" x="75.530524" xlink:href="#m647ffc4d4e" y="69.212909"/>
     <use style="fill:#1f77b4;stroke:#1f77b4;" x="64.557635" xlink:href="#m647ffc4d4e" y="80.299053"/>
     <use style="fill:#1f77b4;stroke:#1f77b4;" x="66.603464" xlink:href="#m647ffc4d4e" y="78.542423"/>
     <use style="fill:#1f77b4;stroke:#1f77b4;" x="46.730505" xlink:href="#m647ffc4d4e" y="97.73878"/>
     <use style="fill:#1f77b4;stroke:#1f77b4;" x="32.700836" xlink:href="#m647ffc4d4e" y="111.567495"/>
     <use style="fill:#1f77b4;stroke:#1f77b4;" x="56.18143" xlink:href="#m647ffc4d4e" y="88.302356"/>
    </g>
   </g>
   <g id="line2d_13">
    <defs>
     <path d="M 0 1.5 
C 0.397805 1.5 0.77937 1.341951 1.06066 1.06066 
C 1.341951 0.77937 1.5 0.397805 1.5 0 
C 1.5 -0.397805 1.341951 -0.77937 1.06066 -1.06066 
C 0.77937 -1.341951 0.397805 -1.5 0 -1.5 
C -0.397805 -1.5 -0.77937 -1.341951 -1.06066 -1.06066 
C -1.341951 -0.77937 -1.5 -0.397805 -1.5 0 
C -1.5 0.397805 -1.341951 0.77937 -1.06066 1.06066 
C -0.77937 1.341951 -0.397805 1.5 0 1.5 
z
" id="m250bb1a007" style="stroke:#1f77b4;"/>
    </defs>
    <g clip-path="url(#pf7c3ec302c)">
     <use style="fill:#1f77b4;stroke:#1f77b4;" x="100.700526" xlink:href="#m250bb1a007" y="44.238088"/>
     <use style="fill:#1f77b4;stroke:#1f77b4;" x="35.239389" xlink:href="#m250bb1a007" y="108.927961"/>
     <use style="fill:#1f77b4;stroke:#1f77b4;" x="110.99022" xlink:href="#m250bb1a007" y="34.052853"/>
     <use style="fill:#1f77b4;stroke:#1f77b4;" x="44.790443" xlink:href="#m250bb1a007" y="99.604965"/>
     <use style="fill:#1f77b4;stroke:#1f77b4;" x="44.613755" xlink:href="#m250bb1a007" y="99.87722"/>
     <use style="fill:#1f77b4;stroke:#1f77b4;" x="80.278294" xlink:href="#m250bb1a007" y="64.69029"/>
     <use style="fill:#1f77b4;stroke:#1f77b4;" x="95.991231" xlink:href="#m250bb1a007" y="49.658762"/>
     <use style="fill:#1f77b4;stroke:#1f77b4;" x="52.706739" xlink:href="#m250bb1a007" y="91.873683"/>
     <use style="fill:#1f77b4;stroke:#1f77b4;" x="43.752483" xlink:href="#m250bb1a007" y="100.859934"/>
     <use style="fill:#1f77b4;stroke:#1f77b4;" x="65.537426" xlink:href="#m250bb1a007" y="79.461656"/>
     <use style="fill:#1f77b4;stroke:#1f77b4;" x="75.530524" xlink:href="#m250bb1a007" y="69.377554"/>
     <use style="fill:#1f77b4;stroke:#1f77b4;" x="64.557635" xlink:href="#m250bb1a007" y="80.424248"/>
     <use style="fill:#1f77b4;stroke:#1f77b4;" x="66.603464" xlink:href="#m250bb1a007" y="78.656059"/>
     <use style="fill:#1f77b4;stroke:#1f77b4;" x="46.730505" xlink:href="#m250bb1a007" y="97.819369"/>
     <use style="fill:#1f77b4;stroke:#1f77b4;" x="32.700836" xlink:href="#m250bb1a007" y="111.607674"/>
     <use style="fill:#1f77b4;stroke:#1f77b4;" x="56.18143" xlink:href="#m250bb1a007" y="88.413662"/>
    </g>
   </g>
   <g id="patch_3">
    <path d="M 18 126 
L 18 17.28 
" style="fill:none;stroke:#000000;stroke-linecap:square;stroke-linejoin:miter;stroke-width:0.8;"/>
   </g>
   <g id="patch_4">
    <path d="M 129.6 126 
L 129.6 17.28 
" style="fill:none;stroke:#000000;stroke-linecap:square;stroke-linejoin:miter;stroke-width:0.8;"/>
   </g>
   <g id="patch_5">
    <path d="M 18 126 
L 129.6 126 
" style="fill:none;stroke:#000000;stroke-linecap:square;stroke-linejoin:miter;stroke-width:0.8;"/>
   </g>
   <g id="patch_6">
    <path d="M 18 17.28 
L 129.6 17.28 
" style="fill:none;stroke:#000000;stroke-linecap:square;stroke-linejoin:miter;stroke-width:0.8;"/>
   </g>
  </g>
 </g>
 <defs>
  <clipPath id="pf7c3ec302c">
   <rect height="108.72" width="111.6" x="18" y="17.28"/>
  </clipPath>
 </defs>
</svg>
