<?xml version="1.0" encoding="utf-8" standalone="no"?>
<!DOCTYPE svg PUBLIC "-//W3C//DTD SVG 1.1//EN"
  "http://www.w3.org/Graphics/SVG/1.1/DTD/svg11.dtd">
<svg height="144pt" version="1.1" viewBox="0 0 144 144" width="144pt" xmlns="http://www.w3.org/2000/svg" xmlns:xlink="http://www.w3.org/1999/xlink">
 <metadata>
  <rdf:RDF xmlns:cc="http://creativecommons.org/ns#" xmlns:dc="http://purl.org/dc/elements/1.1/" xmlns:rdf="http://www.w3.org/1999/02/22-rdf-syntax-ns#">
   <cc:Work>
    <dc:type rdf:resource="http://purl.org/dc/dcmitype/StillImage"/>
    <dc:date>2021-05-27T14:41:34.270189</dc:date>
    <dc:format>image/svg+xml</dc:format>
    <dc:creator>
     <cc:Agent>
      <dc:title>Matplotlib v3.4.2, https://matplotlib.org/</dc:title>
     </cc:Agent>
    </dc:creator>
   </cc:Work>
  </rdf:RDF>
 </metadata>
 <defs>
  <style type="text/css">*{stroke-linecap:butt;stroke-linejoin:round;}</style>
 </defs>
 <g id="figure_1">
  <g id="patch_1">
   <path d="M 0 144 
L 144 144 
L 144 0 
L 0 0 
z
" style="fill:none;"/>
  </g>
  <g id="axes_1">
   <g id="patch_2">
    <path d="M 18 126 
L 129.6 126 
L 129.6 17.28 
L 18 17.28 
z
" style="fill:#ffffff;"/>
   </g>
   <g id="PathCollection_1">
    <defs>
     <path d="M 0 2.236068 
C 0.593012 2.236068 1.161816 2.000462 1.581139 1.581139 
C 2.000462 1.161816 2.236068 0.593012 2.236068 0 
C 2.236068 -0.593012 2.000462 -1.161816 1.581139 -1.581139 
C 1.161816 -2.000462 0.593012 -2.236068 0 -2.236068 
C -0.593012 -2.236068 -1.161816 -2.000462 -1.581139 -1.581139 
C -2.000462 -1.161816 -2.236068 -0.593012 -2.236068 0 
C -2.236068 0.593012 -2.000462 1.161816 -1.581139 1.581139 
C -1.161816 2.000462 -0.593012 2.236068 0 2.236068 
z
" id="me55b3868bd" style="stroke:#1f77b4;"/>
    </defs>
    <g clip-path="url(#pf1c32c39f8)">
     <use style="fill:#1f77b4;stroke:#1f77b4;" x="61.011382" xlink:href="#me55b3868bd" y="77.47261"/>
     <use style="fill:#1f77b4;stroke:#1f77b4;" x="64.627784" xlink:href="#me55b3868bd" y="80.976017"/>
     <use style="fill:#1f77b4;stroke:#1f77b4;" x="53.15493" xlink:href="#me55b3868bd" y="83.660117"/>
     <use style="fill:#1f77b4;stroke:#1f77b4;" x="33.464015" xlink:href="#me55b3868bd" y="105.231911"/>
     <use style="fill:#1f77b4;stroke:#1f77b4;" x="60.740042" xlink:href="#me55b3868bd" y="70.248453"/>
     <use style="fill:#1f77b4;stroke:#1f77b4;" x="103.004705" xlink:href="#me55b3868bd" y="37.126887"/>
     <use style="fill:#1f77b4;stroke:#1f77b4;" x="81.942219" xlink:href="#me55b3868bd" y="62.977485"/>
     <use style="fill:#1f77b4;stroke:#1f77b4;" x="57.826097" xlink:href="#me55b3868bd" y="74.517064"/>
     <use style="fill:#1f77b4;stroke:#1f77b4;" x="48.228665" xlink:href="#me55b3868bd" y="95.150986"/>
     <use style="fill:#1f77b4;stroke:#1f77b4;" x="68.953076" xlink:href="#me55b3868bd" y="77.451377"/>
     <use style="fill:#1f77b4;stroke:#1f77b4;" x="94.990922" xlink:href="#me55b3868bd" y="45.911199"/>
     <use style="fill:#1f77b4;stroke:#1f77b4;" x="69.693821" xlink:href="#me55b3868bd" y="83.248552"/>
     <use style="fill:#1f77b4;stroke:#1f77b4;" x="58.561892" xlink:href="#me55b3868bd" y="84.439902"/>
     <use style="fill:#1f77b4;stroke:#1f77b4;" x="46.85843" xlink:href="#me55b3868bd" y="98.957029"/>
     <use style="fill:#1f77b4;stroke:#1f77b4;" x="48.905125" xlink:href="#me55b3868bd" y="97.269892"/>
     <use style="fill:#1f77b4;stroke:#1f77b4;" x="36.604345" xlink:href="#me55b3868bd" y="-1"/>
     <use style="fill:#1f77b4;stroke:#1f77b4;" x="56.408744" xlink:href="#me55b3868bd" y="-1"/>
     <use style="fill:#1f77b4;stroke:#1f77b4;" x="81.527251" xlink:href="#me55b3868bd" y="51.894646"/>
    </g>
   </g>
   <g id="matplotlib.axis_1">
    <g id="xtick_1">
     <g id="line2d_1">
      <defs>
       <path d="M 0 0 
L 0 3.5 
" id="ma7c8058ef3" style="stroke:#000000;stroke-width:0.8;"/>
      </defs>
      <g>
       <use style="stroke:#000000;stroke-width:0.8;" x="28.145455" xlink:href="#ma7c8058ef3" y="126"/>
      </g>
     </g>
     <g id="text_1">
      <!-- 0.2 -->
      <g transform="translate(21.784205 139.07875)scale(0.08 -0.08)">
       <defs>
        <path d="M 2034 4250 
Q 1547 4250 1301 3770 
Q 1056 3291 1056 2328 
Q 1056 1369 1301 889 
Q 1547 409 2034 409 
Q 2525 409 2770 889 
Q 3016 1369 3016 2328 
Q 3016 3291 2770 3770 
Q 2525 4250 2034 4250 
z
M 2034 4750 
Q 2819 4750 3233 4129 
Q 3647 3509 3647 2328 
Q 3647 1150 3233 529 
Q 2819 -91 2034 -91 
Q 1250 -91 836 529 
Q 422 1150 422 2328 
Q 422 3509 836 4129 
Q 1250 4750 2034 4750 
z
" id="DejaVuSans-30" transform="scale(0.015625)"/>
        <path d="M 684 794 
L 1344 794 
L 1344 0 
L 684 0 
L 684 794 
z
" id="DejaVuSans-2e" transform="scale(0.015625)"/>
        <path d="M 1228 531 
L 3431 531 
L 3431 0 
L 469 0 
L 469 531 
Q 828 903 1448 1529 
Q 2069 2156 2228 2338 
Q 2531 2678 2651 2914 
Q 2772 3150 2772 3378 
Q 2772 3750 2511 3984 
Q 2250 4219 1831 4219 
Q 1534 4219 1204 4116 
Q 875 4013 500 3803 
L 500 4441 
Q 881 4594 1212 4672 
Q 1544 4750 1819 4750 
Q 2544 4750 2975 4387 
Q 3406 4025 3406 3419 
Q 3406 3131 3298 2873 
Q 3191 2616 2906 2266 
Q 2828 2175 2409 1742 
Q 1991 1309 1228 531 
z
" id="DejaVuSans-32" transform="scale(0.015625)"/>
       </defs>
       <use xlink:href="#DejaVuSans-30"/>
       <use x="63.623047" xlink:href="#DejaVuSans-2e"/>
       <use x="95.410156" xlink:href="#DejaVuSans-32"/>
      </g>
     </g>
    </g>
    <g id="xtick_2">
     <g id="line2d_2">
      <g>
       <use style="stroke:#000000;stroke-width:0.8;" x="68.727273" xlink:href="#ma7c8058ef3" y="126"/>
      </g>
     </g>
     <g id="text_2">
      <!-- 0.4 -->
      <g transform="translate(62.366023 139.07875)scale(0.08 -0.08)">
       <defs>
        <path d="M 2419 4116 
L 825 1625 
L 2419 1625 
L 2419 4116 
z
M 2253 4666 
L 3047 4666 
L 3047 1625 
L 3713 1625 
L 3713 1100 
L 3047 1100 
L 3047 0 
L 2419 0 
L 2419 1100 
L 313 1100 
L 313 1709 
L 2253 4666 
z
" id="DejaVuSans-34" transform="scale(0.015625)"/>
       </defs>
       <use xlink:href="#DejaVuSans-30"/>
       <use x="63.623047" xlink:href="#DejaVuSans-2e"/>
       <use x="95.410156" xlink:href="#DejaVuSans-34"/>
      </g>
     </g>
    </g>
    <g id="xtick_3">
     <g id="line2d_3">
      <g>
       <use style="stroke:#000000;stroke-width:0.8;" x="109.309091" xlink:href="#ma7c8058ef3" y="126"/>
      </g>
     </g>
     <g id="text_3">
      <!-- 0.6 -->
      <g transform="translate(102.947841 139.07875)scale(0.08 -0.08)">
       <defs>
        <path d="M 2113 2584 
Q 1688 2584 1439 2293 
Q 1191 2003 1191 1497 
Q 1191 994 1439 701 
Q 1688 409 2113 409 
Q 2538 409 2786 701 
Q 3034 994 3034 1497 
Q 3034 2003 2786 2293 
Q 2538 2584 2113 2584 
z
M 3366 4563 
L 3366 3988 
Q 3128 4100 2886 4159 
Q 2644 4219 2406 4219 
Q 1781 4219 1451 3797 
Q 1122 3375 1075 2522 
Q 1259 2794 1537 2939 
Q 1816 3084 2150 3084 
Q 2853 3084 3261 2657 
Q 3669 2231 3669 1497 
Q 3669 778 3244 343 
Q 2819 -91 2113 -91 
Q 1303 -91 875 529 
Q 447 1150 447 2328 
Q 447 3434 972 4092 
Q 1497 4750 2381 4750 
Q 2619 4750 2861 4703 
Q 3103 4656 3366 4563 
z
" id="DejaVuSans-36" transform="scale(0.015625)"/>
       </defs>
       <use xlink:href="#DejaVuSans-30"/>
       <use x="63.623047" xlink:href="#DejaVuSans-2e"/>
       <use x="95.410156" xlink:href="#DejaVuSans-36"/>
      </g>
     </g>
    </g>
    <g id="text_4">
     <!-- $\sigma^{xy}$ (true) -->
     <g transform="translate(55.04 150.82125)scale(0.08 -0.08)">
      <defs>
       <path d="M 2219 3044 
Q 1744 3044 1422 2700 
Q 1081 2341 969 1747 
Q 844 1119 1044 756 
Q 1241 397 1706 397 
Q 2166 397 2503 759 
Q 2844 1122 2966 1747 
Q 3075 2319 2881 2700 
Q 2700 3044 2219 3044 
z
M 2309 3503 
L 4219 3500 
L 4106 2925 
L 3463 2925 
Q 3706 2438 3575 1747 
Q 3406 888 2884 400 
Q 2359 -91 1609 -91 
Q 856 -91 525 400 
Q 194 888 363 1747 
Q 528 2609 1050 3097 
Q 1484 3503 2309 3503 
z
" id="DejaVuSans-Oblique-3c3" transform="scale(0.015625)"/>
       <path d="M 3841 3500 
L 2234 1784 
L 3219 0 
L 2559 0 
L 1819 1388 
L 531 0 
L -166 0 
L 1556 1844 
L 641 3500 
L 1300 3500 
L 1972 2234 
L 3144 3500 
L 3841 3500 
z
" id="DejaVuSans-Oblique-78" transform="scale(0.015625)"/>
       <path d="M 1588 -325 
Q 1188 -997 936 -1164 
Q 684 -1331 294 -1331 
L -159 -1331 
L -63 -850 
L 269 -850 
Q 509 -850 678 -719 
Q 847 -588 1056 -206 
L 1234 128 
L 459 3500 
L 1069 3500 
L 1650 819 
L 3256 3500 
L 3859 3500 
L 1588 -325 
z
" id="DejaVuSans-Oblique-79" transform="scale(0.015625)"/>
       <path id="DejaVuSans-20" transform="scale(0.015625)"/>
       <path d="M 1984 4856 
Q 1566 4138 1362 3434 
Q 1159 2731 1159 2009 
Q 1159 1288 1364 580 
Q 1569 -128 1984 -844 
L 1484 -844 
Q 1016 -109 783 600 
Q 550 1309 550 2009 
Q 550 2706 781 3412 
Q 1013 4119 1484 4856 
L 1984 4856 
z
" id="DejaVuSans-28" transform="scale(0.015625)"/>
       <path d="M 1172 4494 
L 1172 3500 
L 2356 3500 
L 2356 3053 
L 1172 3053 
L 1172 1153 
Q 1172 725 1289 603 
Q 1406 481 1766 481 
L 2356 481 
L 2356 0 
L 1766 0 
Q 1100 0 847 248 
Q 594 497 594 1153 
L 594 3053 
L 172 3053 
L 172 3500 
L 594 3500 
L 594 4494 
L 1172 4494 
z
" id="DejaVuSans-74" transform="scale(0.015625)"/>
       <path d="M 2631 2963 
Q 2534 3019 2420 3045 
Q 2306 3072 2169 3072 
Q 1681 3072 1420 2755 
Q 1159 2438 1159 1844 
L 1159 0 
L 581 0 
L 581 3500 
L 1159 3500 
L 1159 2956 
Q 1341 3275 1631 3429 
Q 1922 3584 2338 3584 
Q 2397 3584 2469 3576 
Q 2541 3569 2628 3553 
L 2631 2963 
z
" id="DejaVuSans-72" transform="scale(0.015625)"/>
       <path d="M 544 1381 
L 544 3500 
L 1119 3500 
L 1119 1403 
Q 1119 906 1312 657 
Q 1506 409 1894 409 
Q 2359 409 2629 706 
Q 2900 1003 2900 1516 
L 2900 3500 
L 3475 3500 
L 3475 0 
L 2900 0 
L 2900 538 
Q 2691 219 2414 64 
Q 2138 -91 1772 -91 
Q 1169 -91 856 284 
Q 544 659 544 1381 
z
M 1991 3584 
L 1991 3584 
z
" id="DejaVuSans-75" transform="scale(0.015625)"/>
       <path d="M 3597 1894 
L 3597 1613 
L 953 1613 
Q 991 1019 1311 708 
Q 1631 397 2203 397 
Q 2534 397 2845 478 
Q 3156 559 3463 722 
L 3463 178 
Q 3153 47 2828 -22 
Q 2503 -91 2169 -91 
Q 1331 -91 842 396 
Q 353 884 353 1716 
Q 353 2575 817 3079 
Q 1281 3584 2069 3584 
Q 2775 3584 3186 3129 
Q 3597 2675 3597 1894 
z
M 3022 2063 
Q 3016 2534 2758 2815 
Q 2500 3097 2075 3097 
Q 1594 3097 1305 2825 
Q 1016 2553 972 2059 
L 3022 2063 
z
" id="DejaVuSans-65" transform="scale(0.015625)"/>
       <path d="M 513 4856 
L 1013 4856 
Q 1481 4119 1714 3412 
Q 1947 2706 1947 2009 
Q 1947 1309 1714 600 
Q 1481 -109 1013 -844 
L 513 -844 
Q 928 -128 1133 580 
Q 1338 1288 1338 2009 
Q 1338 2731 1133 3434 
Q 928 4138 513 4856 
z
" id="DejaVuSans-29" transform="scale(0.015625)"/>
      </defs>
      <use transform="translate(0 0.4375)" xlink:href="#DejaVuSans-Oblique-3c3"/>
      <use transform="translate(67.851615 38.71875)scale(0.7)" xlink:href="#DejaVuSans-Oblique-78"/>
      <use transform="translate(109.277396 38.71875)scale(0.7)" xlink:href="#DejaVuSans-Oblique-79"/>
      <use transform="translate(153.437552 0.4375)" xlink:href="#DejaVuSans-20"/>
      <use transform="translate(185.224661 0.4375)" xlink:href="#DejaVuSans-28"/>
      <use transform="translate(224.238333 0.4375)" xlink:href="#DejaVuSans-74"/>
      <use transform="translate(263.447318 0.4375)" xlink:href="#DejaVuSans-72"/>
      <use transform="translate(304.560599 0.4375)" xlink:href="#DejaVuSans-75"/>
      <use transform="translate(367.939505 0.4375)" xlink:href="#DejaVuSans-65"/>
      <use transform="translate(429.462943 0.4375)" xlink:href="#DejaVuSans-29"/>
     </g>
    </g>
   </g>
   <g id="matplotlib.axis_2">
    <g id="ytick_1">
     <g id="line2d_4">
      <defs>
       <path d="M 0 0 
L -3.5 0 
" id="me564b86c12" style="stroke:#000000;stroke-width:0.8;"/>
      </defs>
      <g>
       <use style="stroke:#000000;stroke-width:0.8;" x="18" xlink:href="#me564b86c12" y="116.116364"/>
      </g>
     </g>
     <g id="text_5">
      <!-- 0.2 -->
      <g transform="translate(-1.7225 119.155739)scale(0.08 -0.08)">
       <use xlink:href="#DejaVuSans-30"/>
       <use x="63.623047" xlink:href="#DejaVuSans-2e"/>
       <use x="95.410156" xlink:href="#DejaVuSans-32"/>
      </g>
     </g>
    </g>
    <g id="ytick_2">
     <g id="line2d_5">
      <g>
       <use style="stroke:#000000;stroke-width:0.8;" x="18" xlink:href="#me564b86c12" y="76.581818"/>
      </g>
     </g>
     <g id="text_6">
      <!-- 0.4 -->
      <g transform="translate(-1.7225 79.621193)scale(0.08 -0.08)">
       <use xlink:href="#DejaVuSans-30"/>
       <use x="63.623047" xlink:href="#DejaVuSans-2e"/>
       <use x="95.410156" xlink:href="#DejaVuSans-34"/>
      </g>
     </g>
    </g>
    <g id="ytick_3">
     <g id="line2d_6">
      <g>
       <use style="stroke:#000000;stroke-width:0.8;" x="18" xlink:href="#me564b86c12" y="37.047273"/>
      </g>
     </g>
     <g id="text_7">
      <!-- 0.6 -->
      <g transform="translate(-1.7225 40.086648)scale(0.08 -0.08)">
       <use xlink:href="#DejaVuSans-30"/>
       <use x="63.623047" xlink:href="#DejaVuSans-2e"/>
       <use x="95.410156" xlink:href="#DejaVuSans-36"/>
      </g>
     </g>
    </g>
    <g id="text_8">
     <!-- $\sigma^{xy}$ (fit) -->
     <g transform="translate(-7.38625 86.28)rotate(-90)scale(0.08 -0.08)">
      <defs>
       <path d="M 2375 4863 
L 2375 4384 
L 1825 4384 
Q 1516 4384 1395 4259 
Q 1275 4134 1275 3809 
L 1275 3500 
L 2222 3500 
L 2222 3053 
L 1275 3053 
L 1275 0 
L 697 0 
L 697 3053 
L 147 3053 
L 147 3500 
L 697 3500 
L 697 3744 
Q 697 4328 969 4595 
Q 1241 4863 1831 4863 
L 2375 4863 
z
" id="DejaVuSans-66" transform="scale(0.015625)"/>
       <path d="M 603 3500 
L 1178 3500 
L 1178 0 
L 603 0 
L 603 3500 
z
M 603 4863 
L 1178 4863 
L 1178 4134 
L 603 4134 
L 603 4863 
z
" id="DejaVuSans-69" transform="scale(0.015625)"/>
      </defs>
      <use transform="translate(0 0.4375)" xlink:href="#DejaVuSans-Oblique-3c3"/>
      <use transform="translate(67.851615 38.71875)scale(0.7)" xlink:href="#DejaVuSans-Oblique-78"/>
      <use transform="translate(109.277396 38.71875)scale(0.7)" xlink:href="#DejaVuSans-Oblique-79"/>
      <use transform="translate(153.437552 0.4375)" xlink:href="#DejaVuSans-20"/>
      <use transform="translate(185.224661 0.4375)" xlink:href="#DejaVuSans-28"/>
      <use transform="translate(224.238333 0.4375)" xlink:href="#DejaVuSans-66"/>
      <use transform="translate(259.443411 0.4375)" xlink:href="#DejaVuSans-69"/>
      <use transform="translate(287.226615 0.4375)" xlink:href="#DejaVuSans-74"/>
      <use transform="translate(326.435599 0.4375)" xlink:href="#DejaVuSans-29"/>
     </g>
    </g>
   </g>
   <g id="LineCollection_1">
    <path clip-path="url(#pf1c32c39f8)" d="M 61.011382 81.612712 
L 61.011382 73.100784 
" style="fill:none;stroke:#1f77b4;stroke-width:1.5;"/>
    <path clip-path="url(#pf1c32c39f8)" d="M 64.627784 84.789382 
L 64.627784 76.462873 
" style="fill:none;stroke:#1f77b4;stroke-width:1.5;"/>
    <path clip-path="url(#pf1c32c39f8)" d="M 53.15493 87.567182 
L 53.15493 79.129296 
" style="fill:none;stroke:#1f77b4;stroke-width:1.5;"/>
    <path clip-path="url(#pf1c32c39f8)" d="M 33.464015 108.695281 
L 33.464015 101.850323 
" style="fill:none;stroke:#1f77b4;stroke-width:1.5;"/>
    <path clip-path="url(#pf1c32c39f8)" d="M 60.740042 84.919302 
L 60.740042 53.731701 
" style="fill:none;stroke:#1f77b4;stroke-width:1.5;"/>
    <path clip-path="url(#pf1c32c39f8)" d="M 103.004705 48.077029 
L 103.004705 26.427929 
" style="fill:none;stroke:#1f77b4;stroke-width:1.5;"/>
    <path clip-path="url(#pf1c32c39f8)" d="M 81.942219 67.384294 
L 81.942219 59.469607 
" style="fill:none;stroke:#1f77b4;stroke-width:1.5;"/>
    <path clip-path="url(#pf1c32c39f8)" d="M 57.826097 97.114745 
L 57.826097 47.308038 
" style="fill:none;stroke:#1f77b4;stroke-width:1.5;"/>
    <path clip-path="url(#pf1c32c39f8)" d="M 48.228665 96.972992 
L 48.228665 93.369641 
" style="fill:none;stroke:#1f77b4;stroke-width:1.5;"/>
    <path clip-path="url(#pf1c32c39f8)" d="M 68.953076 82.96545 
L 68.953076 72.47052 
" style="fill:none;stroke:#1f77b4;stroke-width:1.5;"/>
    <path clip-path="url(#pf1c32c39f8)" d="M 94.990922 60.856955 
L 94.990922 29.45545 
" style="fill:none;stroke:#1f77b4;stroke-width:1.5;"/>
    <path clip-path="url(#pf1c32c39f8)" d="M 69.693821 88.578675 
L 69.693821 77.611742 
" style="fill:none;stroke:#1f77b4;stroke-width:1.5;"/>
    <path clip-path="url(#pf1c32c39f8)" d="M 58.561892 88.134523 
L 58.561892 80.195588 
" style="fill:none;stroke:#1f77b4;stroke-width:1.5;"/>
    <path clip-path="url(#pf1c32c39f8)" d="M 46.85843 102.691543 
L 46.85843 94.555044 
" style="fill:none;stroke:#1f77b4;stroke-width:1.5;"/>
    <path clip-path="url(#pf1c32c39f8)" d="M 48.905125 101.411987 
L 48.905125 92.506713 
" style="fill:none;stroke:#1f77b4;stroke-width:1.5;"/>
    <path clip-path="url(#pf1c32c39f8)" d="M 29.51555 141.320284 
L 29.51555 -1 
" style="fill:none;stroke:#1f77b4;stroke-width:1.5;"/>
    <path clip-path="url(#pf1c32c39f8)" d="M 81.527251 62.78789 
L 81.527251 41.184487 
" style="fill:none;stroke:#1f77b4;stroke-width:1.5;"/>
   </g>
   <g id="line2d_7">
    <path clip-path="url(#pf1c32c39f8)" d="M 29.51555 114.781626 
L 33.464015 110.935056 
L 46.85843 97.886304 
L 48.228665 96.55143 
L 48.905125 95.892426 
L 53.15493 91.752294 
L 57.826097 87.201673 
L 58.561892 86.484867 
L 60.740042 84.362927 
L 61.011382 84.09859 
L 64.627784 80.575514 
L 68.953076 76.361842 
L 69.693821 75.640213 
L 81.527251 64.112162 
L 81.942219 63.707902 
L 94.990922 50.99594 
L 103.004705 43.188965 
" style="fill:none;stroke:#000000;stroke-dasharray:5.55,2.4;stroke-dashoffset:0;stroke-width:1.5;"/>
   </g>
   <g id="line2d_8">
    <defs>
     <path d="M 2 0 
L -2 -0 
" id="md1f15f28a2" style="stroke:#1f77b4;"/>
    </defs>
    <g clip-path="url(#pf1c32c39f8)">
     <use style="fill:#1f77b4;stroke:#1f77b4;" x="61.011382" xlink:href="#md1f15f28a2" y="81.612712"/>
     <use style="fill:#1f77b4;stroke:#1f77b4;" x="64.627784" xlink:href="#md1f15f28a2" y="84.789382"/>
     <use style="fill:#1f77b4;stroke:#1f77b4;" x="53.15493" xlink:href="#md1f15f28a2" y="87.567182"/>
     <use style="fill:#1f77b4;stroke:#1f77b4;" x="33.464015" xlink:href="#md1f15f28a2" y="108.695281"/>
     <use style="fill:#1f77b4;stroke:#1f77b4;" x="60.740042" xlink:href="#md1f15f28a2" y="84.919302"/>
     <use style="fill:#1f77b4;stroke:#1f77b4;" x="103.004705" xlink:href="#md1f15f28a2" y="48.077029"/>
     <use style="fill:#1f77b4;stroke:#1f77b4;" x="81.942219" xlink:href="#md1f15f28a2" y="67.384294"/>
     <use style="fill:#1f77b4;stroke:#1f77b4;" x="57.826097" xlink:href="#md1f15f28a2" y="97.114745"/>
     <use style="fill:#1f77b4;stroke:#1f77b4;" x="48.228665" xlink:href="#md1f15f28a2" y="96.972992"/>
     <use style="fill:#1f77b4;stroke:#1f77b4;" x="68.953076" xlink:href="#md1f15f28a2" y="82.96545"/>
     <use style="fill:#1f77b4;stroke:#1f77b4;" x="94.990922" xlink:href="#md1f15f28a2" y="60.856955"/>
     <use style="fill:#1f77b4;stroke:#1f77b4;" x="69.693821" xlink:href="#md1f15f28a2" y="88.578675"/>
     <use style="fill:#1f77b4;stroke:#1f77b4;" x="58.561892" xlink:href="#md1f15f28a2" y="88.134523"/>
     <use style="fill:#1f77b4;stroke:#1f77b4;" x="46.85843" xlink:href="#md1f15f28a2" y="102.691543"/>
     <use style="fill:#1f77b4;stroke:#1f77b4;" x="48.905125" xlink:href="#md1f15f28a2" y="101.411987"/>
     <use style="fill:#1f77b4;stroke:#1f77b4;" x="29.51555" xlink:href="#md1f15f28a2" y="141.320284"/>
     <use style="fill:#1f77b4;stroke:#1f77b4;" x="81.527251" xlink:href="#md1f15f28a2" y="62.78789"/>
    </g>
   </g>
   <g id="line2d_9">
    <g clip-path="url(#pf1c32c39f8)">
     <use style="fill:#1f77b4;stroke:#1f77b4;" x="61.011382" xlink:href="#md1f15f28a2" y="73.100784"/>
     <use style="fill:#1f77b4;stroke:#1f77b4;" x="64.627784" xlink:href="#md1f15f28a2" y="76.462873"/>
     <use style="fill:#1f77b4;stroke:#1f77b4;" x="53.15493" xlink:href="#md1f15f28a2" y="79.129296"/>
     <use style="fill:#1f77b4;stroke:#1f77b4;" x="33.464015" xlink:href="#md1f15f28a2" y="101.850323"/>
     <use style="fill:#1f77b4;stroke:#1f77b4;" x="60.740042" xlink:href="#md1f15f28a2" y="53.731701"/>
     <use style="fill:#1f77b4;stroke:#1f77b4;" x="103.004705" xlink:href="#md1f15f28a2" y="26.427929"/>
     <use style="fill:#1f77b4;stroke:#1f77b4;" x="81.942219" xlink:href="#md1f15f28a2" y="59.469607"/>
     <use style="fill:#1f77b4;stroke:#1f77b4;" x="57.826097" xlink:href="#md1f15f28a2" y="47.308038"/>
     <use style="fill:#1f77b4;stroke:#1f77b4;" x="48.228665" xlink:href="#md1f15f28a2" y="93.369641"/>
     <use style="fill:#1f77b4;stroke:#1f77b4;" x="68.953076" xlink:href="#md1f15f28a2" y="72.47052"/>
     <use style="fill:#1f77b4;stroke:#1f77b4;" x="94.990922" xlink:href="#md1f15f28a2" y="29.45545"/>
     <use style="fill:#1f77b4;stroke:#1f77b4;" x="69.693821" xlink:href="#md1f15f28a2" y="77.611742"/>
     <use style="fill:#1f77b4;stroke:#1f77b4;" x="58.561892" xlink:href="#md1f15f28a2" y="80.195588"/>
     <use style="fill:#1f77b4;stroke:#1f77b4;" x="46.85843" xlink:href="#md1f15f28a2" y="94.555044"/>
     <use style="fill:#1f77b4;stroke:#1f77b4;" x="48.905125" xlink:href="#md1f15f28a2" y="92.506713"/>
     <use style="fill:#1f77b4;stroke:#1f77b4;" x="45.241298" xlink:href="#md1f15f28a2" y="-1"/>
     <use style="fill:#1f77b4;stroke:#1f77b4;" x="76.580385" xlink:href="#md1f15f28a2" y="-1"/>
     <use style="fill:#1f77b4;stroke:#1f77b4;" x="81.527251" xlink:href="#md1f15f28a2" y="41.184487"/>
    </g>
   </g>
   <g id="line2d_10">
    <defs>
     <path d="M 0 1.5 
C 0.397805 1.5 0.77937 1.341951 1.06066 1.06066 
C 1.341951 0.77937 1.5 0.397805 1.5 0 
C 1.5 -0.397805 1.341951 -0.77937 1.06066 -1.06066 
C 0.77937 -1.341951 0.397805 -1.5 0 -1.5 
C -0.397805 -1.5 -0.77937 -1.341951 -1.06066 -1.06066 
C -1.341951 -0.77937 -1.5 -0.397805 -1.5 0 
C -1.5 0.397805 -1.341951 0.77937 -1.06066 1.06066 
C -0.77937 1.341951 -0.397805 1.5 0 1.5 
z
" id="me72e320308" style="stroke:#1f77b4;"/>
    </defs>
    <g clip-path="url(#pf1c32c39f8)">
     <use style="fill:#1f77b4;stroke:#1f77b4;" x="61.011382" xlink:href="#me72e320308" y="77.47261"/>
     <use style="fill:#1f77b4;stroke:#1f77b4;" x="64.627784" xlink:href="#me72e320308" y="80.976017"/>
     <use style="fill:#1f77b4;stroke:#1f77b4;" x="53.15493" xlink:href="#me72e320308" y="83.660117"/>
     <use style="fill:#1f77b4;stroke:#1f77b4;" x="33.464015" xlink:href="#me72e320308" y="105.231911"/>
     <use style="fill:#1f77b4;stroke:#1f77b4;" x="60.740042" xlink:href="#me72e320308" y="70.248453"/>
     <use style="fill:#1f77b4;stroke:#1f77b4;" x="103.004705" xlink:href="#me72e320308" y="37.126887"/>
     <use style="fill:#1f77b4;stroke:#1f77b4;" x="81.942219" xlink:href="#me72e320308" y="62.977485"/>
     <use style="fill:#1f77b4;stroke:#1f77b4;" x="57.826097" xlink:href="#me72e320308" y="74.517064"/>
     <use style="fill:#1f77b4;stroke:#1f77b4;" x="48.228665" xlink:href="#me72e320308" y="95.150986"/>
     <use style="fill:#1f77b4;stroke:#1f77b4;" x="68.953076" xlink:href="#me72e320308" y="77.451377"/>
     <use style="fill:#1f77b4;stroke:#1f77b4;" x="94.990922" xlink:href="#me72e320308" y="45.911199"/>
     <use style="fill:#1f77b4;stroke:#1f77b4;" x="69.693821" xlink:href="#me72e320308" y="83.248552"/>
     <use style="fill:#1f77b4;stroke:#1f77b4;" x="58.561892" xlink:href="#me72e320308" y="84.439902"/>
     <use style="fill:#1f77b4;stroke:#1f77b4;" x="46.85843" xlink:href="#me72e320308" y="98.957029"/>
     <use style="fill:#1f77b4;stroke:#1f77b4;" x="48.905125" xlink:href="#me72e320308" y="97.269892"/>
     <use style="fill:#1f77b4;stroke:#1f77b4;" x="36.604345" xlink:href="#me72e320308" y="-1"/>
     <use style="fill:#1f77b4;stroke:#1f77b4;" x="56.408744" xlink:href="#me72e320308" y="-1"/>
     <use style="fill:#1f77b4;stroke:#1f77b4;" x="81.527251" xlink:href="#me72e320308" y="51.894646"/>
    </g>
   </g>
   <g id="patch_3">
    <path d="M 18 126 
L 18 17.28 
" style="fill:none;stroke:#000000;stroke-linecap:square;stroke-linejoin:miter;stroke-width:0.8;"/>
   </g>
   <g id="patch_4">
    <path d="M 129.6 126 
L 129.6 17.28 
" style="fill:none;stroke:#000000;stroke-linecap:square;stroke-linejoin:miter;stroke-width:0.8;"/>
   </g>
   <g id="patch_5">
    <path d="M 18 126 
L 129.6 126 
" style="fill:none;stroke:#000000;stroke-linecap:square;stroke-linejoin:miter;stroke-width:0.8;"/>
   </g>
   <g id="patch_6">
    <path d="M 18 17.28 
L 129.6 17.28 
" style="fill:none;stroke:#000000;stroke-linecap:square;stroke-linejoin:miter;stroke-width:0.8;"/>
   </g>
  </g>
 </g>
 <defs>
  <clipPath id="pf1c32c39f8">
   <rect height="108.72" width="111.6" x="18" y="17.28"/>
  </clipPath>
 </defs>
</svg>
