<?xml version="1.0" encoding="utf-8" standalone="no"?>
<!DOCTYPE svg PUBLIC "-//W3C//DTD SVG 1.1//EN"
  "http://www.w3.org/Graphics/SVG/1.1/DTD/svg11.dtd">
<svg height="43.2pt" version="1.1" viewBox="0 0 252 43.2" width="252pt" xmlns="http://www.w3.org/2000/svg" xmlns:xlink="http://www.w3.org/1999/xlink">
 <metadata>
  <rdf:RDF xmlns:cc="http://creativecommons.org/ns#" xmlns:dc="http://purl.org/dc/elements/1.1/" xmlns:rdf="http://www.w3.org/1999/02/22-rdf-syntax-ns#">
   <cc:Work>
    <dc:type rdf:resource="http://purl.org/dc/dcmitype/StillImage"/>
    <dc:date>2021-07-22T00:02:58.454697</dc:date>
    <dc:format>image/svg+xml</dc:format>
    <dc:creator>
     <cc:Agent>
      <dc:title>Matplotlib v3.4.2, https://matplotlib.org/</dc:title>
     </cc:Agent>
    </dc:creator>
   </cc:Work>
  </rdf:RDF>
 </metadata>
 <defs>
  <style type="text/css">*{stroke-linecap:butt;stroke-linejoin:round;}</style>
 </defs>
 <g id="figure_1">
  <g id="patch_1">
   <path d="M 0 43.2 
L 252 43.2 
L 252 0 
L 0 0 
z
" style="fill:none;"/>
  </g>
  <g id="axes_1">
   <g id="patch_2">
    <path d="M 31.5 37.8 
L 59.4 37.8 
L 59.4 5.184 
L 31.5 5.184 
z
" style="fill:#ffffff;"/>
   </g>
   <g id="matplotlib.axis_1">
    <g id="xtick_1">
     <g id="line2d_1">
      <defs>
       <path d="M 0 0 
L 0 3.5 
" id="m9a1a2106ea" style="stroke:#000000;stroke-width:0.8;"/>
      </defs>
      <g>
       <use style="stroke:#000000;stroke-width:0.8;" x="36.970588" xlink:href="#m9a1a2106ea" y="37.8"/>
      </g>
     </g>
     <g id="text_1">
      <!-- 1100 -->
      <g transform="translate(26.790588 50.87875)scale(0.08 -0.08)">
       <defs>
        <path d="M 794 531 
L 1825 531 
L 1825 4091 
L 703 3866 
L 703 4441 
L 1819 4666 
L 2450 4666 
L 2450 531 
L 3481 531 
L 3481 0 
L 794 0 
L 794 531 
z
" id="DejaVuSans-31" transform="scale(0.015625)"/>
        <path d="M 2034 4250 
Q 1547 4250 1301 3770 
Q 1056 3291 1056 2328 
Q 1056 1369 1301 889 
Q 1547 409 2034 409 
Q 2525 409 2770 889 
Q 3016 1369 3016 2328 
Q 3016 3291 2770 3770 
Q 2525 4250 2034 4250 
z
M 2034 4750 
Q 2819 4750 3233 4129 
Q 3647 3509 3647 2328 
Q 3647 1150 3233 529 
Q 2819 -91 2034 -91 
Q 1250 -91 836 529 
Q 422 1150 422 2328 
Q 422 3509 836 4129 
Q 1250 4750 2034 4750 
z
" id="DejaVuSans-30" transform="scale(0.015625)"/>
       </defs>
       <use xlink:href="#DejaVuSans-31"/>
       <use x="63.623047" xlink:href="#DejaVuSans-31"/>
       <use x="127.246094" xlink:href="#DejaVuSans-30"/>
       <use x="190.869141" xlink:href="#DejaVuSans-30"/>
      </g>
     </g>
    </g>
    <g id="xtick_2">
     <g id="line2d_2">
      <g>
       <use style="stroke:#000000;stroke-width:0.8;" x="55.205882" xlink:href="#m9a1a2106ea" y="37.8"/>
      </g>
     </g>
     <g id="text_2">
      <!-- 1200 -->
      <g transform="translate(45.025882 50.87875)scale(0.08 -0.08)">
       <defs>
        <path d="M 1228 531 
L 3431 531 
L 3431 0 
L 469 0 
L 469 531 
Q 828 903 1448 1529 
Q 2069 2156 2228 2338 
Q 2531 2678 2651 2914 
Q 2772 3150 2772 3378 
Q 2772 3750 2511 3984 
Q 2250 4219 1831 4219 
Q 1534 4219 1204 4116 
Q 875 4013 500 3803 
L 500 4441 
Q 881 4594 1212 4672 
Q 1544 4750 1819 4750 
Q 2544 4750 2975 4387 
Q 3406 4025 3406 3419 
Q 3406 3131 3298 2873 
Q 3191 2616 2906 2266 
Q 2828 2175 2409 1742 
Q 1991 1309 1228 531 
z
" id="DejaVuSans-32" transform="scale(0.015625)"/>
       </defs>
       <use xlink:href="#DejaVuSans-31"/>
       <use x="63.623047" xlink:href="#DejaVuSans-32"/>
       <use x="127.246094" xlink:href="#DejaVuSans-30"/>
       <use x="190.869141" xlink:href="#DejaVuSans-30"/>
      </g>
     </g>
    </g>
   </g>
   <g id="matplotlib.axis_2">
    <g id="ytick_1">
     <g id="line2d_3">
      <defs>
       <path d="M 0 0 
L -3.5 0 
" id="me0dd4b3db8" style="stroke:#000000;stroke-width:0.8;"/>
      </defs>
      <g>
       <use style="stroke:#000000;stroke-width:0.8;" x="31.5" xlink:href="#me0dd4b3db8" y="37.8"/>
      </g>
     </g>
     <g id="text_3">
      <!-- 0 -->
      <g transform="translate(19.41 40.839375)scale(0.08 -0.08)">
       <use xlink:href="#DejaVuSans-30"/>
      </g>
     </g>
    </g>
    <g id="ytick_2">
     <g id="line2d_4">
      <g>
       <use style="stroke:#000000;stroke-width:0.8;" x="31.5" xlink:href="#me0dd4b3db8" y="13.54185"/>
      </g>
     </g>
     <g id="text_4">
      <!-- 0.025 -->
      <g transform="translate(1.5975 16.581225)scale(0.08 -0.08)">
       <defs>
        <path d="M 684 794 
L 1344 794 
L 1344 0 
L 684 0 
L 684 794 
z
" id="DejaVuSans-2e" transform="scale(0.015625)"/>
        <path d="M 691 4666 
L 3169 4666 
L 3169 4134 
L 1269 4134 
L 1269 2991 
Q 1406 3038 1543 3061 
Q 1681 3084 1819 3084 
Q 2600 3084 3056 2656 
Q 3513 2228 3513 1497 
Q 3513 744 3044 326 
Q 2575 -91 1722 -91 
Q 1428 -91 1123 -41 
Q 819 9 494 109 
L 494 744 
Q 775 591 1075 516 
Q 1375 441 1709 441 
Q 2250 441 2565 725 
Q 2881 1009 2881 1497 
Q 2881 1984 2565 2268 
Q 2250 2553 1709 2553 
Q 1456 2553 1204 2497 
Q 953 2441 691 2322 
L 691 4666 
z
" id="DejaVuSans-35" transform="scale(0.015625)"/>
       </defs>
       <use xlink:href="#DejaVuSans-30"/>
       <use x="63.623047" xlink:href="#DejaVuSans-2e"/>
       <use x="95.410156" xlink:href="#DejaVuSans-30"/>
       <use x="159.033203" xlink:href="#DejaVuSans-32"/>
       <use x="222.65625" xlink:href="#DejaVuSans-35"/>
      </g>
     </g>
    </g>
    <g id="text_5">
     <!-- Density -->
     <g transform="translate(-4.06625 36.698875)rotate(-90)scale(0.08 -0.08)">
      <defs>
       <path d="M 1259 4147 
L 1259 519 
L 2022 519 
Q 2988 519 3436 956 
Q 3884 1394 3884 2338 
Q 3884 3275 3436 3711 
Q 2988 4147 2022 4147 
L 1259 4147 
z
M 628 4666 
L 1925 4666 
Q 3281 4666 3915 4102 
Q 4550 3538 4550 2338 
Q 4550 1131 3912 565 
Q 3275 0 1925 0 
L 628 0 
L 628 4666 
z
" id="DejaVuSans-44" transform="scale(0.015625)"/>
       <path d="M 3597 1894 
L 3597 1613 
L 953 1613 
Q 991 1019 1311 708 
Q 1631 397 2203 397 
Q 2534 397 2845 478 
Q 3156 559 3463 722 
L 3463 178 
Q 3153 47 2828 -22 
Q 2503 -91 2169 -91 
Q 1331 -91 842 396 
Q 353 884 353 1716 
Q 353 2575 817 3079 
Q 1281 3584 2069 3584 
Q 2775 3584 3186 3129 
Q 3597 2675 3597 1894 
z
M 3022 2063 
Q 3016 2534 2758 2815 
Q 2500 3097 2075 3097 
Q 1594 3097 1305 2825 
Q 1016 2553 972 2059 
L 3022 2063 
z
" id="DejaVuSans-65" transform="scale(0.015625)"/>
       <path d="M 3513 2113 
L 3513 0 
L 2938 0 
L 2938 2094 
Q 2938 2591 2744 2837 
Q 2550 3084 2163 3084 
Q 1697 3084 1428 2787 
Q 1159 2491 1159 1978 
L 1159 0 
L 581 0 
L 581 3500 
L 1159 3500 
L 1159 2956 
Q 1366 3272 1645 3428 
Q 1925 3584 2291 3584 
Q 2894 3584 3203 3211 
Q 3513 2838 3513 2113 
z
" id="DejaVuSans-6e" transform="scale(0.015625)"/>
       <path d="M 2834 3397 
L 2834 2853 
Q 2591 2978 2328 3040 
Q 2066 3103 1784 3103 
Q 1356 3103 1142 2972 
Q 928 2841 928 2578 
Q 928 2378 1081 2264 
Q 1234 2150 1697 2047 
L 1894 2003 
Q 2506 1872 2764 1633 
Q 3022 1394 3022 966 
Q 3022 478 2636 193 
Q 2250 -91 1575 -91 
Q 1294 -91 989 -36 
Q 684 19 347 128 
L 347 722 
Q 666 556 975 473 
Q 1284 391 1588 391 
Q 1994 391 2212 530 
Q 2431 669 2431 922 
Q 2431 1156 2273 1281 
Q 2116 1406 1581 1522 
L 1381 1569 
Q 847 1681 609 1914 
Q 372 2147 372 2553 
Q 372 3047 722 3315 
Q 1072 3584 1716 3584 
Q 2034 3584 2315 3537 
Q 2597 3491 2834 3397 
z
" id="DejaVuSans-73" transform="scale(0.015625)"/>
       <path d="M 603 3500 
L 1178 3500 
L 1178 0 
L 603 0 
L 603 3500 
z
M 603 4863 
L 1178 4863 
L 1178 4134 
L 603 4134 
L 603 4863 
z
" id="DejaVuSans-69" transform="scale(0.015625)"/>
       <path d="M 1172 4494 
L 1172 3500 
L 2356 3500 
L 2356 3053 
L 1172 3053 
L 1172 1153 
Q 1172 725 1289 603 
Q 1406 481 1766 481 
L 2356 481 
L 2356 0 
L 1766 0 
Q 1100 0 847 248 
Q 594 497 594 1153 
L 594 3053 
L 172 3053 
L 172 3500 
L 594 3500 
L 594 4494 
L 1172 4494 
z
" id="DejaVuSans-74" transform="scale(0.015625)"/>
       <path d="M 2059 -325 
Q 1816 -950 1584 -1140 
Q 1353 -1331 966 -1331 
L 506 -1331 
L 506 -850 
L 844 -850 
Q 1081 -850 1212 -737 
Q 1344 -625 1503 -206 
L 1606 56 
L 191 3500 
L 800 3500 
L 1894 763 
L 2988 3500 
L 3597 3500 
L 2059 -325 
z
" id="DejaVuSans-79" transform="scale(0.015625)"/>
      </defs>
      <use xlink:href="#DejaVuSans-44"/>
      <use x="77.001953" xlink:href="#DejaVuSans-65"/>
      <use x="138.525391" xlink:href="#DejaVuSans-6e"/>
      <use x="201.904297" xlink:href="#DejaVuSans-73"/>
      <use x="254.003906" xlink:href="#DejaVuSans-69"/>
      <use x="281.787109" xlink:href="#DejaVuSans-74"/>
      <use x="320.996094" xlink:href="#DejaVuSans-79"/>
     </g>
    </g>
   </g>
   <g id="patch_3">
    <path clip-path="url(#p91215f7176)" d="M 31.5 37.8 
L 31.5 37.8 
L 34.29 37.8 
L 34.29 29.387143 
L 37.08 29.387143 
L 37.08 7.060714 
L 39.87 7.060714 
L 39.87 20.974286 
L 42.66 20.974286 
L 42.66 33.27 
L 45.45 33.27 
L 45.45 35.858571 
L 48.24 35.858571 
L 48.24 36.829286 
L 51.03 36.829286 
L 51.03 37.8 
L 53.82 37.8 
L 53.82 37.8 
L 56.61 37.8 
L 56.61 37.8 
L 59.4 37.8 
L 59.4 37.8 
" style="fill:none;stroke:#000000;stroke-linejoin:miter;stroke-width:0.5;"/>
   </g>
   <g id="patch_4">
    <path clip-path="url(#p91215f7176)" d="M 31.5 37.8 
L 31.5 37.8 
L 32.895 37.8 
L 32.895 37.8 
L 34.29 37.8 
L 34.29 37.8 
L 35.685 37.8 
L 35.685 31.975714 
L 37.08 31.975714 
L 37.08 6.737143 
L 38.475 6.737143 
L 38.475 7.384286 
L 39.87 7.384286 
L 39.87 14.502857 
L 41.265 14.502857 
L 41.265 24.21 
L 42.66 24.21 
L 42.66 29.387143 
L 44.055 29.387143 
L 44.055 32.622857 
L 45.45 32.622857 
L 45.45 34.564286 
L 46.845 34.564286 
L 46.845 34.564286 
L 48.24 34.564286 
L 48.24 36.505714 
L 49.635 36.505714 
L 49.635 37.152857 
L 51.03 37.152857 
L 51.03 37.152857 
L 52.425 37.152857 
L 52.425 37.8 
L 53.82 37.8 
L 53.82 37.8 
L 55.215 37.8 
L 55.215 37.8 
L 56.61 37.8 
L 56.61 37.8 
L 58.005 37.8 
L 58.005 37.8 
L 59.4 37.8 
L 59.4 37.8 
" style="fill:none;stroke:#1f77b4;stroke-linejoin:miter;stroke-width:0.5;"/>
   </g>
   <g id="patch_5">
    <path d="M 31.5 37.8 
L 31.5 5.184 
" style="fill:none;stroke:#000000;stroke-linecap:square;stroke-linejoin:miter;stroke-width:0.8;"/>
   </g>
   <g id="patch_6">
    <path d="M 59.4 37.8 
L 59.4 5.184 
" style="fill:none;stroke:#000000;stroke-linecap:square;stroke-linejoin:miter;stroke-width:0.8;"/>
   </g>
   <g id="patch_7">
    <path d="M 31.5 37.8 
L 59.4 37.8 
" style="fill:none;stroke:#000000;stroke-linecap:square;stroke-linejoin:miter;stroke-width:0.8;"/>
   </g>
   <g id="patch_8">
    <path d="M 31.5 5.184 
L 59.4 5.184 
" style="fill:none;stroke:#000000;stroke-linecap:square;stroke-linejoin:miter;stroke-width:0.8;"/>
   </g>
   <g id="text_6">
    <!-- 2 -->
    <g transform="translate(42.905 -9.77425)scale(0.08 -0.08)">
     <use xlink:href="#DejaVuSans-32"/>
    </g>
    <!-- 2 -->
    <g transform="translate(42.905 -0.816)scale(0.08 -0.08)">
     <use xlink:href="#DejaVuSans-32"/>
    </g>
   </g>
  </g>
  <g id="axes_2">
   <g id="patch_9">
    <path d="M 64.98 37.8 
L 92.88 37.8 
L 92.88 5.184 
L 64.98 5.184 
z
" style="fill:#ffffff;"/>
   </g>
   <g id="matplotlib.axis_3">
    <g id="xtick_3">
     <g id="line2d_5">
      <g>
       <use style="stroke:#000000;stroke-width:0.8;" x="70.450588" xlink:href="#m9a1a2106ea" y="37.8"/>
      </g>
     </g>
     <g id="text_7">
      <!-- 1100 -->
      <g transform="translate(60.270588 50.87875)scale(0.08 -0.08)">
       <use xlink:href="#DejaVuSans-31"/>
       <use x="63.623047" xlink:href="#DejaVuSans-31"/>
       <use x="127.246094" xlink:href="#DejaVuSans-30"/>
       <use x="190.869141" xlink:href="#DejaVuSans-30"/>
      </g>
     </g>
    </g>
    <g id="xtick_4">
     <g id="line2d_6">
      <g>
       <use style="stroke:#000000;stroke-width:0.8;" x="88.685882" xlink:href="#m9a1a2106ea" y="37.8"/>
      </g>
     </g>
     <g id="text_8">
      <!-- 1200 -->
      <g transform="translate(78.505882 50.87875)scale(0.08 -0.08)">
       <use xlink:href="#DejaVuSans-31"/>
       <use x="63.623047" xlink:href="#DejaVuSans-32"/>
       <use x="127.246094" xlink:href="#DejaVuSans-30"/>
       <use x="190.869141" xlink:href="#DejaVuSans-30"/>
      </g>
     </g>
    </g>
   </g>
   <g id="matplotlib.axis_4"/>
   <g id="patch_10">
    <path clip-path="url(#p621828cc81)" d="M 64.98 37.8 
L 64.98 37.8 
L 67.77 37.8 
L 67.77 21.975526 
L 70.56 21.975526 
L 70.56 8.202372 
L 73.35 8.202372 
L 73.35 29.301671 
L 76.14 29.301671 
L 76.14 35.748679 
L 78.93 35.748679 
L 78.93 36.920863 
L 81.72 36.920863 
L 81.72 37.506954 
L 84.51 37.506954 
L 84.51 37.506954 
L 87.3 37.506954 
L 87.3 37.8 
L 90.09 37.8 
L 90.09 37.8 
L 92.88 37.8 
L 92.88 37.8 
" style="fill:none;stroke:#000000;stroke-linejoin:miter;stroke-width:0.5;"/>
   </g>
   <g id="patch_11">
    <path clip-path="url(#p621828cc81)" d="M 64.98 37.8 
L 64.98 37.8 
L 66.375 37.8 
L 66.375 37.8 
L 67.77 37.8 
L 67.77 37.8 
L 69.165 37.8 
L 69.165 29.594717 
L 70.56 29.594717 
L 70.56 6.737143 
L 71.955 6.737143 
L 71.955 8.495418 
L 73.35 8.495418 
L 73.35 14.356334 
L 74.745 14.356334 
L 74.745 28.422534 
L 76.14 28.422534 
L 76.14 31.939084 
L 77.535 31.939084 
L 77.535 34.28345 
L 78.93 34.28345 
L 78.93 36.627817 
L 80.325 36.627817 
L 80.325 36.041725 
L 81.72 36.041725 
L 81.72 36.627817 
L 83.115 36.627817 
L 83.115 37.8 
L 84.51 37.8 
L 84.51 37.8 
L 85.905 37.8 
L 85.905 37.8 
L 87.3 37.8 
L 87.3 37.8 
L 88.695 37.8 
L 88.695 37.8 
L 90.09 37.8 
L 90.09 37.8 
L 91.485 37.8 
L 91.485 37.8 
L 92.88 37.8 
L 92.88 37.8 
" style="fill:none;stroke:#1f77b4;stroke-linejoin:miter;stroke-width:0.5;"/>
   </g>
   <g id="patch_12">
    <path d="M 64.98 37.8 
L 64.98 5.184 
" style="fill:none;stroke:#000000;stroke-linecap:square;stroke-linejoin:miter;stroke-width:0.8;"/>
   </g>
   <g id="patch_13">
    <path d="M 92.88 37.8 
L 92.88 5.184 
" style="fill:none;stroke:#000000;stroke-linecap:square;stroke-linejoin:miter;stroke-width:0.8;"/>
   </g>
   <g id="patch_14">
    <path d="M 64.98 37.8 
L 92.88 37.8 
" style="fill:none;stroke:#000000;stroke-linecap:square;stroke-linejoin:miter;stroke-width:0.8;"/>
   </g>
   <g id="patch_15">
    <path d="M 64.98 5.184 
L 92.88 5.184 
" style="fill:none;stroke:#000000;stroke-linecap:square;stroke-linejoin:miter;stroke-width:0.8;"/>
   </g>
   <g id="text_9">
    <!-- 3 -->
    <g transform="translate(76.385 -9.77425)scale(0.08 -0.08)">
     <defs>
      <path d="M 2597 2516 
Q 3050 2419 3304 2112 
Q 3559 1806 3559 1356 
Q 3559 666 3084 287 
Q 2609 -91 1734 -91 
Q 1441 -91 1130 -33 
Q 819 25 488 141 
L 488 750 
Q 750 597 1062 519 
Q 1375 441 1716 441 
Q 2309 441 2620 675 
Q 2931 909 2931 1356 
Q 2931 1769 2642 2001 
Q 2353 2234 1838 2234 
L 1294 2234 
L 1294 2753 
L 1863 2753 
Q 2328 2753 2575 2939 
Q 2822 3125 2822 3475 
Q 2822 3834 2567 4026 
Q 2313 4219 1838 4219 
Q 1578 4219 1281 4162 
Q 984 4106 628 3988 
L 628 4550 
Q 988 4650 1302 4700 
Q 1616 4750 1894 4750 
Q 2613 4750 3031 4423 
Q 3450 4097 3450 3541 
Q 3450 3153 3228 2886 
Q 3006 2619 2597 2516 
z
" id="DejaVuSans-33" transform="scale(0.015625)"/>
     </defs>
     <use xlink:href="#DejaVuSans-33"/>
    </g>
    <!-- 699 -->
    <g transform="translate(71.295 -0.816)scale(0.08 -0.08)">
     <defs>
      <path d="M 2113 2584 
Q 1688 2584 1439 2293 
Q 1191 2003 1191 1497 
Q 1191 994 1439 701 
Q 1688 409 2113 409 
Q 2538 409 2786 701 
Q 3034 994 3034 1497 
Q 3034 2003 2786 2293 
Q 2538 2584 2113 2584 
z
M 3366 4563 
L 3366 3988 
Q 3128 4100 2886 4159 
Q 2644 4219 2406 4219 
Q 1781 4219 1451 3797 
Q 1122 3375 1075 2522 
Q 1259 2794 1537 2939 
Q 1816 3084 2150 3084 
Q 2853 3084 3261 2657 
Q 3669 2231 3669 1497 
Q 3669 778 3244 343 
Q 2819 -91 2113 -91 
Q 1303 -91 875 529 
Q 447 1150 447 2328 
Q 447 3434 972 4092 
Q 1497 4750 2381 4750 
Q 2619 4750 2861 4703 
Q 3103 4656 3366 4563 
z
" id="DejaVuSans-36" transform="scale(0.015625)"/>
      <path d="M 703 97 
L 703 672 
Q 941 559 1184 500 
Q 1428 441 1663 441 
Q 2288 441 2617 861 
Q 2947 1281 2994 2138 
Q 2813 1869 2534 1725 
Q 2256 1581 1919 1581 
Q 1219 1581 811 2004 
Q 403 2428 403 3163 
Q 403 3881 828 4315 
Q 1253 4750 1959 4750 
Q 2769 4750 3195 4129 
Q 3622 3509 3622 2328 
Q 3622 1225 3098 567 
Q 2575 -91 1691 -91 
Q 1453 -91 1209 -44 
Q 966 3 703 97 
z
M 1959 2075 
Q 2384 2075 2632 2365 
Q 2881 2656 2881 3163 
Q 2881 3666 2632 3958 
Q 2384 4250 1959 4250 
Q 1534 4250 1286 3958 
Q 1038 3666 1038 3163 
Q 1038 2656 1286 2365 
Q 1534 2075 1959 2075 
z
" id="DejaVuSans-39" transform="scale(0.015625)"/>
     </defs>
     <use xlink:href="#DejaVuSans-36"/>
     <use x="63.623047" xlink:href="#DejaVuSans-39"/>
     <use x="127.246094" xlink:href="#DejaVuSans-39"/>
    </g>
   </g>
  </g>
  <g id="axes_3">
   <g id="patch_16">
    <path d="M 98.46 37.8 
L 126.36 37.8 
L 126.36 5.184 
L 98.46 5.184 
z
" style="fill:#ffffff;"/>
   </g>
   <g id="matplotlib.axis_5">
    <g id="xtick_5">
     <g id="line2d_7">
      <g>
       <use style="stroke:#000000;stroke-width:0.8;" x="103.930588" xlink:href="#m9a1a2106ea" y="37.8"/>
      </g>
     </g>
     <g id="text_10">
      <!-- 1100 -->
      <g transform="translate(93.750588 50.87875)scale(0.08 -0.08)">
       <use xlink:href="#DejaVuSans-31"/>
       <use x="63.623047" xlink:href="#DejaVuSans-31"/>
       <use x="127.246094" xlink:href="#DejaVuSans-30"/>
       <use x="190.869141" xlink:href="#DejaVuSans-30"/>
      </g>
     </g>
    </g>
    <g id="xtick_6">
     <g id="line2d_8">
      <g>
       <use style="stroke:#000000;stroke-width:0.8;" x="122.165882" xlink:href="#m9a1a2106ea" y="37.8"/>
      </g>
     </g>
     <g id="text_11">
      <!-- 1200 -->
      <g transform="translate(111.985882 50.87875)scale(0.08 -0.08)">
       <use xlink:href="#DejaVuSans-31"/>
       <use x="63.623047" xlink:href="#DejaVuSans-32"/>
       <use x="127.246094" xlink:href="#DejaVuSans-30"/>
       <use x="190.869141" xlink:href="#DejaVuSans-30"/>
      </g>
     </g>
    </g>
   </g>
   <g id="matplotlib.axis_6"/>
   <g id="patch_17">
    <path clip-path="url(#p393c7fdaa4)" d="M 98.46 37.8 
L 98.46 37.8 
L 101.25 37.8 
L 101.25 32.622857 
L 104.04 32.622857 
L 104.04 12.731729 
L 106.83 12.731729 
L 106.83 26.900752 
L 109.62 26.900752 
L 109.62 30.443008 
L 112.41 30.443008 
L 112.41 35.892632 
L 115.2 35.892632 
L 115.2 36.437594 
L 117.99 36.437594 
L 117.99 36.982556 
L 120.78 36.982556 
L 120.78 37.255038 
L 123.57 37.255038 
L 123.57 37.527519 
L 126.36 37.527519 
L 126.36 37.8 
" style="fill:none;stroke:#000000;stroke-linejoin:miter;stroke-width:0.5;"/>
   </g>
   <g id="patch_18">
    <path clip-path="url(#p393c7fdaa4)" d="M 98.46 37.8 
L 98.46 37.8 
L 99.855 37.8 
L 99.855 37.8 
L 101.25 37.8 
L 101.25 37.8 
L 102.645 37.8 
L 102.645 36.165113 
L 104.04 36.165113 
L 104.04 17.636391 
L 105.435 17.636391 
L 105.435 6.737143 
L 106.83 6.737143 
L 106.83 19.816241 
L 108.225 19.816241 
L 108.225 28.535639 
L 109.62 28.535639 
L 109.62 29.080602 
L 111.015 29.080602 
L 111.015 31.260451 
L 112.41 31.260451 
L 112.41 32.895338 
L 113.805 32.895338 
L 113.805 36.710075 
L 115.2 36.710075 
L 115.2 36.165113 
L 116.595 36.165113 
L 116.595 36.710075 
L 117.99 36.710075 
L 117.99 37.255038 
L 119.385 37.255038 
L 119.385 36.710075 
L 120.78 36.710075 
L 120.78 37.8 
L 122.175 37.8 
L 122.175 37.8 
L 123.57 37.8 
L 123.57 36.710075 
L 124.965 36.710075 
L 124.965 37.8 
L 126.36 37.8 
L 126.36 37.8 
" style="fill:none;stroke:#1f77b4;stroke-linejoin:miter;stroke-width:0.5;"/>
   </g>
   <g id="patch_19">
    <path d="M 98.46 37.8 
L 98.46 5.184 
" style="fill:none;stroke:#000000;stroke-linecap:square;stroke-linejoin:miter;stroke-width:0.8;"/>
   </g>
   <g id="patch_20">
    <path d="M 126.36 37.8 
L 126.36 5.184 
" style="fill:none;stroke:#000000;stroke-linecap:square;stroke-linejoin:miter;stroke-width:0.8;"/>
   </g>
   <g id="patch_21">
    <path d="M 98.46 37.8 
L 126.36 37.8 
" style="fill:none;stroke:#000000;stroke-linecap:square;stroke-linejoin:miter;stroke-width:0.8;"/>
   </g>
   <g id="patch_22">
    <path d="M 98.46 5.184 
L 126.36 5.184 
" style="fill:none;stroke:#000000;stroke-linecap:square;stroke-linejoin:miter;stroke-width:0.8;"/>
   </g>
   <g id="text_12">
    <!-- 2 -->
    <g transform="translate(109.865 -9.77425)scale(0.08 -0.08)">
     <use xlink:href="#DejaVuSans-32"/>
    </g>
    <!-- 912 -->
    <g transform="translate(104.775 -0.816)scale(0.08 -0.08)">
     <use xlink:href="#DejaVuSans-39"/>
     <use x="63.623047" xlink:href="#DejaVuSans-31"/>
     <use x="127.246094" xlink:href="#DejaVuSans-32"/>
    </g>
   </g>
  </g>
  <g id="axes_4">
   <g id="patch_23">
    <path d="M 131.94 37.8 
L 159.84 37.8 
L 159.84 5.184 
L 131.94 5.184 
z
" style="fill:#ffffff;"/>
   </g>
   <g id="matplotlib.axis_7">
    <g id="xtick_7">
     <g id="line2d_9">
      <g>
       <use style="stroke:#000000;stroke-width:0.8;" x="137.410588" xlink:href="#m9a1a2106ea" y="37.8"/>
      </g>
     </g>
     <g id="text_13">
      <!-- 1100 -->
      <g transform="translate(127.230588 50.87875)scale(0.08 -0.08)">
       <use xlink:href="#DejaVuSans-31"/>
       <use x="63.623047" xlink:href="#DejaVuSans-31"/>
       <use x="127.246094" xlink:href="#DejaVuSans-30"/>
       <use x="190.869141" xlink:href="#DejaVuSans-30"/>
      </g>
     </g>
    </g>
    <g id="xtick_8">
     <g id="line2d_10">
      <g>
       <use style="stroke:#000000;stroke-width:0.8;" x="155.645882" xlink:href="#m9a1a2106ea" y="37.8"/>
      </g>
     </g>
     <g id="text_14">
      <!-- 1200 -->
      <g transform="translate(145.465882 50.87875)scale(0.08 -0.08)">
       <use xlink:href="#DejaVuSans-31"/>
       <use x="63.623047" xlink:href="#DejaVuSans-32"/>
       <use x="127.246094" xlink:href="#DejaVuSans-30"/>
       <use x="190.869141" xlink:href="#DejaVuSans-30"/>
      </g>
     </g>
    </g>
   </g>
   <g id="matplotlib.axis_8"/>
   <g id="patch_24">
    <path clip-path="url(#p6af7f5ca44)" d="M 131.94 37.8 
L 131.94 37.8 
L 134.73 37.8 
L 134.73 28.87769 
L 137.52 28.87769 
L 137.52 6.737143 
L 140.31 6.737143 
L 140.31 24.581763 
L 143.1 24.581763 
L 143.1 31.521337 
L 145.89 31.521337 
L 145.89 33.504073 
L 148.68 33.504073 
L 148.68 37.469544 
L 151.47 37.469544 
L 151.47 37.469544 
L 154.26 37.469544 
L 154.26 37.8 
L 157.05 37.8 
L 157.05 37.469544 
L 159.84 37.469544 
L 159.84 37.8 
" style="fill:none;stroke:#000000;stroke-linejoin:miter;stroke-width:0.5;"/>
   </g>
   <g id="patch_25">
    <path clip-path="url(#p6af7f5ca44)" d="M 131.94 37.8 
L 131.94 37.8 
L 133.335 37.8 
L 133.335 37.8 
L 134.73 37.8 
L 134.73 37.8 
L 136.125 37.8 
L 136.125 31.156989 
L 137.52 31.156989 
L 137.52 9.235051 
L 138.915 9.235051 
L 138.915 8.57075 
L 140.31 8.57075 
L 140.31 17.206664 
L 141.705 17.206664 
L 141.705 20.52817 
L 143.1 20.52817 
L 143.1 28.499784 
L 144.495 28.499784 
L 144.495 31.156989 
L 145.89 31.156989 
L 145.89 32.485591 
L 147.285 32.485591 
L 147.285 36.471398 
L 148.68 36.471398 
L 148.68 36.471398 
L 150.075 36.471398 
L 150.075 35.142795 
L 151.47 35.142795 
L 151.47 37.8 
L 152.865 37.8 
L 152.865 37.135699 
L 154.26 37.135699 
L 154.26 37.8 
L 155.655 37.8 
L 155.655 37.8 
L 157.05 37.8 
L 157.05 37.8 
L 158.445 37.8 
L 158.445 37.8 
L 159.84 37.8 
L 159.84 37.8 
" style="fill:none;stroke:#1f77b4;stroke-linejoin:miter;stroke-width:0.5;"/>
   </g>
   <g id="patch_26">
    <path d="M 131.94 37.8 
L 131.94 5.184 
" style="fill:none;stroke:#000000;stroke-linecap:square;stroke-linejoin:miter;stroke-width:0.8;"/>
   </g>
   <g id="patch_27">
    <path d="M 159.84 37.8 
L 159.84 5.184 
" style="fill:none;stroke:#000000;stroke-linecap:square;stroke-linejoin:miter;stroke-width:0.8;"/>
   </g>
   <g id="patch_28">
    <path d="M 131.94 37.8 
L 159.84 37.8 
" style="fill:none;stroke:#000000;stroke-linecap:square;stroke-linejoin:miter;stroke-width:0.8;"/>
   </g>
   <g id="patch_29">
    <path d="M 131.94 5.184 
L 159.84 5.184 
" style="fill:none;stroke:#000000;stroke-linecap:square;stroke-linejoin:miter;stroke-width:0.8;"/>
   </g>
   <g id="text_15">
    <!-- 3 -->
    <g transform="translate(143.345 -9.77425)scale(0.08 -0.08)">
     <use xlink:href="#DejaVuSans-33"/>
    </g>
    <!-- 892 -->
    <g transform="translate(138.255 -0.816)scale(0.08 -0.08)">
     <defs>
      <path d="M 2034 2216 
Q 1584 2216 1326 1975 
Q 1069 1734 1069 1313 
Q 1069 891 1326 650 
Q 1584 409 2034 409 
Q 2484 409 2743 651 
Q 3003 894 3003 1313 
Q 3003 1734 2745 1975 
Q 2488 2216 2034 2216 
z
M 1403 2484 
Q 997 2584 770 2862 
Q 544 3141 544 3541 
Q 544 4100 942 4425 
Q 1341 4750 2034 4750 
Q 2731 4750 3128 4425 
Q 3525 4100 3525 3541 
Q 3525 3141 3298 2862 
Q 3072 2584 2669 2484 
Q 3125 2378 3379 2068 
Q 3634 1759 3634 1313 
Q 3634 634 3220 271 
Q 2806 -91 2034 -91 
Q 1263 -91 848 271 
Q 434 634 434 1313 
Q 434 1759 690 2068 
Q 947 2378 1403 2484 
z
M 1172 3481 
Q 1172 3119 1398 2916 
Q 1625 2713 2034 2713 
Q 2441 2713 2670 2916 
Q 2900 3119 2900 3481 
Q 2900 3844 2670 4047 
Q 2441 4250 2034 4250 
Q 1625 4250 1398 4047 
Q 1172 3844 1172 3481 
z
" id="DejaVuSans-38" transform="scale(0.015625)"/>
     </defs>
     <use xlink:href="#DejaVuSans-38"/>
     <use x="63.623047" xlink:href="#DejaVuSans-39"/>
     <use x="127.246094" xlink:href="#DejaVuSans-32"/>
    </g>
   </g>
  </g>
  <g id="axes_5">
   <g id="patch_30">
    <path d="M 165.42 37.8 
L 193.32 37.8 
L 193.32 5.184 
L 165.42 5.184 
z
" style="fill:#ffffff;"/>
   </g>
   <g id="matplotlib.axis_9">
    <g id="xtick_9">
     <g id="line2d_11">
      <g>
       <use style="stroke:#000000;stroke-width:0.8;" x="170.890588" xlink:href="#m9a1a2106ea" y="37.8"/>
      </g>
     </g>
     <g id="text_16">
      <!-- 1100 -->
      <g transform="translate(160.710588 50.87875)scale(0.08 -0.08)">
       <use xlink:href="#DejaVuSans-31"/>
       <use x="63.623047" xlink:href="#DejaVuSans-31"/>
       <use x="127.246094" xlink:href="#DejaVuSans-30"/>
       <use x="190.869141" xlink:href="#DejaVuSans-30"/>
      </g>
     </g>
    </g>
    <g id="xtick_10">
     <g id="line2d_12">
      <g>
       <use style="stroke:#000000;stroke-width:0.8;" x="189.125882" xlink:href="#m9a1a2106ea" y="37.8"/>
      </g>
     </g>
     <g id="text_17">
      <!-- 1200 -->
      <g transform="translate(178.945882 50.87875)scale(0.08 -0.08)">
       <use xlink:href="#DejaVuSans-31"/>
       <use x="63.623047" xlink:href="#DejaVuSans-32"/>
       <use x="127.246094" xlink:href="#DejaVuSans-30"/>
       <use x="190.869141" xlink:href="#DejaVuSans-30"/>
      </g>
     </g>
    </g>
   </g>
   <g id="matplotlib.axis_10"/>
   <g id="patch_31">
    <path clip-path="url(#pe1f81323b0)" d="M 165.42 37.8 
L 165.42 37.8 
L 168.21 37.8 
L 168.21 33.712782 
L 171 33.712782 
L 171 11.233083 
L 173.79 11.233083 
L 173.79 16.546466 
L 176.58 16.546466 
L 176.58 21.85985 
L 179.37 21.85985 
L 179.37 30.034286 
L 182.16 30.034286 
L 182.16 34.121504 
L 184.95 34.121504 
L 184.95 37.391278 
L 187.74 37.391278 
L 187.74 37.391278 
L 190.53 37.391278 
L 190.53 37.8 
L 193.32 37.8 
L 193.32 37.8 
" style="fill:none;stroke:#000000;stroke-linejoin:miter;stroke-width:0.5;"/>
   </g>
   <g id="patch_32">
    <path clip-path="url(#pe1f81323b0)" d="M 165.42 37.8 
L 165.42 37.8 
L 166.815 37.8 
L 166.815 37.8 
L 168.21 37.8 
L 168.21 37.8 
L 169.605 37.8 
L 169.605 32.077895 
L 171 32.077895 
L 171 19.816241 
L 172.395 19.816241 
L 172.395 6.737143 
L 173.79 6.737143 
L 173.79 9.189474 
L 175.185 9.189474 
L 175.185 10.824361 
L 176.58 10.824361 
L 176.58 19.816241 
L 177.975 19.816241 
L 177.975 20.633684 
L 179.37 20.633684 
L 179.37 28.80812 
L 180.765 28.80812 
L 180.765 35.347669 
L 182.16 35.347669 
L 182.16 36.165113 
L 183.555 36.165113 
L 183.555 37.8 
L 184.95 37.8 
L 184.95 37.8 
L 186.345 37.8 
L 186.345 36.982556 
L 187.74 36.982556 
L 187.74 36.982556 
L 189.135 36.982556 
L 189.135 37.8 
L 190.53 37.8 
L 190.53 37.8 
L 191.925 37.8 
L 191.925 37.8 
L 193.32 37.8 
L 193.32 37.8 
" style="fill:none;stroke:#1f77b4;stroke-linejoin:miter;stroke-width:0.5;"/>
   </g>
   <g id="patch_33">
    <path d="M 165.42 37.8 
L 165.42 5.184 
" style="fill:none;stroke:#000000;stroke-linecap:square;stroke-linejoin:miter;stroke-width:0.8;"/>
   </g>
   <g id="patch_34">
    <path d="M 193.32 37.8 
L 193.32 5.184 
" style="fill:none;stroke:#000000;stroke-linecap:square;stroke-linejoin:miter;stroke-width:0.8;"/>
   </g>
   <g id="patch_35">
    <path d="M 165.42 37.8 
L 193.32 37.8 
" style="fill:none;stroke:#000000;stroke-linecap:square;stroke-linejoin:miter;stroke-width:0.8;"/>
   </g>
   <g id="patch_36">
    <path d="M 165.42 5.184 
L 193.32 5.184 
" style="fill:none;stroke:#000000;stroke-linecap:square;stroke-linejoin:miter;stroke-width:0.8;"/>
   </g>
   <g id="text_18">
    <!-- 2 -->
    <g transform="translate(176.825 -9.77425)scale(0.08 -0.08)">
     <use xlink:href="#DejaVuSans-32"/>
    </g>
    <!-- 980 -->
    <g transform="translate(171.735 -0.816)scale(0.08 -0.08)">
     <use xlink:href="#DejaVuSans-39"/>
     <use x="63.623047" xlink:href="#DejaVuSans-38"/>
     <use x="127.246094" xlink:href="#DejaVuSans-30"/>
    </g>
   </g>
  </g>
  <g id="axes_6">
   <g id="patch_37">
    <path d="M 198.9 37.8 
L 226.8 37.8 
L 226.8 5.184 
L 198.9 5.184 
z
" style="fill:#ffffff;"/>
   </g>
   <g id="matplotlib.axis_11">
    <g id="xtick_11">
     <g id="line2d_13">
      <g>
       <use style="stroke:#000000;stroke-width:0.8;" x="204.370588" xlink:href="#m9a1a2106ea" y="37.8"/>
      </g>
     </g>
     <g id="text_19">
      <!-- 1100 -->
      <g transform="translate(194.190588 50.87875)scale(0.08 -0.08)">
       <use xlink:href="#DejaVuSans-31"/>
       <use x="63.623047" xlink:href="#DejaVuSans-31"/>
       <use x="127.246094" xlink:href="#DejaVuSans-30"/>
       <use x="190.869141" xlink:href="#DejaVuSans-30"/>
      </g>
     </g>
    </g>
    <g id="xtick_12">
     <g id="line2d_14">
      <g>
       <use style="stroke:#000000;stroke-width:0.8;" x="222.605882" xlink:href="#m9a1a2106ea" y="37.8"/>
      </g>
     </g>
     <g id="text_20">
      <!-- 1200 -->
      <g transform="translate(212.425882 50.87875)scale(0.08 -0.08)">
       <use xlink:href="#DejaVuSans-31"/>
       <use x="63.623047" xlink:href="#DejaVuSans-32"/>
       <use x="127.246094" xlink:href="#DejaVuSans-30"/>
       <use x="190.869141" xlink:href="#DejaVuSans-30"/>
      </g>
     </g>
    </g>
   </g>
   <g id="matplotlib.axis_12"/>
   <g id="patch_38">
    <path clip-path="url(#p2fe18e39ee)" d="M 198.9 37.8 
L 198.9 37.8 
L 201.69 37.8 
L 201.69 34.072457 
L 204.48 34.072457 
L 204.48 6.737143 
L 207.27 6.737143 
L 207.27 23.511086 
L 210.06 23.511086 
L 210.06 29.723657 
L 212.85 29.723657 
L 212.85 36.868114 
L 215.64 36.868114 
L 215.64 37.178743 
L 218.43 37.178743 
L 218.43 36.246857 
L 221.22 36.246857 
L 221.22 37.489371 
L 224.01 37.489371 
L 224.01 37.489371 
L 226.8 37.489371 
L 226.8 37.8 
" style="fill:none;stroke:#000000;stroke-linejoin:miter;stroke-width:0.5;"/>
   </g>
   <g id="patch_39">
    <path clip-path="url(#p2fe18e39ee)" d="M 198.9 37.8 
L 198.9 37.8 
L 200.295 37.8 
L 200.295 37.8 
L 201.69 37.8 
L 201.69 37.8 
L 203.085 37.8 
L 203.085 30.306683 
L 204.48 30.306683 
L 204.48 7.826732 
L 205.875 7.826732 
L 205.875 12.197834 
L 207.27 12.197834 
L 207.27 22.188923 
L 208.665 22.188923 
L 208.665 20.315594 
L 210.06 20.315594 
L 210.06 29.057797 
L 211.455 29.057797 
L 211.455 32.804455 
L 212.85 32.804455 
L 212.85 33.428898 
L 214.245 33.428898 
L 214.245 35.926671 
L 215.64 35.926671 
L 215.64 34.053342 
L 217.035 34.053342 
L 217.035 37.175557 
L 218.43 37.175557 
L 218.43 37.175557 
L 219.825 37.175557 
L 219.825 37.175557 
L 221.22 37.175557 
L 221.22 37.8 
L 222.615 37.8 
L 222.615 37.8 
L 224.01 37.8 
L 224.01 37.8 
L 225.405 37.8 
L 225.405 37.8 
L 226.8 37.8 
L 226.8 37.8 
" style="fill:none;stroke:#1f77b4;stroke-linejoin:miter;stroke-width:0.5;"/>
   </g>
   <g id="patch_40">
    <path d="M 198.9 37.8 
L 198.9 5.184 
" style="fill:none;stroke:#000000;stroke-linecap:square;stroke-linejoin:miter;stroke-width:0.8;"/>
   </g>
   <g id="patch_41">
    <path d="M 226.8 37.8 
L 226.8 5.184 
" style="fill:none;stroke:#000000;stroke-linecap:square;stroke-linejoin:miter;stroke-width:0.8;"/>
   </g>
   <g id="patch_42">
    <path d="M 198.9 37.8 
L 226.8 37.8 
" style="fill:none;stroke:#000000;stroke-linecap:square;stroke-linejoin:miter;stroke-width:0.8;"/>
   </g>
   <g id="patch_43">
    <path d="M 198.9 5.184 
L 226.8 5.184 
" style="fill:none;stroke:#000000;stroke-linecap:square;stroke-linejoin:miter;stroke-width:0.8;"/>
   </g>
   <g id="text_21">
    <!-- 4 -->
    <g transform="translate(210.305 -9.77425)scale(0.08 -0.08)">
     <defs>
      <path d="M 2419 4116 
L 825 1625 
L 2419 1625 
L 2419 4116 
z
M 2253 4666 
L 3047 4666 
L 3047 1625 
L 3713 1625 
L 3713 1100 
L 3047 1100 
L 3047 0 
L 2419 0 
L 2419 1100 
L 313 1100 
L 313 1709 
L 2253 4666 
z
" id="DejaVuSans-34" transform="scale(0.015625)"/>
     </defs>
     <use xlink:href="#DejaVuSans-34"/>
    </g>
    <!-- 4099 -->
    <g transform="translate(202.67 -0.816)scale(0.08 -0.08)">
     <use xlink:href="#DejaVuSans-34"/>
     <use x="63.623047" xlink:href="#DejaVuSans-30"/>
     <use x="127.246094" xlink:href="#DejaVuSans-39"/>
     <use x="190.869141" xlink:href="#DejaVuSans-39"/>
    </g>
   </g>
  </g>
 </g>
 <defs>
  <clipPath id="p91215f7176">
   <rect height="32.616" width="27.9" x="31.5" y="5.184"/>
  </clipPath>
  <clipPath id="p621828cc81">
   <rect height="32.616" width="27.9" x="64.98" y="5.184"/>
  </clipPath>
  <clipPath id="p393c7fdaa4">
   <rect height="32.616" width="27.9" x="98.46" y="5.184"/>
  </clipPath>
  <clipPath id="p6af7f5ca44">
   <rect height="32.616" width="27.9" x="131.94" y="5.184"/>
  </clipPath>
  <clipPath id="pe1f81323b0">
   <rect height="32.616" width="27.9" x="165.42" y="5.184"/>
  </clipPath>
  <clipPath id="p2fe18e39ee">
   <rect height="32.616" width="27.9" x="198.9" y="5.184"/>
  </clipPath>
 </defs>
</svg>
