<?xml version="1.0" encoding="utf-8" standalone="no"?>
<!DOCTYPE svg PUBLIC "-//W3C//DTD SVG 1.1//EN"
  "http://www.w3.org/Graphics/SVG/1.1/DTD/svg11.dtd">
<svg height="43.2pt" version="1.1" viewBox="0 0 252 43.2" width="252pt" xmlns="http://www.w3.org/2000/svg" xmlns:xlink="http://www.w3.org/1999/xlink">
 <metadata>
  <rdf:RDF xmlns:cc="http://creativecommons.org/ns#" xmlns:dc="http://purl.org/dc/elements/1.1/" xmlns:rdf="http://www.w3.org/1999/02/22-rdf-syntax-ns#">
   <cc:Work>
    <dc:type rdf:resource="http://purl.org/dc/dcmitype/StillImage"/>
    <dc:date>2021-05-15T22:51:37.787000</dc:date>
    <dc:format>image/svg+xml</dc:format>
    <dc:creator>
     <cc:Agent>
      <dc:title>Matplotlib v3.4.2, https://matplotlib.org/</dc:title>
     </cc:Agent>
    </dc:creator>
   </cc:Work>
  </rdf:RDF>
 </metadata>
 <defs>
  <style type="text/css">*{stroke-linecap:butt;stroke-linejoin:round;}</style>
 </defs>
 <g id="figure_1">
  <g id="patch_1">
   <path d="M 0 43.2 
L 252 43.2 
L 252 0 
L 0 0 
z
" style="fill:none;"/>
  </g>
  <g id="axes_1">
   <g id="patch_2">
    <path d="M 31.5 37.8 
L 59.4 37.8 
L 59.4 5.184 
L 31.5 5.184 
z
" style="fill:#ffffff;"/>
   </g>
   <g id="matplotlib.axis_1">
    <g id="xtick_1">
     <g id="line2d_1">
      <defs>
       <path d="M 0 0 
L 0 3.5 
" id="m0de3879556" style="stroke:#000000;stroke-width:0.8;"/>
      </defs>
      <g>
       <use style="stroke:#000000;stroke-width:0.8;" x="37.797968" xlink:href="#m0de3879556" y="37.8"/>
      </g>
     </g>
     <g id="text_1">
      <!-- 300 -->
      <g transform="translate(30.162968 50.87875)scale(0.08 -0.08)">
       <defs>
        <path d="M 2597 2516 
Q 3050 2419 3304 2112 
Q 3559 1806 3559 1356 
Q 3559 666 3084 287 
Q 2609 -91 1734 -91 
Q 1441 -91 1130 -33 
Q 819 25 488 141 
L 488 750 
Q 750 597 1062 519 
Q 1375 441 1716 441 
Q 2309 441 2620 675 
Q 2931 909 2931 1356 
Q 2931 1769 2642 2001 
Q 2353 2234 1838 2234 
L 1294 2234 
L 1294 2753 
L 1863 2753 
Q 2328 2753 2575 2939 
Q 2822 3125 2822 3475 
Q 2822 3834 2567 4026 
Q 2313 4219 1838 4219 
Q 1578 4219 1281 4162 
Q 984 4106 628 3988 
L 628 4550 
Q 988 4650 1302 4700 
Q 1616 4750 1894 4750 
Q 2613 4750 3031 4423 
Q 3450 4097 3450 3541 
Q 3450 3153 3228 2886 
Q 3006 2619 2597 2516 
z
" id="DejaVuSans-33" transform="scale(0.015625)"/>
        <path d="M 2034 4250 
Q 1547 4250 1301 3770 
Q 1056 3291 1056 2328 
Q 1056 1369 1301 889 
Q 1547 409 2034 409 
Q 2525 409 2770 889 
Q 3016 1369 3016 2328 
Q 3016 3291 2770 3770 
Q 2525 4250 2034 4250 
z
M 2034 4750 
Q 2819 4750 3233 4129 
Q 3647 3509 3647 2328 
Q 3647 1150 3233 529 
Q 2819 -91 2034 -91 
Q 1250 -91 836 529 
Q 422 1150 422 2328 
Q 422 3509 836 4129 
Q 1250 4750 2034 4750 
z
" id="DejaVuSans-30" transform="scale(0.015625)"/>
       </defs>
       <use xlink:href="#DejaVuSans-33"/>
       <use x="63.623047" xlink:href="#DejaVuSans-30"/>
       <use x="127.246094" xlink:href="#DejaVuSans-30"/>
      </g>
     </g>
    </g>
    <g id="xtick_2">
     <g id="line2d_2">
      <g>
       <use style="stroke:#000000;stroke-width:0.8;" x="56.691874" xlink:href="#m0de3879556" y="37.8"/>
      </g>
     </g>
     <g id="text_2">
      <!-- 600 -->
      <g transform="translate(49.056874 50.87875)scale(0.08 -0.08)">
       <defs>
        <path d="M 2113 2584 
Q 1688 2584 1439 2293 
Q 1191 2003 1191 1497 
Q 1191 994 1439 701 
Q 1688 409 2113 409 
Q 2538 409 2786 701 
Q 3034 994 3034 1497 
Q 3034 2003 2786 2293 
Q 2538 2584 2113 2584 
z
M 3366 4563 
L 3366 3988 
Q 3128 4100 2886 4159 
Q 2644 4219 2406 4219 
Q 1781 4219 1451 3797 
Q 1122 3375 1075 2522 
Q 1259 2794 1537 2939 
Q 1816 3084 2150 3084 
Q 2853 3084 3261 2657 
Q 3669 2231 3669 1497 
Q 3669 778 3244 343 
Q 2819 -91 2113 -91 
Q 1303 -91 875 529 
Q 447 1150 447 2328 
Q 447 3434 972 4092 
Q 1497 4750 2381 4750 
Q 2619 4750 2861 4703 
Q 3103 4656 3366 4563 
z
" id="DejaVuSans-36" transform="scale(0.015625)"/>
       </defs>
       <use xlink:href="#DejaVuSans-36"/>
       <use x="63.623047" xlink:href="#DejaVuSans-30"/>
       <use x="127.246094" xlink:href="#DejaVuSans-30"/>
      </g>
     </g>
    </g>
   </g>
   <g id="matplotlib.axis_2">
    <g id="ytick_1">
     <g id="line2d_3">
      <defs>
       <path d="M 0 0 
L -3.5 0 
" id="mf361a2b7a7" style="stroke:#000000;stroke-width:0.8;"/>
      </defs>
      <g>
       <use style="stroke:#000000;stroke-width:0.8;" x="31.5" xlink:href="#mf361a2b7a7" y="37.8"/>
      </g>
     </g>
     <g id="text_3">
      <!-- 0 -->
      <g transform="translate(19.41 40.839375)scale(0.08 -0.08)">
       <use xlink:href="#DejaVuSans-30"/>
      </g>
     </g>
    </g>
    <g id="ytick_2">
     <g id="line2d_4">
      <g>
       <use style="stroke:#000000;stroke-width:0.8;" x="31.5" xlink:href="#mf361a2b7a7" y="6.798563"/>
      </g>
     </g>
     <g id="text_4">
      <!-- 0.02 -->
      <g transform="translate(6.6875 9.837938)scale(0.08 -0.08)">
       <defs>
        <path d="M 684 794 
L 1344 794 
L 1344 0 
L 684 0 
L 684 794 
z
" id="DejaVuSans-2e" transform="scale(0.015625)"/>
        <path d="M 1228 531 
L 3431 531 
L 3431 0 
L 469 0 
L 469 531 
Q 828 903 1448 1529 
Q 2069 2156 2228 2338 
Q 2531 2678 2651 2914 
Q 2772 3150 2772 3378 
Q 2772 3750 2511 3984 
Q 2250 4219 1831 4219 
Q 1534 4219 1204 4116 
Q 875 4013 500 3803 
L 500 4441 
Q 881 4594 1212 4672 
Q 1544 4750 1819 4750 
Q 2544 4750 2975 4387 
Q 3406 4025 3406 3419 
Q 3406 3131 3298 2873 
Q 3191 2616 2906 2266 
Q 2828 2175 2409 1742 
Q 1991 1309 1228 531 
z
" id="DejaVuSans-32" transform="scale(0.015625)"/>
       </defs>
       <use xlink:href="#DejaVuSans-30"/>
       <use x="63.623047" xlink:href="#DejaVuSans-2e"/>
       <use x="95.410156" xlink:href="#DejaVuSans-30"/>
       <use x="159.033203" xlink:href="#DejaVuSans-32"/>
      </g>
     </g>
    </g>
    <g id="text_5">
     <!-- Density -->
     <g transform="translate(1.02375 36.698875)rotate(-90)scale(0.08 -0.08)">
      <defs>
       <path d="M 1259 4147 
L 1259 519 
L 2022 519 
Q 2988 519 3436 956 
Q 3884 1394 3884 2338 
Q 3884 3275 3436 3711 
Q 2988 4147 2022 4147 
L 1259 4147 
z
M 628 4666 
L 1925 4666 
Q 3281 4666 3915 4102 
Q 4550 3538 4550 2338 
Q 4550 1131 3912 565 
Q 3275 0 1925 0 
L 628 0 
L 628 4666 
z
" id="DejaVuSans-44" transform="scale(0.015625)"/>
       <path d="M 3597 1894 
L 3597 1613 
L 953 1613 
Q 991 1019 1311 708 
Q 1631 397 2203 397 
Q 2534 397 2845 478 
Q 3156 559 3463 722 
L 3463 178 
Q 3153 47 2828 -22 
Q 2503 -91 2169 -91 
Q 1331 -91 842 396 
Q 353 884 353 1716 
Q 353 2575 817 3079 
Q 1281 3584 2069 3584 
Q 2775 3584 3186 3129 
Q 3597 2675 3597 1894 
z
M 3022 2063 
Q 3016 2534 2758 2815 
Q 2500 3097 2075 3097 
Q 1594 3097 1305 2825 
Q 1016 2553 972 2059 
L 3022 2063 
z
" id="DejaVuSans-65" transform="scale(0.015625)"/>
       <path d="M 3513 2113 
L 3513 0 
L 2938 0 
L 2938 2094 
Q 2938 2591 2744 2837 
Q 2550 3084 2163 3084 
Q 1697 3084 1428 2787 
Q 1159 2491 1159 1978 
L 1159 0 
L 581 0 
L 581 3500 
L 1159 3500 
L 1159 2956 
Q 1366 3272 1645 3428 
Q 1925 3584 2291 3584 
Q 2894 3584 3203 3211 
Q 3513 2838 3513 2113 
z
" id="DejaVuSans-6e" transform="scale(0.015625)"/>
       <path d="M 2834 3397 
L 2834 2853 
Q 2591 2978 2328 3040 
Q 2066 3103 1784 3103 
Q 1356 3103 1142 2972 
Q 928 2841 928 2578 
Q 928 2378 1081 2264 
Q 1234 2150 1697 2047 
L 1894 2003 
Q 2506 1872 2764 1633 
Q 3022 1394 3022 966 
Q 3022 478 2636 193 
Q 2250 -91 1575 -91 
Q 1294 -91 989 -36 
Q 684 19 347 128 
L 347 722 
Q 666 556 975 473 
Q 1284 391 1588 391 
Q 1994 391 2212 530 
Q 2431 669 2431 922 
Q 2431 1156 2273 1281 
Q 2116 1406 1581 1522 
L 1381 1569 
Q 847 1681 609 1914 
Q 372 2147 372 2553 
Q 372 3047 722 3315 
Q 1072 3584 1716 3584 
Q 2034 3584 2315 3537 
Q 2597 3491 2834 3397 
z
" id="DejaVuSans-73" transform="scale(0.015625)"/>
       <path d="M 603 3500 
L 1178 3500 
L 1178 0 
L 603 0 
L 603 3500 
z
M 603 4863 
L 1178 4863 
L 1178 4134 
L 603 4134 
L 603 4863 
z
" id="DejaVuSans-69" transform="scale(0.015625)"/>
       <path d="M 1172 4494 
L 1172 3500 
L 2356 3500 
L 2356 3053 
L 1172 3053 
L 1172 1153 
Q 1172 725 1289 603 
Q 1406 481 1766 481 
L 2356 481 
L 2356 0 
L 1766 0 
Q 1100 0 847 248 
Q 594 497 594 1153 
L 594 3053 
L 172 3053 
L 172 3500 
L 594 3500 
L 594 4494 
L 1172 4494 
z
" id="DejaVuSans-74" transform="scale(0.015625)"/>
       <path d="M 2059 -325 
Q 1816 -950 1584 -1140 
Q 1353 -1331 966 -1331 
L 506 -1331 
L 506 -850 
L 844 -850 
Q 1081 -850 1212 -737 
Q 1344 -625 1503 -206 
L 1606 56 
L 191 3500 
L 800 3500 
L 1894 763 
L 2988 3500 
L 3597 3500 
L 2059 -325 
z
" id="DejaVuSans-79" transform="scale(0.015625)"/>
      </defs>
      <use xlink:href="#DejaVuSans-44"/>
      <use x="77.001953" xlink:href="#DejaVuSans-65"/>
      <use x="138.525391" xlink:href="#DejaVuSans-6e"/>
      <use x="201.904297" xlink:href="#DejaVuSans-73"/>
      <use x="254.003906" xlink:href="#DejaVuSans-69"/>
      <use x="281.787109" xlink:href="#DejaVuSans-74"/>
      <use x="320.996094" xlink:href="#DejaVuSans-79"/>
     </g>
    </g>
   </g>
   <g id="patch_3">
    <path clip-path="url(#p800c40aa91)" d="M 31.5 37.8 
L 31.5 37.8 
L 34.29 37.8 
L 34.29 37.8 
L 37.08 37.8 
L 37.08 37.8 
L 39.87 37.8 
L 39.87 31.908773 
L 42.660001 31.908773 
L 42.660001 11.914286 
L 45.45 11.914286 
L 45.45 34.765123 
L 48.239999 34.765123 
L 48.239999 37.621478 
L 51.03 37.621478 
L 51.03 37.8 
L 53.820002 37.8 
L 53.820002 37.8 
L 56.610001 37.8 
L 56.610001 37.8 
L 59.4 37.8 
L 59.4 37.8 
" style="fill:none;stroke:#000000;stroke-linejoin:miter;stroke-width:0.5;"/>
   </g>
   <g id="patch_4">
    <path clip-path="url(#p800c40aa91)" d="M 31.5 37.8 
L 31.5 37.8 
L 32.895 37.8 
L 32.895 37.8 
L 34.29 37.8 
L 34.29 37.8 
L 35.685001 37.8 
L 35.685001 37.8 
L 37.08 37.8 
L 37.08 37.8 
L 38.475 37.8 
L 38.475 37.8 
L 39.87 37.8 
L 39.87 37.8 
L 41.264999 37.8 
L 41.264999 24.946422 
L 42.660001 24.946422 
L 42.660001 6.737143 
L 44.055 6.737143 
L 44.055 19.947783 
L 45.45 19.947783 
L 45.45 32.087291 
L 46.845 32.087291 
L 46.845 36.371823 
L 48.239999 36.371823 
L 48.239999 37.442956 
L 49.635001 37.442956 
L 49.635001 37.085911 
L 51.03 37.085911 
L 51.03 37.8 
L 52.425 37.8 
L 52.425 37.8 
L 53.820002 37.8 
L 53.820002 37.8 
L 55.214999 37.8 
L 55.214999 37.8 
L 56.610001 37.8 
L 56.610001 37.8 
L 58.004998 37.8 
L 58.004998 37.8 
L 59.4 37.8 
L 59.4 37.8 
" style="fill:none;stroke:#1f77b4;stroke-linejoin:miter;stroke-width:0.5;"/>
   </g>
   <g id="patch_5">
    <path d="M 31.5 37.8 
L 31.5 5.184 
" style="fill:none;stroke:#000000;stroke-linecap:square;stroke-linejoin:miter;stroke-width:0.8;"/>
   </g>
   <g id="patch_6">
    <path d="M 59.4 37.8 
L 59.4 5.184 
" style="fill:none;stroke:#000000;stroke-linecap:square;stroke-linejoin:miter;stroke-width:0.8;"/>
   </g>
   <g id="patch_7">
    <path d="M 31.5 37.8 
L 59.4 37.8 
" style="fill:none;stroke:#000000;stroke-linecap:square;stroke-linejoin:miter;stroke-width:0.8;"/>
   </g>
   <g id="patch_8">
    <path d="M 31.5 5.184 
L 59.4 5.184 
" style="fill:none;stroke:#000000;stroke-linecap:square;stroke-linejoin:miter;stroke-width:0.8;"/>
   </g>
   <g id="text_6">
    <!-- 1 -->
    <g transform="translate(42.905 -9.77425)scale(0.08 -0.08)">
     <defs>
      <path d="M 794 531 
L 1825 531 
L 1825 4091 
L 703 3866 
L 703 4441 
L 1819 4666 
L 2450 4666 
L 2450 531 
L 3481 531 
L 3481 0 
L 794 0 
L 794 531 
z
" id="DejaVuSans-31" transform="scale(0.015625)"/>
     </defs>
     <use xlink:href="#DejaVuSans-31"/>
    </g>
    <!-- 2 -->
    <g transform="translate(42.905 -0.816)scale(0.08 -0.08)">
     <use xlink:href="#DejaVuSans-32"/>
    </g>
   </g>
  </g>
  <g id="axes_2">
   <g id="patch_9">
    <path d="M 64.98 37.8 
L 92.88 37.8 
L 92.88 5.184 
L 64.98 5.184 
z
" style="fill:#ffffff;"/>
   </g>
   <g id="matplotlib.axis_3">
    <g id="xtick_3">
     <g id="line2d_5">
      <g>
       <use style="stroke:#000000;stroke-width:0.8;" x="71.277968" xlink:href="#m0de3879556" y="37.8"/>
      </g>
     </g>
     <g id="text_7">
      <!-- 300 -->
      <g transform="translate(63.642968 50.87875)scale(0.08 -0.08)">
       <use xlink:href="#DejaVuSans-33"/>
       <use x="63.623047" xlink:href="#DejaVuSans-30"/>
       <use x="127.246094" xlink:href="#DejaVuSans-30"/>
      </g>
     </g>
    </g>
    <g id="xtick_4">
     <g id="line2d_6">
      <g>
       <use style="stroke:#000000;stroke-width:0.8;" x="90.171874" xlink:href="#m0de3879556" y="37.8"/>
      </g>
     </g>
     <g id="text_8">
      <!-- 600 -->
      <g transform="translate(82.536874 50.87875)scale(0.08 -0.08)">
       <use xlink:href="#DejaVuSans-36"/>
       <use x="63.623047" xlink:href="#DejaVuSans-30"/>
       <use x="127.246094" xlink:href="#DejaVuSans-30"/>
      </g>
     </g>
    </g>
   </g>
   <g id="matplotlib.axis_4"/>
   <g id="patch_10">
    <path clip-path="url(#p3b20796e98)" d="M 64.98 37.8 
L 64.98 37.8 
L 67.77 37.8 
L 67.77 37.8 
L 70.56 37.8 
L 70.56 37.8 
L 73.35 37.8 
L 73.35 32.884994 
L 76.140001 32.884994 
L 76.140001 14.601157 
L 78.93 14.601157 
L 78.93 28.166582 
L 81.719999 28.166582 
L 81.719999 37.210199 
L 84.51 37.210199 
L 84.51 37.6034 
L 87.300002 37.6034 
L 87.300002 37.8 
L 90.090001 37.8 
L 90.090001 37.8 
L 92.88 37.8 
L 92.88 37.8 
" style="fill:none;stroke:#000000;stroke-linejoin:miter;stroke-width:0.5;"/>
   </g>
   <g id="patch_11">
    <path clip-path="url(#p3b20796e98)" d="M 64.98 37.8 
L 64.98 37.8 
L 66.375 37.8 
L 66.375 37.8 
L 67.77 37.8 
L 67.77 37.8 
L 69.165001 37.8 
L 69.165001 37.8 
L 70.56 37.8 
L 70.56 37.8 
L 71.955 37.8 
L 71.955 37.8 
L 73.35 37.8 
L 73.35 37.8 
L 74.744999 37.8 
L 74.744999 29.542796 
L 76.140001 29.542796 
L 76.140001 6.737143 
L 77.535 6.737143 
L 77.535 15.780759 
L 78.93 15.780759 
L 78.93 28.363183 
L 80.325 28.363183 
L 80.325 32.29519 
L 81.719999 32.29519 
L 81.719999 37.4068 
L 83.115001 37.4068 
L 83.115001 37.406799 
L 84.51 37.406799 
L 84.51 37.8 
L 85.905 37.8 
L 85.905 37.8 
L 87.300002 37.8 
L 87.300002 37.8 
L 88.694999 37.8 
L 88.694999 37.8 
L 90.090001 37.8 
L 90.090001 37.8 
L 91.484998 37.8 
L 91.484998 37.8 
L 92.88 37.8 
L 92.88 37.8 
" style="fill:none;stroke:#1f77b4;stroke-linejoin:miter;stroke-width:0.5;"/>
   </g>
   <g id="patch_12">
    <path d="M 64.98 37.8 
L 64.98 5.184 
" style="fill:none;stroke:#000000;stroke-linecap:square;stroke-linejoin:miter;stroke-width:0.8;"/>
   </g>
   <g id="patch_13">
    <path d="M 92.88 37.8 
L 92.88 5.184 
" style="fill:none;stroke:#000000;stroke-linecap:square;stroke-linejoin:miter;stroke-width:0.8;"/>
   </g>
   <g id="patch_14">
    <path d="M 64.98 37.8 
L 92.88 37.8 
" style="fill:none;stroke:#000000;stroke-linecap:square;stroke-linejoin:miter;stroke-width:0.8;"/>
   </g>
   <g id="patch_15">
    <path d="M 64.98 5.184 
L 92.88 5.184 
" style="fill:none;stroke:#000000;stroke-linecap:square;stroke-linejoin:miter;stroke-width:0.8;"/>
   </g>
   <g id="text_9">
    <!-- 43 -->
    <g transform="translate(73.84 -9.77425)scale(0.08 -0.08)">
     <defs>
      <path d="M 2419 4116 
L 825 1625 
L 2419 1625 
L 2419 4116 
z
M 2253 4666 
L 3047 4666 
L 3047 1625 
L 3713 1625 
L 3713 1100 
L 3047 1100 
L 3047 0 
L 2419 0 
L 2419 1100 
L 313 1100 
L 313 1709 
L 2253 4666 
z
" id="DejaVuSans-34" transform="scale(0.015625)"/>
     </defs>
     <use xlink:href="#DejaVuSans-34"/>
     <use x="63.623047" xlink:href="#DejaVuSans-33"/>
    </g>
    <!-- 1140 -->
    <g transform="translate(68.75 -0.816)scale(0.08 -0.08)">
     <use xlink:href="#DejaVuSans-31"/>
     <use x="63.623047" xlink:href="#DejaVuSans-31"/>
     <use x="127.246094" xlink:href="#DejaVuSans-34"/>
     <use x="190.869141" xlink:href="#DejaVuSans-30"/>
    </g>
   </g>
  </g>
  <g id="axes_3">
   <g id="patch_16">
    <path d="M 98.46 37.8 
L 126.36 37.8 
L 126.36 5.184 
L 98.46 5.184 
z
" style="fill:#ffffff;"/>
   </g>
   <g id="matplotlib.axis_5">
    <g id="xtick_5">
     <g id="line2d_7">
      <g>
       <use style="stroke:#000000;stroke-width:0.8;" x="104.757968" xlink:href="#m0de3879556" y="37.8"/>
      </g>
     </g>
     <g id="text_10">
      <!-- 300 -->
      <g transform="translate(97.122968 50.87875)scale(0.08 -0.08)">
       <use xlink:href="#DejaVuSans-33"/>
       <use x="63.623047" xlink:href="#DejaVuSans-30"/>
       <use x="127.246094" xlink:href="#DejaVuSans-30"/>
      </g>
     </g>
    </g>
    <g id="xtick_6">
     <g id="line2d_8">
      <g>
       <use style="stroke:#000000;stroke-width:0.8;" x="123.651874" xlink:href="#m0de3879556" y="37.8"/>
      </g>
     </g>
     <g id="text_11">
      <!-- 600 -->
      <g transform="translate(116.016874 50.87875)scale(0.08 -0.08)">
       <use xlink:href="#DejaVuSans-36"/>
       <use x="63.623047" xlink:href="#DejaVuSans-30"/>
       <use x="127.246094" xlink:href="#DejaVuSans-30"/>
      </g>
     </g>
    </g>
   </g>
   <g id="matplotlib.axis_6"/>
   <g id="patch_17">
    <path clip-path="url(#pc52af463cd)" d="M 98.46 37.8 
L 98.46 37.8 
L 101.25 37.8 
L 101.25 37.8 
L 104.04 37.8 
L 104.04 37.8 
L 106.83 37.8 
L 106.83 33.826847 
L 109.620001 33.826847 
L 109.620001 13.961063 
L 112.41 13.961063 
L 112.41 31.117874 
L 115.199999 31.117874 
L 115.199999 37.077608 
L 117.99 37.077608 
L 117.99 37.8 
L 120.780002 37.8 
L 120.780002 37.8 
L 123.570001 37.8 
L 123.570001 37.619402 
L 126.36 37.619402 
L 126.36 37.8 
" style="fill:none;stroke:#000000;stroke-linejoin:miter;stroke-width:0.5;"/>
   </g>
   <g id="patch_18">
    <path clip-path="url(#pc52af463cd)" d="M 98.46 37.8 
L 98.46 37.8 
L 99.855 37.8 
L 99.855 37.8 
L 101.25 37.8 
L 101.25 37.8 
L 102.645001 37.8 
L 102.645001 37.8 
L 104.04 37.8 
L 104.04 37.8 
L 105.435 37.8 
L 105.435 37.8 
L 106.83 37.8 
L 106.83 37.8 
L 108.224999 37.8 
L 108.224999 28.047721 
L 109.620001 28.047721 
L 109.620001 6.737143 
L 111.015 6.737143 
L 111.015 21.907375 
L 112.41 21.907375 
L 112.41 28.7701 
L 113.805 28.7701 
L 113.805 35.99402 
L 115.199999 35.99402 
L 115.199999 35.994022 
L 116.595001 35.994022 
L 116.595001 36.716412 
L 117.99 36.716412 
L 117.99 37.438804 
L 119.385 37.438804 
L 119.385 37.8 
L 120.780002 37.8 
L 120.780002 37.8 
L 122.174999 37.8 
L 122.174999 37.8 
L 123.570001 37.8 
L 123.570001 37.8 
L 124.964998 37.8 
L 124.964998 37.8 
L 126.36 37.8 
L 126.36 37.8 
" style="fill:none;stroke:#1f77b4;stroke-linejoin:miter;stroke-width:0.5;"/>
   </g>
   <g id="patch_19">
    <path d="M 98.46 37.8 
L 98.46 5.184 
" style="fill:none;stroke:#000000;stroke-linecap:square;stroke-linejoin:miter;stroke-width:0.8;"/>
   </g>
   <g id="patch_20">
    <path d="M 126.36 37.8 
L 126.36 5.184 
" style="fill:none;stroke:#000000;stroke-linecap:square;stroke-linejoin:miter;stroke-width:0.8;"/>
   </g>
   <g id="patch_21">
    <path d="M 98.46 37.8 
L 126.36 37.8 
" style="fill:none;stroke:#000000;stroke-linecap:square;stroke-linejoin:miter;stroke-width:0.8;"/>
   </g>
   <g id="patch_22">
    <path d="M 98.46 5.184 
L 126.36 5.184 
" style="fill:none;stroke:#000000;stroke-linecap:square;stroke-linejoin:miter;stroke-width:0.8;"/>
   </g>
   <g id="text_12">
    <!-- 1 -->
    <g transform="translate(109.865 -9.77425)scale(0.08 -0.08)">
     <use xlink:href="#DejaVuSans-31"/>
    </g>
    <!-- 69 -->
    <g transform="translate(107.32 -0.816)scale(0.08 -0.08)">
     <defs>
      <path d="M 703 97 
L 703 672 
Q 941 559 1184 500 
Q 1428 441 1663 441 
Q 2288 441 2617 861 
Q 2947 1281 2994 2138 
Q 2813 1869 2534 1725 
Q 2256 1581 1919 1581 
Q 1219 1581 811 2004 
Q 403 2428 403 3163 
Q 403 3881 828 4315 
Q 1253 4750 1959 4750 
Q 2769 4750 3195 4129 
Q 3622 3509 3622 2328 
Q 3622 1225 3098 567 
Q 2575 -91 1691 -91 
Q 1453 -91 1209 -44 
Q 966 3 703 97 
z
M 1959 2075 
Q 2384 2075 2632 2365 
Q 2881 2656 2881 3163 
Q 2881 3666 2632 3958 
Q 2384 4250 1959 4250 
Q 1534 4250 1286 3958 
Q 1038 3666 1038 3163 
Q 1038 2656 1286 2365 
Q 1534 2075 1959 2075 
z
" id="DejaVuSans-39" transform="scale(0.015625)"/>
     </defs>
     <use xlink:href="#DejaVuSans-36"/>
     <use x="63.623047" xlink:href="#DejaVuSans-39"/>
    </g>
   </g>
  </g>
  <g id="axes_4">
   <g id="patch_23">
    <path d="M 131.94 37.8 
L 159.84 37.8 
L 159.84 5.184 
L 131.94 5.184 
z
" style="fill:#ffffff;"/>
   </g>
   <g id="matplotlib.axis_7">
    <g id="xtick_7">
     <g id="line2d_9">
      <g>
       <use style="stroke:#000000;stroke-width:0.8;" x="138.237968" xlink:href="#m0de3879556" y="37.8"/>
      </g>
     </g>
     <g id="text_13">
      <!-- 300 -->
      <g transform="translate(130.602968 50.87875)scale(0.08 -0.08)">
       <use xlink:href="#DejaVuSans-33"/>
       <use x="63.623047" xlink:href="#DejaVuSans-30"/>
       <use x="127.246094" xlink:href="#DejaVuSans-30"/>
      </g>
     </g>
    </g>
    <g id="xtick_8">
     <g id="line2d_10">
      <g>
       <use style="stroke:#000000;stroke-width:0.8;" x="157.131874" xlink:href="#m0de3879556" y="37.8"/>
      </g>
     </g>
     <g id="text_14">
      <!-- 600 -->
      <g transform="translate(149.496874 50.87875)scale(0.08 -0.08)">
       <use xlink:href="#DejaVuSans-36"/>
       <use x="63.623047" xlink:href="#DejaVuSans-30"/>
       <use x="127.246094" xlink:href="#DejaVuSans-30"/>
      </g>
     </g>
    </g>
   </g>
   <g id="matplotlib.axis_8"/>
   <g id="patch_24">
    <path clip-path="url(#p5733bea110)" d="M 131.94 37.8 
L 131.94 37.8 
L 134.73 37.8 
L 134.73 37.8 
L 137.52 37.8 
L 137.52 37.8 
L 140.31 37.8 
L 140.31 28.708438 
L 143.100001 28.708438 
L 143.100001 14.881672 
L 145.89 14.881672 
L 145.89 34.011847 
L 148.679999 34.011847 
L 148.679999 36.852962 
L 151.47 36.852962 
L 151.47 37.610592 
L 154.260002 37.610592 
L 154.260002 37.610592 
L 157.050001 37.610592 
L 157.050001 37.8 
L 159.84 37.8 
L 159.84 37.8 
" style="fill:none;stroke:#000000;stroke-linejoin:miter;stroke-width:0.5;"/>
   </g>
   <g id="patch_25">
    <path clip-path="url(#p5733bea110)" d="M 131.94 37.8 
L 131.94 37.8 
L 133.335 37.8 
L 133.335 37.8 
L 134.73 37.8 
L 134.73 37.8 
L 136.125001 37.8 
L 136.125001 37.8 
L 137.52 37.8 
L 137.52 37.8 
L 138.915 37.8 
L 138.915 37.8 
L 140.31 37.8 
L 140.31 37.8 
L 141.704999 37.8 
L 141.704999 20.374519 
L 143.100001 20.374519 
L 143.100001 6.737143 
L 144.495 6.737143 
L 144.495 23.026202 
L 145.89 23.026202 
L 145.89 29.844878 
L 147.285 29.844878 
L 147.285 37.042369 
L 148.679999 37.042369 
L 148.679999 37.421185 
L 150.075001 37.421185 
L 150.075001 36.663554 
L 151.47 36.663554 
L 151.47 37.421185 
L 152.865 37.421185 
L 152.865 37.8 
L 154.260002 37.8 
L 154.260002 37.421184 
L 155.654999 37.421184 
L 155.654999 37.8 
L 157.050001 37.8 
L 157.050001 37.8 
L 158.444998 37.8 
L 158.444998 37.8 
L 159.84 37.8 
L 159.84 37.8 
" style="fill:none;stroke:#1f77b4;stroke-linejoin:miter;stroke-width:0.5;"/>
   </g>
   <g id="patch_26">
    <path d="M 131.94 37.8 
L 131.94 5.184 
" style="fill:none;stroke:#000000;stroke-linecap:square;stroke-linejoin:miter;stroke-width:0.8;"/>
   </g>
   <g id="patch_27">
    <path d="M 159.84 37.8 
L 159.84 5.184 
" style="fill:none;stroke:#000000;stroke-linecap:square;stroke-linejoin:miter;stroke-width:0.8;"/>
   </g>
   <g id="patch_28">
    <path d="M 131.94 37.8 
L 159.84 37.8 
" style="fill:none;stroke:#000000;stroke-linecap:square;stroke-linejoin:miter;stroke-width:0.8;"/>
   </g>
   <g id="patch_29">
    <path d="M 131.94 5.184 
L 159.84 5.184 
" style="fill:none;stroke:#000000;stroke-linecap:square;stroke-linejoin:miter;stroke-width:0.8;"/>
   </g>
   <g id="text_15">
    <!-- 1 -->
    <g transform="translate(143.345 -9.77425)scale(0.08 -0.08)">
     <use xlink:href="#DejaVuSans-31"/>
    </g>
    <!-- 2866 -->
    <g transform="translate(135.71 -0.816)scale(0.08 -0.08)">
     <defs>
      <path d="M 2034 2216 
Q 1584 2216 1326 1975 
Q 1069 1734 1069 1313 
Q 1069 891 1326 650 
Q 1584 409 2034 409 
Q 2484 409 2743 651 
Q 3003 894 3003 1313 
Q 3003 1734 2745 1975 
Q 2488 2216 2034 2216 
z
M 1403 2484 
Q 997 2584 770 2862 
Q 544 3141 544 3541 
Q 544 4100 942 4425 
Q 1341 4750 2034 4750 
Q 2731 4750 3128 4425 
Q 3525 4100 3525 3541 
Q 3525 3141 3298 2862 
Q 3072 2584 2669 2484 
Q 3125 2378 3379 2068 
Q 3634 1759 3634 1313 
Q 3634 634 3220 271 
Q 2806 -91 2034 -91 
Q 1263 -91 848 271 
Q 434 634 434 1313 
Q 434 1759 690 2068 
Q 947 2378 1403 2484 
z
M 1172 3481 
Q 1172 3119 1398 2916 
Q 1625 2713 2034 2713 
Q 2441 2713 2670 2916 
Q 2900 3119 2900 3481 
Q 2900 3844 2670 4047 
Q 2441 4250 2034 4250 
Q 1625 4250 1398 4047 
Q 1172 3844 1172 3481 
z
" id="DejaVuSans-38" transform="scale(0.015625)"/>
     </defs>
     <use xlink:href="#DejaVuSans-32"/>
     <use x="63.623047" xlink:href="#DejaVuSans-38"/>
     <use x="127.246094" xlink:href="#DejaVuSans-36"/>
     <use x="190.869141" xlink:href="#DejaVuSans-36"/>
    </g>
   </g>
  </g>
  <g id="axes_5">
   <g id="patch_30">
    <path d="M 165.42 37.8 
L 193.32 37.8 
L 193.32 5.184 
L 165.42 5.184 
z
" style="fill:#ffffff;"/>
   </g>
   <g id="matplotlib.axis_9">
    <g id="xtick_9">
     <g id="line2d_11">
      <g>
       <use style="stroke:#000000;stroke-width:0.8;" x="171.717968" xlink:href="#m0de3879556" y="37.8"/>
      </g>
     </g>
     <g id="text_16">
      <!-- 300 -->
      <g transform="translate(164.082968 50.87875)scale(0.08 -0.08)">
       <use xlink:href="#DejaVuSans-33"/>
       <use x="63.623047" xlink:href="#DejaVuSans-30"/>
       <use x="127.246094" xlink:href="#DejaVuSans-30"/>
      </g>
     </g>
    </g>
    <g id="xtick_10">
     <g id="line2d_12">
      <g>
       <use style="stroke:#000000;stroke-width:0.8;" x="190.611874" xlink:href="#m0de3879556" y="37.8"/>
      </g>
     </g>
     <g id="text_17">
      <!-- 600 -->
      <g transform="translate(182.976874 50.87875)scale(0.08 -0.08)">
       <use xlink:href="#DejaVuSans-36"/>
       <use x="63.623047" xlink:href="#DejaVuSans-30"/>
       <use x="127.246094" xlink:href="#DejaVuSans-30"/>
      </g>
     </g>
    </g>
   </g>
   <g id="matplotlib.axis_10"/>
   <g id="patch_31">
    <path clip-path="url(#p5da70bdc5b)" d="M 165.42 37.8 
L 165.42 37.8 
L 168.21 37.8 
L 168.21 37.8 
L 171 37.8 
L 171 37.8 
L 173.79 37.8 
L 173.79 30.36242 
L 176.580001 30.36242 
L 176.580001 13.080966 
L 179.37 13.080966 
L 179.37 29.049899 
L 182.159999 29.049899 
L 182.159999 36.049981 
L 184.95 36.049981 
L 184.95 37.8 
L 187.740002 37.8 
L 187.740002 37.581247 
L 190.530001 37.581247 
L 190.530001 37.8 
L 193.32 37.8 
L 193.32 37.8 
" style="fill:none;stroke:#000000;stroke-linejoin:miter;stroke-width:0.5;"/>
   </g>
   <g id="patch_32">
    <path clip-path="url(#p5da70bdc5b)" d="M 165.42 37.8 
L 165.42 37.8 
L 166.815 37.8 
L 166.815 37.8 
L 168.21 37.8 
L 168.21 37.8 
L 169.605001 37.8 
L 169.605001 37.8 
L 171 37.8 
L 171 37.8 
L 172.395 37.8 
L 172.395 37.8 
L 173.79 37.8 
L 173.79 37.8 
L 175.184999 37.8 
L 175.184999 22.487345 
L 176.580001 22.487345 
L 176.580001 6.737143 
L 177.975 6.737143 
L 177.975 17.237264 
L 179.37 17.237264 
L 179.37 27.299879 
L 180.765 27.299879 
L 180.765 33.862455 
L 182.159999 33.862455 
L 182.159999 36.049982 
L 183.555001 36.049982 
L 183.555001 36.487485 
L 184.95 36.487485 
L 184.95 37.362495 
L 186.345 37.362495 
L 186.345 37.362496 
L 187.740002 37.362496 
L 187.740002 37.362494 
L 189.134999 37.362494 
L 189.134999 37.8 
L 190.530001 37.8 
L 190.530001 37.8 
L 191.924998 37.8 
L 191.924998 37.8 
L 193.32 37.8 
L 193.32 37.8 
" style="fill:none;stroke:#1f77b4;stroke-linejoin:miter;stroke-width:0.5;"/>
   </g>
   <g id="patch_33">
    <path d="M 165.42 37.8 
L 165.42 5.184 
" style="fill:none;stroke:#000000;stroke-linecap:square;stroke-linejoin:miter;stroke-width:0.8;"/>
   </g>
   <g id="patch_34">
    <path d="M 193.32 37.8 
L 193.32 5.184 
" style="fill:none;stroke:#000000;stroke-linecap:square;stroke-linejoin:miter;stroke-width:0.8;"/>
   </g>
   <g id="patch_35">
    <path d="M 165.42 37.8 
L 193.32 37.8 
" style="fill:none;stroke:#000000;stroke-linecap:square;stroke-linejoin:miter;stroke-width:0.8;"/>
   </g>
   <g id="patch_36">
    <path d="M 165.42 5.184 
L 193.32 5.184 
" style="fill:none;stroke:#000000;stroke-linecap:square;stroke-linejoin:miter;stroke-width:0.8;"/>
   </g>
   <g id="text_18">
    <!-- 1 -->
    <g transform="translate(176.825 -9.77425)scale(0.08 -0.08)">
     <use xlink:href="#DejaVuSans-31"/>
    </g>
    <!-- 2886 -->
    <g transform="translate(169.19 -0.816)scale(0.08 -0.08)">
     <use xlink:href="#DejaVuSans-32"/>
     <use x="63.623047" xlink:href="#DejaVuSans-38"/>
     <use x="127.246094" xlink:href="#DejaVuSans-38"/>
     <use x="190.869141" xlink:href="#DejaVuSans-36"/>
    </g>
   </g>
  </g>
  <g id="axes_6">
   <g id="patch_37">
    <path d="M 198.9 37.8 
L 226.8 37.8 
L 226.8 5.184 
L 198.9 5.184 
z
" style="fill:#ffffff;"/>
   </g>
   <g id="matplotlib.axis_11">
    <g id="xtick_11">
     <g id="line2d_13">
      <g>
       <use style="stroke:#000000;stroke-width:0.8;" x="205.197968" xlink:href="#m0de3879556" y="37.8"/>
      </g>
     </g>
     <g id="text_19">
      <!-- 300 -->
      <g transform="translate(197.562968 50.87875)scale(0.08 -0.08)">
       <use xlink:href="#DejaVuSans-33"/>
       <use x="63.623047" xlink:href="#DejaVuSans-30"/>
       <use x="127.246094" xlink:href="#DejaVuSans-30"/>
      </g>
     </g>
    </g>
    <g id="xtick_12">
     <g id="line2d_14">
      <g>
       <use style="stroke:#000000;stroke-width:0.8;" x="224.091874" xlink:href="#m0de3879556" y="37.8"/>
      </g>
     </g>
     <g id="text_20">
      <!-- 600 -->
      <g transform="translate(216.456874 50.87875)scale(0.08 -0.08)">
       <use xlink:href="#DejaVuSans-36"/>
       <use x="63.623047" xlink:href="#DejaVuSans-30"/>
       <use x="127.246094" xlink:href="#DejaVuSans-30"/>
      </g>
     </g>
    </g>
   </g>
   <g id="matplotlib.axis_12"/>
   <g id="patch_38">
    <path clip-path="url(#p80a2830af9)" d="M 198.9 37.8 
L 198.9 37.8 
L 201.69 37.8 
L 201.69 37.8 
L 204.48 37.8 
L 204.48 37.8 
L 207.27 37.8 
L 207.27 35.510789 
L 210.060001 35.510789 
L 210.060001 12.046356 
L 212.85 12.046356 
L 212.85 18.913994 
L 215.639999 18.913994 
L 215.639999 31.218518 
L 218.43 31.218518 
L 218.43 35.79694 
L 221.220002 35.79694 
L 221.220002 37.227697 
L 224.010001 37.227697 
L 224.010001 37.8 
L 226.8 37.8 
L 226.8 37.8 
" style="fill:none;stroke:#000000;stroke-linejoin:miter;stroke-width:0.5;"/>
   </g>
   <g id="patch_39">
    <path clip-path="url(#p80a2830af9)" d="M 198.9 37.8 
L 198.9 37.8 
L 200.295 37.8 
L 200.295 37.8 
L 201.69 37.8 
L 201.69 37.8 
L 203.085001 37.8 
L 203.085001 37.8 
L 204.48 37.8 
L 204.48 37.8 
L 205.875 37.8 
L 205.875 37.8 
L 207.27 37.8 
L 207.27 37.8 
L 208.664999 37.8 
L 208.664999 34.348576 
L 210.060001 34.348576 
L 210.060001 17.091429 
L 211.455 17.091429 
L 211.455 6.737143 
L 212.85 6.737143 
L 212.85 17.091429 
L 214.245 17.091429 
L 214.245 22.84381 
L 215.639999 22.84381 
L 215.639999 29.17144 
L 217.035001 29.17144 
L 217.035001 33.198095 
L 218.43 33.198095 
L 218.43 34.348571 
L 219.825 34.348571 
L 219.825 34.923813 
L 221.220002 34.923813 
L 221.220002 36.649522 
L 222.614999 36.649522 
L 222.614999 37.224763 
L 224.010001 37.224763 
L 224.010001 37.8 
L 225.404998 37.8 
L 225.404998 37.8 
L 226.8 37.8 
L 226.8 37.8 
" style="fill:none;stroke:#1f77b4;stroke-linejoin:miter;stroke-width:0.5;"/>
   </g>
   <g id="patch_40">
    <path d="M 198.9 37.8 
L 198.9 5.184 
" style="fill:none;stroke:#000000;stroke-linecap:square;stroke-linejoin:miter;stroke-width:0.8;"/>
   </g>
   <g id="patch_41">
    <path d="M 226.8 37.8 
L 226.8 5.184 
" style="fill:none;stroke:#000000;stroke-linecap:square;stroke-linejoin:miter;stroke-width:0.8;"/>
   </g>
   <g id="patch_42">
    <path d="M 198.9 37.8 
L 226.8 37.8 
" style="fill:none;stroke:#000000;stroke-linecap:square;stroke-linejoin:miter;stroke-width:0.8;"/>
   </g>
   <g id="patch_43">
    <path d="M 198.9 5.184 
L 226.8 5.184 
" style="fill:none;stroke:#000000;stroke-linecap:square;stroke-linejoin:miter;stroke-width:0.8;"/>
   </g>
   <g id="text_21">
    <!-- 43 -->
    <g transform="translate(207.76 -9.77425)scale(0.08 -0.08)">
     <use xlink:href="#DejaVuSans-34"/>
     <use x="63.623047" xlink:href="#DejaVuSans-33"/>
    </g>
    <!-- 1148 -->
    <g transform="translate(202.67 -0.816)scale(0.08 -0.08)">
     <use xlink:href="#DejaVuSans-31"/>
     <use x="63.623047" xlink:href="#DejaVuSans-31"/>
     <use x="127.246094" xlink:href="#DejaVuSans-34"/>
     <use x="190.869141" xlink:href="#DejaVuSans-38"/>
    </g>
   </g>
  </g>
 </g>
 <defs>
  <clipPath id="p800c40aa91">
   <rect height="32.616" width="27.9" x="31.5" y="5.184"/>
  </clipPath>
  <clipPath id="p3b20796e98">
   <rect height="32.616" width="27.9" x="64.98" y="5.184"/>
  </clipPath>
  <clipPath id="pc52af463cd">
   <rect height="32.616" width="27.9" x="98.46" y="5.184"/>
  </clipPath>
  <clipPath id="p5733bea110">
   <rect height="32.616" width="27.9" x="131.94" y="5.184"/>
  </clipPath>
  <clipPath id="p5da70bdc5b">
   <rect height="32.616" width="27.9" x="165.42" y="5.184"/>
  </clipPath>
  <clipPath id="p80a2830af9">
   <rect height="32.616" width="27.9" x="198.9" y="5.184"/>
  </clipPath>
 </defs>
</svg>
