<?xml version="1.0" encoding="utf-8" standalone="no"?>
<!DOCTYPE svg PUBLIC "-//W3C//DTD SVG 1.1//EN"
  "http://www.w3.org/Graphics/SVG/1.1/DTD/svg11.dtd">
<svg height="43.2pt" version="1.1" viewBox="0 0 252 43.2" width="252pt" xmlns="http://www.w3.org/2000/svg" xmlns:xlink="http://www.w3.org/1999/xlink">
 <metadata>
  <rdf:RDF xmlns:cc="http://creativecommons.org/ns#" xmlns:dc="http://purl.org/dc/elements/1.1/" xmlns:rdf="http://www.w3.org/1999/02/22-rdf-syntax-ns#">
   <cc:Work>
    <dc:type rdf:resource="http://purl.org/dc/dcmitype/StillImage"/>
    <dc:date>2021-07-10T02:30:59.193721</dc:date>
    <dc:format>image/svg+xml</dc:format>
    <dc:creator>
     <cc:Agent>
      <dc:title>Matplotlib v3.4.2, https://matplotlib.org/</dc:title>
     </cc:Agent>
    </dc:creator>
   </cc:Work>
  </rdf:RDF>
 </metadata>
 <defs>
  <style type="text/css">*{stroke-linecap:butt;stroke-linejoin:round;}</style>
 </defs>
 <g id="figure_1">
  <g id="patch_1">
   <path d="M 0 43.2 
L 252 43.2 
L 252 0 
L 0 0 
z
" style="fill:none;"/>
  </g>
  <g id="axes_1">
   <g id="patch_2">
    <path d="M 31.5 37.8 
L 59.4 37.8 
L 59.4 5.184 
L 31.5 5.184 
z
" style="fill:#ffffff;"/>
   </g>
   <g id="matplotlib.axis_1">
    <g id="xtick_1">
     <g id="line2d_1">
      <defs>
       <path d="M 0 0 
L 0 3.5 
" id="m83d1fd7c88" style="stroke:#000000;stroke-width:0.8;"/>
      </defs>
      <g>
       <use style="stroke:#000000;stroke-width:0.8;" x="35.512168" xlink:href="#m83d1fd7c88" y="37.8"/>
      </g>
     </g>
     <g id="text_1">
      <!-- 150 -->
      <g transform="translate(27.877168 50.87875)scale(0.08 -0.08)">
       <defs>
        <path d="M 794 531 
L 1825 531 
L 1825 4091 
L 703 3866 
L 703 4441 
L 1819 4666 
L 2450 4666 
L 2450 531 
L 3481 531 
L 3481 0 
L 794 0 
L 794 531 
z
" id="DejaVuSans-31" transform="scale(0.015625)"/>
        <path d="M 691 4666 
L 3169 4666 
L 3169 4134 
L 1269 4134 
L 1269 2991 
Q 1406 3038 1543 3061 
Q 1681 3084 1819 3084 
Q 2600 3084 3056 2656 
Q 3513 2228 3513 1497 
Q 3513 744 3044 326 
Q 2575 -91 1722 -91 
Q 1428 -91 1123 -41 
Q 819 9 494 109 
L 494 744 
Q 775 591 1075 516 
Q 1375 441 1709 441 
Q 2250 441 2565 725 
Q 2881 1009 2881 1497 
Q 2881 1984 2565 2268 
Q 2250 2553 1709 2553 
Q 1456 2553 1204 2497 
Q 953 2441 691 2322 
L 691 4666 
z
" id="DejaVuSans-35" transform="scale(0.015625)"/>
        <path d="M 2034 4250 
Q 1547 4250 1301 3770 
Q 1056 3291 1056 2328 
Q 1056 1369 1301 889 
Q 1547 409 2034 409 
Q 2525 409 2770 889 
Q 3016 1369 3016 2328 
Q 3016 3291 2770 3770 
Q 2525 4250 2034 4250 
z
M 2034 4750 
Q 2819 4750 3233 4129 
Q 3647 3509 3647 2328 
Q 3647 1150 3233 529 
Q 2819 -91 2034 -91 
Q 1250 -91 836 529 
Q 422 1150 422 2328 
Q 422 3509 836 4129 
Q 1250 4750 2034 4750 
z
" id="DejaVuSans-30" transform="scale(0.015625)"/>
       </defs>
       <use xlink:href="#DejaVuSans-31"/>
       <use x="63.623047" xlink:href="#DejaVuSans-35"/>
       <use x="127.246094" xlink:href="#DejaVuSans-30"/>
      </g>
     </g>
    </g>
    <g id="xtick_2">
     <g id="line2d_2">
      <g>
       <use style="stroke:#000000;stroke-width:0.8;" x="50.943584" xlink:href="#m83d1fd7c88" y="37.8"/>
      </g>
     </g>
     <g id="text_2">
      <!-- 400 -->
      <g transform="translate(43.308584 50.87875)scale(0.08 -0.08)">
       <defs>
        <path d="M 2419 4116 
L 825 1625 
L 2419 1625 
L 2419 4116 
z
M 2253 4666 
L 3047 4666 
L 3047 1625 
L 3713 1625 
L 3713 1100 
L 3047 1100 
L 3047 0 
L 2419 0 
L 2419 1100 
L 313 1100 
L 313 1709 
L 2253 4666 
z
" id="DejaVuSans-34" transform="scale(0.015625)"/>
       </defs>
       <use xlink:href="#DejaVuSans-34"/>
       <use x="63.623047" xlink:href="#DejaVuSans-30"/>
       <use x="127.246094" xlink:href="#DejaVuSans-30"/>
      </g>
     </g>
    </g>
   </g>
   <g id="matplotlib.axis_2">
    <g id="ytick_1">
     <g id="line2d_3">
      <defs>
       <path d="M 0 0 
L -3.5 0 
" id="med7e2ba3ea" style="stroke:#000000;stroke-width:0.8;"/>
      </defs>
      <g>
       <use style="stroke:#000000;stroke-width:0.8;" x="31.5" xlink:href="#med7e2ba3ea" y="37.8"/>
      </g>
     </g>
     <g id="text_3">
      <!-- 0 -->
      <g transform="translate(19.41 40.839375)scale(0.08 -0.08)">
       <use xlink:href="#DejaVuSans-30"/>
      </g>
     </g>
    </g>
    <g id="ytick_2">
     <g id="line2d_4">
      <g>
       <use style="stroke:#000000;stroke-width:0.8;" x="31.5" xlink:href="#med7e2ba3ea" y="13.22928"/>
      </g>
     </g>
     <g id="text_4">
      <!-- 0.01 -->
      <g transform="translate(6.6875 16.268655)scale(0.08 -0.08)">
       <defs>
        <path d="M 684 794 
L 1344 794 
L 1344 0 
L 684 0 
L 684 794 
z
" id="DejaVuSans-2e" transform="scale(0.015625)"/>
       </defs>
       <use xlink:href="#DejaVuSans-30"/>
       <use x="63.623047" xlink:href="#DejaVuSans-2e"/>
       <use x="95.410156" xlink:href="#DejaVuSans-30"/>
       <use x="159.033203" xlink:href="#DejaVuSans-31"/>
      </g>
     </g>
    </g>
    <g id="text_5">
     <!-- Density -->
     <g transform="translate(1.02375 36.698875)rotate(-90)scale(0.08 -0.08)">
      <defs>
       <path d="M 1259 4147 
L 1259 519 
L 2022 519 
Q 2988 519 3436 956 
Q 3884 1394 3884 2338 
Q 3884 3275 3436 3711 
Q 2988 4147 2022 4147 
L 1259 4147 
z
M 628 4666 
L 1925 4666 
Q 3281 4666 3915 4102 
Q 4550 3538 4550 2338 
Q 4550 1131 3912 565 
Q 3275 0 1925 0 
L 628 0 
L 628 4666 
z
" id="DejaVuSans-44" transform="scale(0.015625)"/>
       <path d="M 3597 1894 
L 3597 1613 
L 953 1613 
Q 991 1019 1311 708 
Q 1631 397 2203 397 
Q 2534 397 2845 478 
Q 3156 559 3463 722 
L 3463 178 
Q 3153 47 2828 -22 
Q 2503 -91 2169 -91 
Q 1331 -91 842 396 
Q 353 884 353 1716 
Q 353 2575 817 3079 
Q 1281 3584 2069 3584 
Q 2775 3584 3186 3129 
Q 3597 2675 3597 1894 
z
M 3022 2063 
Q 3016 2534 2758 2815 
Q 2500 3097 2075 3097 
Q 1594 3097 1305 2825 
Q 1016 2553 972 2059 
L 3022 2063 
z
" id="DejaVuSans-65" transform="scale(0.015625)"/>
       <path d="M 3513 2113 
L 3513 0 
L 2938 0 
L 2938 2094 
Q 2938 2591 2744 2837 
Q 2550 3084 2163 3084 
Q 1697 3084 1428 2787 
Q 1159 2491 1159 1978 
L 1159 0 
L 581 0 
L 581 3500 
L 1159 3500 
L 1159 2956 
Q 1366 3272 1645 3428 
Q 1925 3584 2291 3584 
Q 2894 3584 3203 3211 
Q 3513 2838 3513 2113 
z
" id="DejaVuSans-6e" transform="scale(0.015625)"/>
       <path d="M 2834 3397 
L 2834 2853 
Q 2591 2978 2328 3040 
Q 2066 3103 1784 3103 
Q 1356 3103 1142 2972 
Q 928 2841 928 2578 
Q 928 2378 1081 2264 
Q 1234 2150 1697 2047 
L 1894 2003 
Q 2506 1872 2764 1633 
Q 3022 1394 3022 966 
Q 3022 478 2636 193 
Q 2250 -91 1575 -91 
Q 1294 -91 989 -36 
Q 684 19 347 128 
L 347 722 
Q 666 556 975 473 
Q 1284 391 1588 391 
Q 1994 391 2212 530 
Q 2431 669 2431 922 
Q 2431 1156 2273 1281 
Q 2116 1406 1581 1522 
L 1381 1569 
Q 847 1681 609 1914 
Q 372 2147 372 2553 
Q 372 3047 722 3315 
Q 1072 3584 1716 3584 
Q 2034 3584 2315 3537 
Q 2597 3491 2834 3397 
z
" id="DejaVuSans-73" transform="scale(0.015625)"/>
       <path d="M 603 3500 
L 1178 3500 
L 1178 0 
L 603 0 
L 603 3500 
z
M 603 4863 
L 1178 4863 
L 1178 4134 
L 603 4134 
L 603 4863 
z
" id="DejaVuSans-69" transform="scale(0.015625)"/>
       <path d="M 1172 4494 
L 1172 3500 
L 2356 3500 
L 2356 3053 
L 1172 3053 
L 1172 1153 
Q 1172 725 1289 603 
Q 1406 481 1766 481 
L 2356 481 
L 2356 0 
L 1766 0 
Q 1100 0 847 248 
Q 594 497 594 1153 
L 594 3053 
L 172 3053 
L 172 3500 
L 594 3500 
L 594 4494 
L 1172 4494 
z
" id="DejaVuSans-74" transform="scale(0.015625)"/>
       <path d="M 2059 -325 
Q 1816 -950 1584 -1140 
Q 1353 -1331 966 -1331 
L 506 -1331 
L 506 -850 
L 844 -850 
Q 1081 -850 1212 -737 
Q 1344 -625 1503 -206 
L 1606 56 
L 191 3500 
L 800 3500 
L 1894 763 
L 2988 3500 
L 3597 3500 
L 2059 -325 
z
" id="DejaVuSans-79" transform="scale(0.015625)"/>
      </defs>
      <use xlink:href="#DejaVuSans-44"/>
      <use x="77.001953" xlink:href="#DejaVuSans-65"/>
      <use x="138.525391" xlink:href="#DejaVuSans-6e"/>
      <use x="201.904297" xlink:href="#DejaVuSans-73"/>
      <use x="254.003906" xlink:href="#DejaVuSans-69"/>
      <use x="281.787109" xlink:href="#DejaVuSans-74"/>
      <use x="320.996094" xlink:href="#DejaVuSans-79"/>
     </g>
    </g>
   </g>
   <g id="patch_3">
    <path clip-path="url(#pe15aa7cb62)" d="M 31.5 37.8 
L 31.5 37.8 
L 34.29 37.8 
L 34.29 36.135918 
L 37.08 36.135918 
L 37.08 20.881837 
L 39.87 20.881837 
L 39.87 13.116122 
L 42.66 13.116122 
L 42.66 27.81551 
L 45.45 27.81551 
L 45.45 36.690612 
L 48.24 36.690612 
L 48.24 37.8 
L 51.03 37.8 
L 51.03 37.8 
L 53.82 37.8 
L 53.82 37.8 
L 56.61 37.8 
L 56.61 37.8 
L 59.4 37.8 
L 59.4 37.8 
" style="fill:none;stroke:#000000;stroke-linejoin:miter;stroke-width:0.5;"/>
   </g>
   <g id="patch_4">
    <path clip-path="url(#pe15aa7cb62)" d="M 31.5 37.8 
L 31.5 37.8 
L 32.895 37.8 
L 32.895 37.8 
L 34.29 37.8 
L 34.29 37.8 
L 35.685 37.8 
L 35.685 36.135918 
L 37.08 36.135918 
L 37.08 32.253061 
L 38.475 32.253061 
L 38.475 6.737143 
L 39.87 6.737143 
L 39.87 7.291837 
L 41.265 7.291837 
L 41.265 12.284082 
L 42.66 12.284082 
L 42.66 26.706122 
L 44.055 26.706122 
L 44.055 35.581224 
L 45.45 35.581224 
L 45.45 36.690612 
L 46.845 36.690612 
L 46.845 37.8 
L 48.24 37.8 
L 48.24 37.8 
L 49.635 37.8 
L 49.635 37.8 
L 51.03 37.8 
L 51.03 37.8 
L 52.425 37.8 
L 52.425 37.8 
L 53.82 37.8 
L 53.82 37.8 
L 55.215 37.8 
L 55.215 37.8 
L 56.61 37.8 
L 56.61 37.8 
L 58.005 37.8 
L 58.005 37.8 
L 59.4 37.8 
L 59.4 37.8 
" style="fill:none;stroke:#1f77b4;stroke-linejoin:miter;stroke-width:0.5;"/>
   </g>
   <g id="patch_5">
    <path d="M 31.5 37.8 
L 31.5 5.184 
" style="fill:none;stroke:#000000;stroke-linecap:square;stroke-linejoin:miter;stroke-width:0.8;"/>
   </g>
   <g id="patch_6">
    <path d="M 59.4 37.8 
L 59.4 5.184 
" style="fill:none;stroke:#000000;stroke-linecap:square;stroke-linejoin:miter;stroke-width:0.8;"/>
   </g>
   <g id="patch_7">
    <path d="M 31.5 37.8 
L 59.4 37.8 
" style="fill:none;stroke:#000000;stroke-linecap:square;stroke-linejoin:miter;stroke-width:0.8;"/>
   </g>
   <g id="patch_8">
    <path d="M 31.5 5.184 
L 59.4 5.184 
" style="fill:none;stroke:#000000;stroke-linecap:square;stroke-linejoin:miter;stroke-width:0.8;"/>
   </g>
   <g id="text_6">
    <!-- 3 -->
    <g transform="translate(42.905 -9.77425)scale(0.08 -0.08)">
     <defs>
      <path d="M 2597 2516 
Q 3050 2419 3304 2112 
Q 3559 1806 3559 1356 
Q 3559 666 3084 287 
Q 2609 -91 1734 -91 
Q 1441 -91 1130 -33 
Q 819 25 488 141 
L 488 750 
Q 750 597 1062 519 
Q 1375 441 1716 441 
Q 2309 441 2620 675 
Q 2931 909 2931 1356 
Q 2931 1769 2642 2001 
Q 2353 2234 1838 2234 
L 1294 2234 
L 1294 2753 
L 1863 2753 
Q 2328 2753 2575 2939 
Q 2822 3125 2822 3475 
Q 2822 3834 2567 4026 
Q 2313 4219 1838 4219 
Q 1578 4219 1281 4162 
Q 984 4106 628 3988 
L 628 4550 
Q 988 4650 1302 4700 
Q 1616 4750 1894 4750 
Q 2613 4750 3031 4423 
Q 3450 4097 3450 3541 
Q 3450 3153 3228 2886 
Q 3006 2619 2597 2516 
z
" id="DejaVuSans-33" transform="scale(0.015625)"/>
     </defs>
     <use xlink:href="#DejaVuSans-33"/>
    </g>
    <!-- 201 -->
    <g transform="translate(37.815 -0.816)scale(0.08 -0.08)">
     <defs>
      <path d="M 1228 531 
L 3431 531 
L 3431 0 
L 469 0 
L 469 531 
Q 828 903 1448 1529 
Q 2069 2156 2228 2338 
Q 2531 2678 2651 2914 
Q 2772 3150 2772 3378 
Q 2772 3750 2511 3984 
Q 2250 4219 1831 4219 
Q 1534 4219 1204 4116 
Q 875 4013 500 3803 
L 500 4441 
Q 881 4594 1212 4672 
Q 1544 4750 1819 4750 
Q 2544 4750 2975 4387 
Q 3406 4025 3406 3419 
Q 3406 3131 3298 2873 
Q 3191 2616 2906 2266 
Q 2828 2175 2409 1742 
Q 1991 1309 1228 531 
z
" id="DejaVuSans-32" transform="scale(0.015625)"/>
     </defs>
     <use xlink:href="#DejaVuSans-32"/>
     <use x="63.623047" xlink:href="#DejaVuSans-30"/>
     <use x="127.246094" xlink:href="#DejaVuSans-31"/>
    </g>
   </g>
  </g>
  <g id="axes_2">
   <g id="patch_9">
    <path d="M 64.98 37.8 
L 92.88 37.8 
L 92.88 5.184 
L 64.98 5.184 
z
" style="fill:#ffffff;"/>
   </g>
   <g id="matplotlib.axis_3">
    <g id="xtick_3">
     <g id="line2d_5">
      <g>
       <use style="stroke:#000000;stroke-width:0.8;" x="68.992168" xlink:href="#m83d1fd7c88" y="37.8"/>
      </g>
     </g>
     <g id="text_7">
      <!-- 150 -->
      <g transform="translate(61.357168 50.87875)scale(0.08 -0.08)">
       <use xlink:href="#DejaVuSans-31"/>
       <use x="63.623047" xlink:href="#DejaVuSans-35"/>
       <use x="127.246094" xlink:href="#DejaVuSans-30"/>
      </g>
     </g>
    </g>
    <g id="xtick_4">
     <g id="line2d_6">
      <g>
       <use style="stroke:#000000;stroke-width:0.8;" x="84.423584" xlink:href="#m83d1fd7c88" y="37.8"/>
      </g>
     </g>
     <g id="text_8">
      <!-- 400 -->
      <g transform="translate(76.788584 50.87875)scale(0.08 -0.08)">
       <use xlink:href="#DejaVuSans-34"/>
       <use x="63.623047" xlink:href="#DejaVuSans-30"/>
       <use x="127.246094" xlink:href="#DejaVuSans-30"/>
      </g>
     </g>
    </g>
   </g>
   <g id="matplotlib.axis_4"/>
   <g id="patch_10">
    <path clip-path="url(#p3f8c4a58d2)" d="M 64.98 37.8 
L 64.98 37.8 
L 67.77 37.8 
L 67.77 36.952831 
L 70.56 36.952831 
L 70.56 21.986182 
L 73.35 21.986182 
L 73.35 10.408208 
L 76.14 10.408208 
L 76.14 27.351584 
L 78.93 27.351584 
L 78.93 36.952831 
L 81.72 36.952831 
L 81.72 37.8 
L 84.51 37.8 
L 84.51 37.8 
L 87.3 37.8 
L 87.3 37.8 
L 90.09 37.8 
L 90.09 37.8 
L 92.88 37.8 
L 92.88 37.8 
" style="fill:none;stroke:#000000;stroke-linejoin:miter;stroke-width:0.5;"/>
   </g>
   <g id="patch_11">
    <path clip-path="url(#p3f8c4a58d2)" d="M 64.98 37.8 
L 64.98 37.8 
L 66.375 37.8 
L 66.375 37.8 
L 67.77 37.8 
L 67.77 37.8 
L 69.165 37.8 
L 69.165 37.235221 
L 70.56 37.235221 
L 70.56 29.893091 
L 71.955 29.893091 
L 71.955 17.467948 
L 73.35 17.467948 
L 73.35 6.737143 
L 74.745 6.737143 
L 74.745 12.384935 
L 76.14 12.384935 
L 76.14 21.986182 
L 77.535 21.986182 
L 77.535 31.587429 
L 78.93 31.587429 
L 78.93 34.976104 
L 80.325 34.976104 
L 80.325 37.235221 
L 81.72 37.235221 
L 81.72 37.8 
L 83.115 37.8 
L 83.115 37.8 
L 84.51 37.8 
L 84.51 37.8 
L 85.905 37.8 
L 85.905 37.8 
L 87.3 37.8 
L 87.3 37.8 
L 88.695 37.8 
L 88.695 37.8 
L 90.09 37.8 
L 90.09 37.8 
L 91.485 37.8 
L 91.485 37.8 
L 92.88 37.8 
L 92.88 37.8 
" style="fill:none;stroke:#1f77b4;stroke-linejoin:miter;stroke-width:0.5;"/>
   </g>
   <g id="patch_12">
    <path d="M 64.98 37.8 
L 64.98 5.184 
" style="fill:none;stroke:#000000;stroke-linecap:square;stroke-linejoin:miter;stroke-width:0.8;"/>
   </g>
   <g id="patch_13">
    <path d="M 92.88 37.8 
L 92.88 5.184 
" style="fill:none;stroke:#000000;stroke-linecap:square;stroke-linejoin:miter;stroke-width:0.8;"/>
   </g>
   <g id="patch_14">
    <path d="M 64.98 37.8 
L 92.88 37.8 
" style="fill:none;stroke:#000000;stroke-linecap:square;stroke-linejoin:miter;stroke-width:0.8;"/>
   </g>
   <g id="patch_15">
    <path d="M 64.98 5.184 
L 92.88 5.184 
" style="fill:none;stroke:#000000;stroke-linecap:square;stroke-linejoin:miter;stroke-width:0.8;"/>
   </g>
   <g id="text_9">
    <!-- 3 -->
    <g transform="translate(76.385 -9.77425)scale(0.08 -0.08)">
     <use xlink:href="#DejaVuSans-33"/>
    </g>
    <!-- 210 -->
    <g transform="translate(71.295 -0.816)scale(0.08 -0.08)">
     <use xlink:href="#DejaVuSans-32"/>
     <use x="63.623047" xlink:href="#DejaVuSans-31"/>
     <use x="127.246094" xlink:href="#DejaVuSans-30"/>
    </g>
   </g>
  </g>
  <g id="axes_3">
   <g id="patch_16">
    <path d="M 98.46 37.8 
L 126.36 37.8 
L 126.36 5.184 
L 98.46 5.184 
z
" style="fill:#ffffff;"/>
   </g>
   <g id="matplotlib.axis_5">
    <g id="xtick_5">
     <g id="line2d_7">
      <g>
       <use style="stroke:#000000;stroke-width:0.8;" x="102.472168" xlink:href="#m83d1fd7c88" y="37.8"/>
      </g>
     </g>
     <g id="text_10">
      <!-- 150 -->
      <g transform="translate(94.837168 50.87875)scale(0.08 -0.08)">
       <use xlink:href="#DejaVuSans-31"/>
       <use x="63.623047" xlink:href="#DejaVuSans-35"/>
       <use x="127.246094" xlink:href="#DejaVuSans-30"/>
      </g>
     </g>
    </g>
    <g id="xtick_6">
     <g id="line2d_8">
      <g>
       <use style="stroke:#000000;stroke-width:0.8;" x="117.903584" xlink:href="#m83d1fd7c88" y="37.8"/>
      </g>
     </g>
     <g id="text_11">
      <!-- 400 -->
      <g transform="translate(110.268584 50.87875)scale(0.08 -0.08)">
       <use xlink:href="#DejaVuSans-34"/>
       <use x="63.623047" xlink:href="#DejaVuSans-30"/>
       <use x="127.246094" xlink:href="#DejaVuSans-30"/>
      </g>
     </g>
    </g>
   </g>
   <g id="matplotlib.axis_6"/>
   <g id="patch_17">
    <path clip-path="url(#p22775418ce)" d="M 98.46 37.8 
L 98.46 37.8 
L 101.25 37.8 
L 101.25 36.886387 
L 104.04 36.886387 
L 104.04 25.31395 
L 106.83 25.31395 
L 106.83 8.868908 
L 109.62 8.868908 
L 109.62 27.750252 
L 112.41 27.750252 
L 112.41 33.536471 
L 115.2 33.536471 
L 115.2 36.581849 
L 117.99 36.581849 
L 117.99 36.277311 
L 120.78 36.277311 
L 120.78 37.495462 
L 123.57 37.495462 
L 123.57 37.8 
L 126.36 37.8 
L 126.36 37.8 
" style="fill:none;stroke:#000000;stroke-linejoin:miter;stroke-width:0.5;"/>
   </g>
   <g id="patch_18">
    <path clip-path="url(#p22775418ce)" d="M 98.46 37.8 
L 98.46 37.8 
L 99.855 37.8 
L 99.855 37.8 
L 101.25 37.8 
L 101.25 37.8 
L 102.645 37.8 
L 102.645 37.190924 
L 104.04 37.190924 
L 104.04 28.663866 
L 105.435 28.663866 
L 105.435 21.964034 
L 106.83 21.964034 
L 106.83 6.737143 
L 108.225 6.737143 
L 108.225 12.827899 
L 109.62 12.827899 
L 109.62 22.573109 
L 111.015 22.573109 
L 111.015 26.836639 
L 112.41 26.836639 
L 112.41 32.318319 
L 113.805 32.318319 
L 113.805 35.972773 
L 115.2 35.972773 
L 115.2 35.972773 
L 116.595 35.972773 
L 116.595 36.581849 
L 117.99 36.581849 
L 117.99 37.190924 
L 119.385 37.190924 
L 119.385 37.8 
L 120.78 37.8 
L 120.78 37.190924 
L 122.175 37.190924 
L 122.175 37.8 
L 123.57 37.8 
L 123.57 37.8 
L 124.965 37.8 
L 124.965 37.8 
L 126.36 37.8 
L 126.36 37.8 
" style="fill:none;stroke:#1f77b4;stroke-linejoin:miter;stroke-width:0.5;"/>
   </g>
   <g id="patch_19">
    <path d="M 98.46 37.8 
L 98.46 5.184 
" style="fill:none;stroke:#000000;stroke-linecap:square;stroke-linejoin:miter;stroke-width:0.8;"/>
   </g>
   <g id="patch_20">
    <path d="M 126.36 37.8 
L 126.36 5.184 
" style="fill:none;stroke:#000000;stroke-linecap:square;stroke-linejoin:miter;stroke-width:0.8;"/>
   </g>
   <g id="patch_21">
    <path d="M 98.46 37.8 
L 126.36 37.8 
" style="fill:none;stroke:#000000;stroke-linecap:square;stroke-linejoin:miter;stroke-width:0.8;"/>
   </g>
   <g id="patch_22">
    <path d="M 98.46 5.184 
L 126.36 5.184 
" style="fill:none;stroke:#000000;stroke-linecap:square;stroke-linejoin:miter;stroke-width:0.8;"/>
   </g>
   <g id="text_12">
    <!-- 3 -->
    <g transform="translate(109.865 -9.77425)scale(0.08 -0.08)">
     <use xlink:href="#DejaVuSans-33"/>
    </g>
    <!-- 219 -->
    <g transform="translate(104.775 -0.816)scale(0.08 -0.08)">
     <defs>
      <path d="M 703 97 
L 703 672 
Q 941 559 1184 500 
Q 1428 441 1663 441 
Q 2288 441 2617 861 
Q 2947 1281 2994 2138 
Q 2813 1869 2534 1725 
Q 2256 1581 1919 1581 
Q 1219 1581 811 2004 
Q 403 2428 403 3163 
Q 403 3881 828 4315 
Q 1253 4750 1959 4750 
Q 2769 4750 3195 4129 
Q 3622 3509 3622 2328 
Q 3622 1225 3098 567 
Q 2575 -91 1691 -91 
Q 1453 -91 1209 -44 
Q 966 3 703 97 
z
M 1959 2075 
Q 2384 2075 2632 2365 
Q 2881 2656 2881 3163 
Q 2881 3666 2632 3958 
Q 2384 4250 1959 4250 
Q 1534 4250 1286 3958 
Q 1038 3666 1038 3163 
Q 1038 2656 1286 2365 
Q 1534 2075 1959 2075 
z
" id="DejaVuSans-39" transform="scale(0.015625)"/>
     </defs>
     <use xlink:href="#DejaVuSans-32"/>
     <use x="63.623047" xlink:href="#DejaVuSans-31"/>
     <use x="127.246094" xlink:href="#DejaVuSans-39"/>
    </g>
   </g>
  </g>
  <g id="axes_4">
   <g id="patch_23">
    <path d="M 131.94 37.8 
L 159.84 37.8 
L 159.84 5.184 
L 131.94 5.184 
z
" style="fill:#ffffff;"/>
   </g>
   <g id="matplotlib.axis_7">
    <g id="xtick_7">
     <g id="line2d_9">
      <g>
       <use style="stroke:#000000;stroke-width:0.8;" x="135.952168" xlink:href="#m83d1fd7c88" y="37.8"/>
      </g>
     </g>
     <g id="text_13">
      <!-- 150 -->
      <g transform="translate(128.317168 50.87875)scale(0.08 -0.08)">
       <use xlink:href="#DejaVuSans-31"/>
       <use x="63.623047" xlink:href="#DejaVuSans-35"/>
       <use x="127.246094" xlink:href="#DejaVuSans-30"/>
      </g>
     </g>
    </g>
    <g id="xtick_8">
     <g id="line2d_10">
      <g>
       <use style="stroke:#000000;stroke-width:0.8;" x="151.383584" xlink:href="#m83d1fd7c88" y="37.8"/>
      </g>
     </g>
     <g id="text_14">
      <!-- 400 -->
      <g transform="translate(143.748584 50.87875)scale(0.08 -0.08)">
       <use xlink:href="#DejaVuSans-34"/>
       <use x="63.623047" xlink:href="#DejaVuSans-30"/>
       <use x="127.246094" xlink:href="#DejaVuSans-30"/>
      </g>
     </g>
    </g>
   </g>
   <g id="matplotlib.axis_8"/>
   <g id="patch_24">
    <path clip-path="url(#p2bef9d0b89)" d="M 131.94 37.8 
L 131.94 37.8 
L 134.73 37.8 
L 134.73 37.152857 
L 137.52 37.152857 
L 137.52 19.68 
L 140.31 19.68 
L 140.31 11.914286 
L 143.1 11.914286 
L 143.1 24.857143 
L 145.89 24.857143 
L 145.89 35.535 
L 148.68 35.535 
L 148.68 35.858571 
L 151.47 35.858571 
L 151.47 37.152857 
L 154.26 37.152857 
L 154.26 37.152857 
L 157.05 37.152857 
L 157.05 37.476429 
L 159.84 37.476429 
L 159.84 37.8 
" style="fill:none;stroke:#000000;stroke-linejoin:miter;stroke-width:0.5;"/>
   </g>
   <g id="patch_25">
    <path clip-path="url(#p2bef9d0b89)" d="M 131.94 37.8 
L 131.94 37.8 
L 133.335 37.8 
L 133.335 37.8 
L 134.73 37.8 
L 134.73 37.152857 
L 136.125 37.152857 
L 136.125 36.505714 
L 137.52 36.505714 
L 137.52 31.328571 
L 138.915 31.328571 
L 138.915 17.738571 
L 140.31 17.738571 
L 140.31 6.737143 
L 141.705 6.737143 
L 141.705 9.972857 
L 143.1 9.972857 
L 143.1 16.444286 
L 144.495 16.444286 
L 144.495 33.917143 
L 145.89 33.917143 
L 145.89 33.27 
L 147.285 33.27 
L 147.285 34.564286 
L 148.68 34.564286 
L 148.68 37.152857 
L 150.075 37.152857 
L 150.075 36.505714 
L 151.47 36.505714 
L 151.47 37.8 
L 152.865 37.8 
L 152.865 36.505714 
L 154.26 36.505714 
L 154.26 36.505714 
L 155.655 36.505714 
L 155.655 36.505714 
L 157.05 36.505714 
L 157.05 37.8 
L 158.445 37.8 
L 158.445 37.152857 
L 159.84 37.152857 
L 159.84 37.8 
" style="fill:none;stroke:#1f77b4;stroke-linejoin:miter;stroke-width:0.5;"/>
   </g>
   <g id="patch_26">
    <path d="M 131.94 37.8 
L 131.94 5.184 
" style="fill:none;stroke:#000000;stroke-linecap:square;stroke-linejoin:miter;stroke-width:0.8;"/>
   </g>
   <g id="patch_27">
    <path d="M 159.84 37.8 
L 159.84 5.184 
" style="fill:none;stroke:#000000;stroke-linecap:square;stroke-linejoin:miter;stroke-width:0.8;"/>
   </g>
   <g id="patch_28">
    <path d="M 131.94 37.8 
L 159.84 37.8 
" style="fill:none;stroke:#000000;stroke-linecap:square;stroke-linejoin:miter;stroke-width:0.8;"/>
   </g>
   <g id="patch_29">
    <path d="M 131.94 5.184 
L 159.84 5.184 
" style="fill:none;stroke:#000000;stroke-linecap:square;stroke-linejoin:miter;stroke-width:0.8;"/>
   </g>
   <g id="text_15">
    <!-- 3 -->
    <g transform="translate(143.345 -9.77425)scale(0.08 -0.08)">
     <use xlink:href="#DejaVuSans-33"/>
    </g>
    <!-- 222 -->
    <g transform="translate(138.255 -0.816)scale(0.08 -0.08)">
     <use xlink:href="#DejaVuSans-32"/>
     <use x="63.623047" xlink:href="#DejaVuSans-32"/>
     <use x="127.246094" xlink:href="#DejaVuSans-32"/>
    </g>
   </g>
  </g>
  <g id="axes_5">
   <g id="patch_30">
    <path d="M 165.42 37.8 
L 193.32 37.8 
L 193.32 5.184 
L 165.42 5.184 
z
" style="fill:#ffffff;"/>
   </g>
   <g id="matplotlib.axis_9">
    <g id="xtick_9">
     <g id="line2d_11">
      <g>
       <use style="stroke:#000000;stroke-width:0.8;" x="169.432168" xlink:href="#m83d1fd7c88" y="37.8"/>
      </g>
     </g>
     <g id="text_16">
      <!-- 150 -->
      <g transform="translate(161.797168 50.87875)scale(0.08 -0.08)">
       <use xlink:href="#DejaVuSans-31"/>
       <use x="63.623047" xlink:href="#DejaVuSans-35"/>
       <use x="127.246094" xlink:href="#DejaVuSans-30"/>
      </g>
     </g>
    </g>
    <g id="xtick_10">
     <g id="line2d_12">
      <g>
       <use style="stroke:#000000;stroke-width:0.8;" x="184.863584" xlink:href="#m83d1fd7c88" y="37.8"/>
      </g>
     </g>
     <g id="text_17">
      <!-- 400 -->
      <g transform="translate(177.228584 50.87875)scale(0.08 -0.08)">
       <use xlink:href="#DejaVuSans-34"/>
       <use x="63.623047" xlink:href="#DejaVuSans-30"/>
       <use x="127.246094" xlink:href="#DejaVuSans-30"/>
      </g>
     </g>
    </g>
   </g>
   <g id="matplotlib.axis_10"/>
   <g id="patch_31">
    <path clip-path="url(#pa2c63f0d5c)" d="M 165.42 37.8 
L 165.42 37.8 
L 168.21 37.8 
L 168.21 36.284739 
L 171 36.284739 
L 171 23.783833 
L 173.79 23.783833 
L 173.79 9.010035 
L 176.58 9.010035 
L 176.58 19.238049 
L 179.37 19.238049 
L 179.37 32.875401 
L 182.16 32.875401 
L 182.16 34.769477 
L 184.95 34.769477 
L 184.95 35.905923 
L 187.74 35.905923 
L 187.74 36.663554 
L 190.53 36.663554 
L 190.53 37.421185 
L 193.32 37.421185 
L 193.32 37.8 
" style="fill:none;stroke:#000000;stroke-linejoin:miter;stroke-width:0.5;"/>
   </g>
   <g id="patch_32">
    <path clip-path="url(#pa2c63f0d5c)" d="M 165.42 37.8 
L 165.42 37.8 
L 166.815 37.8 
L 166.815 37.8 
L 168.21 37.8 
L 168.21 37.8 
L 169.605 37.8 
L 169.605 35.527108 
L 171 35.527108 
L 171 29.466063 
L 172.395 29.466063 
L 172.395 18.101603 
L 173.79 18.101603 
L 173.79 6.737143 
L 175.185 6.737143 
L 175.185 9.010035 
L 176.58 9.010035 
L 176.58 18.101603 
L 177.975 18.101603 
L 177.975 23.405017 
L 179.37 23.405017 
L 179.37 28.708432 
L 180.765 28.708432 
L 180.765 31.738955 
L 182.16 31.738955 
L 182.16 36.284739 
L 183.555 36.284739 
L 183.555 35.527108 
L 184.95 35.527108 
L 184.95 36.284739 
L 186.345 36.284739 
L 186.345 34.769477 
L 187.74 34.769477 
L 187.74 37.8 
L 189.135 37.8 
L 189.135 37.042369 
L 190.53 37.042369 
L 190.53 37.8 
L 191.925 37.8 
L 191.925 37.8 
L 193.32 37.8 
L 193.32 37.8 
" style="fill:none;stroke:#1f77b4;stroke-linejoin:miter;stroke-width:0.5;"/>
   </g>
   <g id="patch_33">
    <path d="M 165.42 37.8 
L 165.42 5.184 
" style="fill:none;stroke:#000000;stroke-linecap:square;stroke-linejoin:miter;stroke-width:0.8;"/>
   </g>
   <g id="patch_34">
    <path d="M 193.32 37.8 
L 193.32 5.184 
" style="fill:none;stroke:#000000;stroke-linecap:square;stroke-linejoin:miter;stroke-width:0.8;"/>
   </g>
   <g id="patch_35">
    <path d="M 165.42 37.8 
L 193.32 37.8 
" style="fill:none;stroke:#000000;stroke-linecap:square;stroke-linejoin:miter;stroke-width:0.8;"/>
   </g>
   <g id="patch_36">
    <path d="M 165.42 5.184 
L 193.32 5.184 
" style="fill:none;stroke:#000000;stroke-linecap:square;stroke-linejoin:miter;stroke-width:0.8;"/>
   </g>
   <g id="text_18">
    <!-- 3 -->
    <g transform="translate(176.825 -9.77425)scale(0.08 -0.08)">
     <use xlink:href="#DejaVuSans-33"/>
    </g>
    <!-- 209 -->
    <g transform="translate(171.735 -0.816)scale(0.08 -0.08)">
     <use xlink:href="#DejaVuSans-32"/>
     <use x="63.623047" xlink:href="#DejaVuSans-30"/>
     <use x="127.246094" xlink:href="#DejaVuSans-39"/>
    </g>
   </g>
  </g>
  <g id="axes_6">
   <g id="patch_37">
    <path d="M 198.9 37.8 
L 226.8 37.8 
L 226.8 5.184 
L 198.9 5.184 
z
" style="fill:#ffffff;"/>
   </g>
   <g id="matplotlib.axis_11">
    <g id="xtick_11">
     <g id="line2d_13">
      <g>
       <use style="stroke:#000000;stroke-width:0.8;" x="202.912168" xlink:href="#m83d1fd7c88" y="37.8"/>
      </g>
     </g>
     <g id="text_19">
      <!-- 150 -->
      <g transform="translate(195.277168 50.87875)scale(0.08 -0.08)">
       <use xlink:href="#DejaVuSans-31"/>
       <use x="63.623047" xlink:href="#DejaVuSans-35"/>
       <use x="127.246094" xlink:href="#DejaVuSans-30"/>
      </g>
     </g>
    </g>
    <g id="xtick_12">
     <g id="line2d_14">
      <g>
       <use style="stroke:#000000;stroke-width:0.8;" x="218.343584" xlink:href="#m83d1fd7c88" y="37.8"/>
      </g>
     </g>
     <g id="text_20">
      <!-- 400 -->
      <g transform="translate(210.708584 50.87875)scale(0.08 -0.08)">
       <use xlink:href="#DejaVuSans-34"/>
       <use x="63.623047" xlink:href="#DejaVuSans-30"/>
       <use x="127.246094" xlink:href="#DejaVuSans-30"/>
      </g>
     </g>
    </g>
   </g>
   <g id="matplotlib.axis_12"/>
   <g id="patch_38">
    <path clip-path="url(#p12ce27d635)" d="M 198.9 37.8 
L 198.9 37.8 
L 201.69 37.8 
L 201.69 37.8 
L 204.48 37.8 
L 204.48 23.815077 
L 207.27 23.815077 
L 207.27 14.383385 
L 210.06 14.383385 
L 210.06 24.790769 
L 212.85 24.790769 
L 212.85 30.319692 
L 215.64 30.319692 
L 215.64 36.173846 
L 218.43 36.173846 
L 218.43 36.173846 
L 221.22 36.173846 
L 221.22 35.848615 
L 224.01 35.848615 
L 224.01 37.474769 
L 226.8 37.474769 
L 226.8 37.8 
" style="fill:none;stroke:#000000;stroke-linejoin:miter;stroke-width:0.5;"/>
   </g>
   <g id="patch_39">
    <path clip-path="url(#p12ce27d635)" d="M 198.9 37.8 
L 198.9 37.8 
L 200.295 37.8 
L 200.295 37.8 
L 201.69 37.8 
L 201.69 37.8 
L 203.085 37.8 
L 203.085 36.505714 
L 204.48 36.505714 
L 204.48 34.564286 
L 205.875 34.564286 
L 205.875 23.562857 
L 207.27 23.562857 
L 207.27 6.737143 
L 208.665 6.737143 
L 208.665 13.855714 
L 210.06 13.855714 
L 210.06 19.032857 
L 211.455 19.032857 
L 211.455 28.74 
L 212.85 28.74 
L 212.85 31.975714 
L 214.245 31.975714 
L 214.245 33.27 
L 215.64 33.27 
L 215.64 33.27 
L 217.035 33.27 
L 217.035 34.564286 
L 218.43 34.564286 
L 218.43 35.211429 
L 219.825 35.211429 
L 219.825 36.505714 
L 221.22 36.505714 
L 221.22 35.211429 
L 222.615 35.211429 
L 222.615 37.8 
L 224.01 37.8 
L 224.01 37.152857 
L 225.405 37.152857 
L 225.405 37.8 
L 226.8 37.8 
L 226.8 37.8 
" style="fill:none;stroke:#1f77b4;stroke-linejoin:miter;stroke-width:0.5;"/>
   </g>
   <g id="patch_40">
    <path d="M 198.9 37.8 
L 198.9 5.184 
" style="fill:none;stroke:#000000;stroke-linecap:square;stroke-linejoin:miter;stroke-width:0.8;"/>
   </g>
   <g id="patch_41">
    <path d="M 226.8 37.8 
L 226.8 5.184 
" style="fill:none;stroke:#000000;stroke-linecap:square;stroke-linejoin:miter;stroke-width:0.8;"/>
   </g>
   <g id="patch_42">
    <path d="M 198.9 37.8 
L 226.8 37.8 
" style="fill:none;stroke:#000000;stroke-linecap:square;stroke-linejoin:miter;stroke-width:0.8;"/>
   </g>
   <g id="patch_43">
    <path d="M 198.9 5.184 
L 226.8 5.184 
" style="fill:none;stroke:#000000;stroke-linecap:square;stroke-linejoin:miter;stroke-width:0.8;"/>
   </g>
   <g id="text_21">
    <!-- 3 -->
    <g transform="translate(210.305 -9.77425)scale(0.08 -0.08)">
     <use xlink:href="#DejaVuSans-33"/>
    </g>
    <!-- 225 -->
    <g transform="translate(205.215 -0.816)scale(0.08 -0.08)">
     <use xlink:href="#DejaVuSans-32"/>
     <use x="63.623047" xlink:href="#DejaVuSans-32"/>
     <use x="127.246094" xlink:href="#DejaVuSans-35"/>
    </g>
   </g>
  </g>
 </g>
 <defs>
  <clipPath id="pe15aa7cb62">
   <rect height="32.616" width="27.9" x="31.5" y="5.184"/>
  </clipPath>
  <clipPath id="p3f8c4a58d2">
   <rect height="32.616" width="27.9" x="64.98" y="5.184"/>
  </clipPath>
  <clipPath id="p22775418ce">
   <rect height="32.616" width="27.9" x="98.46" y="5.184"/>
  </clipPath>
  <clipPath id="p2bef9d0b89">
   <rect height="32.616" width="27.9" x="131.94" y="5.184"/>
  </clipPath>
  <clipPath id="pa2c63f0d5c">
   <rect height="32.616" width="27.9" x="165.42" y="5.184"/>
  </clipPath>
  <clipPath id="p12ce27d635">
   <rect height="32.616" width="27.9" x="198.9" y="5.184"/>
  </clipPath>
 </defs>
</svg>
