<?xml version="1.0" encoding="utf-8" standalone="no"?>
<!DOCTYPE svg PUBLIC "-//W3C//DTD SVG 1.1//EN"
  "http://www.w3.org/Graphics/SVG/1.1/DTD/svg11.dtd">
<svg height="108pt" version="1.1" viewBox="0 0 108 108" width="108pt" xmlns="http://www.w3.org/2000/svg" xmlns:xlink="http://www.w3.org/1999/xlink">
 <metadata>
  <rdf:RDF xmlns:cc="http://creativecommons.org/ns#" xmlns:dc="http://purl.org/dc/elements/1.1/" xmlns:rdf="http://www.w3.org/1999/02/22-rdf-syntax-ns#">
   <cc:Work>
    <dc:type rdf:resource="http://purl.org/dc/dcmitype/StillImage"/>
    <dc:date>2021-07-21T21:40:21.459041</dc:date>
    <dc:format>image/svg+xml</dc:format>
    <dc:creator>
     <cc:Agent>
      <dc:title>Matplotlib v3.4.2, https://matplotlib.org/</dc:title>
     </cc:Agent>
    </dc:creator>
   </cc:Work>
  </rdf:RDF>
 </metadata>
 <defs>
  <style type="text/css">*{stroke-linecap:butt;stroke-linejoin:round;}</style>
 </defs>
 <g id="figure_1">
  <g id="patch_1">
   <path d="M 0 108 
L 108 108 
L 108 0 
L 0 0 
z
" style="fill:none;"/>
  </g>
  <g id="axes_1">
   <g id="patch_2">
    <path d="M 13.5 94.5 
L 97.2 94.5 
L 97.2 12.96 
L 13.5 12.96 
z
" style="fill:#ffffff;"/>
   </g>
   <g id="PolyCollection_1">
    <defs>
     <path d="M 17.304545 -13.5 
L 17.304545 -13.5 
L 17.400985 -14.978066 
L 17.497425 -16.209789 
L 17.593864 -17.687855 
L 17.690304 -19.165921 
L 17.786744 -19.904955 
L 17.883184 -20.397644 
L 17.979623 -20.890332 
L 18.076063 -21.383021 
L 18.172503 -22.614743 
L 18.268942 -23.353776 
L 18.365382 -24.09281 
L 18.461822 -24.831842 
L 18.558261 -25.570876 
L 18.654701 -25.570876 
L 18.751141 -27.048943 
L 18.84758 -27.787976 
L 18.94402 -28.03432 
L 19.04046 -28.527011 
L 19.136899 -29.019698 
L 19.233339 -29.758732 
L 19.329779 -31.483142 
L 19.426218 -32.222176 
L 19.522658 -32.714862 
L 19.619098 -33.207553 
L 19.715538 -33.453897 
L 19.811977 -34.19293 
L 19.908417 -34.439275 
L 20.004856 -34.931964 
L 20.101296 -34.931964 
L 20.197736 -35.424653 
L 20.294175 -36.163685 
L 20.390615 -36.41003 
L 20.487055 -37.395408 
L 20.583495 -37.888097 
L 20.679934 -38.380787 
L 20.776374 -38.873473 
L 20.872814 -39.612507 
L 20.969253 -40.351541 
L 21.065693 -41.090575 
L 21.162133 -41.336917 
L 21.258572 -42.322296 
L 21.355012 -42.814985 
L 21.451452 -43.307675 
L 21.547891 -43.800361 
L 21.644331 -44.293053 
L 21.740771 -45.239013 
L 21.83721 -45.771118 
L 21.93365 -46.263808 
L 22.03009 -46.51015 
L 22.12653 -47.002839 
L 22.222969 -47.495529 
L 22.319409 -47.741873 
L 22.415849 -48.234562 
L 22.512288 -48.480907 
L 22.608728 -48.973596 
L 22.705168 -49.466283 
L 22.801607 -50.698009 
L 22.898047 -51.43704 
L 22.994486 -52.176072 
L 23.090926 -52.915106 
L 23.187366 -53.407795 
L 23.283805 -53.65414 
L 23.380245 -53.900484 
L 23.476685 -54.393171 
L 23.573124 -54.639518 
L 23.669564 -55.37855 
L 23.766004 -55.871239 
L 23.862444 -56.117581 
L 23.958883 -56.117581 
L 24.055323 -56.363928 
L 24.151763 -56.856617 
L 24.248202 -56.856617 
L 24.344642 -57.10296 
L 24.441082 -57.349307 
L 24.537521 -57.349307 
L 24.633961 -57.841996 
L 24.730401 -58.088338 
L 24.82684 -58.33468 
L 24.92328 -58.82737 
L 25.01972 -59.073717 
L 25.11616 -59.566406 
L 25.212599 -59.812748 
L 25.309039 -60.059095 
L 25.405479 -60.059095 
L 25.501918 -60.305438 
L 25.598358 -60.551785 
L 25.694797 -61.044469 
L 25.791237 -61.290816 
L 25.887677 -61.783505 
L 25.984117 -61.783505 
L 26.080556 -62.029848 
L 26.176996 -62.276195 
L 26.273436 -62.522537 
L 26.369875 -63.015226 
L 26.466315 -64.000605 
L 26.562755 -64.246947 
L 26.659194 -64.246947 
L 26.755634 -64.493294 
L 26.852074 -64.739636 
L 26.948514 -64.985983 
L 27.044953 -65.232325 
L 27.141393 -65.478673 
L 27.237833 -65.478673 
L 27.334272 -65.725015 
L 27.430712 -66.217704 
L 27.527152 -66.217704 
L 27.623591 -66.217704 
L 27.720031 -66.710393 
L 27.816471 -66.710393 
L 27.91291 -67.203083 
L 28.00935 -67.449425 
L 28.10579 -67.695772 
L 28.20223 -67.942114 
L 28.298669 -68.188461 
L 28.395109 -68.434803 
L 28.491549 -68.68115 
L 28.587988 -68.927493 
L 28.684428 -69.173835 
L 28.780868 -69.912871 
L 28.877307 -69.912871 
L 28.973746 -70.119797 
L 29.070186 -70.159213 
L 29.166626 -70.40556 
L 29.263065 -70.651903 
L 29.359505 -70.651903 
L 29.455945 -70.89825 
L 29.552384 -71.390934 
L 29.648824 -71.390934 
L 29.745264 -71.390934 
L 29.841703 -71.637281 
L 29.938143 -71.883623 
L 30.034583 -71.883623 
L 30.131022 -71.883623 
L 30.227462 -71.883623 
L 30.323902 -72.376313 
L 30.420342 -72.376313 
L 30.516781 -72.376313 
L 30.613221 -72.376313 
L 30.709661 -72.869002 
L 30.8061 -73.115349 
L 30.90254 -73.361691 
L 30.99898 -73.608043 
L 31.095419 -73.854381 
L 31.191859 -74.100723 
L 31.288299 -74.100723 
L 31.384739 -74.100723 
L 31.481178 -74.34707 
L 31.577618 -74.593412 
L 31.674058 -74.839754 
L 31.770497 -74.839754 
L 31.866937 -74.839754 
L 31.963377 -75.086106 
L 32.059816 -75.086106 
L 32.156256 -75.578791 
L 32.252696 -75.578791 
L 32.349135 -75.825138 
L 32.445575 -76.317827 
L 32.542015 -76.317827 
L 32.638455 -76.564169 
L 32.734894 -76.564169 
L 32.831334 -76.564169 
L 32.927774 -76.564169 
L 33.024213 -76.564169 
L 33.120653 -76.810511 
L 33.217093 -77.056858 
L 33.313532 -77.056858 
L 33.409972 -77.056858 
L 33.506412 -77.056858 
L 33.602852 -77.303201 
L 33.699291 -77.303201 
L 33.795731 -77.549548 
L 33.892171 -77.79589 
L 33.988611 -78.042237 
L 34.085049 -78.042237 
L 34.181489 -78.042237 
L 34.277929 -78.042237 
L 34.374369 -78.288579 
L 34.470809 -78.534926 
L 34.567249 -78.534926 
L 34.663689 -78.781268 
L 34.760127 -78.781268 
L 34.856566 -78.781268 
L 34.953006 -78.781268 
L 35.049446 -78.781268 
L 35.145886 -79.027616 
L 35.242326 -79.027616 
L 35.338766 -79.273958 
L 35.435204 -79.5203 
L 35.531644 -79.5203 
L 35.628084 -79.5203 
L 35.724524 -79.766647 
L 35.820964 -79.766647 
L 35.917404 -80.012989 
L 36.013842 -80.012989 
L 36.110282 -80.259336 
L 36.206722 -80.259336 
L 36.303162 -80.259336 
L 36.399602 -80.259336 
L 36.496042 -80.505678 
L 36.592482 -80.505678 
L 36.68892 -80.505678 
L 36.78536 -80.505678 
L 36.8818 -80.505678 
L 36.97824 -80.752026 
L 37.07468 -80.752026 
L 37.17112 -80.958952 
L 37.267558 -80.998368 
L 37.363998 -81.244715 
L 37.460438 -81.244715 
L 37.556878 -81.491057 
L 37.653318 -81.491057 
L 37.749758 -81.491057 
L 37.846198 -81.737404 
L 37.942636 -81.737404 
L 38.039076 -81.983746 
L 38.135516 -81.983746 
L 38.231956 -81.983746 
L 38.328396 -82.230089 
L 38.424836 -82.230089 
L 38.521274 -82.230089 
L 38.617714 -82.230089 
L 38.714154 -82.476436 
L 38.810594 -82.476436 
L 38.907034 -82.476436 
L 39.003474 -82.476436 
L 39.099914 -82.476436 
L 39.196352 -82.722778 
L 39.292792 -82.722778 
L 39.389232 -82.722778 
L 39.485672 -82.969125 
L 39.582112 -82.969125 
L 39.678552 -82.969125 
L 39.774992 -82.969125 
L 39.87143 -83.215467 
L 39.96787 -83.215467 
L 40.06431 -83.461814 
L 40.16075 -83.461814 
L 40.25719 -83.708156 
L 40.35363 -83.708156 
L 40.450068 -83.708156 
L 40.546508 -83.708156 
L 40.642948 -83.708156 
L 40.739387 -83.954503 
L 40.835827 -83.954503 
L 40.932267 -83.954503 
L 41.028707 -84.200846 
L 41.125145 -84.200846 
L 41.221585 -84.200846 
L 41.318025 -84.447193 
L 41.414465 -84.447193 
L 41.510905 -84.693535 
L 41.607345 -84.693535 
L 41.703783 -84.693535 
L 41.800223 -84.693535 
L 41.896663 -84.693535 
L 41.993103 -84.939877 
L 42.089543 -85.186224 
L 42.185983 -85.186224 
L 42.282423 -85.186224 
L 42.378861 -85.432566 
L 42.475301 -85.432566 
L 42.571741 -85.678913 
L 42.668181 -85.678913 
L 42.764621 -85.678913 
L 42.861061 -85.925256 
L 42.957499 -85.925256 
L 43.053939 -85.925256 
L 43.150379 -85.925256 
L 43.246819 -85.925256 
L 43.343259 -85.925256 
L 43.439699 -85.925256 
L 43.536139 -85.925256 
L 43.632577 -85.925256 
L 43.729017 -85.925256 
L 43.825457 -85.925256 
L 43.921897 -86.132187 
L 44.018337 -86.171603 
L 44.114777 -86.171603 
L 44.211215 -86.171603 
L 44.307655 -86.171603 
L 44.404095 -86.171603 
L 44.500535 -86.171603 
L 44.596975 -86.171603 
L 44.693415 -86.171603 
L 44.789855 -86.417945 
L 44.886293 -86.417945 
L 44.982733 -86.417945 
L 45.079173 -86.417945 
L 45.175613 -86.664297 
L 45.272053 -86.664297 
L 45.368493 -86.664297 
L 45.464933 -86.664297 
L 45.561371 -86.664297 
L 45.657811 -86.910639 
L 45.754251 -86.910639 
L 45.850691 -86.910639 
L 45.947131 -86.910639 
L 46.043571 -87.156976 
L 46.140009 -87.156976 
L 46.236449 -87.156976 
L 46.332889 -87.156976 
L 46.429329 -87.156976 
L 46.525769 -87.403323 
L 46.622208 -87.403323 
L 46.718648 -87.403323 
L 46.815086 -87.403323 
L 46.911526 -87.403323 
L 47.007966 -87.61025 
L 47.104406 -87.649666 
L 47.200846 -87.649666 
L 47.297286 -87.896018 
L 47.393724 -87.896018 
L 47.490164 -87.896018 
L 47.586604 -87.896018 
L 47.683044 -87.896018 
L 47.779484 -87.896018 
L 47.875924 -87.896018 
L 47.972364 -88.14236 
L 48.068802 -88.14236 
L 48.165242 -88.14236 
L 48.261682 -88.14236 
L 48.358122 -88.14236 
L 48.454562 -88.14236 
L 48.551002 -88.14236 
L 48.64744 -88.14236 
L 48.74388 -88.14236 
L 48.84032 -88.14236 
L 48.93676 -88.14236 
L 49.0332 -88.14236 
L 49.12964 -88.14236 
L 49.22608 -88.14236 
L 49.322518 -88.14236 
L 49.418958 -88.388702 
L 49.515398 -88.388702 
L 49.611838 -88.388702 
L 49.708278 -88.388702 
L 49.804718 -88.388702 
L 49.901158 -88.635044 
L 49.997596 -88.635044 
L 50.094036 -88.635044 
L 50.190476 -88.635044 
L 50.286916 -88.635044 
L 50.383354 -88.635044 
L 50.479796 -88.635044 
L 50.576234 -88.635044 
L 50.672676 -88.635044 
L 50.769114 -88.635044 
L 50.865552 -88.635044 
L 50.961994 -88.635044 
L 51.058432 -88.635044 
L 51.154874 -88.635044 
L 51.251312 -88.881386 
L 51.347754 -88.881386 
L 51.444192 -88.881386 
L 51.54063 -88.881386 
L 51.637072 -88.881386 
L 51.73351 -88.881386 
L 51.829952 -88.881386 
L 51.92639 -88.881386 
L 52.022832 -89.127729 
L 52.11927 -89.127729 
L 52.215708 -89.127729 
L 52.31215 -89.127729 
L 52.408588 -89.127729 
L 52.505029 -89.127729 
L 52.601467 -89.127729 
L 52.697909 -89.127729 
L 52.794347 -89.127729 
L 52.890785 -89.374081 
L 52.987227 -89.374081 
L 53.083665 -89.374081 
L 53.180107 -89.374081 
L 53.276545 -89.374081 
L 53.372987 -89.374081 
L 53.469425 -89.374081 
L 53.565863 -89.374081 
L 53.662305 -89.374081 
L 53.758743 -89.620423 
L 53.855185 -89.620423 
L 53.951623 -89.620423 
L 54.048061 -89.620423 
L 54.144503 -89.620423 
L 54.240941 -89.620423 
L 54.337383 -89.620423 
L 54.433821 -89.620423 
L 54.530263 -89.620423 
L 54.626701 -89.620423 
L 54.723139 -89.866765 
L 54.819581 -89.866765 
L 54.916019 -89.866765 
L 55.012461 -89.866765 
L 55.108899 -89.866765 
L 55.205341 -89.866765 
L 55.301779 -89.866765 
L 55.398217 -89.866765 
L 55.494659 -89.866765 
L 55.591097 -89.866765 
L 55.687539 -89.866765 
L 55.783977 -89.866765 
L 55.880419 -90.113112 
L 55.976857 -90.113112 
L 56.073295 -90.113112 
L 56.169737 -90.113112 
L 56.266175 -90.113112 
L 56.362617 -90.113112 
L 56.459055 -90.359449 
L 56.555493 -90.359449 
L 56.651935 -90.359449 
L 56.748373 -90.359449 
L 56.844815 -90.359449 
L 56.941253 -90.359449 
L 57.037695 -90.605801 
L 57.134133 -90.605801 
L 57.230571 -90.605801 
L 57.327013 -90.605801 
L 57.423451 -90.605801 
L 57.519893 -90.605801 
L 57.616331 -90.852144 
L 57.712773 -90.852144 
L 57.809211 -90.852144 
L 57.905649 -90.852144 
L 58.002091 -90.852144 
L 58.098529 -90.852144 
L 58.194971 -91.098491 
L 58.291409 -91.098491 
L 58.38785 -91.098491 
L 58.484288 -91.098491 
L 58.580727 -91.098491 
L 58.677168 -91.098491 
L 58.773606 -91.098491 
L 58.870048 -91.098491 
L 58.966486 -91.098491 
L 59.062928 -91.098491 
L 59.159366 -91.098491 
L 59.255804 -91.098491 
L 59.352246 -91.098491 
L 59.448684 -91.098491 
L 59.545126 -91.098491 
L 59.641564 -91.098491 
L 59.738002 -91.098491 
L 59.834444 -91.098491 
L 59.930882 -91.344833 
L 60.027324 -91.344833 
L 60.123762 -91.344833 
L 60.220204 -91.344833 
L 60.316642 -91.344833 
L 60.41308 -91.344833 
L 60.509522 -91.344833 
L 60.60596 -91.344833 
L 60.702402 -91.344833 
L 60.79884 -91.344833 
L 60.895282 -91.344833 
L 60.99172 -91.344833 
L 61.088158 -91.344833 
L 61.1846 -91.344833 
L 61.281038 -91.344833 
L 61.37748 -91.344833 
L 61.473918 -91.344833 
L 61.57036 -91.344833 
L 61.666798 -91.59118 
L 61.763236 -91.59118 
L 61.859678 -91.59118 
L 61.956116 -91.59118 
L 62.052558 -91.59118 
L 62.148996 -91.59118 
L 62.245438 -91.59118 
L 62.341876 -91.59118 
L 62.438314 -91.59118 
L 62.534756 -91.59118 
L 62.631194 -91.59118 
L 62.727636 -91.59118 
L 62.824074 -91.59118 
L 62.920512 -91.837522 
L 63.016954 -91.837522 
L 63.113392 -91.837522 
L 63.209834 -91.837522 
L 63.306272 -91.837522 
L 63.402714 -91.837522 
L 63.499152 -91.837522 
L 63.59559 -91.837522 
L 63.692032 -91.837522 
L 63.78847 -91.837522 
L 63.884912 -91.837522 
L 63.98135 -91.837522 
L 64.077792 -91.837522 
L 64.17423 -91.837522 
L 64.270668 -91.837522 
L 64.367109 -91.837522 
L 64.463547 -91.837522 
L 64.559989 -91.837522 
L 64.656427 -91.837522 
L 64.752869 -91.837522 
L 64.849307 -91.837522 
L 64.945745 -92.083869 
L 65.042187 -92.083869 
L 65.138625 -92.083869 
L 65.235067 -92.083869 
L 65.331505 -92.083869 
L 65.427943 -92.083869 
L 65.524385 -92.083869 
L 65.620823 -92.083869 
L 65.717265 -92.083869 
L 65.813703 -92.083869 
L 65.910145 -92.083869 
L 66.006583 -92.083869 
L 66.103021 -92.083869 
L 66.199463 -92.083869 
L 66.295901 -92.083869 
L 66.392343 -92.083869 
L 66.488781 -92.083869 
L 66.585223 -92.083869 
L 66.681661 -92.083869 
L 66.778099 -92.330211 
L 66.874541 -92.330211 
L 66.970979 -92.330211 
L 67.067421 -92.330211 
L 67.163859 -92.330211 
L 67.260301 -92.330211 
L 67.356739 -92.330211 
L 67.453177 -92.330211 
L 67.549619 -92.330211 
L 67.646057 -92.330211 
L 67.742499 -92.330211 
L 67.838937 -92.330211 
L 67.935379 -92.330211 
L 68.031817 -92.330211 
L 68.128255 -92.330211 
L 68.224697 -92.330211 
L 68.321135 -92.330211 
L 68.417577 -92.330211 
L 68.514015 -92.330211 
L 68.610453 -92.330211 
L 68.706895 -92.330211 
L 68.803333 -92.330211 
L 68.899775 -92.330211 
L 68.996213 -92.330211 
L 69.092655 -92.330211 
L 69.189093 -92.330211 
L 69.285531 -92.330211 
L 69.381973 -92.330211 
L 69.478411 -92.330211 
L 69.574853 -92.330211 
L 69.671291 -92.330211 
L 69.767733 -92.576554 
L 69.864171 -92.576554 
L 69.960609 -92.576554 
L 70.057051 -92.576554 
L 70.153489 -92.576554 
L 70.24993 -92.576554 
L 70.346368 -92.576554 
L 70.44281 -92.576554 
L 70.539248 -92.576554 
L 70.635686 -92.576554 
L 70.732128 -92.576554 
L 70.828566 -92.576554 
L 70.925008 -92.576554 
L 71.021446 -92.576554 
L 71.117884 -92.576554 
L 71.214326 -92.576554 
L 71.310764 -92.576554 
L 71.407206 -92.576554 
L 71.503644 -92.576554 
L 71.600086 -92.576554 
L 71.696524 -92.576554 
L 71.792962 -92.576554 
L 71.889404 -92.576554 
L 71.985842 -92.576554 
L 72.082284 -92.576554 
L 72.178722 -92.576554 
L 72.275164 -92.576554 
L 72.371602 -92.576554 
L 72.46804 -92.576554 
L 72.564482 -92.576554 
L 72.66092 -92.576554 
L 72.757362 -92.576554 
L 72.8538 -92.576554 
L 72.950242 -92.576554 
L 73.04668 -92.576554 
L 73.143118 -92.576554 
L 73.23956 -92.576554 
L 73.335998 -92.576554 
L 73.43244 -92.576554 
L 73.528878 -92.783485 
L 73.62532 -92.822901 
L 73.721758 -92.822901 
L 73.818196 -92.822901 
L 73.914638 -92.822901 
L 74.011076 -92.822901 
L 74.107518 -92.822901 
L 74.203956 -92.822901 
L 74.300394 -92.822901 
L 74.396836 -92.822901 
L 74.493274 -92.822901 
L 74.589716 -92.822901 
L 74.686154 -92.822901 
L 74.782596 -92.822901 
L 74.879034 -92.822901 
L 74.975472 -92.822901 
L 75.071914 -92.822901 
L 75.168352 -92.822901 
L 75.264794 -92.822901 
L 75.361232 -92.822901 
L 75.457674 -92.822901 
L 75.554112 -92.822901 
L 75.65055 -92.822901 
L 75.746992 -93.069243 
L 75.84343 -93.069243 
L 75.939872 -93.069243 
L 76.03631 -93.069243 
L 76.132751 -93.069243 
L 76.229189 -93.069243 
L 76.325628 -93.069243 
L 76.422069 -93.069243 
L 76.518507 -93.069243 
L 76.614949 -93.069243 
L 76.711387 -93.069243 
L 76.807829 -93.069243 
L 76.904267 -93.069243 
L 77.000705 -93.069243 
L 77.097147 -93.069243 
L 77.193585 -93.069243 
L 77.290027 -93.069243 
L 77.386465 -93.069243 
L 77.482903 -93.069243 
L 77.579345 -93.069243 
L 77.675783 -93.069243 
L 77.772225 -93.069243 
L 77.868663 -93.069243 
L 77.965105 -93.069243 
L 78.061543 -93.069243 
L 78.157981 -93.069243 
L 78.254423 -93.069243 
L 78.350861 -93.069243 
L 78.447303 -93.069243 
L 78.543741 -93.069243 
L 78.640183 -93.069243 
L 78.736621 -93.069243 
L 78.833059 -93.069243 
L 78.929501 -93.069243 
L 79.025939 -93.069243 
L 79.122381 -93.069243 
L 79.218819 -93.069243 
L 79.315261 -93.069243 
L 79.411699 -93.069243 
L 79.508137 -93.069243 
L 79.604579 -93.069243 
L 79.701017 -93.069243 
L 79.797459 -93.31559 
L 79.893897 -93.31559 
L 79.990335 -93.31559 
L 80.086777 -93.31559 
L 80.183215 -93.31559 
L 80.279657 -93.31559 
L 80.376095 -93.31559 
L 80.472537 -93.31559 
L 80.568975 -93.31559 
L 80.665413 -93.31559 
L 80.761855 -93.31559 
L 80.858293 -93.31559 
L 80.954735 -93.31559 
L 81.051173 -93.31559 
L 81.147615 -93.31559 
L 81.244053 -93.31559 
L 81.340491 -93.31559 
L 81.436933 -93.31559 
L 81.533371 -93.31559 
L 81.629813 -93.31559 
L 81.726251 -93.31559 
L 81.822693 -93.31559 
L 81.919131 -93.31559 
L 82.015569 -93.31559 
L 82.11201 -93.31559 
L 82.208448 -93.31559 
L 82.30489 -93.31559 
L 82.401328 -93.31559 
L 82.49777 -93.31559 
L 82.594208 -93.31559 
L 82.690646 -93.31559 
L 82.787088 -93.31559 
L 82.883526 -93.31559 
L 82.979968 -93.31559 
L 83.076406 -93.31559 
L 83.172844 -93.31559 
L 83.269286 -93.31559 
L 83.365728 -93.31559 
L 83.462162 -93.561932 
L 83.558604 -93.561932 
L 83.655046 -93.561932 
L 83.751488 -93.561932 
L 83.847922 -93.561932 
L 83.944364 -93.561932 
L 84.040806 -93.561932 
L 84.13724 -93.561932 
L 84.233682 -93.561932 
L 84.330124 -93.561932 
L 84.426558 -93.561932 
L 84.523 -93.561932 
L 84.619442 -93.561932 
L 84.715884 -93.561932 
L 84.812318 -93.561932 
L 84.90876 -93.561932 
L 85.005202 -93.561932 
L 85.101636 -93.561932 
L 85.198078 -93.561932 
L 85.29452 -93.561932 
L 85.390962 -93.561932 
L 85.487396 -93.561932 
L 85.583838 -93.561932 
L 85.68028 -93.561932 
L 85.776714 -93.561932 
L 85.873156 -93.561932 
L 85.969598 -93.808279 
L 86.06604 -93.808279 
L 86.162474 -93.808279 
L 86.258916 -93.808279 
L 86.355358 -93.808279 
L 86.451792 -93.808279 
L 86.548234 -93.808279 
L 86.644676 -93.808279 
L 86.741118 -93.808279 
L 86.837552 -93.808279 
L 86.933994 -93.808279 
L 87.030436 -93.808279 
L 87.12687 -93.808279 
L 87.223312 -93.808279 
L 87.319754 -93.808279 
L 87.416196 -93.808279 
L 87.51263 -93.808279 
L 87.609072 -93.808279 
L 87.705514 -93.808279 
L 87.801948 -93.808279 
L 87.89839 -93.808279 
L 87.994831 -93.808279 
L 88.091273 -93.808279 
L 88.187708 -93.808279 
L 88.284149 -93.808279 
L 88.380591 -93.808279 
L 88.477025 -93.808279 
L 88.573467 -93.808279 
L 88.669909 -93.808279 
L 88.766351 -93.808279 
L 88.862785 -93.808279 
L 88.959227 -93.808279 
L 89.055669 -93.808279 
L 89.152103 -93.808279 
L 89.248545 -93.808279 
L 89.344987 -93.808279 
L 89.441429 -93.808279 
L 89.537863 -93.808279 
L 89.634305 -93.808279 
L 89.730747 -93.808279 
L 89.827181 -93.808279 
L 89.923623 -93.808279 
L 90.020065 -93.808279 
L 90.116499 -93.808279 
L 90.212941 -93.808279 
L 90.309383 -93.808279 
L 90.405825 -93.808279 
L 90.502259 -93.808279 
L 90.598701 -93.808279 
L 90.695143 -93.808279 
L 90.791577 -93.808279 
L 90.888019 -93.808279 
L 90.984461 -93.808279 
L 91.080903 -93.808279 
L 91.177337 -93.808279 
L 91.273779 -93.808279 
L 91.370221 -93.808279 
L 91.466655 -93.808279 
L 91.563097 -93.808279 
L 91.659539 -93.808279 
L 91.755981 -93.808279 
L 91.852415 -93.808279 
L 91.948857 -93.808279 
L 92.045299 -94.054621 
L 92.141733 -94.054621 
L 92.238175 -94.054621 
L 92.334617 -94.054621 
L 92.431059 -94.054621 
L 92.527493 -94.054621 
L 92.623935 -94.054621 
L 92.720377 -94.054621 
L 92.816811 -94.054621 
L 92.913253 -94.054621 
L 93.009695 -94.054621 
L 93.106137 -94.054621 
L 93.202571 -94.054621 
L 93.299013 -94.054621 
L 93.395455 -94.054621 
L 93.395455 -94.793658 
L 93.395455 -94.793658 
L 93.299013 -94.793658 
L 93.202571 -94.793658 
L 93.106137 -94.793658 
L 93.009695 -94.793658 
L 92.913253 -94.793658 
L 92.816811 -94.586722 
L 92.720377 -94.547311 
L 92.623935 -94.547311 
L 92.527493 -94.547311 
L 92.431059 -94.547311 
L 92.334617 -94.547311 
L 92.238175 -94.547311 
L 92.141733 -94.547311 
L 92.045299 -94.547311 
L 91.948857 -94.547311 
L 91.852415 -94.547311 
L 91.755981 -94.547311 
L 91.659539 -94.547311 
L 91.563097 -94.547311 
L 91.466655 -94.547311 
L 91.370221 -94.547311 
L 91.273779 -94.547311 
L 91.177337 -94.547311 
L 91.080903 -94.547311 
L 90.984461 -94.547311 
L 90.888019 -94.547311 
L 90.791577 -94.547311 
L 90.695143 -94.547311 
L 90.598701 -94.547311 
L 90.502259 -94.547311 
L 90.405825 -94.547311 
L 90.309383 -94.547311 
L 90.212941 -94.547311 
L 90.116499 -94.547311 
L 90.020065 -94.547311 
L 89.923623 -94.547311 
L 89.827181 -94.547311 
L 89.730747 -94.547311 
L 89.634305 -94.547311 
L 89.537863 -94.547311 
L 89.441429 -94.547311 
L 89.344987 -94.547311 
L 89.248545 -94.547311 
L 89.152103 -94.547311 
L 89.055669 -94.547311 
L 88.959227 -94.547311 
L 88.862785 -94.547311 
L 88.766351 -94.547311 
L 88.669909 -94.547311 
L 88.573467 -94.547311 
L 88.477025 -94.547311 
L 88.380591 -94.547311 
L 88.284149 -94.547311 
L 88.187708 -94.547311 
L 88.091273 -94.547311 
L 87.994831 -94.547311 
L 87.89839 -94.547311 
L 87.801948 -94.547311 
L 87.705514 -94.547311 
L 87.609072 -94.547311 
L 87.51263 -94.547311 
L 87.416196 -94.547311 
L 87.319754 -94.547311 
L 87.223312 -94.547311 
L 87.12687 -94.547311 
L 87.030436 -94.547311 
L 86.933994 -94.547311 
L 86.837552 -94.547311 
L 86.741118 -94.547311 
L 86.644676 -94.547311 
L 86.548234 -94.547311 
L 86.451792 -94.547311 
L 86.355358 -94.547311 
L 86.258916 -94.547311 
L 86.162474 -94.547311 
L 86.06604 -94.547311 
L 85.969598 -94.547311 
L 85.873156 -94.547311 
L 85.776714 -94.547311 
L 85.68028 -94.547311 
L 85.583838 -94.547311 
L 85.487396 -94.547311 
L 85.390962 -94.547311 
L 85.29452 -94.547311 
L 85.198078 -94.547311 
L 85.101636 -94.547311 
L 85.005202 -94.547311 
L 84.90876 -94.547311 
L 84.812318 -94.547311 
L 84.715884 -94.547311 
L 84.619442 -94.300969 
L 84.523 -94.300969 
L 84.426558 -94.300969 
L 84.330124 -94.300969 
L 84.233682 -94.300969 
L 84.13724 -94.300969 
L 84.040806 -94.300969 
L 83.944364 -94.300969 
L 83.847922 -94.300969 
L 83.751488 -94.300969 
L 83.655046 -94.300969 
L 83.558604 -94.300969 
L 83.462162 -94.300969 
L 83.365728 -94.300969 
L 83.269286 -94.300969 
L 83.172844 -94.300969 
L 83.076406 -94.300969 
L 82.979968 -94.300969 
L 82.883526 -94.300969 
L 82.787088 -94.300969 
L 82.690646 -94.300969 
L 82.594208 -94.300969 
L 82.49777 -94.300969 
L 82.401328 -94.300969 
L 82.30489 -94.300969 
L 82.208448 -94.300969 
L 82.11201 -94.300969 
L 82.015569 -94.300969 
L 81.919131 -94.300969 
L 81.822693 -94.300969 
L 81.726251 -94.300969 
L 81.629813 -94.300969 
L 81.533371 -94.300969 
L 81.436933 -94.300969 
L 81.340491 -94.300969 
L 81.244053 -94.300969 
L 81.147615 -94.300969 
L 81.051173 -94.300969 
L 80.954735 -94.300969 
L 80.858293 -94.300969 
L 80.761855 -94.300969 
L 80.665413 -94.300969 
L 80.568975 -94.300969 
L 80.472537 -94.300969 
L 80.376095 -94.300969 
L 80.279657 -94.300969 
L 80.183215 -94.300969 
L 80.086777 -94.300969 
L 79.990335 -94.300969 
L 79.893897 -94.094033 
L 79.797459 -94.094033 
L 79.701017 -94.054621 
L 79.604579 -94.054621 
L 79.508137 -94.054621 
L 79.411699 -94.054621 
L 79.315261 -94.054621 
L 79.218819 -94.054621 
L 79.122381 -94.054621 
L 79.025939 -94.054621 
L 78.929501 -94.054621 
L 78.833059 -94.054621 
L 78.736621 -94.054621 
L 78.640183 -94.054621 
L 78.543741 -94.054621 
L 78.447303 -94.054621 
L 78.350861 -94.054621 
L 78.254423 -94.054621 
L 78.157981 -94.054621 
L 78.061543 -94.054621 
L 77.965105 -94.054621 
L 77.868663 -94.054621 
L 77.772225 -94.054621 
L 77.675783 -94.054621 
L 77.579345 -94.054621 
L 77.482903 -94.054621 
L 77.386465 -94.054621 
L 77.290027 -94.054621 
L 77.193585 -94.054621 
L 77.097147 -94.054621 
L 77.000705 -94.054621 
L 76.904267 -94.054621 
L 76.807829 -94.054621 
L 76.711387 -94.054621 
L 76.614949 -94.054621 
L 76.518507 -94.054621 
L 76.422069 -94.054621 
L 76.325628 -94.054621 
L 76.229189 -94.054621 
L 76.132751 -94.054621 
L 76.03631 -94.054621 
L 75.939872 -94.054621 
L 75.84343 -94.054621 
L 75.746992 -94.054621 
L 75.65055 -94.054621 
L 75.554112 -94.054621 
L 75.457674 -94.054621 
L 75.361232 -93.808279 
L 75.264794 -93.808279 
L 75.168352 -93.808279 
L 75.071914 -93.808279 
L 74.975472 -93.808279 
L 74.879034 -93.808279 
L 74.782596 -93.808279 
L 74.686154 -93.808279 
L 74.589716 -93.808279 
L 74.493274 -93.808279 
L 74.396836 -93.808279 
L 74.300394 -93.808279 
L 74.203956 -93.808279 
L 74.107518 -93.808279 
L 74.011076 -93.808279 
L 73.914638 -93.808279 
L 73.818196 -93.808279 
L 73.721758 -93.808279 
L 73.62532 -93.808279 
L 73.528878 -93.808279 
L 73.43244 -93.808279 
L 73.335998 -93.808279 
L 73.23956 -93.808279 
L 73.143118 -93.808279 
L 73.04668 -93.808279 
L 72.950242 -93.808279 
L 72.8538 -93.808279 
L 72.757362 -93.808279 
L 72.66092 -93.808279 
L 72.564482 -93.808279 
L 72.46804 -93.808279 
L 72.371602 -93.808279 
L 72.275164 -93.808279 
L 72.178722 -93.808279 
L 72.082284 -93.808279 
L 71.985842 -93.808279 
L 71.889404 -93.808279 
L 71.792962 -93.808279 
L 71.696524 -93.808279 
L 71.600086 -93.808279 
L 71.503644 -93.808279 
L 71.407206 -93.808279 
L 71.310764 -93.808279 
L 71.214326 -93.808279 
L 71.117884 -93.561932 
L 71.021446 -93.561932 
L 70.925008 -93.561932 
L 70.828566 -93.561932 
L 70.732128 -93.561932 
L 70.635686 -93.561932 
L 70.539248 -93.561932 
L 70.44281 -93.561932 
L 70.346368 -93.561932 
L 70.24993 -93.561932 
L 70.153489 -93.561932 
L 70.057051 -93.561932 
L 69.960609 -93.561932 
L 69.864171 -93.561932 
L 69.767733 -93.561932 
L 69.671291 -93.561932 
L 69.574853 -93.561932 
L 69.478411 -93.561932 
L 69.381973 -93.561932 
L 69.285531 -93.561932 
L 69.189093 -93.561932 
L 69.092655 -93.561932 
L 68.996213 -93.561932 
L 68.899775 -93.561932 
L 68.803333 -93.561932 
L 68.706895 -93.561932 
L 68.610453 -93.561932 
L 68.514015 -93.561932 
L 68.417577 -93.561932 
L 68.321135 -93.561932 
L 68.224697 -93.561932 
L 68.128255 -93.561932 
L 68.031817 -93.561932 
L 67.935379 -93.561932 
L 67.838937 -93.561932 
L 67.742499 -93.561932 
L 67.646057 -93.561932 
L 67.549619 -93.561932 
L 67.453177 -93.31559 
L 67.356739 -93.31559 
L 67.260301 -93.31559 
L 67.163859 -93.31559 
L 67.067421 -93.31559 
L 66.970979 -93.31559 
L 66.874541 -93.31559 
L 66.778099 -93.31559 
L 66.681661 -93.31559 
L 66.585223 -93.31559 
L 66.488781 -93.31559 
L 66.392343 -93.31559 
L 66.295901 -93.31559 
L 66.199463 -93.31559 
L 66.103021 -93.31559 
L 66.006583 -93.31559 
L 65.910145 -93.31559 
L 65.813703 -93.31559 
L 65.717265 -93.31559 
L 65.620823 -93.31559 
L 65.524385 -93.31559 
L 65.427943 -93.31559 
L 65.331505 -93.31559 
L 65.235067 -93.31559 
L 65.138625 -93.31559 
L 65.042187 -93.31559 
L 64.945745 -93.31559 
L 64.849307 -93.31559 
L 64.752869 -93.31559 
L 64.656427 -93.069243 
L 64.559989 -93.069243 
L 64.463547 -93.069243 
L 64.367109 -93.069243 
L 64.270668 -93.069243 
L 64.17423 -93.069243 
L 64.077792 -93.069243 
L 63.98135 -93.069243 
L 63.884912 -93.069243 
L 63.78847 -93.069243 
L 63.692032 -93.069243 
L 63.59559 -93.069243 
L 63.499152 -93.069243 
L 63.402714 -93.069243 
L 63.306272 -93.069243 
L 63.209834 -93.069243 
L 63.113392 -93.069243 
L 63.016954 -93.069243 
L 62.920512 -93.069243 
L 62.824074 -93.069243 
L 62.727636 -93.069243 
L 62.631194 -93.069243 
L 62.534756 -93.069243 
L 62.438314 -92.822901 
L 62.341876 -92.822901 
L 62.245438 -92.822901 
L 62.148996 -92.822901 
L 62.052558 -92.822901 
L 61.956116 -92.822901 
L 61.859678 -92.822901 
L 61.763236 -92.822901 
L 61.666798 -92.822901 
L 61.57036 -92.822901 
L 61.473918 -92.822901 
L 61.37748 -92.822901 
L 61.281038 -92.822901 
L 61.1846 -92.822901 
L 61.088158 -92.822901 
L 60.99172 -92.822901 
L 60.895282 -92.822901 
L 60.79884 -92.822901 
L 60.702402 -92.822901 
L 60.60596 -92.615965 
L 60.509522 -92.576554 
L 60.41308 -92.576554 
L 60.316642 -92.576554 
L 60.220204 -92.576554 
L 60.123762 -92.576554 
L 60.027324 -92.576554 
L 59.930882 -92.576554 
L 59.834444 -92.576554 
L 59.738002 -92.576554 
L 59.641564 -92.576554 
L 59.545126 -92.576554 
L 59.448684 -92.576554 
L 59.352246 -92.576554 
L 59.255804 -92.576554 
L 59.159366 -92.576554 
L 59.062928 -92.576554 
L 58.966486 -92.330211 
L 58.870048 -92.330211 
L 58.773606 -92.330211 
L 58.677168 -92.330211 
L 58.580727 -92.330211 
L 58.484288 -92.330211 
L 58.38785 -92.330211 
L 58.291409 -92.330211 
L 58.194971 -92.330211 
L 58.098529 -92.330211 
L 58.002091 -92.330211 
L 57.905649 -92.12328 
L 57.809211 -92.083874 
L 57.712773 -92.083874 
L 57.616331 -92.083874 
L 57.519893 -92.083874 
L 57.423451 -92.083874 
L 57.327013 -92.083874 
L 57.230571 -92.083874 
L 57.134133 -92.083874 
L 57.037695 -92.083874 
L 56.941253 -91.837522 
L 56.844815 -91.837522 
L 56.748373 -91.837522 
L 56.651935 -91.837522 
L 56.555493 -91.837522 
L 56.459055 -91.837522 
L 56.362617 -91.59118 
L 56.266175 -91.59118 
L 56.169737 -91.59118 
L 56.073295 -91.59118 
L 55.976857 -91.59118 
L 55.880419 -91.59118 
L 55.783977 -91.59118 
L 55.687539 -91.59118 
L 55.591097 -91.344833 
L 55.494659 -91.344833 
L 55.398217 -91.344833 
L 55.301779 -91.344833 
L 55.205341 -91.344833 
L 55.108899 -91.344833 
L 55.012461 -91.344833 
L 54.916019 -91.344833 
L 54.819581 -91.344833 
L 54.723139 -91.344833 
L 54.626701 -91.344833 
L 54.530263 -91.344833 
L 54.433821 -91.344833 
L 54.337383 -91.344833 
L 54.240941 -91.344833 
L 54.144503 -91.344833 
L 54.048061 -91.344833 
L 53.951623 -91.344833 
L 53.855185 -91.098496 
L 53.758743 -91.098496 
L 53.662305 -91.098496 
L 53.565863 -91.098496 
L 53.469425 -91.098496 
L 53.372987 -91.098496 
L 53.276545 -91.098496 
L 53.180107 -91.098496 
L 53.083665 -91.098496 
L 52.987227 -91.098496 
L 52.890785 -90.852144 
L 52.794347 -90.852144 
L 52.697909 -90.852144 
L 52.601467 -90.852144 
L 52.505029 -90.852144 
L 52.408588 -90.852144 
L 52.31215 -90.852144 
L 52.215708 -90.852144 
L 52.11927 -90.852144 
L 52.022832 -90.605801 
L 51.92639 -90.605801 
L 51.829952 -90.605801 
L 51.73351 -90.605801 
L 51.637072 -90.398865 
L 51.54063 -90.359454 
L 51.444192 -90.359454 
L 51.347754 -90.359454 
L 51.251312 -90.359454 
L 51.154874 -90.359454 
L 51.058432 -90.359454 
L 50.961994 -90.359454 
L 50.865552 -90.359454 
L 50.769114 -90.359454 
L 50.672676 -90.359454 
L 50.576234 -90.359454 
L 50.479796 -90.359454 
L 50.383354 -90.359454 
L 50.286916 -90.359454 
L 50.190476 -90.359454 
L 50.094036 -90.359454 
L 49.997596 -90.359454 
L 49.901158 -90.359454 
L 49.804718 -90.113107 
L 49.708278 -90.113107 
L 49.611838 -90.113107 
L 49.515398 -90.113107 
L 49.418958 -90.113107 
L 49.322518 -90.113107 
L 49.22608 -90.113107 
L 49.12964 -90.113107 
L 49.0332 -89.906171 
L 48.93676 -89.866765 
L 48.84032 -89.866765 
L 48.74388 -89.866765 
L 48.64744 -89.866765 
L 48.551002 -89.866765 
L 48.454562 -89.866765 
L 48.358122 -89.866765 
L 48.261682 -89.866765 
L 48.165242 -89.866765 
L 48.068802 -89.866765 
L 47.972364 -89.866765 
L 47.875924 -89.620423 
L 47.779484 -89.620423 
L 47.683044 -89.620423 
L 47.586604 -89.620423 
L 47.490164 -89.620423 
L 47.393724 -89.620423 
L 47.297286 -89.620423 
L 47.200846 -89.374081 
L 47.104406 -89.374081 
L 47.007966 -89.374081 
L 46.911526 -89.127734 
L 46.815086 -89.127734 
L 46.718648 -89.127734 
L 46.622208 -89.127734 
L 46.525769 -89.127734 
L 46.429329 -89.127734 
L 46.332889 -89.127734 
L 46.236449 -89.127734 
L 46.140009 -88.920802 
L 46.043571 -88.881391 
L 45.947131 -88.881391 
L 45.850691 -88.881391 
L 45.754251 -88.881391 
L 45.657811 -88.635044 
L 45.561371 -88.635044 
L 45.464933 -88.635044 
L 45.368493 -88.635044 
L 45.272053 -88.635044 
L 45.175613 -88.635044 
L 45.079173 -88.388702 
L 44.982733 -88.388702 
L 44.886293 -88.388702 
L 44.789855 -88.388702 
L 44.693415 -88.142355 
L 44.596975 -88.142355 
L 44.500535 -88.142355 
L 44.404095 -88.142355 
L 44.307655 -88.142355 
L 44.211215 -88.142355 
L 44.114777 -88.142355 
L 44.018337 -88.142355 
L 43.921897 -88.142355 
L 43.825457 -87.896013 
L 43.729017 -87.896013 
L 43.632577 -87.896013 
L 43.536139 -87.896013 
L 43.439699 -87.896013 
L 43.343259 -87.896013 
L 43.246819 -87.896013 
L 43.150379 -87.896013 
L 43.053939 -87.896013 
L 42.957499 -87.896013 
L 42.861061 -87.896013 
L 42.764621 -87.896013 
L 42.668181 -87.649666 
L 42.571741 -87.649666 
L 42.475301 -87.649666 
L 42.378861 -87.403323 
L 42.282423 -87.156976 
L 42.185983 -87.156976 
L 42.089543 -87.156976 
L 41.993103 -86.910639 
L 41.896663 -86.910639 
L 41.800223 -86.910639 
L 41.703783 -86.664292 
L 41.607345 -86.664292 
L 41.510905 -86.664292 
L 41.414465 -86.664292 
L 41.318025 -86.664292 
L 41.221585 -86.417945 
L 41.125145 -86.171603 
L 41.028707 -86.171603 
L 40.932267 -86.171603 
L 40.835827 -86.171603 
L 40.739387 -86.171603 
L 40.642948 -85.925251 
L 40.546508 -85.925251 
L 40.450068 -85.925251 
L 40.35363 -85.925251 
L 40.25719 -85.925251 
L 40.16075 -85.678913 
L 40.06431 -85.432566 
L 39.96787 -85.432566 
L 39.87143 -85.432566 
L 39.774992 -85.186224 
L 39.678552 -85.186224 
L 39.582112 -85.186224 
L 39.485672 -85.186224 
L 39.389232 -85.186224 
L 39.292792 -85.186224 
L 39.196352 -84.979283 
L 39.099914 -84.939872 
L 39.003474 -84.939872 
L 38.907034 -84.693535 
L 38.810594 -84.693535 
L 38.714154 -84.693535 
L 38.617714 -84.693535 
L 38.521274 -84.447193 
L 38.424836 -84.447193 
L 38.328396 -84.447193 
L 38.231956 -84.447193 
L 38.135516 -84.447193 
L 38.039076 -84.447193 
L 37.942636 -84.200846 
L 37.846198 -83.954503 
L 37.749758 -83.954503 
L 37.653318 -83.954503 
L 37.556878 -83.954503 
L 37.460438 -83.708156 
L 37.363998 -83.461814 
L 37.267558 -83.461814 
L 37.17112 -83.215467 
L 37.07468 -83.215467 
L 36.97824 -82.969125 
L 36.8818 -82.969125 
L 36.78536 -82.969125 
L 36.68892 -82.969125 
L 36.592482 -82.722783 
L 36.496042 -82.722783 
L 36.399602 -82.722783 
L 36.303162 -82.722783 
L 36.206722 -82.722783 
L 36.110282 -82.476436 
L 36.013842 -82.476436 
L 35.917404 -82.2695 
L 35.820964 -82.230089 
L 35.724524 -81.983746 
L 35.628084 -81.983746 
L 35.531644 -81.983746 
L 35.435204 -81.983746 
L 35.338766 -81.491057 
L 35.242326 -81.491057 
L 35.145886 -81.491057 
L 35.049446 -81.244715 
L 34.953006 -81.244715 
L 34.856566 -81.244715 
L 34.760127 -81.244715 
L 34.663689 -80.998368 
L 34.567249 -80.998368 
L 34.470809 -80.998368 
L 34.374369 -80.752026 
L 34.277929 -80.505678 
L 34.181489 -80.505678 
L 34.085049 -80.505678 
L 33.988611 -80.505678 
L 33.892171 -80.259336 
L 33.795731 -80.012989 
L 33.699291 -80.012989 
L 33.602852 -80.012989 
L 33.506412 -79.766647 
L 33.409972 -79.766647 
L 33.313532 -79.5203 
L 33.217093 -79.5203 
L 33.120653 -79.5203 
L 33.024213 -79.273958 
L 32.927774 -79.273958 
L 32.831334 -79.02762 
L 32.734894 -79.02762 
L 32.638455 -79.02762 
L 32.542015 -79.02762 
L 32.445575 -78.781268 
L 32.349135 -78.288579 
L 32.252696 -78.042232 
L 32.156256 -78.042232 
L 32.059816 -77.79589 
L 31.963377 -77.549548 
L 31.866937 -77.549548 
L 31.770497 -77.549548 
L 31.674058 -77.303201 
L 31.577618 -77.056858 
L 31.481178 -76.810511 
L 31.384739 -76.810511 
L 31.288299 -76.564169 
L 31.191859 -76.564169 
L 31.095419 -76.317827 
L 30.99898 -76.07148 
L 30.90254 -75.825138 
L 30.8061 -75.825138 
L 30.709661 -75.332448 
L 30.613221 -75.086101 
L 30.516781 -75.086101 
L 30.420342 -75.086101 
L 30.323902 -74.839759 
L 30.227462 -74.593412 
L 30.131022 -74.593412 
L 30.034583 -74.593412 
L 29.938143 -74.386481 
L 29.841703 -74.100723 
L 29.745264 -73.893792 
L 29.648824 -73.854385 
L 29.552384 -73.854385 
L 29.455945 -73.361691 
L 29.359505 -73.361691 
L 29.263065 -73.115349 
L 29.166626 -72.868997 
L 29.070186 -72.62266 
L 28.973746 -72.62266 
L 28.877307 -72.376313 
L 28.780868 -72.376313 
L 28.684428 -71.883623 
L 28.587988 -71.637281 
L 28.491549 -71.390934 
L 28.395109 -70.89825 
L 28.298669 -70.651903 
L 28.20223 -70.40556 
L 28.10579 -70.159213 
L 28.00935 -70.159213 
L 27.91291 -69.666524 
L 27.816471 -69.420182 
L 27.720031 -69.420182 
L 27.623591 -68.927493 
L 27.527152 -68.720557 
L 27.430712 -68.68115 
L 27.334272 -68.188461 
L 27.237833 -68.188461 
L 27.141393 -68.188461 
L 27.044953 -67.942114 
L 26.948514 -67.695772 
L 26.852074 -67.449425 
L 26.755634 -66.956736 
L 26.659194 -66.956736 
L 26.562755 -66.956736 
L 26.466315 -66.710393 
L 26.369875 -65.725015 
L 26.273436 -65.232325 
L 26.176996 -64.985978 
L 26.080556 -64.739636 
L 25.984117 -64.493294 
L 25.887677 -64.493294 
L 25.791237 -64.000605 
L 25.694797 -63.754258 
L 25.598358 -63.015226 
L 25.501918 -63.015226 
L 25.405479 -62.768884 
L 25.309039 -62.522537 
L 25.212599 -62.522537 
L 25.11616 -62.276195 
L 25.01972 -61.783505 
L 24.92328 -61.537158 
L 24.82684 -61.044469 
L 24.730401 -60.798127 
L 24.633961 -60.344849 
L 24.537521 -60.059095 
L 24.441082 -60.059095 
L 24.344642 -59.812748 
L 24.248202 -59.566406 
L 24.151763 -59.566406 
L 24.055323 -59.073717 
L 23.958883 -58.82737 
L 23.862444 -58.82737 
L 23.766004 -58.581028 
L 23.669564 -58.088338 
L 23.573124 -57.10296 
L 23.476685 -57.10296 
L 23.380245 -56.363928 
L 23.283805 -56.363928 
L 23.187366 -55.871239 
L 23.090926 -55.624892 
L 22.994486 -54.88586 
L 22.898047 -53.900484 
L 22.801607 -53.16145 
L 22.705168 -52.176072 
L 22.608728 -51.683383 
L 22.512288 -50.944351 
L 22.415849 -50.698006 
L 22.319409 -50.20532 
L 22.222969 -49.958972 
L 22.12653 -49.466283 
L 22.03009 -48.973596 
L 21.93365 -48.727252 
L 21.83721 -48.234562 
L 21.740771 -47.741873 
L 21.644331 -46.756495 
L 21.547891 -46.26381 
L 21.451452 -45.771116 
L 21.355012 -45.278429 
L 21.258572 -44.539395 
L 21.162133 -43.800361 
L 21.065693 -43.307675 
L 20.969253 -42.568641 
L 20.872814 -41.829607 
L 20.776374 -41.090575 
L 20.679934 -40.844231 
L 20.583495 -40.105197 
L 20.487055 -39.858852 
L 20.390615 -38.873473 
L 20.294175 -38.627129 
L 20.197736 -37.641753 
L 20.101296 -37.149063 
L 20.004856 -37.149063 
L 19.908417 -36.656374 
L 19.811977 -36.163685 
L 19.715538 -35.670998 
L 19.619098 -35.178309 
L 19.522658 -34.931964 
L 19.426218 -34.19293 
L 19.329779 -33.453897 
L 19.233339 -31.729486 
L 19.136899 -30.990454 
L 19.04046 -30.497764 
L 18.94402 -29.758732 
L 18.84758 -29.512387 
L 18.751141 -28.52701 
L 18.654701 -27.295288 
L 18.558261 -27.048943 
L 18.461822 -26.309909 
L 18.365382 -25.570876 
L 18.268942 -24.831842 
L 18.172503 -23.846465 
L 18.076063 -22.614743 
L 17.979623 -22.122054 
L 17.883184 -21.383021 
L 17.786744 -20.890332 
L 17.690304 -20.151299 
L 17.593864 -18.673233 
L 17.497425 -17.195166 
L 17.400985 -15.7171 
L 17.304545 -13.5 
z
" id="m711168cecb" style="stroke:#1f77b4;stroke-opacity:0.3;"/>
    </defs>
    <g clip-path="url(#pe755c5b869)">
     <use style="fill:#1f77b4;fill-opacity:0.3;stroke:#1f77b4;stroke-opacity:0.3;" x="0" xlink:href="#m711168cecb" y="108"/>
    </g>
   </g>
   <g id="matplotlib.axis_1">
    <g id="xtick_1">
     <g id="line2d_1">
      <defs>
       <path d="M 0 0 
L 0 3.5 
" id="m52c1edd83b" style="stroke:#000000;stroke-width:0.8;"/>
      </defs>
      <g>
       <use style="stroke:#000000;stroke-width:0.8;" x="36.611789" xlink:href="#m52c1edd83b" y="94.5"/>
      </g>
     </g>
     <g id="text_1">
      <!-- 600 -->
      <g transform="translate(28.976789 107.57875)scale(0.08 -0.08)">
       <defs>
        <path d="M 2113 2584 
Q 1688 2584 1439 2293 
Q 1191 2003 1191 1497 
Q 1191 994 1439 701 
Q 1688 409 2113 409 
Q 2538 409 2786 701 
Q 3034 994 3034 1497 
Q 3034 2003 2786 2293 
Q 2538 2584 2113 2584 
z
M 3366 4563 
L 3366 3988 
Q 3128 4100 2886 4159 
Q 2644 4219 2406 4219 
Q 1781 4219 1451 3797 
Q 1122 3375 1075 2522 
Q 1259 2794 1537 2939 
Q 1816 3084 2150 3084 
Q 2853 3084 3261 2657 
Q 3669 2231 3669 1497 
Q 3669 778 3244 343 
Q 2819 -91 2113 -91 
Q 1303 -91 875 529 
Q 447 1150 447 2328 
Q 447 3434 972 4092 
Q 1497 4750 2381 4750 
Q 2619 4750 2861 4703 
Q 3103 4656 3366 4563 
z
" id="DejaVuSans-36" transform="scale(0.015625)"/>
        <path d="M 2034 4250 
Q 1547 4250 1301 3770 
Q 1056 3291 1056 2328 
Q 1056 1369 1301 889 
Q 1547 409 2034 409 
Q 2525 409 2770 889 
Q 3016 1369 3016 2328 
Q 3016 3291 2770 3770 
Q 2525 4250 2034 4250 
z
M 2034 4750 
Q 2819 4750 3233 4129 
Q 3647 3509 3647 2328 
Q 3647 1150 3233 529 
Q 2819 -91 2034 -91 
Q 1250 -91 836 529 
Q 422 1150 422 2328 
Q 422 3509 836 4129 
Q 1250 4750 2034 4750 
z
" id="DejaVuSans-30" transform="scale(0.015625)"/>
       </defs>
       <use xlink:href="#DejaVuSans-36"/>
       <use x="63.623047" xlink:href="#DejaVuSans-30"/>
       <use x="127.246094" xlink:href="#DejaVuSans-30"/>
      </g>
     </g>
    </g>
    <g id="xtick_2">
     <g id="line2d_2">
      <g>
       <use style="stroke:#000000;stroke-width:0.8;" x="55.919032" xlink:href="#m52c1edd83b" y="94.5"/>
      </g>
     </g>
     <g id="text_2">
      <!-- 1200 -->
      <g transform="translate(45.739032 107.57875)scale(0.08 -0.08)">
       <defs>
        <path d="M 794 531 
L 1825 531 
L 1825 4091 
L 703 3866 
L 703 4441 
L 1819 4666 
L 2450 4666 
L 2450 531 
L 3481 531 
L 3481 0 
L 794 0 
L 794 531 
z
" id="DejaVuSans-31" transform="scale(0.015625)"/>
        <path d="M 1228 531 
L 3431 531 
L 3431 0 
L 469 0 
L 469 531 
Q 828 903 1448 1529 
Q 2069 2156 2228 2338 
Q 2531 2678 2651 2914 
Q 2772 3150 2772 3378 
Q 2772 3750 2511 3984 
Q 2250 4219 1831 4219 
Q 1534 4219 1204 4116 
Q 875 4013 500 3803 
L 500 4441 
Q 881 4594 1212 4672 
Q 1544 4750 1819 4750 
Q 2544 4750 2975 4387 
Q 3406 4025 3406 3419 
Q 3406 3131 3298 2873 
Q 3191 2616 2906 2266 
Q 2828 2175 2409 1742 
Q 1991 1309 1228 531 
z
" id="DejaVuSans-32" transform="scale(0.015625)"/>
       </defs>
       <use xlink:href="#DejaVuSans-31"/>
       <use x="63.623047" xlink:href="#DejaVuSans-32"/>
       <use x="127.246094" xlink:href="#DejaVuSans-30"/>
       <use x="190.869141" xlink:href="#DejaVuSans-30"/>
      </g>
     </g>
    </g>
    <g id="xtick_3">
     <g id="line2d_3">
      <g>
       <use style="stroke:#000000;stroke-width:0.8;" x="75.226275" xlink:href="#m52c1edd83b" y="94.5"/>
      </g>
     </g>
     <g id="text_3">
      <!-- 1800 -->
      <g transform="translate(65.046275 107.57875)scale(0.08 -0.08)">
       <defs>
        <path d="M 2034 2216 
Q 1584 2216 1326 1975 
Q 1069 1734 1069 1313 
Q 1069 891 1326 650 
Q 1584 409 2034 409 
Q 2484 409 2743 651 
Q 3003 894 3003 1313 
Q 3003 1734 2745 1975 
Q 2488 2216 2034 2216 
z
M 1403 2484 
Q 997 2584 770 2862 
Q 544 3141 544 3541 
Q 544 4100 942 4425 
Q 1341 4750 2034 4750 
Q 2731 4750 3128 4425 
Q 3525 4100 3525 3541 
Q 3525 3141 3298 2862 
Q 3072 2584 2669 2484 
Q 3125 2378 3379 2068 
Q 3634 1759 3634 1313 
Q 3634 634 3220 271 
Q 2806 -91 2034 -91 
Q 1263 -91 848 271 
Q 434 634 434 1313 
Q 434 1759 690 2068 
Q 947 2378 1403 2484 
z
M 1172 3481 
Q 1172 3119 1398 2916 
Q 1625 2713 2034 2713 
Q 2441 2713 2670 2916 
Q 2900 3119 2900 3481 
Q 2900 3844 2670 4047 
Q 2441 4250 2034 4250 
Q 1625 4250 1398 4047 
Q 1172 3844 1172 3481 
z
" id="DejaVuSans-38" transform="scale(0.015625)"/>
       </defs>
       <use xlink:href="#DejaVuSans-31"/>
       <use x="63.623047" xlink:href="#DejaVuSans-38"/>
       <use x="127.246094" xlink:href="#DejaVuSans-30"/>
       <use x="190.869141" xlink:href="#DejaVuSans-30"/>
      </g>
     </g>
    </g>
    <g id="text_4">
     <!-- Time ($s$) -->
     <g transform="translate(38.95 119.32125)scale(0.08 -0.08)">
      <defs>
       <path d="M -19 4666 
L 3928 4666 
L 3928 4134 
L 2272 4134 
L 2272 0 
L 1638 0 
L 1638 4134 
L -19 4134 
L -19 4666 
z
" id="DejaVuSans-54" transform="scale(0.015625)"/>
       <path d="M 603 3500 
L 1178 3500 
L 1178 0 
L 603 0 
L 603 3500 
z
M 603 4863 
L 1178 4863 
L 1178 4134 
L 603 4134 
L 603 4863 
z
" id="DejaVuSans-69" transform="scale(0.015625)"/>
       <path d="M 3328 2828 
Q 3544 3216 3844 3400 
Q 4144 3584 4550 3584 
Q 5097 3584 5394 3201 
Q 5691 2819 5691 2113 
L 5691 0 
L 5113 0 
L 5113 2094 
Q 5113 2597 4934 2840 
Q 4756 3084 4391 3084 
Q 3944 3084 3684 2787 
Q 3425 2491 3425 1978 
L 3425 0 
L 2847 0 
L 2847 2094 
Q 2847 2600 2669 2842 
Q 2491 3084 2119 3084 
Q 1678 3084 1418 2786 
Q 1159 2488 1159 1978 
L 1159 0 
L 581 0 
L 581 3500 
L 1159 3500 
L 1159 2956 
Q 1356 3278 1631 3431 
Q 1906 3584 2284 3584 
Q 2666 3584 2933 3390 
Q 3200 3197 3328 2828 
z
" id="DejaVuSans-6d" transform="scale(0.015625)"/>
       <path d="M 3597 1894 
L 3597 1613 
L 953 1613 
Q 991 1019 1311 708 
Q 1631 397 2203 397 
Q 2534 397 2845 478 
Q 3156 559 3463 722 
L 3463 178 
Q 3153 47 2828 -22 
Q 2503 -91 2169 -91 
Q 1331 -91 842 396 
Q 353 884 353 1716 
Q 353 2575 817 3079 
Q 1281 3584 2069 3584 
Q 2775 3584 3186 3129 
Q 3597 2675 3597 1894 
z
M 3022 2063 
Q 3016 2534 2758 2815 
Q 2500 3097 2075 3097 
Q 1594 3097 1305 2825 
Q 1016 2553 972 2059 
L 3022 2063 
z
" id="DejaVuSans-65" transform="scale(0.015625)"/>
       <path id="DejaVuSans-20" transform="scale(0.015625)"/>
       <path d="M 1984 4856 
Q 1566 4138 1362 3434 
Q 1159 2731 1159 2009 
Q 1159 1288 1364 580 
Q 1569 -128 1984 -844 
L 1484 -844 
Q 1016 -109 783 600 
Q 550 1309 550 2009 
Q 550 2706 781 3412 
Q 1013 4119 1484 4856 
L 1984 4856 
z
" id="DejaVuSans-28" transform="scale(0.015625)"/>
       <path d="M 3200 3397 
L 3091 2853 
Q 2863 2978 2609 3040 
Q 2356 3103 2088 3103 
Q 1634 3103 1373 2948 
Q 1113 2794 1113 2528 
Q 1113 2219 1719 2053 
Q 1766 2041 1788 2034 
L 1972 1978 
Q 2547 1819 2739 1644 
Q 2931 1469 2931 1166 
Q 2931 609 2489 259 
Q 2047 -91 1331 -91 
Q 1053 -91 747 -37 
Q 441 16 72 128 
L 184 722 
Q 500 559 806 475 
Q 1113 391 1394 391 
Q 1816 391 2080 572 
Q 2344 753 2344 1031 
Q 2344 1331 1650 1516 
L 1591 1531 
L 1394 1581 
Q 956 1697 753 1886 
Q 550 2075 550 2369 
Q 550 2928 970 3256 
Q 1391 3584 2113 3584 
Q 2397 3584 2667 3537 
Q 2938 3491 3200 3397 
z
" id="DejaVuSans-Oblique-73" transform="scale(0.015625)"/>
       <path d="M 513 4856 
L 1013 4856 
Q 1481 4119 1714 3412 
Q 1947 2706 1947 2009 
Q 1947 1309 1714 600 
Q 1481 -109 1013 -844 
L 513 -844 
Q 928 -128 1133 580 
Q 1338 1288 1338 2009 
Q 1338 2731 1133 3434 
Q 928 4138 513 4856 
z
" id="DejaVuSans-29" transform="scale(0.015625)"/>
      </defs>
      <use transform="translate(0 0.015625)" xlink:href="#DejaVuSans-54"/>
      <use transform="translate(61.083984 0.015625)" xlink:href="#DejaVuSans-69"/>
      <use transform="translate(88.867188 0.015625)" xlink:href="#DejaVuSans-6d"/>
      <use transform="translate(186.279297 0.015625)" xlink:href="#DejaVuSans-65"/>
      <use transform="translate(247.802734 0.015625)" xlink:href="#DejaVuSans-20"/>
      <use transform="translate(279.589844 0.015625)" xlink:href="#DejaVuSans-28"/>
      <use transform="translate(318.603516 0.015625)" xlink:href="#DejaVuSans-Oblique-73"/>
      <use transform="translate(370.703125 0.015625)" xlink:href="#DejaVuSans-29"/>
     </g>
    </g>
   </g>
   <g id="matplotlib.axis_2">
    <g id="ytick_1">
     <g id="line2d_4">
      <defs>
       <path d="M 0 0 
L -3.5 0 
" id="m87a7a48073" style="stroke:#000000;stroke-width:0.8;"/>
      </defs>
      <g>
       <use style="stroke:#000000;stroke-width:0.8;" x="13.5" xlink:href="#m87a7a48073" y="94.5"/>
      </g>
     </g>
     <g id="text_5">
      <!-- 0 -->
      <g transform="translate(1.41 97.539375)scale(0.08 -0.08)">
       <use xlink:href="#DejaVuSans-30"/>
      </g>
     </g>
    </g>
    <g id="ytick_2">
     <g id="line2d_5">
      <g>
       <use style="stroke:#000000;stroke-width:0.8;" x="13.5" xlink:href="#m87a7a48073" y="74.115"/>
      </g>
     </g>
     <g id="text_6">
      <!-- 0.25 -->
      <g transform="translate(-11.3125 77.154375)scale(0.08 -0.08)">
       <defs>
        <path d="M 684 794 
L 1344 794 
L 1344 0 
L 684 0 
L 684 794 
z
" id="DejaVuSans-2e" transform="scale(0.015625)"/>
        <path d="M 691 4666 
L 3169 4666 
L 3169 4134 
L 1269 4134 
L 1269 2991 
Q 1406 3038 1543 3061 
Q 1681 3084 1819 3084 
Q 2600 3084 3056 2656 
Q 3513 2228 3513 1497 
Q 3513 744 3044 326 
Q 2575 -91 1722 -91 
Q 1428 -91 1123 -41 
Q 819 9 494 109 
L 494 744 
Q 775 591 1075 516 
Q 1375 441 1709 441 
Q 2250 441 2565 725 
Q 2881 1009 2881 1497 
Q 2881 1984 2565 2268 
Q 2250 2553 1709 2553 
Q 1456 2553 1204 2497 
Q 953 2441 691 2322 
L 691 4666 
z
" id="DejaVuSans-35" transform="scale(0.015625)"/>
       </defs>
       <use xlink:href="#DejaVuSans-30"/>
       <use x="63.623047" xlink:href="#DejaVuSans-2e"/>
       <use x="95.410156" xlink:href="#DejaVuSans-32"/>
       <use x="159.033203" xlink:href="#DejaVuSans-35"/>
      </g>
     </g>
    </g>
    <g id="ytick_3">
     <g id="line2d_6">
      <g>
       <use style="stroke:#000000;stroke-width:0.8;" x="13.5" xlink:href="#m87a7a48073" y="53.73"/>
      </g>
     </g>
     <g id="text_7">
      <!-- 0.5 -->
      <g transform="translate(-6.2225 56.769375)scale(0.08 -0.08)">
       <use xlink:href="#DejaVuSans-30"/>
       <use x="63.623047" xlink:href="#DejaVuSans-2e"/>
       <use x="95.410156" xlink:href="#DejaVuSans-35"/>
      </g>
     </g>
    </g>
    <g id="ytick_4">
     <g id="line2d_7">
      <g>
       <use style="stroke:#000000;stroke-width:0.8;" x="13.5" xlink:href="#m87a7a48073" y="33.345"/>
      </g>
     </g>
     <g id="text_8">
      <!-- 0.75 -->
      <g transform="translate(-11.3125 36.384375)scale(0.08 -0.08)">
       <defs>
        <path d="M 525 4666 
L 3525 4666 
L 3525 4397 
L 1831 0 
L 1172 0 
L 2766 4134 
L 525 4134 
L 525 4666 
z
" id="DejaVuSans-37" transform="scale(0.015625)"/>
       </defs>
       <use xlink:href="#DejaVuSans-30"/>
       <use x="63.623047" xlink:href="#DejaVuSans-2e"/>
       <use x="95.410156" xlink:href="#DejaVuSans-37"/>
       <use x="159.033203" xlink:href="#DejaVuSans-35"/>
      </g>
     </g>
    </g>
    <g id="ytick_5">
     <g id="line2d_8">
      <g>
       <use style="stroke:#000000;stroke-width:0.8;" x="13.5" xlink:href="#m87a7a48073" y="12.96"/>
      </g>
     </g>
     <g id="text_9">
      <!-- 1 -->
      <g transform="translate(1.41 15.999375)scale(0.08 -0.08)">
       <use xlink:href="#DejaVuSans-31"/>
      </g>
     </g>
    </g>
    <g id="text_10">
     <!-- Fraction bound -->
     <g transform="translate(-16.97625 83.565)rotate(-90)scale(0.08 -0.08)">
      <defs>
       <path d="M 628 4666 
L 3309 4666 
L 3309 4134 
L 1259 4134 
L 1259 2759 
L 3109 2759 
L 3109 2228 
L 1259 2228 
L 1259 0 
L 628 0 
L 628 4666 
z
" id="DejaVuSans-46" transform="scale(0.015625)"/>
       <path d="M 2631 2963 
Q 2534 3019 2420 3045 
Q 2306 3072 2169 3072 
Q 1681 3072 1420 2755 
Q 1159 2438 1159 1844 
L 1159 0 
L 581 0 
L 581 3500 
L 1159 3500 
L 1159 2956 
Q 1341 3275 1631 3429 
Q 1922 3584 2338 3584 
Q 2397 3584 2469 3576 
Q 2541 3569 2628 3553 
L 2631 2963 
z
" id="DejaVuSans-72" transform="scale(0.015625)"/>
       <path d="M 2194 1759 
Q 1497 1759 1228 1600 
Q 959 1441 959 1056 
Q 959 750 1161 570 
Q 1363 391 1709 391 
Q 2188 391 2477 730 
Q 2766 1069 2766 1631 
L 2766 1759 
L 2194 1759 
z
M 3341 1997 
L 3341 0 
L 2766 0 
L 2766 531 
Q 2569 213 2275 61 
Q 1981 -91 1556 -91 
Q 1019 -91 701 211 
Q 384 513 384 1019 
Q 384 1609 779 1909 
Q 1175 2209 1959 2209 
L 2766 2209 
L 2766 2266 
Q 2766 2663 2505 2880 
Q 2244 3097 1772 3097 
Q 1472 3097 1187 3025 
Q 903 2953 641 2809 
L 641 3341 
Q 956 3463 1253 3523 
Q 1550 3584 1831 3584 
Q 2591 3584 2966 3190 
Q 3341 2797 3341 1997 
z
" id="DejaVuSans-61" transform="scale(0.015625)"/>
       <path d="M 3122 3366 
L 3122 2828 
Q 2878 2963 2633 3030 
Q 2388 3097 2138 3097 
Q 1578 3097 1268 2742 
Q 959 2388 959 1747 
Q 959 1106 1268 751 
Q 1578 397 2138 397 
Q 2388 397 2633 464 
Q 2878 531 3122 666 
L 3122 134 
Q 2881 22 2623 -34 
Q 2366 -91 2075 -91 
Q 1284 -91 818 406 
Q 353 903 353 1747 
Q 353 2603 823 3093 
Q 1294 3584 2113 3584 
Q 2378 3584 2631 3529 
Q 2884 3475 3122 3366 
z
" id="DejaVuSans-63" transform="scale(0.015625)"/>
       <path d="M 1172 4494 
L 1172 3500 
L 2356 3500 
L 2356 3053 
L 1172 3053 
L 1172 1153 
Q 1172 725 1289 603 
Q 1406 481 1766 481 
L 2356 481 
L 2356 0 
L 1766 0 
Q 1100 0 847 248 
Q 594 497 594 1153 
L 594 3053 
L 172 3053 
L 172 3500 
L 594 3500 
L 594 4494 
L 1172 4494 
z
" id="DejaVuSans-74" transform="scale(0.015625)"/>
       <path d="M 1959 3097 
Q 1497 3097 1228 2736 
Q 959 2375 959 1747 
Q 959 1119 1226 758 
Q 1494 397 1959 397 
Q 2419 397 2687 759 
Q 2956 1122 2956 1747 
Q 2956 2369 2687 2733 
Q 2419 3097 1959 3097 
z
M 1959 3584 
Q 2709 3584 3137 3096 
Q 3566 2609 3566 1747 
Q 3566 888 3137 398 
Q 2709 -91 1959 -91 
Q 1206 -91 779 398 
Q 353 888 353 1747 
Q 353 2609 779 3096 
Q 1206 3584 1959 3584 
z
" id="DejaVuSans-6f" transform="scale(0.015625)"/>
       <path d="M 3513 2113 
L 3513 0 
L 2938 0 
L 2938 2094 
Q 2938 2591 2744 2837 
Q 2550 3084 2163 3084 
Q 1697 3084 1428 2787 
Q 1159 2491 1159 1978 
L 1159 0 
L 581 0 
L 581 3500 
L 1159 3500 
L 1159 2956 
Q 1366 3272 1645 3428 
Q 1925 3584 2291 3584 
Q 2894 3584 3203 3211 
Q 3513 2838 3513 2113 
z
" id="DejaVuSans-6e" transform="scale(0.015625)"/>
       <path d="M 3116 1747 
Q 3116 2381 2855 2742 
Q 2594 3103 2138 3103 
Q 1681 3103 1420 2742 
Q 1159 2381 1159 1747 
Q 1159 1113 1420 752 
Q 1681 391 2138 391 
Q 2594 391 2855 752 
Q 3116 1113 3116 1747 
z
M 1159 2969 
Q 1341 3281 1617 3432 
Q 1894 3584 2278 3584 
Q 2916 3584 3314 3078 
Q 3713 2572 3713 1747 
Q 3713 922 3314 415 
Q 2916 -91 2278 -91 
Q 1894 -91 1617 61 
Q 1341 213 1159 525 
L 1159 0 
L 581 0 
L 581 4863 
L 1159 4863 
L 1159 2969 
z
" id="DejaVuSans-62" transform="scale(0.015625)"/>
       <path d="M 544 1381 
L 544 3500 
L 1119 3500 
L 1119 1403 
Q 1119 906 1312 657 
Q 1506 409 1894 409 
Q 2359 409 2629 706 
Q 2900 1003 2900 1516 
L 2900 3500 
L 3475 3500 
L 3475 0 
L 2900 0 
L 2900 538 
Q 2691 219 2414 64 
Q 2138 -91 1772 -91 
Q 1169 -91 856 284 
Q 544 659 544 1381 
z
M 1991 3584 
L 1991 3584 
z
" id="DejaVuSans-75" transform="scale(0.015625)"/>
       <path d="M 2906 2969 
L 2906 4863 
L 3481 4863 
L 3481 0 
L 2906 0 
L 2906 525 
Q 2725 213 2448 61 
Q 2172 -91 1784 -91 
Q 1150 -91 751 415 
Q 353 922 353 1747 
Q 353 2572 751 3078 
Q 1150 3584 1784 3584 
Q 2172 3584 2448 3432 
Q 2725 3281 2906 2969 
z
M 947 1747 
Q 947 1113 1208 752 
Q 1469 391 1925 391 
Q 2381 391 2643 752 
Q 2906 1113 2906 1747 
Q 2906 2381 2643 2742 
Q 2381 3103 1925 3103 
Q 1469 3103 1208 2742 
Q 947 2381 947 1747 
z
" id="DejaVuSans-64" transform="scale(0.015625)"/>
      </defs>
      <use xlink:href="#DejaVuSans-46"/>
      <use x="50.269531" xlink:href="#DejaVuSans-72"/>
      <use x="91.382812" xlink:href="#DejaVuSans-61"/>
      <use x="152.662109" xlink:href="#DejaVuSans-63"/>
      <use x="207.642578" xlink:href="#DejaVuSans-74"/>
      <use x="246.851562" xlink:href="#DejaVuSans-69"/>
      <use x="274.634766" xlink:href="#DejaVuSans-6f"/>
      <use x="335.816406" xlink:href="#DejaVuSans-6e"/>
      <use x="399.195312" xlink:href="#DejaVuSans-20"/>
      <use x="430.982422" xlink:href="#DejaVuSans-62"/>
      <use x="494.458984" xlink:href="#DejaVuSans-6f"/>
      <use x="555.640625" xlink:href="#DejaVuSans-75"/>
      <use x="619.019531" xlink:href="#DejaVuSans-6e"/>
      <use x="682.398438" xlink:href="#DejaVuSans-64"/>
     </g>
    </g>
   </g>
   <g id="line2d_9">
    <path clip-path="url(#pe755c5b869)" d="M 17.304545 94.5 
L 17.690304 88.413569 
L 18.558261 81.733448 
L 18.654701 81.517895 
L 18.94402 78.984489 
L 19.233339 77.252688 
L 19.522658 74.190628 
L 19.811977 72.757396 
L 20.390615 70.383374 
L 20.679934 68.362115 
L 20.776374 68.078824 
L 21.451452 63.500018 
L 21.644331 62.49099 
L 21.93365 60.404702 
L 22.03009 60.237926 
L 22.705168 57.211585 
L 23.090926 53.796268 
L 23.862444 50.591321 
L 24.055323 50.16195 
L 24.248202 49.683793 
L 24.633961 48.895489 
L 25.309039 46.706477 
L 25.598358 46.196544 
L 25.887677 44.941907 
L 26.176996 44.490111 
L 26.369875 43.699105 
L 26.562755 42.437324 
L 26.755634 42.276954 
L 27.141393 41.122582 
L 27.334272 41.011732 
L 27.527152 40.503762 
L 27.623591 40.378127 
L 27.816471 39.865487 
L 28.973746 36.697501 
L 29.070186 36.65513 
L 29.938143 34.834888 
L 30.227462 34.686094 
L 30.420342 34.34196 
L 30.613221 34.232091 
L 31.191859 32.717558 
L 31.481178 32.424155 
L 32.349135 30.983544 
L 32.542015 30.309785 
L 33.024213 30.064181 
L 33.313532 29.610665 
L 33.506412 29.545626 
L 33.699291 29.34634 
L 33.795731 29.269477 
L 33.988611 28.815226 
L 34.181489 28.659774 
L 34.277929 28.639337 
L 34.663689 28.112145 
L 34.953006 27.920242 
L 35.145886 27.809391 
L 35.628084 27.167908 
L 35.724524 27.13761 
L 36.013842 26.688283 
L 36.399602 26.468054 
L 36.68892 26.350793 
L 36.97824 26.173669 
L 37.267558 25.748726 
L 37.749758 25.218341 
L 38.810594 24.369937 
L 39.099914 24.261298 
L 39.292792 24.037623 
L 39.582112 23.89351 
L 39.774992 23.855571 
L 40.25719 23.211867 
L 40.546508 23.109633 
L 40.642948 23.079831 
L 40.932267 22.814758 
L 41.221585 22.704884 
L 41.414465 22.433162 
L 41.607345 22.257768 
L 41.896663 22.177216 
L 42.571741 21.38203 
L 42.668181 21.36725 
L 42.861061 21.202199 
L 43.439699 21.089123 
L 44.114777 20.895008 
L 44.596975 20.729456 
L 44.886293 20.685112 
L 45.272053 20.312148 
L 45.947131 20.121226 
L 46.140009 19.92489 
L 46.525769 19.783241 
L 47.200846 19.441562 
L 47.393724 19.245731 
L 48.64744 18.992735 
L 49.515398 18.72373 
L 49.708278 18.624699 
L 51.154874 18.460878 
L 51.444192 18.368744 
L 51.829952 18.327355 
L 52.11927 18.034204 
L 53.855185 17.624527 
L 54.240941 17.487553 
L 55.880419 17.220516 
L 56.169737 17.090939 
L 56.555493 16.946087 
L 56.748373 16.83007 
L 59.641564 16.16397 
L 60.316642 16.040794 
L 60.79884 15.959989 
L 61.57036 15.907271 
L 61.763236 15.782865 
L 64.752869 15.411622 
L 66.488781 15.230551 
L 67.356739 15.158864 
L 69.189093 15.027805 
L 75.361232 14.610992 
L 75.65055 14.540778 
L 80.665413 14.280151 
L 83.365728 14.131372 
L 83.655046 14.057726 
L 85.873156 13.951298 
L 86.06604 13.848822 
L 93.395455 13.699795 
L 93.395455 13.699795 
" style="fill:none;stroke:#1f77b4;stroke-linecap:square;stroke-width:1.5;"/>
   </g>
   <g id="line2d_10">
    <path clip-path="url(#pe755c5b869)" d="M 17.304545 92.605119 
L 18.558261 81.528932 
L 19.811977 72.254977 
L 21.162133 63.925892 
L 22.512288 57.006306 
L 23.862444 51.237606 
L 25.212599 46.410002 
L 26.562755 42.353282 
L 28.00935 38.70573 
L 29.455945 35.647522 
L 30.99898 32.911522 
L 32.542015 30.614818 
L 34.181489 28.562017 
L 35.917404 26.737419 
L 37.749758 25.1216 
L 39.774992 23.628276 
L 41.993103 22.268232 
L 44.500535 20.998048 
L 47.297286 19.836046 
L 50.479796 18.759486 
L 54.144503 17.761117 
L 58.38785 16.843323 
L 63.306272 16.014083 
L 68.996213 15.283581 
L 75.746992 14.645694 
L 83.847922 14.109569 
L 93.395455 13.693156 
L 93.395455 13.693156 
" style="fill:none;stroke:#000000;stroke-linecap:square;stroke-width:1.5;"/>
   </g>
   <g id="patch_3">
    <path d="M 13.5 94.5 
L 13.5 12.96 
" style="fill:none;stroke:#000000;stroke-linecap:square;stroke-linejoin:miter;stroke-width:0.8;"/>
   </g>
   <g id="patch_4">
    <path d="M 97.2 94.5 
L 97.2 12.96 
" style="fill:none;stroke:#000000;stroke-linecap:square;stroke-linejoin:miter;stroke-width:0.8;"/>
   </g>
   <g id="patch_5">
    <path d="M 13.5 94.5 
L 97.2 94.5 
" style="fill:none;stroke:#000000;stroke-linecap:square;stroke-linejoin:miter;stroke-width:0.8;"/>
   </g>
   <g id="patch_6">
    <path d="M 13.5 12.96 
L 97.2 12.96 
" style="fill:none;stroke:#000000;stroke-linecap:square;stroke-linejoin:miter;stroke-width:0.8;"/>
   </g>
  </g>
 </g>
 <defs>
  <clipPath id="pe755c5b869">
   <rect height="81.54" width="83.7" x="13.5" y="12.96"/>
  </clipPath>
 </defs>
</svg>
