<?xml version="1.0" encoding="utf-8" standalone="no"?>
<!DOCTYPE svg PUBLIC "-//W3C//DTD SVG 1.1//EN"
  "http://www.w3.org/Graphics/SVG/1.1/DTD/svg11.dtd">
<svg height="90pt" version="1.1" viewBox="0 0 90 90" width="90pt" xmlns="http://www.w3.org/2000/svg" xmlns:xlink="http://www.w3.org/1999/xlink">
 <metadata>
  <rdf:RDF xmlns:cc="http://creativecommons.org/ns#" xmlns:dc="http://purl.org/dc/elements/1.1/" xmlns:rdf="http://www.w3.org/1999/02/22-rdf-syntax-ns#">
   <cc:Work>
    <dc:type rdf:resource="http://purl.org/dc/dcmitype/StillImage"/>
    <dc:date>2021-07-21T16:55:09.286187</dc:date>
    <dc:format>image/svg+xml</dc:format>
    <dc:creator>
     <cc:Agent>
      <dc:title>Matplotlib v3.4.2, https://matplotlib.org/</dc:title>
     </cc:Agent>
    </dc:creator>
   </cc:Work>
  </rdf:RDF>
 </metadata>
 <defs>
  <style type="text/css">*{stroke-linecap:butt;stroke-linejoin:round;}</style>
 </defs>
 <g id="figure_1">
  <g id="patch_1">
   <path d="M 0 90 
L 90 90 
L 90 0 
L 0 0 
z
" style="fill:none;"/>
  </g>
  <g id="axes_1">
   <g id="patch_2">
    <path d="M 11.25 78.75 
L 81 78.75 
L 81 10.8 
L 11.25 10.8 
z
" style="fill:#ffffff;"/>
   </g>
   <g id="patch_3">
    <path clip-path="url(#p06a2caac3a)" d="M 14.420455 14524.905208 
L 17.590909 14524.905208 
L 17.590909 16.353599 
L 14.420455 16.353599 
z
" style="fill:#dddddd;stroke:#000000;stroke-linejoin:miter;"/>
   </g>
   <g id="patch_4">
    <path clip-path="url(#p06a2caac3a)" d="M 17.590909 14524.905208 
L 20.761364 14524.905208 
L 20.761364 42.723376 
L 17.590909 42.723376 
z
" style="fill:#dddddd;stroke:#000000;stroke-linejoin:miter;"/>
   </g>
   <g id="patch_5">
    <path clip-path="url(#p06a2caac3a)" d="M 20.761364 14524.905208 
L 23.931818 14524.905208 
L 23.931818 48.181077 
L 20.761364 48.181077 
z
" style="fill:#dddddd;stroke:#000000;stroke-linejoin:miter;"/>
   </g>
   <g id="patch_6">
    <path clip-path="url(#p06a2caac3a)" d="M 23.931818 14524.905208 
L 27.102273 14524.905208 
L 27.102273 49.230205 
L 23.931818 49.230205 
z
" style="fill:#dddddd;stroke:#000000;stroke-linejoin:miter;"/>
   </g>
   <g id="patch_7">
    <path clip-path="url(#p06a2caac3a)" d="M 27.102273 14524.905208 
L 30.272727 14524.905208 
L 30.272727 47.715667 
L 27.102273 47.715667 
z
" style="fill:#dddddd;stroke:#000000;stroke-linejoin:miter;"/>
   </g>
   <g id="patch_8">
    <path clip-path="url(#p06a2caac3a)" d="M 30.272727 14524.905208 
L 33.443182 14524.905208 
L 33.443182 51.230147 
L 30.272727 51.230147 
z
" style="fill:#dddddd;stroke:#000000;stroke-linejoin:miter;"/>
   </g>
   <g id="patch_9">
    <path clip-path="url(#p06a2caac3a)" d="M 33.443182 14524.905208 
L 36.613636 14524.905208 
L 36.613636 51.230147 
L 33.443182 51.230147 
z
" style="fill:#dddddd;stroke:#000000;stroke-linejoin:miter;"/>
   </g>
   <g id="patch_10">
    <path clip-path="url(#p06a2caac3a)" d="M 36.613636 14524.905208 
L 39.784091 14524.905208 
L 39.784091 48.683759 
L 36.613636 48.683759 
z
" style="fill:#dddddd;stroke:#000000;stroke-linejoin:miter;"/>
   </g>
   <g id="patch_11">
    <path clip-path="url(#p06a2caac3a)" d="M 39.784091 14524.905208 
L 42.954545 14524.905208 
L 42.954545 48.683759 
L 39.784091 48.683759 
z
" style="fill:#dddddd;stroke:#000000;stroke-linejoin:miter;"/>
   </g>
   <g id="patch_12">
    <path clip-path="url(#p06a2caac3a)" d="M 42.954545 14524.905208 
L 46.125 14524.905208 
L 46.125 51.230147 
L 42.954545 51.230147 
z
" style="fill:#dddddd;stroke:#000000;stroke-linejoin:miter;"/>
   </g>
   <g id="patch_13">
    <path clip-path="url(#p06a2caac3a)" d="M 46.125 14524.905208 
L 49.295455 14524.905208 
L 49.295455 48.181077 
L 46.125 48.181077 
z
" style="fill:#dddddd;stroke:#000000;stroke-linejoin:miter;"/>
   </g>
   <g id="patch_14">
    <path clip-path="url(#p06a2caac3a)" d="M 49.295455 14524.905208 
L 52.465909 14524.905208 
L 52.465909 47.715667 
L 49.295455 47.715667 
z
" style="fill:#dddddd;stroke:#000000;stroke-linejoin:miter;"/>
   </g>
   <g id="patch_15">
    <path clip-path="url(#p06a2caac3a)" d="M 52.465909 14524.905208 
L 55.636364 14524.905208 
L 55.636364 51.230147 
L 52.465909 51.230147 
z
" style="fill:#dddddd;stroke:#000000;stroke-linejoin:miter;"/>
   </g>
   <g id="patch_16">
    <path clip-path="url(#p06a2caac3a)" d="M 55.636364 14524.905208 
L 58.806818 14524.905208 
L 58.806818 49.828768 
L 55.636364 49.828768 
z
" style="fill:#dddddd;stroke:#000000;stroke-linejoin:miter;"/>
   </g>
   <g id="patch_17">
    <path clip-path="url(#p06a2caac3a)" d="M 58.806818 14524.905208 
L 61.977273 14524.905208 
L 61.977273 49.828768 
L 58.806818 49.828768 
z
" style="fill:#dddddd;stroke:#000000;stroke-linejoin:miter;"/>
   </g>
   <g id="patch_18">
    <path clip-path="url(#p06a2caac3a)" d="M 61.977273 14524.905208 
L 65.147727 14524.905208 
L 65.147727 53.036838 
L 61.977273 53.036838 
z
" style="fill:#dddddd;stroke:#000000;stroke-linejoin:miter;"/>
   </g>
   <g id="patch_19">
    <path clip-path="url(#p06a2caac3a)" d="M 65.147727 14524.905208 
L 68.318182 14524.905208 
L 68.318182 47.28238 
L 65.147727 47.28238 
z
" style="fill:#dddddd;stroke:#000000;stroke-linejoin:miter;"/>
   </g>
   <g id="patch_20">
    <path clip-path="url(#p06a2caac3a)" d="M 68.318182 14524.905208 
L 71.488636 14524.905208 
L 71.488636 47.28238 
L 68.318182 47.28238 
z
" style="fill:#dddddd;stroke:#000000;stroke-linejoin:miter;"/>
   </g>
   <g id="patch_21">
    <path clip-path="url(#p06a2caac3a)" d="M 71.488636 14524.905208 
L 74.659091 14524.905208 
L 74.659091 43.362588 
L 71.488636 43.362588 
z
" style="fill:#dddddd;stroke:#000000;stroke-linejoin:miter;"/>
   </g>
   <g id="patch_22">
    <path clip-path="url(#p06a2caac3a)" d="M 74.659091 14524.905208 
L 77.829545 14524.905208 
L 77.829545 31.046553 
L 74.659091 31.046553 
z
" style="fill:#dddddd;stroke:#000000;stroke-linejoin:miter;"/>
   </g>
   <g id="patch_23">
    <path clip-path="url(#p06a2caac3a)" d="M 14.420455 14524.905208 
L 17.590909 14524.905208 
L 17.590909 44.877126 
L 14.420455 44.877126 
z
" style="fill:#2ca02c;opacity:0.6;stroke:#000000;stroke-linejoin:miter;"/>
   </g>
   <g id="patch_24">
    <path clip-path="url(#p06a2caac3a)" d="M 17.590909 14524.905208 
L 20.761364 14524.905208 
L 20.761364 46.137371 
L 17.590909 46.137371 
z
" style="fill:#2ca02c;opacity:0.6;stroke:#000000;stroke-linejoin:miter;"/>
   </g>
   <g id="patch_25">
    <path clip-path="url(#p06a2caac3a)" d="M 20.761364 14524.905208 
L 23.931818 14524.905208 
L 23.931818 48.683759 
L 20.761364 48.683759 
z
" style="fill:#2ca02c;opacity:0.6;stroke:#000000;stroke-linejoin:miter;"/>
   </g>
   <g id="patch_26">
    <path clip-path="url(#p06a2caac3a)" d="M 23.931818 14524.905208 
L 27.102273 14524.905208 
L 27.102273 51.230147 
L 23.931818 51.230147 
z
" style="fill:#2ca02c;opacity:0.6;stroke:#000000;stroke-linejoin:miter;"/>
   </g>
   <g id="patch_27">
    <path clip-path="url(#p06a2caac3a)" d="M 27.102273 14524.905208 
L 30.272727 14524.905208 
L 30.272727 48.683759 
L 27.102273 48.683759 
z
" style="fill:#2ca02c;opacity:0.6;stroke:#000000;stroke-linejoin:miter;"/>
   </g>
   <g id="patch_28">
    <path clip-path="url(#p06a2caac3a)" d="M 30.272727 14524.905208 
L 33.443182 14524.905208 
L 33.443182 52.068746 
L 30.272727 52.068746 
z
" style="fill:#2ca02c;opacity:0.6;stroke:#000000;stroke-linejoin:miter;"/>
   </g>
   <g id="patch_29">
    <path clip-path="url(#p06a2caac3a)" d="M 33.443182 14524.905208 
L 36.613636 14524.905208 
L 36.613636 51.230147 
L 33.443182 51.230147 
z
" style="fill:#2ca02c;opacity:0.6;stroke:#000000;stroke-linejoin:miter;"/>
   </g>
   <g id="patch_30">
    <path clip-path="url(#p06a2caac3a)" d="M 36.613636 14524.905208 
L 39.784091 14524.905208 
L 39.784091 50.49045 
L 36.613636 50.49045 
z
" style="fill:#2ca02c;opacity:0.6;stroke:#000000;stroke-linejoin:miter;"/>
   </g>
   <g id="patch_31">
    <path clip-path="url(#p06a2caac3a)" d="M 39.784091 14524.905208 
L 42.954545 14524.905208 
L 42.954545 48.683759 
L 39.784091 48.683759 
z
" style="fill:#2ca02c;opacity:0.6;stroke:#000000;stroke-linejoin:miter;"/>
   </g>
   <g id="patch_32">
    <path clip-path="url(#p06a2caac3a)" d="M 42.954545 14524.905208 
L 46.125 14524.905208 
L 46.125 51.230147 
L 42.954545 51.230147 
z
" style="fill:#2ca02c;opacity:0.6;stroke:#000000;stroke-linejoin:miter;"/>
   </g>
   <g id="patch_33">
    <path clip-path="url(#p06a2caac3a)" d="M 46.125 14524.905208 
L 49.295455 14524.905208 
L 49.295455 49.230205 
L 46.125 49.230205 
z
" style="fill:#2ca02c;opacity:0.6;stroke:#000000;stroke-linejoin:miter;"/>
   </g>
   <g id="patch_34">
    <path clip-path="url(#p06a2caac3a)" d="M 49.295455 14524.905208 
L 52.465909 14524.905208 
L 52.465909 48.181077 
L 49.295455 48.181077 
z
" style="fill:#2ca02c;opacity:0.6;stroke:#000000;stroke-linejoin:miter;"/>
   </g>
   <g id="patch_35">
    <path clip-path="url(#p06a2caac3a)" d="M 52.465909 14524.905208 
L 55.636364 14524.905208 
L 55.636364 51.230147 
L 52.465909 51.230147 
z
" style="fill:#2ca02c;opacity:0.6;stroke:#000000;stroke-linejoin:miter;"/>
   </g>
   <g id="patch_36">
    <path clip-path="url(#p06a2caac3a)" d="M 55.636364 14524.905208 
L 58.806818 14524.905208 
L 58.806818 50.49045 
L 55.636364 50.49045 
z
" style="fill:#2ca02c;opacity:0.6;stroke:#000000;stroke-linejoin:miter;"/>
   </g>
   <g id="patch_37">
    <path clip-path="url(#p06a2caac3a)" d="M 58.806818 14524.905208 
L 61.977273 14524.905208 
L 61.977273 50.49045 
L 58.806818 50.49045 
z
" style="fill:#2ca02c;opacity:0.6;stroke:#000000;stroke-linejoin:miter;"/>
   </g>
   <g id="patch_38">
    <path clip-path="url(#p06a2caac3a)" d="M 61.977273 14524.905208 
L 65.147727 14524.905208 
L 65.147727 53.036838 
L 61.977273 53.036838 
z
" style="fill:#2ca02c;opacity:0.6;stroke:#000000;stroke-linejoin:miter;"/>
   </g>
   <g id="patch_39">
    <path clip-path="url(#p06a2caac3a)" d="M 65.147727 14524.905208 
L 68.318182 14524.905208 
L 68.318182 47.715667 
L 65.147727 47.715667 
z
" style="fill:#2ca02c;opacity:0.6;stroke:#000000;stroke-linejoin:miter;"/>
   </g>
   <g id="patch_40">
    <path clip-path="url(#p06a2caac3a)" d="M 68.318182 14524.905208 
L 71.488636 14524.905208 
L 71.488636 47.28238 
L 68.318182 47.28238 
z
" style="fill:#2ca02c;opacity:0.6;stroke:#000000;stroke-linejoin:miter;"/>
   </g>
   <g id="patch_41">
    <path clip-path="url(#p06a2caac3a)" d="M 71.488636 14524.905208 
L 74.659091 14524.905208 
L 74.659091 44.074311 
L 71.488636 44.074311 
z
" style="fill:#2ca02c;opacity:0.6;stroke:#000000;stroke-linejoin:miter;"/>
   </g>
   <g id="patch_42">
    <path clip-path="url(#p06a2caac3a)" d="M 74.659091 14524.905208 
L 77.829545 14524.905208 
L 77.829545 31.271442 
L 74.659091 31.271442 
z
" style="fill:#2ca02c;opacity:0.6;stroke:#000000;stroke-linejoin:miter;"/>
   </g>
   <g id="matplotlib.axis_1">
    <g id="xtick_1">
     <g id="line2d_1">
      <defs>
       <path d="M 0 0 
L 0 3.5 
" id="md89c3c7d49" style="stroke:#000000;stroke-width:0.8;"/>
      </defs>
      <g>
       <use style="stroke:#000000;stroke-width:0.8;" x="14.420455" xlink:href="#md89c3c7d49" y="78.75"/>
      </g>
     </g>
     <g id="text_1">
      <!-- 0 -->
      <g transform="translate(11.875455 91.82875)scale(0.08 -0.08)">
       <defs>
        <path d="M 2034 4250 
Q 1547 4250 1301 3770 
Q 1056 3291 1056 2328 
Q 1056 1369 1301 889 
Q 1547 409 2034 409 
Q 2525 409 2770 889 
Q 3016 1369 3016 2328 
Q 3016 3291 2770 3770 
Q 2525 4250 2034 4250 
z
M 2034 4750 
Q 2819 4750 3233 4129 
Q 3647 3509 3647 2328 
Q 3647 1150 3233 529 
Q 2819 -91 2034 -91 
Q 1250 -91 836 529 
Q 422 1150 422 2328 
Q 422 3509 836 4129 
Q 1250 4750 2034 4750 
z
" id="DejaVuSans-30" transform="scale(0.015625)"/>
       </defs>
       <use xlink:href="#DejaVuSans-30"/>
      </g>
     </g>
    </g>
    <g id="xtick_2">
     <g id="line2d_2">
      <g>
       <use style="stroke:#000000;stroke-width:0.8;" x="46.125" xlink:href="#md89c3c7d49" y="78.75"/>
      </g>
     </g>
     <g id="text_2">
      <!-- 0.5 -->
      <g transform="translate(39.76375 91.82875)scale(0.08 -0.08)">
       <defs>
        <path d="M 684 794 
L 1344 794 
L 1344 0 
L 684 0 
L 684 794 
z
" id="DejaVuSans-2e" transform="scale(0.015625)"/>
        <path d="M 691 4666 
L 3169 4666 
L 3169 4134 
L 1269 4134 
L 1269 2991 
Q 1406 3038 1543 3061 
Q 1681 3084 1819 3084 
Q 2600 3084 3056 2656 
Q 3513 2228 3513 1497 
Q 3513 744 3044 326 
Q 2575 -91 1722 -91 
Q 1428 -91 1123 -41 
Q 819 9 494 109 
L 494 744 
Q 775 591 1075 516 
Q 1375 441 1709 441 
Q 2250 441 2565 725 
Q 2881 1009 2881 1497 
Q 2881 1984 2565 2268 
Q 2250 2553 1709 2553 
Q 1456 2553 1204 2497 
Q 953 2441 691 2322 
L 691 4666 
z
" id="DejaVuSans-35" transform="scale(0.015625)"/>
       </defs>
       <use xlink:href="#DejaVuSans-30"/>
       <use x="63.623047" xlink:href="#DejaVuSans-2e"/>
       <use x="95.410156" xlink:href="#DejaVuSans-35"/>
      </g>
     </g>
    </g>
    <g id="xtick_3">
     <g id="line2d_3">
      <g>
       <use style="stroke:#000000;stroke-width:0.8;" x="77.829545" xlink:href="#md89c3c7d49" y="78.75"/>
      </g>
     </g>
     <g id="text_3">
      <!-- 1 -->
      <g transform="translate(75.284545 91.82875)scale(0.08 -0.08)">
       <defs>
        <path d="M 794 531 
L 1825 531 
L 1825 4091 
L 703 3866 
L 703 4441 
L 1819 4666 
L 2450 4666 
L 2450 531 
L 3481 531 
L 3481 0 
L 794 0 
L 794 531 
z
" id="DejaVuSans-31" transform="scale(0.015625)"/>
       </defs>
       <use xlink:href="#DejaVuSans-31"/>
      </g>
     </g>
    </g>
    <g id="text_4">
     <!-- $p(\mathsf{specific})$ -->
     <g transform="translate(25.325 103.5725)scale(0.08 -0.08)">
      <defs>
       <path d="M 3175 2156 
Q 3175 2616 2975 2859 
Q 2775 3103 2400 3103 
Q 2144 3103 1911 2972 
Q 1678 2841 1497 2591 
Q 1319 2344 1212 1994 
Q 1106 1644 1106 1300 
Q 1106 863 1306 627 
Q 1506 391 1875 391 
Q 2147 391 2380 519 
Q 2613 647 2778 891 
Q 2956 1147 3065 1494 
Q 3175 1841 3175 2156 
z
M 1394 2969 
Q 1625 3272 1939 3428 
Q 2253 3584 2638 3584 
Q 3175 3584 3472 3232 
Q 3769 2881 3769 2247 
Q 3769 1728 3584 1258 
Q 3400 788 3053 416 
Q 2822 169 2531 39 
Q 2241 -91 1919 -91 
Q 1547 -91 1294 64 
Q 1041 219 916 525 
L 556 -1331 
L -19 -1331 
L 922 3500 
L 1497 3500 
L 1394 2969 
z
" id="DejaVuSans-Oblique-70" transform="scale(0.015625)"/>
       <path d="M 1984 4856 
Q 1566 4138 1362 3434 
Q 1159 2731 1159 2009 
Q 1159 1288 1364 580 
Q 1569 -128 1984 -844 
L 1484 -844 
Q 1016 -109 783 600 
Q 550 1309 550 2009 
Q 550 2706 781 3412 
Q 1013 4119 1484 4856 
L 1984 4856 
z
" id="DejaVuSans-28" transform="scale(0.015625)"/>
       <path d="M 2834 3397 
L 2834 2853 
Q 2591 2978 2328 3040 
Q 2066 3103 1784 3103 
Q 1356 3103 1142 2972 
Q 928 2841 928 2578 
Q 928 2378 1081 2264 
Q 1234 2150 1697 2047 
L 1894 2003 
Q 2506 1872 2764 1633 
Q 3022 1394 3022 966 
Q 3022 478 2636 193 
Q 2250 -91 1575 -91 
Q 1294 -91 989 -36 
Q 684 19 347 128 
L 347 722 
Q 666 556 975 473 
Q 1284 391 1588 391 
Q 1994 391 2212 530 
Q 2431 669 2431 922 
Q 2431 1156 2273 1281 
Q 2116 1406 1581 1522 
L 1381 1569 
Q 847 1681 609 1914 
Q 372 2147 372 2553 
Q 372 3047 722 3315 
Q 1072 3584 1716 3584 
Q 2034 3584 2315 3537 
Q 2597 3491 2834 3397 
z
" id="DejaVuSans-73" transform="scale(0.015625)"/>
       <path d="M 1159 525 
L 1159 -1331 
L 581 -1331 
L 581 3500 
L 1159 3500 
L 1159 2969 
Q 1341 3281 1617 3432 
Q 1894 3584 2278 3584 
Q 2916 3584 3314 3078 
Q 3713 2572 3713 1747 
Q 3713 922 3314 415 
Q 2916 -91 2278 -91 
Q 1894 -91 1617 61 
Q 1341 213 1159 525 
z
M 3116 1747 
Q 3116 2381 2855 2742 
Q 2594 3103 2138 3103 
Q 1681 3103 1420 2742 
Q 1159 2381 1159 1747 
Q 1159 1113 1420 752 
Q 1681 391 2138 391 
Q 2594 391 2855 752 
Q 3116 1113 3116 1747 
z
" id="DejaVuSans-70" transform="scale(0.015625)"/>
       <path d="M 3597 1894 
L 3597 1613 
L 953 1613 
Q 991 1019 1311 708 
Q 1631 397 2203 397 
Q 2534 397 2845 478 
Q 3156 559 3463 722 
L 3463 178 
Q 3153 47 2828 -22 
Q 2503 -91 2169 -91 
Q 1331 -91 842 396 
Q 353 884 353 1716 
Q 353 2575 817 3079 
Q 1281 3584 2069 3584 
Q 2775 3584 3186 3129 
Q 3597 2675 3597 1894 
z
M 3022 2063 
Q 3016 2534 2758 2815 
Q 2500 3097 2075 3097 
Q 1594 3097 1305 2825 
Q 1016 2553 972 2059 
L 3022 2063 
z
" id="DejaVuSans-65" transform="scale(0.015625)"/>
       <path d="M 3122 3366 
L 3122 2828 
Q 2878 2963 2633 3030 
Q 2388 3097 2138 3097 
Q 1578 3097 1268 2742 
Q 959 2388 959 1747 
Q 959 1106 1268 751 
Q 1578 397 2138 397 
Q 2388 397 2633 464 
Q 2878 531 3122 666 
L 3122 134 
Q 2881 22 2623 -34 
Q 2366 -91 2075 -91 
Q 1284 -91 818 406 
Q 353 903 353 1747 
Q 353 2603 823 3093 
Q 1294 3584 2113 3584 
Q 2378 3584 2631 3529 
Q 2884 3475 3122 3366 
z
" id="DejaVuSans-63" transform="scale(0.015625)"/>
       <path d="M 603 3500 
L 1178 3500 
L 1178 0 
L 603 0 
L 603 3500 
z
M 603 4863 
L 1178 4863 
L 1178 4134 
L 603 4134 
L 603 4863 
z
" id="DejaVuSans-69" transform="scale(0.015625)"/>
       <path d="M 2375 4863 
L 2375 4384 
L 1825 4384 
Q 1516 4384 1395 4259 
Q 1275 4134 1275 3809 
L 1275 3500 
L 2222 3500 
L 2222 3053 
L 1275 3053 
L 1275 0 
L 697 0 
L 697 3053 
L 147 3053 
L 147 3500 
L 697 3500 
L 697 3744 
Q 697 4328 969 4595 
Q 1241 4863 1831 4863 
L 2375 4863 
z
" id="DejaVuSans-66" transform="scale(0.015625)"/>
       <path d="M 513 4856 
L 1013 4856 
Q 1481 4119 1714 3412 
Q 1947 2706 1947 2009 
Q 1947 1309 1714 600 
Q 1481 -109 1013 -844 
L 513 -844 
Q 928 -128 1133 580 
Q 1338 1288 1338 2009 
Q 1338 2731 1133 3434 
Q 928 4138 513 4856 
z
" id="DejaVuSans-29" transform="scale(0.015625)"/>
      </defs>
      <use transform="translate(0 0.015625)" xlink:href="#DejaVuSans-Oblique-70"/>
      <use transform="translate(63.476562 0.015625)" xlink:href="#DejaVuSans-28"/>
      <use transform="translate(102.490234 0.015625)" xlink:href="#DejaVuSans-73"/>
      <use transform="translate(154.589844 0.015625)" xlink:href="#DejaVuSans-70"/>
      <use transform="translate(218.066406 0.015625)" xlink:href="#DejaVuSans-65"/>
      <use transform="translate(279.589844 0.015625)" xlink:href="#DejaVuSans-63"/>
      <use transform="translate(334.570312 0.015625)" xlink:href="#DejaVuSans-69"/>
      <use transform="translate(362.353516 0.015625)" xlink:href="#DejaVuSans-66"/>
      <use transform="translate(397.558594 0.015625)" xlink:href="#DejaVuSans-69"/>
      <use transform="translate(425.341797 0.015625)" xlink:href="#DejaVuSans-63"/>
      <use transform="translate(480.322266 0.015625)" xlink:href="#DejaVuSans-29"/>
     </g>
    </g>
   </g>
   <g id="matplotlib.axis_2"/>
   <g id="patch_43">
    <path d="M 11.25 78.75 
L 11.25 10.8 
" style="fill:none;stroke:#000000;stroke-linecap:square;stroke-linejoin:miter;stroke-width:0.8;"/>
   </g>
   <g id="patch_44">
    <path d="M 81 78.75 
L 81 10.8 
" style="fill:none;stroke:#000000;stroke-linecap:square;stroke-linejoin:miter;stroke-width:0.8;"/>
   </g>
   <g id="patch_45">
    <path d="M 11.25 78.75 
L 81 78.75 
" style="fill:none;stroke:#000000;stroke-linecap:square;stroke-linejoin:miter;stroke-width:0.8;"/>
   </g>
   <g id="patch_46">
    <path d="M 11.25 10.8 
L 81 10.8 
" style="fill:none;stroke:#000000;stroke-linecap:square;stroke-linejoin:miter;stroke-width:0.8;"/>
   </g>
  </g>
 </g>
 <defs>
  <clipPath id="p06a2caac3a">
   <rect height="67.95" width="69.75" x="11.25" y="10.8"/>
  </clipPath>
 </defs>
</svg>
