<?xml version="1.0" encoding="utf-8" standalone="no"?>
<!DOCTYPE svg PUBLIC "-//W3C//DTD SVG 1.1//EN"
  "http://www.w3.org/Graphics/SVG/1.1/DTD/svg11.dtd">
<svg height="90pt" version="1.1" viewBox="0 0 90 90" width="90pt" xmlns="http://www.w3.org/2000/svg" xmlns:xlink="http://www.w3.org/1999/xlink">
 <metadata>
  <rdf:RDF xmlns:cc="http://creativecommons.org/ns#" xmlns:dc="http://purl.org/dc/elements/1.1/" xmlns:rdf="http://www.w3.org/1999/02/22-rdf-syntax-ns#">
   <cc:Work>
    <dc:type rdf:resource="http://purl.org/dc/dcmitype/StillImage"/>
    <dc:date>2021-07-12T23:22:45.736929</dc:date>
    <dc:format>image/svg+xml</dc:format>
    <dc:creator>
     <cc:Agent>
      <dc:title>Matplotlib v3.4.2, https://matplotlib.org/</dc:title>
     </cc:Agent>
    </dc:creator>
   </cc:Work>
  </rdf:RDF>
 </metadata>
 <defs>
  <style type="text/css">*{stroke-linecap:butt;stroke-linejoin:round;}</style>
 </defs>
 <g id="figure_1">
  <g id="patch_1">
   <path d="M 0 90 
L 90 90 
L 90 0 
L 0 0 
z
" style="fill:none;"/>
  </g>
  <g id="axes_1">
   <g id="patch_2">
    <path d="M 11.25 78.75 
L 81 78.75 
L 81 10.8 
L 11.25 10.8 
z
" style="fill:#ffffff;"/>
   </g>
   <g id="patch_3">
    <path clip-path="url(#pc4b564d0dd)" d="M 14.420455 14524.905208 
L 17.590909 14524.905208 
L 17.590909 16.359684 
L 14.420455 16.359684 
z
" style="fill:#dddddd;stroke:#000000;stroke-linejoin:miter;"/>
   </g>
   <g id="patch_4">
    <path clip-path="url(#pc4b564d0dd)" d="M 17.590909 14524.905208 
L 20.761364 14524.905208 
L 20.761364 53.036838 
L 17.590909 53.036838 
z
" style="fill:#dddddd;stroke:#000000;stroke-linejoin:miter;"/>
   </g>
   <g id="patch_5">
    <path clip-path="url(#pc4b564d0dd)" d="M 20.761364 14524.905208 
L 23.931818 14524.905208 
L 23.931818 57.389917 
L 20.761364 57.389917 
z
" style="fill:#dddddd;stroke:#000000;stroke-linejoin:miter;"/>
   </g>
   <g id="patch_6">
    <path clip-path="url(#pc4b564d0dd)" d="M 23.931818 14524.905208 
L 27.102273 14524.905208 
L 27.102273 59.936305 
L 23.931818 59.936305 
z
" style="fill:#dddddd;stroke:#000000;stroke-linejoin:miter;"/>
   </g>
   <g id="patch_7">
    <path clip-path="url(#pc4b564d0dd)" d="M 27.102273 14524.905208 
L 30.272727 14524.905208 
L 30.272727 64.289384 
L 27.102273 64.289384 
z
" style="fill:#dddddd;stroke:#000000;stroke-linejoin:miter;"/>
   </g>
   <g id="patch_8">
    <path clip-path="url(#pc4b564d0dd)" d="M 30.272727 14524.905208 
L 33.443182 14524.905208 
L 33.443182 64.289384 
L 30.272727 64.289384 
z
" style="fill:#dddddd;stroke:#000000;stroke-linejoin:miter;"/>
   </g>
   <g id="patch_9">
    <path clip-path="url(#pc4b564d0dd)" d="M 33.443182 14524.905208 
L 36.613636 14524.905208 
L 36.613636 64.289384 
L 33.443182 64.289384 
z
" style="fill:#dddddd;stroke:#000000;stroke-linejoin:miter;"/>
   </g>
   <g id="patch_10">
    <path clip-path="url(#pc4b564d0dd)" d="M 36.613636 14524.905208 
L 39.784091 14524.905208 
L 39.784091 14524.905208 
L 36.613636 14524.905208 
z
" style="fill:#dddddd;stroke:#000000;stroke-linejoin:miter;"/>
   </g>
   <g id="patch_11">
    <path clip-path="url(#pc4b564d0dd)" d="M 39.784091 14524.905208 
L 42.954545 14524.905208 
L 42.954545 14524.905208 
L 39.784091 14524.905208 
z
" style="fill:#dddddd;stroke:#000000;stroke-linejoin:miter;"/>
   </g>
   <g id="patch_12">
    <path clip-path="url(#pc4b564d0dd)" d="M 42.954545 14524.905208 
L 46.125 14524.905208 
L 46.125 64.289384 
L 42.954545 64.289384 
z
" style="fill:#dddddd;stroke:#000000;stroke-linejoin:miter;"/>
   </g>
   <g id="patch_13">
    <path clip-path="url(#pc4b564d0dd)" d="M 46.125 14524.905208 
L 49.295455 14524.905208 
L 49.295455 14524.905208 
L 46.125 14524.905208 
z
" style="fill:#dddddd;stroke:#000000;stroke-linejoin:miter;"/>
   </g>
   <g id="patch_14">
    <path clip-path="url(#pc4b564d0dd)" d="M 49.295455 14524.905208 
L 52.465909 14524.905208 
L 52.465909 14524.905208 
L 49.295455 14524.905208 
z
" style="fill:#dddddd;stroke:#000000;stroke-linejoin:miter;"/>
   </g>
   <g id="patch_15">
    <path clip-path="url(#pc4b564d0dd)" d="M 52.465909 14524.905208 
L 55.636364 14524.905208 
L 55.636364 14524.905208 
L 52.465909 14524.905208 
z
" style="fill:#dddddd;stroke:#000000;stroke-linejoin:miter;"/>
   </g>
   <g id="patch_16">
    <path clip-path="url(#pc4b564d0dd)" d="M 55.636364 14524.905208 
L 58.806818 14524.905208 
L 58.806818 14524.905208 
L 55.636364 14524.905208 
z
" style="fill:#dddddd;stroke:#000000;stroke-linejoin:miter;"/>
   </g>
   <g id="patch_17">
    <path clip-path="url(#pc4b564d0dd)" d="M 58.806818 14524.905208 
L 61.977273 14524.905208 
L 61.977273 64.289384 
L 58.806818 64.289384 
z
" style="fill:#dddddd;stroke:#000000;stroke-linejoin:miter;"/>
   </g>
   <g id="patch_18">
    <path clip-path="url(#pc4b564d0dd)" d="M 61.977273 14524.905208 
L 65.147727 14524.905208 
L 65.147727 14524.905208 
L 61.977273 14524.905208 
z
" style="fill:#dddddd;stroke:#000000;stroke-linejoin:miter;"/>
   </g>
   <g id="patch_19">
    <path clip-path="url(#pc4b564d0dd)" d="M 65.147727 14524.905208 
L 68.318182 14524.905208 
L 68.318182 14524.905208 
L 65.147727 14524.905208 
z
" style="fill:#dddddd;stroke:#000000;stroke-linejoin:miter;"/>
   </g>
   <g id="patch_20">
    <path clip-path="url(#pc4b564d0dd)" d="M 68.318182 14524.905208 
L 71.488636 14524.905208 
L 71.488636 64.289384 
L 68.318182 64.289384 
z
" style="fill:#dddddd;stroke:#000000;stroke-linejoin:miter;"/>
   </g>
   <g id="patch_21">
    <path clip-path="url(#pc4b564d0dd)" d="M 71.488636 14524.905208 
L 74.659091 14524.905208 
L 74.659091 54.181847 
L 71.488636 54.181847 
z
" style="fill:#dddddd;stroke:#000000;stroke-linejoin:miter;"/>
   </g>
   <g id="patch_22">
    <path clip-path="url(#pc4b564d0dd)" d="M 74.659091 14524.905208 
L 77.829545 14524.905208 
L 77.829545 26.430796 
L 74.659091 26.430796 
z
" style="fill:#dddddd;stroke:#000000;stroke-linejoin:miter;"/>
   </g>
   <g id="patch_23">
    <path clip-path="url(#pc4b564d0dd)" d="M 14.420455 14524.905208 
L 17.590909 14524.905208 
L 17.590909 54.181847 
L 14.420455 54.181847 
z
" style="fill:#2ca02c;opacity:0.6;stroke:#000000;stroke-linejoin:miter;"/>
   </g>
   <g id="patch_24">
    <path clip-path="url(#pc4b564d0dd)" d="M 17.590909 14524.905208 
L 20.761364 14524.905208 
L 20.761364 14524.905208 
L 17.590909 14524.905208 
z
" style="fill:#2ca02c;opacity:0.6;stroke:#000000;stroke-linejoin:miter;"/>
   </g>
   <g id="patch_25">
    <path clip-path="url(#pc4b564d0dd)" d="M 20.761364 14524.905208 
L 23.931818 14524.905208 
L 23.931818 14524.905208 
L 20.761364 14524.905208 
z
" style="fill:#2ca02c;opacity:0.6;stroke:#000000;stroke-linejoin:miter;"/>
   </g>
   <g id="patch_26">
    <path clip-path="url(#pc4b564d0dd)" d="M 23.931818 14524.905208 
L 27.102273 14524.905208 
L 27.102273 14524.905208 
L 23.931818 14524.905208 
z
" style="fill:#2ca02c;opacity:0.6;stroke:#000000;stroke-linejoin:miter;"/>
   </g>
   <g id="patch_27">
    <path clip-path="url(#pc4b564d0dd)" d="M 27.102273 14524.905208 
L 30.272727 14524.905208 
L 30.272727 14524.905208 
L 27.102273 14524.905208 
z
" style="fill:#2ca02c;opacity:0.6;stroke:#000000;stroke-linejoin:miter;"/>
   </g>
   <g id="patch_28">
    <path clip-path="url(#pc4b564d0dd)" d="M 30.272727 14524.905208 
L 33.443182 14524.905208 
L 33.443182 14524.905208 
L 30.272727 14524.905208 
z
" style="fill:#2ca02c;opacity:0.6;stroke:#000000;stroke-linejoin:miter;"/>
   </g>
   <g id="patch_29">
    <path clip-path="url(#pc4b564d0dd)" d="M 33.443182 14524.905208 
L 36.613636 14524.905208 
L 36.613636 14524.905208 
L 33.443182 14524.905208 
z
" style="fill:#2ca02c;opacity:0.6;stroke:#000000;stroke-linejoin:miter;"/>
   </g>
   <g id="patch_30">
    <path clip-path="url(#pc4b564d0dd)" d="M 36.613636 14524.905208 
L 39.784091 14524.905208 
L 39.784091 14524.905208 
L 36.613636 14524.905208 
z
" style="fill:#2ca02c;opacity:0.6;stroke:#000000;stroke-linejoin:miter;"/>
   </g>
   <g id="patch_31">
    <path clip-path="url(#pc4b564d0dd)" d="M 39.784091 14524.905208 
L 42.954545 14524.905208 
L 42.954545 14524.905208 
L 39.784091 14524.905208 
z
" style="fill:#2ca02c;opacity:0.6;stroke:#000000;stroke-linejoin:miter;"/>
   </g>
   <g id="patch_32">
    <path clip-path="url(#pc4b564d0dd)" d="M 42.954545 14524.905208 
L 46.125 14524.905208 
L 46.125 14524.905208 
L 42.954545 14524.905208 
z
" style="fill:#2ca02c;opacity:0.6;stroke:#000000;stroke-linejoin:miter;"/>
   </g>
   <g id="patch_33">
    <path clip-path="url(#pc4b564d0dd)" d="M 46.125 14524.905208 
L 49.295455 14524.905208 
L 49.295455 14524.905208 
L 46.125 14524.905208 
z
" style="fill:#2ca02c;opacity:0.6;stroke:#000000;stroke-linejoin:miter;"/>
   </g>
   <g id="patch_34">
    <path clip-path="url(#pc4b564d0dd)" d="M 49.295455 14524.905208 
L 52.465909 14524.905208 
L 52.465909 14524.905208 
L 49.295455 14524.905208 
z
" style="fill:#2ca02c;opacity:0.6;stroke:#000000;stroke-linejoin:miter;"/>
   </g>
   <g id="patch_35">
    <path clip-path="url(#pc4b564d0dd)" d="M 52.465909 14524.905208 
L 55.636364 14524.905208 
L 55.636364 14524.905208 
L 52.465909 14524.905208 
z
" style="fill:#2ca02c;opacity:0.6;stroke:#000000;stroke-linejoin:miter;"/>
   </g>
   <g id="patch_36">
    <path clip-path="url(#pc4b564d0dd)" d="M 55.636364 14524.905208 
L 58.806818 14524.905208 
L 58.806818 14524.905208 
L 55.636364 14524.905208 
z
" style="fill:#2ca02c;opacity:0.6;stroke:#000000;stroke-linejoin:miter;"/>
   </g>
   <g id="patch_37">
    <path clip-path="url(#pc4b564d0dd)" d="M 58.806818 14524.905208 
L 61.977273 14524.905208 
L 61.977273 14524.905208 
L 58.806818 14524.905208 
z
" style="fill:#2ca02c;opacity:0.6;stroke:#000000;stroke-linejoin:miter;"/>
   </g>
   <g id="patch_38">
    <path clip-path="url(#pc4b564d0dd)" d="M 61.977273 14524.905208 
L 65.147727 14524.905208 
L 65.147727 14524.905208 
L 61.977273 14524.905208 
z
" style="fill:#2ca02c;opacity:0.6;stroke:#000000;stroke-linejoin:miter;"/>
   </g>
   <g id="patch_39">
    <path clip-path="url(#pc4b564d0dd)" d="M 65.147727 14524.905208 
L 68.318182 14524.905208 
L 68.318182 14524.905208 
L 65.147727 14524.905208 
z
" style="fill:#2ca02c;opacity:0.6;stroke:#000000;stroke-linejoin:miter;"/>
   </g>
   <g id="patch_40">
    <path clip-path="url(#pc4b564d0dd)" d="M 68.318182 14524.905208 
L 71.488636 14524.905208 
L 71.488636 14524.905208 
L 68.318182 14524.905208 
z
" style="fill:#2ca02c;opacity:0.6;stroke:#000000;stroke-linejoin:miter;"/>
   </g>
   <g id="patch_41">
    <path clip-path="url(#pc4b564d0dd)" d="M 71.488636 14524.905208 
L 74.659091 14524.905208 
L 74.659091 55.583226 
L 71.488636 55.583226 
z
" style="fill:#2ca02c;opacity:0.6;stroke:#000000;stroke-linejoin:miter;"/>
   </g>
   <g id="patch_42">
    <path clip-path="url(#pc4b564d0dd)" d="M 74.659091 14524.905208 
L 77.829545 14524.905208 
L 77.829545 26.522257 
L 74.659091 26.522257 
z
" style="fill:#2ca02c;opacity:0.6;stroke:#000000;stroke-linejoin:miter;"/>
   </g>
   <g id="matplotlib.axis_1">
    <g id="xtick_1">
     <g id="line2d_1">
      <defs>
       <path d="M 0 0 
L 0 3.5 
" id="m0fc1869399" style="stroke:#000000;stroke-width:0.8;"/>
      </defs>
      <g>
       <use style="stroke:#000000;stroke-width:0.8;" x="14.420455" xlink:href="#m0fc1869399" y="78.75"/>
      </g>
     </g>
     <g id="text_1">
      <!-- 0 -->
      <g transform="translate(11.875455 91.82875)scale(0.08 -0.08)">
       <defs>
        <path d="M 2034 4250 
Q 1547 4250 1301 3770 
Q 1056 3291 1056 2328 
Q 1056 1369 1301 889 
Q 1547 409 2034 409 
Q 2525 409 2770 889 
Q 3016 1369 3016 2328 
Q 3016 3291 2770 3770 
Q 2525 4250 2034 4250 
z
M 2034 4750 
Q 2819 4750 3233 4129 
Q 3647 3509 3647 2328 
Q 3647 1150 3233 529 
Q 2819 -91 2034 -91 
Q 1250 -91 836 529 
Q 422 1150 422 2328 
Q 422 3509 836 4129 
Q 1250 4750 2034 4750 
z
" id="DejaVuSans-30" transform="scale(0.015625)"/>
       </defs>
       <use xlink:href="#DejaVuSans-30"/>
      </g>
     </g>
    </g>
    <g id="xtick_2">
     <g id="line2d_2">
      <g>
       <use style="stroke:#000000;stroke-width:0.8;" x="46.125" xlink:href="#m0fc1869399" y="78.75"/>
      </g>
     </g>
     <g id="text_2">
      <!-- 0.5 -->
      <g transform="translate(39.76375 91.82875)scale(0.08 -0.08)">
       <defs>
        <path d="M 684 794 
L 1344 794 
L 1344 0 
L 684 0 
L 684 794 
z
" id="DejaVuSans-2e" transform="scale(0.015625)"/>
        <path d="M 691 4666 
L 3169 4666 
L 3169 4134 
L 1269 4134 
L 1269 2991 
Q 1406 3038 1543 3061 
Q 1681 3084 1819 3084 
Q 2600 3084 3056 2656 
Q 3513 2228 3513 1497 
Q 3513 744 3044 326 
Q 2575 -91 1722 -91 
Q 1428 -91 1123 -41 
Q 819 9 494 109 
L 494 744 
Q 775 591 1075 516 
Q 1375 441 1709 441 
Q 2250 441 2565 725 
Q 2881 1009 2881 1497 
Q 2881 1984 2565 2268 
Q 2250 2553 1709 2553 
Q 1456 2553 1204 2497 
Q 953 2441 691 2322 
L 691 4666 
z
" id="DejaVuSans-35" transform="scale(0.015625)"/>
       </defs>
       <use xlink:href="#DejaVuSans-30"/>
       <use x="63.623047" xlink:href="#DejaVuSans-2e"/>
       <use x="95.410156" xlink:href="#DejaVuSans-35"/>
      </g>
     </g>
    </g>
    <g id="xtick_3">
     <g id="line2d_3">
      <g>
       <use style="stroke:#000000;stroke-width:0.8;" x="77.829545" xlink:href="#m0fc1869399" y="78.75"/>
      </g>
     </g>
     <g id="text_3">
      <!-- 1 -->
      <g transform="translate(75.284545 91.82875)scale(0.08 -0.08)">
       <defs>
        <path d="M 794 531 
L 1825 531 
L 1825 4091 
L 703 3866 
L 703 4441 
L 1819 4666 
L 2450 4666 
L 2450 531 
L 3481 531 
L 3481 0 
L 794 0 
L 794 531 
z
" id="DejaVuSans-31" transform="scale(0.015625)"/>
       </defs>
       <use xlink:href="#DejaVuSans-31"/>
      </g>
     </g>
    </g>
   </g>
   <g id="matplotlib.axis_2"/>
   <g id="patch_43">
    <path d="M 11.25 78.75 
L 11.25 10.8 
" style="fill:none;stroke:#000000;stroke-linecap:square;stroke-linejoin:miter;stroke-width:0.8;"/>
   </g>
   <g id="patch_44">
    <path d="M 81 78.75 
L 81 10.8 
" style="fill:none;stroke:#000000;stroke-linecap:square;stroke-linejoin:miter;stroke-width:0.8;"/>
   </g>
   <g id="patch_45">
    <path d="M 11.25 78.75 
L 81 78.75 
" style="fill:none;stroke:#000000;stroke-linecap:square;stroke-linejoin:miter;stroke-width:0.8;"/>
   </g>
   <g id="patch_46">
    <path d="M 11.25 10.8 
L 81 10.8 
" style="fill:none;stroke:#000000;stroke-linecap:square;stroke-linejoin:miter;stroke-width:0.8;"/>
   </g>
  </g>
 </g>
 <defs>
  <clipPath id="pc4b564d0dd">
   <rect height="67.95" width="69.75" x="11.25" y="10.8"/>
  </clipPath>
 </defs>
</svg>
