<?xml version="1.0" encoding="UTF-8" standalone="no"?>
<svg
   xmlns:dc="http://purl.org/dc/elements/1.1/"
   xmlns:cc="http://creativecommons.org/ns#"
   xmlns:rdf="http://www.w3.org/1999/02/22-rdf-syntax-ns#"
   xmlns:svg="http://www.w3.org/2000/svg"
   xmlns="http://www.w3.org/2000/svg"
   xmlns:xlink="http://www.w3.org/1999/xlink"
   xmlns:sodipodi="http://sodipodi.sourceforge.net/DTD/sodipodi-0.dtd"
   xmlns:inkscape="http://www.inkscape.org/namespaces/inkscape"
   height="152.46875pt"
   version="1.1"
   viewBox="0 0 162.55499 152.46875"
   width="162.55499pt"
   id="svg1519"
   sodipodi:docname="xyprior.svg"
   inkscape:version="1.0.2 (e86c870879, 2021-01-15)"
   inkscape:export-filename="/home/ordabayev/repos/tapqir-overleaf/extended-data/figure1/xyprior.png"
   inkscape:export-xdpi="600"
   inkscape:export-ydpi="600">
  <sodipodi:namedview
     pagecolor="#ffffff"
     bordercolor="#666666"
     borderopacity="1"
     objecttolerance="10"
     gridtolerance="10"
     guidetolerance="10"
     inkscape:pageopacity="0"
     inkscape:pageshadow="2"
     inkscape:window-width="2560"
     inkscape:window-height="1440"
     id="namedview1521"
     showgrid="false"
     fit-margin-top="0"
     fit-margin-left="0"
     fit-margin-right="0"
     fit-margin-bottom="0"
     inkscape:zoom="2.8489583"
     inkscape:cx="120.74"
     inkscape:cy="96"
     inkscape:window-x="1920"
     inkscape:window-y="0"
     inkscape:window-maximized="0"
     inkscape:current-layer="svg1519" />
  <metadata
     id="metadata1195">
    <rdf:RDF>
      <cc:Work>
        <dc:type
           rdf:resource="http://purl.org/dc/dcmitype/StillImage" />
        <dc:date>2021-05-27T14:42:43.888180</dc:date>
        <dc:format>image/svg+xml</dc:format>
        <dc:creator>
          <cc:Agent>
            <dc:title>Matplotlib v3.4.2, https://matplotlib.org/</dc:title>
          </cc:Agent>
        </dc:creator>
        <dc:title></dc:title>
      </cc:Work>
    </rdf:RDF>
  </metadata>
  <defs
     id="defs1199">
    <style
       type="text/css"
       id="style1197">*{stroke-linecap:butt;stroke-linejoin:round;}</style>
  </defs>
  <g
     id="figure_1"
     transform="translate(18.555)">
    <g
       id="patch_1">
      <path
         d="M 0,144 H 144 V 0 H 0 Z"
         style="fill:none"
         id="path1201" />
    </g>
    <g
       id="axes_1">
      <g
         id="patch_2">
        <path
           d="M 18,126 H 129.6 V 17.28 H 18 Z"
           style="fill:#ffffff"
           id="path1204" />
      </g>
      <g
         id="matplotlib.axis_1">
        <g
           id="xtick_1">
          <g
             id="line2d_1">
            <defs
               id="defs1208">
              <path
                 d="M 0,0 V 3.5"
                 id="mc725f08f32"
                 style="stroke:#000000;stroke-width:0.8" />
            </defs>
            <g
               id="g1212">
              <use
                 style="stroke:#000000;stroke-width:0.8"
                 x="40.095303"
                 xlink:href="#mc725f08f32"
                 y="126"
                 id="use1210"
                 width="100%"
                 height="100%" />
            </g>
          </g>
          <g
             id="text_1">
            <!-- −5 -->
            <g
               transform="matrix(0.08,0,0,-0.08,34.198427,139.07875)"
               id="g1223">
              <defs
                 id="defs1217">
                <path
                   d="M 678,2272 H 4684 V 1741 H 678 Z"
                   id="DejaVuSans-2212"
                   transform="scale(0.015625)" />
                <path
                   d="M 691,4666 H 3169 V 4134 H 1269 V 2991 q 137,47 274,70 138,23 276,23 781,0 1237,-428 457,-428 457,-1159 Q 3513,744 3044,326 2575,-91 1722,-91 1428,-91 1123,-41 819,9 494,109 v 635 q 281,-153 581,-228 300,-75 634,-75 541,0 856,284 316,284 316,772 0,487 -316,771 -315,285 -856,285 -253,0 -505,-56 -251,-56 -513,-175 z"
                   id="DejaVuSans-35"
                   transform="scale(0.015625)" />
              </defs>
              <use
                 xlink:href="#DejaVuSans-2212"
                 id="use1219"
                 x="0"
                 y="0"
                 width="100%"
                 height="100%" />
              <use
                 x="83.789062"
                 xlink:href="#DejaVuSans-35"
                 id="use1221"
                 y="0"
                 width="100%"
                 height="100%" />
            </g>
          </g>
        </g>
        <g
           id="xtick_2">
          <g
             id="line2d_2">
            <g
               id="g1229">
              <use
                 style="stroke:#000000;stroke-width:0.8"
                 x="74.14045"
                 xlink:href="#mc725f08f32"
                 y="126"
                 id="use1227"
                 width="100%"
                 height="100%" />
            </g>
          </g>
          <g
             id="text_2">
            <!-- 0 -->
            <g
               transform="matrix(0.08,0,0,-0.08,71.595451,139.07875)"
               id="g1237">
              <defs
                 id="defs1233">
                <path
                   d="m 2034,4250 q -487,0 -733,-480 -245,-479 -245,-1442 0,-959 245,-1439 246,-480 733,-480 491,0 736,480 246,480 246,1439 0,963 -246,1442 -245,480 -736,480 z m 0,500 q 785,0 1199,-621 414,-620 414,-1801 0,-1178 -414,-1799 -414,-620 -1199,-620 -784,0 -1198,620 -414,621 -414,1799 0,1181 414,1801 414,621 1198,621 z"
                   id="DejaVuSans-30"
                   transform="scale(0.015625)" />
              </defs>
              <use
                 xlink:href="#DejaVuSans-30"
                 id="use1235"
                 x="0"
                 y="0"
                 width="100%"
                 height="100%" />
            </g>
          </g>
        </g>
        <g
           id="xtick_3">
          <g
             id="line2d_3">
            <g
               id="g1243">
              <use
                 style="stroke:#000000;stroke-width:0.8"
                 x="108.1856"
                 xlink:href="#mc725f08f32"
                 y="126"
                 id="use1241"
                 width="100%"
                 height="100%" />
            </g>
          </g>
          <g
             id="text_3">
            <!-- 5 -->
            <g
               transform="matrix(0.08,0,0,-0.08,105.6406,139.07875)"
               id="g1248">
              <use
                 xlink:href="#DejaVuSans-35"
                 id="use1246"
                 x="0"
                 y="0"
                 width="100%"
                 height="100%" />
            </g>
          </g>
        </g>
        <g
           id="text_4">
          <!-- $x$ or $y$ -->
          <g
             transform="matrix(0.08,0,0,-0.08,62.4,150.805)"
             id="g1271">
            <defs
               id="defs1257">
              <path
                 d="M 3841,3500 2234,1784 3219,0 H 2559 L 1819,1388 531,0 H -166 L 1556,1844 641,3500 h 659 l 672,-1266 1172,1266 z"
                 id="DejaVuSans-Oblique-78"
                 transform="scale(0.015625)" />
              <path
                 id="DejaVuSans-20"
                 transform="scale(0.015625)"
                 d="" />
              <path
                 d="m 1959,3097 q -462,0 -731,-361 -269,-361 -269,-989 0,-628 267,-989 268,-361 733,-361 460,0 728,362 269,363 269,988 0,622 -269,986 -268,364 -728,364 z m 0,487 q 750,0 1178,-488 429,-487 429,-1349 Q 3566,888 3137,398 2709,-91 1959,-91 1206,-91 779,398 353,888 353,1747 q 0,862 426,1349 427,488 1180,488 z"
                 id="DejaVuSans-6f"
                 transform="scale(0.015625)" />
              <path
                 d="m 2631,2963 q -97,56 -211,82 -114,27 -251,27 -488,0 -749,-317 -261,-317 -261,-911 V 0 H 581 v 3500 h 578 v -544 q 182,319 472,473 291,155 707,155 59,0 131,-8 72,-7 159,-23 z"
                 id="DejaVuSans-72"
                 transform="scale(0.015625)" />
              <path
                 d="m 1588,-325 q -400,-672 -652,-839 -252,-167 -642,-167 h -453 l 96,481 h 332 q 240,0 409,131 169,131 378,513 l 178,334 -775,3372 h 610 L 1650,819 3256,3500 h 603 z"
                 id="DejaVuSans-Oblique-79"
                 transform="scale(0.015625)" />
            </defs>
            <use
               xlink:href="#DejaVuSans-Oblique-78"
               id="use1259"
               x="0"
               y="0"
               width="100%"
               height="100%" />
            <use
               transform="translate(59.179688)"
               xlink:href="#DejaVuSans-20"
               id="use1261"
               x="0"
               y="0"
               width="100%"
               height="100%" />
            <use
               transform="translate(90.966797)"
               xlink:href="#DejaVuSans-6f"
               id="use1263"
               x="0"
               y="0"
               width="100%"
               height="100%" />
            <use
               transform="translate(152.14844)"
               xlink:href="#DejaVuSans-72"
               id="use1265"
               x="0"
               y="0"
               width="100%"
               height="100%" />
            <use
               transform="translate(193.26172)"
               xlink:href="#DejaVuSans-20"
               id="use1267"
               x="0"
               y="0"
               width="100%"
               height="100%" />
            <use
               transform="translate(225.04883)"
               xlink:href="#DejaVuSans-Oblique-79"
               id="use1269"
               x="0"
               y="0"
               width="100%"
               height="100%" />
          </g>
        </g>
      </g>
      <g
         id="matplotlib.axis_2">
        <g
           id="ytick_1">
          <g
             id="line2d_4">
            <defs
               id="defs1276">
              <path
                 d="M 0,0 H -3.5"
                 id="mad3bea72c3"
                 style="stroke:#000000;stroke-width:0.8" />
            </defs>
            <g
               id="g1280">
              <use
                 style="stroke:#000000;stroke-width:0.8"
                 x="18"
                 xlink:href="#mad3bea72c3"
                 y="123.34829"
                 id="use1278"
                 width="100%"
                 height="100%" />
            </g>
          </g>
          <g
             id="text_5">
            <!-- 0.00 -->
            <g
               transform="matrix(0.08,0,0,-0.08,-6.8125,126.38767)"
               id="g1294">
              <defs
                 id="defs1284">
                <path
                   d="m 684,794 h 660 V 0 H 684 Z"
                   id="DejaVuSans-2e"
                   transform="scale(0.015625)" />
              </defs>
              <use
                 xlink:href="#DejaVuSans-30"
                 id="use1286"
                 x="0"
                 y="0"
                 width="100%"
                 height="100%" />
              <use
                 x="63.623047"
                 xlink:href="#DejaVuSans-2e"
                 id="use1288"
                 y="0"
                 width="100%"
                 height="100%" />
              <use
                 x="95.410156"
                 xlink:href="#DejaVuSans-30"
                 id="use1290"
                 y="0"
                 width="100%"
                 height="100%" />
              <use
                 x="159.0332"
                 xlink:href="#DejaVuSans-30"
                 id="use1292"
                 y="0"
                 width="100%"
                 height="100%" />
            </g>
          </g>
        </g>
        <g
           id="ytick_2">
          <g
             id="line2d_5">
            <g
               id="g1300">
              <use
                 style="stroke:#000000;stroke-width:0.8"
                 x="18"
                 xlink:href="#mad3bea72c3"
                 y="101.25073"
                 id="use1298"
                 width="100%"
                 height="100%" />
            </g>
          </g>
          <g
             id="text_6">
            <!-- 0.25 -->
            <g
               transform="matrix(0.08,0,0,-0.08,-6.8125,104.29011)"
               id="g1314">
              <defs
                 id="defs1304">
                <path
                   d="M 1228,531 H 3431 V 0 H 469 v 531 q 359,372 979,998 621,627 780,809 303,340 423,576 121,236 121,464 0,372 -261,606 -261,235 -680,235 -297,0 -627,-103 -329,-103 -704,-313 v 638 q 381,153 712,231 332,78 607,78 725,0 1156,-363 431,-362 431,-968 0,-288 -108,-546 -107,-257 -392,-607 -78,-91 -497,-524 Q 1991,1309 1228,531 Z"
                   id="DejaVuSans-32"
                   transform="scale(0.015625)" />
              </defs>
              <use
                 xlink:href="#DejaVuSans-30"
                 id="use1306"
                 x="0"
                 y="0"
                 width="100%"
                 height="100%" />
              <use
                 x="63.623047"
                 xlink:href="#DejaVuSans-2e"
                 id="use1308"
                 y="0"
                 width="100%"
                 height="100%" />
              <use
                 x="95.410156"
                 xlink:href="#DejaVuSans-32"
                 id="use1310"
                 y="0"
                 width="100%"
                 height="100%" />
              <use
                 x="159.0332"
                 xlink:href="#DejaVuSans-35"
                 id="use1312"
                 y="0"
                 width="100%"
                 height="100%" />
            </g>
          </g>
        </g>
        <g
           id="ytick_3">
          <g
             id="line2d_6">
            <g
               id="g1320">
              <use
                 style="stroke:#000000;stroke-width:0.8"
                 x="18"
                 xlink:href="#mad3bea72c3"
                 y="79.153168"
                 id="use1318"
                 width="100%"
                 height="100%" />
            </g>
          </g>
          <g
             id="text_7">
            <!-- 0.50 -->
            <g
               transform="matrix(0.08,0,0,-0.08,-6.8125,82.192546)"
               id="g1331">
              <use
                 xlink:href="#DejaVuSans-30"
                 id="use1323"
                 x="0"
                 y="0"
                 width="100%"
                 height="100%" />
              <use
                 x="63.623047"
                 xlink:href="#DejaVuSans-2e"
                 id="use1325"
                 y="0"
                 width="100%"
                 height="100%" />
              <use
                 x="95.410156"
                 xlink:href="#DejaVuSans-35"
                 id="use1327"
                 y="0"
                 width="100%"
                 height="100%" />
              <use
                 x="159.0332"
                 xlink:href="#DejaVuSans-30"
                 id="use1329"
                 y="0"
                 width="100%"
                 height="100%" />
            </g>
          </g>
        </g>
        <g
           id="ytick_4">
          <g
             id="line2d_7">
            <g
               id="g1337">
              <use
                 style="stroke:#000000;stroke-width:0.8"
                 x="18"
                 xlink:href="#mad3bea72c3"
                 y="57.055611"
                 id="use1335"
                 width="100%"
                 height="100%" />
            </g>
          </g>
          <g
             id="text_8">
            <!-- 0.75 -->
            <g
               transform="matrix(0.08,0,0,-0.08,-6.8125,60.094985)"
               id="g1351">
              <defs
                 id="defs1341">
                <path
                   d="M 525,4666 H 3525 V 4397 L 1831,0 H 1172 L 2766,4134 H 525 Z"
                   id="DejaVuSans-37"
                   transform="scale(0.015625)" />
              </defs>
              <use
                 xlink:href="#DejaVuSans-30"
                 id="use1343"
                 x="0"
                 y="0"
                 width="100%"
                 height="100%" />
              <use
                 x="63.623047"
                 xlink:href="#DejaVuSans-2e"
                 id="use1345"
                 y="0"
                 width="100%"
                 height="100%" />
              <use
                 x="95.410156"
                 xlink:href="#DejaVuSans-37"
                 id="use1347"
                 y="0"
                 width="100%"
                 height="100%" />
              <use
                 x="159.0332"
                 xlink:href="#DejaVuSans-35"
                 id="use1349"
                 y="0"
                 width="100%"
                 height="100%" />
            </g>
          </g>
        </g>
        <g
           id="ytick_5">
          <g
             id="line2d_8">
            <g
               id="g1357">
              <use
                 style="stroke:#000000;stroke-width:0.8"
                 x="18"
                 xlink:href="#mad3bea72c3"
                 y="34.95805"
                 id="use1355"
                 width="100%"
                 height="100%" />
            </g>
          </g>
          <g
             id="text_9">
            <!-- 1.00 -->
            <g
               transform="matrix(0.08,0,0,-0.08,-6.8125,37.997424)"
               id="g1371">
              <defs
                 id="defs1361">
                <path
                   d="M 794,531 H 1825 V 4091 L 703,3866 v 575 l 1116,225 h 631 V 531 H 3481 V 0 H 794 Z"
                   id="DejaVuSans-31"
                   transform="scale(0.015625)" />
              </defs>
              <use
                 xlink:href="#DejaVuSans-31"
                 id="use1363"
                 x="0"
                 y="0"
                 width="100%"
                 height="100%" />
              <use
                 x="63.623047"
                 xlink:href="#DejaVuSans-2e"
                 id="use1365"
                 y="0"
                 width="100%"
                 height="100%" />
              <use
                 x="95.410156"
                 xlink:href="#DejaVuSans-30"
                 id="use1367"
                 y="0"
                 width="100%"
                 height="100%" />
              <use
                 x="159.0332"
                 xlink:href="#DejaVuSans-30"
                 id="use1369"
                 y="0"
                 width="100%"
                 height="100%" />
            </g>
          </g>
        </g>
        <g
           id="text_10">
          <!-- Probability density -->
          <g
             transform="matrix(0,-0.08,-0.08,0,-12.47625,108.72062)"
             id="g1426">
            <defs
               id="defs1386">
              <path
                 d="M 1259,4147 V 2394 h 794 q 441,0 681,228 241,228 241,650 0,419 -241,647 -240,228 -681,228 z m -631,519 h 1425 q 785,0 1186,-355 402,-355 402,-1039 0,-691 -402,-1044 -401,-353 -1186,-353 H 1259 V 0 H 628 Z"
                 id="DejaVuSans-50"
                 transform="scale(0.015625)" />
              <path
                 d="m 3116,1747 q 0,634 -261,995 -261,361 -717,361 -457,0 -718,-361 -261,-361 -261,-995 0,-634 261,-995 261,-361 718,-361 456,0 717,361 261,361 261,995 z M 1159,2969 q 182,312 458,463 277,152 661,152 638,0 1036,-506 399,-506 399,-1331 Q 3713,922 3314,415 2916,-91 2278,-91 1894,-91 1617,61 1341,213 1159,525 V 0 H 581 v 4863 h 578 z"
                 id="DejaVuSans-62"
                 transform="scale(0.015625)" />
              <path
                 d="m 2194,1759 q -697,0 -966,-159 -269,-159 -269,-544 0,-306 202,-486 202,-179 548,-179 479,0 768,339 289,339 289,901 v 128 z m 1147,238 V 0 H 2766 V 531 Q 2569,213 2275,61 1981,-91 1556,-91 q -537,0 -855,302 -317,302 -317,808 0,590 395,890 396,300 1180,300 h 807 v 57 q 0,397 -261,614 -261,217 -733,217 -300,0 -585,-72 -284,-72 -546,-216 v 532 q 315,122 612,182 297,61 578,61 760,0 1135,-394 375,-393 375,-1193 z"
                 id="DejaVuSans-61"
                 transform="scale(0.015625)" />
              <path
                 d="m 603,3500 h 575 V 0 H 603 Z m 0,1363 h 575 V 4134 H 603 Z"
                 id="DejaVuSans-69"
                 transform="scale(0.015625)" />
              <path
                 d="m 603,4863 h 575 V 0 H 603 Z"
                 id="DejaVuSans-6c"
                 transform="scale(0.015625)" />
              <path
                 d="M 1172,4494 V 3500 H 2356 V 3053 H 1172 V 1153 q 0,-428 117,-550 117,-122 477,-122 h 590 V 0 H 1766 Q 1100,0 847,248 594,497 594,1153 V 3053 H 172 v 447 h 422 v 994 z"
                 id="DejaVuSans-74"
                 transform="scale(0.015625)" />
              <path
                 d="m 2059,-325 q -243,-625 -475,-815 -231,-191 -618,-191 H 506 v 481 h 338 q 237,0 368,113 132,112 291,531 L 1606,56 191,3500 H 800 L 1894,763 2988,3500 h 609 z"
                 id="DejaVuSans-79"
                 transform="scale(0.015625)" />
              <path
                 d="m 2906,2969 v 1894 h 575 V 0 H 2906 V 525 Q 2725,213 2448,61 2172,-91 1784,-91 1150,-91 751,415 353,922 353,1747 q 0,825 398,1331 399,506 1033,506 388,0 664,-152 277,-151 458,-463 z M 947,1747 q 0,-634 261,-995 261,-361 717,-361 456,0 718,361 263,361 263,995 0,634 -263,995 -262,361 -718,361 -456,0 -717,-361 -261,-361 -261,-995 z"
                 id="DejaVuSans-64"
                 transform="scale(0.015625)" />
              <path
                 d="M 3597,1894 V 1613 H 953 q 38,-594 358,-905 320,-311 892,-311 331,0 642,81 311,81 618,244 V 178 Q 3153,47 2828,-22 2503,-91 2169,-91 1331,-91 842,396 353,884 353,1716 q 0,859 464,1363 464,505 1252,505 706,0 1117,-455 411,-454 411,-1235 z m -575,169 q -6,471 -264,752 -258,282 -683,282 -481,0 -770,-272 -289,-272 -333,-766 z"
                 id="DejaVuSans-65"
                 transform="scale(0.015625)" />
              <path
                 d="M 3513,2113 V 0 h -575 v 2094 q 0,497 -194,743 -194,247 -581,247 -466,0 -735,-297 -269,-296 -269,-809 V 0 H 581 v 3500 h 578 v -544 q 207,316 486,472 280,156 646,156 603,0 912,-373 310,-373 310,-1098 z"
                 id="DejaVuSans-6e"
                 transform="scale(0.015625)" />
              <path
                 d="m 2834,3397 v -544 q -243,125 -506,187 -262,63 -544,63 -428,0 -642,-131 -214,-131 -214,-394 0,-200 153,-314 153,-114 616,-217 l 197,-44 q 612,-131 870,-370 258,-239 258,-667 0,-488 -386,-773 Q 2250,-91 1575,-91 1294,-91 989,-36 684,19 347,128 v 594 q 319,-166 628,-249 309,-82 613,-82 406,0 624,139 219,139 219,392 0,234 -158,359 -157,125 -692,241 l -200,47 q -534,112 -772,345 -237,233 -237,639 0,494 350,762 350,269 994,269 318,0 599,-47 282,-46 519,-140 z"
                 id="DejaVuSans-73"
                 transform="scale(0.015625)" />
            </defs>
            <use
               xlink:href="#DejaVuSans-50"
               id="use1388"
               x="0"
               y="0"
               width="100%"
               height="100%" />
            <use
               x="58.552734"
               xlink:href="#DejaVuSans-72"
               id="use1390"
               y="0"
               width="100%"
               height="100%" />
            <use
               x="97.416016"
               xlink:href="#DejaVuSans-6f"
               id="use1392"
               y="0"
               width="100%"
               height="100%" />
            <use
               x="158.59766"
               xlink:href="#DejaVuSans-62"
               id="use1394"
               y="0"
               width="100%"
               height="100%" />
            <use
               x="222.07422"
               xlink:href="#DejaVuSans-61"
               id="use1396"
               y="0"
               width="100%"
               height="100%" />
            <use
               x="283.35352"
               xlink:href="#DejaVuSans-62"
               id="use1398"
               y="0"
               width="100%"
               height="100%" />
            <use
               x="346.83008"
               xlink:href="#DejaVuSans-69"
               id="use1400"
               y="0"
               width="100%"
               height="100%" />
            <use
               x="374.61328"
               xlink:href="#DejaVuSans-6c"
               id="use1402"
               y="0"
               width="100%"
               height="100%" />
            <use
               x="402.39648"
               xlink:href="#DejaVuSans-69"
               id="use1404"
               y="0"
               width="100%"
               height="100%" />
            <use
               x="430.17969"
               xlink:href="#DejaVuSans-74"
               id="use1406"
               y="0"
               width="100%"
               height="100%" />
            <use
               x="469.38867"
               xlink:href="#DejaVuSans-79"
               id="use1408"
               y="0"
               width="100%"
               height="100%" />
            <use
               x="528.56836"
               xlink:href="#DejaVuSans-20"
               id="use1410"
               y="0"
               width="100%"
               height="100%" />
            <use
               x="560.35547"
               xlink:href="#DejaVuSans-64"
               id="use1412"
               y="0"
               width="100%"
               height="100%" />
            <use
               x="623.83203"
               xlink:href="#DejaVuSans-65"
               id="use1414"
               y="0"
               width="100%"
               height="100%" />
            <use
               x="685.35547"
               xlink:href="#DejaVuSans-6e"
               id="use1416"
               y="0"
               width="100%"
               height="100%" />
            <use
               x="748.73438"
               xlink:href="#DejaVuSans-73"
               id="use1418"
               y="0"
               width="100%"
               height="100%" />
            <use
               x="800.83398"
               xlink:href="#DejaVuSans-69"
               id="use1420"
               y="0"
               width="100%"
               height="100%" />
            <use
               x="828.61719"
               xlink:href="#DejaVuSans-74"
               id="use1422"
               y="0"
               width="100%"
               height="100%" />
            <use
               x="867.82617"
               xlink:href="#DejaVuSans-79"
               id="use1424"
               y="0"
               width="100%"
               height="100%" />
          </g>
        </g>
      </g>
      <g
         id="line2d_9">
        <path
           clip-path="url(#pe491e70343)"
           d="m 23.75363,117.45561 h 100.77364 v 0"
           style="fill:none;stroke:#1f77b4;stroke-width:1.5;stroke-linecap:square"
           id="path1430" />
      </g>
      <g
         id="line2d_10">
        <path
           clip-path="url(#pe491e70343)"
           d="m 23.072727,123.34829 38.811471,-0.0823 1.361805,-0.26967 0.680903,-0.32653 0.680904,-0.57099 0.680903,-0.95015 0.680903,-1.50459 0.680902,-2.26628 0.680903,-3.24581 0.680903,-4.4145 0.680903,-5.69407 1.361806,-14.932554 2.042709,-25.086047 0.680903,-6.33575 0.680903,-4.116566 0.680903,-1.433097 0.680903,1.433097 0.680903,4.116566 0.680903,6.33575 1.361806,16.477187 1.361806,16.595404 0.680903,6.94601 0.680903,5.69407 0.680903,4.4145 0.680903,3.24581 0.680903,2.26628 0.680903,1.50459 0.680903,0.95015 0.680903,0.57099 0.680902,0.32653 1.361807,0.26967 2.723611,0.0798 35.406954,0.003 v 0"
           style="fill:none;stroke:#ff7f0e;stroke-width:1.5;stroke-linecap:square"
           id="path1433" />
      </g>
      <g
         id="patch_3">
        <path
           d="M 18,126 V 17.28"
           style="fill:none;stroke:#000000;stroke-width:0.8;stroke-linecap:square;stroke-linejoin:miter"
           id="path1436" />
      </g>
      <g
         id="patch_4">
        <path
           d="M 129.6,126 V 17.28"
           style="fill:none;stroke:#000000;stroke-width:0.8;stroke-linecap:square;stroke-linejoin:miter"
           id="path1439" />
      </g>
      <g
         id="patch_5">
        <path
           d="M 18,126 H 129.6"
           style="fill:none;stroke:#000000;stroke-width:0.8;stroke-linecap:square;stroke-linejoin:miter"
           id="path1442" />
      </g>
      <g
         id="patch_6">
        <path
           d="M 18,17.28 H 129.6"
           style="fill:none;stroke:#000000;stroke-width:0.8;stroke-linecap:square;stroke-linejoin:miter"
           id="path1445" />
      </g>
      <g
         id="legend_1">
        <g
           id="patch_7">
          <path
             d="M 50.25125,47.165 H 124 q 1.6,0 1.6,-1.6 V 22.88 q 0,-1.6 -1.6,-1.6 H 50.25125 q -1.6,0 -1.6,1.6 v 22.685 q 0,1.6 1.6,1.6 z"
             style="opacity:0.8;fill:#ffffff;stroke:#cccccc;stroke-linejoin:miter"
             id="path1448" />
        </g>
        <g
           id="line2d_11">
          <path
             d="m 51.85125,27.75875 h 16"
             style="fill:none;stroke:#1f77b4;stroke-width:1.5;stroke-linecap:square"
             id="path1451" />
        </g>
        <g
           id="line2d_12" />
        <g
           id="text_11">
          <!-- non-specific -->
          <g
             transform="matrix(0.08,0,0,-0.08,74.25125,30.55875)"
             id="g1485">
            <defs
               id="defs1459">
              <path
                 d="M 313,2009 H 1997 V 1497 H 313 Z"
                 id="DejaVuSans-2d"
                 transform="scale(0.015625)" />
              <path
                 d="M 1159,525 V -1331 H 581 v 4831 h 578 v -531 q 182,312 458,463 277,152 661,152 638,0 1036,-506 399,-506 399,-1331 0,-825 -399,-1332 -398,-506 -1036,-506 -384,0 -661,152 -276,152 -458,464 z m 1957,1222 q 0,634 -261,995 -261,361 -717,361 -457,0 -718,-361 -261,-361 -261,-995 0,-634 261,-995 261,-361 718,-361 456,0 717,361 261,361 261,995 z"
                 id="DejaVuSans-70"
                 transform="scale(0.015625)" />
              <path
                 d="m 3122,3366 v -538 q -244,135 -489,202 -245,67 -495,67 -560,0 -870,-355 -309,-354 -309,-995 0,-641 309,-996 310,-354 870,-354 250,0 495,67 245,67 489,202 V 134 Q 2881,22 2623,-34 2366,-91 2075,-91 1284,-91 818,406 353,903 353,1747 q 0,856 470,1346 471,491 1290,491 265,0 518,-55 253,-54 491,-163 z"
                 id="DejaVuSans-63"
                 transform="scale(0.015625)" />
              <path
                 d="m 2375,4863 v -479 h -550 q -309,0 -430,-125 -120,-125 -120,-450 v -309 h 947 V 3053 H 1275 V 0 H 697 V 3053 H 147 v 447 h 550 v 244 q 0,584 272,851 272,268 862,268 z"
                 id="DejaVuSans-66"
                 transform="scale(0.015625)" />
            </defs>
            <use
               xlink:href="#DejaVuSans-6e"
               id="use1461"
               x="0"
               y="0"
               width="100%"
               height="100%" />
            <use
               x="63.378906"
               xlink:href="#DejaVuSans-6f"
               id="use1463"
               y="0"
               width="100%"
               height="100%" />
            <use
               x="124.56055"
               xlink:href="#DejaVuSans-6e"
               id="use1465"
               y="0"
               width="100%"
               height="100%" />
            <use
               x="187.93945"
               xlink:href="#DejaVuSans-2d"
               id="use1467"
               y="0"
               width="100%"
               height="100%" />
            <use
               x="224.02344"
               xlink:href="#DejaVuSans-73"
               id="use1469"
               y="0"
               width="100%"
               height="100%" />
            <use
               x="276.12305"
               xlink:href="#DejaVuSans-70"
               id="use1471"
               y="0"
               width="100%"
               height="100%" />
            <use
               x="339.59961"
               xlink:href="#DejaVuSans-65"
               id="use1473"
               y="0"
               width="100%"
               height="100%" />
            <use
               x="401.12305"
               xlink:href="#DejaVuSans-63"
               id="use1475"
               y="0"
               width="100%"
               height="100%" />
            <use
               x="456.10352"
               xlink:href="#DejaVuSans-69"
               id="use1477"
               y="0"
               width="100%"
               height="100%" />
            <use
               x="483.88672"
               xlink:href="#DejaVuSans-66"
               id="use1479"
               y="0"
               width="100%"
               height="100%" />
            <use
               x="519.0918"
               xlink:href="#DejaVuSans-69"
               id="use1481"
               y="0"
               width="100%"
               height="100%" />
            <use
               x="546.875"
               xlink:href="#DejaVuSans-63"
               id="use1483"
               y="0"
               width="100%"
               height="100%" />
          </g>
        </g>
        <g
           id="line2d_13">
          <path
             d="m 51.85125,39.50125 h 16"
             style="fill:none;stroke:#ff7f0e;stroke-width:1.5;stroke-linecap:square"
             id="path1488" />
        </g>
        <g
           id="line2d_14" />
        <g
           id="text_12">
          <!-- specific -->
          <g
             transform="matrix(0.08,0,0,-0.08,74.25125,42.30125)"
             id="g1508">
            <use
               xlink:href="#DejaVuSans-73"
               id="use1492"
               x="0"
               y="0"
               width="100%"
               height="100%" />
            <use
               x="52.099609"
               xlink:href="#DejaVuSans-70"
               id="use1494"
               y="0"
               width="100%"
               height="100%" />
            <use
               x="115.57617"
               xlink:href="#DejaVuSans-65"
               id="use1496"
               y="0"
               width="100%"
               height="100%" />
            <use
               x="177.09961"
               xlink:href="#DejaVuSans-63"
               id="use1498"
               y="0"
               width="100%"
               height="100%" />
            <use
               x="232.08008"
               xlink:href="#DejaVuSans-69"
               id="use1500"
               y="0"
               width="100%"
               height="100%" />
            <use
               x="259.86328"
               xlink:href="#DejaVuSans-66"
               id="use1502"
               y="0"
               width="100%"
               height="100%" />
            <use
               x="295.06836"
               xlink:href="#DejaVuSans-69"
               id="use1504"
               y="0"
               width="100%"
               height="100%" />
            <use
               x="322.85156"
               xlink:href="#DejaVuSans-63"
               id="use1506"
               y="0"
               width="100%"
               height="100%" />
          </g>
        </g>
      </g>
    </g>
  </g>
  <defs
     id="defs1517">
    <clipPath
       id="pe491e70343">
      <rect
         height="108.72"
         width="111.6"
         x="18"
         y="17.280001"
         id="rect1514" />
    </clipPath>
  </defs>
</svg>
