<?xml version="1.0" encoding="utf-8" standalone="no"?>
<!DOCTYPE svg PUBLIC "-//W3C//DTD SVG 1.1//EN"
  "http://www.w3.org/Graphics/SVG/1.1/DTD/svg11.dtd">
<svg height="36pt" version="1.1" viewBox="0 0 252 36" width="252pt" xmlns="http://www.w3.org/2000/svg" xmlns:xlink="http://www.w3.org/1999/xlink">
 <metadata>
  <rdf:RDF xmlns:cc="http://creativecommons.org/ns#" xmlns:dc="http://purl.org/dc/elements/1.1/" xmlns:rdf="http://www.w3.org/1999/02/22-rdf-syntax-ns#">
   <cc:Work>
    <dc:type rdf:resource="http://purl.org/dc/dcmitype/StillImage"/>
    <dc:date>2021-07-11T01:47:22.010155</dc:date>
    <dc:format>image/svg+xml</dc:format>
    <dc:creator>
     <cc:Agent>
      <dc:title>Matplotlib v3.4.2, https://matplotlib.org/</dc:title>
     </cc:Agent>
    </dc:creator>
   </cc:Work>
  </rdf:RDF>
 </metadata>
 <defs>
  <style type="text/css">*{stroke-linecap:butt;stroke-linejoin:round;}</style>
 </defs>
 <g id="figure_1">
  <g id="patch_1">
   <path d="M 0 36 
L 252 36 
L 252 0 
L 0 0 
z
" style="fill:none;"/>
  </g>
  <g id="axes_1">
   <g id="patch_2">
    <path d="M 31.5 31.5 
L 226.8 31.5 
L 226.8 4.32 
L 31.5 4.32 
z
" style="fill:#ffffff;"/>
   </g>
   <g id="PolyCollection_1">
    <defs>
     <path d="M 36.15 -19.162298 
L 36.15 -16.340657 
L 45.45 -17.164546 
L 54.75 -8.521872 
L 64.05 -15.917471 
L 73.35 -16.290989 
L 82.65 -16.276271 
L 91.95 -17.138322 
L 101.25 -16.573754 
L 110.55 -16.326211 
L 119.85 -16.666525 
L 129.15 -15.462902 
L 138.45 -15.91817 
L 147.75 -16.264895 
L 157.05 -16.414552 
L 166.35 -16.656976 
L 175.65 -10.448519 
L 184.95 -15.826636 
L 194.25 -15.88393 
L 203.55 -16.270693 
L 212.85 -9.956451 
L 222.15 -9.570562 
L 222.15 -10.888955 
L 222.15 -10.888955 
L 212.85 -11.423608 
L 203.55 -18.21878 
L 194.25 -17.075782 
L 184.95 -17.762222 
L 175.65 -11.968724 
L 166.35 -17.791784 
L 157.05 -17.665689 
L 147.75 -17.649785 
L 138.45 -17.597474 
L 129.15 -17.353488 
L 119.85 -18.053106 
L 110.55 -17.353229 
L 101.25 -18.471969 
L 91.95 -19.050224 
L 82.65 -17.944075 
L 73.35 -17.802336 
L 64.05 -17.511724 
L 54.75 -29.940405 
L 45.45 -24.54553 
L 36.15 -19.162298 
z
" id="ma397575cb0" style="stroke:#1f77b4;stroke-opacity:0.15;"/>
    </defs>
    <g clip-path="url(#p2498cb7bf2)">
     <use style="fill:#1f77b4;fill-opacity:0.15;stroke:#1f77b4;stroke-opacity:0.15;" x="0" xlink:href="#ma397575cb0" y="36"/>
    </g>
   </g>
   <g id="PolyCollection_2">
    <defs>
     <path d="M 36.15 -30.210606 
L 36.15 -10.080472 
L 45.45 -16.37358 
L 54.75 -7.644729 
L 64.05 -6.611218 
L 73.35 -24.96206 
L 82.65 -24.65221 
L 91.95 -20.844671 
L 101.25 -8.721323 
L 110.55 -21.866162 
L 119.85 -24.864704 
L 129.15 -9.937816 
L 138.45 -8.978013 
L 147.75 -9.40865 
L 157.05 -10.835323 
L 166.35 -9.244159 
L 175.65 -16.024963 
L 184.95 -10.600165 
L 194.25 -9.932925 
L 203.55 -10.691417 
L 212.85 -5.735455 
L 222.15 -6.315571 
L 222.15 -29.9694 
L 222.15 -29.9694 
L 212.85 -10.999794 
L 203.55 -11.761238 
L 194.25 -11.30239 
L 184.95 -12.898556 
L 175.65 -17.603896 
L 166.35 -11.341364 
L 157.05 -12.419414 
L 147.75 -10.841221 
L 138.45 -10.826115 
L 129.15 -11.241679 
L 119.85 -30.194243 
L 110.55 -27.317357 
L 101.25 -30.444545 
L 91.95 -25.386244 
L 82.65 -29.960637 
L 73.35 -29.551963 
L 64.05 -30.237516 
L 54.75 -30.314403 
L 45.45 -24.551532 
L 36.15 -30.210606 
z
" id="m0c0092c965" style="stroke:#ff7f0e;stroke-opacity:0.15;"/>
    </defs>
    <g clip-path="url(#p2498cb7bf2)">
     <use style="fill:#ff7f0e;fill-opacity:0.15;stroke:#ff7f0e;stroke-opacity:0.15;" x="0" xlink:href="#m0c0092c965" y="36"/>
    </g>
   </g>
   <g id="matplotlib.axis_1"/>
   <g id="matplotlib.axis_2">
    <g id="ytick_1">
     <g id="line2d_1">
      <defs>
       <path d="M 0 0 
L -3.5 0 
" id="m841b51febb" style="stroke:#000000;stroke-width:0.8;"/>
      </defs>
      <g>
       <use style="stroke:#000000;stroke-width:0.8;" x="31.5" xlink:href="#m841b51febb" y="28.249996"/>
      </g>
     </g>
     <g id="text_1">
      <!-- −6 -->
      <g transform="translate(12.70625 31.289371)scale(0.08 -0.08)">
       <defs>
        <path d="M 678 2272 
L 4684 2272 
L 4684 1741 
L 678 1741 
L 678 2272 
z
" id="DejaVuSans-2212" transform="scale(0.015625)"/>
        <path d="M 2113 2584 
Q 1688 2584 1439 2293 
Q 1191 2003 1191 1497 
Q 1191 994 1439 701 
Q 1688 409 2113 409 
Q 2538 409 2786 701 
Q 3034 994 3034 1497 
Q 3034 2003 2786 2293 
Q 2538 2584 2113 2584 
z
M 3366 4563 
L 3366 3988 
Q 3128 4100 2886 4159 
Q 2644 4219 2406 4219 
Q 1781 4219 1451 3797 
Q 1122 3375 1075 2522 
Q 1259 2794 1537 2939 
Q 1816 3084 2150 3084 
Q 2853 3084 3261 2657 
Q 3669 2231 3669 1497 
Q 3669 778 3244 343 
Q 2819 -91 2113 -91 
Q 1303 -91 875 529 
Q 447 1150 447 2328 
Q 447 3434 972 4092 
Q 1497 4750 2381 4750 
Q 2619 4750 2861 4703 
Q 3103 4656 3366 4563 
z
" id="DejaVuSans-36" transform="scale(0.015625)"/>
       </defs>
       <use xlink:href="#DejaVuSans-2212"/>
       <use x="83.789062" xlink:href="#DejaVuSans-36"/>
      </g>
     </g>
    </g>
    <g id="ytick_2">
     <g id="line2d_2">
      <g>
       <use style="stroke:#000000;stroke-width:0.8;" x="31.5" xlink:href="#m841b51febb" y="18.110564"/>
      </g>
     </g>
     <g id="text_2">
      <!-- 0 -->
      <g transform="translate(19.41 21.149939)scale(0.08 -0.08)">
       <defs>
        <path d="M 2034 4250 
Q 1547 4250 1301 3770 
Q 1056 3291 1056 2328 
Q 1056 1369 1301 889 
Q 1547 409 2034 409 
Q 2525 409 2770 889 
Q 3016 1369 3016 2328 
Q 3016 3291 2770 3770 
Q 2525 4250 2034 4250 
z
M 2034 4750 
Q 2819 4750 3233 4129 
Q 3647 3509 3647 2328 
Q 3647 1150 3233 529 
Q 2819 -91 2034 -91 
Q 1250 -91 836 529 
Q 422 1150 422 2328 
Q 422 3509 836 4129 
Q 1250 4750 2034 4750 
z
" id="DejaVuSans-30" transform="scale(0.015625)"/>
       </defs>
       <use xlink:href="#DejaVuSans-30"/>
      </g>
     </g>
    </g>
    <g id="ytick_3">
     <g id="line2d_3">
      <g>
       <use style="stroke:#000000;stroke-width:0.8;" x="31.5" xlink:href="#m841b51febb" y="7.971132"/>
      </g>
     </g>
     <g id="text_3">
      <!-- 6 -->
      <g transform="translate(19.41 11.010507)scale(0.08 -0.08)">
       <use xlink:href="#DejaVuSans-36"/>
      </g>
     </g>
    </g>
    <g id="text_4">
     <!-- $y$ -->
     <g transform="translate(7.02625 20.31)rotate(-90)scale(0.08 -0.08)">
      <defs>
       <path d="M 1588 -325 
Q 1188 -997 936 -1164 
Q 684 -1331 294 -1331 
L -159 -1331 
L -63 -850 
L 269 -850 
Q 509 -850 678 -719 
Q 847 -588 1056 -206 
L 1234 128 
L 459 3500 
L 1069 3500 
L 1650 819 
L 3256 3500 
L 3859 3500 
L 1588 -325 
z
" id="DejaVuSans-Oblique-79" transform="scale(0.015625)"/>
      </defs>
      <use transform="translate(0 0.3125)" xlink:href="#DejaVuSans-Oblique-79"/>
     </g>
    </g>
   </g>
   <g id="line2d_4">
    <path clip-path="url(#p2498cb7bf2)" d="M 36.15 18.218239 
L 45.45 14.919846 
L 54.75 15.011685 
L 64.05 19.281612 
L 73.35 18.966595 
L 82.65 18.904717 
L 91.95 17.853561 
L 101.25 18.493908 
L 110.55 19.166723 
L 119.85 18.640348 
L 129.15 19.572368 
L 138.45 19.230585 
L 147.75 19.017513 
L 157.05 18.956983 
L 166.35 18.745279 
L 175.65 24.821306 
L 184.95 19.250062 
L 194.25 19.486077 
L 203.55 18.76479 
L 212.85 25.309343 
L 222.15 25.80471 
" style="fill:none;stroke:#1f77b4;stroke-linecap:square;stroke-width:0.7;"/>
    <defs>
     <path d="M 0 1 
C 0.265203 1 0.51958 0.894634 0.707107 0.707107 
C 0.894634 0.51958 1 0.265203 1 0 
C 1 -0.265203 0.894634 -0.51958 0.707107 -0.707107 
C 0.51958 -0.894634 0.265203 -1 0 -1 
C -0.265203 -1 -0.51958 -0.894634 -0.707107 -0.707107 
C -0.894634 -0.51958 -1 -0.265203 -1 0 
C -1 0.265203 -0.894634 0.51958 -0.707107 0.707107 
C -0.51958 0.894634 -0.265203 1 0 1 
z
" id="m04468d35f4" style="stroke:#1f77b4;"/>
    </defs>
    <g clip-path="url(#p2498cb7bf2)">
     <use style="fill:#1f77b4;stroke:#1f77b4;" x="36.15" xlink:href="#m04468d35f4" y="18.218239"/>
     <use style="fill:#1f77b4;stroke:#1f77b4;" x="45.45" xlink:href="#m04468d35f4" y="14.919846"/>
     <use style="fill:#1f77b4;stroke:#1f77b4;" x="54.75" xlink:href="#m04468d35f4" y="15.011685"/>
     <use style="fill:#1f77b4;stroke:#1f77b4;" x="64.05" xlink:href="#m04468d35f4" y="19.281612"/>
     <use style="fill:#1f77b4;stroke:#1f77b4;" x="73.35" xlink:href="#m04468d35f4" y="18.966595"/>
     <use style="fill:#1f77b4;stroke:#1f77b4;" x="82.65" xlink:href="#m04468d35f4" y="18.904717"/>
     <use style="fill:#1f77b4;stroke:#1f77b4;" x="91.95" xlink:href="#m04468d35f4" y="17.853561"/>
     <use style="fill:#1f77b4;stroke:#1f77b4;" x="101.25" xlink:href="#m04468d35f4" y="18.493908"/>
     <use style="fill:#1f77b4;stroke:#1f77b4;" x="110.55" xlink:href="#m04468d35f4" y="19.166723"/>
     <use style="fill:#1f77b4;stroke:#1f77b4;" x="119.85" xlink:href="#m04468d35f4" y="18.640348"/>
     <use style="fill:#1f77b4;stroke:#1f77b4;" x="129.15" xlink:href="#m04468d35f4" y="19.572368"/>
     <use style="fill:#1f77b4;stroke:#1f77b4;" x="138.45" xlink:href="#m04468d35f4" y="19.230585"/>
     <use style="fill:#1f77b4;stroke:#1f77b4;" x="147.75" xlink:href="#m04468d35f4" y="19.017513"/>
     <use style="fill:#1f77b4;stroke:#1f77b4;" x="157.05" xlink:href="#m04468d35f4" y="18.956983"/>
     <use style="fill:#1f77b4;stroke:#1f77b4;" x="166.35" xlink:href="#m04468d35f4" y="18.745279"/>
     <use style="fill:#1f77b4;stroke:#1f77b4;" x="175.65" xlink:href="#m04468d35f4" y="24.821306"/>
     <use style="fill:#1f77b4;stroke:#1f77b4;" x="184.95" xlink:href="#m04468d35f4" y="19.250062"/>
     <use style="fill:#1f77b4;stroke:#1f77b4;" x="194.25" xlink:href="#m04468d35f4" y="19.486077"/>
     <use style="fill:#1f77b4;stroke:#1f77b4;" x="203.55" xlink:href="#m04468d35f4" y="18.76479"/>
     <use style="fill:#1f77b4;stroke:#1f77b4;" x="212.85" xlink:href="#m04468d35f4" y="25.309343"/>
     <use style="fill:#1f77b4;stroke:#1f77b4;" x="222.15" xlink:href="#m04468d35f4" y="25.80471"/>
    </g>
   </g>
   <g id="line2d_5">
    <path clip-path="url(#p2498cb7bf2)" d="M 36.15 13.464487 
L 45.45 15.317564 
L 54.75 14.835395 
L 64.05 16.355283 
L 73.35 8.365689 
L 82.65 8.116516 
L 91.95 12.728822 
L 101.25 13.002299 
L 110.55 11.108433 
L 119.85 7.803798 
L 129.15 25.3915 
L 138.45 26.168782 
L 147.75 25.863487 
L 157.05 24.349065 
L 166.35 25.70681 
L 175.65 19.139806 
L 184.95 24.29781 
L 194.25 25.407185 
L 203.55 24.770231 
L 212.85 28.163245 
L 222.15 16.13885 
" style="fill:none;stroke:#ff7f0e;stroke-linecap:square;stroke-width:0.7;"/>
    <defs>
     <path d="M 0 1 
C 0.265203 1 0.51958 0.894634 0.707107 0.707107 
C 0.894634 0.51958 1 0.265203 1 0 
C 1 -0.265203 0.894634 -0.51958 0.707107 -0.707107 
C 0.51958 -0.894634 0.265203 -1 0 -1 
C -0.265203 -1 -0.51958 -0.894634 -0.707107 -0.707107 
C -0.894634 -0.51958 -1 -0.265203 -1 0 
C -1 0.265203 -0.894634 0.51958 -0.707107 0.707107 
C -0.51958 0.894634 -0.265203 1 0 1 
z
" id="m84185c5b11" style="stroke:#ff7f0e;"/>
    </defs>
    <g clip-path="url(#p2498cb7bf2)">
     <use style="fill:#ff7f0e;stroke:#ff7f0e;" x="36.15" xlink:href="#m84185c5b11" y="13.464487"/>
     <use style="fill:#ff7f0e;stroke:#ff7f0e;" x="45.45" xlink:href="#m84185c5b11" y="15.317564"/>
     <use style="fill:#ff7f0e;stroke:#ff7f0e;" x="54.75" xlink:href="#m84185c5b11" y="14.835395"/>
     <use style="fill:#ff7f0e;stroke:#ff7f0e;" x="64.05" xlink:href="#m84185c5b11" y="16.355283"/>
     <use style="fill:#ff7f0e;stroke:#ff7f0e;" x="73.35" xlink:href="#m84185c5b11" y="8.365689"/>
     <use style="fill:#ff7f0e;stroke:#ff7f0e;" x="82.65" xlink:href="#m84185c5b11" y="8.116516"/>
     <use style="fill:#ff7f0e;stroke:#ff7f0e;" x="91.95" xlink:href="#m84185c5b11" y="12.728822"/>
     <use style="fill:#ff7f0e;stroke:#ff7f0e;" x="101.25" xlink:href="#m84185c5b11" y="13.002299"/>
     <use style="fill:#ff7f0e;stroke:#ff7f0e;" x="110.55" xlink:href="#m84185c5b11" y="11.108433"/>
     <use style="fill:#ff7f0e;stroke:#ff7f0e;" x="119.85" xlink:href="#m84185c5b11" y="7.803798"/>
     <use style="fill:#ff7f0e;stroke:#ff7f0e;" x="129.15" xlink:href="#m84185c5b11" y="25.3915"/>
     <use style="fill:#ff7f0e;stroke:#ff7f0e;" x="138.45" xlink:href="#m84185c5b11" y="26.168782"/>
     <use style="fill:#ff7f0e;stroke:#ff7f0e;" x="147.75" xlink:href="#m84185c5b11" y="25.863487"/>
     <use style="fill:#ff7f0e;stroke:#ff7f0e;" x="157.05" xlink:href="#m84185c5b11" y="24.349065"/>
     <use style="fill:#ff7f0e;stroke:#ff7f0e;" x="166.35" xlink:href="#m84185c5b11" y="25.70681"/>
     <use style="fill:#ff7f0e;stroke:#ff7f0e;" x="175.65" xlink:href="#m84185c5b11" y="19.139806"/>
     <use style="fill:#ff7f0e;stroke:#ff7f0e;" x="184.95" xlink:href="#m84185c5b11" y="24.29781"/>
     <use style="fill:#ff7f0e;stroke:#ff7f0e;" x="194.25" xlink:href="#m84185c5b11" y="25.407185"/>
     <use style="fill:#ff7f0e;stroke:#ff7f0e;" x="203.55" xlink:href="#m84185c5b11" y="24.770231"/>
     <use style="fill:#ff7f0e;stroke:#ff7f0e;" x="212.85" xlink:href="#m84185c5b11" y="28.163245"/>
     <use style="fill:#ff7f0e;stroke:#ff7f0e;" x="222.15" xlink:href="#m84185c5b11" y="16.13885"/>
    </g>
   </g>
   <g id="patch_3">
    <path d="M 31.5 31.5 
L 31.5 4.32 
" style="fill:none;stroke:#000000;stroke-linecap:square;stroke-linejoin:miter;stroke-width:0.8;"/>
   </g>
   <g id="patch_4">
    <path d="M 226.8 31.5 
L 226.8 4.32 
" style="fill:none;stroke:#000000;stroke-linecap:square;stroke-linejoin:miter;stroke-width:0.8;"/>
   </g>
   <g id="patch_5">
    <path d="M 31.5 31.5 
L 226.8 31.5 
" style="fill:none;stroke:#000000;stroke-linecap:square;stroke-linejoin:miter;stroke-width:0.8;"/>
   </g>
   <g id="patch_6">
    <path d="M 31.5 4.32 
L 226.8 4.32 
" style="fill:none;stroke:#000000;stroke-linecap:square;stroke-linejoin:miter;stroke-width:0.8;"/>
   </g>
  </g>
 </g>
 <defs>
  <clipPath id="p2498cb7bf2">
   <rect height="27.18" width="195.3" x="31.5" y="4.32"/>
  </clipPath>
 </defs>
</svg>
