<?xml version="1.0" encoding="utf-8" standalone="no"?>
<!DOCTYPE svg PUBLIC "-//W3C//DTD SVG 1.1//EN"
  "http://www.w3.org/Graphics/SVG/1.1/DTD/svg11.dtd">
<svg height="36pt" version="1.1" viewBox="0 0 252 36" width="252pt" xmlns="http://www.w3.org/2000/svg" xmlns:xlink="http://www.w3.org/1999/xlink">
 <metadata>
  <rdf:RDF xmlns:cc="http://creativecommons.org/ns#" xmlns:dc="http://purl.org/dc/elements/1.1/" xmlns:rdf="http://www.w3.org/1999/02/22-rdf-syntax-ns#">
   <cc:Work>
    <dc:type rdf:resource="http://purl.org/dc/dcmitype/StillImage"/>
    <dc:date>2021-07-11T01:47:12.483782</dc:date>
    <dc:format>image/svg+xml</dc:format>
    <dc:creator>
     <cc:Agent>
      <dc:title>Matplotlib v3.4.2, https://matplotlib.org/</dc:title>
     </cc:Agent>
    </dc:creator>
   </cc:Work>
  </rdf:RDF>
 </metadata>
 <defs>
  <style type="text/css">*{stroke-linecap:butt;stroke-linejoin:round;}</style>
 </defs>
 <g id="figure_1">
  <g id="patch_1">
   <path d="M 0 36 
L 252 36 
L 252 0 
L 0 0 
z
" style="fill:none;"/>
  </g>
  <g id="axes_1">
   <g id="patch_2">
    <path d="M 31.5 31.5 
L 226.8 31.5 
L 226.8 4.32 
L 31.5 4.32 
z
" style="fill:#ffffff;"/>
   </g>
   <g id="PolyCollection_1">
    <defs>
     <path d="M 36.15 -18.833753 
L 36.15 -15.781019 
L 45.45 -6.323227 
L 54.75 -6.108982 
L 64.05 -16.36984 
L 73.35 -16.471276 
L 82.65 -15.72066 
L 91.95 -15.574695 
L 101.25 -16.145686 
L 110.55 -16.544285 
L 119.85 -16.482339 
L 129.15 -15.175647 
L 138.45 -15.936985 
L 147.75 -16.351649 
L 157.05 -16.214778 
L 166.35 -15.808979 
L 175.65 -21.271377 
L 184.95 -15.948701 
L 194.25 -15.848239 
L 203.55 -15.754312 
L 212.85 -22.708928 
L 222.15 -22.091865 
L 222.15 -23.683787 
L 222.15 -23.683787 
L 212.85 -24.404514 
L 203.55 -17.744996 
L 194.25 -17.184472 
L 184.95 -17.775733 
L 175.65 -23.080354 
L 166.35 -16.998689 
L 157.05 -17.40213 
L 147.75 -17.848752 
L 138.45 -17.585643 
L 129.15 -17.277508 
L 119.85 -17.962438 
L 110.55 -17.589659 
L 101.25 -18.01573 
L 91.95 -17.322595 
L 82.65 -17.348147 
L 73.35 -17.885154 
L 64.05 -18.092375 
L 54.75 -28.839908 
L 45.45 -11.715265 
L 36.15 -18.833753 
z
" id="mfcf786cb77" style="stroke:#1f77b4;stroke-opacity:0.15;"/>
    </defs>
    <g clip-path="url(#p096965e003)">
     <use style="fill:#1f77b4;fill-opacity:0.15;stroke:#1f77b4;stroke-opacity:0.15;" x="0" xlink:href="#mfcf786cb77" y="36"/>
    </g>
   </g>
   <g id="PolyCollection_2">
    <defs>
     <path d="M 36.15 -29.416618 
L 36.15 -7.212254 
L 45.45 -6.194849 
L 54.75 -5.735455 
L 64.05 -5.866914 
L 73.35 -22.654211 
L 82.65 -23.798203 
L 91.95 -8.29343 
L 101.25 -7.76902 
L 110.55 -9.739771 
L 119.85 -24.278843 
L 129.15 -22.553852 
L 138.45 -22.998427 
L 147.75 -22.754731 
L 157.05 -22.241015 
L 166.35 -20.282869 
L 175.65 -15.357776 
L 184.95 -22.12837 
L 194.25 -21.325331 
L 203.55 -22.557024 
L 212.85 -7.690118 
L 222.15 -6.35519 
L 222.15 -30.444545 
L 222.15 -30.444545 
L 212.85 -15.418203 
L 203.55 -23.802268 
L 194.25 -22.981947 
L 184.95 -24.404672 
L 175.65 -16.933828 
L 166.35 -22.646799 
L 157.05 -23.979317 
L 147.75 -24.440376 
L 138.45 -25.28515 
L 129.15 -23.978206 
L 119.85 -30.02417 
L 110.55 -15.745179 
L 101.25 -30.247202 
L 91.95 -12.294556 
L 82.65 -29.643123 
L 73.35 -28.408005 
L 64.05 -28.914308 
L 54.75 -28.164237 
L 45.45 -11.703329 
L 36.15 -29.416618 
z
" id="m5e344c1405" style="stroke:#ff7f0e;stroke-opacity:0.15;"/>
    </defs>
    <g clip-path="url(#p096965e003)">
     <use style="fill:#ff7f0e;fill-opacity:0.15;stroke:#ff7f0e;stroke-opacity:0.15;" x="0" xlink:href="#m5e344c1405" y="36"/>
    </g>
   </g>
   <g id="matplotlib.axis_1"/>
   <g id="matplotlib.axis_2">
    <g id="ytick_1">
     <g id="line2d_1">
      <defs>
       <path d="M 0 0 
L -3.5 0 
" id="m8bcc2056ea" style="stroke:#000000;stroke-width:0.8;"/>
      </defs>
      <g>
       <use style="stroke:#000000;stroke-width:0.8;" x="31.5" xlink:href="#m8bcc2056ea" y="28.154294"/>
      </g>
     </g>
     <g id="text_1">
      <!-- −6 -->
      <g transform="translate(12.70625 31.193669)scale(0.08 -0.08)">
       <defs>
        <path d="M 678 2272 
L 4684 2272 
L 4684 1741 
L 678 1741 
L 678 2272 
z
" id="DejaVuSans-2212" transform="scale(0.015625)"/>
        <path d="M 2113 2584 
Q 1688 2584 1439 2293 
Q 1191 2003 1191 1497 
Q 1191 994 1439 701 
Q 1688 409 2113 409 
Q 2538 409 2786 701 
Q 3034 994 3034 1497 
Q 3034 2003 2786 2293 
Q 2538 2584 2113 2584 
z
M 3366 4563 
L 3366 3988 
Q 3128 4100 2886 4159 
Q 2644 4219 2406 4219 
Q 1781 4219 1451 3797 
Q 1122 3375 1075 2522 
Q 1259 2794 1537 2939 
Q 1816 3084 2150 3084 
Q 2853 3084 3261 2657 
Q 3669 2231 3669 1497 
Q 3669 778 3244 343 
Q 2819 -91 2113 -91 
Q 1303 -91 875 529 
Q 447 1150 447 2328 
Q 447 3434 972 4092 
Q 1497 4750 2381 4750 
Q 2619 4750 2861 4703 
Q 3103 4656 3366 4563 
z
" id="DejaVuSans-36" transform="scale(0.015625)"/>
       </defs>
       <use xlink:href="#DejaVuSans-2212"/>
       <use x="83.789062" xlink:href="#DejaVuSans-36"/>
      </g>
     </g>
    </g>
    <g id="ytick_2">
     <g id="line2d_2">
      <g>
       <use style="stroke:#000000;stroke-width:0.8;" x="31.5" xlink:href="#m8bcc2056ea" y="17.968612"/>
      </g>
     </g>
     <g id="text_2">
      <!-- 0 -->
      <g transform="translate(19.41 21.007987)scale(0.08 -0.08)">
       <defs>
        <path d="M 2034 4250 
Q 1547 4250 1301 3770 
Q 1056 3291 1056 2328 
Q 1056 1369 1301 889 
Q 1547 409 2034 409 
Q 2525 409 2770 889 
Q 3016 1369 3016 2328 
Q 3016 3291 2770 3770 
Q 2525 4250 2034 4250 
z
M 2034 4750 
Q 2819 4750 3233 4129 
Q 3647 3509 3647 2328 
Q 3647 1150 3233 529 
Q 2819 -91 2034 -91 
Q 1250 -91 836 529 
Q 422 1150 422 2328 
Q 422 3509 836 4129 
Q 1250 4750 2034 4750 
z
" id="DejaVuSans-30" transform="scale(0.015625)"/>
       </defs>
       <use xlink:href="#DejaVuSans-30"/>
      </g>
     </g>
    </g>
    <g id="ytick_3">
     <g id="line2d_3">
      <g>
       <use style="stroke:#000000;stroke-width:0.8;" x="31.5" xlink:href="#m8bcc2056ea" y="7.78293"/>
      </g>
     </g>
     <g id="text_3">
      <!-- 6 -->
      <g transform="translate(19.41 10.822305)scale(0.08 -0.08)">
       <use xlink:href="#DejaVuSans-36"/>
      </g>
     </g>
    </g>
    <g id="text_4">
     <!-- $x$ -->
     <g transform="translate(7.0425 20.31)rotate(-90)scale(0.08 -0.08)">
      <defs>
       <path d="M 3841 3500 
L 2234 1784 
L 3219 0 
L 2559 0 
L 1819 1388 
L 531 0 
L -166 0 
L 1556 1844 
L 641 3500 
L 1300 3500 
L 1972 2234 
L 3144 3500 
L 3841 3500 
z
" id="DejaVuSans-Oblique-78" transform="scale(0.015625)"/>
      </defs>
      <use transform="translate(0 0.3125)" xlink:href="#DejaVuSans-Oblique-78"/>
     </g>
    </g>
   </g>
   <g id="line2d_4">
    <path clip-path="url(#p096965e003)" d="M 36.15 18.747632 
L 45.45 27.542578 
L 54.75 19.595312 
L 64.05 18.781173 
L 73.35 18.844334 
L 82.65 19.408001 
L 91.95 19.60711 
L 101.25 18.948405 
L 110.55 18.941668 
L 119.85 18.721875 
L 129.15 19.747449 
L 138.45 19.233537 
L 147.75 18.901319 
L 157.05 19.197038 
L 166.35 19.624021 
L 175.65 13.772978 
L 184.95 19.152127 
L 194.25 19.535581 
L 203.55 19.263505 
L 212.85 12.430309 
L 222.15 13.072848 
" style="fill:none;stroke:#1f77b4;stroke-linecap:square;stroke-width:0.7;"/>
    <defs>
     <path d="M 0 1 
C 0.265203 1 0.51958 0.894634 0.707107 0.707107 
C 0.894634 0.51958 1 0.265203 1 0 
C 1 -0.265203 0.894634 -0.51958 0.707107 -0.707107 
C 0.51958 -0.894634 0.265203 -1 0 -1 
C -0.265203 -1 -0.51958 -0.894634 -0.707107 -0.707107 
C -0.894634 -0.51958 -1 -0.265203 -1 0 
C -1 0.265203 -0.894634 0.51958 -0.707107 0.707107 
C -0.51958 0.894634 -0.265203 1 0 1 
z
" id="m1b7b3e7ee9" style="stroke:#1f77b4;"/>
    </defs>
    <g clip-path="url(#p096965e003)">
     <use style="fill:#1f77b4;stroke:#1f77b4;" x="36.15" xlink:href="#m1b7b3e7ee9" y="18.747632"/>
     <use style="fill:#1f77b4;stroke:#1f77b4;" x="45.45" xlink:href="#m1b7b3e7ee9" y="27.542578"/>
     <use style="fill:#1f77b4;stroke:#1f77b4;" x="54.75" xlink:href="#m1b7b3e7ee9" y="19.595312"/>
     <use style="fill:#1f77b4;stroke:#1f77b4;" x="64.05" xlink:href="#m1b7b3e7ee9" y="18.781173"/>
     <use style="fill:#1f77b4;stroke:#1f77b4;" x="73.35" xlink:href="#m1b7b3e7ee9" y="18.844334"/>
     <use style="fill:#1f77b4;stroke:#1f77b4;" x="82.65" xlink:href="#m1b7b3e7ee9" y="19.408001"/>
     <use style="fill:#1f77b4;stroke:#1f77b4;" x="91.95" xlink:href="#m1b7b3e7ee9" y="19.60711"/>
     <use style="fill:#1f77b4;stroke:#1f77b4;" x="101.25" xlink:href="#m1b7b3e7ee9" y="18.948405"/>
     <use style="fill:#1f77b4;stroke:#1f77b4;" x="110.55" xlink:href="#m1b7b3e7ee9" y="18.941668"/>
     <use style="fill:#1f77b4;stroke:#1f77b4;" x="119.85" xlink:href="#m1b7b3e7ee9" y="18.721875"/>
     <use style="fill:#1f77b4;stroke:#1f77b4;" x="129.15" xlink:href="#m1b7b3e7ee9" y="19.747449"/>
     <use style="fill:#1f77b4;stroke:#1f77b4;" x="138.45" xlink:href="#m1b7b3e7ee9" y="19.233537"/>
     <use style="fill:#1f77b4;stroke:#1f77b4;" x="147.75" xlink:href="#m1b7b3e7ee9" y="18.901319"/>
     <use style="fill:#1f77b4;stroke:#1f77b4;" x="157.05" xlink:href="#m1b7b3e7ee9" y="19.197038"/>
     <use style="fill:#1f77b4;stroke:#1f77b4;" x="166.35" xlink:href="#m1b7b3e7ee9" y="19.624021"/>
     <use style="fill:#1f77b4;stroke:#1f77b4;" x="175.65" xlink:href="#m1b7b3e7ee9" y="13.772978"/>
     <use style="fill:#1f77b4;stroke:#1f77b4;" x="184.95" xlink:href="#m1b7b3e7ee9" y="19.152127"/>
     <use style="fill:#1f77b4;stroke:#1f77b4;" x="194.25" xlink:href="#m1b7b3e7ee9" y="19.535581"/>
     <use style="fill:#1f77b4;stroke:#1f77b4;" x="203.55" xlink:href="#m1b7b3e7ee9" y="19.263505"/>
     <use style="fill:#1f77b4;stroke:#1f77b4;" x="212.85" xlink:href="#m1b7b3e7ee9" y="12.430309"/>
     <use style="fill:#1f77b4;stroke:#1f77b4;" x="222.15" xlink:href="#m1b7b3e7ee9" y="13.072848"/>
    </g>
   </g>
   <g id="line2d_5">
    <path clip-path="url(#p096965e003)" d="M 36.15 17.232876 
L 45.45 27.512114 
L 54.75 20.701048 
L 64.05 19.710686 
L 73.35 10.16686 
L 82.65 8.552971 
L 91.95 25.898099 
L 101.25 15.519248 
L 110.55 23.483477 
L 119.85 8.374337 
L 129.15 12.710205 
L 138.45 11.8446 
L 147.75 12.398551 
L 157.05 12.886314 
L 166.35 14.452419 
L 175.65 19.842556 
L 184.95 12.696988 
L 194.25 13.780236 
L 203.55 12.8023 
L 212.85 24.950875 
L 222.15 15.879813 
" style="fill:none;stroke:#ff7f0e;stroke-linecap:square;stroke-width:0.7;"/>
    <defs>
     <path d="M 0 1 
C 0.265203 1 0.51958 0.894634 0.707107 0.707107 
C 0.894634 0.51958 1 0.265203 1 0 
C 1 -0.265203 0.894634 -0.51958 0.707107 -0.707107 
C 0.51958 -0.894634 0.265203 -1 0 -1 
C -0.265203 -1 -0.51958 -0.894634 -0.707107 -0.707107 
C -0.894634 -0.51958 -1 -0.265203 -1 0 
C -1 0.265203 -0.894634 0.51958 -0.707107 0.707107 
C -0.51958 0.894634 -0.265203 1 0 1 
z
" id="m61e7d97755" style="stroke:#ff7f0e;"/>
    </defs>
    <g clip-path="url(#p096965e003)">
     <use style="fill:#ff7f0e;stroke:#ff7f0e;" x="36.15" xlink:href="#m61e7d97755" y="17.232876"/>
     <use style="fill:#ff7f0e;stroke:#ff7f0e;" x="45.45" xlink:href="#m61e7d97755" y="27.512114"/>
     <use style="fill:#ff7f0e;stroke:#ff7f0e;" x="54.75" xlink:href="#m61e7d97755" y="20.701048"/>
     <use style="fill:#ff7f0e;stroke:#ff7f0e;" x="64.05" xlink:href="#m61e7d97755" y="19.710686"/>
     <use style="fill:#ff7f0e;stroke:#ff7f0e;" x="73.35" xlink:href="#m61e7d97755" y="10.16686"/>
     <use style="fill:#ff7f0e;stroke:#ff7f0e;" x="82.65" xlink:href="#m61e7d97755" y="8.552971"/>
     <use style="fill:#ff7f0e;stroke:#ff7f0e;" x="91.95" xlink:href="#m61e7d97755" y="25.898099"/>
     <use style="fill:#ff7f0e;stroke:#ff7f0e;" x="101.25" xlink:href="#m61e7d97755" y="15.519248"/>
     <use style="fill:#ff7f0e;stroke:#ff7f0e;" x="110.55" xlink:href="#m61e7d97755" y="23.483477"/>
     <use style="fill:#ff7f0e;stroke:#ff7f0e;" x="119.85" xlink:href="#m61e7d97755" y="8.374337"/>
     <use style="fill:#ff7f0e;stroke:#ff7f0e;" x="129.15" xlink:href="#m61e7d97755" y="12.710205"/>
     <use style="fill:#ff7f0e;stroke:#ff7f0e;" x="138.45" xlink:href="#m61e7d97755" y="11.8446"/>
     <use style="fill:#ff7f0e;stroke:#ff7f0e;" x="147.75" xlink:href="#m61e7d97755" y="12.398551"/>
     <use style="fill:#ff7f0e;stroke:#ff7f0e;" x="157.05" xlink:href="#m61e7d97755" y="12.886314"/>
     <use style="fill:#ff7f0e;stroke:#ff7f0e;" x="166.35" xlink:href="#m61e7d97755" y="14.452419"/>
     <use style="fill:#ff7f0e;stroke:#ff7f0e;" x="175.65" xlink:href="#m61e7d97755" y="19.842556"/>
     <use style="fill:#ff7f0e;stroke:#ff7f0e;" x="184.95" xlink:href="#m61e7d97755" y="12.696988"/>
     <use style="fill:#ff7f0e;stroke:#ff7f0e;" x="194.25" xlink:href="#m61e7d97755" y="13.780236"/>
     <use style="fill:#ff7f0e;stroke:#ff7f0e;" x="203.55" xlink:href="#m61e7d97755" y="12.8023"/>
     <use style="fill:#ff7f0e;stroke:#ff7f0e;" x="212.85" xlink:href="#m61e7d97755" y="24.950875"/>
     <use style="fill:#ff7f0e;stroke:#ff7f0e;" x="222.15" xlink:href="#m61e7d97755" y="15.879813"/>
    </g>
   </g>
   <g id="patch_3">
    <path d="M 31.5 31.5 
L 31.5 4.32 
" style="fill:none;stroke:#000000;stroke-linecap:square;stroke-linejoin:miter;stroke-width:0.8;"/>
   </g>
   <g id="patch_4">
    <path d="M 226.8 31.5 
L 226.8 4.32 
" style="fill:none;stroke:#000000;stroke-linecap:square;stroke-linejoin:miter;stroke-width:0.8;"/>
   </g>
   <g id="patch_5">
    <path d="M 31.5 31.5 
L 226.8 31.5 
" style="fill:none;stroke:#000000;stroke-linecap:square;stroke-linejoin:miter;stroke-width:0.8;"/>
   </g>
   <g id="patch_6">
    <path d="M 31.5 4.32 
L 226.8 4.32 
" style="fill:none;stroke:#000000;stroke-linecap:square;stroke-linejoin:miter;stroke-width:0.8;"/>
   </g>
  </g>
 </g>
 <defs>
  <clipPath id="p096965e003">
   <rect height="27.18" width="195.3" x="31.5" y="4.32"/>
  </clipPath>
 </defs>
</svg>
