<?xml version="1.0" encoding="utf-8" standalone="no"?>
<!DOCTYPE svg PUBLIC "-//W3C//DTD SVG 1.1//EN"
  "http://www.w3.org/Graphics/SVG/1.1/DTD/svg11.dtd">
<svg height="36pt" version="1.1" viewBox="0 0 252 36" width="252pt" xmlns="http://www.w3.org/2000/svg" xmlns:xlink="http://www.w3.org/1999/xlink">
 <metadata>
  <rdf:RDF xmlns:cc="http://creativecommons.org/ns#" xmlns:dc="http://purl.org/dc/elements/1.1/" xmlns:rdf="http://www.w3.org/1999/02/22-rdf-syntax-ns#">
   <cc:Work>
    <dc:type rdf:resource="http://purl.org/dc/dcmitype/StillImage"/>
    <dc:date>2021-05-09T08:59:29.317031</dc:date>
    <dc:format>image/svg+xml</dc:format>
    <dc:creator>
     <cc:Agent>
      <dc:title>Matplotlib v3.4.2, https://matplotlib.org/</dc:title>
     </cc:Agent>
    </dc:creator>
   </cc:Work>
  </rdf:RDF>
 </metadata>
 <defs>
  <style type="text/css">*{stroke-linecap:butt;stroke-linejoin:round;}</style>
 </defs>
 <g id="figure_1">
  <g id="patch_1">
   <path d="M 0 36 
L 252 36 
L 252 0 
L 0 0 
z
" style="fill:none;"/>
  </g>
  <g id="axes_1">
   <g id="patch_2">
    <path d="M 31.5 31.5 
L 226.8 31.5 
L 226.8 4.32 
L 31.5 4.32 
z
" style="fill:#ffffff;"/>
   </g>
   <g id="PolyCollection_1">
    <defs>
     <path d="M 36.15 -11.886618 
L 36.15 -7.898423 
L 45.45 -8.584529 
L 54.75 -7.432691 
L 64.05 -13.383774 
L 73.35 -13.897775 
L 82.65 -13.020804 
L 91.95 -19.389124 
L 101.25 -12.652765 
L 110.55 -13.561264 
L 119.85 -15.281706 
L 129.15 -16.141069 
L 138.45 -18.265811 
L 147.75 -17.90488 
L 157.05 -17.701467 
L 166.35 -15.060814 
L 175.65 -17.273492 
L 184.95 -13.503152 
L 194.25 -15.493675 
L 203.55 -12.436239 
L 212.85 -13.343987 
L 222.15 -22.032422 
L 222.15 -29.34729 
L 222.15 -29.34729 
L 212.85 -17.904616 
L 203.55 -17.893002 
L 194.25 -21.595437 
L 184.95 -18.433044 
L 175.65 -24.612506 
L 166.35 -20.067823 
L 157.05 -23.048487 
L 147.75 -24.056135 
L 138.45 -24.382911 
L 129.15 -22.527191 
L 119.85 -21.061907 
L 110.55 -17.660989 
L 101.25 -18.264236 
L 91.95 -27.60606 
L 82.65 -18.155197 
L 73.35 -18.728325 
L 64.05 -18.882484 
L 54.75 -11.995883 
L 45.45 -15.750049 
L 36.15 -11.886618 
z
" id="m7c0c20c98f" style="stroke:#1f77b4;stroke-opacity:0.15;"/>
    </defs>
    <g clip-path="url(#p3de5af389c)">
     <use style="fill:#1f77b4;fill-opacity:0.15;stroke:#1f77b4;stroke-opacity:0.15;" x="0" xlink:href="#m7c0c20c98f" y="36"/>
    </g>
   </g>
   <g id="PolyCollection_2">
    <defs>
     <path d="M 36.15 -12.256429 
L 36.15 -7.452579 
L 45.45 -8.434873 
L 54.75 -7.310856 
L 64.05 -7.299622 
L 73.35 -10.493961 
L 82.65 -11.171397 
L 91.95 -8.991143 
L 101.25 -7.290252 
L 110.55 -9.728097 
L 119.85 -10.822639 
L 129.15 -13.271723 
L 138.45 -20.944943 
L 147.75 -15.914236 
L 157.05 -14.906466 
L 166.35 -19.0072 
L 175.65 -13.347669 
L 184.95 -11.94687 
L 194.25 -15.902926 
L 203.55 -13.49854 
L 212.85 -8.898225 
L 222.15 -7.308668 
L 222.15 -11.187666 
L 222.15 -11.187666 
L 212.85 -15.530196 
L 203.55 -18.110534 
L 194.25 -20.825261 
L 184.95 -17.166843 
L 175.65 -18.236837 
L 166.35 -25.228291 
L 157.05 -21.176162 
L 147.75 -21.688603 
L 138.45 -27.737724 
L 129.15 -17.862256 
L 119.85 -19.266607 
L 110.55 -15.215913 
L 101.25 -11.097402 
L 91.95 -15.377071 
L 82.65 -20.955425 
L 73.35 -18.57 
L 64.05 -10.879015 
L 54.75 -11.283197 
L 45.45 -17.083162 
L 36.15 -12.256429 
z
" id="m5f88e15893" style="stroke:#ff7f0e;stroke-opacity:0.15;"/>
    </defs>
    <g clip-path="url(#p3de5af389c)">
     <use style="fill:#ff7f0e;fill-opacity:0.15;stroke:#ff7f0e;stroke-opacity:0.15;" x="0" xlink:href="#m5f88e15893" y="36"/>
    </g>
   </g>
   <g id="matplotlib.axis_1"/>
   <g id="matplotlib.axis_2">
    <g id="ytick_1">
     <g id="line2d_1">
      <defs>
       <path d="M 0 0 
L -3.5 0 
" id="m038e6b0b72" style="stroke:#000000;stroke-width:0.8;"/>
      </defs>
      <g>
       <use style="stroke:#000000;stroke-width:0.8;" x="31.5" xlink:href="#m038e6b0b72" y="28.782"/>
      </g>
     </g>
     <g id="text_1">
      <!-- 0 -->
      <g transform="translate(19.41 31.821375)scale(0.08 -0.08)">
       <defs>
        <path d="M 2034 4250 
Q 1547 4250 1301 3770 
Q 1056 3291 1056 2328 
Q 1056 1369 1301 889 
Q 1547 409 2034 409 
Q 2525 409 2770 889 
Q 3016 1369 3016 2328 
Q 3016 3291 2770 3770 
Q 2525 4250 2034 4250 
z
M 2034 4750 
Q 2819 4750 3233 4129 
Q 3647 3509 3647 2328 
Q 3647 1150 3233 529 
Q 2819 -91 2034 -91 
Q 1250 -91 836 529 
Q 422 1150 422 2328 
Q 422 3509 836 4129 
Q 1250 4750 2034 4750 
z
" id="DejaVuSans-30" transform="scale(0.015625)"/>
       </defs>
       <use xlink:href="#DejaVuSans-30"/>
      </g>
     </g>
    </g>
    <g id="ytick_2">
     <g id="line2d_2">
      <g>
       <use style="stroke:#000000;stroke-width:0.8;" x="31.5" xlink:href="#m038e6b0b72" y="17.91"/>
      </g>
     </g>
     <g id="text_2">
      <!-- 2000 -->
      <g transform="translate(4.14 20.949375)scale(0.08 -0.08)">
       <defs>
        <path d="M 1228 531 
L 3431 531 
L 3431 0 
L 469 0 
L 469 531 
Q 828 903 1448 1529 
Q 2069 2156 2228 2338 
Q 2531 2678 2651 2914 
Q 2772 3150 2772 3378 
Q 2772 3750 2511 3984 
Q 2250 4219 1831 4219 
Q 1534 4219 1204 4116 
Q 875 4013 500 3803 
L 500 4441 
Q 881 4594 1212 4672 
Q 1544 4750 1819 4750 
Q 2544 4750 2975 4387 
Q 3406 4025 3406 3419 
Q 3406 3131 3298 2873 
Q 3191 2616 2906 2266 
Q 2828 2175 2409 1742 
Q 1991 1309 1228 531 
z
" id="DejaVuSans-32" transform="scale(0.015625)"/>
       </defs>
       <use xlink:href="#DejaVuSans-32"/>
       <use x="63.623047" xlink:href="#DejaVuSans-30"/>
       <use x="127.246094" xlink:href="#DejaVuSans-30"/>
       <use x="190.869141" xlink:href="#DejaVuSans-30"/>
      </g>
     </g>
    </g>
    <g id="ytick_3">
     <g id="line2d_3">
      <g>
       <use style="stroke:#000000;stroke-width:0.8;" x="31.5" xlink:href="#m038e6b0b72" y="7.038"/>
      </g>
     </g>
     <g id="text_3">
      <!-- 4000 -->
      <g transform="translate(4.14 10.077375)scale(0.08 -0.08)">
       <defs>
        <path d="M 2419 4116 
L 825 1625 
L 2419 1625 
L 2419 4116 
z
M 2253 4666 
L 3047 4666 
L 3047 1625 
L 3713 1625 
L 3713 1100 
L 3047 1100 
L 3047 0 
L 2419 0 
L 2419 1100 
L 313 1100 
L 313 1709 
L 2253 4666 
z
" id="DejaVuSans-34" transform="scale(0.015625)"/>
       </defs>
       <use xlink:href="#DejaVuSans-34"/>
       <use x="63.623047" xlink:href="#DejaVuSans-30"/>
       <use x="127.246094" xlink:href="#DejaVuSans-30"/>
       <use x="190.869141" xlink:href="#DejaVuSans-30"/>
      </g>
     </g>
    </g>
    <g id="text_4">
     <!-- $h$ -->
     <g transform="translate(-1.52375 20.47)rotate(-90)scale(0.08 -0.08)">
      <defs>
       <path d="M 3566 2113 
L 3156 0 
L 2578 0 
L 2988 2091 
Q 3016 2238 3031 2350 
Q 3047 2463 3047 2528 
Q 3047 2791 2881 2937 
Q 2716 3084 2419 3084 
Q 1956 3084 1617 2771 
Q 1278 2459 1178 1941 
L 800 0 
L 225 0 
L 1172 4863 
L 1747 4863 
L 1375 2950 
Q 1594 3244 1934 3414 
Q 2275 3584 2650 3584 
Q 3113 3584 3367 3334 
Q 3622 3084 3622 2631 
Q 3622 2519 3608 2391 
Q 3594 2263 3566 2113 
z
" id="DejaVuSans-Oblique-68" transform="scale(0.015625)"/>
      </defs>
      <use transform="translate(0 0.015625)" xlink:href="#DejaVuSans-Oblique-68"/>
     </g>
    </g>
   </g>
   <g id="line2d_4">
    <path clip-path="url(#p3de5af389c)" d="M 36.15 26.576171 
L 45.45 24.589145 
L 54.75 27.141543 
L 64.05 20.244077 
L 73.35 19.743044 
L 82.65 20.698034 
L 91.95 12.871669 
L 101.25 20.709669 
L 110.55 20.568736 
L 119.85 17.991703 
L 129.15 16.794532 
L 138.45 14.932785 
L 147.75 15.200206 
L 157.05 15.882201 
L 166.35 18.436925 
L 175.65 15.438206 
L 184.95 20.366294 
L 194.25 17.604731 
L 203.55 20.952629 
L 212.85 20.639244 
L 222.15 10.257072 
" style="fill:none;stroke:#1f77b4;stroke-linecap:square;stroke-width:0.7;"/>
    <defs>
     <path d="M 0 1 
C 0.265203 1 0.51958 0.894634 0.707107 0.707107 
C 0.894634 0.51958 1 0.265203 1 0 
C 1 -0.265203 0.894634 -0.51958 0.707107 -0.707107 
C 0.51958 -0.894634 0.265203 -1 0 -1 
C -0.265203 -1 -0.51958 -0.894634 -0.707107 -0.707107 
C -0.894634 -0.51958 -1 -0.265203 -1 0 
C -1 0.265203 -0.894634 0.51958 -0.707107 0.707107 
C -0.51958 0.894634 -0.265203 1 0 1 
z
" id="m4378342039" style="stroke:#1f77b4;"/>
    </defs>
    <g clip-path="url(#p3de5af389c)">
     <use style="fill:#1f77b4;stroke:#1f77b4;" x="36.15" xlink:href="#m4378342039" y="26.576171"/>
     <use style="fill:#1f77b4;stroke:#1f77b4;" x="45.45" xlink:href="#m4378342039" y="24.589145"/>
     <use style="fill:#1f77b4;stroke:#1f77b4;" x="54.75" xlink:href="#m4378342039" y="27.141543"/>
     <use style="fill:#1f77b4;stroke:#1f77b4;" x="64.05" xlink:href="#m4378342039" y="20.244077"/>
     <use style="fill:#1f77b4;stroke:#1f77b4;" x="73.35" xlink:href="#m4378342039" y="19.743044"/>
     <use style="fill:#1f77b4;stroke:#1f77b4;" x="82.65" xlink:href="#m4378342039" y="20.698034"/>
     <use style="fill:#1f77b4;stroke:#1f77b4;" x="91.95" xlink:href="#m4378342039" y="12.871669"/>
     <use style="fill:#1f77b4;stroke:#1f77b4;" x="101.25" xlink:href="#m4378342039" y="20.709669"/>
     <use style="fill:#1f77b4;stroke:#1f77b4;" x="110.55" xlink:href="#m4378342039" y="20.568736"/>
     <use style="fill:#1f77b4;stroke:#1f77b4;" x="119.85" xlink:href="#m4378342039" y="17.991703"/>
     <use style="fill:#1f77b4;stroke:#1f77b4;" x="129.15" xlink:href="#m4378342039" y="16.794532"/>
     <use style="fill:#1f77b4;stroke:#1f77b4;" x="138.45" xlink:href="#m4378342039" y="14.932785"/>
     <use style="fill:#1f77b4;stroke:#1f77b4;" x="147.75" xlink:href="#m4378342039" y="15.200206"/>
     <use style="fill:#1f77b4;stroke:#1f77b4;" x="157.05" xlink:href="#m4378342039" y="15.882201"/>
     <use style="fill:#1f77b4;stroke:#1f77b4;" x="166.35" xlink:href="#m4378342039" y="18.436925"/>
     <use style="fill:#1f77b4;stroke:#1f77b4;" x="175.65" xlink:href="#m4378342039" y="15.438206"/>
     <use style="fill:#1f77b4;stroke:#1f77b4;" x="184.95" xlink:href="#m4378342039" y="20.366294"/>
     <use style="fill:#1f77b4;stroke:#1f77b4;" x="194.25" xlink:href="#m4378342039" y="17.604731"/>
     <use style="fill:#1f77b4;stroke:#1f77b4;" x="203.55" xlink:href="#m4378342039" y="20.952629"/>
     <use style="fill:#1f77b4;stroke:#1f77b4;" x="212.85" xlink:href="#m4378342039" y="20.639244"/>
     <use style="fill:#1f77b4;stroke:#1f77b4;" x="222.15" xlink:href="#m4378342039" y="10.257072"/>
    </g>
   </g>
   <g id="line2d_5">
    <path clip-path="url(#p3de5af389c)" d="M 36.15 27.023067 
L 45.45 24.041565 
L 54.75 27.360188 
L 64.05 27.669244 
L 73.35 22.253771 
L 82.65 20.839388 
L 91.95 24.237305 
L 101.25 27.478074 
L 110.55 23.838077 
L 119.85 21.535586 
L 129.15 20.9385 
L 138.45 11.803794 
L 147.75 17.428671 
L 157.05 18.147558 
L 166.35 14.103035 
L 175.65 20.49203 
L 184.95 21.730336 
L 194.25 17.595912 
L 203.55 20.313444 
L 212.85 24.037979 
L 222.15 27.447028 
" style="fill:none;stroke:#ff7f0e;stroke-linecap:square;stroke-width:0.7;"/>
    <defs>
     <path d="M 0 1 
C 0.265203 1 0.51958 0.894634 0.707107 0.707107 
C 0.894634 0.51958 1 0.265203 1 0 
C 1 -0.265203 0.894634 -0.51958 0.707107 -0.707107 
C 0.51958 -0.894634 0.265203 -1 0 -1 
C -0.265203 -1 -0.51958 -0.894634 -0.707107 -0.707107 
C -0.894634 -0.51958 -1 -0.265203 -1 0 
C -1 0.265203 -0.894634 0.51958 -0.707107 0.707107 
C -0.51958 0.894634 -0.265203 1 0 1 
z
" id="m642a3d6580" style="stroke:#ff7f0e;"/>
    </defs>
    <g clip-path="url(#p3de5af389c)">
     <use style="fill:#ff7f0e;stroke:#ff7f0e;" x="36.15" xlink:href="#m642a3d6580" y="27.023067"/>
     <use style="fill:#ff7f0e;stroke:#ff7f0e;" x="45.45" xlink:href="#m642a3d6580" y="24.041565"/>
     <use style="fill:#ff7f0e;stroke:#ff7f0e;" x="54.75" xlink:href="#m642a3d6580" y="27.360188"/>
     <use style="fill:#ff7f0e;stroke:#ff7f0e;" x="64.05" xlink:href="#m642a3d6580" y="27.669244"/>
     <use style="fill:#ff7f0e;stroke:#ff7f0e;" x="73.35" xlink:href="#m642a3d6580" y="22.253771"/>
     <use style="fill:#ff7f0e;stroke:#ff7f0e;" x="82.65" xlink:href="#m642a3d6580" y="20.839388"/>
     <use style="fill:#ff7f0e;stroke:#ff7f0e;" x="91.95" xlink:href="#m642a3d6580" y="24.237305"/>
     <use style="fill:#ff7f0e;stroke:#ff7f0e;" x="101.25" xlink:href="#m642a3d6580" y="27.478074"/>
     <use style="fill:#ff7f0e;stroke:#ff7f0e;" x="110.55" xlink:href="#m642a3d6580" y="23.838077"/>
     <use style="fill:#ff7f0e;stroke:#ff7f0e;" x="119.85" xlink:href="#m642a3d6580" y="21.535586"/>
     <use style="fill:#ff7f0e;stroke:#ff7f0e;" x="129.15" xlink:href="#m642a3d6580" y="20.9385"/>
     <use style="fill:#ff7f0e;stroke:#ff7f0e;" x="138.45" xlink:href="#m642a3d6580" y="11.803794"/>
     <use style="fill:#ff7f0e;stroke:#ff7f0e;" x="147.75" xlink:href="#m642a3d6580" y="17.428671"/>
     <use style="fill:#ff7f0e;stroke:#ff7f0e;" x="157.05" xlink:href="#m642a3d6580" y="18.147558"/>
     <use style="fill:#ff7f0e;stroke:#ff7f0e;" x="166.35" xlink:href="#m642a3d6580" y="14.103035"/>
     <use style="fill:#ff7f0e;stroke:#ff7f0e;" x="175.65" xlink:href="#m642a3d6580" y="20.49203"/>
     <use style="fill:#ff7f0e;stroke:#ff7f0e;" x="184.95" xlink:href="#m642a3d6580" y="21.730336"/>
     <use style="fill:#ff7f0e;stroke:#ff7f0e;" x="194.25" xlink:href="#m642a3d6580" y="17.595912"/>
     <use style="fill:#ff7f0e;stroke:#ff7f0e;" x="203.55" xlink:href="#m642a3d6580" y="20.313444"/>
     <use style="fill:#ff7f0e;stroke:#ff7f0e;" x="212.85" xlink:href="#m642a3d6580" y="24.037979"/>
     <use style="fill:#ff7f0e;stroke:#ff7f0e;" x="222.15" xlink:href="#m642a3d6580" y="27.447028"/>
    </g>
   </g>
   <g id="patch_3">
    <path d="M 31.5 31.5 
L 31.5 4.32 
" style="fill:none;stroke:#000000;stroke-linecap:square;stroke-linejoin:miter;stroke-width:0.8;"/>
   </g>
   <g id="patch_4">
    <path d="M 226.8 31.5 
L 226.8 4.32 
" style="fill:none;stroke:#000000;stroke-linecap:square;stroke-linejoin:miter;stroke-width:0.8;"/>
   </g>
   <g id="patch_5">
    <path d="M 31.5 31.5 
L 226.8 31.5 
" style="fill:none;stroke:#000000;stroke-linecap:square;stroke-linejoin:miter;stroke-width:0.8;"/>
   </g>
   <g id="patch_6">
    <path d="M 31.5 4.32 
L 226.8 4.32 
" style="fill:none;stroke:#000000;stroke-linecap:square;stroke-linejoin:miter;stroke-width:0.8;"/>
   </g>
  </g>
 </g>
 <defs>
  <clipPath id="p3de5af389c">
   <rect height="27.18" width="195.3" x="31.5" y="4.32"/>
  </clipPath>
 </defs>
</svg>
