<?xml version="1.0" encoding="utf-8" standalone="no"?>
<!DOCTYPE svg PUBLIC "-//W3C//DTD SVG 1.1//EN"
  "http://www.w3.org/Graphics/SVG/1.1/DTD/svg11.dtd">
<svg height="36pt" version="1.1" viewBox="0 0 252 36" width="252pt" xmlns="http://www.w3.org/2000/svg" xmlns:xlink="http://www.w3.org/1999/xlink">
 <metadata>
  <rdf:RDF xmlns:cc="http://creativecommons.org/ns#" xmlns:dc="http://purl.org/dc/elements/1.1/" xmlns:rdf="http://www.w3.org/1999/02/22-rdf-syntax-ns#">
   <cc:Work>
    <dc:type rdf:resource="http://purl.org/dc/dcmitype/StillImage"/>
    <dc:date>2021-07-11T01:47:04.860079</dc:date>
    <dc:format>image/svg+xml</dc:format>
    <dc:creator>
     <cc:Agent>
      <dc:title>Matplotlib v3.4.2, https://matplotlib.org/</dc:title>
     </cc:Agent>
    </dc:creator>
   </cc:Work>
  </rdf:RDF>
 </metadata>
 <defs>
  <style type="text/css">*{stroke-linecap:butt;stroke-linejoin:round;}</style>
 </defs>
 <g id="figure_1">
  <g id="patch_1">
   <path d="M 0 36 
L 252 36 
L 252 0 
L 0 0 
z
" style="fill:none;"/>
  </g>
  <g id="axes_1">
   <g id="patch_2">
    <path d="M 31.5 31.5 
L 226.8 31.5 
L 226.8 4.32 
L 31.5 4.32 
z
" style="fill:#ffffff;"/>
   </g>
   <g id="PolyCollection_1">
    <defs>
     <path d="M 36.15 -12.785002 
L 36.15 -7.833921 
L 45.45 -8.867795 
L 54.75 -7.326382 
L 64.05 -13.756554 
L 73.35 -13.806253 
L 82.65 -13.957089 
L 91.95 -19.790137 
L 101.25 -12.714043 
L 110.55 -13.889587 
L 119.85 -15.230611 
L 129.15 -15.952429 
L 138.45 -18.342724 
L 147.75 -17.21248 
L 157.05 -17.318321 
L 166.35 -14.662749 
L 175.65 -17.000512 
L 184.95 -13.308997 
L 194.25 -14.771101 
L 203.55 -12.486242 
L 212.85 -13.064902 
L 222.15 -21.973659 
L 222.15 -28.631103 
L 222.15 -28.631103 
L 212.85 -18.086104 
L 203.55 -18.696672 
L 194.25 -20.243227 
L 184.95 -19.68016 
L 175.65 -22.86568 
L 166.35 -20.231871 
L 157.05 -22.473161 
L 147.75 -22.648556 
L 138.45 -25.94679 
L 129.15 -22.180341 
L 119.85 -21.665531 
L 110.55 -18.198714 
L 101.25 -18.400495 
L 91.95 -28.422469 
L 82.65 -19.790239 
L 73.35 -18.977336 
L 64.05 -19.421644 
L 54.75 -12.137915 
L 45.45 -15.803552 
L 36.15 -12.785002 
z
" id="mcae7b7bf8a" style="stroke:#1f77b4;stroke-opacity:0.15;"/>
    </defs>
    <g clip-path="url(#pd1891a0526)">
     <use style="fill:#1f77b4;fill-opacity:0.15;stroke:#1f77b4;stroke-opacity:0.15;" x="0" xlink:href="#mcae7b7bf8a" y="36"/>
    </g>
   </g>
   <g id="PolyCollection_2">
    <defs>
     <path d="M 36.15 -12.24114 
L 36.15 -7.555732 
L 45.45 -8.96062 
L 54.75 -7.304603 
L 64.05 -7.30873 
L 73.35 -10.993059 
L 82.65 -9.541111 
L 91.95 -9.156142 
L 101.25 -7.343372 
L 110.55 -9.789735 
L 119.85 -11.14042 
L 129.15 -12.572135 
L 138.45 -21.014824 
L 147.75 -15.354155 
L 157.05 -15.654406 
L 166.35 -18.878112 
L 175.65 -13.305676 
L 184.95 -11.40011 
L 194.25 -15.501127 
L 203.55 -12.411427 
L 212.85 -9.135949 
L 222.15 -7.352212 
L 222.15 -11.3227 
L 222.15 -11.3227 
L 212.85 -16.98367 
L 203.55 -16.223782 
L 194.25 -22.266408 
L 184.95 -17.203666 
L 175.65 -18.586805 
L 166.35 -26.46744 
L 157.05 -21.223401 
L 147.75 -20.993281 
L 138.45 -28.858434 
L 129.15 -16.900278 
L 119.85 -21.047508 
L 110.55 -16.03573 
L 101.25 -11.815001 
L 91.95 -14.795749 
L 82.65 -18.692886 
L 73.35 -18.402071 
L 64.05 -11.545099 
L 54.75 -11.009289 
L 45.45 -16.373634 
L 36.15 -12.24114 
z
" id="m28caf31655" style="stroke:#ff7f0e;stroke-opacity:0.15;"/>
    </defs>
    <g clip-path="url(#pd1891a0526)">
     <use style="fill:#ff7f0e;fill-opacity:0.15;stroke:#ff7f0e;stroke-opacity:0.15;" x="0" xlink:href="#m28caf31655" y="36"/>
    </g>
   </g>
   <g id="matplotlib.axis_1"/>
   <g id="matplotlib.axis_2">
    <g id="ytick_1">
     <g id="line2d_1">
      <defs>
       <path d="M 0 0 
L -3.5 0 
" id="maeaf6bf092" style="stroke:#000000;stroke-width:0.8;"/>
      </defs>
      <g>
       <use style="stroke:#000000;stroke-width:0.8;" x="31.5" xlink:href="#maeaf6bf092" y="28.782"/>
      </g>
     </g>
     <g id="text_1">
      <!-- 0 -->
      <g transform="translate(19.41 31.821375)scale(0.08 -0.08)">
       <defs>
        <path d="M 2034 4250 
Q 1547 4250 1301 3770 
Q 1056 3291 1056 2328 
Q 1056 1369 1301 889 
Q 1547 409 2034 409 
Q 2525 409 2770 889 
Q 3016 1369 3016 2328 
Q 3016 3291 2770 3770 
Q 2525 4250 2034 4250 
z
M 2034 4750 
Q 2819 4750 3233 4129 
Q 3647 3509 3647 2328 
Q 3647 1150 3233 529 
Q 2819 -91 2034 -91 
Q 1250 -91 836 529 
Q 422 1150 422 2328 
Q 422 3509 836 4129 
Q 1250 4750 2034 4750 
z
" id="DejaVuSans-30" transform="scale(0.015625)"/>
       </defs>
       <use xlink:href="#DejaVuSans-30"/>
      </g>
     </g>
    </g>
    <g id="ytick_2">
     <g id="line2d_2">
      <g>
       <use style="stroke:#000000;stroke-width:0.8;" x="31.5" xlink:href="#maeaf6bf092" y="17.91"/>
      </g>
     </g>
     <g id="text_2">
      <!-- 2000 -->
      <g transform="translate(4.14 20.949375)scale(0.08 -0.08)">
       <defs>
        <path d="M 1228 531 
L 3431 531 
L 3431 0 
L 469 0 
L 469 531 
Q 828 903 1448 1529 
Q 2069 2156 2228 2338 
Q 2531 2678 2651 2914 
Q 2772 3150 2772 3378 
Q 2772 3750 2511 3984 
Q 2250 4219 1831 4219 
Q 1534 4219 1204 4116 
Q 875 4013 500 3803 
L 500 4441 
Q 881 4594 1212 4672 
Q 1544 4750 1819 4750 
Q 2544 4750 2975 4387 
Q 3406 4025 3406 3419 
Q 3406 3131 3298 2873 
Q 3191 2616 2906 2266 
Q 2828 2175 2409 1742 
Q 1991 1309 1228 531 
z
" id="DejaVuSans-32" transform="scale(0.015625)"/>
       </defs>
       <use xlink:href="#DejaVuSans-32"/>
       <use x="63.623047" xlink:href="#DejaVuSans-30"/>
       <use x="127.246094" xlink:href="#DejaVuSans-30"/>
       <use x="190.869141" xlink:href="#DejaVuSans-30"/>
      </g>
     </g>
    </g>
    <g id="ytick_3">
     <g id="line2d_3">
      <g>
       <use style="stroke:#000000;stroke-width:0.8;" x="31.5" xlink:href="#maeaf6bf092" y="7.038"/>
      </g>
     </g>
     <g id="text_3">
      <!-- 4000 -->
      <g transform="translate(4.14 10.077375)scale(0.08 -0.08)">
       <defs>
        <path d="M 2419 4116 
L 825 1625 
L 2419 1625 
L 2419 4116 
z
M 2253 4666 
L 3047 4666 
L 3047 1625 
L 3713 1625 
L 3713 1100 
L 3047 1100 
L 3047 0 
L 2419 0 
L 2419 1100 
L 313 1100 
L 313 1709 
L 2253 4666 
z
" id="DejaVuSans-34" transform="scale(0.015625)"/>
       </defs>
       <use xlink:href="#DejaVuSans-34"/>
       <use x="63.623047" xlink:href="#DejaVuSans-30"/>
       <use x="127.246094" xlink:href="#DejaVuSans-30"/>
       <use x="190.869141" xlink:href="#DejaVuSans-30"/>
      </g>
     </g>
    </g>
    <g id="text_4">
     <!-- $h$ -->
     <g transform="translate(-1.52375 20.47)rotate(-90)scale(0.08 -0.08)">
      <defs>
       <path d="M 3566 2113 
L 3156 0 
L 2578 0 
L 2988 2091 
Q 3016 2238 3031 2350 
Q 3047 2463 3047 2528 
Q 3047 2791 2881 2937 
Q 2716 3084 2419 3084 
Q 1956 3084 1617 2771 
Q 1278 2459 1178 1941 
L 800 0 
L 225 0 
L 1172 4863 
L 1747 4863 
L 1375 2950 
Q 1594 3244 1934 3414 
Q 2275 3584 2650 3584 
Q 3113 3584 3367 3334 
Q 3622 3084 3622 2631 
Q 3622 2519 3608 2391 
Q 3594 2263 3566 2113 
z
" id="DejaVuSans-Oblique-68" transform="scale(0.015625)"/>
      </defs>
      <use transform="translate(0 0.015625)" xlink:href="#DejaVuSans-Oblique-68"/>
     </g>
    </g>
   </g>
   <g id="line2d_4">
    <path clip-path="url(#pd1891a0526)" d="M 36.15 26.27827 
L 45.45 24.476844 
L 54.75 27.316482 
L 64.05 19.510129 
L 73.35 19.899157 
L 82.65 19.354619 
L 91.95 11.999336 
L 101.25 20.737799 
L 110.55 20.073566 
L 119.85 17.662602 
L 129.15 17.060414 
L 138.45 14.191554 
L 147.75 16.155292 
L 157.05 16.17679 
L 166.35 18.637933 
L 175.65 16.285182 
L 184.95 19.828839 
L 194.25 18.621671 
L 203.55 20.484733 
L 212.85 20.635026 
L 222.15 11.045162 
" style="fill:none;stroke:#1f77b4;stroke-linecap:square;stroke-width:0.7;"/>
    <defs>
     <path d="M 0 1 
C 0.265203 1 0.51958 0.894634 0.707107 0.707107 
C 0.894634 0.51958 1 0.265203 1 0 
C 1 -0.265203 0.894634 -0.51958 0.707107 -0.707107 
C 0.51958 -0.894634 0.265203 -1 0 -1 
C -0.265203 -1 -0.51958 -0.894634 -0.707107 -0.707107 
C -0.894634 -0.51958 -1 -0.265203 -1 0 
C -1 0.265203 -0.894634 0.51958 -0.707107 0.707107 
C -0.51958 0.894634 -0.265203 1 0 1 
z
" id="mdcef26861f" style="stroke:#1f77b4;"/>
    </defs>
    <g clip-path="url(#pd1891a0526)">
     <use style="fill:#1f77b4;stroke:#1f77b4;" x="36.15" xlink:href="#mdcef26861f" y="26.27827"/>
     <use style="fill:#1f77b4;stroke:#1f77b4;" x="45.45" xlink:href="#mdcef26861f" y="24.476844"/>
     <use style="fill:#1f77b4;stroke:#1f77b4;" x="54.75" xlink:href="#mdcef26861f" y="27.316482"/>
     <use style="fill:#1f77b4;stroke:#1f77b4;" x="64.05" xlink:href="#mdcef26861f" y="19.510129"/>
     <use style="fill:#1f77b4;stroke:#1f77b4;" x="73.35" xlink:href="#mdcef26861f" y="19.899157"/>
     <use style="fill:#1f77b4;stroke:#1f77b4;" x="82.65" xlink:href="#mdcef26861f" y="19.354619"/>
     <use style="fill:#1f77b4;stroke:#1f77b4;" x="91.95" xlink:href="#mdcef26861f" y="11.999336"/>
     <use style="fill:#1f77b4;stroke:#1f77b4;" x="101.25" xlink:href="#mdcef26861f" y="20.737799"/>
     <use style="fill:#1f77b4;stroke:#1f77b4;" x="110.55" xlink:href="#mdcef26861f" y="20.073566"/>
     <use style="fill:#1f77b4;stroke:#1f77b4;" x="119.85" xlink:href="#mdcef26861f" y="17.662602"/>
     <use style="fill:#1f77b4;stroke:#1f77b4;" x="129.15" xlink:href="#mdcef26861f" y="17.060414"/>
     <use style="fill:#1f77b4;stroke:#1f77b4;" x="138.45" xlink:href="#mdcef26861f" y="14.191554"/>
     <use style="fill:#1f77b4;stroke:#1f77b4;" x="147.75" xlink:href="#mdcef26861f" y="16.155292"/>
     <use style="fill:#1f77b4;stroke:#1f77b4;" x="157.05" xlink:href="#mdcef26861f" y="16.17679"/>
     <use style="fill:#1f77b4;stroke:#1f77b4;" x="166.35" xlink:href="#mdcef26861f" y="18.637933"/>
     <use style="fill:#1f77b4;stroke:#1f77b4;" x="175.65" xlink:href="#mdcef26861f" y="16.285182"/>
     <use style="fill:#1f77b4;stroke:#1f77b4;" x="184.95" xlink:href="#mdcef26861f" y="19.828839"/>
     <use style="fill:#1f77b4;stroke:#1f77b4;" x="194.25" xlink:href="#mdcef26861f" y="18.621671"/>
     <use style="fill:#1f77b4;stroke:#1f77b4;" x="203.55" xlink:href="#mdcef26861f" y="20.484733"/>
     <use style="fill:#1f77b4;stroke:#1f77b4;" x="212.85" xlink:href="#mdcef26861f" y="20.635026"/>
     <use style="fill:#1f77b4;stroke:#1f77b4;" x="222.15" xlink:href="#mdcef26861f" y="11.045162"/>
    </g>
   </g>
   <g id="line2d_5">
    <path clip-path="url(#pd1891a0526)" d="M 36.15 26.827279 
L 45.45 24.107936 
L 54.75 27.521457 
L 64.05 27.4599 
L 73.35 22.005918 
L 82.65 22.584027 
L 91.95 24.623371 
L 101.25 27.356945 
L 110.55 23.70503 
L 119.85 20.858729 
L 129.15 21.491385 
L 138.45 11.30785 
L 147.75 18.025459 
L 157.05 17.704144 
L 166.35 13.644898 
L 175.65 20.400707 
L 184.95 21.909228 
L 194.25 17.410204 
L 203.55 21.642663 
L 212.85 23.572827 
L 222.15 27.429359 
" style="fill:none;stroke:#ff7f0e;stroke-linecap:square;stroke-width:0.7;"/>
    <defs>
     <path d="M 0 1 
C 0.265203 1 0.51958 0.894634 0.707107 0.707107 
C 0.894634 0.51958 1 0.265203 1 0 
C 1 -0.265203 0.894634 -0.51958 0.707107 -0.707107 
C 0.51958 -0.894634 0.265203 -1 0 -1 
C -0.265203 -1 -0.51958 -0.894634 -0.707107 -0.707107 
C -0.894634 -0.51958 -1 -0.265203 -1 0 
C -1 0.265203 -0.894634 0.51958 -0.707107 0.707107 
C -0.51958 0.894634 -0.265203 1 0 1 
z
" id="m384c4feb0f" style="stroke:#ff7f0e;"/>
    </defs>
    <g clip-path="url(#pd1891a0526)">
     <use style="fill:#ff7f0e;stroke:#ff7f0e;" x="36.15" xlink:href="#m384c4feb0f" y="26.827279"/>
     <use style="fill:#ff7f0e;stroke:#ff7f0e;" x="45.45" xlink:href="#m384c4feb0f" y="24.107936"/>
     <use style="fill:#ff7f0e;stroke:#ff7f0e;" x="54.75" xlink:href="#m384c4feb0f" y="27.521457"/>
     <use style="fill:#ff7f0e;stroke:#ff7f0e;" x="64.05" xlink:href="#m384c4feb0f" y="27.4599"/>
     <use style="fill:#ff7f0e;stroke:#ff7f0e;" x="73.35" xlink:href="#m384c4feb0f" y="22.005918"/>
     <use style="fill:#ff7f0e;stroke:#ff7f0e;" x="82.65" xlink:href="#m384c4feb0f" y="22.584027"/>
     <use style="fill:#ff7f0e;stroke:#ff7f0e;" x="91.95" xlink:href="#m384c4feb0f" y="24.623371"/>
     <use style="fill:#ff7f0e;stroke:#ff7f0e;" x="101.25" xlink:href="#m384c4feb0f" y="27.356945"/>
     <use style="fill:#ff7f0e;stroke:#ff7f0e;" x="110.55" xlink:href="#m384c4feb0f" y="23.70503"/>
     <use style="fill:#ff7f0e;stroke:#ff7f0e;" x="119.85" xlink:href="#m384c4feb0f" y="20.858729"/>
     <use style="fill:#ff7f0e;stroke:#ff7f0e;" x="129.15" xlink:href="#m384c4feb0f" y="21.491385"/>
     <use style="fill:#ff7f0e;stroke:#ff7f0e;" x="138.45" xlink:href="#m384c4feb0f" y="11.30785"/>
     <use style="fill:#ff7f0e;stroke:#ff7f0e;" x="147.75" xlink:href="#m384c4feb0f" y="18.025459"/>
     <use style="fill:#ff7f0e;stroke:#ff7f0e;" x="157.05" xlink:href="#m384c4feb0f" y="17.704144"/>
     <use style="fill:#ff7f0e;stroke:#ff7f0e;" x="166.35" xlink:href="#m384c4feb0f" y="13.644898"/>
     <use style="fill:#ff7f0e;stroke:#ff7f0e;" x="175.65" xlink:href="#m384c4feb0f" y="20.400707"/>
     <use style="fill:#ff7f0e;stroke:#ff7f0e;" x="184.95" xlink:href="#m384c4feb0f" y="21.909228"/>
     <use style="fill:#ff7f0e;stroke:#ff7f0e;" x="194.25" xlink:href="#m384c4feb0f" y="17.410204"/>
     <use style="fill:#ff7f0e;stroke:#ff7f0e;" x="203.55" xlink:href="#m384c4feb0f" y="21.642663"/>
     <use style="fill:#ff7f0e;stroke:#ff7f0e;" x="212.85" xlink:href="#m384c4feb0f" y="23.572827"/>
     <use style="fill:#ff7f0e;stroke:#ff7f0e;" x="222.15" xlink:href="#m384c4feb0f" y="27.429359"/>
    </g>
   </g>
   <g id="patch_3">
    <path d="M 31.5 31.5 
L 31.5 4.32 
" style="fill:none;stroke:#000000;stroke-linecap:square;stroke-linejoin:miter;stroke-width:0.8;"/>
   </g>
   <g id="patch_4">
    <path d="M 226.8 31.5 
L 226.8 4.32 
" style="fill:none;stroke:#000000;stroke-linecap:square;stroke-linejoin:miter;stroke-width:0.8;"/>
   </g>
   <g id="patch_5">
    <path d="M 31.5 31.5 
L 226.8 31.5 
" style="fill:none;stroke:#000000;stroke-linecap:square;stroke-linejoin:miter;stroke-width:0.8;"/>
   </g>
   <g id="patch_6">
    <path d="M 31.5 4.32 
L 226.8 4.32 
" style="fill:none;stroke:#000000;stroke-linecap:square;stroke-linejoin:miter;stroke-width:0.8;"/>
   </g>
  </g>
 </g>
 <defs>
  <clipPath id="pd1891a0526">
   <rect height="27.18" width="195.3" x="31.5" y="4.32"/>
  </clipPath>
 </defs>
</svg>
