<?xml version="1.0" encoding="utf-8" standalone="no"?>
<!DOCTYPE svg PUBLIC "-//W3C//DTD SVG 1.1//EN"
  "http://www.w3.org/Graphics/SVG/1.1/DTD/svg11.dtd">
<svg height="36pt" version="1.1" viewBox="0 0 252 36" width="252pt" xmlns="http://www.w3.org/2000/svg" xmlns:xlink="http://www.w3.org/1999/xlink">
 <metadata>
  <rdf:RDF xmlns:cc="http://creativecommons.org/ns#" xmlns:dc="http://purl.org/dc/elements/1.1/" xmlns:rdf="http://www.w3.org/1999/02/22-rdf-syntax-ns#">
   <cc:Work>
    <dc:type rdf:resource="http://purl.org/dc/dcmitype/StillImage"/>
    <dc:date>2021-07-10T02:24:06.557370</dc:date>
    <dc:format>image/svg+xml</dc:format>
    <dc:creator>
     <cc:Agent>
      <dc:title>Matplotlib v3.4.2, https://matplotlib.org/</dc:title>
     </cc:Agent>
    </dc:creator>
   </cc:Work>
  </rdf:RDF>
 </metadata>
 <defs>
  <style type="text/css">*{stroke-linecap:butt;stroke-linejoin:round;}</style>
 </defs>
 <g id="figure_1">
  <g id="patch_1">
   <path d="M 0 36 
L 252 36 
L 252 0 
L 0 0 
z
" style="fill:none;"/>
  </g>
  <g id="axes_1">
   <g id="patch_2">
    <path d="M 31.5 31.5 
L 226.8 31.5 
L 226.8 4.32 
L 31.5 4.32 
z
" style="fill:#ffffff;"/>
   </g>
   <g id="matplotlib.axis_1"/>
   <g id="matplotlib.axis_2">
    <g id="ytick_1">
     <g id="line2d_1">
      <defs>
       <path d="M 0 0 
L -3.5 0 
" id="m19ea4193c6" style="stroke:#000000;stroke-width:0.8;"/>
      </defs>
      <g>
       <use style="stroke:#000000;stroke-width:0.8;" x="31.5" xlink:href="#m19ea4193c6" y="28.363846"/>
      </g>
     </g>
     <g id="text_1">
      <!-- 0 -->
      <g transform="translate(19.41 31.403221)scale(0.08 -0.08)">
       <defs>
        <path d="M 2034 4250 
Q 1547 4250 1301 3770 
Q 1056 3291 1056 2328 
Q 1056 1369 1301 889 
Q 1547 409 2034 409 
Q 2525 409 2770 889 
Q 3016 1369 3016 2328 
Q 3016 3291 2770 3770 
Q 2525 4250 2034 4250 
z
M 2034 4750 
Q 2819 4750 3233 4129 
Q 3647 3509 3647 2328 
Q 3647 1150 3233 529 
Q 2819 -91 2034 -91 
Q 1250 -91 836 529 
Q 422 1150 422 2328 
Q 422 3509 836 4129 
Q 1250 4750 2034 4750 
z
" id="DejaVuSans-30" transform="scale(0.015625)"/>
       </defs>
       <use xlink:href="#DejaVuSans-30"/>
      </g>
     </g>
    </g>
    <g id="ytick_2">
     <g id="line2d_2">
      <g>
       <use style="stroke:#000000;stroke-width:0.8;" x="31.5" xlink:href="#m19ea4193c6" y="17.91"/>
      </g>
     </g>
     <g id="text_2">
      <!-- 0.5 -->
      <g transform="translate(11.7775 20.949375)scale(0.08 -0.08)">
       <defs>
        <path d="M 684 794 
L 1344 794 
L 1344 0 
L 684 0 
L 684 794 
z
" id="DejaVuSans-2e" transform="scale(0.015625)"/>
        <path d="M 691 4666 
L 3169 4666 
L 3169 4134 
L 1269 4134 
L 1269 2991 
Q 1406 3038 1543 3061 
Q 1681 3084 1819 3084 
Q 2600 3084 3056 2656 
Q 3513 2228 3513 1497 
Q 3513 744 3044 326 
Q 2575 -91 1722 -91 
Q 1428 -91 1123 -41 
Q 819 9 494 109 
L 494 744 
Q 775 591 1075 516 
Q 1375 441 1709 441 
Q 2250 441 2565 725 
Q 2881 1009 2881 1497 
Q 2881 1984 2565 2268 
Q 2250 2553 1709 2553 
Q 1456 2553 1204 2497 
Q 953 2441 691 2322 
L 691 4666 
z
" id="DejaVuSans-35" transform="scale(0.015625)"/>
       </defs>
       <use xlink:href="#DejaVuSans-30"/>
       <use x="63.623047" xlink:href="#DejaVuSans-2e"/>
       <use x="95.410156" xlink:href="#DejaVuSans-35"/>
      </g>
     </g>
    </g>
    <g id="ytick_3">
     <g id="line2d_3">
      <g>
       <use style="stroke:#000000;stroke-width:0.8;" x="31.5" xlink:href="#m19ea4193c6" y="7.456154"/>
      </g>
     </g>
     <g id="text_3">
      <!-- 1 -->
      <g transform="translate(19.41 10.495529)scale(0.08 -0.08)">
       <defs>
        <path d="M 794 531 
L 1825 531 
L 1825 4091 
L 703 3866 
L 703 4441 
L 1819 4666 
L 2450 4666 
L 2450 531 
L 3481 531 
L 3481 0 
L 794 0 
L 794 531 
z
" id="DejaVuSans-31" transform="scale(0.015625)"/>
       </defs>
       <use xlink:href="#DejaVuSans-31"/>
      </g>
     </g>
    </g>
    <g id="text_4">
     <!-- $p(m)$ -->
     <g transform="translate(6.0975 27.47)rotate(-90)scale(0.08 -0.08)">
      <defs>
       <path d="M 3175 2156 
Q 3175 2616 2975 2859 
Q 2775 3103 2400 3103 
Q 2144 3103 1911 2972 
Q 1678 2841 1497 2591 
Q 1319 2344 1212 1994 
Q 1106 1644 1106 1300 
Q 1106 863 1306 627 
Q 1506 391 1875 391 
Q 2147 391 2380 519 
Q 2613 647 2778 891 
Q 2956 1147 3065 1494 
Q 3175 1841 3175 2156 
z
M 1394 2969 
Q 1625 3272 1939 3428 
Q 2253 3584 2638 3584 
Q 3175 3584 3472 3232 
Q 3769 2881 3769 2247 
Q 3769 1728 3584 1258 
Q 3400 788 3053 416 
Q 2822 169 2531 39 
Q 2241 -91 1919 -91 
Q 1547 -91 1294 64 
Q 1041 219 916 525 
L 556 -1331 
L -19 -1331 
L 922 3500 
L 1497 3500 
L 1394 2969 
z
" id="DejaVuSans-Oblique-70" transform="scale(0.015625)"/>
       <path d="M 1984 4856 
Q 1566 4138 1362 3434 
Q 1159 2731 1159 2009 
Q 1159 1288 1364 580 
Q 1569 -128 1984 -844 
L 1484 -844 
Q 1016 -109 783 600 
Q 550 1309 550 2009 
Q 550 2706 781 3412 
Q 1013 4119 1484 4856 
L 1984 4856 
z
" id="DejaVuSans-28" transform="scale(0.015625)"/>
       <path d="M 5747 2113 
L 5338 0 
L 4763 0 
L 5166 2094 
Q 5191 2228 5203 2325 
Q 5216 2422 5216 2491 
Q 5216 2772 5059 2928 
Q 4903 3084 4622 3084 
Q 4203 3084 3875 2770 
Q 3547 2456 3450 1953 
L 3066 0 
L 2491 0 
L 2900 2094 
Q 2925 2209 2937 2307 
Q 2950 2406 2950 2484 
Q 2950 2769 2794 2926 
Q 2638 3084 2363 3084 
Q 1938 3084 1609 2770 
Q 1281 2456 1184 1953 
L 800 0 
L 225 0 
L 909 3500 
L 1484 3500 
L 1375 2956 
Q 1609 3263 1923 3423 
Q 2238 3584 2597 3584 
Q 2978 3584 3223 3384 
Q 3469 3184 3519 2828 
Q 3781 3197 4126 3390 
Q 4472 3584 4856 3584 
Q 5306 3584 5551 3325 
Q 5797 3066 5797 2591 
Q 5797 2488 5784 2364 
Q 5772 2241 5747 2113 
z
" id="DejaVuSans-Oblique-6d" transform="scale(0.015625)"/>
       <path d="M 513 4856 
L 1013 4856 
Q 1481 4119 1714 3412 
Q 1947 2706 1947 2009 
Q 1947 1309 1714 600 
Q 1481 -109 1013 -844 
L 513 -844 
Q 928 -128 1133 580 
Q 1338 1288 1338 2009 
Q 1338 2731 1133 3434 
Q 928 4138 513 4856 
z
" id="DejaVuSans-29" transform="scale(0.015625)"/>
      </defs>
      <use transform="translate(0 0.125)" xlink:href="#DejaVuSans-Oblique-70"/>
      <use transform="translate(63.476562 0.125)" xlink:href="#DejaVuSans-28"/>
      <use transform="translate(102.490234 0.125)" xlink:href="#DejaVuSans-Oblique-6d"/>
      <use transform="translate(199.902344 0.125)" xlink:href="#DejaVuSans-29"/>
     </g>
    </g>
   </g>
   <g id="line2d_4">
    <path clip-path="url(#p1a067f88f0)" d="M 36.3825 28.308171 
L 46.1475 28.314908 
L 55.9125 28.339678 
L 65.6775 7.456154 
L 75.4425 28.337408 
L 85.2075 7.456154 
L 94.9725 28.278906 
L 104.7375 28.209939 
L 114.5025 7.456154 
L 124.2675 28.336133 
L 134.0325 28.314151 
L 143.7975 7.456154 
L 153.5625 28.323563 
L 163.3275 7.456154 
L 173.0925 28.336358 
L 182.8575 28.323589 
L 192.6225 28.037293 
L 202.3875 28.329066 
L 212.1525 7.456154 
L 221.9175 28.327469 
" style="fill:none;stroke:#1f77b4;stroke-linecap:square;stroke-width:0.5;"/>
    <defs>
     <path d="M 0 1 
C 0.265203 1 0.51958 0.894634 0.707107 0.707107 
C 0.894634 0.51958 1 0.265203 1 0 
C 1 -0.265203 0.894634 -0.51958 0.707107 -0.707107 
C 0.51958 -0.894634 0.265203 -1 0 -1 
C -0.265203 -1 -0.51958 -0.894634 -0.707107 -0.707107 
C -0.894634 -0.51958 -1 -0.265203 -1 0 
C -1 0.265203 -0.894634 0.51958 -0.707107 0.707107 
C -0.51958 0.894634 -0.265203 1 0 1 
z
" id="m0984b3a94b" style="stroke:#1f77b4;"/>
    </defs>
    <g clip-path="url(#p1a067f88f0)">
     <use style="fill:#1f77b4;stroke:#1f77b4;" x="36.3825" xlink:href="#m0984b3a94b" y="28.308171"/>
     <use style="fill:#1f77b4;stroke:#1f77b4;" x="46.1475" xlink:href="#m0984b3a94b" y="28.314908"/>
     <use style="fill:#1f77b4;stroke:#1f77b4;" x="55.9125" xlink:href="#m0984b3a94b" y="28.339678"/>
     <use style="fill:#1f77b4;stroke:#1f77b4;" x="65.6775" xlink:href="#m0984b3a94b" y="7.456154"/>
     <use style="fill:#1f77b4;stroke:#1f77b4;" x="75.4425" xlink:href="#m0984b3a94b" y="28.337408"/>
     <use style="fill:#1f77b4;stroke:#1f77b4;" x="85.2075" xlink:href="#m0984b3a94b" y="7.456154"/>
     <use style="fill:#1f77b4;stroke:#1f77b4;" x="94.9725" xlink:href="#m0984b3a94b" y="28.278906"/>
     <use style="fill:#1f77b4;stroke:#1f77b4;" x="104.7375" xlink:href="#m0984b3a94b" y="28.209939"/>
     <use style="fill:#1f77b4;stroke:#1f77b4;" x="114.5025" xlink:href="#m0984b3a94b" y="7.456154"/>
     <use style="fill:#1f77b4;stroke:#1f77b4;" x="124.2675" xlink:href="#m0984b3a94b" y="28.336133"/>
     <use style="fill:#1f77b4;stroke:#1f77b4;" x="134.0325" xlink:href="#m0984b3a94b" y="28.314151"/>
     <use style="fill:#1f77b4;stroke:#1f77b4;" x="143.7975" xlink:href="#m0984b3a94b" y="7.456154"/>
     <use style="fill:#1f77b4;stroke:#1f77b4;" x="153.5625" xlink:href="#m0984b3a94b" y="28.323563"/>
     <use style="fill:#1f77b4;stroke:#1f77b4;" x="163.3275" xlink:href="#m0984b3a94b" y="7.456154"/>
     <use style="fill:#1f77b4;stroke:#1f77b4;" x="173.0925" xlink:href="#m0984b3a94b" y="28.336358"/>
     <use style="fill:#1f77b4;stroke:#1f77b4;" x="182.8575" xlink:href="#m0984b3a94b" y="28.323589"/>
     <use style="fill:#1f77b4;stroke:#1f77b4;" x="192.6225" xlink:href="#m0984b3a94b" y="28.037293"/>
     <use style="fill:#1f77b4;stroke:#1f77b4;" x="202.3875" xlink:href="#m0984b3a94b" y="28.329066"/>
     <use style="fill:#1f77b4;stroke:#1f77b4;" x="212.1525" xlink:href="#m0984b3a94b" y="7.456154"/>
     <use style="fill:#1f77b4;stroke:#1f77b4;" x="221.9175" xlink:href="#m0984b3a94b" y="28.327469"/>
    </g>
   </g>
   <g id="line2d_5">
    <path clip-path="url(#p1a067f88f0)" d="M 36.3825 28.181225 
L 46.1475 28.312833 
L 55.9125 28.335808 
L 65.6775 28.287963 
L 75.4425 28.331465 
L 85.2075 28.282663 
L 94.9725 28.33528 
L 104.7375 28.334908 
L 114.5025 28.276153 
L 124.2675 28.33558 
L 134.0325 28.319101 
L 143.7975 28.284941 
L 153.5625 28.323063 
L 163.3275 7.456154 
L 173.0925 28.337083 
L 182.8575 28.329533 
L 192.6225 28.32091 
L 202.3875 28.335929 
L 212.1525 28.291433 
L 221.9175 28.328739 
" style="fill:none;stroke:#ff7f0e;stroke-linecap:square;stroke-width:0.5;"/>
    <defs>
     <path d="M 0 1 
C 0.265203 1 0.51958 0.894634 0.707107 0.707107 
C 0.894634 0.51958 1 0.265203 1 0 
C 1 -0.265203 0.894634 -0.51958 0.707107 -0.707107 
C 0.51958 -0.894634 0.265203 -1 0 -1 
C -0.265203 -1 -0.51958 -0.894634 -0.707107 -0.707107 
C -0.894634 -0.51958 -1 -0.265203 -1 0 
C -1 0.265203 -0.894634 0.51958 -0.707107 0.707107 
C -0.51958 0.894634 -0.265203 1 0 1 
z
" id="mb84e531b09" style="stroke:#ff7f0e;"/>
    </defs>
    <g clip-path="url(#p1a067f88f0)">
     <use style="fill:#ff7f0e;stroke:#ff7f0e;" x="36.3825" xlink:href="#mb84e531b09" y="28.181225"/>
     <use style="fill:#ff7f0e;stroke:#ff7f0e;" x="46.1475" xlink:href="#mb84e531b09" y="28.312833"/>
     <use style="fill:#ff7f0e;stroke:#ff7f0e;" x="55.9125" xlink:href="#mb84e531b09" y="28.335808"/>
     <use style="fill:#ff7f0e;stroke:#ff7f0e;" x="65.6775" xlink:href="#mb84e531b09" y="28.287963"/>
     <use style="fill:#ff7f0e;stroke:#ff7f0e;" x="75.4425" xlink:href="#mb84e531b09" y="28.331465"/>
     <use style="fill:#ff7f0e;stroke:#ff7f0e;" x="85.2075" xlink:href="#mb84e531b09" y="28.282663"/>
     <use style="fill:#ff7f0e;stroke:#ff7f0e;" x="94.9725" xlink:href="#mb84e531b09" y="28.33528"/>
     <use style="fill:#ff7f0e;stroke:#ff7f0e;" x="104.7375" xlink:href="#mb84e531b09" y="28.334908"/>
     <use style="fill:#ff7f0e;stroke:#ff7f0e;" x="114.5025" xlink:href="#mb84e531b09" y="28.276153"/>
     <use style="fill:#ff7f0e;stroke:#ff7f0e;" x="124.2675" xlink:href="#mb84e531b09" y="28.33558"/>
     <use style="fill:#ff7f0e;stroke:#ff7f0e;" x="134.0325" xlink:href="#mb84e531b09" y="28.319101"/>
     <use style="fill:#ff7f0e;stroke:#ff7f0e;" x="143.7975" xlink:href="#mb84e531b09" y="28.284941"/>
     <use style="fill:#ff7f0e;stroke:#ff7f0e;" x="153.5625" xlink:href="#mb84e531b09" y="28.323063"/>
     <use style="fill:#ff7f0e;stroke:#ff7f0e;" x="163.3275" xlink:href="#mb84e531b09" y="7.456154"/>
     <use style="fill:#ff7f0e;stroke:#ff7f0e;" x="173.0925" xlink:href="#mb84e531b09" y="28.337083"/>
     <use style="fill:#ff7f0e;stroke:#ff7f0e;" x="182.8575" xlink:href="#mb84e531b09" y="28.329533"/>
     <use style="fill:#ff7f0e;stroke:#ff7f0e;" x="192.6225" xlink:href="#mb84e531b09" y="28.32091"/>
     <use style="fill:#ff7f0e;stroke:#ff7f0e;" x="202.3875" xlink:href="#mb84e531b09" y="28.335929"/>
     <use style="fill:#ff7f0e;stroke:#ff7f0e;" x="212.1525" xlink:href="#mb84e531b09" y="28.291433"/>
     <use style="fill:#ff7f0e;stroke:#ff7f0e;" x="221.9175" xlink:href="#mb84e531b09" y="28.328739"/>
    </g>
   </g>
   <g id="patch_3">
    <path d="M 31.5 31.5 
L 31.5 4.32 
" style="fill:none;stroke:#000000;stroke-linecap:square;stroke-linejoin:miter;stroke-width:0.8;"/>
   </g>
   <g id="patch_4">
    <path d="M 226.8 31.5 
L 226.8 4.32 
" style="fill:none;stroke:#000000;stroke-linecap:square;stroke-linejoin:miter;stroke-width:0.8;"/>
   </g>
   <g id="patch_5">
    <path d="M 31.5 31.5 
L 226.8 31.5 
" style="fill:none;stroke:#000000;stroke-linecap:square;stroke-linejoin:miter;stroke-width:0.8;"/>
   </g>
   <g id="patch_6">
    <path d="M 31.5 4.32 
L 226.8 4.32 
" style="fill:none;stroke:#000000;stroke-linecap:square;stroke-linejoin:miter;stroke-width:0.8;"/>
   </g>
  </g>
 </g>
 <defs>
  <clipPath id="p1a067f88f0">
   <rect height="27.18" width="195.3" x="31.5" y="4.32"/>
  </clipPath>
 </defs>
</svg>
