<?xml version="1.0" encoding="utf-8" standalone="no"?>
<!DOCTYPE svg PUBLIC "-//W3C//DTD SVG 1.1//EN"
  "http://www.w3.org/Graphics/SVG/1.1/DTD/svg11.dtd">
<svg height="36pt" version="1.1" viewBox="0 0 252 36" width="252pt" xmlns="http://www.w3.org/2000/svg" xmlns:xlink="http://www.w3.org/1999/xlink">
 <metadata>
  <rdf:RDF xmlns:cc="http://creativecommons.org/ns#" xmlns:dc="http://purl.org/dc/elements/1.1/" xmlns:rdf="http://www.w3.org/1999/02/22-rdf-syntax-ns#">
   <cc:Work>
    <dc:type rdf:resource="http://purl.org/dc/dcmitype/StillImage"/>
    <dc:date>2021-07-10T02:24:51.906984</dc:date>
    <dc:format>image/svg+xml</dc:format>
    <dc:creator>
     <cc:Agent>
      <dc:title>Matplotlib v3.4.2, https://matplotlib.org/</dc:title>
     </cc:Agent>
    </dc:creator>
   </cc:Work>
  </rdf:RDF>
 </metadata>
 <defs>
  <style type="text/css">*{stroke-linecap:butt;stroke-linejoin:round;}</style>
 </defs>
 <g id="figure_1">
  <g id="patch_1">
   <path d="M 0 36 
L 252 36 
L 252 0 
L 0 0 
z
" style="fill:none;"/>
  </g>
  <g id="axes_1">
   <g id="patch_2">
    <path d="M 31.5 31.5 
L 226.8 31.5 
L 226.8 4.32 
L 31.5 4.32 
z
" style="fill:#ffffff;"/>
   </g>
   <g id="PolyCollection_1">
    <defs>
     <path d="M 36.3825 -18.708038 
L 36.3825 -17.311415 
L 46.1475 -14.87363 
L 55.9125 -17.616091 
L 65.6775 -17.779446 
L 75.4425 -5.896041 
L 85.2075 -18.023907 
L 94.9725 -17.431769 
L 104.7375 -17.30161 
L 114.5025 -17.643692 
L 124.2675 -12.739541 
L 134.0325 -6.151475 
L 143.7975 -17.45825 
L 153.5625 -6.457958 
L 163.3275 -17.663009 
L 173.0925 -6.234466 
L 182.8575 -17.336467 
L 192.6225 -17.188841 
L 202.3875 -6.069687 
L 212.1525 -18.007422 
L 221.9175 -6.80979 
L 221.9175 -30.043272 
L 221.9175 -30.043272 
L 212.1525 -18.812261 
L 202.3875 -29.221231 
L 192.6225 -18.664932 
L 182.8575 -18.805772 
L 173.0925 -29.797259 
L 163.3275 -18.383471 
L 153.5625 -29.985277 
L 143.7975 -18.131482 
L 134.0325 -29.083314 
L 124.2675 -21.258889 
L 114.5025 -18.394612 
L 104.7375 -18.739672 
L 94.9725 -18.882708 
L 85.2075 -18.748061 
L 75.4425 -29.318677 
L 65.6775 -18.490898 
L 55.9125 -19.050723 
L 46.1475 -29.187162 
L 36.3825 -18.708038 
z
" id="m327700326d" style="stroke:#1f77b4;stroke-opacity:0.15;"/>
    </defs>
    <g clip-path="url(#pa4e12ef55a)">
     <use style="fill:#1f77b4;fill-opacity:0.15;stroke:#1f77b4;stroke-opacity:0.15;" x="0" xlink:href="#m327700326d" y="36"/>
    </g>
   </g>
   <g id="PolyCollection_2">
    <defs>
     <path d="M 36.3825 -21.073293 
L 36.3825 -15.286083 
L 46.1475 -15.438681 
L 55.9125 -5.735455 
L 65.6775 -7.69125 
L 75.4425 -5.809263 
L 85.2075 -8.22419 
L 94.9725 -6.088052 
L 104.7375 -7.561448 
L 114.5025 -6.222503 
L 124.2675 -13.073649 
L 134.0325 -6.070539 
L 143.7975 -5.935777 
L 153.5625 -7.849201 
L 163.3275 -7.3998 
L 173.0925 -6.138027 
L 182.8575 -6.954024 
L 192.6225 -8.85615 
L 202.3875 -5.897359 
L 212.1525 -7.6708 
L 221.9175 -7.034833 
L 221.9175 -30.310021 
L 221.9175 -30.310021 
L 212.1525 -30.382768 
L 202.3875 -28.964331 
L 192.6225 -30.037912 
L 182.8575 -29.831241 
L 173.0925 -29.769918 
L 163.3275 -8.180832 
L 153.5625 -30.444545 
L 143.7975 -29.222727 
L 134.0325 -29.747633 
L 124.2675 -21.651245 
L 114.5025 -29.129136 
L 104.7375 -30.065174 
L 94.9725 -30.167108 
L 85.2075 -30.387807 
L 75.4425 -28.867646 
L 65.6775 -30.206208 
L 55.9125 -25.324839 
L 46.1475 -30.00567 
L 36.3825 -21.073293 
z
" id="m4b6c5e040a" style="stroke:#ff7f0e;stroke-opacity:0.15;"/>
    </defs>
    <g clip-path="url(#pa4e12ef55a)">
     <use style="fill:#ff7f0e;fill-opacity:0.15;stroke:#ff7f0e;stroke-opacity:0.15;" x="0" xlink:href="#m4b6c5e040a" y="36"/>
    </g>
   </g>
   <g id="matplotlib.axis_1"/>
   <g id="matplotlib.axis_2">
    <g id="ytick_1">
     <g id="line2d_1">
      <defs>
       <path d="M 0 0 
L -3.5 0 
" id="m40eac2cf90" style="stroke:#000000;stroke-width:0.8;"/>
      </defs>
      <g>
       <use style="stroke:#000000;stroke-width:0.8;" x="31.5" xlink:href="#m40eac2cf90" y="27.901647"/>
      </g>
     </g>
     <g id="text_1">
      <!-- −6 -->
      <g transform="translate(12.70625 30.941022)scale(0.08 -0.08)">
       <defs>
        <path d="M 678 2272 
L 4684 2272 
L 4684 1741 
L 678 1741 
L 678 2272 
z
" id="DejaVuSans-2212" transform="scale(0.015625)"/>
        <path d="M 2113 2584 
Q 1688 2584 1439 2293 
Q 1191 2003 1191 1497 
Q 1191 994 1439 701 
Q 1688 409 2113 409 
Q 2538 409 2786 701 
Q 3034 994 3034 1497 
Q 3034 2003 2786 2293 
Q 2538 2584 2113 2584 
z
M 3366 4563 
L 3366 3988 
Q 3128 4100 2886 4159 
Q 2644 4219 2406 4219 
Q 1781 4219 1451 3797 
Q 1122 3375 1075 2522 
Q 1259 2794 1537 2939 
Q 1816 3084 2150 3084 
Q 2853 3084 3261 2657 
Q 3669 2231 3669 1497 
Q 3669 778 3244 343 
Q 2819 -91 2113 -91 
Q 1303 -91 875 529 
Q 447 1150 447 2328 
Q 447 3434 972 4092 
Q 1497 4750 2381 4750 
Q 2619 4750 2861 4703 
Q 3103 4656 3366 4563 
z
" id="DejaVuSans-36" transform="scale(0.015625)"/>
       </defs>
       <use xlink:href="#DejaVuSans-2212"/>
       <use x="83.789062" xlink:href="#DejaVuSans-36"/>
      </g>
     </g>
    </g>
    <g id="ytick_2">
     <g id="line2d_2">
      <g>
       <use style="stroke:#000000;stroke-width:0.8;" x="31.5" xlink:href="#m40eac2cf90" y="17.919909"/>
      </g>
     </g>
     <g id="text_2">
      <!-- 0 -->
      <g transform="translate(19.41 20.959284)scale(0.08 -0.08)">
       <defs>
        <path d="M 2034 4250 
Q 1547 4250 1301 3770 
Q 1056 3291 1056 2328 
Q 1056 1369 1301 889 
Q 1547 409 2034 409 
Q 2525 409 2770 889 
Q 3016 1369 3016 2328 
Q 3016 3291 2770 3770 
Q 2525 4250 2034 4250 
z
M 2034 4750 
Q 2819 4750 3233 4129 
Q 3647 3509 3647 2328 
Q 3647 1150 3233 529 
Q 2819 -91 2034 -91 
Q 1250 -91 836 529 
Q 422 1150 422 2328 
Q 422 3509 836 4129 
Q 1250 4750 2034 4750 
z
" id="DejaVuSans-30" transform="scale(0.015625)"/>
       </defs>
       <use xlink:href="#DejaVuSans-30"/>
      </g>
     </g>
    </g>
    <g id="ytick_3">
     <g id="line2d_3">
      <g>
       <use style="stroke:#000000;stroke-width:0.8;" x="31.5" xlink:href="#m40eac2cf90" y="7.938171"/>
      </g>
     </g>
     <g id="text_3">
      <!-- 6 -->
      <g transform="translate(19.41 10.977546)scale(0.08 -0.08)">
       <use xlink:href="#DejaVuSans-36"/>
      </g>
     </g>
    </g>
    <g id="text_4">
     <!-- $y$ -->
     <g transform="translate(7.02625 20.31)rotate(-90)scale(0.08 -0.08)">
      <defs>
       <path d="M 1588 -325 
Q 1188 -997 936 -1164 
Q 684 -1331 294 -1331 
L -159 -1331 
L -63 -850 
L 269 -850 
Q 509 -850 678 -719 
Q 847 -588 1056 -206 
L 1234 128 
L 459 3500 
L 1069 3500 
L 1650 819 
L 3256 3500 
L 3859 3500 
L 1588 -325 
z
" id="DejaVuSans-Oblique-79" transform="scale(0.015625)"/>
      </defs>
      <use transform="translate(0 0.3125)" xlink:href="#DejaVuSans-Oblique-79"/>
     </g>
    </g>
   </g>
   <g id="line2d_4">
    <path clip-path="url(#pa4e12ef55a)" d="M 36.3825 17.978792 
L 46.1475 12.535433 
L 55.9125 17.741531 
L 65.6775 17.846739 
L 75.4425 19.868349 
L 85.2075 17.628186 
L 94.9725 17.86738 
L 104.7375 17.941274 
L 114.5025 17.97621 
L 124.2675 19.073902 
L 134.0325 19.484207 
L 143.7975 18.201993 
L 153.5625 16.932718 
L 163.3275 17.961849 
L 173.0925 18.520392 
L 182.8575 17.933665 
L 192.6225 18.001751 
L 202.3875 20.122143 
L 212.1525 17.571123 
L 221.9175 16.28268 
" style="fill:none;stroke:#1f77b4;stroke-linecap:square;stroke-width:0.7;"/>
    <defs>
     <path d="M 0 1 
C 0.265203 1 0.51958 0.894634 0.707107 0.707107 
C 0.894634 0.51958 1 0.265203 1 0 
C 1 -0.265203 0.894634 -0.51958 0.707107 -0.707107 
C 0.51958 -0.894634 0.265203 -1 0 -1 
C -0.265203 -1 -0.51958 -0.894634 -0.707107 -0.707107 
C -0.894634 -0.51958 -1 -0.265203 -1 0 
C -1 0.265203 -0.894634 0.51958 -0.707107 0.707107 
C -0.51958 0.894634 -0.265203 1 0 1 
z
" id="m1b1272c798" style="stroke:#1f77b4;"/>
    </defs>
    <g clip-path="url(#pa4e12ef55a)">
     <use style="fill:#1f77b4;stroke:#1f77b4;" x="36.3825" xlink:href="#m1b1272c798" y="17.978792"/>
     <use style="fill:#1f77b4;stroke:#1f77b4;" x="46.1475" xlink:href="#m1b1272c798" y="12.535433"/>
     <use style="fill:#1f77b4;stroke:#1f77b4;" x="55.9125" xlink:href="#m1b1272c798" y="17.741531"/>
     <use style="fill:#1f77b4;stroke:#1f77b4;" x="65.6775" xlink:href="#m1b1272c798" y="17.846739"/>
     <use style="fill:#1f77b4;stroke:#1f77b4;" x="75.4425" xlink:href="#m1b1272c798" y="19.868349"/>
     <use style="fill:#1f77b4;stroke:#1f77b4;" x="85.2075" xlink:href="#m1b1272c798" y="17.628186"/>
     <use style="fill:#1f77b4;stroke:#1f77b4;" x="94.9725" xlink:href="#m1b1272c798" y="17.86738"/>
     <use style="fill:#1f77b4;stroke:#1f77b4;" x="104.7375" xlink:href="#m1b1272c798" y="17.941274"/>
     <use style="fill:#1f77b4;stroke:#1f77b4;" x="114.5025" xlink:href="#m1b1272c798" y="17.97621"/>
     <use style="fill:#1f77b4;stroke:#1f77b4;" x="124.2675" xlink:href="#m1b1272c798" y="19.073902"/>
     <use style="fill:#1f77b4;stroke:#1f77b4;" x="134.0325" xlink:href="#m1b1272c798" y="19.484207"/>
     <use style="fill:#1f77b4;stroke:#1f77b4;" x="143.7975" xlink:href="#m1b1272c798" y="18.201993"/>
     <use style="fill:#1f77b4;stroke:#1f77b4;" x="153.5625" xlink:href="#m1b1272c798" y="16.932718"/>
     <use style="fill:#1f77b4;stroke:#1f77b4;" x="163.3275" xlink:href="#m1b1272c798" y="17.961849"/>
     <use style="fill:#1f77b4;stroke:#1f77b4;" x="173.0925" xlink:href="#m1b1272c798" y="18.520392"/>
     <use style="fill:#1f77b4;stroke:#1f77b4;" x="182.8575" xlink:href="#m1b1272c798" y="17.933665"/>
     <use style="fill:#1f77b4;stroke:#1f77b4;" x="192.6225" xlink:href="#m1b1272c798" y="18.001751"/>
     <use style="fill:#1f77b4;stroke:#1f77b4;" x="202.3875" xlink:href="#m1b1272c798" y="20.122143"/>
     <use style="fill:#1f77b4;stroke:#1f77b4;" x="212.1525" xlink:href="#m1b1272c798" y="17.571123"/>
     <use style="fill:#1f77b4;stroke:#1f77b4;" x="221.9175" xlink:href="#m1b1272c798" y="16.28268"/>
    </g>
   </g>
   <g id="line2d_5">
    <path clip-path="url(#pa4e12ef55a)" d="M 36.3825 17.710617 
L 46.1475 12.159432 
L 55.9125 23.277026 
L 65.6775 15.907415 
L 75.4425 20.189502 
L 85.2075 15.022676 
L 94.9725 18.787242 
L 104.7375 16.303121 
L 114.5025 19.313694 
L 124.2675 18.876422 
L 134.0325 18.578392 
L 143.7975 19.945644 
L 153.5625 14.644096 
L 163.3275 28.213282 
L 173.0925 18.065135 
L 182.8575 16.787151 
L 192.6225 16.332308 
L 202.3875 20.229976 
L 212.1525 15.046553 
L 221.9175 16.317265 
" style="fill:none;stroke:#ff7f0e;stroke-linecap:square;stroke-width:0.7;"/>
    <defs>
     <path d="M 0 1 
C 0.265203 1 0.51958 0.894634 0.707107 0.707107 
C 0.894634 0.51958 1 0.265203 1 0 
C 1 -0.265203 0.894634 -0.51958 0.707107 -0.707107 
C 0.51958 -0.894634 0.265203 -1 0 -1 
C -0.265203 -1 -0.51958 -0.894634 -0.707107 -0.707107 
C -0.894634 -0.51958 -1 -0.265203 -1 0 
C -1 0.265203 -0.894634 0.51958 -0.707107 0.707107 
C -0.51958 0.894634 -0.265203 1 0 1 
z
" id="m9467a58609" style="stroke:#ff7f0e;"/>
    </defs>
    <g clip-path="url(#pa4e12ef55a)">
     <use style="fill:#ff7f0e;stroke:#ff7f0e;" x="36.3825" xlink:href="#m9467a58609" y="17.710617"/>
     <use style="fill:#ff7f0e;stroke:#ff7f0e;" x="46.1475" xlink:href="#m9467a58609" y="12.159432"/>
     <use style="fill:#ff7f0e;stroke:#ff7f0e;" x="55.9125" xlink:href="#m9467a58609" y="23.277026"/>
     <use style="fill:#ff7f0e;stroke:#ff7f0e;" x="65.6775" xlink:href="#m9467a58609" y="15.907415"/>
     <use style="fill:#ff7f0e;stroke:#ff7f0e;" x="75.4425" xlink:href="#m9467a58609" y="20.189502"/>
     <use style="fill:#ff7f0e;stroke:#ff7f0e;" x="85.2075" xlink:href="#m9467a58609" y="15.022676"/>
     <use style="fill:#ff7f0e;stroke:#ff7f0e;" x="94.9725" xlink:href="#m9467a58609" y="18.787242"/>
     <use style="fill:#ff7f0e;stroke:#ff7f0e;" x="104.7375" xlink:href="#m9467a58609" y="16.303121"/>
     <use style="fill:#ff7f0e;stroke:#ff7f0e;" x="114.5025" xlink:href="#m9467a58609" y="19.313694"/>
     <use style="fill:#ff7f0e;stroke:#ff7f0e;" x="124.2675" xlink:href="#m9467a58609" y="18.876422"/>
     <use style="fill:#ff7f0e;stroke:#ff7f0e;" x="134.0325" xlink:href="#m9467a58609" y="18.578392"/>
     <use style="fill:#ff7f0e;stroke:#ff7f0e;" x="143.7975" xlink:href="#m9467a58609" y="19.945644"/>
     <use style="fill:#ff7f0e;stroke:#ff7f0e;" x="153.5625" xlink:href="#m9467a58609" y="14.644096"/>
     <use style="fill:#ff7f0e;stroke:#ff7f0e;" x="163.3275" xlink:href="#m9467a58609" y="28.213282"/>
     <use style="fill:#ff7f0e;stroke:#ff7f0e;" x="173.0925" xlink:href="#m9467a58609" y="18.065135"/>
     <use style="fill:#ff7f0e;stroke:#ff7f0e;" x="182.8575" xlink:href="#m9467a58609" y="16.787151"/>
     <use style="fill:#ff7f0e;stroke:#ff7f0e;" x="192.6225" xlink:href="#m9467a58609" y="16.332308"/>
     <use style="fill:#ff7f0e;stroke:#ff7f0e;" x="202.3875" xlink:href="#m9467a58609" y="20.229976"/>
     <use style="fill:#ff7f0e;stroke:#ff7f0e;" x="212.1525" xlink:href="#m9467a58609" y="15.046553"/>
     <use style="fill:#ff7f0e;stroke:#ff7f0e;" x="221.9175" xlink:href="#m9467a58609" y="16.317265"/>
    </g>
   </g>
   <g id="patch_3">
    <path d="M 31.5 31.5 
L 31.5 4.32 
" style="fill:none;stroke:#000000;stroke-linecap:square;stroke-linejoin:miter;stroke-width:0.8;"/>
   </g>
   <g id="patch_4">
    <path d="M 226.8 31.5 
L 226.8 4.32 
" style="fill:none;stroke:#000000;stroke-linecap:square;stroke-linejoin:miter;stroke-width:0.8;"/>
   </g>
   <g id="patch_5">
    <path d="M 31.5 31.5 
L 226.8 31.5 
" style="fill:none;stroke:#000000;stroke-linecap:square;stroke-linejoin:miter;stroke-width:0.8;"/>
   </g>
   <g id="patch_6">
    <path d="M 31.5 4.32 
L 226.8 4.32 
" style="fill:none;stroke:#000000;stroke-linecap:square;stroke-linejoin:miter;stroke-width:0.8;"/>
   </g>
  </g>
 </g>
 <defs>
  <clipPath id="pa4e12ef55a">
   <rect height="27.18" width="195.3" x="31.5" y="4.32"/>
  </clipPath>
 </defs>
</svg>
