<?xml version="1.0" encoding="utf-8" standalone="no"?>
<!DOCTYPE svg PUBLIC "-//W3C//DTD SVG 1.1//EN"
  "http://www.w3.org/Graphics/SVG/1.1/DTD/svg11.dtd">
<svg height="36pt" version="1.1" viewBox="0 0 252 36" width="252pt" xmlns="http://www.w3.org/2000/svg" xmlns:xlink="http://www.w3.org/1999/xlink">
 <metadata>
  <rdf:RDF xmlns:cc="http://creativecommons.org/ns#" xmlns:dc="http://purl.org/dc/elements/1.1/" xmlns:rdf="http://www.w3.org/1999/02/22-rdf-syntax-ns#">
   <cc:Work>
    <dc:type rdf:resource="http://purl.org/dc/dcmitype/StillImage"/>
    <dc:date>2021-07-10T02:24:12.461307</dc:date>
    <dc:format>image/svg+xml</dc:format>
    <dc:creator>
     <cc:Agent>
      <dc:title>Matplotlib v3.4.2, https://matplotlib.org/</dc:title>
     </cc:Agent>
    </dc:creator>
   </cc:Work>
  </rdf:RDF>
 </metadata>
 <defs>
  <style type="text/css">*{stroke-linecap:butt;stroke-linejoin:round;}</style>
 </defs>
 <g id="figure_1">
  <g id="patch_1">
   <path d="M 0 36 
L 252 36 
L 252 0 
L 0 0 
z
" style="fill:none;"/>
  </g>
  <g id="axes_1">
   <g id="patch_2">
    <path d="M 31.5 31.5 
L 226.8 31.5 
L 226.8 4.32 
L 31.5 4.32 
z
" style="fill:#ffffff;"/>
   </g>
   <g id="PolyCollection_1">
    <defs>
     <path d="M 36.3825 -9.883377 
L 36.3825 -7.353216 
L 46.1475 -7.786765 
L 55.9125 -7.282691 
L 65.6775 -20.93273 
L 75.4425 -7.294734 
L 85.2075 -24.374284 
L 94.9725 -7.490729 
L 104.7375 -7.48238 
L 114.5025 -23.742875 
L 124.2675 -7.924485 
L 134.0325 -7.346538 
L 143.7975 -23.06658 
L 153.5625 -7.306275 
L 163.3275 -21.815182 
L 173.0925 -7.276412 
L 182.8575 -7.335296 
L 192.6225 -7.892287 
L 202.3875 -7.325695 
L 212.1525 -23.02108 
L 221.9175 -7.31445 
L 221.9175 -9.822558 
L 221.9175 -9.822558 
L 212.1525 -28.091774 
L 202.3875 -9.998517 
L 192.6225 -11.221981 
L 182.8575 -9.998173 
L 173.0925 -9.533309 
L 163.3275 -26.298559 
L 153.5625 -9.947058 
L 143.7975 -28.283005 
L 134.0325 -10.459475 
L 124.2675 -12.341436 
L 114.5025 -28.526237 
L 104.7375 -10.462722 
L 94.9725 -9.931975 
L 85.2075 -29.568999 
L 75.4425 -9.961966 
L 65.6775 -25.714218 
L 55.9125 -9.718697 
L 46.1475 -12.390235 
L 36.3825 -9.883377 
z
" id="m3129824551" style="stroke:#1f77b4;stroke-opacity:0.15;"/>
    </defs>
    <g clip-path="url(#p3956b0a2d3)">
     <use style="fill:#1f77b4;fill-opacity:0.15;stroke:#1f77b4;stroke-opacity:0.15;" x="0" xlink:href="#m3129824551" y="36"/>
    </g>
   </g>
   <g id="PolyCollection_2">
    <defs>
     <path d="M 36.3825 -15.27335 
L 36.3825 -9.343074 
L 46.1475 -7.624394 
L 55.9125 -7.321814 
L 65.6775 -7.299194 
L 75.4425 -7.274381 
L 85.2075 -7.267409 
L 94.9725 -7.260083 
L 104.7375 -7.26827 
L 114.5025 -7.285824 
L 124.2675 -7.957036 
L 134.0325 -7.370927 
L 143.7975 -7.310156 
L 153.5625 -7.263691 
L 163.3275 -20.467331 
L 173.0925 -7.254879 
L 182.8575 -7.315739 
L 192.6225 -7.349456 
L 202.3875 -7.337992 
L 212.1525 -7.286229 
L 221.9175 -7.336151 
L 221.9175 -10.300338 
L 221.9175 -10.300338 
L 212.1525 -10.067427 
L 202.3875 -10.652542 
L 192.6225 -10.489876 
L 182.8575 -10.001348 
L 173.0925 -9.643678 
L 163.3275 -26.385652 
L 153.5625 -10.06383 
L 143.7975 -10.151077 
L 134.0325 -10.26234 
L 124.2675 -11.760862 
L 114.5025 -10.424194 
L 104.7375 -9.375479 
L 94.9725 -9.808122 
L 85.2075 -9.655257 
L 75.4425 -9.711899 
L 65.6775 -10.348411 
L 55.9125 -10.77991 
L 46.1475 -11.881935 
L 36.3825 -15.27335 
z
" id="m8aebb89a62" style="stroke:#ff7f0e;stroke-opacity:0.15;"/>
    </defs>
    <g clip-path="url(#p3956b0a2d3)">
     <use style="fill:#ff7f0e;fill-opacity:0.15;stroke:#ff7f0e;stroke-opacity:0.15;" x="0" xlink:href="#m8aebb89a62" y="36"/>
    </g>
   </g>
   <g id="matplotlib.axis_1"/>
   <g id="matplotlib.axis_2">
    <g id="ytick_1">
     <g id="line2d_1">
      <defs>
       <path d="M 0 0 
L -3.5 0 
" id="m36de2410a4" style="stroke:#000000;stroke-width:0.8;"/>
      </defs>
      <g>
       <use style="stroke:#000000;stroke-width:0.8;" x="31.5" xlink:href="#m36de2410a4" y="28.782"/>
      </g>
     </g>
     <g id="text_1">
      <!-- 0 -->
      <g transform="translate(19.41 31.821375)scale(0.08 -0.08)">
       <defs>
        <path d="M 2034 4250 
Q 1547 4250 1301 3770 
Q 1056 3291 1056 2328 
Q 1056 1369 1301 889 
Q 1547 409 2034 409 
Q 2525 409 2770 889 
Q 3016 1369 3016 2328 
Q 3016 3291 2770 3770 
Q 2525 4250 2034 4250 
z
M 2034 4750 
Q 2819 4750 3233 4129 
Q 3647 3509 3647 2328 
Q 3647 1150 3233 529 
Q 2819 -91 2034 -91 
Q 1250 -91 836 529 
Q 422 1150 422 2328 
Q 422 3509 836 4129 
Q 1250 4750 2034 4750 
z
" id="DejaVuSans-30" transform="scale(0.015625)"/>
       </defs>
       <use xlink:href="#DejaVuSans-30"/>
      </g>
     </g>
    </g>
    <g id="ytick_2">
     <g id="line2d_2">
      <g>
       <use style="stroke:#000000;stroke-width:0.8;" x="31.5" xlink:href="#m36de2410a4" y="17.91"/>
      </g>
     </g>
     <g id="text_2">
      <!-- 2000 -->
      <g transform="translate(4.14 20.949375)scale(0.08 -0.08)">
       <defs>
        <path d="M 1228 531 
L 3431 531 
L 3431 0 
L 469 0 
L 469 531 
Q 828 903 1448 1529 
Q 2069 2156 2228 2338 
Q 2531 2678 2651 2914 
Q 2772 3150 2772 3378 
Q 2772 3750 2511 3984 
Q 2250 4219 1831 4219 
Q 1534 4219 1204 4116 
Q 875 4013 500 3803 
L 500 4441 
Q 881 4594 1212 4672 
Q 1544 4750 1819 4750 
Q 2544 4750 2975 4387 
Q 3406 4025 3406 3419 
Q 3406 3131 3298 2873 
Q 3191 2616 2906 2266 
Q 2828 2175 2409 1742 
Q 1991 1309 1228 531 
z
" id="DejaVuSans-32" transform="scale(0.015625)"/>
       </defs>
       <use xlink:href="#DejaVuSans-32"/>
       <use x="63.623047" xlink:href="#DejaVuSans-30"/>
       <use x="127.246094" xlink:href="#DejaVuSans-30"/>
       <use x="190.869141" xlink:href="#DejaVuSans-30"/>
      </g>
     </g>
    </g>
    <g id="ytick_3">
     <g id="line2d_3">
      <g>
       <use style="stroke:#000000;stroke-width:0.8;" x="31.5" xlink:href="#m36de2410a4" y="7.038"/>
      </g>
     </g>
     <g id="text_3">
      <!-- 4000 -->
      <g transform="translate(4.14 10.077375)scale(0.08 -0.08)">
       <defs>
        <path d="M 2419 4116 
L 825 1625 
L 2419 1625 
L 2419 4116 
z
M 2253 4666 
L 3047 4666 
L 3047 1625 
L 3713 1625 
L 3713 1100 
L 3047 1100 
L 3047 0 
L 2419 0 
L 2419 1100 
L 313 1100 
L 313 1709 
L 2253 4666 
z
" id="DejaVuSans-34" transform="scale(0.015625)"/>
       </defs>
       <use xlink:href="#DejaVuSans-34"/>
       <use x="63.623047" xlink:href="#DejaVuSans-30"/>
       <use x="127.246094" xlink:href="#DejaVuSans-30"/>
       <use x="190.869141" xlink:href="#DejaVuSans-30"/>
      </g>
     </g>
    </g>
    <g id="text_4">
     <!-- $h$ -->
     <g transform="translate(-1.52375 20.47)rotate(-90)scale(0.08 -0.08)">
      <defs>
       <path d="M 3566 2113 
L 3156 0 
L 2578 0 
L 2988 2091 
Q 3016 2238 3031 2350 
Q 3047 2463 3047 2528 
Q 3047 2791 2881 2937 
Q 2716 3084 2419 3084 
Q 1956 3084 1617 2771 
Q 1278 2459 1178 1941 
L 800 0 
L 225 0 
L 1172 4863 
L 1747 4863 
L 1375 2950 
Q 1594 3244 1934 3414 
Q 2275 3584 2650 3584 
Q 3113 3584 3367 3334 
Q 3622 3084 3622 2631 
Q 3622 2519 3608 2391 
Q 3594 2263 3566 2113 
z
" id="DejaVuSans-Oblique-68" transform="scale(0.015625)"/>
      </defs>
      <use transform="translate(0 0.015625)" xlink:href="#DejaVuSans-Oblique-68"/>
     </g>
    </g>
   </g>
   <g id="line2d_4">
    <path clip-path="url(#p3956b0a2d3)" d="M 36.3825 27.772288 
L 46.1475 26.525125 
L 55.9125 27.988775 
L 65.6775 12.726893 
L 75.4425 27.869027 
L 85.2075 9.166278 
L 94.9725 27.574584 
L 104.7375 27.320619 
L 114.5025 10.109331 
L 124.2675 26.480089 
L 134.0325 27.64859 
L 143.7975 10.460255 
L 153.5625 27.867371 
L 163.3275 11.902462 
L 173.0925 27.971294 
L 182.8575 27.893802 
L 192.6225 26.816516 
L 202.3875 27.745845 
L 212.1525 10.515834 
L 221.9175 27.927259 
" style="fill:none;stroke:#1f77b4;stroke-linecap:square;stroke-width:0.7;"/>
    <defs>
     <path d="M 0 1 
C 0.265203 1 0.51958 0.894634 0.707107 0.707107 
C 0.894634 0.51958 1 0.265203 1 0 
C 1 -0.265203 0.894634 -0.51958 0.707107 -0.707107 
C 0.51958 -0.894634 0.265203 -1 0 -1 
C -0.265203 -1 -0.51958 -0.894634 -0.707107 -0.707107 
C -0.894634 -0.51958 -1 -0.265203 -1 0 
C -1 0.265203 -0.894634 0.51958 -0.707107 0.707107 
C -0.51958 0.894634 -0.265203 1 0 1 
z
" id="mf83b4a9010" style="stroke:#1f77b4;"/>
    </defs>
    <g clip-path="url(#p3956b0a2d3)">
     <use style="fill:#1f77b4;stroke:#1f77b4;" x="36.3825" xlink:href="#mf83b4a9010" y="27.772288"/>
     <use style="fill:#1f77b4;stroke:#1f77b4;" x="46.1475" xlink:href="#mf83b4a9010" y="26.525125"/>
     <use style="fill:#1f77b4;stroke:#1f77b4;" x="55.9125" xlink:href="#mf83b4a9010" y="27.988775"/>
     <use style="fill:#1f77b4;stroke:#1f77b4;" x="65.6775" xlink:href="#mf83b4a9010" y="12.726893"/>
     <use style="fill:#1f77b4;stroke:#1f77b4;" x="75.4425" xlink:href="#mf83b4a9010" y="27.869027"/>
     <use style="fill:#1f77b4;stroke:#1f77b4;" x="85.2075" xlink:href="#mf83b4a9010" y="9.166278"/>
     <use style="fill:#1f77b4;stroke:#1f77b4;" x="94.9725" xlink:href="#mf83b4a9010" y="27.574584"/>
     <use style="fill:#1f77b4;stroke:#1f77b4;" x="104.7375" xlink:href="#mf83b4a9010" y="27.320619"/>
     <use style="fill:#1f77b4;stroke:#1f77b4;" x="114.5025" xlink:href="#mf83b4a9010" y="10.109331"/>
     <use style="fill:#1f77b4;stroke:#1f77b4;" x="124.2675" xlink:href="#mf83b4a9010" y="26.480089"/>
     <use style="fill:#1f77b4;stroke:#1f77b4;" x="134.0325" xlink:href="#mf83b4a9010" y="27.64859"/>
     <use style="fill:#1f77b4;stroke:#1f77b4;" x="143.7975" xlink:href="#mf83b4a9010" y="10.460255"/>
     <use style="fill:#1f77b4;stroke:#1f77b4;" x="153.5625" xlink:href="#mf83b4a9010" y="27.867371"/>
     <use style="fill:#1f77b4;stroke:#1f77b4;" x="163.3275" xlink:href="#mf83b4a9010" y="11.902462"/>
     <use style="fill:#1f77b4;stroke:#1f77b4;" x="173.0925" xlink:href="#mf83b4a9010" y="27.971294"/>
     <use style="fill:#1f77b4;stroke:#1f77b4;" x="182.8575" xlink:href="#mf83b4a9010" y="27.893802"/>
     <use style="fill:#1f77b4;stroke:#1f77b4;" x="192.6225" xlink:href="#mf83b4a9010" y="26.816516"/>
     <use style="fill:#1f77b4;stroke:#1f77b4;" x="202.3875" xlink:href="#mf83b4a9010" y="27.745845"/>
     <use style="fill:#1f77b4;stroke:#1f77b4;" x="212.1525" xlink:href="#mf83b4a9010" y="10.515834"/>
     <use style="fill:#1f77b4;stroke:#1f77b4;" x="221.9175" xlink:href="#mf83b4a9010" y="27.927259"/>
    </g>
   </g>
   <g id="line2d_5">
    <path clip-path="url(#p3956b0a2d3)" d="M 36.3825 24.231569 
L 46.1475 26.85807 
L 55.9125 27.661605 
L 65.6775 27.771251 
L 75.4425 27.951679 
L 85.2075 27.969744 
L 94.9725 28.016431 
L 104.7375 27.956767 
L 114.5025 27.858482 
L 124.2675 26.514785 
L 134.0325 27.640987 
L 143.7975 27.861479 
L 153.5625 27.816092 
L 163.3275 12.579162 
L 173.0925 28.007232 
L 182.8575 27.849676 
L 192.6225 27.722166 
L 202.3875 27.655561 
L 212.1525 27.828646 
L 221.9175 27.759569 
" style="fill:none;stroke:#ff7f0e;stroke-linecap:square;stroke-width:0.7;"/>
    <defs>
     <path d="M 0 1 
C 0.265203 1 0.51958 0.894634 0.707107 0.707107 
C 0.894634 0.51958 1 0.265203 1 0 
C 1 -0.265203 0.894634 -0.51958 0.707107 -0.707107 
C 0.51958 -0.894634 0.265203 -1 0 -1 
C -0.265203 -1 -0.51958 -0.894634 -0.707107 -0.707107 
C -0.894634 -0.51958 -1 -0.265203 -1 0 
C -1 0.265203 -0.894634 0.51958 -0.707107 0.707107 
C -0.51958 0.894634 -0.265203 1 0 1 
z
" id="m02c6a9d426" style="stroke:#ff7f0e;"/>
    </defs>
    <g clip-path="url(#p3956b0a2d3)">
     <use style="fill:#ff7f0e;stroke:#ff7f0e;" x="36.3825" xlink:href="#m02c6a9d426" y="24.231569"/>
     <use style="fill:#ff7f0e;stroke:#ff7f0e;" x="46.1475" xlink:href="#m02c6a9d426" y="26.85807"/>
     <use style="fill:#ff7f0e;stroke:#ff7f0e;" x="55.9125" xlink:href="#m02c6a9d426" y="27.661605"/>
     <use style="fill:#ff7f0e;stroke:#ff7f0e;" x="65.6775" xlink:href="#m02c6a9d426" y="27.771251"/>
     <use style="fill:#ff7f0e;stroke:#ff7f0e;" x="75.4425" xlink:href="#m02c6a9d426" y="27.951679"/>
     <use style="fill:#ff7f0e;stroke:#ff7f0e;" x="85.2075" xlink:href="#m02c6a9d426" y="27.969744"/>
     <use style="fill:#ff7f0e;stroke:#ff7f0e;" x="94.9725" xlink:href="#m02c6a9d426" y="28.016431"/>
     <use style="fill:#ff7f0e;stroke:#ff7f0e;" x="104.7375" xlink:href="#m02c6a9d426" y="27.956767"/>
     <use style="fill:#ff7f0e;stroke:#ff7f0e;" x="114.5025" xlink:href="#m02c6a9d426" y="27.858482"/>
     <use style="fill:#ff7f0e;stroke:#ff7f0e;" x="124.2675" xlink:href="#m02c6a9d426" y="26.514785"/>
     <use style="fill:#ff7f0e;stroke:#ff7f0e;" x="134.0325" xlink:href="#m02c6a9d426" y="27.640987"/>
     <use style="fill:#ff7f0e;stroke:#ff7f0e;" x="143.7975" xlink:href="#m02c6a9d426" y="27.861479"/>
     <use style="fill:#ff7f0e;stroke:#ff7f0e;" x="153.5625" xlink:href="#m02c6a9d426" y="27.816092"/>
     <use style="fill:#ff7f0e;stroke:#ff7f0e;" x="163.3275" xlink:href="#m02c6a9d426" y="12.579162"/>
     <use style="fill:#ff7f0e;stroke:#ff7f0e;" x="173.0925" xlink:href="#m02c6a9d426" y="28.007232"/>
     <use style="fill:#ff7f0e;stroke:#ff7f0e;" x="182.8575" xlink:href="#m02c6a9d426" y="27.849676"/>
     <use style="fill:#ff7f0e;stroke:#ff7f0e;" x="192.6225" xlink:href="#m02c6a9d426" y="27.722166"/>
     <use style="fill:#ff7f0e;stroke:#ff7f0e;" x="202.3875" xlink:href="#m02c6a9d426" y="27.655561"/>
     <use style="fill:#ff7f0e;stroke:#ff7f0e;" x="212.1525" xlink:href="#m02c6a9d426" y="27.828646"/>
     <use style="fill:#ff7f0e;stroke:#ff7f0e;" x="221.9175" xlink:href="#m02c6a9d426" y="27.759569"/>
    </g>
   </g>
   <g id="patch_3">
    <path d="M 31.5 31.5 
L 31.5 4.32 
" style="fill:none;stroke:#000000;stroke-linecap:square;stroke-linejoin:miter;stroke-width:0.8;"/>
   </g>
   <g id="patch_4">
    <path d="M 226.8 31.5 
L 226.8 4.32 
" style="fill:none;stroke:#000000;stroke-linecap:square;stroke-linejoin:miter;stroke-width:0.8;"/>
   </g>
   <g id="patch_5">
    <path d="M 31.5 31.5 
L 226.8 31.5 
" style="fill:none;stroke:#000000;stroke-linecap:square;stroke-linejoin:miter;stroke-width:0.8;"/>
   </g>
   <g id="patch_6">
    <path d="M 31.5 4.32 
L 226.8 4.32 
" style="fill:none;stroke:#000000;stroke-linecap:square;stroke-linejoin:miter;stroke-width:0.8;"/>
   </g>
  </g>
 </g>
 <defs>
  <clipPath id="p3956b0a2d3">
   <rect height="27.18" width="195.3" x="31.5" y="4.32"/>
  </clipPath>
 </defs>
</svg>
