<?xml version="1.0" encoding="utf-8" standalone="no"?>
<!DOCTYPE svg PUBLIC "-//W3C//DTD SVG 1.1//EN"
  "http://www.w3.org/Graphics/SVG/1.1/DTD/svg11.dtd">
<svg height="36pt" version="1.1" viewBox="0 0 252 36" width="252pt" xmlns="http://www.w3.org/2000/svg" xmlns:xlink="http://www.w3.org/1999/xlink">
 <metadata>
  <rdf:RDF xmlns:cc="http://creativecommons.org/ns#" xmlns:dc="http://purl.org/dc/elements/1.1/" xmlns:rdf="http://www.w3.org/1999/02/22-rdf-syntax-ns#">
   <cc:Work>
    <dc:type rdf:resource="http://purl.org/dc/dcmitype/StillImage"/>
    <dc:date>2021-05-09T08:02:15.771557</dc:date>
    <dc:format>image/svg+xml</dc:format>
    <dc:creator>
     <cc:Agent>
      <dc:title>Matplotlib v3.4.2, https://matplotlib.org/</dc:title>
     </cc:Agent>
    </dc:creator>
   </cc:Work>
  </rdf:RDF>
 </metadata>
 <defs>
  <style type="text/css">*{stroke-linecap:butt;stroke-linejoin:round;}</style>
 </defs>
 <g id="figure_1">
  <g id="patch_1">
   <path d="M 0 36 
L 252 36 
L 252 0 
L 0 0 
z
" style="fill:none;"/>
  </g>
  <g id="axes_1">
   <g id="patch_2">
    <path d="M 31.5 31.5 
L 226.8 31.5 
L 226.8 4.32 
L 31.5 4.32 
z
" style="fill:#ffffff;"/>
   </g>
   <g id="PolyCollection_1">
    <defs>
     <path d="M 36.15 -14.599081 
L 36.15 -13.666398 
L 45.45 -8.464024 
L 54.75 -18.623718 
L 64.05 -6.300321 
L 73.35 -17.348741 
L 82.65 -6.06782 
L 91.95 -17.35297 
L 101.25 -13.212183 
L 110.55 -17.395847 
L 119.85 -6.586004 
L 129.15 -14.169507 
L 138.45 -6.184884 
L 147.75 -16.138212 
L 157.05 -6.217876 
L 166.35 -16.03647 
L 175.65 -18.166689 
L 184.95 -18.269751 
L 194.25 -17.391471 
L 203.55 -6.292635 
L 212.85 -17.591181 
L 222.15 -18.496812 
L 222.15 -19.458445 
L 222.15 -19.458445 
L 212.85 -18.380425 
L 203.55 -30.027846 
L 194.25 -18.801098 
L 184.95 -19.025911 
L 175.65 -18.868595 
L 166.35 -17.562607 
L 157.05 -30.118111 
L 147.75 -17.290499 
L 138.45 -30.020108 
L 129.15 -15.064133 
L 119.85 -29.580678 
L 110.55 -18.701774 
L 101.25 -14.165756 
L 91.95 -18.700994 
L 82.65 -29.367975 
L 73.35 -18.734407 
L 64.05 -29.77712 
L 54.75 -19.32847 
L 45.45 -9.243159 
L 36.15 -14.599081 
z
" id="me58d3acdd5" style="stroke:#1f77b4;stroke-opacity:0.15;"/>
    </defs>
    <g clip-path="url(#pf4d5eb5350)">
     <use style="fill:#1f77b4;fill-opacity:0.15;stroke:#1f77b4;stroke-opacity:0.15;" x="0" xlink:href="#me58d3acdd5" y="36"/>
    </g>
   </g>
   <g id="PolyCollection_2">
    <defs>
     <path d="M 36.15 -30.444545 
L 36.15 -7.002021 
L 45.45 -6.285936 
L 54.75 -7.330369 
L 64.05 -9.047633 
L 73.35 -6.088864 
L 82.65 -5.950733 
L 91.95 -6.605888 
L 101.25 -5.735455 
L 110.55 -12.671328 
L 119.85 -17.849675 
L 129.15 -5.945729 
L 138.45 -6.248775 
L 147.75 -7.040604 
L 157.05 -26.424811 
L 166.35 -6.471244 
L 175.65 -6.265381 
L 184.95 -6.045661 
L 194.25 -6.193389 
L 203.55 -6.461406 
L 212.85 -19.757006 
L 222.15 -9.199659 
L 222.15 -10.00897 
L 222.15 -10.00897 
L 212.85 -20.805064 
L 203.55 -30.362053 
L 194.25 -30.143801 
L 184.95 -29.721165 
L 175.65 -30.009471 
L 166.35 -29.885666 
L 157.05 -28.194426 
L 147.75 -30.201953 
L 138.45 -30.0724 
L 129.15 -29.871012 
L 119.85 -19.548916 
L 110.55 -22.224519 
L 101.25 -29.073546 
L 91.95 -29.835743 
L 82.65 -29.228199 
L 73.35 -28.571366 
L 64.05 -9.854612 
L 54.75 -30.36312 
L 45.45 -29.991482 
L 36.15 -30.444545 
z
" id="m8f3a2175d3" style="stroke:#ff7f0e;stroke-opacity:0.15;"/>
    </defs>
    <g clip-path="url(#pf4d5eb5350)">
     <use style="fill:#ff7f0e;fill-opacity:0.15;stroke:#ff7f0e;stroke-opacity:0.15;" x="0" xlink:href="#m8f3a2175d3" y="36"/>
    </g>
   </g>
   <g id="matplotlib.axis_1"/>
   <g id="matplotlib.axis_2">
    <g id="ytick_1">
     <g id="line2d_1">
      <defs>
       <path d="M 0 0 
L -3.5 0 
" id="mf31da8c4f5" style="stroke:#000000;stroke-width:0.8;"/>
      </defs>
      <g>
       <use style="stroke:#000000;stroke-width:0.8;" x="31.5" xlink:href="#mf31da8c4f5" y="27.962499"/>
      </g>
     </g>
     <g id="text_1">
      <!-- −6 -->
      <g transform="translate(12.70625 31.001874)scale(0.08 -0.08)">
       <defs>
        <path d="M 678 2272 
L 4684 2272 
L 4684 1741 
L 678 1741 
L 678 2272 
z
" id="DejaVuSans-2212" transform="scale(0.015625)"/>
        <path d="M 2113 2584 
Q 1688 2584 1439 2293 
Q 1191 2003 1191 1497 
Q 1191 994 1439 701 
Q 1688 409 2113 409 
Q 2538 409 2786 701 
Q 3034 994 3034 1497 
Q 3034 2003 2786 2293 
Q 2538 2584 2113 2584 
z
M 3366 4563 
L 3366 3988 
Q 3128 4100 2886 4159 
Q 2644 4219 2406 4219 
Q 1781 4219 1451 3797 
Q 1122 3375 1075 2522 
Q 1259 2794 1537 2939 
Q 1816 3084 2150 3084 
Q 2853 3084 3261 2657 
Q 3669 2231 3669 1497 
Q 3669 778 3244 343 
Q 2819 -91 2113 -91 
Q 1303 -91 875 529 
Q 447 1150 447 2328 
Q 447 3434 972 4092 
Q 1497 4750 2381 4750 
Q 2619 4750 2861 4703 
Q 3103 4656 3366 4563 
z
" id="DejaVuSans-36" transform="scale(0.015625)"/>
       </defs>
       <use xlink:href="#DejaVuSans-2212"/>
       <use x="83.789062" xlink:href="#DejaVuSans-36"/>
      </g>
     </g>
    </g>
    <g id="ytick_2">
     <g id="line2d_2">
      <g>
       <use style="stroke:#000000;stroke-width:0.8;" x="31.5" xlink:href="#mf31da8c4f5" y="17.916322"/>
      </g>
     </g>
     <g id="text_2">
      <!-- 0 -->
      <g transform="translate(19.41 20.955697)scale(0.08 -0.08)">
       <defs>
        <path d="M 2034 4250 
Q 1547 4250 1301 3770 
Q 1056 3291 1056 2328 
Q 1056 1369 1301 889 
Q 1547 409 2034 409 
Q 2525 409 2770 889 
Q 3016 1369 3016 2328 
Q 3016 3291 2770 3770 
Q 2525 4250 2034 4250 
z
M 2034 4750 
Q 2819 4750 3233 4129 
Q 3647 3509 3647 2328 
Q 3647 1150 3233 529 
Q 2819 -91 2034 -91 
Q 1250 -91 836 529 
Q 422 1150 422 2328 
Q 422 3509 836 4129 
Q 1250 4750 2034 4750 
z
" id="DejaVuSans-30" transform="scale(0.015625)"/>
       </defs>
       <use xlink:href="#DejaVuSans-30"/>
      </g>
     </g>
    </g>
    <g id="ytick_3">
     <g id="line2d_3">
      <g>
       <use style="stroke:#000000;stroke-width:0.8;" x="31.5" xlink:href="#mf31da8c4f5" y="7.870145"/>
      </g>
     </g>
     <g id="text_3">
      <!-- 6 -->
      <g transform="translate(19.41 10.90952)scale(0.08 -0.08)">
       <use xlink:href="#DejaVuSans-36"/>
      </g>
     </g>
    </g>
    <g id="text_4">
     <!-- $y$ -->
     <g transform="translate(7.02625 20.31)rotate(-90)scale(0.08 -0.08)">
      <defs>
       <path d="M 1588 -325 
Q 1188 -997 936 -1164 
Q 684 -1331 294 -1331 
L -159 -1331 
L -63 -850 
L 269 -850 
Q 509 -850 678 -719 
Q 847 -588 1056 -206 
L 1234 128 
L 459 3500 
L 1069 3500 
L 1650 819 
L 3256 3500 
L 3859 3500 
L 1588 -325 
z
" id="DejaVuSans-Oblique-79" transform="scale(0.015625)"/>
      </defs>
      <use transform="translate(0 0.3125)" xlink:href="#DejaVuSans-Oblique-79"/>
     </g>
    </g>
   </g>
   <g id="line2d_4">
    <path clip-path="url(#pf4d5eb5350)" d="M 36.15 21.846108 
L 45.45 27.130209 
L 54.75 17.030679 
L 64.05 17.594405 
L 73.35 17.96344 
L 82.65 19.071366 
L 91.95 17.931635 
L 101.25 22.321403 
L 110.55 17.950276 
L 119.85 17.401718 
L 129.15 21.389699 
L 138.45 17.590604 
L 147.75 19.246955 
L 157.05 17.328318 
L 166.35 19.143731 
L 175.65 17.486563 
L 184.95 17.347126 
L 194.25 17.915581 
L 203.55 17.447466 
L 212.85 18.043224 
L 222.15 17.034108 
" style="fill:none;stroke:#1f77b4;stroke-linecap:square;stroke-width:0.7;"/>
    <defs>
     <path d="M 0 1 
C 0.265203 1 0.51958 0.894634 0.707107 0.707107 
C 0.894634 0.51958 1 0.265203 1 0 
C 1 -0.265203 0.894634 -0.51958 0.707107 -0.707107 
C 0.51958 -0.894634 0.265203 -1 0 -1 
C -0.265203 -1 -0.51958 -0.894634 -0.707107 -0.707107 
C -0.894634 -0.51958 -1 -0.265203 -1 0 
C -1 0.265203 -0.894634 0.51958 -0.707107 0.707107 
C -0.51958 0.894634 -0.265203 1 0 1 
z
" id="m1121ff2aa3" style="stroke:#1f77b4;"/>
    </defs>
    <g clip-path="url(#pf4d5eb5350)">
     <use style="fill:#1f77b4;stroke:#1f77b4;" x="36.15" xlink:href="#m1121ff2aa3" y="21.846108"/>
     <use style="fill:#1f77b4;stroke:#1f77b4;" x="45.45" xlink:href="#m1121ff2aa3" y="27.130209"/>
     <use style="fill:#1f77b4;stroke:#1f77b4;" x="54.75" xlink:href="#m1121ff2aa3" y="17.030679"/>
     <use style="fill:#1f77b4;stroke:#1f77b4;" x="64.05" xlink:href="#m1121ff2aa3" y="17.594405"/>
     <use style="fill:#1f77b4;stroke:#1f77b4;" x="73.35" xlink:href="#m1121ff2aa3" y="17.96344"/>
     <use style="fill:#1f77b4;stroke:#1f77b4;" x="82.65" xlink:href="#m1121ff2aa3" y="19.071366"/>
     <use style="fill:#1f77b4;stroke:#1f77b4;" x="91.95" xlink:href="#m1121ff2aa3" y="17.931635"/>
     <use style="fill:#1f77b4;stroke:#1f77b4;" x="101.25" xlink:href="#m1121ff2aa3" y="22.321403"/>
     <use style="fill:#1f77b4;stroke:#1f77b4;" x="110.55" xlink:href="#m1121ff2aa3" y="17.950276"/>
     <use style="fill:#1f77b4;stroke:#1f77b4;" x="119.85" xlink:href="#m1121ff2aa3" y="17.401718"/>
     <use style="fill:#1f77b4;stroke:#1f77b4;" x="129.15" xlink:href="#m1121ff2aa3" y="21.389699"/>
     <use style="fill:#1f77b4;stroke:#1f77b4;" x="138.45" xlink:href="#m1121ff2aa3" y="17.590604"/>
     <use style="fill:#1f77b4;stroke:#1f77b4;" x="147.75" xlink:href="#m1121ff2aa3" y="19.246955"/>
     <use style="fill:#1f77b4;stroke:#1f77b4;" x="157.05" xlink:href="#m1121ff2aa3" y="17.328318"/>
     <use style="fill:#1f77b4;stroke:#1f77b4;" x="166.35" xlink:href="#m1121ff2aa3" y="19.143731"/>
     <use style="fill:#1f77b4;stroke:#1f77b4;" x="175.65" xlink:href="#m1121ff2aa3" y="17.486563"/>
     <use style="fill:#1f77b4;stroke:#1f77b4;" x="184.95" xlink:href="#m1121ff2aa3" y="17.347126"/>
     <use style="fill:#1f77b4;stroke:#1f77b4;" x="194.25" xlink:href="#m1121ff2aa3" y="17.915581"/>
     <use style="fill:#1f77b4;stroke:#1f77b4;" x="203.55" xlink:href="#m1121ff2aa3" y="17.447466"/>
     <use style="fill:#1f77b4;stroke:#1f77b4;" x="212.85" xlink:href="#m1121ff2aa3" y="18.043224"/>
     <use style="fill:#1f77b4;stroke:#1f77b4;" x="222.15" xlink:href="#m1121ff2aa3" y="17.034108"/>
    </g>
   </g>
   <g id="line2d_5">
    <path clip-path="url(#pf4d5eb5350)" d="M 36.15 16.739596 
L 45.45 17.853467 
L 54.75 16.500391 
L 64.05 26.525949 
L 73.35 20.609024 
L 82.65 19.557472 
L 91.95 16.952676 
L 101.25 19.572687 
L 110.55 18.651558 
L 119.85 17.304905 
L 129.15 18.462439 
L 138.45 18.510978 
L 147.75 16.075745 
L 157.05 8.674496 
L 166.35 17.98798 
L 175.65 17.274645 
L 184.95 19.249551 
L 194.25 17.864211 
L 203.55 15.717431 
L 212.85 15.663049 
L 222.15 26.415897 
" style="fill:none;stroke:#ff7f0e;stroke-linecap:square;stroke-width:0.7;"/>
    <defs>
     <path d="M 0 1 
C 0.265203 1 0.51958 0.894634 0.707107 0.707107 
C 0.894634 0.51958 1 0.265203 1 0 
C 1 -0.265203 0.894634 -0.51958 0.707107 -0.707107 
C 0.51958 -0.894634 0.265203 -1 0 -1 
C -0.265203 -1 -0.51958 -0.894634 -0.707107 -0.707107 
C -0.894634 -0.51958 -1 -0.265203 -1 0 
C -1 0.265203 -0.894634 0.51958 -0.707107 0.707107 
C -0.51958 0.894634 -0.265203 1 0 1 
z
" id="mae0e7a63aa" style="stroke:#ff7f0e;"/>
    </defs>
    <g clip-path="url(#pf4d5eb5350)">
     <use style="fill:#ff7f0e;stroke:#ff7f0e;" x="36.15" xlink:href="#mae0e7a63aa" y="16.739596"/>
     <use style="fill:#ff7f0e;stroke:#ff7f0e;" x="45.45" xlink:href="#mae0e7a63aa" y="17.853467"/>
     <use style="fill:#ff7f0e;stroke:#ff7f0e;" x="54.75" xlink:href="#mae0e7a63aa" y="16.500391"/>
     <use style="fill:#ff7f0e;stroke:#ff7f0e;" x="64.05" xlink:href="#mae0e7a63aa" y="26.525949"/>
     <use style="fill:#ff7f0e;stroke:#ff7f0e;" x="73.35" xlink:href="#mae0e7a63aa" y="20.609024"/>
     <use style="fill:#ff7f0e;stroke:#ff7f0e;" x="82.65" xlink:href="#mae0e7a63aa" y="19.557472"/>
     <use style="fill:#ff7f0e;stroke:#ff7f0e;" x="91.95" xlink:href="#mae0e7a63aa" y="16.952676"/>
     <use style="fill:#ff7f0e;stroke:#ff7f0e;" x="101.25" xlink:href="#mae0e7a63aa" y="19.572687"/>
     <use style="fill:#ff7f0e;stroke:#ff7f0e;" x="110.55" xlink:href="#mae0e7a63aa" y="18.651558"/>
     <use style="fill:#ff7f0e;stroke:#ff7f0e;" x="119.85" xlink:href="#mae0e7a63aa" y="17.304905"/>
     <use style="fill:#ff7f0e;stroke:#ff7f0e;" x="129.15" xlink:href="#mae0e7a63aa" y="18.462439"/>
     <use style="fill:#ff7f0e;stroke:#ff7f0e;" x="138.45" xlink:href="#mae0e7a63aa" y="18.510978"/>
     <use style="fill:#ff7f0e;stroke:#ff7f0e;" x="147.75" xlink:href="#mae0e7a63aa" y="16.075745"/>
     <use style="fill:#ff7f0e;stroke:#ff7f0e;" x="157.05" xlink:href="#mae0e7a63aa" y="8.674496"/>
     <use style="fill:#ff7f0e;stroke:#ff7f0e;" x="166.35" xlink:href="#mae0e7a63aa" y="17.98798"/>
     <use style="fill:#ff7f0e;stroke:#ff7f0e;" x="175.65" xlink:href="#mae0e7a63aa" y="17.274645"/>
     <use style="fill:#ff7f0e;stroke:#ff7f0e;" x="184.95" xlink:href="#mae0e7a63aa" y="19.249551"/>
     <use style="fill:#ff7f0e;stroke:#ff7f0e;" x="194.25" xlink:href="#mae0e7a63aa" y="17.864211"/>
     <use style="fill:#ff7f0e;stroke:#ff7f0e;" x="203.55" xlink:href="#mae0e7a63aa" y="15.717431"/>
     <use style="fill:#ff7f0e;stroke:#ff7f0e;" x="212.85" xlink:href="#mae0e7a63aa" y="15.663049"/>
     <use style="fill:#ff7f0e;stroke:#ff7f0e;" x="222.15" xlink:href="#mae0e7a63aa" y="26.415897"/>
    </g>
   </g>
   <g id="patch_3">
    <path d="M 31.5 31.5 
L 31.5 4.32 
" style="fill:none;stroke:#000000;stroke-linecap:square;stroke-linejoin:miter;stroke-width:0.8;"/>
   </g>
   <g id="patch_4">
    <path d="M 226.8 31.5 
L 226.8 4.32 
" style="fill:none;stroke:#000000;stroke-linecap:square;stroke-linejoin:miter;stroke-width:0.8;"/>
   </g>
   <g id="patch_5">
    <path d="M 31.5 31.5 
L 226.8 31.5 
" style="fill:none;stroke:#000000;stroke-linecap:square;stroke-linejoin:miter;stroke-width:0.8;"/>
   </g>
   <g id="patch_6">
    <path d="M 31.5 4.32 
L 226.8 4.32 
" style="fill:none;stroke:#000000;stroke-linecap:square;stroke-linejoin:miter;stroke-width:0.8;"/>
   </g>
  </g>
 </g>
 <defs>
  <clipPath id="pf4d5eb5350">
   <rect height="27.18" width="195.3" x="31.5" y="4.32"/>
  </clipPath>
 </defs>
</svg>
