<?xml version="1.0" encoding="utf-8" standalone="no"?>
<!DOCTYPE svg PUBLIC "-//W3C//DTD SVG 1.1//EN"
  "http://www.w3.org/Graphics/SVG/1.1/DTD/svg11.dtd">
<svg height="36pt" version="1.1" viewBox="0 0 252 36" width="252pt" xmlns="http://www.w3.org/2000/svg" xmlns:xlink="http://www.w3.org/1999/xlink">
 <metadata>
  <rdf:RDF xmlns:cc="http://creativecommons.org/ns#" xmlns:dc="http://purl.org/dc/elements/1.1/" xmlns:rdf="http://www.w3.org/1999/02/22-rdf-syntax-ns#">
   <cc:Work>
    <dc:type rdf:resource="http://purl.org/dc/dcmitype/StillImage"/>
    <dc:date>2021-05-09T06:46:59.810834</dc:date>
    <dc:format>image/svg+xml</dc:format>
    <dc:creator>
     <cc:Agent>
      <dc:title>Matplotlib v3.4.2, https://matplotlib.org/</dc:title>
     </cc:Agent>
    </dc:creator>
   </cc:Work>
  </rdf:RDF>
 </metadata>
 <defs>
  <style type="text/css">*{stroke-linecap:butt;stroke-linejoin:round;}</style>
 </defs>
 <g id="figure_1">
  <g id="patch_1">
   <path d="M 0 36 
L 252 36 
L 252 0 
L 0 0 
z
" style="fill:none;"/>
  </g>
  <g id="axes_1">
   <g id="patch_2">
    <path d="M 31.5 31.5 
L 226.8 31.5 
L 226.8 4.32 
L 31.5 4.32 
z
" style="fill:#ffffff;"/>
   </g>
   <g id="PolyCollection_1">
    <defs>
     <path d="M 36.15 -17.449862 
L 36.15 -16.624292 
L 45.45 -8.779193 
L 54.75 -17.431428 
L 64.05 -6.697852 
L 73.35 -6.621034 
L 82.65 -17.839379 
L 91.95 -17.503921 
L 101.25 -22.073604 
L 110.55 -6.014818 
L 119.85 -8.557976 
L 129.15 -20.789795 
L 138.45 -13.751494 
L 147.75 -17.565262 
L 157.05 -17.648106 
L 166.35 -6.232099 
L 175.65 -5.915475 
L 184.95 -23.772074 
L 194.25 -7.00363 
L 203.55 -6.05992 
L 212.85 -6.402826 
L 222.15 -16.239551 
L 222.15 -17.113193 
L 222.15 -17.113193 
L 212.85 -29.655958 
L 203.55 -29.303501 
L 194.25 -29.969504 
L 184.95 -24.555488 
L 175.65 -29.402465 
L 166.35 -30.047105 
L 157.05 -18.253194 
L 147.75 -18.232512 
L 138.45 -14.641332 
L 129.15 -21.68832 
L 119.85 -20.128441 
L 110.55 -29.918273 
L 101.25 -23.557946 
L 91.95 -18.236195 
L 82.65 -18.619709 
L 73.35 -30.010571 
L 64.05 -30.444545 
L 54.75 -18.780648 
L 45.45 -11.040314 
L 36.15 -17.449862 
z
" id="mcba1659eab" style="stroke:#1f77b4;stroke-opacity:0.15;"/>
    </defs>
    <g clip-path="url(#p0b78f4239b)">
     <use style="fill:#1f77b4;fill-opacity:0.15;stroke:#1f77b4;stroke-opacity:0.15;" x="0" xlink:href="#mcba1659eab" y="36"/>
    </g>
   </g>
   <g id="PolyCollection_2">
    <defs>
     <path d="M 36.15 -29.341431 
L 36.15 -5.735455 
L 45.45 -6.441179 
L 54.75 -5.749487 
L 64.05 -24.487202 
L 73.35 -6.125577 
L 82.65 -6.010149 
L 91.95 -8.491428 
L 101.25 -6.940389 
L 110.55 -5.936698 
L 119.85 -8.470382 
L 129.15 -6.190914 
L 138.45 -26.775335 
L 147.75 -6.787589 
L 157.05 -5.934262 
L 166.35 -6.237572 
L 175.65 -6.42497 
L 184.95 -19.530765 
L 194.25 -7.11018 
L 203.55 -6.236085 
L 212.85 -6.604183 
L 222.15 -6.056968 
L 222.15 -29.952866 
L 222.15 -29.952866 
L 212.85 -29.818594 
L 203.55 -29.906309 
L 194.25 -30.105029 
L 184.95 -20.524299 
L 175.65 -29.995247 
L 166.35 -30.162579 
L 157.05 -29.242659 
L 147.75 -30.272421 
L 138.45 -27.510111 
L 129.15 -29.827565 
L 119.85 -20.059738 
L 110.55 -29.35044 
L 101.25 -29.909085 
L 91.95 -9.175271 
L 82.65 -29.2407 
L 73.35 -30.061494 
L 64.05 -25.920309 
L 54.75 -28.422175 
L 45.45 -30.053783 
L 36.15 -29.341431 
z
" id="m8bc7ecae8c" style="stroke:#ff7f0e;stroke-opacity:0.15;"/>
    </defs>
    <g clip-path="url(#p0b78f4239b)">
     <use style="fill:#ff7f0e;fill-opacity:0.15;stroke:#ff7f0e;stroke-opacity:0.15;" x="0" xlink:href="#m8bc7ecae8c" y="36"/>
    </g>
   </g>
   <g id="matplotlib.axis_1"/>
   <g id="matplotlib.axis_2">
    <g id="ytick_1">
     <g id="line2d_1">
      <defs>
       <path d="M 0 0 
L -3.5 0 
" id="m8d48aedc4f" style="stroke:#000000;stroke-width:0.8;"/>
      </defs>
      <g>
       <use style="stroke:#000000;stroke-width:0.8;" x="31.5" xlink:href="#m8d48aedc4f" y="27.936293"/>
      </g>
     </g>
     <g id="text_1">
      <!-- −6 -->
      <g transform="translate(12.70625 30.975668)scale(0.08 -0.08)">
       <defs>
        <path d="M 678 2272 
L 4684 2272 
L 4684 1741 
L 678 1741 
L 678 2272 
z
" id="DejaVuSans-2212" transform="scale(0.015625)"/>
        <path d="M 2113 2584 
Q 1688 2584 1439 2293 
Q 1191 2003 1191 1497 
Q 1191 994 1439 701 
Q 1688 409 2113 409 
Q 2538 409 2786 701 
Q 3034 994 3034 1497 
Q 3034 2003 2786 2293 
Q 2538 2584 2113 2584 
z
M 3366 4563 
L 3366 3988 
Q 3128 4100 2886 4159 
Q 2644 4219 2406 4219 
Q 1781 4219 1451 3797 
Q 1122 3375 1075 2522 
Q 1259 2794 1537 2939 
Q 1816 3084 2150 3084 
Q 2853 3084 3261 2657 
Q 3669 2231 3669 1497 
Q 3669 778 3244 343 
Q 2819 -91 2113 -91 
Q 1303 -91 875 529 
Q 447 1150 447 2328 
Q 447 3434 972 4092 
Q 1497 4750 2381 4750 
Q 2619 4750 2861 4703 
Q 3103 4656 3366 4563 
z
" id="DejaVuSans-36" transform="scale(0.015625)"/>
       </defs>
       <use xlink:href="#DejaVuSans-2212"/>
       <use x="83.789062" xlink:href="#DejaVuSans-36"/>
      </g>
     </g>
    </g>
    <g id="ytick_2">
     <g id="line2d_2">
      <g>
       <use style="stroke:#000000;stroke-width:0.8;" x="31.5" xlink:href="#m8d48aedc4f" y="17.920212"/>
      </g>
     </g>
     <g id="text_2">
      <!-- 0 -->
      <g transform="translate(19.41 20.959587)scale(0.08 -0.08)">
       <defs>
        <path d="M 2034 4250 
Q 1547 4250 1301 3770 
Q 1056 3291 1056 2328 
Q 1056 1369 1301 889 
Q 1547 409 2034 409 
Q 2525 409 2770 889 
Q 3016 1369 3016 2328 
Q 3016 3291 2770 3770 
Q 2525 4250 2034 4250 
z
M 2034 4750 
Q 2819 4750 3233 4129 
Q 3647 3509 3647 2328 
Q 3647 1150 3233 529 
Q 2819 -91 2034 -91 
Q 1250 -91 836 529 
Q 422 1150 422 2328 
Q 422 3509 836 4129 
Q 1250 4750 2034 4750 
z
" id="DejaVuSans-30" transform="scale(0.015625)"/>
       </defs>
       <use xlink:href="#DejaVuSans-30"/>
      </g>
     </g>
    </g>
    <g id="ytick_3">
     <g id="line2d_3">
      <g>
       <use style="stroke:#000000;stroke-width:0.8;" x="31.5" xlink:href="#m8d48aedc4f" y="7.90413"/>
      </g>
     </g>
     <g id="text_3">
      <!-- 6 -->
      <g transform="translate(19.41 10.943505)scale(0.08 -0.08)">
       <use xlink:href="#DejaVuSans-36"/>
      </g>
     </g>
    </g>
    <g id="text_4">
     <!-- $x$ -->
     <g transform="translate(7.0425 20.31)rotate(-90)scale(0.08 -0.08)">
      <defs>
       <path d="M 3841 3500 
L 2234 1784 
L 3219 0 
L 2559 0 
L 1819 1388 
L 531 0 
L -166 0 
L 1556 1844 
L 641 3500 
L 1300 3500 
L 1972 2234 
L 3144 3500 
L 3841 3500 
z
" id="DejaVuSans-Oblique-78" transform="scale(0.015625)"/>
      </defs>
      <use transform="translate(0 0.3125)" xlink:href="#DejaVuSans-Oblique-78"/>
     </g>
    </g>
   </g>
   <g id="line2d_4">
    <path clip-path="url(#p0b78f4239b)" d="M 36.15 18.946852 
L 45.45 26.216316 
L 54.75 17.928081 
L 64.05 16.498563 
L 73.35 17.77629 
L 82.65 17.761705 
L 91.95 18.133312 
L 101.25 13.141389 
L 110.55 18.44966 
L 119.85 22.163532 
L 129.15 14.753299 
L 138.45 21.781777 
L 147.75 18.12 
L 157.05 18.072606 
L 166.35 17.652854 
L 175.65 18.42161 
L 184.95 11.81035 
L 194.25 16.540297 
L 203.55 18.940129 
L 212.85 17.945346 
L 222.15 19.340813 
" style="fill:none;stroke:#1f77b4;stroke-linecap:square;stroke-width:0.7;"/>
    <defs>
     <path d="M 0 1 
C 0.265203 1 0.51958 0.894634 0.707107 0.707107 
C 0.894634 0.51958 1 0.265203 1 0 
C 1 -0.265203 0.894634 -0.51958 0.707107 -0.707107 
C 0.51958 -0.894634 0.265203 -1 0 -1 
C -0.265203 -1 -0.51958 -0.894634 -0.707107 -0.707107 
C -0.894634 -0.51958 -1 -0.265203 -1 0 
C -1 0.265203 -0.894634 0.51958 -0.707107 0.707107 
C -0.51958 0.894634 -0.265203 1 0 1 
z
" id="m066b0a5820" style="stroke:#1f77b4;"/>
    </defs>
    <g clip-path="url(#p0b78f4239b)">
     <use style="fill:#1f77b4;stroke:#1f77b4;" x="36.15" xlink:href="#m066b0a5820" y="18.946852"/>
     <use style="fill:#1f77b4;stroke:#1f77b4;" x="45.45" xlink:href="#m066b0a5820" y="26.216316"/>
     <use style="fill:#1f77b4;stroke:#1f77b4;" x="54.75" xlink:href="#m066b0a5820" y="17.928081"/>
     <use style="fill:#1f77b4;stroke:#1f77b4;" x="64.05" xlink:href="#m066b0a5820" y="16.498563"/>
     <use style="fill:#1f77b4;stroke:#1f77b4;" x="73.35" xlink:href="#m066b0a5820" y="17.77629"/>
     <use style="fill:#1f77b4;stroke:#1f77b4;" x="82.65" xlink:href="#m066b0a5820" y="17.761705"/>
     <use style="fill:#1f77b4;stroke:#1f77b4;" x="91.95" xlink:href="#m066b0a5820" y="18.133312"/>
     <use style="fill:#1f77b4;stroke:#1f77b4;" x="101.25" xlink:href="#m066b0a5820" y="13.141389"/>
     <use style="fill:#1f77b4;stroke:#1f77b4;" x="110.55" xlink:href="#m066b0a5820" y="18.44966"/>
     <use style="fill:#1f77b4;stroke:#1f77b4;" x="119.85" xlink:href="#m066b0a5820" y="22.163532"/>
     <use style="fill:#1f77b4;stroke:#1f77b4;" x="129.15" xlink:href="#m066b0a5820" y="14.753299"/>
     <use style="fill:#1f77b4;stroke:#1f77b4;" x="138.45" xlink:href="#m066b0a5820" y="21.781777"/>
     <use style="fill:#1f77b4;stroke:#1f77b4;" x="147.75" xlink:href="#m066b0a5820" y="18.12"/>
     <use style="fill:#1f77b4;stroke:#1f77b4;" x="157.05" xlink:href="#m066b0a5820" y="18.072606"/>
     <use style="fill:#1f77b4;stroke:#1f77b4;" x="166.35" xlink:href="#m066b0a5820" y="17.652854"/>
     <use style="fill:#1f77b4;stroke:#1f77b4;" x="175.65" xlink:href="#m066b0a5820" y="18.42161"/>
     <use style="fill:#1f77b4;stroke:#1f77b4;" x="184.95" xlink:href="#m066b0a5820" y="11.81035"/>
     <use style="fill:#1f77b4;stroke:#1f77b4;" x="194.25" xlink:href="#m066b0a5820" y="16.540297"/>
     <use style="fill:#1f77b4;stroke:#1f77b4;" x="203.55" xlink:href="#m066b0a5820" y="18.940129"/>
     <use style="fill:#1f77b4;stroke:#1f77b4;" x="212.85" xlink:href="#m066b0a5820" y="17.945346"/>
     <use style="fill:#1f77b4;stroke:#1f77b4;" x="222.15" xlink:href="#m066b0a5820" y="19.340813"/>
    </g>
   </g>
   <g id="line2d_5">
    <path clip-path="url(#p0b78f4239b)" d="M 36.15 20.618659 
L 45.45 17.627015 
L 54.75 21.165718 
L 64.05 10.742706 
L 73.35 17.67766 
L 82.65 19.649813 
L 91.95 27.178113 
L 101.25 16.963095 
L 110.55 18.615268 
L 119.85 22.203806 
L 129.15 18.27997 
L 138.45 8.857372 
L 147.75 16.240256 
L 157.05 19.174654 
L 166.35 16.795344 
L 175.65 17.844832 
L 184.95 15.953128 
L 194.25 16.264753 
L 203.55 17.754562 
L 212.85 17.209416 
L 222.15 18.059718 
" style="fill:none;stroke:#ff7f0e;stroke-linecap:square;stroke-width:0.7;"/>
    <defs>
     <path d="M 0 1 
C 0.265203 1 0.51958 0.894634 0.707107 0.707107 
C 0.894634 0.51958 1 0.265203 1 0 
C 1 -0.265203 0.894634 -0.51958 0.707107 -0.707107 
C 0.51958 -0.894634 0.265203 -1 0 -1 
C -0.265203 -1 -0.51958 -0.894634 -0.707107 -0.707107 
C -0.894634 -0.51958 -1 -0.265203 -1 0 
C -1 0.265203 -0.894634 0.51958 -0.707107 0.707107 
C -0.51958 0.894634 -0.265203 1 0 1 
z
" id="m6e4750ce80" style="stroke:#ff7f0e;"/>
    </defs>
    <g clip-path="url(#p0b78f4239b)">
     <use style="fill:#ff7f0e;stroke:#ff7f0e;" x="36.15" xlink:href="#m6e4750ce80" y="20.618659"/>
     <use style="fill:#ff7f0e;stroke:#ff7f0e;" x="45.45" xlink:href="#m6e4750ce80" y="17.627015"/>
     <use style="fill:#ff7f0e;stroke:#ff7f0e;" x="54.75" xlink:href="#m6e4750ce80" y="21.165718"/>
     <use style="fill:#ff7f0e;stroke:#ff7f0e;" x="64.05" xlink:href="#m6e4750ce80" y="10.742706"/>
     <use style="fill:#ff7f0e;stroke:#ff7f0e;" x="73.35" xlink:href="#m6e4750ce80" y="17.67766"/>
     <use style="fill:#ff7f0e;stroke:#ff7f0e;" x="82.65" xlink:href="#m6e4750ce80" y="19.649813"/>
     <use style="fill:#ff7f0e;stroke:#ff7f0e;" x="91.95" xlink:href="#m6e4750ce80" y="27.178113"/>
     <use style="fill:#ff7f0e;stroke:#ff7f0e;" x="101.25" xlink:href="#m6e4750ce80" y="16.963095"/>
     <use style="fill:#ff7f0e;stroke:#ff7f0e;" x="110.55" xlink:href="#m6e4750ce80" y="18.615268"/>
     <use style="fill:#ff7f0e;stroke:#ff7f0e;" x="119.85" xlink:href="#m6e4750ce80" y="22.203806"/>
     <use style="fill:#ff7f0e;stroke:#ff7f0e;" x="129.15" xlink:href="#m6e4750ce80" y="18.27997"/>
     <use style="fill:#ff7f0e;stroke:#ff7f0e;" x="138.45" xlink:href="#m6e4750ce80" y="8.857372"/>
     <use style="fill:#ff7f0e;stroke:#ff7f0e;" x="147.75" xlink:href="#m6e4750ce80" y="16.240256"/>
     <use style="fill:#ff7f0e;stroke:#ff7f0e;" x="157.05" xlink:href="#m6e4750ce80" y="19.174654"/>
     <use style="fill:#ff7f0e;stroke:#ff7f0e;" x="166.35" xlink:href="#m6e4750ce80" y="16.795344"/>
     <use style="fill:#ff7f0e;stroke:#ff7f0e;" x="175.65" xlink:href="#m6e4750ce80" y="17.844832"/>
     <use style="fill:#ff7f0e;stroke:#ff7f0e;" x="184.95" xlink:href="#m6e4750ce80" y="15.953128"/>
     <use style="fill:#ff7f0e;stroke:#ff7f0e;" x="194.25" xlink:href="#m6e4750ce80" y="16.264753"/>
     <use style="fill:#ff7f0e;stroke:#ff7f0e;" x="203.55" xlink:href="#m6e4750ce80" y="17.754562"/>
     <use style="fill:#ff7f0e;stroke:#ff7f0e;" x="212.85" xlink:href="#m6e4750ce80" y="17.209416"/>
     <use style="fill:#ff7f0e;stroke:#ff7f0e;" x="222.15" xlink:href="#m6e4750ce80" y="18.059718"/>
    </g>
   </g>
   <g id="patch_3">
    <path d="M 31.5 31.5 
L 31.5 4.32 
" style="fill:none;stroke:#000000;stroke-linecap:square;stroke-linejoin:miter;stroke-width:0.8;"/>
   </g>
   <g id="patch_4">
    <path d="M 226.8 31.5 
L 226.8 4.32 
" style="fill:none;stroke:#000000;stroke-linecap:square;stroke-linejoin:miter;stroke-width:0.8;"/>
   </g>
   <g id="patch_5">
    <path d="M 31.5 31.5 
L 226.8 31.5 
" style="fill:none;stroke:#000000;stroke-linecap:square;stroke-linejoin:miter;stroke-width:0.8;"/>
   </g>
   <g id="patch_6">
    <path d="M 31.5 4.32 
L 226.8 4.32 
" style="fill:none;stroke:#000000;stroke-linecap:square;stroke-linejoin:miter;stroke-width:0.8;"/>
   </g>
  </g>
 </g>
 <defs>
  <clipPath id="p0b78f4239b">
   <rect height="27.18" width="195.3" x="31.5" y="4.32"/>
  </clipPath>
 </defs>
</svg>
