<?xml version="1.0" encoding="utf-8" standalone="no"?>
<!DOCTYPE svg PUBLIC "-//W3C//DTD SVG 1.1//EN"
  "http://www.w3.org/Graphics/SVG/1.1/DTD/svg11.dtd">
<svg height="36pt" version="1.1" viewBox="0 0 252 36" width="252pt" xmlns="http://www.w3.org/2000/svg" xmlns:xlink="http://www.w3.org/1999/xlink">
 <metadata>
  <rdf:RDF xmlns:cc="http://creativecommons.org/ns#" xmlns:dc="http://purl.org/dc/elements/1.1/" xmlns:rdf="http://www.w3.org/1999/02/22-rdf-syntax-ns#">
   <cc:Work>
    <dc:type rdf:resource="http://purl.org/dc/dcmitype/StillImage"/>
    <dc:date>2021-05-09T08:02:14.231192</dc:date>
    <dc:format>image/svg+xml</dc:format>
    <dc:creator>
     <cc:Agent>
      <dc:title>Matplotlib v3.4.2, https://matplotlib.org/</dc:title>
     </cc:Agent>
    </dc:creator>
   </cc:Work>
  </rdf:RDF>
 </metadata>
 <defs>
  <style type="text/css">*{stroke-linecap:butt;stroke-linejoin:round;}</style>
 </defs>
 <g id="figure_1">
  <g id="patch_1">
   <path d="M 0 36 
L 252 36 
L 252 0 
L 0 0 
z
" style="fill:none;"/>
  </g>
  <g id="axes_1">
   <g id="patch_2">
    <path d="M 31.5 31.5 
L 226.8 31.5 
L 226.8 4.32 
L 31.5 4.32 
z
" style="fill:#ffffff;"/>
   </g>
   <g id="PolyCollection_1">
    <defs>
     <path d="M 36.15 -27.880685 
L 36.15 -22.473896 
L 45.45 -19.406574 
L 54.75 -21.753171 
L 64.05 -7.283037 
L 73.35 -7.522566 
L 82.65 -7.282738 
L 91.95 -7.65699 
L 101.25 -22.802449 
L 110.55 -8.031365 
L 119.85 -7.390614 
L 129.15 -21.666519 
L 138.45 -7.255439 
L 147.75 -23.728384 
L 157.05 -7.260225 
L 166.35 -21.295807 
L 175.65 -21.876 
L 184.95 -22.133529 
L 194.25 -7.296012 
L 203.55 -7.3206 
L 212.85 -19.867113 
L 222.15 -23.026392 
L 222.15 -27.577839 
L 222.15 -27.577839 
L 212.85 -24.226196 
L 203.55 -9.708651 
L 194.25 -10.414094 
L 184.95 -27.061071 
L 175.65 -26.547583 
L 166.35 -27.05586 
L 157.05 -9.76761 
L 147.75 -29.158364 
L 138.45 -9.546073 
L 129.15 -27.059902 
L 119.85 -10.992723 
L 110.55 -11.210302 
L 101.25 -28.08684 
L 91.95 -11.100805 
L 82.65 -10.016819 
L 73.35 -10.578037 
L 64.05 -9.488403 
L 54.75 -27.435689 
L 45.45 -24.52267 
L 36.15 -27.880685 
z
" id="mda1657fa42" style="stroke:#1f77b4;stroke-opacity:0.15;"/>
    </defs>
    <g clip-path="url(#p1ad1730d6b)">
     <use style="fill:#1f77b4;fill-opacity:0.15;stroke:#1f77b4;stroke-opacity:0.15;" x="0" xlink:href="#mda1657fa42" y="36"/>
    </g>
   </g>
   <g id="PolyCollection_2">
    <defs>
     <path d="M 36.15 -9.980981 
L 36.15 -7.289574 
L 45.45 -7.273938 
L 54.75 -7.260708 
L 64.05 -22.775187 
L 73.35 -7.342102 
L 82.65 -7.279224 
L 91.95 -7.313541 
L 101.25 -7.318147 
L 110.55 -7.769477 
L 119.85 -20.449351 
L 129.15 -7.287821 
L 138.45 -7.280542 
L 147.75 -7.320279 
L 157.05 -25.220694 
L 166.35 -7.267049 
L 175.65 -7.247479 
L 184.95 -7.286506 
L 194.25 -7.269118 
L 203.55 -7.262823 
L 212.85 -21.358082 
L 222.15 -21.665195 
L 222.15 -26.732831 
L 222.15 -26.732831 
L 212.85 -26.37922 
L 203.55 -9.91207 
L 194.25 -9.562797 
L 184.95 -9.63594 
L 175.65 -9.29743 
L 166.35 -9.849938 
L 157.05 -33.250102 
L 147.75 -10.730472 
L 138.45 -10.300779 
L 129.15 -9.76881 
L 119.85 -27.748219 
L 110.55 -11.143621 
L 101.25 -10.323462 
L 91.95 -9.596109 
L 82.65 -10.088739 
L 73.35 -10.378098 
L 64.05 -27.703681 
L 54.75 -9.855422 
L 45.45 -10.018454 
L 36.15 -9.980981 
z
" id="m65a2ec59f5" style="stroke:#ff7f0e;stroke-opacity:0.15;"/>
    </defs>
    <g clip-path="url(#p1ad1730d6b)">
     <use style="fill:#ff7f0e;fill-opacity:0.15;stroke:#ff7f0e;stroke-opacity:0.15;" x="0" xlink:href="#m65a2ec59f5" y="36"/>
    </g>
   </g>
   <g id="matplotlib.axis_1"/>
   <g id="matplotlib.axis_2">
    <g id="ytick_1">
     <g id="line2d_1">
      <defs>
       <path d="M 0 0 
L -3.5 0 
" id="m79b515e989" style="stroke:#000000;stroke-width:0.8;"/>
      </defs>
      <g>
       <use style="stroke:#000000;stroke-width:0.8;" x="31.5" xlink:href="#m79b515e989" y="28.782"/>
      </g>
     </g>
     <g id="text_1">
      <!-- 0 -->
      <g transform="translate(19.41 31.821375)scale(0.08 -0.08)">
       <defs>
        <path d="M 2034 4250 
Q 1547 4250 1301 3770 
Q 1056 3291 1056 2328 
Q 1056 1369 1301 889 
Q 1547 409 2034 409 
Q 2525 409 2770 889 
Q 3016 1369 3016 2328 
Q 3016 3291 2770 3770 
Q 2525 4250 2034 4250 
z
M 2034 4750 
Q 2819 4750 3233 4129 
Q 3647 3509 3647 2328 
Q 3647 1150 3233 529 
Q 2819 -91 2034 -91 
Q 1250 -91 836 529 
Q 422 1150 422 2328 
Q 422 3509 836 4129 
Q 1250 4750 2034 4750 
z
" id="DejaVuSans-30" transform="scale(0.015625)"/>
       </defs>
       <use xlink:href="#DejaVuSans-30"/>
      </g>
     </g>
    </g>
    <g id="ytick_2">
     <g id="line2d_2">
      <g>
       <use style="stroke:#000000;stroke-width:0.8;" x="31.5" xlink:href="#m79b515e989" y="17.91"/>
      </g>
     </g>
     <g id="text_2">
      <!-- 2000 -->
      <g transform="translate(4.14 20.949375)scale(0.08 -0.08)">
       <defs>
        <path d="M 1228 531 
L 3431 531 
L 3431 0 
L 469 0 
L 469 531 
Q 828 903 1448 1529 
Q 2069 2156 2228 2338 
Q 2531 2678 2651 2914 
Q 2772 3150 2772 3378 
Q 2772 3750 2511 3984 
Q 2250 4219 1831 4219 
Q 1534 4219 1204 4116 
Q 875 4013 500 3803 
L 500 4441 
Q 881 4594 1212 4672 
Q 1544 4750 1819 4750 
Q 2544 4750 2975 4387 
Q 3406 4025 3406 3419 
Q 3406 3131 3298 2873 
Q 3191 2616 2906 2266 
Q 2828 2175 2409 1742 
Q 1991 1309 1228 531 
z
" id="DejaVuSans-32" transform="scale(0.015625)"/>
       </defs>
       <use xlink:href="#DejaVuSans-32"/>
       <use x="63.623047" xlink:href="#DejaVuSans-30"/>
       <use x="127.246094" xlink:href="#DejaVuSans-30"/>
       <use x="190.869141" xlink:href="#DejaVuSans-30"/>
      </g>
     </g>
    </g>
    <g id="ytick_3">
     <g id="line2d_3">
      <g>
       <use style="stroke:#000000;stroke-width:0.8;" x="31.5" xlink:href="#m79b515e989" y="7.038"/>
      </g>
     </g>
     <g id="text_3">
      <!-- 4000 -->
      <g transform="translate(4.14 10.077375)scale(0.08 -0.08)">
       <defs>
        <path d="M 2419 4116 
L 825 1625 
L 2419 1625 
L 2419 4116 
z
M 2253 4666 
L 3047 4666 
L 3047 1625 
L 3713 1625 
L 3713 1100 
L 3047 1100 
L 3047 0 
L 2419 0 
L 2419 1100 
L 313 1100 
L 313 1709 
L 2253 4666 
z
" id="DejaVuSans-34" transform="scale(0.015625)"/>
       </defs>
       <use xlink:href="#DejaVuSans-34"/>
       <use x="63.623047" xlink:href="#DejaVuSans-30"/>
       <use x="127.246094" xlink:href="#DejaVuSans-30"/>
       <use x="190.869141" xlink:href="#DejaVuSans-30"/>
      </g>
     </g>
    </g>
    <g id="text_4">
     <!-- $h$ -->
     <g transform="translate(-1.52375 20.47)rotate(-90)scale(0.08 -0.08)">
      <defs>
       <path d="M 3566 2113 
L 3156 0 
L 2578 0 
L 2988 2091 
Q 3016 2238 3031 2350 
Q 3047 2463 3047 2528 
Q 3047 2791 2881 2937 
Q 2716 3084 2419 3084 
Q 1956 3084 1617 2771 
Q 1278 2459 1178 1941 
L 800 0 
L 225 0 
L 1172 4863 
L 1747 4863 
L 1375 2950 
Q 1594 3244 1934 3414 
Q 2275 3584 2650 3584 
Q 3113 3584 3367 3334 
Q 3622 3084 3622 2631 
Q 3622 2519 3608 2391 
Q 3594 2263 3566 2113 
z
" id="DejaVuSans-Oblique-68" transform="scale(0.015625)"/>
      </defs>
      <use transform="translate(0 0.015625)" xlink:href="#DejaVuSans-Oblique-68"/>
     </g>
    </g>
   </g>
   <g id="line2d_4">
    <path clip-path="url(#p1ad1730d6b)" d="M 36.15 10.938984 
L 45.45 14.001345 
L 54.75 11.521291 
L 64.05 27.945472 
L 73.35 27.322674 
L 82.65 27.947414 
L 91.95 26.901596 
L 101.25 10.759448 
L 110.55 26.555669 
L 119.85 27.523207 
L 129.15 11.844242 
L 138.45 27.998403 
L 147.75 9.687645 
L 157.05 28.003556 
L 166.35 11.918156 
L 175.65 11.750943 
L 184.95 11.470712 
L 194.25 27.842717 
L 203.55 27.938287 
L 212.85 14.128924 
L 222.15 10.859734 
" style="fill:none;stroke:#1f77b4;stroke-linecap:square;stroke-width:0.7;"/>
    <defs>
     <path d="M 0 1 
C 0.265203 1 0.51958 0.894634 0.707107 0.707107 
C 0.894634 0.51958 1 0.265203 1 0 
C 1 -0.265203 0.894634 -0.51958 0.707107 -0.707107 
C 0.51958 -0.894634 0.265203 -1 0 -1 
C -0.265203 -1 -0.51958 -0.894634 -0.707107 -0.707107 
C -0.894634 -0.51958 -1 -0.265203 -1 0 
C -1 0.265203 -0.894634 0.51958 -0.707107 0.707107 
C -0.51958 0.894634 -0.265203 1 0 1 
z
" id="m9fad04f574" style="stroke:#1f77b4;"/>
    </defs>
    <g clip-path="url(#p1ad1730d6b)">
     <use style="fill:#1f77b4;stroke:#1f77b4;" x="36.15" xlink:href="#m9fad04f574" y="10.938984"/>
     <use style="fill:#1f77b4;stroke:#1f77b4;" x="45.45" xlink:href="#m9fad04f574" y="14.001345"/>
     <use style="fill:#1f77b4;stroke:#1f77b4;" x="54.75" xlink:href="#m9fad04f574" y="11.521291"/>
     <use style="fill:#1f77b4;stroke:#1f77b4;" x="64.05" xlink:href="#m9fad04f574" y="27.945472"/>
     <use style="fill:#1f77b4;stroke:#1f77b4;" x="73.35" xlink:href="#m9fad04f574" y="27.322674"/>
     <use style="fill:#1f77b4;stroke:#1f77b4;" x="82.65" xlink:href="#m9fad04f574" y="27.947414"/>
     <use style="fill:#1f77b4;stroke:#1f77b4;" x="91.95" xlink:href="#m9fad04f574" y="26.901596"/>
     <use style="fill:#1f77b4;stroke:#1f77b4;" x="101.25" xlink:href="#m9fad04f574" y="10.759448"/>
     <use style="fill:#1f77b4;stroke:#1f77b4;" x="110.55" xlink:href="#m9fad04f574" y="26.555669"/>
     <use style="fill:#1f77b4;stroke:#1f77b4;" x="119.85" xlink:href="#m9fad04f574" y="27.523207"/>
     <use style="fill:#1f77b4;stroke:#1f77b4;" x="129.15" xlink:href="#m9fad04f574" y="11.844242"/>
     <use style="fill:#1f77b4;stroke:#1f77b4;" x="138.45" xlink:href="#m9fad04f574" y="27.998403"/>
     <use style="fill:#1f77b4;stroke:#1f77b4;" x="147.75" xlink:href="#m9fad04f574" y="9.687645"/>
     <use style="fill:#1f77b4;stroke:#1f77b4;" x="157.05" xlink:href="#m9fad04f574" y="28.003556"/>
     <use style="fill:#1f77b4;stroke:#1f77b4;" x="166.35" xlink:href="#m9fad04f574" y="11.918156"/>
     <use style="fill:#1f77b4;stroke:#1f77b4;" x="175.65" xlink:href="#m9fad04f574" y="11.750943"/>
     <use style="fill:#1f77b4;stroke:#1f77b4;" x="184.95" xlink:href="#m9fad04f574" y="11.470712"/>
     <use style="fill:#1f77b4;stroke:#1f77b4;" x="194.25" xlink:href="#m9fad04f574" y="27.842717"/>
     <use style="fill:#1f77b4;stroke:#1f77b4;" x="203.55" xlink:href="#m9fad04f574" y="27.938287"/>
     <use style="fill:#1f77b4;stroke:#1f77b4;" x="212.85" xlink:href="#m9fad04f574" y="14.128924"/>
     <use style="fill:#1f77b4;stroke:#1f77b4;" x="222.15" xlink:href="#m9fad04f574" y="10.859734"/>
    </g>
   </g>
   <g id="line2d_5">
    <path clip-path="url(#p1ad1730d6b)" d="M 36.15 27.859423 
L 45.45 27.922009 
L 54.75 28.038972 
L 64.05 10.853869 
L 73.35 27.668027 
L 82.65 27.873151 
L 91.95 27.982432 
L 101.25 27.723131 
L 110.55 26.983894 
L 119.85 11.94708 
L 129.15 27.924595 
L 138.45 27.908841 
L 147.75 27.700451 
L 157.05 6.708308 
L 166.35 27.994225 
L 175.65 28.090725 
L 184.95 27.969412 
L 194.25 27.989799 
L 203.55 27.91864 
L 212.85 12.244336 
L 222.15 11.686047 
" style="fill:none;stroke:#ff7f0e;stroke-linecap:square;stroke-width:0.7;"/>
    <defs>
     <path d="M 0 1 
C 0.265203 1 0.51958 0.894634 0.707107 0.707107 
C 0.894634 0.51958 1 0.265203 1 0 
C 1 -0.265203 0.894634 -0.51958 0.707107 -0.707107 
C 0.51958 -0.894634 0.265203 -1 0 -1 
C -0.265203 -1 -0.51958 -0.894634 -0.707107 -0.707107 
C -0.894634 -0.51958 -1 -0.265203 -1 0 
C -1 0.265203 -0.894634 0.51958 -0.707107 0.707107 
C -0.51958 0.894634 -0.265203 1 0 1 
z
" id="me9a706869d" style="stroke:#ff7f0e;"/>
    </defs>
    <g clip-path="url(#p1ad1730d6b)">
     <use style="fill:#ff7f0e;stroke:#ff7f0e;" x="36.15" xlink:href="#me9a706869d" y="27.859423"/>
     <use style="fill:#ff7f0e;stroke:#ff7f0e;" x="45.45" xlink:href="#me9a706869d" y="27.922009"/>
     <use style="fill:#ff7f0e;stroke:#ff7f0e;" x="54.75" xlink:href="#me9a706869d" y="28.038972"/>
     <use style="fill:#ff7f0e;stroke:#ff7f0e;" x="64.05" xlink:href="#me9a706869d" y="10.853869"/>
     <use style="fill:#ff7f0e;stroke:#ff7f0e;" x="73.35" xlink:href="#me9a706869d" y="27.668027"/>
     <use style="fill:#ff7f0e;stroke:#ff7f0e;" x="82.65" xlink:href="#me9a706869d" y="27.873151"/>
     <use style="fill:#ff7f0e;stroke:#ff7f0e;" x="91.95" xlink:href="#me9a706869d" y="27.982432"/>
     <use style="fill:#ff7f0e;stroke:#ff7f0e;" x="101.25" xlink:href="#me9a706869d" y="27.723131"/>
     <use style="fill:#ff7f0e;stroke:#ff7f0e;" x="110.55" xlink:href="#me9a706869d" y="26.983894"/>
     <use style="fill:#ff7f0e;stroke:#ff7f0e;" x="119.85" xlink:href="#me9a706869d" y="11.94708"/>
     <use style="fill:#ff7f0e;stroke:#ff7f0e;" x="129.15" xlink:href="#me9a706869d" y="27.924595"/>
     <use style="fill:#ff7f0e;stroke:#ff7f0e;" x="138.45" xlink:href="#me9a706869d" y="27.908841"/>
     <use style="fill:#ff7f0e;stroke:#ff7f0e;" x="147.75" xlink:href="#me9a706869d" y="27.700451"/>
     <use style="fill:#ff7f0e;stroke:#ff7f0e;" x="157.05" xlink:href="#me9a706869d" y="6.708308"/>
     <use style="fill:#ff7f0e;stroke:#ff7f0e;" x="166.35" xlink:href="#me9a706869d" y="27.994225"/>
     <use style="fill:#ff7f0e;stroke:#ff7f0e;" x="175.65" xlink:href="#me9a706869d" y="28.090725"/>
     <use style="fill:#ff7f0e;stroke:#ff7f0e;" x="184.95" xlink:href="#me9a706869d" y="27.969412"/>
     <use style="fill:#ff7f0e;stroke:#ff7f0e;" x="194.25" xlink:href="#me9a706869d" y="27.989799"/>
     <use style="fill:#ff7f0e;stroke:#ff7f0e;" x="203.55" xlink:href="#me9a706869d" y="27.91864"/>
     <use style="fill:#ff7f0e;stroke:#ff7f0e;" x="212.85" xlink:href="#me9a706869d" y="12.244336"/>
     <use style="fill:#ff7f0e;stroke:#ff7f0e;" x="222.15" xlink:href="#me9a706869d" y="11.686047"/>
    </g>
   </g>
   <g id="patch_3">
    <path d="M 31.5 31.5 
L 31.5 4.32 
" style="fill:none;stroke:#000000;stroke-linecap:square;stroke-linejoin:miter;stroke-width:0.8;"/>
   </g>
   <g id="patch_4">
    <path d="M 226.8 31.5 
L 226.8 4.32 
" style="fill:none;stroke:#000000;stroke-linecap:square;stroke-linejoin:miter;stroke-width:0.8;"/>
   </g>
   <g id="patch_5">
    <path d="M 31.5 31.5 
L 226.8 31.5 
" style="fill:none;stroke:#000000;stroke-linecap:square;stroke-linejoin:miter;stroke-width:0.8;"/>
   </g>
   <g id="patch_6">
    <path d="M 31.5 4.32 
L 226.8 4.32 
" style="fill:none;stroke:#000000;stroke-linecap:square;stroke-linejoin:miter;stroke-width:0.8;"/>
   </g>
  </g>
 </g>
 <defs>
  <clipPath id="p1ad1730d6b">
   <rect height="27.18" width="195.3" x="31.5" y="4.32"/>
  </clipPath>
 </defs>
</svg>
