<?xml version="1.0" encoding="utf-8" standalone="no"?>
<!DOCTYPE svg PUBLIC "-//W3C//DTD SVG 1.1//EN"
  "http://www.w3.org/Graphics/SVG/1.1/DTD/svg11.dtd">
<svg height="36pt" version="1.1" viewBox="0 0 252 36" width="252pt" xmlns="http://www.w3.org/2000/svg" xmlns:xlink="http://www.w3.org/1999/xlink">
 <metadata>
  <rdf:RDF xmlns:cc="http://creativecommons.org/ns#" xmlns:dc="http://purl.org/dc/elements/1.1/" xmlns:rdf="http://www.w3.org/1999/02/22-rdf-syntax-ns#">
   <cc:Work>
    <dc:type rdf:resource="http://purl.org/dc/dcmitype/StillImage"/>
    <dc:date>2021-07-21T14:47:20.941239</dc:date>
    <dc:format>image/svg+xml</dc:format>
    <dc:creator>
     <cc:Agent>
      <dc:title>Matplotlib v3.4.2, https://matplotlib.org/</dc:title>
     </cc:Agent>
    </dc:creator>
   </cc:Work>
  </rdf:RDF>
 </metadata>
 <defs>
  <style type="text/css">*{stroke-linecap:butt;stroke-linejoin:round;}</style>
 </defs>
 <g id="figure_1">
  <g id="patch_1">
   <path d="M 0 36 
L 252 36 
L 252 0 
L 0 0 
z
" style="fill:none;"/>
  </g>
  <g id="axes_1">
   <g id="patch_2">
    <path d="M 31.5 31.5 
L 226.8 31.5 
L 226.8 4.32 
L 31.5 4.32 
z
" style="fill:#ffffff;"/>
   </g>
   <g id="matplotlib.axis_1"/>
   <g id="matplotlib.axis_2">
    <g id="ytick_1">
     <g id="line2d_1">
      <defs>
       <path d="M 0 0 
L -3.5 0 
" id="m9d7abc4f97" style="stroke:#000000;stroke-width:0.8;"/>
      </defs>
      <g>
       <use style="stroke:#000000;stroke-width:0.8;" x="31.5" xlink:href="#m9d7abc4f97" y="28.363846"/>
      </g>
     </g>
     <g id="text_1">
      <!-- 0 -->
      <g transform="translate(19.41 31.403221)scale(0.08 -0.08)">
       <defs>
        <path d="M 2034 4250 
Q 1547 4250 1301 3770 
Q 1056 3291 1056 2328 
Q 1056 1369 1301 889 
Q 1547 409 2034 409 
Q 2525 409 2770 889 
Q 3016 1369 3016 2328 
Q 3016 3291 2770 3770 
Q 2525 4250 2034 4250 
z
M 2034 4750 
Q 2819 4750 3233 4129 
Q 3647 3509 3647 2328 
Q 3647 1150 3233 529 
Q 2819 -91 2034 -91 
Q 1250 -91 836 529 
Q 422 1150 422 2328 
Q 422 3509 836 4129 
Q 1250 4750 2034 4750 
z
" id="DejaVuSans-30" transform="scale(0.015625)"/>
       </defs>
       <use xlink:href="#DejaVuSans-30"/>
      </g>
     </g>
    </g>
    <g id="ytick_2">
     <g id="line2d_2">
      <g>
       <use style="stroke:#000000;stroke-width:0.8;" x="31.5" xlink:href="#m9d7abc4f97" y="17.91"/>
      </g>
     </g>
     <g id="text_2">
      <!-- 0.5 -->
      <g transform="translate(11.7775 20.949375)scale(0.08 -0.08)">
       <defs>
        <path d="M 684 794 
L 1344 794 
L 1344 0 
L 684 0 
L 684 794 
z
" id="DejaVuSans-2e" transform="scale(0.015625)"/>
        <path d="M 691 4666 
L 3169 4666 
L 3169 4134 
L 1269 4134 
L 1269 2991 
Q 1406 3038 1543 3061 
Q 1681 3084 1819 3084 
Q 2600 3084 3056 2656 
Q 3513 2228 3513 1497 
Q 3513 744 3044 326 
Q 2575 -91 1722 -91 
Q 1428 -91 1123 -41 
Q 819 9 494 109 
L 494 744 
Q 775 591 1075 516 
Q 1375 441 1709 441 
Q 2250 441 2565 725 
Q 2881 1009 2881 1497 
Q 2881 1984 2565 2268 
Q 2250 2553 1709 2553 
Q 1456 2553 1204 2497 
Q 953 2441 691 2322 
L 691 4666 
z
" id="DejaVuSans-35" transform="scale(0.015625)"/>
       </defs>
       <use xlink:href="#DejaVuSans-30"/>
       <use x="63.623047" xlink:href="#DejaVuSans-2e"/>
       <use x="95.410156" xlink:href="#DejaVuSans-35"/>
      </g>
     </g>
    </g>
    <g id="ytick_3">
     <g id="line2d_3">
      <g>
       <use style="stroke:#000000;stroke-width:0.8;" x="31.5" xlink:href="#m9d7abc4f97" y="7.456154"/>
      </g>
     </g>
     <g id="text_3">
      <!-- 1 -->
      <g transform="translate(19.41 10.495529)scale(0.08 -0.08)">
       <defs>
        <path d="M 794 531 
L 1825 531 
L 1825 4091 
L 703 3866 
L 703 4441 
L 1819 4666 
L 2450 4666 
L 2450 531 
L 3481 531 
L 3481 0 
L 794 0 
L 794 531 
z
" id="DejaVuSans-31" transform="scale(0.015625)"/>
       </defs>
       <use xlink:href="#DejaVuSans-31"/>
      </g>
     </g>
    </g>
    <g id="text_4">
     <!-- $p(\theta)$ -->
     <g transform="translate(6.0975 26.03)rotate(-90)scale(0.08 -0.08)">
      <defs>
       <path d="M 3175 2156 
Q 3175 2616 2975 2859 
Q 2775 3103 2400 3103 
Q 2144 3103 1911 2972 
Q 1678 2841 1497 2591 
Q 1319 2344 1212 1994 
Q 1106 1644 1106 1300 
Q 1106 863 1306 627 
Q 1506 391 1875 391 
Q 2147 391 2380 519 
Q 2613 647 2778 891 
Q 2956 1147 3065 1494 
Q 3175 1841 3175 2156 
z
M 1394 2969 
Q 1625 3272 1939 3428 
Q 2253 3584 2638 3584 
Q 3175 3584 3472 3232 
Q 3769 2881 3769 2247 
Q 3769 1728 3584 1258 
Q 3400 788 3053 416 
Q 2822 169 2531 39 
Q 2241 -91 1919 -91 
Q 1547 -91 1294 64 
Q 1041 219 916 525 
L 556 -1331 
L -19 -1331 
L 922 3500 
L 1497 3500 
L 1394 2969 
z
" id="DejaVuSans-Oblique-70" transform="scale(0.015625)"/>
       <path d="M 1984 4856 
Q 1566 4138 1362 3434 
Q 1159 2731 1159 2009 
Q 1159 1288 1364 580 
Q 1569 -128 1984 -844 
L 1484 -844 
Q 1016 -109 783 600 
Q 550 1309 550 2009 
Q 550 2706 781 3412 
Q 1013 4119 1484 4856 
L 1984 4856 
z
" id="DejaVuSans-28" transform="scale(0.015625)"/>
       <path d="M 2913 2219 
L 925 2219 
Q 791 1284 928 888 
Q 1100 400 1566 400 
Q 2034 400 2391 891 
Q 2703 1322 2913 2219 
z
M 3009 2750 
Q 3094 3638 2984 3950 
Q 2813 4444 2353 4444 
Q 1875 4444 1525 3956 
Q 1250 3563 1034 2750 
L 3009 2750 
z
M 2444 4913 
Q 3194 4913 3494 4250 
Q 3794 3591 3566 2422 
Q 3341 1256 2781 594 
Q 2225 -72 1475 -72 
Q 722 -72 425 594 
Q 128 1256 353 2422 
Q 581 3591 1134 4250 
Q 1691 4913 2444 4913 
z
" id="DejaVuSans-Oblique-3b8" transform="scale(0.015625)"/>
       <path d="M 513 4856 
L 1013 4856 
Q 1481 4119 1714 3412 
Q 1947 2706 1947 2009 
Q 1947 1309 1714 600 
Q 1481 -109 1013 -844 
L 513 -844 
Q 928 -128 1133 580 
Q 1338 1288 1338 2009 
Q 1338 2731 1133 3434 
Q 928 4138 513 4856 
z
" id="DejaVuSans-29" transform="scale(0.015625)"/>
      </defs>
      <use transform="translate(0 0.234375)" xlink:href="#DejaVuSans-Oblique-70"/>
      <use transform="translate(63.476562 0.234375)" xlink:href="#DejaVuSans-28"/>
      <use transform="translate(102.490234 0.234375)" xlink:href="#DejaVuSans-Oblique-3b8"/>
      <use transform="translate(163.671875 0.234375)" xlink:href="#DejaVuSans-29"/>
     </g>
    </g>
   </g>
   <g id="line2d_4">
    <path clip-path="url(#p6a3bd93cb3)" d="M 36.15 28.363681 
L 45.45 28.363843 
L 54.75 28.363843 
L 64.05 7.566551 
L 73.35 28.363843 
L 82.65 28.363844 
L 91.95 28.363843 
L 101.25 28.363844 
L 110.55 28.363846 
L 119.85 28.363846 
L 129.15 28.363558 
L 138.45 28.363843 
L 147.75 7.568027 
L 157.05 28.363485 
L 166.35 28.363846 
L 175.65 28.363846 
L 184.95 28.363465 
L 194.25 28.363844 
L 203.55 28.363844 
L 212.85 28.363846 
L 222.15 7.512812 
" style="fill:none;stroke:#1f77b4;stroke-linecap:square;stroke-width:0.5;"/>
    <defs>
     <path d="M 0 1 
C 0.265203 1 0.51958 0.894634 0.707107 0.707107 
C 0.894634 0.51958 1 0.265203 1 0 
C 1 -0.265203 0.894634 -0.51958 0.707107 -0.707107 
C 0.51958 -0.894634 0.265203 -1 0 -1 
C -0.265203 -1 -0.51958 -0.894634 -0.707107 -0.707107 
C -0.894634 -0.51958 -1 -0.265203 -1 0 
C -1 0.265203 -0.894634 0.51958 -0.707107 0.707107 
C -0.51958 0.894634 -0.265203 1 0 1 
z
" id="mc056c93136" style="stroke:#1f77b4;"/>
    </defs>
    <g clip-path="url(#p6a3bd93cb3)">
     <use style="fill:#1f77b4;stroke:#1f77b4;" x="36.15" xlink:href="#mc056c93136" y="28.363681"/>
     <use style="fill:#1f77b4;stroke:#1f77b4;" x="45.45" xlink:href="#mc056c93136" y="28.363843"/>
     <use style="fill:#1f77b4;stroke:#1f77b4;" x="54.75" xlink:href="#mc056c93136" y="28.363843"/>
     <use style="fill:#1f77b4;stroke:#1f77b4;" x="64.05" xlink:href="#mc056c93136" y="7.566551"/>
     <use style="fill:#1f77b4;stroke:#1f77b4;" x="73.35" xlink:href="#mc056c93136" y="28.363843"/>
     <use style="fill:#1f77b4;stroke:#1f77b4;" x="82.65" xlink:href="#mc056c93136" y="28.363844"/>
     <use style="fill:#1f77b4;stroke:#1f77b4;" x="91.95" xlink:href="#mc056c93136" y="28.363843"/>
     <use style="fill:#1f77b4;stroke:#1f77b4;" x="101.25" xlink:href="#mc056c93136" y="28.363844"/>
     <use style="fill:#1f77b4;stroke:#1f77b4;" x="110.55" xlink:href="#mc056c93136" y="28.363846"/>
     <use style="fill:#1f77b4;stroke:#1f77b4;" x="119.85" xlink:href="#mc056c93136" y="28.363846"/>
     <use style="fill:#1f77b4;stroke:#1f77b4;" x="129.15" xlink:href="#mc056c93136" y="28.363558"/>
     <use style="fill:#1f77b4;stroke:#1f77b4;" x="138.45" xlink:href="#mc056c93136" y="28.363843"/>
     <use style="fill:#1f77b4;stroke:#1f77b4;" x="147.75" xlink:href="#mc056c93136" y="7.568027"/>
     <use style="fill:#1f77b4;stroke:#1f77b4;" x="157.05" xlink:href="#mc056c93136" y="28.363485"/>
     <use style="fill:#1f77b4;stroke:#1f77b4;" x="166.35" xlink:href="#mc056c93136" y="28.363846"/>
     <use style="fill:#1f77b4;stroke:#1f77b4;" x="175.65" xlink:href="#mc056c93136" y="28.363846"/>
     <use style="fill:#1f77b4;stroke:#1f77b4;" x="184.95" xlink:href="#mc056c93136" y="28.363465"/>
     <use style="fill:#1f77b4;stroke:#1f77b4;" x="194.25" xlink:href="#mc056c93136" y="28.363844"/>
     <use style="fill:#1f77b4;stroke:#1f77b4;" x="203.55" xlink:href="#mc056c93136" y="28.363844"/>
     <use style="fill:#1f77b4;stroke:#1f77b4;" x="212.85" xlink:href="#mc056c93136" y="28.363846"/>
     <use style="fill:#1f77b4;stroke:#1f77b4;" x="222.15" xlink:href="#mc056c93136" y="7.512812"/>
    </g>
   </g>
   <g id="line2d_5">
    <path clip-path="url(#p6a3bd93cb3)" d="M 36.15 7.50309 
L 45.45 28.363843 
L 54.75 28.363843 
L 64.05 28.363846 
L 73.35 28.363844 
L 82.65 28.363844 
L 91.95 28.363843 
L 101.25 28.363844 
L 110.55 28.363465 
L 119.85 7.711195 
L 129.15 7.51962 
L 138.45 28.363844 
L 147.75 28.363844 
L 157.05 28.363846 
L 166.35 28.363472 
L 175.65 7.611036 
L 184.95 28.363846 
L 194.25 28.363844 
L 203.55 28.363843 
L 212.85 28.363443 
L 222.15 28.363725 
" style="fill:none;stroke:#ff7f0e;stroke-linecap:square;stroke-width:0.5;"/>
    <defs>
     <path d="M 0 1 
C 0.265203 1 0.51958 0.894634 0.707107 0.707107 
C 0.894634 0.51958 1 0.265203 1 0 
C 1 -0.265203 0.894634 -0.51958 0.707107 -0.707107 
C 0.51958 -0.894634 0.265203 -1 0 -1 
C -0.265203 -1 -0.51958 -0.894634 -0.707107 -0.707107 
C -0.894634 -0.51958 -1 -0.265203 -1 0 
C -1 0.265203 -0.894634 0.51958 -0.707107 0.707107 
C -0.51958 0.894634 -0.265203 1 0 1 
z
" id="m080ce9f770" style="stroke:#ff7f0e;"/>
    </defs>
    <g clip-path="url(#p6a3bd93cb3)">
     <use style="fill:#ff7f0e;stroke:#ff7f0e;" x="36.15" xlink:href="#m080ce9f770" y="7.50309"/>
     <use style="fill:#ff7f0e;stroke:#ff7f0e;" x="45.45" xlink:href="#m080ce9f770" y="28.363843"/>
     <use style="fill:#ff7f0e;stroke:#ff7f0e;" x="54.75" xlink:href="#m080ce9f770" y="28.363843"/>
     <use style="fill:#ff7f0e;stroke:#ff7f0e;" x="64.05" xlink:href="#m080ce9f770" y="28.363846"/>
     <use style="fill:#ff7f0e;stroke:#ff7f0e;" x="73.35" xlink:href="#m080ce9f770" y="28.363844"/>
     <use style="fill:#ff7f0e;stroke:#ff7f0e;" x="82.65" xlink:href="#m080ce9f770" y="28.363844"/>
     <use style="fill:#ff7f0e;stroke:#ff7f0e;" x="91.95" xlink:href="#m080ce9f770" y="28.363843"/>
     <use style="fill:#ff7f0e;stroke:#ff7f0e;" x="101.25" xlink:href="#m080ce9f770" y="28.363844"/>
     <use style="fill:#ff7f0e;stroke:#ff7f0e;" x="110.55" xlink:href="#m080ce9f770" y="28.363465"/>
     <use style="fill:#ff7f0e;stroke:#ff7f0e;" x="119.85" xlink:href="#m080ce9f770" y="7.711195"/>
     <use style="fill:#ff7f0e;stroke:#ff7f0e;" x="129.15" xlink:href="#m080ce9f770" y="7.51962"/>
     <use style="fill:#ff7f0e;stroke:#ff7f0e;" x="138.45" xlink:href="#m080ce9f770" y="28.363844"/>
     <use style="fill:#ff7f0e;stroke:#ff7f0e;" x="147.75" xlink:href="#m080ce9f770" y="28.363844"/>
     <use style="fill:#ff7f0e;stroke:#ff7f0e;" x="157.05" xlink:href="#m080ce9f770" y="28.363846"/>
     <use style="fill:#ff7f0e;stroke:#ff7f0e;" x="166.35" xlink:href="#m080ce9f770" y="28.363472"/>
     <use style="fill:#ff7f0e;stroke:#ff7f0e;" x="175.65" xlink:href="#m080ce9f770" y="7.611036"/>
     <use style="fill:#ff7f0e;stroke:#ff7f0e;" x="184.95" xlink:href="#m080ce9f770" y="28.363846"/>
     <use style="fill:#ff7f0e;stroke:#ff7f0e;" x="194.25" xlink:href="#m080ce9f770" y="28.363844"/>
     <use style="fill:#ff7f0e;stroke:#ff7f0e;" x="203.55" xlink:href="#m080ce9f770" y="28.363843"/>
     <use style="fill:#ff7f0e;stroke:#ff7f0e;" x="212.85" xlink:href="#m080ce9f770" y="28.363443"/>
     <use style="fill:#ff7f0e;stroke:#ff7f0e;" x="222.15" xlink:href="#m080ce9f770" y="28.363725"/>
    </g>
   </g>
   <g id="patch_3">
    <path d="M 31.5 31.5 
L 31.5 4.32 
" style="fill:none;stroke:#000000;stroke-linecap:square;stroke-linejoin:miter;stroke-width:0.8;"/>
   </g>
   <g id="patch_4">
    <path d="M 226.8 31.5 
L 226.8 4.32 
" style="fill:none;stroke:#000000;stroke-linecap:square;stroke-linejoin:miter;stroke-width:0.8;"/>
   </g>
   <g id="patch_5">
    <path d="M 31.5 31.5 
L 226.8 31.5 
" style="fill:none;stroke:#000000;stroke-linecap:square;stroke-linejoin:miter;stroke-width:0.8;"/>
   </g>
   <g id="patch_6">
    <path d="M 31.5 4.32 
L 226.8 4.32 
" style="fill:none;stroke:#000000;stroke-linecap:square;stroke-linejoin:miter;stroke-width:0.8;"/>
   </g>
  </g>
 </g>
 <defs>
  <clipPath id="p6a3bd93cb3">
   <rect height="27.18" width="195.3" x="31.5" y="4.32"/>
  </clipPath>
 </defs>
</svg>
