<?xml version="1.0" encoding="utf-8" standalone="no"?>
<!DOCTYPE svg PUBLIC "-//W3C//DTD SVG 1.1//EN"
  "http://www.w3.org/Graphics/SVG/1.1/DTD/svg11.dtd">
<svg height="36pt" version="1.1" viewBox="0 0 252 36" width="252pt" xmlns="http://www.w3.org/2000/svg" xmlns:xlink="http://www.w3.org/1999/xlink">
 <metadata>
  <rdf:RDF xmlns:cc="http://creativecommons.org/ns#" xmlns:dc="http://purl.org/dc/elements/1.1/" xmlns:rdf="http://www.w3.org/1999/02/22-rdf-syntax-ns#">
   <cc:Work>
    <dc:type rdf:resource="http://purl.org/dc/dcmitype/StillImage"/>
    <dc:date>2021-07-30T11:55:56.455481</dc:date>
    <dc:format>image/svg+xml</dc:format>
    <dc:creator>
     <cc:Agent>
      <dc:title>Matplotlib v3.4.2, https://matplotlib.org/</dc:title>
     </cc:Agent>
    </dc:creator>
   </cc:Work>
  </rdf:RDF>
 </metadata>
 <defs>
  <style type="text/css">*{stroke-linecap:butt;stroke-linejoin:round;}</style>
 </defs>
 <g id="figure_1">
  <g id="patch_1">
   <path d="M 0 36 
L 252 36 
L 252 0 
L 0 0 
z
" style="fill:none;"/>
  </g>
  <g id="axes_1">
   <g id="patch_2">
    <path d="M 31.5 31.5 
L 226.8 31.5 
L 226.8 4.32 
L 31.5 4.32 
z
" style="fill:none;"/>
   </g>
   <g id="matplotlib.axis_1">
    <g id="xtick_1">
     <g id="line2d_1">
      <defs>
       <path d="M 0 0 
L 0 3.5 
" id="med0b30255b" style="stroke:#000000;stroke-width:0.8;"/>
      </defs>
      <g>
       <use style="stroke:#000000;stroke-width:0.8;" x="36.15" xlink:href="#med0b30255b" y="31.5"/>
      </g>
     </g>
     <g id="text_1">
      <!-- $\mathdefault{100}$ -->
      <g transform="translate(29.798726 44.034802)scale(0.08 -0.08)">
       <defs>
        <path d="M 1702 4058 
C 1702 4192 1696 4192 1606 4192 
C 1357 3916 979 3827 621 3827 
C 602 3827 570 3827 563 3808 
C 557 3795 557 3782 557 3648 
C 755 3648 1088 3686 1344 3839 
L 1344 461 
C 1344 236 1331 160 781 160 
L 589 160 
L 589 0 
C 896 0 1216 0 1523 0 
C 1830 0 2150 0 2458 0 
L 2458 160 
L 2266 160 
C 1715 160 1702 230 1702 458 
L 1702 4058 
z
" id="CMR17-31" transform="scale(0.015625)"/>
        <path d="M 2688 2025 
C 2688 2416 2682 3080 2413 3591 
C 2176 4039 1798 4198 1466 4198 
C 1158 4198 768 4058 525 3597 
C 269 3118 243 2524 243 2025 
C 243 1661 250 1106 448 619 
C 723 -39 1216 -128 1466 -128 
C 1760 -128 2208 -7 2470 600 
C 2662 1042 2688 1559 2688 2025 
z
M 1466 -26 
C 1056 -26 813 325 723 812 
C 653 1188 653 1738 653 2096 
C 653 2588 653 2997 736 3387 
C 858 3929 1216 4096 1466 4096 
C 1728 4096 2067 3923 2189 3400 
C 2272 3036 2278 2607 2278 2096 
C 2278 1680 2278 1169 2202 792 
C 2067 95 1690 -26 1466 -26 
z
" id="CMR17-30" transform="scale(0.015625)"/>
       </defs>
       <use transform="scale(0.996264)" xlink:href="#CMR17-31"/>
       <use transform="translate(45.690477 0)scale(0.996264)" xlink:href="#CMR17-30"/>
       <use transform="translate(91.380954 0)scale(0.996264)" xlink:href="#CMR17-30"/>
      </g>
     </g>
    </g>
    <g id="xtick_2">
     <g id="line2d_2">
      <g>
       <use style="stroke:#000000;stroke-width:0.8;" x="82.65" xlink:href="#med0b30255b" y="31.5"/>
      </g>
     </g>
     <g id="text_2">
      <!-- $\mathdefault{105}$ -->
      <g transform="translate(76.298726 44.034802)scale(0.08 -0.08)">
       <defs>
        <path d="M 730 3692 
C 794 3666 1056 3584 1325 3584 
C 1920 3584 2246 3911 2432 4100 
C 2432 4157 2432 4192 2394 4192 
C 2387 4192 2374 4192 2323 4163 
C 2099 4058 1837 3973 1517 3973 
C 1325 3973 1037 3999 723 4139 
C 653 4171 640 4171 634 4171 
C 602 4171 595 4164 595 4037 
L 595 2203 
C 595 2089 595 2057 659 2057 
C 691 2057 704 2070 736 2114 
C 941 2401 1222 2522 1542 2522 
C 1766 2522 2246 2382 2246 1289 
C 2246 1085 2246 715 2054 421 
C 1894 159 1645 25 1370 25 
C 947 25 518 320 403 814 
C 429 807 480 795 506 795 
C 589 795 749 840 749 1038 
C 749 1210 627 1280 506 1280 
C 358 1280 262 1190 262 1011 
C 262 454 704 -128 1382 -128 
C 2042 -128 2669 440 2669 1264 
C 2669 2030 2170 2624 1549 2624 
C 1222 2624 947 2503 730 2274 
L 730 3692 
z
" id="CMR17-35" transform="scale(0.015625)"/>
       </defs>
       <use transform="scale(0.996264)" xlink:href="#CMR17-31"/>
       <use transform="translate(45.690477 0)scale(0.996264)" xlink:href="#CMR17-30"/>
       <use transform="translate(91.380954 0)scale(0.996264)" xlink:href="#CMR17-35"/>
      </g>
     </g>
    </g>
    <g id="xtick_3">
     <g id="line2d_3">
      <g>
       <use style="stroke:#000000;stroke-width:0.8;" x="129.15" xlink:href="#med0b30255b" y="31.5"/>
      </g>
     </g>
     <g id="text_3">
      <!-- $\mathdefault{110}$ -->
      <g transform="translate(122.798726 44.034802)scale(0.08 -0.08)">
       <use transform="scale(0.996264)" xlink:href="#CMR17-31"/>
       <use transform="translate(45.690477 0)scale(0.996264)" xlink:href="#CMR17-31"/>
       <use transform="translate(91.380954 0)scale(0.996264)" xlink:href="#CMR17-30"/>
      </g>
     </g>
    </g>
    <g id="xtick_4">
     <g id="line2d_4">
      <g>
       <use style="stroke:#000000;stroke-width:0.8;" x="175.65" xlink:href="#med0b30255b" y="31.5"/>
      </g>
     </g>
     <g id="text_4">
      <!-- $\mathdefault{115}$ -->
      <g transform="translate(169.298726 44.034802)scale(0.08 -0.08)">
       <use transform="scale(0.996264)" xlink:href="#CMR17-31"/>
       <use transform="translate(45.690477 0)scale(0.996264)" xlink:href="#CMR17-31"/>
       <use transform="translate(91.380954 0)scale(0.996264)" xlink:href="#CMR17-35"/>
      </g>
     </g>
    </g>
    <g id="xtick_5">
     <g id="line2d_5">
      <g>
       <use style="stroke:#000000;stroke-width:0.8;" x="222.15" xlink:href="#med0b30255b" y="31.5"/>
      </g>
     </g>
     <g id="text_5">
      <!-- $\mathdefault{120}$ -->
      <g transform="translate(215.798726 44.034802)scale(0.08 -0.08)">
       <defs>
        <path d="M 2669 989 
L 2554 989 
C 2490 536 2438 459 2413 420 
C 2381 369 1920 369 1830 369 
L 602 369 
C 832 619 1280 1072 1824 1597 
C 2214 1967 2669 2402 2669 3035 
C 2669 3790 2067 4224 1395 4224 
C 691 4224 262 3604 262 3030 
C 262 2780 448 2748 525 2748 
C 589 2748 781 2787 781 3010 
C 781 3207 614 3264 525 3264 
C 486 3264 448 3258 422 3245 
C 544 3790 915 4058 1306 4058 
C 1862 4058 2227 3617 2227 3035 
C 2227 2479 1901 2000 1536 1584 
L 262 146 
L 262 0 
L 2515 0 
L 2669 989 
z
" id="CMR17-32" transform="scale(0.015625)"/>
       </defs>
       <use transform="scale(0.996264)" xlink:href="#CMR17-31"/>
       <use transform="translate(45.690477 0)scale(0.996264)" xlink:href="#CMR17-32"/>
       <use transform="translate(91.380954 0)scale(0.996264)" xlink:href="#CMR17-30"/>
      </g>
     </g>
    </g>
    <g id="text_6">
     <!-- Frame -->
     <g transform="translate(118.121753 55.119349)scale(0.08 -0.08)">
      <defs>
       <path d="M 2918 1984 
L 2918 2373 
L 1101 2373 
L 1101 3968 
L 1882 3968 
C 1958 3968 2035 3968 2112 3968 
L 3168 3968 
L 3168 4375 
L 563 4375 
L 563 -32 
L 1101 -32 
L 1101 1984 
L 2918 1984 
z
" id="CMSS17-46" transform="scale(0.015625)"/>
       <path d="M 954 1363 
C 954 1965 1395 2368 1958 2368 
L 1958 2789 
C 1549 2789 1165 2585 934 2253 
L 934 2758 
L 480 2758 
L 480 0 
L 954 0 
L 954 1363 
z
" id="CMSS17-72" transform="scale(0.015625)"/>
       <path d="M 2406 1791 
C 2406 2392 1978 2808 1402 2808 
C 1120 2808 813 2757 461 2553 
L 499 2135 
C 659 2248 934 2432 1395 2432 
C 1722 2432 1920 2180 1920 1782 
L 1920 1536 
C 896 1536 256 1238 256 726 
C 256 461 416 -64 947 -64 
C 1043 -64 1562 -64 1933 217 
L 1933 -19 
L 2406 -19 
L 2406 1791 
z
M 1920 816 
C 1920 701 1920 548 1728 434 
C 1562 325 1350 325 1261 325 
C 941 325 723 511 723 744 
C 723 1211 1722 1211 1920 1211 
L 1920 816 
z
" id="CMSS17-61" transform="scale(0.015625)"/>
       <path d="M 4288 1877 
C 4288 2308 4179 2816 3462 2816 
C 2982 2816 2694 2516 2566 2331 
C 2451 2670 2182 2816 1798 2816 
C 1363 2816 1088 2568 941 2389 
L 941 2758 
L 474 2758 
L 474 0 
L 960 0 
L 960 1559 
C 960 1939 1101 2428 1555 2428 
C 2138 2428 2138 2016 2138 1829 
L 2138 0 
L 2624 0 
L 2624 1559 
C 2624 1939 2765 2428 3219 2428 
C 3802 2428 3802 2016 3802 1829 
L 3802 0 
L 4288 0 
L 4288 1877 
z
" id="CMSS17-6d" transform="scale(0.015625)"/>
       <path d="M 2502 1377 
C 2502 1590 2490 2003 2285 2345 
C 2061 2713 1696 2816 1421 2816 
C 755 2816 192 2188 192 1375 
C 192 582 774 -64 1510 -64 
C 1798 -64 2150 19 2470 248 
C 2470 274 2458 414 2451 420 
C 2451 433 2432 630 2432 656 
C 2125 407 1773 325 1517 325 
C 1107 325 666 667 646 1377 
L 2502 1377 
z
M 698 1728 
C 781 2084 1062 2421 1421 2421 
C 1517 2421 1965 2421 2080 1728 
L 698 1728 
z
" id="CMSS17-65" transform="scale(0.015625)"/>
      </defs>
      <use transform="scale(0.996264)" xlink:href="#CMSS17-46"/>
      <use transform="translate(50.687105 0)scale(0.996264)" xlink:href="#CMSS17-72"/>
      <use transform="translate(82.596878 0)scale(0.996264)" xlink:href="#CMSS17-61"/>
      <use transform="translate(127.518799 0)scale(0.996264)" xlink:href="#CMSS17-6d"/>
      <use transform="translate(201.748053 0)scale(0.996264)" xlink:href="#CMSS17-65"/>
     </g>
    </g>
   </g>
   <g id="matplotlib.axis_2">
    <g id="ytick_1">
     <g id="line2d_6">
      <defs>
       <path d="M 0 0 
L -3.5 0 
" id="m05307dc1fa" style="stroke:#000000;stroke-width:0.8;"/>
      </defs>
      <g>
       <use style="stroke:#000000;stroke-width:0.8;" x="31.5" xlink:href="#m05307dc1fa" y="31.5"/>
      </g>
     </g>
     <g id="text_7">
      <!-- $\mathdefault{0}$ -->
      <g transform="translate(20.265817 34.267401)scale(0.08 -0.08)">
       <use transform="scale(0.996264)" xlink:href="#CMR17-30"/>
      </g>
     </g>
    </g>
    <g id="ytick_2">
     <g id="line2d_7">
      <g>
       <use style="stroke:#000000;stroke-width:0.8;" x="31.5" xlink:href="#m05307dc1fa" y="19.682609"/>
      </g>
     </g>
     <g id="text_8">
      <!-- $\mathdefault{100}$ -->
      <g transform="translate(11.797451 22.45001)scale(0.08 -0.08)">
       <use transform="scale(0.996264)" xlink:href="#CMR17-31"/>
       <use transform="translate(45.690477 0)scale(0.996264)" xlink:href="#CMR17-30"/>
       <use transform="translate(91.380954 0)scale(0.996264)" xlink:href="#CMR17-30"/>
      </g>
     </g>
    </g>
    <g id="ytick_3">
     <g id="line2d_8">
      <g>
       <use style="stroke:#000000;stroke-width:0.8;" x="31.5" xlink:href="#m05307dc1fa" y="7.865217"/>
      </g>
     </g>
     <g id="text_9">
      <!-- $\mathdefault{200}$ -->
      <g transform="translate(11.797451 10.632618)scale(0.08 -0.08)">
       <use transform="scale(0.996264)" xlink:href="#CMR17-32"/>
       <use transform="translate(45.690477 0)scale(0.996264)" xlink:href="#CMR17-30"/>
       <use transform="translate(91.380954 0)scale(0.996264)" xlink:href="#CMR17-30"/>
      </g>
     </g>
    </g>
    <g id="text_10">
     <!-- $b$ -->
     <g transform="translate(6.247706 19.721292)rotate(-90)scale(0.08 -0.08)">
      <defs>
       <path d="M 1478 4257 
C 1485 4283 1498 4321 1498 4352 
C 1498 4416 1434 4416 1421 4416 
C 1414 4416 1184 4393 1069 4377 
C 960 4377 864 4358 749 4358 
C 595 4345 550 4339 550 4224 
C 550 4160 614 4160 678 4160 
C 1005 4160 1005 4103 1005 4040 
C 1005 3996 954 3811 928 3696 
L 774 3085 
C 710 2831 346 1387 320 1272 
C 288 1114 288 1005 288 922 
C 288 274 653 -64 1069 -64 
C 1811 -64 2579 888 2579 1814 
C 2579 2401 2246 2816 1766 2816 
C 1434 2816 1133 2542 1011 2414 
L 1478 4257 
z
M 1075 64 
C 870 64 646 217 646 715 
C 646 926 666 1047 781 1494 
C 800 1577 902 1986 928 2069 
C 941 2120 1318 2689 1754 2689 
C 2035 2689 2163 2408 2163 2076 
C 2163 1769 1984 1047 1824 715 
C 1664 370 1370 64 1075 64 
z
" id="CMMI12-62" transform="scale(0.015625)"/>
      </defs>
      <use transform="scale(0.996264)" xlink:href="#CMMI12-62"/>
     </g>
    </g>
   </g>
   <g id="LineCollection_1">
    <path clip-path="url(#pa199c3337b)" d="M 36.15 14.200612 
L 36.15 13.474583 
" style="fill:none;stroke:#000000;stroke-width:1.5;"/>
    <path clip-path="url(#pa199c3337b)" d="M 45.45 14.197419 
L 45.45 13.436363 
" style="fill:none;stroke:#000000;stroke-width:1.5;"/>
    <path clip-path="url(#pa199c3337b)" d="M 54.75 14.43971 
L 54.75 13.721712 
" style="fill:none;stroke:#000000;stroke-width:1.5;"/>
    <path clip-path="url(#pa199c3337b)" d="M 64.05 14.137905 
L 64.05 13.433079 
" style="fill:none;stroke:#000000;stroke-width:1.5;"/>
    <path clip-path="url(#pa199c3337b)" d="M 73.35 14.334787 
L 73.35 13.565136 
" style="fill:none;stroke:#000000;stroke-width:1.5;"/>
    <path clip-path="url(#pa199c3337b)" d="M 82.65 14.206776 
L 82.65 13.515167 
" style="fill:none;stroke:#000000;stroke-width:1.5;"/>
    <path clip-path="url(#pa199c3337b)" d="M 91.95 14.154051 
L 91.95 13.396764 
" style="fill:none;stroke:#000000;stroke-width:1.5;"/>
    <path clip-path="url(#pa199c3337b)" d="M 101.25 14.530829 
L 101.25 13.81815 
" style="fill:none;stroke:#000000;stroke-width:1.5;"/>
    <path clip-path="url(#pa199c3337b)" d="M 110.55 14.094375 
L 110.55 13.460437 
" style="fill:none;stroke:#000000;stroke-width:1.5;"/>
    <path clip-path="url(#pa199c3337b)" d="M 119.85 14.037029 
L 119.85 13.337763 
" style="fill:none;stroke:#000000;stroke-width:1.5;"/>
    <path clip-path="url(#pa199c3337b)" d="M 129.15 14.190361 
L 129.15 13.496566 
" style="fill:none;stroke:#000000;stroke-width:1.5;"/>
    <path clip-path="url(#pa199c3337b)" d="M 138.45 14.43462 
L 138.45 13.774434 
" style="fill:none;stroke:#000000;stroke-width:1.5;"/>
    <path clip-path="url(#pa199c3337b)" d="M 147.75 14.052073 
L 147.75 13.272847 
" style="fill:none;stroke:#000000;stroke-width:1.5;"/>
    <path clip-path="url(#pa199c3337b)" d="M 157.05 14.320528 
L 157.05 13.577679 
" style="fill:none;stroke:#000000;stroke-width:1.5;"/>
    <path clip-path="url(#pa199c3337b)" d="M 166.35 14.282852 
L 166.35 13.589933 
" style="fill:none;stroke:#000000;stroke-width:1.5;"/>
    <path clip-path="url(#pa199c3337b)" d="M 175.65 14.351721 
L 175.65 13.618492 
" style="fill:none;stroke:#000000;stroke-width:1.5;"/>
    <path clip-path="url(#pa199c3337b)" d="M 184.95 14.177282 
L 184.95 13.451305 
" style="fill:none;stroke:#000000;stroke-width:1.5;"/>
    <path clip-path="url(#pa199c3337b)" d="M 194.25 14.077595 
L 194.25 13.375462 
" style="fill:none;stroke:#000000;stroke-width:1.5;"/>
    <path clip-path="url(#pa199c3337b)" d="M 203.55 14.524728 
L 203.55 13.813722 
" style="fill:none;stroke:#000000;stroke-width:1.5;"/>
    <path clip-path="url(#pa199c3337b)" d="M 212.85 14.159142 
L 212.85 13.494838 
" style="fill:none;stroke:#000000;stroke-width:1.5;"/>
    <path clip-path="url(#pa199c3337b)" d="M 222.15 14.288577 
L 222.15 13.560675 
" style="fill:none;stroke:#000000;stroke-width:1.5;"/>
   </g>
   <g id="line2d_9">
    <defs>
     <path d="M 2 0 
L -2 -0 
" id="m9bfc6b87e2" style="stroke:#000000;"/>
    </defs>
    <g clip-path="url(#pa199c3337b)">
     <use style="stroke:#000000;" x="36.15" xlink:href="#m9bfc6b87e2" y="14.200612"/>
     <use style="stroke:#000000;" x="45.45" xlink:href="#m9bfc6b87e2" y="14.197419"/>
     <use style="stroke:#000000;" x="54.75" xlink:href="#m9bfc6b87e2" y="14.43971"/>
     <use style="stroke:#000000;" x="64.05" xlink:href="#m9bfc6b87e2" y="14.137905"/>
     <use style="stroke:#000000;" x="73.35" xlink:href="#m9bfc6b87e2" y="14.334787"/>
     <use style="stroke:#000000;" x="82.65" xlink:href="#m9bfc6b87e2" y="14.206776"/>
     <use style="stroke:#000000;" x="91.95" xlink:href="#m9bfc6b87e2" y="14.154051"/>
     <use style="stroke:#000000;" x="101.25" xlink:href="#m9bfc6b87e2" y="14.530829"/>
     <use style="stroke:#000000;" x="110.55" xlink:href="#m9bfc6b87e2" y="14.094375"/>
     <use style="stroke:#000000;" x="119.85" xlink:href="#m9bfc6b87e2" y="14.037029"/>
     <use style="stroke:#000000;" x="129.15" xlink:href="#m9bfc6b87e2" y="14.190361"/>
     <use style="stroke:#000000;" x="138.45" xlink:href="#m9bfc6b87e2" y="14.43462"/>
     <use style="stroke:#000000;" x="147.75" xlink:href="#m9bfc6b87e2" y="14.052073"/>
     <use style="stroke:#000000;" x="157.05" xlink:href="#m9bfc6b87e2" y="14.320528"/>
     <use style="stroke:#000000;" x="166.35" xlink:href="#m9bfc6b87e2" y="14.282852"/>
     <use style="stroke:#000000;" x="175.65" xlink:href="#m9bfc6b87e2" y="14.351721"/>
     <use style="stroke:#000000;" x="184.95" xlink:href="#m9bfc6b87e2" y="14.177282"/>
     <use style="stroke:#000000;" x="194.25" xlink:href="#m9bfc6b87e2" y="14.077595"/>
     <use style="stroke:#000000;" x="203.55" xlink:href="#m9bfc6b87e2" y="14.524728"/>
     <use style="stroke:#000000;" x="212.85" xlink:href="#m9bfc6b87e2" y="14.159142"/>
     <use style="stroke:#000000;" x="222.15" xlink:href="#m9bfc6b87e2" y="14.288577"/>
    </g>
   </g>
   <g id="line2d_10">
    <g clip-path="url(#pa199c3337b)">
     <use style="stroke:#000000;" x="36.15" xlink:href="#m9bfc6b87e2" y="13.474583"/>
     <use style="stroke:#000000;" x="45.45" xlink:href="#m9bfc6b87e2" y="13.436363"/>
     <use style="stroke:#000000;" x="54.75" xlink:href="#m9bfc6b87e2" y="13.721712"/>
     <use style="stroke:#000000;" x="64.05" xlink:href="#m9bfc6b87e2" y="13.433079"/>
     <use style="stroke:#000000;" x="73.35" xlink:href="#m9bfc6b87e2" y="13.565136"/>
     <use style="stroke:#000000;" x="82.65" xlink:href="#m9bfc6b87e2" y="13.515167"/>
     <use style="stroke:#000000;" x="91.95" xlink:href="#m9bfc6b87e2" y="13.396764"/>
     <use style="stroke:#000000;" x="101.25" xlink:href="#m9bfc6b87e2" y="13.81815"/>
     <use style="stroke:#000000;" x="110.55" xlink:href="#m9bfc6b87e2" y="13.460437"/>
     <use style="stroke:#000000;" x="119.85" xlink:href="#m9bfc6b87e2" y="13.337763"/>
     <use style="stroke:#000000;" x="129.15" xlink:href="#m9bfc6b87e2" y="13.496566"/>
     <use style="stroke:#000000;" x="138.45" xlink:href="#m9bfc6b87e2" y="13.774434"/>
     <use style="stroke:#000000;" x="147.75" xlink:href="#m9bfc6b87e2" y="13.272847"/>
     <use style="stroke:#000000;" x="157.05" xlink:href="#m9bfc6b87e2" y="13.577679"/>
     <use style="stroke:#000000;" x="166.35" xlink:href="#m9bfc6b87e2" y="13.589933"/>
     <use style="stroke:#000000;" x="175.65" xlink:href="#m9bfc6b87e2" y="13.618492"/>
     <use style="stroke:#000000;" x="184.95" xlink:href="#m9bfc6b87e2" y="13.451305"/>
     <use style="stroke:#000000;" x="194.25" xlink:href="#m9bfc6b87e2" y="13.375462"/>
     <use style="stroke:#000000;" x="203.55" xlink:href="#m9bfc6b87e2" y="13.813722"/>
     <use style="stroke:#000000;" x="212.85" xlink:href="#m9bfc6b87e2" y="13.494838"/>
     <use style="stroke:#000000;" x="222.15" xlink:href="#m9bfc6b87e2" y="13.560675"/>
    </g>
   </g>
   <g id="line2d_11">
    <defs>
     <path d="M 0 1 
C 0.265203 1 0.51958 0.894634 0.707107 0.707107 
C 0.894634 0.51958 1 0.265203 1 0 
C 1 -0.265203 0.894634 -0.51958 0.707107 -0.707107 
C 0.51958 -0.894634 0.265203 -1 0 -1 
C -0.265203 -1 -0.51958 -0.894634 -0.707107 -0.707107 
C -0.894634 -0.51958 -1 -0.265203 -1 0 
C -1 0.265203 -0.894634 0.51958 -0.707107 0.707107 
C -0.51958 0.894634 -0.265203 1 0 1 
z
" id="me127fa0f37" style="stroke:#000000;"/>
    </defs>
    <g clip-path="url(#pa199c3337b)">
     <use style="stroke:#000000;" x="36.15" xlink:href="#me127fa0f37" y="13.844667"/>
     <use style="stroke:#000000;" x="45.45" xlink:href="#me127fa0f37" y="13.816812"/>
     <use style="stroke:#000000;" x="54.75" xlink:href="#me127fa0f37" y="14.063681"/>
     <use style="stroke:#000000;" x="64.05" xlink:href="#me127fa0f37" y="13.794398"/>
     <use style="stroke:#000000;" x="73.35" xlink:href="#me127fa0f37" y="13.933527"/>
     <use style="stroke:#000000;" x="82.65" xlink:href="#me127fa0f37" y="13.878463"/>
     <use style="stroke:#000000;" x="91.95" xlink:href="#me127fa0f37" y="13.781324"/>
     <use style="stroke:#000000;" x="101.25" xlink:href="#me127fa0f37" y="14.14524"/>
     <use style="stroke:#000000;" x="110.55" xlink:href="#me127fa0f37" y="13.801752"/>
     <use style="stroke:#000000;" x="119.85" xlink:href="#me127fa0f37" y="13.689813"/>
     <use style="stroke:#000000;" x="129.15" xlink:href="#me127fa0f37" y="13.834278"/>
     <use style="stroke:#000000;" x="138.45" xlink:href="#me127fa0f37" y="14.110266"/>
     <use style="stroke:#000000;" x="147.75" xlink:href="#me127fa0f37" y="13.699106"/>
     <use style="stroke:#000000;" x="157.05" xlink:href="#me127fa0f37" y="13.943331"/>
     <use style="stroke:#000000;" x="166.35" xlink:href="#me127fa0f37" y="13.943429"/>
     <use style="stroke:#000000;" x="175.65" xlink:href="#me127fa0f37" y="13.982513"/>
     <use style="stroke:#000000;" x="184.95" xlink:href="#me127fa0f37" y="13.807685"/>
     <use style="stroke:#000000;" x="194.25" xlink:href="#me127fa0f37" y="13.725357"/>
     <use style="stroke:#000000;" x="203.55" xlink:href="#me127fa0f37" y="14.143073"/>
     <use style="stroke:#000000;" x="212.85" xlink:href="#me127fa0f37" y="13.842694"/>
     <use style="stroke:#000000;" x="222.15" xlink:href="#me127fa0f37" y="13.928811"/>
    </g>
   </g>
   <g id="patch_3">
    <path d="M 31.5 31.5 
L 31.5 4.32 
" style="fill:none;stroke:#000000;stroke-linecap:square;stroke-linejoin:miter;stroke-width:0.8;"/>
   </g>
   <g id="patch_4">
    <path d="M 226.8 31.5 
L 226.8 4.32 
" style="fill:none;stroke:#000000;stroke-linecap:square;stroke-linejoin:miter;stroke-width:0.8;"/>
   </g>
   <g id="patch_5">
    <path d="M 31.5 31.5 
L 226.8 31.5 
" style="fill:none;stroke:#000000;stroke-linecap:square;stroke-linejoin:miter;stroke-width:0.8;"/>
   </g>
   <g id="patch_6">
    <path d="M 31.5 4.32 
L 226.8 4.32 
" style="fill:none;stroke:#000000;stroke-linecap:square;stroke-linejoin:miter;stroke-width:0.8;"/>
   </g>
  </g>
 </g>
 <defs>
  <clipPath id="pa199c3337b">
   <rect height="27.18" width="195.3" x="31.5" y="4.32"/>
  </clipPath>
 </defs>
</svg>
