<?xml version="1.0" encoding="utf-8" standalone="no"?>
<!DOCTYPE svg PUBLIC "-//W3C//DTD SVG 1.1//EN"
  "http://www.w3.org/Graphics/SVG/1.1/DTD/svg11.dtd">
<svg height="36pt" version="1.1" viewBox="0 0 252 36" width="252pt" xmlns="http://www.w3.org/2000/svg" xmlns:xlink="http://www.w3.org/1999/xlink">
 <metadata>
  <rdf:RDF xmlns:cc="http://creativecommons.org/ns#" xmlns:dc="http://purl.org/dc/elements/1.1/" xmlns:rdf="http://www.w3.org/1999/02/22-rdf-syntax-ns#">
   <cc:Work>
    <dc:type rdf:resource="http://purl.org/dc/dcmitype/StillImage"/>
    <dc:date>2021-07-21T14:47:39.865175</dc:date>
    <dc:format>image/svg+xml</dc:format>
    <dc:creator>
     <cc:Agent>
      <dc:title>Matplotlib v3.4.2, https://matplotlib.org/</dc:title>
     </cc:Agent>
    </dc:creator>
   </cc:Work>
  </rdf:RDF>
 </metadata>
 <defs>
  <style type="text/css">*{stroke-linecap:butt;stroke-linejoin:round;}</style>
 </defs>
 <g id="figure_1">
  <g id="patch_1">
   <path d="M 0 36 
L 252 36 
L 252 0 
L 0 0 
z
" style="fill:none;"/>
  </g>
  <g id="axes_1">
   <g id="patch_2">
    <path d="M 31.5 31.5 
L 226.8 31.5 
L 226.8 4.32 
L 31.5 4.32 
z
" style="fill:#ffffff;"/>
   </g>
   <g id="PolyCollection_1">
    <defs>
     <path d="M 36.15 -26.320341 
L 36.15 -25.250075 
L 45.45 -6.597669 
L 54.75 -6.728353 
L 64.05 -17.877178 
L 73.35 -5.796294 
L 82.65 -5.735455 
L 91.95 -7.404668 
L 101.25 -6.177788 
L 110.55 -16.273616 
L 119.85 -6.213277 
L 129.15 -9.43874 
L 138.45 -6.176063 
L 147.75 -17.66993 
L 157.05 -26.295572 
L 166.35 -22.760696 
L 175.65 -6.338111 
L 184.95 -24.166525 
L 194.25 -22.835507 
L 203.55 -6.556357 
L 212.85 -7.930784 
L 222.15 -17.291478 
L 222.15 -18.05876 
L 222.15 -18.05876 
L 212.85 -30.444545 
L 203.55 -30.259203 
L 194.25 -30.10425 
L 184.95 -24.853431 
L 175.65 -30.045136 
L 166.35 -23.838364 
L 157.05 -27.162674 
L 147.75 -18.442885 
L 138.45 -30.156773 
L 129.15 -10.963899 
L 119.85 -29.275588 
L 110.55 -17.687734 
L 101.25 -29.937117 
L 91.95 -28.837985 
L 82.65 -28.571233 
L 73.35 -29.621279 
L 64.05 -18.554814 
L 54.75 -30.234195 
L 45.45 -30.261861 
L 36.15 -26.320341 
z
" id="mb3968c9707" style="stroke:#1f77b4;stroke-opacity:0.15;"/>
    </defs>
    <g clip-path="url(#p0af0805f64)">
     <use style="fill:#1f77b4;fill-opacity:0.15;stroke:#1f77b4;stroke-opacity:0.15;" x="0" xlink:href="#mb3968c9707" y="36"/>
    </g>
   </g>
   <g id="PolyCollection_2">
    <defs>
     <path d="M 36.15 -18.716445 
L 36.15 -17.960589 
L 45.45 -6.83721 
L 54.75 -6.392015 
L 64.05 -6.314973 
L 73.35 -6.794863 
L 82.65 -5.921685 
L 91.95 -6.49229 
L 101.25 -5.75433 
L 110.55 -10.543045 
L 119.85 -17.315281 
L 129.15 -17.872932 
L 138.45 -6.617565 
L 147.75 -10.440855 
L 157.05 -7.136455 
L 166.35 -11.69783 
L 175.65 -17.613557 
L 184.95 -5.881435 
L 194.25 -23.080446 
L 203.55 -6.572623 
L 212.85 -20.063499 
L 222.15 -27.198156 
L 222.15 -28.034189 
L 222.15 -28.034189 
L 212.85 -20.911165 
L 203.55 -30.328251 
L 194.25 -29.937273 
L 184.95 -29.552179 
L 175.65 -18.362549 
L 166.35 -12.562378 
L 157.05 -30.159594 
L 147.75 -18.877563 
L 138.45 -30.195492 
L 129.15 -18.510809 
L 119.85 -18.072382 
L 110.55 -11.199543 
L 101.25 -29.2531 
L 91.95 -29.471897 
L 82.65 -29.241715 
L 73.35 -30.406205 
L 64.05 -30.407215 
L 54.75 -29.625612 
L 45.45 -30.248247 
L 36.15 -18.716445 
z
" id="mfd173b1306" style="stroke:#ff7f0e;stroke-opacity:0.15;"/>
    </defs>
    <g clip-path="url(#p0af0805f64)">
     <use style="fill:#ff7f0e;fill-opacity:0.15;stroke:#ff7f0e;stroke-opacity:0.15;" x="0" xlink:href="#mfd173b1306" y="36"/>
    </g>
   </g>
   <g id="matplotlib.axis_1"/>
   <g id="matplotlib.axis_2">
    <g id="ytick_1">
     <g id="line2d_1">
      <defs>
       <path d="M 0 0 
L -3.5 0 
" id="mfa15c9ba62" style="stroke:#000000;stroke-width:0.8;"/>
      </defs>
      <g>
       <use style="stroke:#000000;stroke-width:0.8;" x="31.5" xlink:href="#mfa15c9ba62" y="27.85384"/>
      </g>
     </g>
     <g id="text_1">
      <!-- −6 -->
      <g transform="translate(12.70625 30.893215)scale(0.08 -0.08)">
       <defs>
        <path d="M 678 2272 
L 4684 2272 
L 4684 1741 
L 678 1741 
L 678 2272 
z
" id="DejaVuSans-2212" transform="scale(0.015625)"/>
        <path d="M 2113 2584 
Q 1688 2584 1439 2293 
Q 1191 2003 1191 1497 
Q 1191 994 1439 701 
Q 1688 409 2113 409 
Q 2538 409 2786 701 
Q 3034 994 3034 1497 
Q 3034 2003 2786 2293 
Q 2538 2584 2113 2584 
z
M 3366 4563 
L 3366 3988 
Q 3128 4100 2886 4159 
Q 2644 4219 2406 4219 
Q 1781 4219 1451 3797 
Q 1122 3375 1075 2522 
Q 1259 2794 1537 2939 
Q 1816 3084 2150 3084 
Q 2853 3084 3261 2657 
Q 3669 2231 3669 1497 
Q 3669 778 3244 343 
Q 2819 -91 2113 -91 
Q 1303 -91 875 529 
Q 447 1150 447 2328 
Q 447 3434 972 4092 
Q 1497 4750 2381 4750 
Q 2619 4750 2861 4703 
Q 3103 4656 3366 4563 
z
" id="DejaVuSans-36" transform="scale(0.015625)"/>
       </defs>
       <use xlink:href="#DejaVuSans-2212"/>
       <use x="83.789062" xlink:href="#DejaVuSans-36"/>
      </g>
     </g>
    </g>
    <g id="ytick_2">
     <g id="line2d_2">
      <g>
       <use style="stroke:#000000;stroke-width:0.8;" x="31.5" xlink:href="#mfa15c9ba62" y="17.834733"/>
      </g>
     </g>
     <g id="text_2">
      <!-- 0 -->
      <g transform="translate(19.41 20.874108)scale(0.08 -0.08)">
       <defs>
        <path d="M 2034 4250 
Q 1547 4250 1301 3770 
Q 1056 3291 1056 2328 
Q 1056 1369 1301 889 
Q 1547 409 2034 409 
Q 2525 409 2770 889 
Q 3016 1369 3016 2328 
Q 3016 3291 2770 3770 
Q 2525 4250 2034 4250 
z
M 2034 4750 
Q 2819 4750 3233 4129 
Q 3647 3509 3647 2328 
Q 3647 1150 3233 529 
Q 2819 -91 2034 -91 
Q 1250 -91 836 529 
Q 422 1150 422 2328 
Q 422 3509 836 4129 
Q 1250 4750 2034 4750 
z
" id="DejaVuSans-30" transform="scale(0.015625)"/>
       </defs>
       <use xlink:href="#DejaVuSans-30"/>
      </g>
     </g>
    </g>
    <g id="ytick_3">
     <g id="line2d_3">
      <g>
       <use style="stroke:#000000;stroke-width:0.8;" x="31.5" xlink:href="#mfa15c9ba62" y="7.815626"/>
      </g>
     </g>
     <g id="text_3">
      <!-- 6 -->
      <g transform="translate(19.41 10.855001)scale(0.08 -0.08)">
       <use xlink:href="#DejaVuSans-36"/>
      </g>
     </g>
    </g>
    <g id="text_4">
     <!-- $y$ -->
     <g transform="translate(7.02625 20.31)rotate(-90)scale(0.08 -0.08)">
      <defs>
       <path d="M 1588 -325 
Q 1188 -997 936 -1164 
Q 684 -1331 294 -1331 
L -159 -1331 
L -63 -850 
L 269 -850 
Q 509 -850 678 -719 
Q 847 -588 1056 -206 
L 1234 128 
L 459 3500 
L 1069 3500 
L 1650 819 
L 3256 3500 
L 3859 3500 
L 1588 -325 
z
" id="DejaVuSans-Oblique-79" transform="scale(0.015625)"/>
      </defs>
      <use transform="translate(0 0.3125)" xlink:href="#DejaVuSans-Oblique-79"/>
     </g>
    </g>
   </g>
   <g id="line2d_4">
    <path clip-path="url(#p0af0805f64)" d="M 36.15 10.219976 
L 45.45 17.247629 
L 54.75 17.263153 
L 64.05 17.779492 
L 73.35 20.212716 
L 82.65 20.942319 
L 91.95 18.309705 
L 101.25 18.734545 
L 110.55 19.050518 
L 119.85 18.727816 
L 129.15 25.862991 
L 138.45 17.816973 
L 147.75 17.964542 
L 157.05 9.27221 
L 166.35 12.722294 
L 175.65 17.581116 
L 184.95 11.474591 
L 194.25 8.776291 
L 203.55 16.001739 
L 212.85 15.184671 
L 222.15 18.318995 
" style="fill:none;stroke:#1f77b4;stroke-linecap:square;stroke-width:0.7;"/>
    <defs>
     <path d="M 0 1 
C 0.265203 1 0.51958 0.894634 0.707107 0.707107 
C 0.894634 0.51958 1 0.265203 1 0 
C 1 -0.265203 0.894634 -0.51958 0.707107 -0.707107 
C 0.51958 -0.894634 0.265203 -1 0 -1 
C -0.265203 -1 -0.51958 -0.894634 -0.707107 -0.707107 
C -0.894634 -0.51958 -1 -0.265203 -1 0 
C -1 0.265203 -0.894634 0.51958 -0.707107 0.707107 
C -0.51958 0.894634 -0.265203 1 0 1 
z
" id="md673b250f0" style="stroke:#1f77b4;"/>
    </defs>
    <g clip-path="url(#p0af0805f64)">
     <use style="fill:#1f77b4;stroke:#1f77b4;" x="36.15" xlink:href="#md673b250f0" y="10.219976"/>
     <use style="fill:#1f77b4;stroke:#1f77b4;" x="45.45" xlink:href="#md673b250f0" y="17.247629"/>
     <use style="fill:#1f77b4;stroke:#1f77b4;" x="54.75" xlink:href="#md673b250f0" y="17.263153"/>
     <use style="fill:#1f77b4;stroke:#1f77b4;" x="64.05" xlink:href="#md673b250f0" y="17.779492"/>
     <use style="fill:#1f77b4;stroke:#1f77b4;" x="73.35" xlink:href="#md673b250f0" y="20.212716"/>
     <use style="fill:#1f77b4;stroke:#1f77b4;" x="82.65" xlink:href="#md673b250f0" y="20.942319"/>
     <use style="fill:#1f77b4;stroke:#1f77b4;" x="91.95" xlink:href="#md673b250f0" y="18.309705"/>
     <use style="fill:#1f77b4;stroke:#1f77b4;" x="101.25" xlink:href="#md673b250f0" y="18.734545"/>
     <use style="fill:#1f77b4;stroke:#1f77b4;" x="110.55" xlink:href="#md673b250f0" y="19.050518"/>
     <use style="fill:#1f77b4;stroke:#1f77b4;" x="119.85" xlink:href="#md673b250f0" y="18.727816"/>
     <use style="fill:#1f77b4;stroke:#1f77b4;" x="129.15" xlink:href="#md673b250f0" y="25.862991"/>
     <use style="fill:#1f77b4;stroke:#1f77b4;" x="138.45" xlink:href="#md673b250f0" y="17.816973"/>
     <use style="fill:#1f77b4;stroke:#1f77b4;" x="147.75" xlink:href="#md673b250f0" y="17.964542"/>
     <use style="fill:#1f77b4;stroke:#1f77b4;" x="157.05" xlink:href="#md673b250f0" y="9.27221"/>
     <use style="fill:#1f77b4;stroke:#1f77b4;" x="166.35" xlink:href="#md673b250f0" y="12.722294"/>
     <use style="fill:#1f77b4;stroke:#1f77b4;" x="175.65" xlink:href="#md673b250f0" y="17.581116"/>
     <use style="fill:#1f77b4;stroke:#1f77b4;" x="184.95" xlink:href="#md673b250f0" y="11.474591"/>
     <use style="fill:#1f77b4;stroke:#1f77b4;" x="194.25" xlink:href="#md673b250f0" y="8.776291"/>
     <use style="fill:#1f77b4;stroke:#1f77b4;" x="203.55" xlink:href="#md673b250f0" y="16.001739"/>
     <use style="fill:#1f77b4;stroke:#1f77b4;" x="212.85" xlink:href="#md673b250f0" y="15.184671"/>
     <use style="fill:#1f77b4;stroke:#1f77b4;" x="222.15" xlink:href="#md673b250f0" y="18.318995"/>
    </g>
   </g>
   <g id="line2d_5">
    <path clip-path="url(#p0af0805f64)" d="M 36.15 17.652657 
L 45.45 16.670845 
L 54.75 17.772028 
L 64.05 17.505675 
L 73.35 16.82362 
L 82.65 19.573095 
L 91.95 18.515963 
L 101.25 20.501342 
L 110.55 25.15941 
L 119.85 18.312522 
L 129.15 17.79608 
L 138.45 17.501681 
L 147.75 21.912264 
L 157.05 17.63558 
L 166.35 23.846679 
L 175.65 18.019207 
L 184.95 19.949401 
L 194.25 8.719928 
L 203.55 16.592335 
L 212.85 15.50257 
L 222.15 8.392476 
" style="fill:none;stroke:#ff7f0e;stroke-linecap:square;stroke-width:0.7;"/>
    <defs>
     <path d="M 0 1 
C 0.265203 1 0.51958 0.894634 0.707107 0.707107 
C 0.894634 0.51958 1 0.265203 1 0 
C 1 -0.265203 0.894634 -0.51958 0.707107 -0.707107 
C 0.51958 -0.894634 0.265203 -1 0 -1 
C -0.265203 -1 -0.51958 -0.894634 -0.707107 -0.707107 
C -0.894634 -0.51958 -1 -0.265203 -1 0 
C -1 0.265203 -0.894634 0.51958 -0.707107 0.707107 
C -0.51958 0.894634 -0.265203 1 0 1 
z
" id="m6d2956a4fe" style="stroke:#ff7f0e;"/>
    </defs>
    <g clip-path="url(#p0af0805f64)">
     <use style="fill:#ff7f0e;stroke:#ff7f0e;" x="36.15" xlink:href="#m6d2956a4fe" y="17.652657"/>
     <use style="fill:#ff7f0e;stroke:#ff7f0e;" x="45.45" xlink:href="#m6d2956a4fe" y="16.670845"/>
     <use style="fill:#ff7f0e;stroke:#ff7f0e;" x="54.75" xlink:href="#m6d2956a4fe" y="17.772028"/>
     <use style="fill:#ff7f0e;stroke:#ff7f0e;" x="64.05" xlink:href="#m6d2956a4fe" y="17.505675"/>
     <use style="fill:#ff7f0e;stroke:#ff7f0e;" x="73.35" xlink:href="#m6d2956a4fe" y="16.82362"/>
     <use style="fill:#ff7f0e;stroke:#ff7f0e;" x="82.65" xlink:href="#m6d2956a4fe" y="19.573095"/>
     <use style="fill:#ff7f0e;stroke:#ff7f0e;" x="91.95" xlink:href="#m6d2956a4fe" y="18.515963"/>
     <use style="fill:#ff7f0e;stroke:#ff7f0e;" x="101.25" xlink:href="#m6d2956a4fe" y="20.501342"/>
     <use style="fill:#ff7f0e;stroke:#ff7f0e;" x="110.55" xlink:href="#m6d2956a4fe" y="25.15941"/>
     <use style="fill:#ff7f0e;stroke:#ff7f0e;" x="119.85" xlink:href="#m6d2956a4fe" y="18.312522"/>
     <use style="fill:#ff7f0e;stroke:#ff7f0e;" x="129.15" xlink:href="#m6d2956a4fe" y="17.79608"/>
     <use style="fill:#ff7f0e;stroke:#ff7f0e;" x="138.45" xlink:href="#m6d2956a4fe" y="17.501681"/>
     <use style="fill:#ff7f0e;stroke:#ff7f0e;" x="147.75" xlink:href="#m6d2956a4fe" y="21.912264"/>
     <use style="fill:#ff7f0e;stroke:#ff7f0e;" x="157.05" xlink:href="#m6d2956a4fe" y="17.63558"/>
     <use style="fill:#ff7f0e;stroke:#ff7f0e;" x="166.35" xlink:href="#m6d2956a4fe" y="23.846679"/>
     <use style="fill:#ff7f0e;stroke:#ff7f0e;" x="175.65" xlink:href="#m6d2956a4fe" y="18.019207"/>
     <use style="fill:#ff7f0e;stroke:#ff7f0e;" x="184.95" xlink:href="#m6d2956a4fe" y="19.949401"/>
     <use style="fill:#ff7f0e;stroke:#ff7f0e;" x="194.25" xlink:href="#m6d2956a4fe" y="8.719928"/>
     <use style="fill:#ff7f0e;stroke:#ff7f0e;" x="203.55" xlink:href="#m6d2956a4fe" y="16.592335"/>
     <use style="fill:#ff7f0e;stroke:#ff7f0e;" x="212.85" xlink:href="#m6d2956a4fe" y="15.50257"/>
     <use style="fill:#ff7f0e;stroke:#ff7f0e;" x="222.15" xlink:href="#m6d2956a4fe" y="8.392476"/>
    </g>
   </g>
   <g id="patch_3">
    <path d="M 31.5 31.5 
L 31.5 4.32 
" style="fill:none;stroke:#000000;stroke-linecap:square;stroke-linejoin:miter;stroke-width:0.8;"/>
   </g>
   <g id="patch_4">
    <path d="M 226.8 31.5 
L 226.8 4.32 
" style="fill:none;stroke:#000000;stroke-linecap:square;stroke-linejoin:miter;stroke-width:0.8;"/>
   </g>
   <g id="patch_5">
    <path d="M 31.5 31.5 
L 226.8 31.5 
" style="fill:none;stroke:#000000;stroke-linecap:square;stroke-linejoin:miter;stroke-width:0.8;"/>
   </g>
   <g id="patch_6">
    <path d="M 31.5 4.32 
L 226.8 4.32 
" style="fill:none;stroke:#000000;stroke-linecap:square;stroke-linejoin:miter;stroke-width:0.8;"/>
   </g>
  </g>
 </g>
 <defs>
  <clipPath id="p0af0805f64">
   <rect height="27.18" width="195.3" x="31.5" y="4.32"/>
  </clipPath>
 </defs>
</svg>
