<?xml version="1.0" encoding="utf-8" standalone="no"?>
<!DOCTYPE svg PUBLIC "-//W3C//DTD SVG 1.1//EN"
  "http://www.w3.org/Graphics/SVG/1.1/DTD/svg11.dtd">
<svg height="36pt" version="1.1" viewBox="0 0 252 36" width="252pt" xmlns="http://www.w3.org/2000/svg" xmlns:xlink="http://www.w3.org/1999/xlink">
 <metadata>
  <rdf:RDF xmlns:cc="http://creativecommons.org/ns#" xmlns:dc="http://purl.org/dc/elements/1.1/" xmlns:rdf="http://www.w3.org/1999/02/22-rdf-syntax-ns#">
   <cc:Work>
    <dc:type rdf:resource="http://purl.org/dc/dcmitype/StillImage"/>
    <dc:date>2021-07-11T02:16:41.392905</dc:date>
    <dc:format>image/svg+xml</dc:format>
    <dc:creator>
     <cc:Agent>
      <dc:title>Matplotlib v3.4.2, https://matplotlib.org/</dc:title>
     </cc:Agent>
    </dc:creator>
   </cc:Work>
  </rdf:RDF>
 </metadata>
 <defs>
  <style type="text/css">*{stroke-linecap:butt;stroke-linejoin:round;}</style>
 </defs>
 <g id="figure_1">
  <g id="patch_1">
   <path d="M 0 36 
L 252 36 
L 252 0 
L 0 0 
z
" style="fill:none;"/>
  </g>
  <g id="axes_1">
   <g id="patch_2">
    <path d="M 31.5 31.5 
L 226.8 31.5 
L 226.8 4.32 
L 31.5 4.32 
z
" style="fill:#ffffff;"/>
   </g>
   <g id="PolyCollection_1">
    <defs>
     <path d="M 36.15 -18.704419 
L 36.15 -17.994007 
L 45.45 -7.144263 
L 54.75 -6.420011 
L 64.05 -17.647325 
L 73.35 -5.96221 
L 82.65 -5.777232 
L 91.95 -17.304294 
L 101.25 -5.913891 
L 110.55 -10.360326 
L 119.85 -17.208759 
L 129.15 -17.840698 
L 138.45 -17.355056 
L 147.75 -17.613973 
L 157.05 -26.260365 
L 166.35 -11.615374 
L 175.65 -17.802434 
L 184.95 -24.127988 
L 194.25 -22.096967 
L 203.55 -6.367523 
L 212.85 -19.912558 
L 222.15 -17.12587 
L 222.15 -17.955386 
L 222.15 -17.955386 
L 212.85 -20.76192 
L 203.55 -30.165293 
L 194.25 -29.773927 
L 184.95 -24.821018 
L 175.65 -18.548929 
L 166.35 -12.52375 
L 157.05 -27.108813 
L 147.75 -18.368704 
L 138.45 -18.916663 
L 129.15 -18.588542 
L 119.85 -17.964063 
L 110.55 -11.066524 
L 101.25 -29.774957 
L 91.95 -18.803456 
L 82.65 -29.021312 
L 73.35 -30.120518 
L 64.05 -18.490518 
L 54.75 -30.205568 
L 45.45 -30.444545 
L 36.15 -18.704419 
z
" id="mc173944330" style="stroke:#1f77b4;stroke-opacity:0.15;"/>
    </defs>
    <g clip-path="url(#p50b08d05d4)">
     <use style="fill:#1f77b4;fill-opacity:0.15;stroke:#1f77b4;stroke-opacity:0.15;" x="0" xlink:href="#mc173944330" y="36"/>
    </g>
   </g>
   <g id="PolyCollection_2">
    <defs>
     <path d="M 36.15 -26.316561 
L 36.15 -25.210507 
L 45.45 -6.698874 
L 54.75 -6.316068 
L 64.05 -6.096462 
L 73.35 -6.003932 
L 82.65 -5.735455 
L 91.95 -7.212439 
L 101.25 -6.691068 
L 110.55 -16.280407 
L 119.85 -6.311001 
L 129.15 -9.216182 
L 138.45 -6.202667 
L 147.75 -6.282354 
L 157.05 -5.905095 
L 166.35 -22.616547 
L 175.65 -6.68801 
L 184.95 -5.805152 
L 194.25 -5.918182 
L 203.55 -6.497036 
L 212.85 -7.570746 
L 222.15 -27.215135 
L 222.15 -27.990771 
L 222.15 -27.990771 
L 212.85 -30.336973 
L 203.55 -30.334131 
L 194.25 -29.446409 
L 184.95 -29.316766 
L 175.65 -29.661228 
L 166.35 -23.594604 
L 157.05 -29.463914 
L 147.75 -29.923402 
L 138.45 -29.726996 
L 129.15 -10.888402 
L 119.85 -29.595983 
L 110.55 -17.793626 
L 101.25 -30.137372 
L 91.95 -29.962863 
L 82.65 -28.800551 
L 73.35 -29.505242 
L 64.05 -29.924341 
L 54.75 -30.205679 
L 45.45 -29.981607 
L 36.15 -26.316561 
z
" id="m81cd01c00e" style="stroke:#ff7f0e;stroke-opacity:0.15;"/>
    </defs>
    <g clip-path="url(#p50b08d05d4)">
     <use style="fill:#ff7f0e;fill-opacity:0.15;stroke:#ff7f0e;stroke-opacity:0.15;" x="0" xlink:href="#m81cd01c00e" y="36"/>
    </g>
   </g>
   <g id="matplotlib.axis_1"/>
   <g id="matplotlib.axis_2">
    <g id="ytick_1">
     <g id="line2d_1">
      <defs>
       <path d="M 0 0 
L -3.5 0 
" id="me4f5c03a17" style="stroke:#000000;stroke-width:0.8;"/>
      </defs>
      <g>
       <use style="stroke:#000000;stroke-width:0.8;" x="31.5" xlink:href="#me4f5c03a17" y="27.941408"/>
      </g>
     </g>
     <g id="text_1">
      <!-- −6 -->
      <g transform="translate(12.70625 30.980783)scale(0.08 -0.08)">
       <defs>
        <path d="M 678 2272 
L 4684 2272 
L 4684 1741 
L 678 1741 
L 678 2272 
z
" id="DejaVuSans-2212" transform="scale(0.015625)"/>
        <path d="M 2113 2584 
Q 1688 2584 1439 2293 
Q 1191 2003 1191 1497 
Q 1191 994 1439 701 
Q 1688 409 2113 409 
Q 2538 409 2786 701 
Q 3034 994 3034 1497 
Q 3034 2003 2786 2293 
Q 2538 2584 2113 2584 
z
M 3366 4563 
L 3366 3988 
Q 3128 4100 2886 4159 
Q 2644 4219 2406 4219 
Q 1781 4219 1451 3797 
Q 1122 3375 1075 2522 
Q 1259 2794 1537 2939 
Q 1816 3084 2150 3084 
Q 2853 3084 3261 2657 
Q 3669 2231 3669 1497 
Q 3669 778 3244 343 
Q 2819 -91 2113 -91 
Q 1303 -91 875 529 
Q 447 1150 447 2328 
Q 447 3434 972 4092 
Q 1497 4750 2381 4750 
Q 2619 4750 2861 4703 
Q 3103 4656 3366 4563 
z
" id="DejaVuSans-36" transform="scale(0.015625)"/>
       </defs>
       <use xlink:href="#DejaVuSans-2212"/>
       <use x="83.789062" xlink:href="#DejaVuSans-36"/>
      </g>
     </g>
    </g>
    <g id="ytick_2">
     <g id="line2d_2">
      <g>
       <use style="stroke:#000000;stroke-width:0.8;" x="31.5" xlink:href="#me4f5c03a17" y="17.914623"/>
      </g>
     </g>
     <g id="text_2">
      <!-- 0 -->
      <g transform="translate(19.41 20.953998)scale(0.08 -0.08)">
       <defs>
        <path d="M 2034 4250 
Q 1547 4250 1301 3770 
Q 1056 3291 1056 2328 
Q 1056 1369 1301 889 
Q 1547 409 2034 409 
Q 2525 409 2770 889 
Q 3016 1369 3016 2328 
Q 3016 3291 2770 3770 
Q 2525 4250 2034 4250 
z
M 2034 4750 
Q 2819 4750 3233 4129 
Q 3647 3509 3647 2328 
Q 3647 1150 3233 529 
Q 2819 -91 2034 -91 
Q 1250 -91 836 529 
Q 422 1150 422 2328 
Q 422 3509 836 4129 
Q 1250 4750 2034 4750 
z
" id="DejaVuSans-30" transform="scale(0.015625)"/>
       </defs>
       <use xlink:href="#DejaVuSans-30"/>
      </g>
     </g>
    </g>
    <g id="ytick_3">
     <g id="line2d_3">
      <g>
       <use style="stroke:#000000;stroke-width:0.8;" x="31.5" xlink:href="#me4f5c03a17" y="7.887838"/>
      </g>
     </g>
     <g id="text_3">
      <!-- 6 -->
      <g transform="translate(19.41 10.927213)scale(0.08 -0.08)">
       <use xlink:href="#DejaVuSans-36"/>
      </g>
     </g>
    </g>
    <g id="text_4">
     <!-- $y$ -->
     <g transform="translate(7.02625 20.31)rotate(-90)scale(0.08 -0.08)">
      <defs>
       <path d="M 1588 -325 
Q 1188 -997 936 -1164 
Q 684 -1331 294 -1331 
L -159 -1331 
L -63 -850 
L 269 -850 
Q 509 -850 678 -719 
Q 847 -588 1056 -206 
L 1234 128 
L 459 3500 
L 1069 3500 
L 1650 819 
L 3256 3500 
L 3859 3500 
L 1588 -325 
z
" id="DejaVuSans-Oblique-79" transform="scale(0.015625)"/>
      </defs>
      <use transform="translate(0 0.3125)" xlink:href="#DejaVuSans-Oblique-79"/>
     </g>
    </g>
   </g>
   <g id="line2d_4">
    <path clip-path="url(#p50b08d05d4)" d="M 36.15 17.640948 
L 45.45 15.052076 
L 54.75 17.112276 
L 64.05 17.923557 
L 73.35 19.22426 
L 82.65 20.6729 
L 91.95 17.90411 
L 101.25 18.202372 
L 110.55 25.273393 
L 119.85 18.408549 
L 129.15 17.792884 
L 138.45 17.820903 
L 147.75 17.997901 
L 157.05 9.303494 
L 166.35 23.922304 
L 175.65 17.829251 
L 184.95 11.521357 
L 194.25 8.940374 
L 203.55 16.408663 
L 212.85 15.675239 
L 222.15 18.492237 
" style="fill:none;stroke:#1f77b4;stroke-linecap:square;stroke-width:0.7;"/>
    <defs>
     <path d="M 0 1 
C 0.265203 1 0.51958 0.894634 0.707107 0.707107 
C 0.894634 0.51958 1 0.265203 1 0 
C 1 -0.265203 0.894634 -0.51958 0.707107 -0.707107 
C 0.51958 -0.894634 0.265203 -1 0 -1 
C -0.265203 -1 -0.51958 -0.894634 -0.707107 -0.707107 
C -0.894634 -0.51958 -1 -0.265203 -1 0 
C -1 0.265203 -0.894634 0.51958 -0.707107 0.707107 
C -0.51958 0.894634 -0.265203 1 0 1 
z
" id="m9fa65e1dbb" style="stroke:#1f77b4;"/>
    </defs>
    <g clip-path="url(#p50b08d05d4)">
     <use style="fill:#1f77b4;stroke:#1f77b4;" x="36.15" xlink:href="#m9fa65e1dbb" y="17.640948"/>
     <use style="fill:#1f77b4;stroke:#1f77b4;" x="45.45" xlink:href="#m9fa65e1dbb" y="15.052076"/>
     <use style="fill:#1f77b4;stroke:#1f77b4;" x="54.75" xlink:href="#m9fa65e1dbb" y="17.112276"/>
     <use style="fill:#1f77b4;stroke:#1f77b4;" x="64.05" xlink:href="#m9fa65e1dbb" y="17.923557"/>
     <use style="fill:#1f77b4;stroke:#1f77b4;" x="73.35" xlink:href="#m9fa65e1dbb" y="19.22426"/>
     <use style="fill:#1f77b4;stroke:#1f77b4;" x="82.65" xlink:href="#m9fa65e1dbb" y="20.6729"/>
     <use style="fill:#1f77b4;stroke:#1f77b4;" x="91.95" xlink:href="#m9fa65e1dbb" y="17.90411"/>
     <use style="fill:#1f77b4;stroke:#1f77b4;" x="101.25" xlink:href="#m9fa65e1dbb" y="18.202372"/>
     <use style="fill:#1f77b4;stroke:#1f77b4;" x="110.55" xlink:href="#m9fa65e1dbb" y="25.273393"/>
     <use style="fill:#1f77b4;stroke:#1f77b4;" x="119.85" xlink:href="#m9fa65e1dbb" y="18.408549"/>
     <use style="fill:#1f77b4;stroke:#1f77b4;" x="129.15" xlink:href="#m9fa65e1dbb" y="17.792884"/>
     <use style="fill:#1f77b4;stroke:#1f77b4;" x="138.45" xlink:href="#m9fa65e1dbb" y="17.820903"/>
     <use style="fill:#1f77b4;stroke:#1f77b4;" x="147.75" xlink:href="#m9fa65e1dbb" y="17.997901"/>
     <use style="fill:#1f77b4;stroke:#1f77b4;" x="157.05" xlink:href="#m9fa65e1dbb" y="9.303494"/>
     <use style="fill:#1f77b4;stroke:#1f77b4;" x="166.35" xlink:href="#m9fa65e1dbb" y="23.922304"/>
     <use style="fill:#1f77b4;stroke:#1f77b4;" x="175.65" xlink:href="#m9fa65e1dbb" y="17.829251"/>
     <use style="fill:#1f77b4;stroke:#1f77b4;" x="184.95" xlink:href="#m9fa65e1dbb" y="11.521357"/>
     <use style="fill:#1f77b4;stroke:#1f77b4;" x="194.25" xlink:href="#m9fa65e1dbb" y="8.940374"/>
     <use style="fill:#1f77b4;stroke:#1f77b4;" x="203.55" xlink:href="#m9fa65e1dbb" y="16.408663"/>
     <use style="fill:#1f77b4;stroke:#1f77b4;" x="212.85" xlink:href="#m9fa65e1dbb" y="15.675239"/>
     <use style="fill:#1f77b4;stroke:#1f77b4;" x="222.15" xlink:href="#m9fa65e1dbb" y="18.492237"/>
    </g>
   </g>
   <g id="line2d_5">
    <path clip-path="url(#p50b08d05d4)" d="M 36.15 10.240838 
L 45.45 16.807565 
L 54.75 18.158104 
L 64.05 18.675673 
L 73.35 19.220424 
L 82.65 20.769179 
L 91.95 16.92938 
L 101.25 17.147679 
L 110.55 18.960716 
L 119.85 17.548224 
L 129.15 25.953431 
L 138.45 18.254952 
L 147.75 17.582875 
L 157.05 18.780467 
L 166.35 12.911263 
L 175.65 17.930308 
L 184.95 20.337173 
L 194.25 19.298207 
L 203.55 15.388024 
L 212.85 15.383024 
L 222.15 8.383618 
" style="fill:none;stroke:#ff7f0e;stroke-linecap:square;stroke-width:0.7;"/>
    <defs>
     <path d="M 0 1 
C 0.265203 1 0.51958 0.894634 0.707107 0.707107 
C 0.894634 0.51958 1 0.265203 1 0 
C 1 -0.265203 0.894634 -0.51958 0.707107 -0.707107 
C 0.51958 -0.894634 0.265203 -1 0 -1 
C -0.265203 -1 -0.51958 -0.894634 -0.707107 -0.707107 
C -0.894634 -0.51958 -1 -0.265203 -1 0 
C -1 0.265203 -0.894634 0.51958 -0.707107 0.707107 
C -0.51958 0.894634 -0.265203 1 0 1 
z
" id="md3b6dc331a" style="stroke:#ff7f0e;"/>
    </defs>
    <g clip-path="url(#p50b08d05d4)">
     <use style="fill:#ff7f0e;stroke:#ff7f0e;" x="36.15" xlink:href="#md3b6dc331a" y="10.240838"/>
     <use style="fill:#ff7f0e;stroke:#ff7f0e;" x="45.45" xlink:href="#md3b6dc331a" y="16.807565"/>
     <use style="fill:#ff7f0e;stroke:#ff7f0e;" x="54.75" xlink:href="#md3b6dc331a" y="18.158104"/>
     <use style="fill:#ff7f0e;stroke:#ff7f0e;" x="64.05" xlink:href="#md3b6dc331a" y="18.675673"/>
     <use style="fill:#ff7f0e;stroke:#ff7f0e;" x="73.35" xlink:href="#md3b6dc331a" y="19.220424"/>
     <use style="fill:#ff7f0e;stroke:#ff7f0e;" x="82.65" xlink:href="#md3b6dc331a" y="20.769179"/>
     <use style="fill:#ff7f0e;stroke:#ff7f0e;" x="91.95" xlink:href="#md3b6dc331a" y="16.92938"/>
     <use style="fill:#ff7f0e;stroke:#ff7f0e;" x="101.25" xlink:href="#md3b6dc331a" y="17.147679"/>
     <use style="fill:#ff7f0e;stroke:#ff7f0e;" x="110.55" xlink:href="#md3b6dc331a" y="18.960716"/>
     <use style="fill:#ff7f0e;stroke:#ff7f0e;" x="119.85" xlink:href="#md3b6dc331a" y="17.548224"/>
     <use style="fill:#ff7f0e;stroke:#ff7f0e;" x="129.15" xlink:href="#md3b6dc331a" y="25.953431"/>
     <use style="fill:#ff7f0e;stroke:#ff7f0e;" x="138.45" xlink:href="#md3b6dc331a" y="18.254952"/>
     <use style="fill:#ff7f0e;stroke:#ff7f0e;" x="147.75" xlink:href="#md3b6dc331a" y="17.582875"/>
     <use style="fill:#ff7f0e;stroke:#ff7f0e;" x="157.05" xlink:href="#md3b6dc331a" y="18.780467"/>
     <use style="fill:#ff7f0e;stroke:#ff7f0e;" x="166.35" xlink:href="#md3b6dc331a" y="12.911263"/>
     <use style="fill:#ff7f0e;stroke:#ff7f0e;" x="175.65" xlink:href="#md3b6dc331a" y="17.930308"/>
     <use style="fill:#ff7f0e;stroke:#ff7f0e;" x="184.95" xlink:href="#md3b6dc331a" y="20.337173"/>
     <use style="fill:#ff7f0e;stroke:#ff7f0e;" x="194.25" xlink:href="#md3b6dc331a" y="19.298207"/>
     <use style="fill:#ff7f0e;stroke:#ff7f0e;" x="203.55" xlink:href="#md3b6dc331a" y="15.388024"/>
     <use style="fill:#ff7f0e;stroke:#ff7f0e;" x="212.85" xlink:href="#md3b6dc331a" y="15.383024"/>
     <use style="fill:#ff7f0e;stroke:#ff7f0e;" x="222.15" xlink:href="#md3b6dc331a" y="8.383618"/>
    </g>
   </g>
   <g id="patch_3">
    <path d="M 31.5 31.5 
L 31.5 4.32 
" style="fill:none;stroke:#000000;stroke-linecap:square;stroke-linejoin:miter;stroke-width:0.8;"/>
   </g>
   <g id="patch_4">
    <path d="M 226.8 31.5 
L 226.8 4.32 
" style="fill:none;stroke:#000000;stroke-linecap:square;stroke-linejoin:miter;stroke-width:0.8;"/>
   </g>
   <g id="patch_5">
    <path d="M 31.5 31.5 
L 226.8 31.5 
" style="fill:none;stroke:#000000;stroke-linecap:square;stroke-linejoin:miter;stroke-width:0.8;"/>
   </g>
   <g id="patch_6">
    <path d="M 31.5 4.32 
L 226.8 4.32 
" style="fill:none;stroke:#000000;stroke-linecap:square;stroke-linejoin:miter;stroke-width:0.8;"/>
   </g>
  </g>
 </g>
 <defs>
  <clipPath id="p50b08d05d4">
   <rect height="27.18" width="195.3" x="31.5" y="4.32"/>
  </clipPath>
 </defs>
</svg>
