<?xml version="1.0" encoding="utf-8" standalone="no"?>
<!DOCTYPE svg PUBLIC "-//W3C//DTD SVG 1.1//EN"
  "http://www.w3.org/Graphics/SVG/1.1/DTD/svg11.dtd">
<svg height="36pt" version="1.1" viewBox="0 0 252 36" width="252pt" xmlns="http://www.w3.org/2000/svg" xmlns:xlink="http://www.w3.org/1999/xlink">
 <metadata>
  <rdf:RDF xmlns:cc="http://creativecommons.org/ns#" xmlns:dc="http://purl.org/dc/elements/1.1/" xmlns:rdf="http://www.w3.org/1999/02/22-rdf-syntax-ns#">
   <cc:Work>
    <dc:type rdf:resource="http://purl.org/dc/dcmitype/StillImage"/>
    <dc:date>2021-07-30T11:57:15.716418</dc:date>
    <dc:format>image/svg+xml</dc:format>
    <dc:creator>
     <cc:Agent>
      <dc:title>Matplotlib v3.4.2, https://matplotlib.org/</dc:title>
     </cc:Agent>
    </dc:creator>
   </cc:Work>
  </rdf:RDF>
 </metadata>
 <defs>
  <style type="text/css">*{stroke-linecap:butt;stroke-linejoin:round;}</style>
 </defs>
 <g id="figure_1">
  <g id="patch_1">
   <path d="M 0 36 
L 252 36 
L 252 0 
L 0 0 
z
" style="fill:none;"/>
  </g>
  <g id="axes_1">
   <g id="patch_2">
    <path d="M 31.5 31.5 
L 226.8 31.5 
L 226.8 4.32 
L 31.5 4.32 
z
" style="fill:none;"/>
   </g>
   <g id="matplotlib.axis_1"/>
   <g id="matplotlib.axis_2">
    <g id="ytick_1">
     <g id="line2d_1">
      <defs>
       <path d="M 0 0 
L -3.5 0 
" id="mc347cffabd" style="stroke:#000000;stroke-width:0.8;"/>
      </defs>
      <g>
       <use style="stroke:#000000;stroke-width:0.8;" x="31.5" xlink:href="#mc347cffabd" y="28.363846"/>
      </g>
     </g>
     <g id="text_1">
      <!-- 0 -->
      <g transform="translate(20.265817 31.131247)scale(0.08 -0.08)">
       <defs>
        <path d="M 2758 2044 
C 2758 2405 2752 3077 2490 3596 
C 2227 4096 1805 4229 1504 4229 
C 1069 4229 698 3975 506 3570 
C 301 3146 243 2709 243 2044 
C 243 1589 262 1031 493 543 
C 755 5 1197 -128 1498 -128 
C 1894 -128 2278 81 2496 518 
C 2720 974 2758 1474 2758 2044 
z
M 1498 261 
C 1011 261 864 811 819 995 
C 742 1310 730 1614 730 2114 
C 730 2506 730 2948 851 3297 
C 998 3701 1254 3840 1498 3840 
C 1971 3840 2125 3372 2176 3208 
C 2272 2873 2272 2481 2272 2114 
C 2272 1526 2272 261 1498 261 
z
" id="CMSS17-30" transform="scale(0.015625)"/>
       </defs>
       <use transform="scale(0.996264)" xlink:href="#CMSS17-30"/>
      </g>
     </g>
    </g>
    <g id="ytick_2">
     <g id="line2d_2">
      <g>
       <use style="stroke:#000000;stroke-width:0.8;" x="31.5" xlink:href="#mc347cffabd" y="17.91"/>
      </g>
     </g>
     <g id="text_2">
      <!-- 0.5 -->
      <g transform="translate(13.67931 20.677401)scale(0.08 -0.08)">
       <defs>
        <path d="M 1088 510 
L 576 510 
L 576 0 
L 1088 0 
L 1088 510 
z
" id="CMSS17-2e" transform="scale(0.015625)"/>
        <path d="M 934 3752 
L 2502 3752 
L 2502 4160 
L 467 4160 
L 467 1781 
L 896 1781 
C 1011 2046 1248 2240 1555 2240 
C 1843 2240 2163 1989 2163 1266 
C 2163 493 1709 267 1376 267 
C 966 267 589 512 422 851 
L 218 499 
C 512 49 992 -128 1376 -128 
C 2118 -128 2701 497 2701 1253 
C 2701 2030 2182 2629 1562 2629 
C 1338 2629 1120 2553 934 2399 
L 934 3752 
z
" id="CMSS17-35" transform="scale(0.015625)"/>
       </defs>
       <use transform="scale(0.996264)" xlink:href="#CMSS17-30"/>
       <use transform="translate(46.843624 0)scale(0.996264)" xlink:href="#CMSS17-2e"/>
       <use transform="translate(72.867828 0)scale(0.996264)" xlink:href="#CMSS17-35"/>
      </g>
     </g>
    </g>
    <g id="ytick_3">
     <g id="line2d_3">
      <g>
       <use style="stroke:#000000;stroke-width:0.8;" x="31.5" xlink:href="#mc347cffabd" y="7.456154"/>
      </g>
     </g>
     <g id="text_3">
      <!-- 1 -->
      <g transform="translate(20.265817 10.223555)scale(0.08 -0.08)">
       <defs>
        <path d="M 1818 4288 
L 1696 4288 
C 1350 3940 947 3890 538 3890 
L 538 3520 
C 723 3520 1024 3520 1325 3667 
L 1325 369 
L 570 369 
L 570 0 
L 2573 0 
L 2573 369 
L 1818 369 
L 1818 4288 
z
" id="CMSS17-31" transform="scale(0.015625)"/>
       </defs>
       <use transform="scale(0.996264)" xlink:href="#CMSS17-31"/>
      </g>
     </g>
    </g>
    <g id="text_4">
     <!-- $p(\mathrm{specific})$ -->
     <g transform="translate(7.686782 36.648796)rotate(-90)scale(0.08 -0.08)">
      <defs>
       <path d="M 275 -789 
C 230 -980 205 -1031 -58 -1031 
C -134 -1031 -198 -1031 -198 -1152 
C -198 -1165 -192 -1216 -122 -1216 
C -38 -1216 51 -1216 134 -1216 
L 410 -1216 
C 544 -1216 870 -1216 1005 -1216 
C 1043 -1216 1120 -1216 1120 -1101 
C 1120 -1031 1075 -1031 966 -1031 
C 672 -1031 653 -987 653 -937 
C 653 -861 941 219 979 364 
C 1050 185 1222 -64 1555 -64 
C 2278 -64 3059 875 3059 1814 
C 3059 2401 2726 2816 2246 2816 
C 1837 2816 1491 2420 1421 2331 
C 1370 2650 1120 2816 864 2816 
C 678 2816 531 2727 410 2484 
C 294 2254 205 1865 205 1839 
C 205 1814 230 1782 275 1782 
C 326 1782 333 1788 371 1935 
C 467 2312 589 2689 845 2689 
C 992 2689 1043 2587 1043 2397 
C 1043 2245 1024 2181 998 2067 
L 275 -789 
z
M 1382 1993 
C 1427 2171 1606 2357 1709 2446 
C 1779 2510 1990 2689 2234 2689 
C 2515 2689 2643 2408 2643 2076 
C 2643 1769 2464 1047 2304 715 
C 2144 370 1850 64 1555 64 
C 1120 64 1050 613 1050 639 
C 1050 658 1062 709 1069 741 
L 1382 1993 
z
" id="CMMI12-70" transform="scale(0.015625)"/>
       <path d="M 1958 -1561 
C 1958 -1555 1958 -1542 1939 -1523 
C 1645 -1224 858 -407 858 1581 
C 858 3569 1632 4379 1946 4697 
C 1946 4704 1958 4717 1958 4736 
C 1958 4755 1939 4768 1914 4768 
C 1843 4768 1299 4296 986 3594 
C 666 2887 576 2199 576 1588 
C 576 1128 621 351 1005 -471 
C 1312 -1135 1837 -1600 1914 -1600 
C 1946 -1600 1958 -1587 1958 -1561 
z
" id="CMR17-28" transform="scale(0.015625)"/>
       <path d="M 1978 2697 
C 1978 2813 1971 2819 1933 2819 
C 1907 2819 1901 2813 1824 2717 
C 1805 2691 1747 2626 1728 2601 
C 1523 2819 1235 2819 1126 2819 
C 416 2819 160 2447 160 2076 
C 160 1498 813 1365 998 1325 
C 1402 1243 1542 1217 1677 1101 
C 1760 1025 1901 884 1901 654 
C 1901 384 1747 38 1158 38 
C 602 38 403 460 288 1021 
C 269 1110 269 1117 218 1117 
C 166 1117 160 1110 160 983 
L 160 63 
C 160 -51 166 -58 205 -58 
C 237 -58 243 -51 275 0 
C 314 57 410 211 448 276 
C 576 103 800 -64 1158 -64 
C 1792 -64 2131 283 2131 784 
C 2131 1112 1958 1285 1875 1362 
C 1683 1561 1459 1606 1190 1657 
C 838 1735 390 1825 390 2217 
C 390 2383 480 2737 1126 2737 
C 1811 2737 1850 2094 1862 1888 
C 1869 1856 1901 1849 1920 1849 
C 1978 1849 1978 1869 1978 1978 
L 1978 2697 
z
" id="CMR17-73" transform="scale(0.015625)"/>
       <path d="M 1408 -1063 
C 998 -1063 973 -1037 973 -789 
L 973 402 
C 1158 134 1427 -38 1766 -38 
C 2406 -38 3053 523 3053 1388 
C 3053 2191 2496 2802 1837 2802 
C 1453 2802 1139 2592 960 2338 
L 960 2802 
L 198 2732 
L 198 2567 
C 576 2567 634 2528 634 2223 
L 634 -789 
C 634 -1031 608 -1063 198 -1063 
L 198 -1228 
C 352 -1216 634 -1216 800 -1216 
C 966 -1216 1254 -1216 1408 -1228 
L 1408 -1063 
z
M 973 2012 
C 973 2102 973 2235 1222 2471 
C 1254 2497 1472 2688 1792 2688 
C 2259 2688 2643 2108 2643 1382 
C 2643 656 2234 64 1728 64 
C 1498 64 1248 172 1056 472 
C 973 612 973 650 973 752 
L 973 2012 
z
" id="CMR17-70" transform="scale(0.015625)"/>
       <path d="M 2438 1472 
C 2464 1498 2464 1511 2464 1576 
C 2464 2238 2118 2816 1389 2816 
C 710 2816 173 2169 173 1383 
C 173 551 781 -64 1459 -64 
C 2176 -64 2458 607 2458 740 
C 2458 784 2419 784 2406 784 
C 2362 784 2355 771 2330 696 
C 2189 265 1837 51 1504 51 
C 1229 51 954 203 781 480 
C 582 803 582 1176 582 1472 
L 2438 1472 
z
M 589 1568 
C 634 2505 1126 2714 1382 2714 
C 1818 2714 2112 2297 2118 1568 
L 589 1568 
z
" id="CMR17-65" transform="scale(0.015625)"/>
       <path d="M 2234 2240 
C 2112 2240 1933 2240 1933 2017 
C 1933 1838 2080 1787 2163 1787 
C 2208 1787 2394 1807 2394 2024 
C 2394 2467 1958 2803 1466 2803 
C 787 2803 211 2178 211 1363 
C 211 516 813 -64 1466 -64 
C 2259 -64 2458 677 2458 748 
C 2458 774 2451 793 2406 793 
C 2362 793 2355 787 2330 703 
C 2163 180 1798 51 1523 51 
C 1114 51 621 427 621 1369 
C 621 2338 1094 2688 1472 2688 
C 1722 2688 2093 2573 2234 2240 
z
" id="CMR17-63" transform="scale(0.015625)"/>
       <path d="M 992 3909 
C 992 4049 877 4170 730 4170 
C 589 4170 467 4056 467 3909 
C 467 3769 582 3648 730 3648 
C 870 3648 992 3763 992 3909 
z
M 243 2706 
L 243 2541 
C 602 2541 653 2502 653 2197 
L 653 427 
C 653 184 627 153 218 153 
L 218 -13 
C 371 0 646 0 806 0 
C 960 0 1222 0 1370 -13 
L 1370 153 
C 992 153 979 191 979 420 
L 979 2776 
L 243 2706 
z
" id="CMR17-69" transform="scale(0.015625)"/>
       <path d="M 2554 2764 
C 2400 2764 1926 2764 1805 2739 
C 1766 2725 1754 2725 1677 2725 
L 947 2725 
L 947 3469 
C 947 4073 1434 4352 1818 4352 
C 1939 4352 2214 4320 2355 4101 
C 2291 4101 2086 4101 2086 3878 
C 2086 3725 2189 3648 2317 3648 
C 2432 3648 2547 3712 2547 3885 
C 2547 4205 2240 4454 1843 4454 
C 1338 4454 634 4168 634 3469 
L 634 2725 
L 122 2725 
L 122 2560 
L 634 2560 
L 634 427 
C 634 184 608 153 198 153 
L 198 -13 
C 352 0 634 0 794 0 
C 960 0 1242 0 1395 -13 
L 1395 153 
C 986 153 960 178 960 427 
L 960 2560 
L 1901 2560 
C 2176 2560 2227 2502 2227 2222 
L 2227 427 
C 2227 184 2202 153 1792 153 
L 1792 -13 
C 1946 0 2227 0 2387 0 
C 2554 0 2835 0 2989 -13 
L 2989 153 
C 2579 153 2554 178 2554 427 
L 2554 2764 
z
" id="CMR17-c" transform="scale(0.015625)"/>
       <path d="M 1683 1581 
C 1683 2040 1638 2817 1254 3639 
C 947 4303 422 4768 346 4768 
C 326 4768 301 4761 301 4729 
C 301 4717 307 4710 314 4697 
C 621 4378 1402 3568 1402 1584 
C 1402 -407 627 -1217 314 -1537 
C 307 -1549 301 -1556 301 -1568 
C 301 -1600 326 -1600 346 -1600 
C 416 -1600 960 -1128 1274 -426 
C 1594 281 1683 969 1683 1581 
z
" id="CMR17-29" transform="scale(0.015625)"/>
      </defs>
      <use transform="scale(0.996264)" xlink:href="#CMMI12-70"/>
      <use transform="translate(48.959514 0)scale(0.996264)" xlink:href="#CMR17-28"/>
      <use transform="translate(84.240282 0)scale(0.996264)" xlink:href="#CMR17-73"/>
      <use transform="translate(120.041619 0)scale(0.996264)" xlink:href="#CMR17-70"/>
      <use transform="translate(173.539428 0)scale(0.996264)" xlink:href="#CMR17-65"/>
      <use transform="translate(214.025088 0)scale(0.996264)" xlink:href="#CMR17-63"/>
      <use transform="translate(254.510749 0)scale(0.996264)" xlink:href="#CMR17-69"/>
      <use transform="translate(279.381807 0)scale(0.996264)" xlink:href="#CMR17-c"/>
      <use transform="translate(329.124031 0)scale(0.996264)" xlink:href="#CMR17-63"/>
      <use transform="translate(369.609691 0)scale(0.996264)" xlink:href="#CMR17-29"/>
     </g>
    </g>
   </g>
   <g id="line2d_4">
    <path clip-path="url(#p1273fdfc59)" d="M 36.15 7.502924 
L 45.45 28.36384 
L 54.75 28.36384 
L 64.05 7.566551 
L 73.35 28.363841 
L 82.65 28.363841 
L 91.95 28.363839 
L 101.25 28.363842 
L 110.55 28.363465 
L 119.85 7.711195 
L 129.15 7.519331 
L 138.45 28.363842 
L 147.75 7.568026 
L 157.05 28.363485 
L 166.35 28.363472 
L 175.65 7.611036 
L 184.95 28.363465 
L 194.25 28.363842 
L 203.55 28.363841 
L 212.85 28.363443 
L 222.15 7.51269 
" style="fill:none;stroke:#2ca02c;stroke-linecap:square;stroke-width:0.5;"/>
    <defs>
     <path d="M 0 1 
C 0.265203 1 0.51958 0.894634 0.707107 0.707107 
C 0.894634 0.51958 1 0.265203 1 0 
C 1 -0.265203 0.894634 -0.51958 0.707107 -0.707107 
C 0.51958 -0.894634 0.265203 -1 0 -1 
C -0.265203 -1 -0.51958 -0.894634 -0.707107 -0.707107 
C -0.894634 -0.51958 -1 -0.265203 -1 0 
C -1 0.265203 -0.894634 0.51958 -0.707107 0.707107 
C -0.51958 0.894634 -0.265203 1 0 1 
z
" id="m7517875d77" style="stroke:#2ca02c;"/>
    </defs>
    <g clip-path="url(#p1273fdfc59)">
     <use style="fill:#2ca02c;stroke:#2ca02c;" x="36.15" xlink:href="#m7517875d77" y="7.502924"/>
     <use style="fill:#2ca02c;stroke:#2ca02c;" x="45.45" xlink:href="#m7517875d77" y="28.36384"/>
     <use style="fill:#2ca02c;stroke:#2ca02c;" x="54.75" xlink:href="#m7517875d77" y="28.36384"/>
     <use style="fill:#2ca02c;stroke:#2ca02c;" x="64.05" xlink:href="#m7517875d77" y="7.566551"/>
     <use style="fill:#2ca02c;stroke:#2ca02c;" x="73.35" xlink:href="#m7517875d77" y="28.363841"/>
     <use style="fill:#2ca02c;stroke:#2ca02c;" x="82.65" xlink:href="#m7517875d77" y="28.363841"/>
     <use style="fill:#2ca02c;stroke:#2ca02c;" x="91.95" xlink:href="#m7517875d77" y="28.363839"/>
     <use style="fill:#2ca02c;stroke:#2ca02c;" x="101.25" xlink:href="#m7517875d77" y="28.363842"/>
     <use style="fill:#2ca02c;stroke:#2ca02c;" x="110.55" xlink:href="#m7517875d77" y="28.363465"/>
     <use style="fill:#2ca02c;stroke:#2ca02c;" x="119.85" xlink:href="#m7517875d77" y="7.711195"/>
     <use style="fill:#2ca02c;stroke:#2ca02c;" x="129.15" xlink:href="#m7517875d77" y="7.519331"/>
     <use style="fill:#2ca02c;stroke:#2ca02c;" x="138.45" xlink:href="#m7517875d77" y="28.363842"/>
     <use style="fill:#2ca02c;stroke:#2ca02c;" x="147.75" xlink:href="#m7517875d77" y="7.568026"/>
     <use style="fill:#2ca02c;stroke:#2ca02c;" x="157.05" xlink:href="#m7517875d77" y="28.363485"/>
     <use style="fill:#2ca02c;stroke:#2ca02c;" x="166.35" xlink:href="#m7517875d77" y="28.363472"/>
     <use style="fill:#2ca02c;stroke:#2ca02c;" x="175.65" xlink:href="#m7517875d77" y="7.611036"/>
     <use style="fill:#2ca02c;stroke:#2ca02c;" x="184.95" xlink:href="#m7517875d77" y="28.363465"/>
     <use style="fill:#2ca02c;stroke:#2ca02c;" x="194.25" xlink:href="#m7517875d77" y="28.363842"/>
     <use style="fill:#2ca02c;stroke:#2ca02c;" x="203.55" xlink:href="#m7517875d77" y="28.363841"/>
     <use style="fill:#2ca02c;stroke:#2ca02c;" x="212.85" xlink:href="#m7517875d77" y="28.363443"/>
     <use style="fill:#2ca02c;stroke:#2ca02c;" x="222.15" xlink:href="#m7517875d77" y="7.51269"/>
    </g>
   </g>
   <g id="patch_3">
    <path d="M 31.5 31.5 
L 31.5 4.32 
" style="fill:none;stroke:#000000;stroke-linecap:square;stroke-linejoin:miter;stroke-width:0.8;"/>
   </g>
   <g id="patch_4">
    <path d="M 226.8 31.5 
L 226.8 4.32 
" style="fill:none;stroke:#000000;stroke-linecap:square;stroke-linejoin:miter;stroke-width:0.8;"/>
   </g>
   <g id="patch_5">
    <path d="M 31.5 31.5 
L 226.8 31.5 
" style="fill:none;stroke:#000000;stroke-linecap:square;stroke-linejoin:miter;stroke-width:0.8;"/>
   </g>
   <g id="patch_6">
    <path d="M 31.5 4.32 
L 226.8 4.32 
" style="fill:none;stroke:#000000;stroke-linecap:square;stroke-linejoin:miter;stroke-width:0.8;"/>
   </g>
  </g>
 </g>
 <defs>
  <clipPath id="p1273fdfc59">
   <rect height="27.18" width="195.3" x="31.5" y="4.32"/>
  </clipPath>
 </defs>
</svg>
