<?xml version="1.0" encoding="utf-8" standalone="no"?>
<!DOCTYPE svg PUBLIC "-//W3C//DTD SVG 1.1//EN"
  "http://www.w3.org/Graphics/SVG/1.1/DTD/svg11.dtd">
<svg height="36pt" version="1.1" viewBox="0 0 252 36" width="252pt" xmlns="http://www.w3.org/2000/svg" xmlns:xlink="http://www.w3.org/1999/xlink">
 <metadata>
  <rdf:RDF xmlns:cc="http://creativecommons.org/ns#" xmlns:dc="http://purl.org/dc/elements/1.1/" xmlns:rdf="http://www.w3.org/1999/02/22-rdf-syntax-ns#">
   <cc:Work>
    <dc:type rdf:resource="http://purl.org/dc/dcmitype/StillImage"/>
    <dc:date>2021-07-21T14:47:29.494609</dc:date>
    <dc:format>image/svg+xml</dc:format>
    <dc:creator>
     <cc:Agent>
      <dc:title>Matplotlib v3.4.2, https://matplotlib.org/</dc:title>
     </cc:Agent>
    </dc:creator>
   </cc:Work>
  </rdf:RDF>
 </metadata>
 <defs>
  <style type="text/css">*{stroke-linecap:butt;stroke-linejoin:round;}</style>
 </defs>
 <g id="figure_1">
  <g id="patch_1">
   <path d="M 0 36 
L 252 36 
L 252 0 
L 0 0 
z
" style="fill:none;"/>
  </g>
  <g id="axes_1">
   <g id="patch_2">
    <path d="M 31.5 31.5 
L 226.8 31.5 
L 226.8 4.32 
L 31.5 4.32 
z
" style="fill:#ffffff;"/>
   </g>
   <g id="PolyCollection_1">
    <defs>
     <path d="M 36.15 -20.756978 
L 36.15 -16.534176 
L 45.45 -7.285623 
L 54.75 -7.257188 
L 64.05 -22.446043 
L 73.35 -7.267203 
L 82.65 -7.276732 
L 91.95 -7.278902 
L 101.25 -7.249563 
L 110.55 -24.37936 
L 119.85 -7.280936 
L 129.15 -26.397739 
L 138.45 -7.268946 
L 147.75 -24.211885 
L 157.05 -21.209403 
L 166.35 -19.607476 
L 175.65 -7.278365 
L 184.95 -24.225253 
L 194.25 -7.775735 
L 203.55 -7.283857 
L 212.85 -7.301915 
L 222.15 -23.56955 
L 222.15 -29.217579 
L 222.15 -29.217579 
L 212.85 -9.811768 
L 203.55 -9.396605 
L 194.25 -12.851095 
L 184.95 -29.937825 
L 175.65 -9.360269 
L 166.35 -24.293127 
L 157.05 -26.54438 
L 147.75 -29.518013 
L 138.45 -9.737549 
L 129.15 -34.194944 
L 119.85 -10.106333 
L 110.55 -32.037886 
L 101.25 -9.555989 
L 91.95 -9.742288 
L 82.65 -10.006694 
L 73.35 -9.379055 
L 64.05 -27.162205 
L 54.75 -9.57446 
L 45.45 -10.003549 
L 36.15 -20.756978 
z
" id="m4a004746a1" style="stroke:#1f77b4;stroke-opacity:0.15;"/>
    </defs>
    <g clip-path="url(#p69a9a677a7)">
     <use style="fill:#1f77b4;fill-opacity:0.15;stroke:#1f77b4;stroke-opacity:0.15;" x="0" xlink:href="#m4a004746a1" y="36"/>
    </g>
   </g>
   <g id="PolyCollection_2">
    <defs>
     <path d="M 36.15 -27.226991 
L 36.15 -22.535345 
L 45.45 -7.261118 
L 54.75 -7.246855 
L 64.05 -7.291627 
L 73.35 -7.272939 
L 82.65 -7.265335 
L 91.95 -7.281408 
L 101.25 -7.258214 
L 110.55 -20.460783 
L 119.85 -22.641128 
L 129.15 -24.446305 
L 138.45 -7.269468 
L 147.75 -7.638066 
L 157.05 -7.3068 
L 166.35 -20.960285 
L 175.65 -20.599702 
L 184.95 -7.320169 
L 194.25 -7.844174 
L 203.55 -7.274212 
L 212.85 -21.468101 
L 222.15 -19.493314 
L 222.15 -24.370282 
L 222.15 -24.370282 
L 212.85 -25.974159 
L 203.55 -9.405742 
L 194.25 -11.974469 
L 184.95 -10.189013 
L 175.65 -25.426309 
L 166.35 -25.748992 
L 157.05 -10.048508 
L 147.75 -11.275867 
L 138.45 -9.434634 
L 129.15 -29.904082 
L 119.85 -27.806094 
L 110.55 -24.709794 
L 101.25 -9.390338 
L 91.95 -9.837583 
L 82.65 -9.876594 
L 73.35 -9.330879 
L 64.05 -9.953613 
L 54.75 -9.555101 
L 45.45 -9.688494 
L 36.15 -27.226991 
z
" id="mef89fe598d" style="stroke:#ff7f0e;stroke-opacity:0.15;"/>
    </defs>
    <g clip-path="url(#p69a9a677a7)">
     <use style="fill:#ff7f0e;fill-opacity:0.15;stroke:#ff7f0e;stroke-opacity:0.15;" x="0" xlink:href="#mef89fe598d" y="36"/>
    </g>
   </g>
   <g id="matplotlib.axis_1"/>
   <g id="matplotlib.axis_2">
    <g id="ytick_1">
     <g id="line2d_1">
      <defs>
       <path d="M 0 0 
L -3.5 0 
" id="m0e44177e48" style="stroke:#000000;stroke-width:0.8;"/>
      </defs>
      <g>
       <use style="stroke:#000000;stroke-width:0.8;" x="31.5" xlink:href="#m0e44177e48" y="28.782"/>
      </g>
     </g>
     <g id="text_1">
      <!-- 0 -->
      <g transform="translate(19.41 31.821375)scale(0.08 -0.08)">
       <defs>
        <path d="M 2034 4250 
Q 1547 4250 1301 3770 
Q 1056 3291 1056 2328 
Q 1056 1369 1301 889 
Q 1547 409 2034 409 
Q 2525 409 2770 889 
Q 3016 1369 3016 2328 
Q 3016 3291 2770 3770 
Q 2525 4250 2034 4250 
z
M 2034 4750 
Q 2819 4750 3233 4129 
Q 3647 3509 3647 2328 
Q 3647 1150 3233 529 
Q 2819 -91 2034 -91 
Q 1250 -91 836 529 
Q 422 1150 422 2328 
Q 422 3509 836 4129 
Q 1250 4750 2034 4750 
z
" id="DejaVuSans-30" transform="scale(0.015625)"/>
       </defs>
       <use xlink:href="#DejaVuSans-30"/>
      </g>
     </g>
    </g>
    <g id="ytick_2">
     <g id="line2d_2">
      <g>
       <use style="stroke:#000000;stroke-width:0.8;" x="31.5" xlink:href="#m0e44177e48" y="17.91"/>
      </g>
     </g>
     <g id="text_2">
      <!-- 2000 -->
      <g transform="translate(4.14 20.949375)scale(0.08 -0.08)">
       <defs>
        <path d="M 1228 531 
L 3431 531 
L 3431 0 
L 469 0 
L 469 531 
Q 828 903 1448 1529 
Q 2069 2156 2228 2338 
Q 2531 2678 2651 2914 
Q 2772 3150 2772 3378 
Q 2772 3750 2511 3984 
Q 2250 4219 1831 4219 
Q 1534 4219 1204 4116 
Q 875 4013 500 3803 
L 500 4441 
Q 881 4594 1212 4672 
Q 1544 4750 1819 4750 
Q 2544 4750 2975 4387 
Q 3406 4025 3406 3419 
Q 3406 3131 3298 2873 
Q 3191 2616 2906 2266 
Q 2828 2175 2409 1742 
Q 1991 1309 1228 531 
z
" id="DejaVuSans-32" transform="scale(0.015625)"/>
       </defs>
       <use xlink:href="#DejaVuSans-32"/>
       <use x="63.623047" xlink:href="#DejaVuSans-30"/>
       <use x="127.246094" xlink:href="#DejaVuSans-30"/>
       <use x="190.869141" xlink:href="#DejaVuSans-30"/>
      </g>
     </g>
    </g>
    <g id="ytick_3">
     <g id="line2d_3">
      <g>
       <use style="stroke:#000000;stroke-width:0.8;" x="31.5" xlink:href="#m0e44177e48" y="7.038"/>
      </g>
     </g>
     <g id="text_3">
      <!-- 4000 -->
      <g transform="translate(4.14 10.077375)scale(0.08 -0.08)">
       <defs>
        <path d="M 2419 4116 
L 825 1625 
L 2419 1625 
L 2419 4116 
z
M 2253 4666 
L 3047 4666 
L 3047 1625 
L 3713 1625 
L 3713 1100 
L 3047 1100 
L 3047 0 
L 2419 0 
L 2419 1100 
L 313 1100 
L 313 1709 
L 2253 4666 
z
" id="DejaVuSans-34" transform="scale(0.015625)"/>
       </defs>
       <use xlink:href="#DejaVuSans-34"/>
       <use x="63.623047" xlink:href="#DejaVuSans-30"/>
       <use x="127.246094" xlink:href="#DejaVuSans-30"/>
       <use x="190.869141" xlink:href="#DejaVuSans-30"/>
      </g>
     </g>
    </g>
    <g id="text_4">
     <!-- $h$ -->
     <g transform="translate(-1.52375 20.47)rotate(-90)scale(0.08 -0.08)">
      <defs>
       <path d="M 3566 2113 
L 3156 0 
L 2578 0 
L 2988 2091 
Q 3016 2238 3031 2350 
Q 3047 2463 3047 2528 
Q 3047 2791 2881 2937 
Q 2716 3084 2419 3084 
Q 1956 3084 1617 2771 
Q 1278 2459 1178 1941 
L 800 0 
L 225 0 
L 1172 4863 
L 1747 4863 
L 1375 2950 
Q 1594 3244 1934 3414 
Q 2275 3584 2650 3584 
Q 3113 3584 3367 3334 
Q 3622 3084 3622 2631 
Q 3622 2519 3608 2391 
Q 3594 2263 3566 2113 
z
" id="DejaVuSans-Oblique-68" transform="scale(0.015625)"/>
      </defs>
      <use transform="translate(0 0.015625)" xlink:href="#DejaVuSans-Oblique-68"/>
     </g>
    </g>
   </g>
   <g id="line2d_4">
    <path clip-path="url(#p69a9a677a7)" d="M 36.15 17.407639 
L 45.45 27.927588 
L 54.75 28.074641 
L 64.05 11.149538 
L 73.35 28.048211 
L 82.65 27.936334 
L 91.95 27.891577 
L 101.25 28.132267 
L 110.55 8.105134 
L 119.85 27.850538 
L 129.15 5.961965 
L 138.45 28.024937 
L 147.75 9.124225 
L 157.05 12.115219 
L 166.35 13.789684 
L 175.65 28.006624 
L 184.95 8.94595 
L 194.25 26.337742 
L 203.55 28.089258 
L 212.85 27.875511 
L 222.15 9.87518 
" style="fill:none;stroke:#1f77b4;stroke-linecap:square;stroke-width:0.7;"/>
    <defs>
     <path d="M 0 1 
C 0.265203 1 0.51958 0.894634 0.707107 0.707107 
C 0.894634 0.51958 1 0.265203 1 0 
C 1 -0.265203 0.894634 -0.51958 0.707107 -0.707107 
C 0.51958 -0.894634 0.265203 -1 0 -1 
C -0.265203 -1 -0.51958 -0.894634 -0.707107 -0.707107 
C -0.894634 -0.51958 -1 -0.265203 -1 0 
C -1 0.265203 -0.894634 0.51958 -0.707107 0.707107 
C -0.51958 0.894634 -0.265203 1 0 1 
z
" id="mbce2fe701c" style="stroke:#1f77b4;"/>
    </defs>
    <g clip-path="url(#p69a9a677a7)">
     <use style="fill:#1f77b4;stroke:#1f77b4;" x="36.15" xlink:href="#mbce2fe701c" y="17.407639"/>
     <use style="fill:#1f77b4;stroke:#1f77b4;" x="45.45" xlink:href="#mbce2fe701c" y="27.927588"/>
     <use style="fill:#1f77b4;stroke:#1f77b4;" x="54.75" xlink:href="#mbce2fe701c" y="28.074641"/>
     <use style="fill:#1f77b4;stroke:#1f77b4;" x="64.05" xlink:href="#mbce2fe701c" y="11.149538"/>
     <use style="fill:#1f77b4;stroke:#1f77b4;" x="73.35" xlink:href="#mbce2fe701c" y="28.048211"/>
     <use style="fill:#1f77b4;stroke:#1f77b4;" x="82.65" xlink:href="#mbce2fe701c" y="27.936334"/>
     <use style="fill:#1f77b4;stroke:#1f77b4;" x="91.95" xlink:href="#mbce2fe701c" y="27.891577"/>
     <use style="fill:#1f77b4;stroke:#1f77b4;" x="101.25" xlink:href="#mbce2fe701c" y="28.132267"/>
     <use style="fill:#1f77b4;stroke:#1f77b4;" x="110.55" xlink:href="#mbce2fe701c" y="8.105134"/>
     <use style="fill:#1f77b4;stroke:#1f77b4;" x="119.85" xlink:href="#mbce2fe701c" y="27.850538"/>
     <use style="fill:#1f77b4;stroke:#1f77b4;" x="129.15" xlink:href="#mbce2fe701c" y="5.961965"/>
     <use style="fill:#1f77b4;stroke:#1f77b4;" x="138.45" xlink:href="#mbce2fe701c" y="28.024937"/>
     <use style="fill:#1f77b4;stroke:#1f77b4;" x="147.75" xlink:href="#mbce2fe701c" y="9.124225"/>
     <use style="fill:#1f77b4;stroke:#1f77b4;" x="157.05" xlink:href="#mbce2fe701c" y="12.115219"/>
     <use style="fill:#1f77b4;stroke:#1f77b4;" x="166.35" xlink:href="#mbce2fe701c" y="13.789684"/>
     <use style="fill:#1f77b4;stroke:#1f77b4;" x="175.65" xlink:href="#mbce2fe701c" y="28.006624"/>
     <use style="fill:#1f77b4;stroke:#1f77b4;" x="184.95" xlink:href="#mbce2fe701c" y="8.94595"/>
     <use style="fill:#1f77b4;stroke:#1f77b4;" x="194.25" xlink:href="#mbce2fe701c" y="26.337742"/>
     <use style="fill:#1f77b4;stroke:#1f77b4;" x="203.55" xlink:href="#mbce2fe701c" y="28.089258"/>
     <use style="fill:#1f77b4;stroke:#1f77b4;" x="212.85" xlink:href="#mbce2fe701c" y="27.875511"/>
     <use style="fill:#1f77b4;stroke:#1f77b4;" x="222.15" xlink:href="#mbce2fe701c" y="9.87518"/>
    </g>
   </g>
   <g id="line2d_5">
    <path clip-path="url(#p69a9a677a7)" d="M 36.15 11.106411 
L 45.45 27.92015 
L 54.75 28.087656 
L 64.05 27.915699 
L 73.35 28.10383 
L 82.65 27.939362 
L 91.95 27.878667 
L 101.25 28.084896 
L 110.55 13.366522 
L 119.85 10.77485 
L 129.15 9.147708 
L 138.45 28.037763 
L 147.75 27.03137 
L 157.05 27.905621 
L 166.35 12.686282 
L 175.65 13.120016 
L 184.95 27.784868 
L 194.25 26.469881 
L 203.55 28.050284 
L 212.85 12.230989 
L 222.15 14.02906 
" style="fill:none;stroke:#ff7f0e;stroke-linecap:square;stroke-width:0.7;"/>
    <defs>
     <path d="M 0 1 
C 0.265203 1 0.51958 0.894634 0.707107 0.707107 
C 0.894634 0.51958 1 0.265203 1 0 
C 1 -0.265203 0.894634 -0.51958 0.707107 -0.707107 
C 0.51958 -0.894634 0.265203 -1 0 -1 
C -0.265203 -1 -0.51958 -0.894634 -0.707107 -0.707107 
C -0.894634 -0.51958 -1 -0.265203 -1 0 
C -1 0.265203 -0.894634 0.51958 -0.707107 0.707107 
C -0.51958 0.894634 -0.265203 1 0 1 
z
" id="mcd579d80bc" style="stroke:#ff7f0e;"/>
    </defs>
    <g clip-path="url(#p69a9a677a7)">
     <use style="fill:#ff7f0e;stroke:#ff7f0e;" x="36.15" xlink:href="#mcd579d80bc" y="11.106411"/>
     <use style="fill:#ff7f0e;stroke:#ff7f0e;" x="45.45" xlink:href="#mcd579d80bc" y="27.92015"/>
     <use style="fill:#ff7f0e;stroke:#ff7f0e;" x="54.75" xlink:href="#mcd579d80bc" y="28.087656"/>
     <use style="fill:#ff7f0e;stroke:#ff7f0e;" x="64.05" xlink:href="#mcd579d80bc" y="27.915699"/>
     <use style="fill:#ff7f0e;stroke:#ff7f0e;" x="73.35" xlink:href="#mcd579d80bc" y="28.10383"/>
     <use style="fill:#ff7f0e;stroke:#ff7f0e;" x="82.65" xlink:href="#mcd579d80bc" y="27.939362"/>
     <use style="fill:#ff7f0e;stroke:#ff7f0e;" x="91.95" xlink:href="#mcd579d80bc" y="27.878667"/>
     <use style="fill:#ff7f0e;stroke:#ff7f0e;" x="101.25" xlink:href="#mcd579d80bc" y="28.084896"/>
     <use style="fill:#ff7f0e;stroke:#ff7f0e;" x="110.55" xlink:href="#mcd579d80bc" y="13.366522"/>
     <use style="fill:#ff7f0e;stroke:#ff7f0e;" x="119.85" xlink:href="#mcd579d80bc" y="10.77485"/>
     <use style="fill:#ff7f0e;stroke:#ff7f0e;" x="129.15" xlink:href="#mcd579d80bc" y="9.147708"/>
     <use style="fill:#ff7f0e;stroke:#ff7f0e;" x="138.45" xlink:href="#mcd579d80bc" y="28.037763"/>
     <use style="fill:#ff7f0e;stroke:#ff7f0e;" x="147.75" xlink:href="#mcd579d80bc" y="27.03137"/>
     <use style="fill:#ff7f0e;stroke:#ff7f0e;" x="157.05" xlink:href="#mcd579d80bc" y="27.905621"/>
     <use style="fill:#ff7f0e;stroke:#ff7f0e;" x="166.35" xlink:href="#mcd579d80bc" y="12.686282"/>
     <use style="fill:#ff7f0e;stroke:#ff7f0e;" x="175.65" xlink:href="#mcd579d80bc" y="13.120016"/>
     <use style="fill:#ff7f0e;stroke:#ff7f0e;" x="184.95" xlink:href="#mcd579d80bc" y="27.784868"/>
     <use style="fill:#ff7f0e;stroke:#ff7f0e;" x="194.25" xlink:href="#mcd579d80bc" y="26.469881"/>
     <use style="fill:#ff7f0e;stroke:#ff7f0e;" x="203.55" xlink:href="#mcd579d80bc" y="28.050284"/>
     <use style="fill:#ff7f0e;stroke:#ff7f0e;" x="212.85" xlink:href="#mcd579d80bc" y="12.230989"/>
     <use style="fill:#ff7f0e;stroke:#ff7f0e;" x="222.15" xlink:href="#mcd579d80bc" y="14.02906"/>
    </g>
   </g>
   <g id="patch_3">
    <path d="M 31.5 31.5 
L 31.5 4.32 
" style="fill:none;stroke:#000000;stroke-linecap:square;stroke-linejoin:miter;stroke-width:0.8;"/>
   </g>
   <g id="patch_4">
    <path d="M 226.8 31.5 
L 226.8 4.32 
" style="fill:none;stroke:#000000;stroke-linecap:square;stroke-linejoin:miter;stroke-width:0.8;"/>
   </g>
   <g id="patch_5">
    <path d="M 31.5 31.5 
L 226.8 31.5 
" style="fill:none;stroke:#000000;stroke-linecap:square;stroke-linejoin:miter;stroke-width:0.8;"/>
   </g>
   <g id="patch_6">
    <path d="M 31.5 4.32 
L 226.8 4.32 
" style="fill:none;stroke:#000000;stroke-linecap:square;stroke-linejoin:miter;stroke-width:0.8;"/>
   </g>
  </g>
 </g>
 <defs>
  <clipPath id="p69a9a677a7">
   <rect height="27.18" width="195.3" x="31.5" y="4.32"/>
  </clipPath>
 </defs>
</svg>
