<?xml version="1.0" encoding="utf-8" standalone="no"?>
<!DOCTYPE svg PUBLIC "-//W3C//DTD SVG 1.1//EN"
  "http://www.w3.org/Graphics/SVG/1.1/DTD/svg11.dtd">
<svg height="36pt" version="1.1" viewBox="0 0 252 36" width="252pt" xmlns="http://www.w3.org/2000/svg" xmlns:xlink="http://www.w3.org/1999/xlink">
 <metadata>
  <rdf:RDF xmlns:cc="http://creativecommons.org/ns#" xmlns:dc="http://purl.org/dc/elements/1.1/" xmlns:rdf="http://www.w3.org/1999/02/22-rdf-syntax-ns#">
   <cc:Work>
    <dc:type rdf:resource="http://purl.org/dc/dcmitype/StillImage"/>
    <dc:date>2021-07-30T12:11:46.462640</dc:date>
    <dc:format>image/svg+xml</dc:format>
    <dc:creator>
     <cc:Agent>
      <dc:title>Matplotlib v3.4.2, https://matplotlib.org/</dc:title>
     </cc:Agent>
    </dc:creator>
   </cc:Work>
  </rdf:RDF>
 </metadata>
 <defs>
  <style type="text/css">*{stroke-linecap:butt;stroke-linejoin:round;}</style>
 </defs>
 <g id="figure_1">
  <g id="patch_1">
   <path d="M 0 36 
L 252 36 
L 252 0 
L 0 0 
z
" style="fill:none;"/>
  </g>
  <g id="axes_1">
   <g id="patch_2">
    <path d="M 31.5 31.5 
L 226.8 31.5 
L 226.8 4.32 
L 31.5 4.32 
z
" style="fill:none;"/>
   </g>
   <g id="matplotlib.axis_1"/>
   <g id="matplotlib.axis_2">
    <g id="ytick_1">
     <g id="line2d_1">
      <defs>
       <path d="M 0 0 
L -3.5 0 
" id="mac20e68ac1" style="stroke:#000000;stroke-width:0.8;"/>
      </defs>
      <g>
       <use style="stroke:#000000;stroke-width:0.8;" x="31.5" xlink:href="#mac20e68ac1" y="28.935849"/>
      </g>
     </g>
     <g id="text_1">
      <!-- $\mathdefault{0}$ -->
      <g transform="translate(20.265817 31.70325)scale(0.08 -0.08)">
       <defs>
        <path d="M 2688 2025 
C 2688 2416 2682 3080 2413 3591 
C 2176 4039 1798 4198 1466 4198 
C 1158 4198 768 4058 525 3597 
C 269 3118 243 2524 243 2025 
C 243 1661 250 1106 448 619 
C 723 -39 1216 -128 1466 -128 
C 1760 -128 2208 -7 2470 600 
C 2662 1042 2688 1559 2688 2025 
z
M 1466 -26 
C 1056 -26 813 325 723 812 
C 653 1188 653 1738 653 2096 
C 653 2588 653 2997 736 3387 
C 858 3929 1216 4096 1466 4096 
C 1728 4096 2067 3923 2189 3400 
C 2272 3036 2278 2607 2278 2096 
C 2278 1680 2278 1169 2202 792 
C 2067 95 1690 -26 1466 -26 
z
" id="CMR17-30" transform="scale(0.015625)"/>
       </defs>
       <use transform="scale(0.996264)" xlink:href="#CMR17-30"/>
      </g>
     </g>
    </g>
    <g id="ytick_2">
     <g id="line2d_2">
      <g>
       <use style="stroke:#000000;stroke-width:0.8;" x="31.5" xlink:href="#mac20e68ac1" y="18.679245"/>
      </g>
     </g>
     <g id="text_2">
      <!-- $\mathdefault{2000}$ -->
      <g transform="translate(7.563269 21.446646)scale(0.08 -0.08)">
       <defs>
        <path d="M 2669 989 
L 2554 989 
C 2490 536 2438 459 2413 420 
C 2381 369 1920 369 1830 369 
L 602 369 
C 832 619 1280 1072 1824 1597 
C 2214 1967 2669 2402 2669 3035 
C 2669 3790 2067 4224 1395 4224 
C 691 4224 262 3604 262 3030 
C 262 2780 448 2748 525 2748 
C 589 2748 781 2787 781 3010 
C 781 3207 614 3264 525 3264 
C 486 3264 448 3258 422 3245 
C 544 3790 915 4058 1306 4058 
C 1862 4058 2227 3617 2227 3035 
C 2227 2479 1901 2000 1536 1584 
L 262 146 
L 262 0 
L 2515 0 
L 2669 989 
z
" id="CMR17-32" transform="scale(0.015625)"/>
       </defs>
       <use transform="scale(0.996264)" xlink:href="#CMR17-32"/>
       <use transform="translate(45.690477 0)scale(0.996264)" xlink:href="#CMR17-30"/>
       <use transform="translate(91.380954 0)scale(0.996264)" xlink:href="#CMR17-30"/>
       <use transform="translate(137.071431 0)scale(0.996264)" xlink:href="#CMR17-30"/>
      </g>
     </g>
    </g>
    <g id="ytick_3">
     <g id="line2d_3">
      <g>
       <use style="stroke:#000000;stroke-width:0.8;" x="31.5" xlink:href="#mac20e68ac1" y="8.422642"/>
      </g>
     </g>
     <g id="text_3">
      <!-- $\mathdefault{4000}$ -->
      <g transform="translate(7.563269 11.190042)scale(0.08 -0.08)">
       <defs>
        <path d="M 2150 4122 
C 2150 4256 2144 4256 2029 4256 
L 128 1254 
L 128 1088 
L 1779 1088 
L 1779 457 
C 1779 224 1766 160 1318 160 
L 1197 160 
L 1197 0 
C 1402 0 1747 0 1965 0 
C 2182 0 2528 0 2733 0 
L 2733 160 
L 2611 160 
C 2163 160 2150 224 2150 457 
L 2150 1088 
L 2803 1088 
L 2803 1254 
L 2150 1254 
L 2150 4122 
z
M 1798 3703 
L 1798 1254 
L 256 1254 
L 1798 3703 
z
" id="CMR17-34" transform="scale(0.015625)"/>
       </defs>
       <use transform="scale(0.996264)" xlink:href="#CMR17-34"/>
       <use transform="translate(45.690477 0)scale(0.996264)" xlink:href="#CMR17-30"/>
       <use transform="translate(91.380954 0)scale(0.996264)" xlink:href="#CMR17-30"/>
       <use transform="translate(137.071431 0)scale(0.996264)" xlink:href="#CMR17-30"/>
      </g>
     </g>
    </g>
    <g id="text_4">
     <!-- $h_{\mathsf{spot}(2)}$ -->
     <g transform="translate(0.330944 30.734277)rotate(-90)scale(0.08 -0.08)">
      <defs>
       <path d="M 1798 4257 
C 1805 4283 1818 4321 1818 4352 
C 1818 4416 1754 4416 1741 4416 
C 1734 4416 1421 4388 1389 4380 
C 1280 4373 1184 4358 1069 4358 
C 909 4345 864 4339 864 4224 
C 864 4160 915 4160 1005 4160 
C 1318 4160 1325 4103 1325 4040 
C 1325 4002 1312 3951 1306 3932 
L 378 248 
C 352 152 352 140 352 101 
C 352 -38 461 -64 525 -64 
C 634 -64 717 19 749 89 
L 1037 1245 
C 1069 1386 1107 1520 1139 1660 
C 1210 1929 1210 1935 1331 2120 
C 1453 2305 1741 2689 2234 2689 
C 2490 2689 2579 2497 2579 2242 
C 2579 1884 2330 1188 2189 805 
C 2131 651 2099 568 2099 453 
C 2099 166 2298 -64 2605 -64 
C 3200 -64 3424 875 3424 913 
C 3424 945 3398 971 3360 971 
C 3302 971 3296 952 3264 843 
C 3117 332 2880 64 2624 64 
C 2560 64 2458 64 2458 269 
C 2458 436 2534 640 2560 710 
C 2675 1018 2963 1773 2963 2145 
C 2963 2528 2739 2816 2253 2816 
C 1888 2816 1568 2644 1306 2312 
L 1798 4257 
z
" id="CMMI12-68" transform="scale(0.015625)"/>
       <path d="M 2061 2627 
C 1683 2807 1389 2807 1197 2807 
C 742 2807 198 2648 198 2003 
C 198 1359 902 1218 1094 1179 
C 1389 1122 1715 1058 1715 740 
C 1715 337 1254 337 1171 337 
C 915 337 563 407 243 638 
L 166 210 
C 531 0 883 -64 1178 -64 
C 1965 -64 2163 416 2163 781 
C 2163 1094 1984 1305 1862 1401 
C 1651 1568 1574 1587 1050 1696 
C 960 1709 646 1779 646 2066 
C 646 2432 1050 2432 1139 2432 
C 1555 2432 1811 2303 1984 2208 
L 2061 2627 
z
" id="CMSS17-73" transform="scale(0.015625)"/>
       <path d="M 966 333 
C 1178 129 1466 -5 1773 -5 
C 2368 -5 2880 603 2880 1412 
C 2880 2159 2496 2816 1946 2816 
C 1626 2816 1242 2702 954 2472 
L 954 2765 
L 480 2765 
L 480 -1216 
L 966 -1216 
L 966 333 
z
M 966 2100 
C 1018 2176 1235 2415 1587 2415 
C 2035 2415 2394 1960 2394 1412 
C 2394 787 1958 384 1530 384 
C 1402 384 1267 415 1139 523 
C 966 674 966 768 966 857 
L 966 2100 
z
" id="CMSS17-70" transform="scale(0.015625)"/>
       <path d="M 2829 1356 
C 2829 2176 2221 2816 1504 2816 
C 768 2816 173 2157 173 1356 
C 173 544 787 -64 1498 -64 
C 2227 -64 2829 563 2829 1356 
z
M 1504 337 
C 1050 337 659 709 659 1408 
C 659 2151 1114 2427 1498 2427 
C 1914 2427 2342 2126 2342 1408 
C 2342 683 1926 337 1504 337 
z
" id="CMSS17-6f" transform="scale(0.015625)"/>
       <path d="M 1069 2368 
L 1901 2368 
L 1901 2737 
L 1069 2737 
L 1069 3520 
L 614 3520 
L 614 2737 
L 109 2737 
L 109 2368 
L 602 2368 
L 602 749 
C 602 384 685 -64 1107 -64 
C 1427 -64 1722 25 2003 172 
L 1901 548 
C 1747 414 1562 337 1363 337 
C 1082 337 1069 696 1069 856 
L 1069 2368 
z
" id="CMSS17-74" transform="scale(0.015625)"/>
       <path d="M 1958 -1561 
C 1958 -1555 1958 -1542 1939 -1523 
C 1645 -1224 858 -407 858 1581 
C 858 3569 1632 4379 1946 4697 
C 1946 4704 1958 4717 1958 4736 
C 1958 4755 1939 4768 1914 4768 
C 1843 4768 1299 4296 986 3594 
C 666 2887 576 2199 576 1588 
C 576 1128 621 351 1005 -471 
C 1312 -1135 1837 -1600 1914 -1600 
C 1946 -1600 1958 -1587 1958 -1561 
z
" id="CMR17-28" transform="scale(0.015625)"/>
       <path d="M 1683 1581 
C 1683 2040 1638 2817 1254 3639 
C 947 4303 422 4768 346 4768 
C 326 4768 301 4761 301 4729 
C 301 4717 307 4710 314 4697 
C 621 4378 1402 3568 1402 1584 
C 1402 -407 627 -1217 314 -1537 
C 307 -1549 301 -1556 301 -1568 
C 301 -1600 326 -1600 346 -1600 
C 416 -1600 960 -1128 1274 -426 
C 1594 281 1683 969 1683 1581 
z
" id="CMR17-29" transform="scale(0.015625)"/>
      </defs>
      <use transform="scale(0.996264)" xlink:href="#CMMI12-68"/>
      <use transform="translate(56.154624 -17.925121)scale(0.697382)" xlink:href="#CMSS17-73"/>
      <use transform="translate(81.293994 -17.925121)scale(0.697382)" xlink:href="#CMSS17-70"/>
      <use transform="translate(116.859005 -17.925121)scale(0.697382)" xlink:href="#CMSS17-6f"/>
      <use transform="translate(149.649386 -17.925121)scale(0.697382)" xlink:href="#CMSS17-74"/>
      <use transform="translate(173.331376 -17.925121)scale(0.697382)" xlink:href="#CMR17-28"/>
      <use transform="translate(198.027797 -17.925121)scale(0.697382)" xlink:href="#CMR17-32"/>
      <use transform="translate(230.010979 -17.925121)scale(0.697382)" xlink:href="#CMR17-29"/>
     </g>
    </g>
   </g>
   <g id="LineCollection_1">
    <path clip-path="url(#pbe40fb1592)" d="M 64.05 23.039804 
L 64.05 17.347963 
" style="fill:none;stroke:#ff7f0e;stroke-width:1.5;"/>
    <path clip-path="url(#pbe40fb1592)" d="M 82.65 23.566408 
L 82.65 17.286771 
" style="fill:none;stroke:#ff7f0e;stroke-width:1.5;"/>
    <path clip-path="url(#pbe40fb1592)" d="M 101.25 23.721525 
L 101.25 18.861323 
" style="fill:none;stroke:#ff7f0e;stroke-width:1.5;"/>
    <path clip-path="url(#pbe40fb1592)" d="M 110.55 22.755303 
L 110.55 19.123534 
" style="fill:none;stroke:#ff7f0e;stroke-width:1.5;"/>
    <path clip-path="url(#pbe40fb1592)" d="M 129.15 23.411258 
L 129.15 19.298578 
" style="fill:none;stroke:#ff7f0e;stroke-width:1.5;"/>
    <path clip-path="url(#pbe40fb1592)" d="M 138.45 15.508943 
L 138.45 8.088392 
" style="fill:none;stroke:#ff7f0e;stroke-width:1.5;"/>
    <path clip-path="url(#pbe40fb1592)" d="M 147.75 20.838901 
L 147.75 15.557272 
" style="fill:none;stroke:#ff7f0e;stroke-width:1.5;"/>
    <path clip-path="url(#pbe40fb1592)" d="M 157.05 19.964234 
L 157.05 14.504192 
" style="fill:none;stroke:#ff7f0e;stroke-width:1.5;"/>
    <path clip-path="url(#pbe40fb1592)" d="M 166.35 22.258314 
L 166.35 18.213195 
" style="fill:none;stroke:#ff7f0e;stroke-width:1.5;"/>
    <path clip-path="url(#pbe40fb1592)" d="M 175.65 23.079283 
L 175.65 19.064134 
" style="fill:none;stroke:#ff7f0e;stroke-width:1.5;"/>
    <path clip-path="url(#pbe40fb1592)" d="M 184.95 25.114859 
L 184.95 20.294597 
" style="fill:none;stroke:#ff7f0e;stroke-width:1.5;"/>
    <path clip-path="url(#pbe40fb1592)" d="M 194.25 21.816025 
L 194.25 16.83856 
" style="fill:none;stroke:#ff7f0e;stroke-width:1.5;"/>
    <path clip-path="url(#pbe40fb1592)" d="M 203.55 23.813254 
L 203.55 19.673967 
" style="fill:none;stroke:#ff7f0e;stroke-width:1.5;"/>
    <path clip-path="url(#pbe40fb1592)" d="M 212.85 23.365935 
L 212.85 18.924001 
" style="fill:none;stroke:#ff7f0e;stroke-width:1.5;"/>
   </g>
   <g id="line2d_4">
    <defs>
     <path d="M 2 0 
L -2 -0 
" id="md8b10faf95" style="stroke:#ff7f0e;"/>
    </defs>
    <g clip-path="url(#pbe40fb1592)">
     <use style="fill:#ff7f0e;stroke:#ff7f0e;" x="64.05" xlink:href="#md8b10faf95" y="23.039804"/>
     <use style="fill:#ff7f0e;stroke:#ff7f0e;" x="82.65" xlink:href="#md8b10faf95" y="23.566408"/>
     <use style="fill:#ff7f0e;stroke:#ff7f0e;" x="101.25" xlink:href="#md8b10faf95" y="23.721525"/>
     <use style="fill:#ff7f0e;stroke:#ff7f0e;" x="110.55" xlink:href="#md8b10faf95" y="22.755303"/>
     <use style="fill:#ff7f0e;stroke:#ff7f0e;" x="129.15" xlink:href="#md8b10faf95" y="23.411258"/>
     <use style="fill:#ff7f0e;stroke:#ff7f0e;" x="138.45" xlink:href="#md8b10faf95" y="15.508943"/>
     <use style="fill:#ff7f0e;stroke:#ff7f0e;" x="147.75" xlink:href="#md8b10faf95" y="20.838901"/>
     <use style="fill:#ff7f0e;stroke:#ff7f0e;" x="157.05" xlink:href="#md8b10faf95" y="19.964234"/>
     <use style="fill:#ff7f0e;stroke:#ff7f0e;" x="166.35" xlink:href="#md8b10faf95" y="22.258314"/>
     <use style="fill:#ff7f0e;stroke:#ff7f0e;" x="175.65" xlink:href="#md8b10faf95" y="23.079283"/>
     <use style="fill:#ff7f0e;stroke:#ff7f0e;" x="184.95" xlink:href="#md8b10faf95" y="25.114859"/>
     <use style="fill:#ff7f0e;stroke:#ff7f0e;" x="194.25" xlink:href="#md8b10faf95" y="21.816025"/>
     <use style="fill:#ff7f0e;stroke:#ff7f0e;" x="203.55" xlink:href="#md8b10faf95" y="23.813254"/>
     <use style="fill:#ff7f0e;stroke:#ff7f0e;" x="212.85" xlink:href="#md8b10faf95" y="23.365935"/>
    </g>
   </g>
   <g id="line2d_5">
    <g clip-path="url(#pbe40fb1592)">
     <use style="fill:#ff7f0e;stroke:#ff7f0e;" x="64.05" xlink:href="#md8b10faf95" y="17.347963"/>
     <use style="fill:#ff7f0e;stroke:#ff7f0e;" x="82.65" xlink:href="#md8b10faf95" y="17.286771"/>
     <use style="fill:#ff7f0e;stroke:#ff7f0e;" x="101.25" xlink:href="#md8b10faf95" y="18.861323"/>
     <use style="fill:#ff7f0e;stroke:#ff7f0e;" x="110.55" xlink:href="#md8b10faf95" y="19.123534"/>
     <use style="fill:#ff7f0e;stroke:#ff7f0e;" x="129.15" xlink:href="#md8b10faf95" y="19.298578"/>
     <use style="fill:#ff7f0e;stroke:#ff7f0e;" x="138.45" xlink:href="#md8b10faf95" y="8.088392"/>
     <use style="fill:#ff7f0e;stroke:#ff7f0e;" x="147.75" xlink:href="#md8b10faf95" y="15.557272"/>
     <use style="fill:#ff7f0e;stroke:#ff7f0e;" x="157.05" xlink:href="#md8b10faf95" y="14.504192"/>
     <use style="fill:#ff7f0e;stroke:#ff7f0e;" x="166.35" xlink:href="#md8b10faf95" y="18.213195"/>
     <use style="fill:#ff7f0e;stroke:#ff7f0e;" x="175.65" xlink:href="#md8b10faf95" y="19.064134"/>
     <use style="fill:#ff7f0e;stroke:#ff7f0e;" x="184.95" xlink:href="#md8b10faf95" y="20.294597"/>
     <use style="fill:#ff7f0e;stroke:#ff7f0e;" x="194.25" xlink:href="#md8b10faf95" y="16.83856"/>
     <use style="fill:#ff7f0e;stroke:#ff7f0e;" x="203.55" xlink:href="#md8b10faf95" y="19.673967"/>
     <use style="fill:#ff7f0e;stroke:#ff7f0e;" x="212.85" xlink:href="#md8b10faf95" y="18.924001"/>
    </g>
   </g>
   <g id="line2d_6">
    <defs>
     <path d="M 0 1 
C 0.265203 1 0.51958 0.894634 0.707107 0.707107 
C 0.894634 0.51958 1 0.265203 1 0 
C 1 -0.265203 0.894634 -0.51958 0.707107 -0.707107 
C 0.51958 -0.894634 0.265203 -1 0 -1 
C -0.265203 -1 -0.51958 -0.894634 -0.707107 -0.707107 
C -0.894634 -0.51958 -1 -0.265203 -1 0 
C -1 0.265203 -0.894634 0.51958 -0.707107 0.707107 
C -0.51958 0.894634 -0.265203 1 0 1 
z
" id="m867764309e" style="stroke:#ff7f0e;"/>
    </defs>
    <g clip-path="url(#pbe40fb1592)">
     <use style="fill:#ff7f0e;stroke:#ff7f0e;" x="64.05" xlink:href="#m867764309e" y="20.49959"/>
     <use style="fill:#ff7f0e;stroke:#ff7f0e;" x="82.65" xlink:href="#m867764309e" y="20.625852"/>
     <use style="fill:#ff7f0e;stroke:#ff7f0e;" x="101.25" xlink:href="#m867764309e" y="21.53538"/>
     <use style="fill:#ff7f0e;stroke:#ff7f0e;" x="110.55" xlink:href="#m867764309e" y="21.016061"/>
     <use style="fill:#ff7f0e;stroke:#ff7f0e;" x="129.15" xlink:href="#m867764309e" y="21.656079"/>
     <use style="fill:#ff7f0e;stroke:#ff7f0e;" x="138.45" xlink:href="#m867764309e" y="12.075098"/>
     <use style="fill:#ff7f0e;stroke:#ff7f0e;" x="147.75" xlink:href="#m867764309e" y="18.122454"/>
     <use style="fill:#ff7f0e;stroke:#ff7f0e;" x="157.05" xlink:href="#m867764309e" y="17.359664"/>
     <use style="fill:#ff7f0e;stroke:#ff7f0e;" x="166.35" xlink:href="#m867764309e" y="20.345766"/>
     <use style="fill:#ff7f0e;stroke:#ff7f0e;" x="175.65" xlink:href="#m867764309e" y="21.217969"/>
     <use style="fill:#ff7f0e;stroke:#ff7f0e;" x="184.95" xlink:href="#m867764309e" y="23.028965"/>
     <use style="fill:#ff7f0e;stroke:#ff7f0e;" x="194.25" xlink:href="#m867764309e" y="19.531388"/>
     <use style="fill:#ff7f0e;stroke:#ff7f0e;" x="203.55" xlink:href="#m867764309e" y="21.860217"/>
     <use style="fill:#ff7f0e;stroke:#ff7f0e;" x="212.85" xlink:href="#m867764309e" y="21.279539"/>
    </g>
   </g>
   <g id="patch_3">
    <path d="M 31.5 31.5 
L 31.5 4.32 
" style="fill:none;stroke:#000000;stroke-linecap:square;stroke-linejoin:miter;stroke-width:0.8;"/>
   </g>
   <g id="patch_4">
    <path d="M 226.8 31.5 
L 226.8 4.32 
" style="fill:none;stroke:#000000;stroke-linecap:square;stroke-linejoin:miter;stroke-width:0.8;"/>
   </g>
   <g id="patch_5">
    <path d="M 31.5 31.5 
L 226.8 31.5 
" style="fill:none;stroke:#000000;stroke-linecap:square;stroke-linejoin:miter;stroke-width:0.8;"/>
   </g>
   <g id="patch_6">
    <path d="M 31.5 4.32 
L 226.8 4.32 
" style="fill:none;stroke:#000000;stroke-linecap:square;stroke-linejoin:miter;stroke-width:0.8;"/>
   </g>
  </g>
 </g>
 <defs>
  <clipPath id="pbe40fb1592">
   <rect height="27.18" width="195.3" x="31.5" y="4.32"/>
  </clipPath>
 </defs>
</svg>
