<?xml version="1.0" encoding="utf-8" standalone="no"?>
<!DOCTYPE svg PUBLIC "-//W3C//DTD SVG 1.1//EN"
  "http://www.w3.org/Graphics/SVG/1.1/DTD/svg11.dtd">
<svg height="36pt" version="1.1" viewBox="0 0 252 36" width="252pt" xmlns="http://www.w3.org/2000/svg" xmlns:xlink="http://www.w3.org/1999/xlink">
 <metadata>
  <rdf:RDF xmlns:cc="http://creativecommons.org/ns#" xmlns:dc="http://purl.org/dc/elements/1.1/" xmlns:rdf="http://www.w3.org/1999/02/22-rdf-syntax-ns#">
   <cc:Work>
    <dc:type rdf:resource="http://purl.org/dc/dcmitype/StillImage"/>
    <dc:date>2021-07-21T21:36:54.036217</dc:date>
    <dc:format>image/svg+xml</dc:format>
    <dc:creator>
     <cc:Agent>
      <dc:title>Matplotlib v3.4.2, https://matplotlib.org/</dc:title>
     </cc:Agent>
    </dc:creator>
   </cc:Work>
  </rdf:RDF>
 </metadata>
 <defs>
  <style type="text/css">*{stroke-linecap:butt;stroke-linejoin:round;}</style>
 </defs>
 <g id="figure_1">
  <g id="patch_1">
   <path d="M 0 36 
L 252 36 
L 252 0 
L 0 0 
z
" style="fill:none;"/>
  </g>
  <g id="axes_1">
   <g id="patch_2">
    <path d="M 31.5 31.5 
L 226.8 31.5 
L 226.8 4.32 
L 31.5 4.32 
z
" style="fill:#ffffff;"/>
   </g>
   <g id="PolyCollection_1">
    <defs>
     <path d="M 36.15 -30.366539 
L 36.15 -9.894483 
L 45.45 -15.733877 
L 54.75 -8.194915 
L 64.05 -6.722895 
L 73.35 -15.903124 
L 82.65 -19.076915 
L 91.95 -16.787009 
L 101.25 -8.261325 
L 110.55 -21.993183 
L 119.85 -16.03261 
L 129.15 -15.620518 
L 138.45 -15.427278 
L 147.75 -16.072582 
L 157.05 -10.569218 
L 166.35 -9.002238 
L 175.65 -9.642139 
L 184.95 -15.303365 
L 194.25 -9.491564 
L 203.55 -16.438608 
L 212.85 -5.735455 
L 222.15 -9.533139 
L 222.15 -10.838952 
L 222.15 -10.838952 
L 212.85 -11.559393 
L 203.55 -18.598807 
L 194.25 -11.1906 
L 184.95 -17.268744 
L 175.65 -11.047982 
L 166.35 -10.98576 
L 157.05 -12.068814 
L 147.75 -17.53553 
L 138.45 -17.126507 
L 129.15 -17.712655 
L 119.85 -17.679773 
L 110.55 -27.696027 
L 101.25 -30.139169 
L 91.95 -18.704766 
L 82.65 -30.43659 
L 73.35 -17.645138 
L 64.05 -30.444545 
L 54.75 -30.244562 
L 45.45 -19.717179 
L 36.15 -30.366539 
z
" id="m0dc48e2a9e" style="stroke:#1f77b4;stroke-opacity:0.15;"/>
    </defs>
    <g clip-path="url(#p588b30bc01)">
     <use style="fill:#1f77b4;fill-opacity:0.15;stroke:#1f77b4;stroke-opacity:0.15;" x="0" xlink:href="#m0dc48e2a9e" y="36"/>
    </g>
   </g>
   <g id="PolyCollection_2">
    <defs>
     <path d="M 36.15 -19.241775 
L 36.15 -16.136754 
L 45.45 -17.651397 
L 54.75 -7.124828 
L 64.05 -16.381704 
L 73.35 -25.147797 
L 82.65 -16.292816 
L 91.95 -21.128635 
L 101.25 -16.598531 
L 110.55 -16.194596 
L 119.85 -24.597498 
L 129.15 -9.862001 
L 138.45 -8.45987 
L 147.75 -9.708931 
L 157.05 -16.804382 
L 166.35 -16.156678 
L 175.65 -16.250434 
L 184.95 -10.715491 
L 194.25 -15.744606 
L 203.55 -10.061263 
L 212.85 -9.555884 
L 222.15 -6.403045 
L 222.15 -30.315734 
L 222.15 -30.315734 
L 212.85 -11.344478 
L 203.55 -11.12342 
L 194.25 -17.085799 
L 184.95 -12.87869 
L 175.65 -17.775159 
L 166.35 -17.390573 
L 157.05 -17.841836 
L 147.75 -11.149682 
L 138.45 -10.157911 
L 129.15 -11.164915 
L 119.85 -30.324216 
L 110.55 -17.241138 
L 101.25 -18.345961 
L 91.95 -25.749764 
L 82.65 -18.016587 
L 73.35 -29.350516 
L 64.05 -18.355791 
L 54.75 -30.226841 
L 45.45 -24.700905 
L 36.15 -19.241775 
z
" id="mefd1cd593f" style="stroke:#ff7f0e;stroke-opacity:0.15;"/>
    </defs>
    <g clip-path="url(#p588b30bc01)">
     <use style="fill:#ff7f0e;fill-opacity:0.15;stroke:#ff7f0e;stroke-opacity:0.15;" x="0" xlink:href="#mefd1cd593f" y="36"/>
    </g>
   </g>
   <g id="matplotlib.axis_1"/>
   <g id="matplotlib.axis_2">
    <g id="ytick_1">
     <g id="line2d_1">
      <defs>
       <path d="M 0 0 
L -3.5 0 
" id="m3614c9354b" style="stroke:#000000;stroke-width:0.8;"/>
      </defs>
      <g>
       <use style="stroke:#000000;stroke-width:0.8;" x="31.5" xlink:href="#m3614c9354b" y="28.48781"/>
      </g>
     </g>
     <g id="text_1">
      <!-- −6 -->
      <g transform="translate(12.70625 31.527185)scale(0.08 -0.08)">
       <defs>
        <path d="M 678 2272 
L 4684 2272 
L 4684 1741 
L 678 1741 
L 678 2272 
z
" id="DejaVuSans-2212" transform="scale(0.015625)"/>
        <path d="M 2113 2584 
Q 1688 2584 1439 2293 
Q 1191 2003 1191 1497 
Q 1191 994 1439 701 
Q 1688 409 2113 409 
Q 2538 409 2786 701 
Q 3034 994 3034 1497 
Q 3034 2003 2786 2293 
Q 2538 2584 2113 2584 
z
M 3366 4563 
L 3366 3988 
Q 3128 4100 2886 4159 
Q 2644 4219 2406 4219 
Q 1781 4219 1451 3797 
Q 1122 3375 1075 2522 
Q 1259 2794 1537 2939 
Q 1816 3084 2150 3084 
Q 2853 3084 3261 2657 
Q 3669 2231 3669 1497 
Q 3669 778 3244 343 
Q 2819 -91 2113 -91 
Q 1303 -91 875 529 
Q 447 1150 447 2328 
Q 447 3434 972 4092 
Q 1497 4750 2381 4750 
Q 2619 4750 2861 4703 
Q 3103 4656 3366 4563 
z
" id="DejaVuSans-36" transform="scale(0.015625)"/>
       </defs>
       <use xlink:href="#DejaVuSans-2212"/>
       <use x="83.789062" xlink:href="#DejaVuSans-36"/>
      </g>
     </g>
    </g>
    <g id="ytick_2">
     <g id="line2d_2">
      <g>
       <use style="stroke:#000000;stroke-width:0.8;" x="31.5" xlink:href="#m3614c9354b" y="18.208789"/>
      </g>
     </g>
     <g id="text_2">
      <!-- 0 -->
      <g transform="translate(19.41 21.248164)scale(0.08 -0.08)">
       <defs>
        <path d="M 2034 4250 
Q 1547 4250 1301 3770 
Q 1056 3291 1056 2328 
Q 1056 1369 1301 889 
Q 1547 409 2034 409 
Q 2525 409 2770 889 
Q 3016 1369 3016 2328 
Q 3016 3291 2770 3770 
Q 2525 4250 2034 4250 
z
M 2034 4750 
Q 2819 4750 3233 4129 
Q 3647 3509 3647 2328 
Q 3647 1150 3233 529 
Q 2819 -91 2034 -91 
Q 1250 -91 836 529 
Q 422 1150 422 2328 
Q 422 3509 836 4129 
Q 1250 4750 2034 4750 
z
" id="DejaVuSans-30" transform="scale(0.015625)"/>
       </defs>
       <use xlink:href="#DejaVuSans-30"/>
      </g>
     </g>
    </g>
    <g id="ytick_3">
     <g id="line2d_3">
      <g>
       <use style="stroke:#000000;stroke-width:0.8;" x="31.5" xlink:href="#m3614c9354b" y="7.929768"/>
      </g>
     </g>
     <g id="text_3">
      <!-- 6 -->
      <g transform="translate(19.41 10.969143)scale(0.08 -0.08)">
       <use xlink:href="#DejaVuSans-36"/>
      </g>
     </g>
    </g>
    <g id="text_4">
     <!-- $y$ -->
     <g transform="translate(7.02625 20.31)rotate(-90)scale(0.08 -0.08)">
      <defs>
       <path d="M 1588 -325 
Q 1188 -997 936 -1164 
Q 684 -1331 294 -1331 
L -159 -1331 
L -63 -850 
L 269 -850 
Q 509 -850 678 -719 
Q 847 -588 1056 -206 
L 1234 128 
L 459 3500 
L 1069 3500 
L 1650 819 
L 3256 3500 
L 3859 3500 
L 1588 -325 
z
" id="DejaVuSans-Oblique-79" transform="scale(0.015625)"/>
      </defs>
      <use transform="translate(0 0.3125)" xlink:href="#DejaVuSans-Oblique-79"/>
     </g>
    </g>
   </g>
   <g id="line2d_4">
    <path clip-path="url(#p588b30bc01)" d="M 36.15 13.375276 
L 45.45 18.307637 
L 54.75 14.146364 
L 64.05 16.067623 
L 73.35 19.201867 
L 82.65 9.299106 
L 91.95 18.214329 
L 101.25 14.288363 
L 110.55 10.852067 
L 119.85 19.092842 
L 129.15 19.347282 
L 138.45 19.723046 
L 147.75 19.232632 
L 157.05 24.718214 
L 166.35 26.016496 
L 175.65 25.630823 
L 184.95 19.691302 
L 194.25 25.671252 
L 203.55 18.565625 
L 212.85 28.01266 
L 222.15 25.872203 
" style="fill:none;stroke:#1f77b4;stroke-linecap:square;stroke-width:0.7;"/>
    <defs>
     <path d="M 0 1 
C 0.265203 1 0.51958 0.894634 0.707107 0.707107 
C 0.894634 0.51958 1 0.265203 1 0 
C 1 -0.265203 0.894634 -0.51958 0.707107 -0.707107 
C 0.51958 -0.894634 0.265203 -1 0 -1 
C -0.265203 -1 -0.51958 -0.894634 -0.707107 -0.707107 
C -0.894634 -0.51958 -1 -0.265203 -1 0 
C -1 0.265203 -0.894634 0.51958 -0.707107 0.707107 
C -0.51958 0.894634 -0.265203 1 0 1 
z
" id="m80478eaae0" style="stroke:#1f77b4;"/>
    </defs>
    <g clip-path="url(#p588b30bc01)">
     <use style="fill:#1f77b4;stroke:#1f77b4;" x="36.15" xlink:href="#m80478eaae0" y="13.375276"/>
     <use style="fill:#1f77b4;stroke:#1f77b4;" x="45.45" xlink:href="#m80478eaae0" y="18.307637"/>
     <use style="fill:#1f77b4;stroke:#1f77b4;" x="54.75" xlink:href="#m80478eaae0" y="14.146364"/>
     <use style="fill:#1f77b4;stroke:#1f77b4;" x="64.05" xlink:href="#m80478eaae0" y="16.067623"/>
     <use style="fill:#1f77b4;stroke:#1f77b4;" x="73.35" xlink:href="#m80478eaae0" y="19.201867"/>
     <use style="fill:#1f77b4;stroke:#1f77b4;" x="82.65" xlink:href="#m80478eaae0" y="9.299106"/>
     <use style="fill:#1f77b4;stroke:#1f77b4;" x="91.95" xlink:href="#m80478eaae0" y="18.214329"/>
     <use style="fill:#1f77b4;stroke:#1f77b4;" x="101.25" xlink:href="#m80478eaae0" y="14.288363"/>
     <use style="fill:#1f77b4;stroke:#1f77b4;" x="110.55" xlink:href="#m80478eaae0" y="10.852067"/>
     <use style="fill:#1f77b4;stroke:#1f77b4;" x="119.85" xlink:href="#m80478eaae0" y="19.092842"/>
     <use style="fill:#1f77b4;stroke:#1f77b4;" x="129.15" xlink:href="#m80478eaae0" y="19.347282"/>
     <use style="fill:#1f77b4;stroke:#1f77b4;" x="138.45" xlink:href="#m80478eaae0" y="19.723046"/>
     <use style="fill:#1f77b4;stroke:#1f77b4;" x="147.75" xlink:href="#m80478eaae0" y="19.232632"/>
     <use style="fill:#1f77b4;stroke:#1f77b4;" x="157.05" xlink:href="#m80478eaae0" y="24.718214"/>
     <use style="fill:#1f77b4;stroke:#1f77b4;" x="166.35" xlink:href="#m80478eaae0" y="26.016496"/>
     <use style="fill:#1f77b4;stroke:#1f77b4;" x="175.65" xlink:href="#m80478eaae0" y="25.630823"/>
     <use style="fill:#1f77b4;stroke:#1f77b4;" x="184.95" xlink:href="#m80478eaae0" y="19.691302"/>
     <use style="fill:#1f77b4;stroke:#1f77b4;" x="194.25" xlink:href="#m80478eaae0" y="25.671252"/>
     <use style="fill:#1f77b4;stroke:#1f77b4;" x="203.55" xlink:href="#m80478eaae0" y="18.565625"/>
     <use style="fill:#1f77b4;stroke:#1f77b4;" x="212.85" xlink:href="#m80478eaae0" y="28.01266"/>
     <use style="fill:#1f77b4;stroke:#1f77b4;" x="222.15" xlink:href="#m80478eaae0" y="25.872203"/>
    </g>
   </g>
   <g id="line2d_5">
    <path clip-path="url(#p588b30bc01)" d="M 36.15 18.448838 
L 45.45 14.489189 
L 54.75 15.611181 
L 64.05 18.6616 
L 73.35 8.45178 
L 82.65 18.9528 
L 91.95 12.367017 
L 101.25 18.535083 
L 110.55 19.286779 
L 119.85 7.567859 
L 129.15 25.487093 
L 138.45 26.718296 
L 147.75 25.557759 
L 157.05 18.653716 
L 166.35 19.242461 
L 175.65 19.054639 
L 184.95 24.158437 
L 194.25 19.625146 
L 203.55 25.413003 
L 212.85 25.509135 
L 222.15 16.418262 
" style="fill:none;stroke:#ff7f0e;stroke-linecap:square;stroke-width:0.7;"/>
    <defs>
     <path d="M 0 1 
C 0.265203 1 0.51958 0.894634 0.707107 0.707107 
C 0.894634 0.51958 1 0.265203 1 0 
C 1 -0.265203 0.894634 -0.51958 0.707107 -0.707107 
C 0.51958 -0.894634 0.265203 -1 0 -1 
C -0.265203 -1 -0.51958 -0.894634 -0.707107 -0.707107 
C -0.894634 -0.51958 -1 -0.265203 -1 0 
C -1 0.265203 -0.894634 0.51958 -0.707107 0.707107 
C -0.51958 0.894634 -0.265203 1 0 1 
z
" id="m801a4a591a" style="stroke:#ff7f0e;"/>
    </defs>
    <g clip-path="url(#p588b30bc01)">
     <use style="fill:#ff7f0e;stroke:#ff7f0e;" x="36.15" xlink:href="#m801a4a591a" y="18.448838"/>
     <use style="fill:#ff7f0e;stroke:#ff7f0e;" x="45.45" xlink:href="#m801a4a591a" y="14.489189"/>
     <use style="fill:#ff7f0e;stroke:#ff7f0e;" x="54.75" xlink:href="#m801a4a591a" y="15.611181"/>
     <use style="fill:#ff7f0e;stroke:#ff7f0e;" x="64.05" xlink:href="#m801a4a591a" y="18.6616"/>
     <use style="fill:#ff7f0e;stroke:#ff7f0e;" x="73.35" xlink:href="#m801a4a591a" y="8.45178"/>
     <use style="fill:#ff7f0e;stroke:#ff7f0e;" x="82.65" xlink:href="#m801a4a591a" y="18.9528"/>
     <use style="fill:#ff7f0e;stroke:#ff7f0e;" x="91.95" xlink:href="#m801a4a591a" y="12.367017"/>
     <use style="fill:#ff7f0e;stroke:#ff7f0e;" x="101.25" xlink:href="#m801a4a591a" y="18.535083"/>
     <use style="fill:#ff7f0e;stroke:#ff7f0e;" x="110.55" xlink:href="#m801a4a591a" y="19.286779"/>
     <use style="fill:#ff7f0e;stroke:#ff7f0e;" x="119.85" xlink:href="#m801a4a591a" y="7.567859"/>
     <use style="fill:#ff7f0e;stroke:#ff7f0e;" x="129.15" xlink:href="#m801a4a591a" y="25.487093"/>
     <use style="fill:#ff7f0e;stroke:#ff7f0e;" x="138.45" xlink:href="#m801a4a591a" y="26.718296"/>
     <use style="fill:#ff7f0e;stroke:#ff7f0e;" x="147.75" xlink:href="#m801a4a591a" y="25.557759"/>
     <use style="fill:#ff7f0e;stroke:#ff7f0e;" x="157.05" xlink:href="#m801a4a591a" y="18.653716"/>
     <use style="fill:#ff7f0e;stroke:#ff7f0e;" x="166.35" xlink:href="#m801a4a591a" y="19.242461"/>
     <use style="fill:#ff7f0e;stroke:#ff7f0e;" x="175.65" xlink:href="#m801a4a591a" y="19.054639"/>
     <use style="fill:#ff7f0e;stroke:#ff7f0e;" x="184.95" xlink:href="#m801a4a591a" y="24.158437"/>
     <use style="fill:#ff7f0e;stroke:#ff7f0e;" x="194.25" xlink:href="#m801a4a591a" y="19.625146"/>
     <use style="fill:#ff7f0e;stroke:#ff7f0e;" x="203.55" xlink:href="#m801a4a591a" y="25.413003"/>
     <use style="fill:#ff7f0e;stroke:#ff7f0e;" x="212.85" xlink:href="#m801a4a591a" y="25.509135"/>
     <use style="fill:#ff7f0e;stroke:#ff7f0e;" x="222.15" xlink:href="#m801a4a591a" y="16.418262"/>
    </g>
   </g>
   <g id="patch_3">
    <path d="M 31.5 31.5 
L 31.5 4.32 
" style="fill:none;stroke:#000000;stroke-linecap:square;stroke-linejoin:miter;stroke-width:0.8;"/>
   </g>
   <g id="patch_4">
    <path d="M 226.8 31.5 
L 226.8 4.32 
" style="fill:none;stroke:#000000;stroke-linecap:square;stroke-linejoin:miter;stroke-width:0.8;"/>
   </g>
   <g id="patch_5">
    <path d="M 31.5 31.5 
L 226.8 31.5 
" style="fill:none;stroke:#000000;stroke-linecap:square;stroke-linejoin:miter;stroke-width:0.8;"/>
   </g>
   <g id="patch_6">
    <path d="M 31.5 4.32 
L 226.8 4.32 
" style="fill:none;stroke:#000000;stroke-linecap:square;stroke-linejoin:miter;stroke-width:0.8;"/>
   </g>
  </g>
 </g>
 <defs>
  <clipPath id="p588b30bc01">
   <rect height="27.18" width="195.3" x="31.5" y="4.32"/>
  </clipPath>
 </defs>
</svg>
