<?xml version="1.0" encoding="utf-8" standalone="no"?>
<!DOCTYPE svg PUBLIC "-//W3C//DTD SVG 1.1//EN"
  "http://www.w3.org/Graphics/SVG/1.1/DTD/svg11.dtd">
<svg height="36pt" version="1.1" viewBox="0 0 252 36" width="252pt" xmlns="http://www.w3.org/2000/svg" xmlns:xlink="http://www.w3.org/1999/xlink">
 <metadata>
  <rdf:RDF xmlns:cc="http://creativecommons.org/ns#" xmlns:dc="http://purl.org/dc/elements/1.1/" xmlns:rdf="http://www.w3.org/1999/02/22-rdf-syntax-ns#">
   <cc:Work>
    <dc:type rdf:resource="http://purl.org/dc/dcmitype/StillImage"/>
    <dc:date>2021-07-21T21:36:53.969825</dc:date>
    <dc:format>image/svg+xml</dc:format>
    <dc:creator>
     <cc:Agent>
      <dc:title>Matplotlib v3.4.2, https://matplotlib.org/</dc:title>
     </cc:Agent>
    </dc:creator>
   </cc:Work>
  </rdf:RDF>
 </metadata>
 <defs>
  <style type="text/css">*{stroke-linecap:butt;stroke-linejoin:round;}</style>
 </defs>
 <g id="figure_1">
  <g id="patch_1">
   <path d="M 0 36 
L 252 36 
L 252 0 
L 0 0 
z
" style="fill:none;"/>
  </g>
  <g id="axes_1">
   <g id="patch_2">
    <path d="M 31.5 31.5 
L 226.8 31.5 
L 226.8 4.32 
L 31.5 4.32 
z
" style="fill:#ffffff;"/>
   </g>
   <g id="PolyCollection_1">
    <defs>
     <path d="M 36.15 -29.738414 
L 36.15 -9.460543 
L 45.45 -15.760883 
L 54.75 -6.481315 
L 64.05 -5.735455 
L 73.35 -16.515533 
L 82.65 -18.327313 
L 91.95 -15.026477 
L 101.25 -6.869641 
L 110.55 -10.131 
L 119.85 -16.315037 
L 129.15 -15.505 
L 138.45 -16.078781 
L 147.75 -16.499079 
L 157.05 -22.108948 
L 166.35 -19.742756 
L 175.65 -21.247328 
L 184.95 -15.768823 
L 194.25 -21.097767 
L 203.55 -15.655004 
L 212.85 -7.581894 
L 222.15 -22.070181 
L 222.15 -23.498728 
L 222.15 -23.498728 
L 212.85 -14.585184 
L 203.55 -17.620775 
L 194.25 -22.992221 
L 184.95 -17.889983 
L 175.65 -22.999662 
L 166.35 -21.992486 
L 157.05 -23.744577 
L 147.75 -18.03571 
L 138.45 -17.704084 
L 129.15 -17.530612 
L 119.85 -17.955141 
L 110.55 -16.171491 
L 101.25 -29.931828 
L 91.95 -16.82491 
L 82.65 -30.149103 
L 73.35 -18.075002 
L 64.05 -29.562233 
L 54.75 -28.277655 
L 45.45 -19.670189 
L 36.15 -29.738414 
z
" id="mbb8f38d6c7" style="stroke:#1f77b4;stroke-opacity:0.15;"/>
    </defs>
    <g clip-path="url(#pc52d0873c4)">
     <use style="fill:#1f77b4;fill-opacity:0.15;stroke:#1f77b4;stroke-opacity:0.15;" x="0" xlink:href="#mbb8f38d6c7" y="36"/>
    </g>
   </g>
   <g id="PolyCollection_2">
    <defs>
     <path d="M 36.15 -18.498164 
L 36.15 -15.36928 
L 45.45 -6.765838 
L 54.75 -5.963909 
L 64.05 -15.962795 
L 73.35 -22.745036 
L 82.65 -15.623363 
L 91.95 -8.182151 
L 101.25 -16.413453 
L 110.55 -16.5459 
L 119.85 -22.944946 
L 129.15 -22.60575 
L 138.45 -22.837424 
L 147.75 -22.602074 
L 157.05 -16.714028 
L 166.35 -15.869683 
L 175.65 -15.17302 
L 184.95 -21.850365 
L 194.25 -15.330582 
L 203.55 -22.411446 
L 212.85 -22.086551 
L 222.15 -6.628534 
L 222.15 -30.444545 
L 222.15 -30.444545 
L 212.85 -24.085032 
L 203.55 -23.57947 
L 194.25 -16.770432 
L 184.95 -23.97988 
L 175.65 -16.606114 
L 166.35 -17.014591 
L 157.05 -17.859734 
L 147.75 -24.214479 
L 138.45 -24.989487 
L 129.15 -23.980294 
L 119.85 -29.596248 
L 110.55 -17.618362 
L 101.25 -18.1431 
L 91.95 -12.219878 
L 82.65 -17.168474 
L 73.35 -27.86082 
L 64.05 -17.895969 
L 54.75 -28.016683 
L 45.45 -11.471911 
L 36.15 -18.498164 
z
" id="med831c2854" style="stroke:#ff7f0e;stroke-opacity:0.15;"/>
    </defs>
    <g clip-path="url(#pc52d0873c4)">
     <use style="fill:#ff7f0e;fill-opacity:0.15;stroke:#ff7f0e;stroke-opacity:0.15;" x="0" xlink:href="#med831c2854" y="36"/>
    </g>
   </g>
   <g id="matplotlib.axis_1"/>
   <g id="matplotlib.axis_2">
    <g id="ytick_1">
     <g id="line2d_1">
      <defs>
       <path d="M 0 0 
L -3.5 0 
" id="m3120b751c7" style="stroke:#000000;stroke-width:0.8;"/>
      </defs>
      <g>
       <use style="stroke:#000000;stroke-width:0.8;" x="31.5" xlink:href="#m3120b751c7" y="28.009669"/>
      </g>
     </g>
     <g id="text_1">
      <!-- −6 -->
      <g transform="translate(12.70625 31.049044)scale(0.08 -0.08)">
       <defs>
        <path d="M 678 2272 
L 4684 2272 
L 4684 1741 
L 678 1741 
L 678 2272 
z
" id="DejaVuSans-2212" transform="scale(0.015625)"/>
        <path d="M 2113 2584 
Q 1688 2584 1439 2293 
Q 1191 2003 1191 1497 
Q 1191 994 1439 701 
Q 1688 409 2113 409 
Q 2538 409 2786 701 
Q 3034 994 3034 1497 
Q 3034 2003 2786 2293 
Q 2538 2584 2113 2584 
z
M 3366 4563 
L 3366 3988 
Q 3128 4100 2886 4159 
Q 2644 4219 2406 4219 
Q 1781 4219 1451 3797 
Q 1122 3375 1075 2522 
Q 1259 2794 1537 2939 
Q 1816 3084 2150 3084 
Q 2853 3084 3261 2657 
Q 3669 2231 3669 1497 
Q 3669 778 3244 343 
Q 2819 -91 2113 -91 
Q 1303 -91 875 529 
Q 447 1150 447 2328 
Q 447 3434 972 4092 
Q 1497 4750 2381 4750 
Q 2619 4750 2861 4703 
Q 3103 4656 3366 4563 
z
" id="DejaVuSans-36" transform="scale(0.015625)"/>
       </defs>
       <use xlink:href="#DejaVuSans-2212"/>
       <use x="83.789062" xlink:href="#DejaVuSans-36"/>
      </g>
     </g>
    </g>
    <g id="ytick_2">
     <g id="line2d_2">
      <g>
       <use style="stroke:#000000;stroke-width:0.8;" x="31.5" xlink:href="#m3120b751c7" y="17.990649"/>
      </g>
     </g>
     <g id="text_2">
      <!-- 0 -->
      <g transform="translate(19.41 21.030024)scale(0.08 -0.08)">
       <defs>
        <path d="M 2034 4250 
Q 1547 4250 1301 3770 
Q 1056 3291 1056 2328 
Q 1056 1369 1301 889 
Q 1547 409 2034 409 
Q 2525 409 2770 889 
Q 3016 1369 3016 2328 
Q 3016 3291 2770 3770 
Q 2525 4250 2034 4250 
z
M 2034 4750 
Q 2819 4750 3233 4129 
Q 3647 3509 3647 2328 
Q 3647 1150 3233 529 
Q 2819 -91 2034 -91 
Q 1250 -91 836 529 
Q 422 1150 422 2328 
Q 422 3509 836 4129 
Q 1250 4750 2034 4750 
z
" id="DejaVuSans-30" transform="scale(0.015625)"/>
       </defs>
       <use xlink:href="#DejaVuSans-30"/>
      </g>
     </g>
    </g>
    <g id="ytick_3">
     <g id="line2d_3">
      <g>
       <use style="stroke:#000000;stroke-width:0.8;" x="31.5" xlink:href="#m3120b751c7" y="7.971629"/>
      </g>
     </g>
     <g id="text_3">
      <!-- 6 -->
      <g transform="translate(19.41 11.011004)scale(0.08 -0.08)">
       <use xlink:href="#DejaVuSans-36"/>
      </g>
     </g>
    </g>
    <g id="text_4">
     <!-- $x$ -->
     <g transform="translate(7.0425 20.31)rotate(-90)scale(0.08 -0.08)">
      <defs>
       <path d="M 3841 3500 
L 2234 1784 
L 3219 0 
L 2559 0 
L 1819 1388 
L 531 0 
L -166 0 
L 1556 1844 
L 641 3500 
L 1300 3500 
L 1972 2234 
L 3144 3500 
L 3841 3500 
z
" id="DejaVuSans-Oblique-78" transform="scale(0.015625)"/>
      </defs>
      <use transform="translate(0 0.3125)" xlink:href="#DejaVuSans-Oblique-78"/>
     </g>
    </g>
   </g>
   <g id="line2d_4">
    <path clip-path="url(#pc52d0873c4)" d="M 36.15 15.083538 
L 45.45 18.293999 
L 54.75 18.894889 
L 64.05 19.014279 
L 73.35 18.721551 
L 82.65 9.895034 
L 91.95 20.030346 
L 101.25 15.6172 
L 110.55 23.067163 
L 119.85 18.902349 
L 129.15 19.475632 
L 138.45 19.118442 
L 147.75 18.720038 
L 157.05 13.033054 
L 166.35 15.148945 
L 175.65 13.833615 
L 184.95 19.223324 
L 194.25 13.962844 
L 203.55 19.334654 
L 212.85 25.109381 
L 222.15 13.158538 
" style="fill:none;stroke:#1f77b4;stroke-linecap:square;stroke-width:0.7;"/>
    <defs>
     <path d="M 0 1 
C 0.265203 1 0.51958 0.894634 0.707107 0.707107 
C 0.894634 0.51958 1 0.265203 1 0 
C 1 -0.265203 0.894634 -0.51958 0.707107 -0.707107 
C 0.51958 -0.894634 0.265203 -1 0 -1 
C -0.265203 -1 -0.51958 -0.894634 -0.707107 -0.707107 
C -0.894634 -0.51958 -1 -0.265203 -1 0 
C -1 0.265203 -0.894634 0.51958 -0.707107 0.707107 
C -0.51958 0.894634 -0.265203 1 0 1 
z
" id="me8a91bf260" style="stroke:#1f77b4;"/>
    </defs>
    <g clip-path="url(#pc52d0873c4)">
     <use style="fill:#1f77b4;stroke:#1f77b4;" x="36.15" xlink:href="#me8a91bf260" y="15.083538"/>
     <use style="fill:#1f77b4;stroke:#1f77b4;" x="45.45" xlink:href="#me8a91bf260" y="18.293999"/>
     <use style="fill:#1f77b4;stroke:#1f77b4;" x="54.75" xlink:href="#me8a91bf260" y="18.894889"/>
     <use style="fill:#1f77b4;stroke:#1f77b4;" x="64.05" xlink:href="#me8a91bf260" y="19.014279"/>
     <use style="fill:#1f77b4;stroke:#1f77b4;" x="73.35" xlink:href="#me8a91bf260" y="18.721551"/>
     <use style="fill:#1f77b4;stroke:#1f77b4;" x="82.65" xlink:href="#me8a91bf260" y="9.895034"/>
     <use style="fill:#1f77b4;stroke:#1f77b4;" x="91.95" xlink:href="#me8a91bf260" y="20.030346"/>
     <use style="fill:#1f77b4;stroke:#1f77b4;" x="101.25" xlink:href="#me8a91bf260" y="15.6172"/>
     <use style="fill:#1f77b4;stroke:#1f77b4;" x="110.55" xlink:href="#me8a91bf260" y="23.067163"/>
     <use style="fill:#1f77b4;stroke:#1f77b4;" x="119.85" xlink:href="#me8a91bf260" y="18.902349"/>
     <use style="fill:#1f77b4;stroke:#1f77b4;" x="129.15" xlink:href="#me8a91bf260" y="19.475632"/>
     <use style="fill:#1f77b4;stroke:#1f77b4;" x="138.45" xlink:href="#me8a91bf260" y="19.118442"/>
     <use style="fill:#1f77b4;stroke:#1f77b4;" x="147.75" xlink:href="#me8a91bf260" y="18.720038"/>
     <use style="fill:#1f77b4;stroke:#1f77b4;" x="157.05" xlink:href="#me8a91bf260" y="13.033054"/>
     <use style="fill:#1f77b4;stroke:#1f77b4;" x="166.35" xlink:href="#me8a91bf260" y="15.148945"/>
     <use style="fill:#1f77b4;stroke:#1f77b4;" x="175.65" xlink:href="#me8a91bf260" y="13.833615"/>
     <use style="fill:#1f77b4;stroke:#1f77b4;" x="184.95" xlink:href="#me8a91bf260" y="19.223324"/>
     <use style="fill:#1f77b4;stroke:#1f77b4;" x="194.25" xlink:href="#me8a91bf260" y="13.962844"/>
     <use style="fill:#1f77b4;stroke:#1f77b4;" x="203.55" xlink:href="#me8a91bf260" y="19.334654"/>
     <use style="fill:#1f77b4;stroke:#1f77b4;" x="212.85" xlink:href="#me8a91bf260" y="25.109381"/>
     <use style="fill:#1f77b4;stroke:#1f77b4;" x="222.15" xlink:href="#me8a91bf260" y="13.158538"/>
    </g>
   </g>
   <g id="line2d_5">
    <path clip-path="url(#pc52d0873c4)" d="M 36.15 19.073495 
L 45.45 27.241914 
L 54.75 19.947545 
L 64.05 19.071949 
L 73.35 10.622917 
L 82.65 19.565846 
L 91.95 25.948524 
L 101.25 18.697784 
L 110.55 18.920012 
L 119.85 8.847687 
L 129.15 12.713184 
L 138.45 12.067767 
L 147.75 12.5159 
L 157.05 18.703037 
L 166.35 19.585217 
L 175.65 20.096365 
L 184.95 13.086801 
L 194.25 19.890113 
L 203.55 13.019598 
L 212.85 12.846572 
L 222.15 14.142975 
" style="fill:none;stroke:#ff7f0e;stroke-linecap:square;stroke-width:0.7;"/>
    <defs>
     <path d="M 0 1 
C 0.265203 1 0.51958 0.894634 0.707107 0.707107 
C 0.894634 0.51958 1 0.265203 1 0 
C 1 -0.265203 0.894634 -0.51958 0.707107 -0.707107 
C 0.51958 -0.894634 0.265203 -1 0 -1 
C -0.265203 -1 -0.51958 -0.894634 -0.707107 -0.707107 
C -0.894634 -0.51958 -1 -0.265203 -1 0 
C -1 0.265203 -0.894634 0.51958 -0.707107 0.707107 
C -0.51958 0.894634 -0.265203 1 0 1 
z
" id="m423f065dcf" style="stroke:#ff7f0e;"/>
    </defs>
    <g clip-path="url(#pc52d0873c4)">
     <use style="fill:#ff7f0e;stroke:#ff7f0e;" x="36.15" xlink:href="#m423f065dcf" y="19.073495"/>
     <use style="fill:#ff7f0e;stroke:#ff7f0e;" x="45.45" xlink:href="#m423f065dcf" y="27.241914"/>
     <use style="fill:#ff7f0e;stroke:#ff7f0e;" x="54.75" xlink:href="#m423f065dcf" y="19.947545"/>
     <use style="fill:#ff7f0e;stroke:#ff7f0e;" x="64.05" xlink:href="#m423f065dcf" y="19.071949"/>
     <use style="fill:#ff7f0e;stroke:#ff7f0e;" x="73.35" xlink:href="#m423f065dcf" y="10.622917"/>
     <use style="fill:#ff7f0e;stroke:#ff7f0e;" x="82.65" xlink:href="#m423f065dcf" y="19.565846"/>
     <use style="fill:#ff7f0e;stroke:#ff7f0e;" x="91.95" xlink:href="#m423f065dcf" y="25.948524"/>
     <use style="fill:#ff7f0e;stroke:#ff7f0e;" x="101.25" xlink:href="#m423f065dcf" y="18.697784"/>
     <use style="fill:#ff7f0e;stroke:#ff7f0e;" x="110.55" xlink:href="#m423f065dcf" y="18.920012"/>
     <use style="fill:#ff7f0e;stroke:#ff7f0e;" x="119.85" xlink:href="#m423f065dcf" y="8.847687"/>
     <use style="fill:#ff7f0e;stroke:#ff7f0e;" x="129.15" xlink:href="#m423f065dcf" y="12.713184"/>
     <use style="fill:#ff7f0e;stroke:#ff7f0e;" x="138.45" xlink:href="#m423f065dcf" y="12.067767"/>
     <use style="fill:#ff7f0e;stroke:#ff7f0e;" x="147.75" xlink:href="#m423f065dcf" y="12.5159"/>
     <use style="fill:#ff7f0e;stroke:#ff7f0e;" x="157.05" xlink:href="#m423f065dcf" y="18.703037"/>
     <use style="fill:#ff7f0e;stroke:#ff7f0e;" x="166.35" xlink:href="#m423f065dcf" y="19.585217"/>
     <use style="fill:#ff7f0e;stroke:#ff7f0e;" x="175.65" xlink:href="#m423f065dcf" y="20.096365"/>
     <use style="fill:#ff7f0e;stroke:#ff7f0e;" x="184.95" xlink:href="#m423f065dcf" y="13.086801"/>
     <use style="fill:#ff7f0e;stroke:#ff7f0e;" x="194.25" xlink:href="#m423f065dcf" y="19.890113"/>
     <use style="fill:#ff7f0e;stroke:#ff7f0e;" x="203.55" xlink:href="#m423f065dcf" y="13.019598"/>
     <use style="fill:#ff7f0e;stroke:#ff7f0e;" x="212.85" xlink:href="#m423f065dcf" y="12.846572"/>
     <use style="fill:#ff7f0e;stroke:#ff7f0e;" x="222.15" xlink:href="#m423f065dcf" y="14.142975"/>
    </g>
   </g>
   <g id="patch_3">
    <path d="M 31.5 31.5 
L 31.5 4.32 
" style="fill:none;stroke:#000000;stroke-linecap:square;stroke-linejoin:miter;stroke-width:0.8;"/>
   </g>
   <g id="patch_4">
    <path d="M 226.8 31.5 
L 226.8 4.32 
" style="fill:none;stroke:#000000;stroke-linecap:square;stroke-linejoin:miter;stroke-width:0.8;"/>
   </g>
   <g id="patch_5">
    <path d="M 31.5 31.5 
L 226.8 31.5 
" style="fill:none;stroke:#000000;stroke-linecap:square;stroke-linejoin:miter;stroke-width:0.8;"/>
   </g>
   <g id="patch_6">
    <path d="M 31.5 4.32 
L 226.8 4.32 
" style="fill:none;stroke:#000000;stroke-linecap:square;stroke-linejoin:miter;stroke-width:0.8;"/>
   </g>
  </g>
 </g>
 <defs>
  <clipPath id="pc52d0873c4">
   <rect height="27.18" width="195.3" x="31.5" y="4.32"/>
  </clipPath>
 </defs>
</svg>
