<?xml version="1.0" encoding="utf-8" standalone="no"?>
<!DOCTYPE svg PUBLIC "-//W3C//DTD SVG 1.1//EN"
  "http://www.w3.org/Graphics/SVG/1.1/DTD/svg11.dtd">
<svg height="108pt" version="1.1" viewBox="0 0 108 108" width="108pt" xmlns="http://www.w3.org/2000/svg" xmlns:xlink="http://www.w3.org/1999/xlink">
 <metadata>
  <rdf:RDF xmlns:cc="http://creativecommons.org/ns#" xmlns:dc="http://purl.org/dc/elements/1.1/" xmlns:rdf="http://www.w3.org/1999/02/22-rdf-syntax-ns#">
   <cc:Work>
    <dc:type rdf:resource="http://purl.org/dc/dcmitype/StillImage"/>
    <dc:date>2021-05-15T23:22:28.157002</dc:date>
    <dc:format>image/svg+xml</dc:format>
    <dc:creator>
     <cc:Agent>
      <dc:title>Matplotlib v3.4.2, https://matplotlib.org/</dc:title>
     </cc:Agent>
    </dc:creator>
   </cc:Work>
  </rdf:RDF>
 </metadata>
 <defs>
  <style type="text/css">*{stroke-linecap:butt;stroke-linejoin:round;}</style>
 </defs>
 <g id="figure_1">
  <g id="patch_1">
   <path d="M 0 108 
L 108 108 
L 108 0 
L 0 0 
z
" style="fill:none;"/>
  </g>
  <g id="axes_1">
   <g id="patch_2">
    <path d="M 13.5 94.5 
L 97.2 94.5 
L 97.2 12.96 
L 13.5 12.96 
z
" style="fill:#ffffff;"/>
   </g>
   <g id="PolyCollection_1">
    <defs>
     <path d="M 17.304545 -13.5 
L 17.304545 -13.5 
L 17.400985 -15.224411 
L 17.497425 -16.456133 
L 17.593865 -17.9342 
L 17.690304 -19.165921 
L 17.786744 -19.904955 
L 17.883184 -20.397644 
L 17.979623 -20.890332 
L 18.076063 -21.383021 
L 18.172503 -22.368399 
L 18.268942 -23.107431 
L 18.365382 -23.846465 
L 18.461822 -25.078187 
L 18.558261 -25.324532 
L 18.654701 -25.570876 
L 18.751141 -26.802598 
L 18.84758 -27.541631 
L 18.94402 -28.03432 
L 19.04046 -28.280665 
L 19.136899 -28.773353 
L 19.233339 -29.512387 
L 19.329779 -31.236798 
L 19.426218 -31.975831 
L 19.522658 -32.714862 
L 19.619098 -33.207553 
L 19.715538 -33.453897 
L 19.811977 -33.946586 
L 19.908417 -34.19293 
L 20.004857 -34.19293 
L 20.101296 -34.439275 
L 20.197736 -34.931964 
L 20.294176 -35.670998 
L 20.390615 -35.670998 
L 20.487055 -36.656374 
L 20.583495 -37.149063 
L 20.679934 -37.641753 
L 20.776374 -37.888097 
L 20.872814 -38.627129 
L 20.969253 -39.119818 
L 21.065693 -40.105197 
L 21.162133 -40.597886 
L 21.258572 -41.090575 
L 21.355012 -41.829607 
L 21.451452 -42.322296 
L 21.547891 -42.568641 
L 21.644331 -43.06133 
L 21.740771 -43.800361 
L 21.837211 -44.293053 
L 21.93365 -44.78574 
L 22.03009 -45.032085 
L 22.12653 -45.278429 
L 22.222969 -45.524774 
L 22.319409 -45.771118 
L 22.415849 -46.51015 
L 22.512288 -46.756495 
L 22.608728 -47.249184 
L 22.705168 -47.495529 
L 22.801607 -48.973596 
L 22.898047 -49.712628 
L 22.994487 -50.698009 
L 23.090926 -51.43704 
L 23.187366 -51.929725 
L 23.283806 -52.422416 
L 23.380245 -52.422416 
L 23.476685 -52.915106 
L 23.573125 -52.915106 
L 23.669564 -53.407795 
L 23.766004 -54.146829 
L 23.862444 -54.393171 
L 23.958884 -54.393171 
L 24.055323 -54.88586 
L 24.151763 -55.132207 
L 24.248203 -55.132207 
L 24.344642 -55.37855 
L 24.441082 -55.37855 
L 24.537522 -55.624892 
L 24.633961 -55.871239 
L 24.730401 -56.363928 
L 24.826841 -56.61027 
L 24.92328 -57.10296 
L 25.01972 -57.595649 
L 25.11616 -57.841996 
L 25.212599 -57.841996 
L 25.309039 -58.048922 
L 25.405479 -58.088338 
L 25.501918 -58.33468 
L 25.598358 -58.33468 
L 25.694798 -58.82737 
L 25.791237 -59.320059 
L 25.887677 -59.812748 
L 25.984117 -59.812748 
L 26.080557 -59.812748 
L 26.176996 -60.059095 
L 26.273436 -60.551785 
L 26.369876 -61.044469 
L 26.466315 -62.276195 
L 26.562755 -62.483121 
L 26.659195 -62.522537 
L 26.755634 -62.768884 
L 26.852074 -63.015226 
L 26.948514 -63.261573 
L 27.044953 -63.261573 
L 27.141393 -63.507915 
L 27.237833 -63.507915 
L 27.334272 -63.754258 
L 27.430712 -64.000605 
L 27.527152 -64.000605 
L 27.623591 -64.246947 
L 27.720031 -64.493294 
L 27.816471 -64.739636 
L 27.91291 -64.985983 
L 28.00935 -65.478673 
L 28.10579 -65.478673 
L 28.20223 -65.971362 
L 28.298669 -66.217704 
L 28.395109 -66.464046 
L 28.491549 -66.710393 
L 28.587988 -66.956736 
L 28.684428 -67.203083 
L 28.780868 -67.942114 
L 28.877307 -67.942114 
L 28.973747 -68.188461 
L 29.070187 -68.188461 
L 29.166626 -68.434803 
L 29.263066 -68.927493 
L 29.359506 -68.927493 
L 29.455945 -69.173835 
L 29.552385 -69.666524 
L 29.648825 -69.666524 
L 29.745264 -69.666524 
L 29.841704 -69.912871 
L 29.938144 -70.159213 
L 30.034583 -70.40556 
L 30.131023 -70.40556 
L 30.227463 -70.40556 
L 30.323903 -70.651903 
L 30.420342 -70.89825 
L 30.516782 -70.89825 
L 30.613222 -71.144592 
L 30.709661 -71.144592 
L 30.806101 -71.390934 
L 30.902541 -71.637281 
L 30.99898 -71.637281 
L 31.09542 -72.12997 
L 31.19186 -72.376313 
L 31.288299 -72.376313 
L 31.384739 -72.376313 
L 31.481179 -72.62266 
L 31.577618 -72.62266 
L 31.674058 -73.115349 
L 31.770498 -73.115349 
L 31.866937 -73.115349 
L 31.963377 -73.115349 
L 32.059817 -73.361691 
L 32.156256 -73.608043 
L 32.252696 -73.854381 
L 32.349136 -74.061307 
L 32.445576 -74.593412 
L 32.542015 -74.593412 
L 32.638455 -74.593412 
L 32.734895 -74.839754 
L 32.831334 -74.839754 
L 32.927774 -74.839754 
L 33.024214 -74.839754 
L 33.120653 -75.086106 
L 33.217093 -75.086106 
L 33.313533 -75.086106 
L 33.409972 -75.086106 
L 33.506412 -75.086106 
L 33.602852 -75.332448 
L 33.699291 -75.332448 
L 33.795731 -75.578791 
L 33.892171 -75.825138 
L 33.98861 -76.07148 
L 34.08505 -76.07148 
L 34.18149 -76.07148 
L 34.277929 -76.317827 
L 34.374369 -76.317827 
L 34.470809 -76.564169 
L 34.567249 -76.810511 
L 34.663688 -76.810511 
L 34.760128 -76.810511 
L 34.856568 -77.056858 
L 34.953007 -77.056858 
L 35.049447 -77.056858 
L 35.145887 -77.303201 
L 35.242326 -77.303201 
L 35.338766 -77.549548 
L 35.435206 -77.79589 
L 35.531645 -77.79589 
L 35.628085 -77.79589 
L 35.724525 -78.042237 
L 35.820964 -78.042237 
L 35.917404 -78.288579 
L 36.013844 -78.288579 
L 36.110283 -78.534926 
L 36.206723 -78.534926 
L 36.303163 -78.534926 
L 36.399602 -78.534926 
L 36.496042 -78.781268 
L 36.592482 -78.781268 
L 36.688922 -78.781268 
L 36.785361 -78.781268 
L 36.881801 -78.781268 
L 36.978241 -79.027616 
L 37.07468 -79.273958 
L 37.17112 -79.273958 
L 37.26756 -79.480884 
L 37.363999 -79.5203 
L 37.460439 -79.766647 
L 37.556879 -79.766647 
L 37.653318 -80.012989 
L 37.749758 -80.012989 
L 37.846198 -80.012989 
L 37.942637 -80.012989 
L 38.039077 -80.259336 
L 38.135517 -80.259336 
L 38.231956 -80.505678 
L 38.328396 -80.505678 
L 38.424836 -80.505678 
L 38.521275 -80.505678 
L 38.617715 -80.752026 
L 38.714155 -80.998368 
L 38.810595 -80.998368 
L 38.907034 -80.998368 
L 39.003474 -80.998368 
L 39.099914 -80.998368 
L 39.196353 -81.244715 
L 39.292793 -81.244715 
L 39.389233 -81.244715 
L 39.485672 -81.491057 
L 39.582112 -81.491057 
L 39.678552 -81.491057 
L 39.774991 -81.491057 
L 39.871431 -81.737404 
L 39.967871 -81.737404 
L 40.06431 -81.983746 
L 40.16075 -81.983746 
L 40.25719 -82.230089 
L 40.353629 -82.230089 
L 40.450069 -82.230089 
L 40.546509 -82.43702 
L 40.642948 -82.476436 
L 40.739388 -82.476436 
L 40.835828 -82.476436 
L 40.932268 -82.476436 
L 41.028707 -82.722778 
L 41.125147 -82.722778 
L 41.221587 -82.722778 
L 41.318026 -82.969125 
L 41.414466 -82.969125 
L 41.510906 -83.215467 
L 41.607345 -83.215467 
L 41.703785 -83.215467 
L 41.800225 -83.215467 
L 41.896664 -83.215467 
L 41.993104 -83.215467 
L 42.089544 -83.461814 
L 42.185983 -83.461814 
L 42.282423 -83.461814 
L 42.378863 -83.708156 
L 42.475302 -83.708156 
L 42.571742 -83.954503 
L 42.668182 -83.954503 
L 42.764622 -84.200846 
L 42.861061 -84.200846 
L 42.957501 -84.200846 
L 43.053941 -84.200846 
L 43.15038 -84.200846 
L 43.24682 -84.200846 
L 43.34326 -84.200846 
L 43.439699 -84.200846 
L 43.536139 -84.200846 
L 43.632579 -84.447193 
L 43.729018 -84.447193 
L 43.825458 -84.447193 
L 43.921898 -84.447193 
L 44.018337 -84.654119 
L 44.114777 -84.693535 
L 44.211217 -84.693535 
L 44.307656 -84.693535 
L 44.404096 -84.693535 
L 44.500536 -84.693535 
L 44.596975 -84.693535 
L 44.693415 -84.693535 
L 44.789855 -84.693535 
L 44.886295 -84.693535 
L 44.982734 -84.939877 
L 45.079174 -84.939877 
L 45.175614 -85.186224 
L 45.272053 -85.186224 
L 45.368493 -85.432566 
L 45.464933 -85.432566 
L 45.561372 -85.432566 
L 45.657812 -85.432566 
L 45.754252 -85.432566 
L 45.850691 -85.432566 
L 45.947131 -85.432566 
L 46.043571 -85.678913 
L 46.14001 -85.678913 
L 46.23645 -85.678913 
L 46.33289 -85.678913 
L 46.429329 -85.925256 
L 46.525769 -85.925256 
L 46.622209 -85.925256 
L 46.718648 -85.925256 
L 46.815088 -85.925256 
L 46.911528 -85.925256 
L 47.007968 -85.925256 
L 47.104407 -86.171603 
L 47.200847 -86.171603 
L 47.297287 -86.417945 
L 47.393726 -86.664297 
L 47.490166 -86.664297 
L 47.586606 -86.664297 
L 47.683045 -86.664297 
L 47.779485 -86.664297 
L 47.875925 -86.664297 
L 47.972364 -86.664297 
L 48.068804 -86.664297 
L 48.165244 -86.664297 
L 48.261683 -86.664297 
L 48.358123 -86.910639 
L 48.454563 -86.910639 
L 48.551002 -86.910639 
L 48.647442 -86.910639 
L 48.743882 -86.910639 
L 48.840321 -86.910639 
L 48.936761 -86.910639 
L 49.033201 -86.910639 
L 49.129641 -86.910639 
L 49.22608 -86.910639 
L 49.32252 -86.910639 
L 49.41896 -86.910639 
L 49.515399 -87.156976 
L 49.611839 -87.156976 
L 49.708279 -87.156976 
L 49.804718 -87.156976 
L 49.901158 -87.156976 
L 49.997598 -87.156976 
L 50.094037 -87.156976 
L 50.190477 -87.156976 
L 50.286917 -87.156976 
L 50.383356 -87.156976 
L 50.479796 -87.156976 
L 50.576236 -87.403323 
L 50.672675 -87.403323 
L 50.769115 -87.403323 
L 50.865555 -87.403323 
L 50.961994 -87.403323 
L 51.058434 -87.403323 
L 51.154874 -87.403323 
L 51.251314 -87.403323 
L 51.347753 -87.403323 
L 51.444193 -87.403323 
L 51.540633 -87.403323 
L 51.637072 -87.403323 
L 51.733512 -87.403323 
L 51.829952 -87.403323 
L 51.926391 -87.403323 
L 52.022831 -87.649666 
L 52.119271 -87.649666 
L 52.21571 -87.649666 
L 52.31215 -87.649666 
L 52.40859 -87.649666 
L 52.505029 -87.649666 
L 52.601469 -87.649666 
L 52.697909 -87.649666 
L 52.794348 -87.649666 
L 52.890788 -87.649666 
L 52.987228 -87.896018 
L 53.083667 -87.896018 
L 53.180107 -87.896018 
L 53.276547 -87.896018 
L 53.372987 -87.896018 
L 53.469426 -87.896018 
L 53.565866 -87.896018 
L 53.662306 -87.896018 
L 53.758745 -87.896018 
L 53.855185 -87.896018 
L 53.951625 -88.14236 
L 54.048064 -88.14236 
L 54.144504 -88.14236 
L 54.240944 -88.14236 
L 54.337383 -88.14236 
L 54.433823 -88.14236 
L 54.530263 -88.14236 
L 54.626702 -88.14236 
L 54.723142 -88.14236 
L 54.819582 -88.14236 
L 54.916021 -88.14236 
L 55.012461 -88.14236 
L 55.108901 -88.388702 
L 55.20534 -88.388702 
L 55.30178 -88.388702 
L 55.39822 -88.388702 
L 55.49466 -88.388702 
L 55.591099 -88.388702 
L 55.687539 -88.388702 
L 55.783979 -88.388702 
L 55.880418 -88.388702 
L 55.976858 -88.388702 
L 56.073298 -88.388702 
L 56.169737 -88.388702 
L 56.266177 -88.388702 
L 56.362617 -88.388702 
L 56.459056 -88.635044 
L 56.555496 -88.635044 
L 56.651936 -88.635044 
L 56.748375 -88.635044 
L 56.844815 -88.881386 
L 56.941255 -88.881386 
L 57.037694 -88.881386 
L 57.134134 -88.881386 
L 57.230574 -88.881386 
L 57.327013 -88.881386 
L 57.423453 -88.881386 
L 57.519893 -89.127729 
L 57.616333 -89.127729 
L 57.712772 -89.374081 
L 57.809212 -89.374081 
L 57.905652 -89.374081 
L 58.002091 -89.374081 
L 58.098531 -89.374081 
L 58.194971 -89.374081 
L 58.29141 -89.374081 
L 58.38785 -89.374081 
L 58.48429 -89.374081 
L 58.580729 -89.374081 
L 58.677169 -89.374081 
L 58.773609 -89.374081 
L 58.870048 -89.374081 
L 58.966488 -89.620423 
L 59.062928 -89.620423 
L 59.159367 -89.620423 
L 59.255807 -89.620423 
L 59.352247 -89.620423 
L 59.448686 -89.620423 
L 59.545126 -89.620423 
L 59.641566 -89.620423 
L 59.738006 -89.620423 
L 59.834445 -89.866765 
L 59.930885 -89.866765 
L 60.027325 -89.866765 
L 60.123764 -89.866765 
L 60.220204 -89.866765 
L 60.316644 -89.866765 
L 60.413083 -90.113112 
L 60.509523 -90.113112 
L 60.605963 -90.113112 
L 60.702402 -90.113112 
L 60.798842 -90.113112 
L 60.895282 -90.113112 
L 60.991721 -90.113112 
L 61.088161 -90.113112 
L 61.184601 -90.113112 
L 61.28104 -90.113112 
L 61.37748 -90.113112 
L 61.47392 -90.113112 
L 61.570359 -90.113112 
L 61.666799 -90.113112 
L 61.763239 -90.113112 
L 61.859679 -90.359449 
L 61.956118 -90.359449 
L 62.052558 -90.359449 
L 62.148998 -90.359449 
L 62.245437 -90.359449 
L 62.341877 -90.359449 
L 62.438317 -90.359449 
L 62.534756 -90.359449 
L 62.631196 -90.359449 
L 62.727636 -90.359449 
L 62.824075 -90.359449 
L 62.920515 -90.605801 
L 63.016955 -90.605801 
L 63.113394 -90.605801 
L 63.209834 -90.605801 
L 63.306274 -90.605801 
L 63.402713 -90.812728 
L 63.499153 -90.852144 
L 63.595593 -90.852144 
L 63.692032 -90.852144 
L 63.788472 -90.852144 
L 63.884912 -90.852144 
L 63.981352 -90.852144 
L 64.077791 -90.852144 
L 64.174231 -90.852144 
L 64.270671 -90.852144 
L 64.36711 -90.852144 
L 64.46355 -90.852144 
L 64.55999 -90.852144 
L 64.656429 -90.852144 
L 64.752869 -90.852144 
L 64.849309 -90.852144 
L 64.945748 -90.852144 
L 65.042188 -90.852144 
L 65.138628 -90.852144 
L 65.235067 -90.852144 
L 65.331507 -90.852144 
L 65.427947 -91.098491 
L 65.524386 -91.098491 
L 65.620826 -91.098491 
L 65.717266 -91.098491 
L 65.813705 -91.098491 
L 65.910145 -91.098491 
L 66.006585 -91.098491 
L 66.103025 -91.098491 
L 66.199464 -91.098491 
L 66.295904 -91.098491 
L 66.392344 -91.098491 
L 66.488783 -91.098491 
L 66.585223 -91.344833 
L 66.681663 -91.344833 
L 66.778102 -91.344833 
L 66.874542 -91.344833 
L 66.970982 -91.344833 
L 67.067421 -91.344833 
L 67.163861 -91.344833 
L 67.260301 -91.344833 
L 67.35674 -91.344833 
L 67.45318 -91.344833 
L 67.54962 -91.344833 
L 67.646059 -91.344833 
L 67.742499 -91.344833 
L 67.838939 -91.344833 
L 67.935378 -91.344833 
L 68.031818 -91.344833 
L 68.128258 -91.344833 
L 68.224698 -91.344833 
L 68.321137 -91.344833 
L 68.417577 -91.344833 
L 68.514017 -91.344833 
L 68.610456 -91.344833 
L 68.706896 -91.344833 
L 68.803336 -91.344833 
L 68.899775 -91.344833 
L 68.996215 -91.344833 
L 69.092655 -91.344833 
L 69.189094 -91.344833 
L 69.285534 -91.344833 
L 69.381974 -91.344833 
L 69.478413 -91.344833 
L 69.574853 -91.344833 
L 69.671293 -91.344833 
L 69.767732 -91.59118 
L 69.864172 -91.59118 
L 69.960612 -91.59118 
L 70.057052 -91.59118 
L 70.153491 -91.59118 
L 70.249931 -91.59118 
L 70.346371 -91.59118 
L 70.44281 -91.59118 
L 70.53925 -91.59118 
L 70.63569 -91.59118 
L 70.732129 -91.59118 
L 70.828569 -91.59118 
L 70.925009 -91.59118 
L 71.021448 -91.59118 
L 71.117888 -91.59118 
L 71.214328 -91.837522 
L 71.310767 -91.837522 
L 71.407207 -91.837522 
L 71.503647 -91.837522 
L 71.600086 -91.837522 
L 71.696526 -91.837522 
L 71.792966 -91.837522 
L 71.889405 -91.837522 
L 71.985845 -91.837522 
L 72.082285 -91.837522 
L 72.178725 -91.837522 
L 72.275164 -91.837522 
L 72.371604 -91.837522 
L 72.468044 -91.837522 
L 72.564483 -91.837522 
L 72.660923 -91.837522 
L 72.757363 -91.837522 
L 72.853802 -91.837522 
L 72.950242 -91.837522 
L 73.046682 -91.837522 
L 73.143121 -91.837522 
L 73.239561 -91.837522 
L 73.336001 -92.083869 
L 73.43244 -92.083869 
L 73.52888 -92.083869 
L 73.62532 -92.083869 
L 73.721759 -92.083869 
L 73.818199 -92.083869 
L 73.914639 -92.083869 
L 74.011078 -92.083869 
L 74.107518 -92.083869 
L 74.203958 -92.083869 
L 74.300398 -92.083869 
L 74.396837 -92.083869 
L 74.493277 -92.083869 
L 74.589717 -92.083869 
L 74.686156 -92.083869 
L 74.782596 -92.083869 
L 74.879036 -92.083869 
L 74.975475 -92.083869 
L 75.071915 -92.083869 
L 75.168355 -92.083869 
L 75.264794 -92.083869 
L 75.361234 -92.083869 
L 75.457674 -92.083869 
L 75.554113 -92.083869 
L 75.650553 -92.083869 
L 75.746993 -92.083869 
L 75.843432 -92.083869 
L 75.939872 -92.083869 
L 76.036312 -92.083869 
L 76.132751 -92.330211 
L 76.229191 -92.330211 
L 76.325631 -92.330211 
L 76.422071 -92.330211 
L 76.51851 -92.330211 
L 76.61495 -92.330211 
L 76.71139 -92.330211 
L 76.807829 -92.330211 
L 76.904269 -92.330211 
L 77.000709 -92.330211 
L 77.097148 -92.330211 
L 77.193588 -92.330211 
L 77.290028 -92.330211 
L 77.386467 -92.330211 
L 77.482907 -92.330211 
L 77.579347 -92.330211 
L 77.675786 -92.330211 
L 77.772226 -92.330211 
L 77.868666 -92.330211 
L 77.965105 -92.330211 
L 78.061545 -92.330211 
L 78.157985 -92.330211 
L 78.254424 -92.330211 
L 78.350864 -92.330211 
L 78.447304 -92.330211 
L 78.543744 -92.330211 
L 78.640183 -92.330211 
L 78.736623 -92.330211 
L 78.833063 -92.330211 
L 78.929502 -92.330211 
L 79.025942 -92.330211 
L 79.122382 -92.330211 
L 79.218821 -92.330211 
L 79.315261 -92.330211 
L 79.411701 -92.330211 
L 79.50814 -92.330211 
L 79.60458 -92.330211 
L 79.70102 -92.330211 
L 79.797459 -92.330211 
L 79.893899 -92.330211 
L 79.990339 -92.330211 
L 80.086778 -92.330211 
L 80.183218 -92.330211 
L 80.279658 -92.330211 
L 80.376097 -92.330211 
L 80.472537 -92.330211 
L 80.568977 -92.330211 
L 80.665417 -92.330211 
L 80.761856 -92.537138 
L 80.858296 -92.576554 
L 80.954736 -92.576554 
L 81.051175 -92.576554 
L 81.147615 -92.576554 
L 81.244055 -92.576554 
L 81.340494 -92.576554 
L 81.436934 -92.576554 
L 81.533374 -92.576554 
L 81.629813 -92.576554 
L 81.726253 -92.576554 
L 81.822693 -92.576554 
L 81.919132 -92.576554 
L 82.015572 -92.576554 
L 82.112012 -92.576554 
L 82.208451 -92.576554 
L 82.304891 -92.576554 
L 82.401331 -92.576554 
L 82.49777 -92.576554 
L 82.59421 -92.576554 
L 82.69065 -92.576554 
L 82.78709 -92.576554 
L 82.883529 -92.576554 
L 82.979969 -92.783485 
L 83.076409 -92.783485 
L 83.172848 -92.783485 
L 83.269288 -92.783485 
L 83.365728 -92.783485 
L 83.462167 -92.822901 
L 83.558607 -92.822901 
L 83.655047 -92.822901 
L 83.751486 -92.822901 
L 83.847926 -92.822901 
L 83.944366 -92.822901 
L 84.040805 -92.822901 
L 84.137245 -92.822901 
L 84.233685 -92.822901 
L 84.330124 -92.822901 
L 84.426564 -92.822901 
L 84.523004 -92.822901 
L 84.619443 -92.822901 
L 84.715883 -93.069243 
L 84.812323 -93.069243 
L 84.908763 -93.069243 
L 85.005202 -93.069243 
L 85.101642 -93.069243 
L 85.198082 -93.069243 
L 85.294521 -93.069243 
L 85.390961 -93.069243 
L 85.487401 -93.069243 
L 85.58384 -93.069243 
L 85.68028 -93.069243 
L 85.77672 -93.069243 
L 85.873159 -93.069243 
L 85.969599 -93.069243 
L 86.066039 -93.069243 
L 86.162478 -93.069243 
L 86.258918 -93.069243 
L 86.355358 -93.069243 
L 86.451797 -93.069243 
L 86.548237 -93.069243 
L 86.644677 -93.069243 
L 86.741116 -93.069243 
L 86.837556 -93.069243 
L 86.933996 -93.069243 
L 87.030436 -93.069243 
L 87.126875 -93.069243 
L 87.223315 -93.069243 
L 87.319755 -93.069243 
L 87.416194 -93.069243 
L 87.512634 -93.069243 
L 87.609074 -93.069243 
L 87.705513 -93.069243 
L 87.801953 -93.069243 
L 87.898393 -93.069243 
L 87.994832 -93.069243 
L 88.091272 -93.069243 
L 88.187712 -93.069243 
L 88.284151 -93.069243 
L 88.380591 -93.069243 
L 88.477031 -93.276174 
L 88.57347 -93.31559 
L 88.66991 -93.31559 
L 88.76635 -93.31559 
L 88.862789 -93.31559 
L 88.959229 -93.31559 
L 89.055669 -93.31559 
L 89.152109 -93.31559 
L 89.248548 -93.31559 
L 89.344988 -93.31559 
L 89.441428 -93.31559 
L 89.537867 -93.31559 
L 89.634307 -93.31559 
L 89.730747 -93.31559 
L 89.827186 -93.31559 
L 89.923626 -93.31559 
L 90.020066 -93.31559 
L 90.116505 -93.31559 
L 90.212945 -93.31559 
L 90.309385 -93.31559 
L 90.405824 -93.31559 
L 90.502264 -93.31559 
L 90.598704 -93.31559 
L 90.695143 -93.31559 
L 90.791583 -93.31559 
L 90.888023 -93.31559 
L 90.984462 -93.31559 
L 91.080902 -93.31559 
L 91.177342 -93.31559 
L 91.273782 -93.31559 
L 91.370221 -93.31559 
L 91.466661 -93.31559 
L 91.563101 -93.31559 
L 91.65954 -93.31559 
L 91.75598 -93.31559 
L 91.85242 -93.31559 
L 91.948859 -93.31559 
L 92.045299 -93.31559 
L 92.141739 -93.31559 
L 92.238178 -93.31559 
L 92.334618 -93.31559 
L 92.431058 -93.31559 
L 92.527497 -93.31559 
L 92.623937 -93.31559 
L 92.720377 -93.31559 
L 92.816816 -93.31559 
L 92.913256 -93.31559 
L 93.009696 -93.31559 
L 93.106135 -93.31559 
L 93.202575 -93.31559 
L 93.299015 -93.31559 
L 93.395455 -93.31559 
L 93.395455 -94.300969 
L 93.395455 -94.300969 
L 93.299015 -94.300969 
L 93.202575 -94.300969 
L 93.106135 -94.300969 
L 93.009696 -94.300969 
L 92.913256 -94.300969 
L 92.816816 -94.300969 
L 92.720377 -94.300969 
L 92.623937 -94.300969 
L 92.527497 -94.300969 
L 92.431058 -94.300969 
L 92.334618 -94.300969 
L 92.238178 -94.300969 
L 92.141739 -94.300969 
L 92.045299 -94.300969 
L 91.948859 -94.300969 
L 91.85242 -94.300969 
L 91.75598 -94.300969 
L 91.65954 -94.300969 
L 91.563101 -94.300969 
L 91.466661 -94.300969 
L 91.370221 -94.300969 
L 91.273782 -94.300969 
L 91.177342 -94.094033 
L 91.080902 -94.094033 
L 90.984462 -94.054621 
L 90.888023 -94.054621 
L 90.791583 -94.054621 
L 90.695143 -94.054621 
L 90.598704 -94.054621 
L 90.502264 -94.054621 
L 90.405824 -94.054621 
L 90.309385 -94.054621 
L 90.212945 -94.054621 
L 90.116505 -94.054621 
L 90.020066 -94.054621 
L 89.923626 -94.054621 
L 89.827186 -94.054621 
L 89.730747 -94.054621 
L 89.634307 -94.054621 
L 89.537867 -94.054621 
L 89.441428 -94.054621 
L 89.344988 -94.054621 
L 89.248548 -94.054621 
L 89.152109 -94.054621 
L 89.055669 -94.054621 
L 88.959229 -94.054621 
L 88.862789 -94.054621 
L 88.76635 -94.054621 
L 88.66991 -94.054621 
L 88.57347 -94.054621 
L 88.477031 -94.054621 
L 88.380591 -94.054621 
L 88.284151 -94.054621 
L 88.187712 -94.054621 
L 88.091272 -94.054621 
L 87.994832 -94.054621 
L 87.898393 -94.054621 
L 87.801953 -94.054621 
L 87.705513 -94.054621 
L 87.609074 -94.054621 
L 87.512634 -94.054621 
L 87.416194 -94.054621 
L 87.319755 -94.054621 
L 87.223315 -94.054621 
L 87.126875 -94.054621 
L 87.030436 -94.054621 
L 86.933996 -94.054621 
L 86.837556 -94.054621 
L 86.741116 -94.054621 
L 86.644677 -94.054621 
L 86.548237 -94.054621 
L 86.451797 -94.054621 
L 86.355358 -94.054621 
L 86.258918 -94.054621 
L 86.162478 -94.054621 
L 86.066039 -94.054621 
L 85.969599 -94.054621 
L 85.873159 -94.054621 
L 85.77672 -94.054621 
L 85.68028 -94.054621 
L 85.58384 -94.054621 
L 85.487401 -94.054621 
L 85.390961 -94.054621 
L 85.294521 -94.054621 
L 85.198082 -93.808279 
L 85.101642 -93.808279 
L 85.005202 -93.808279 
L 84.908763 -93.808279 
L 84.812323 -93.808279 
L 84.715883 -93.808279 
L 84.619443 -93.808279 
L 84.523004 -93.808279 
L 84.426564 -93.808279 
L 84.330124 -93.808279 
L 84.233685 -93.808279 
L 84.137245 -93.808279 
L 84.040805 -93.808279 
L 83.944366 -93.808279 
L 83.847926 -93.808279 
L 83.751486 -93.808279 
L 83.655047 -93.808279 
L 83.558607 -93.808279 
L 83.462167 -93.808279 
L 83.365728 -93.808279 
L 83.269288 -93.808279 
L 83.172848 -93.808279 
L 83.076409 -93.808279 
L 82.979969 -93.808279 
L 82.883529 -93.808279 
L 82.78709 -93.561932 
L 82.69065 -93.561932 
L 82.59421 -93.561932 
L 82.49777 -93.561932 
L 82.401331 -93.561932 
L 82.304891 -93.561932 
L 82.208451 -93.561932 
L 82.112012 -93.561932 
L 82.015572 -93.561932 
L 81.919132 -93.561932 
L 81.822693 -93.561932 
L 81.726253 -93.561932 
L 81.629813 -93.561932 
L 81.533374 -93.561932 
L 81.436934 -93.561932 
L 81.340494 -93.561932 
L 81.244055 -93.561932 
L 81.147615 -93.561932 
L 81.051175 -93.561932 
L 80.954736 -93.561932 
L 80.858296 -93.561932 
L 80.761856 -93.561932 
L 80.665417 -93.561932 
L 80.568977 -93.561932 
L 80.472537 -93.561932 
L 80.376097 -93.561932 
L 80.279658 -93.561932 
L 80.183218 -93.561932 
L 80.086778 -93.561932 
L 79.990339 -93.561932 
L 79.893899 -93.561932 
L 79.797459 -93.561932 
L 79.70102 -93.561932 
L 79.60458 -93.561932 
L 79.50814 -93.561932 
L 79.411701 -93.561932 
L 79.315261 -93.561932 
L 79.218821 -93.561932 
L 79.122382 -93.561932 
L 79.025942 -93.561932 
L 78.929502 -93.561932 
L 78.833063 -93.561932 
L 78.736623 -93.561932 
L 78.640183 -93.561932 
L 78.543744 -93.561932 
L 78.447304 -93.561932 
L 78.350864 -93.561932 
L 78.254424 -93.561932 
L 78.157985 -93.561932 
L 78.061545 -93.561932 
L 77.965105 -93.31559 
L 77.868666 -93.31559 
L 77.772226 -93.31559 
L 77.675786 -93.31559 
L 77.579347 -93.31559 
L 77.482907 -93.31559 
L 77.386467 -93.31559 
L 77.290028 -93.31559 
L 77.193588 -93.31559 
L 77.097148 -93.31559 
L 77.000709 -93.31559 
L 76.904269 -93.31559 
L 76.807829 -93.31559 
L 76.71139 -93.31559 
L 76.61495 -93.31559 
L 76.51851 -93.31559 
L 76.422071 -93.31559 
L 76.325631 -93.31559 
L 76.229191 -93.31559 
L 76.132751 -93.31559 
L 76.036312 -93.31559 
L 75.939872 -93.31559 
L 75.843432 -93.31559 
L 75.746993 -93.31559 
L 75.650553 -93.31559 
L 75.554113 -93.31559 
L 75.457674 -93.31559 
L 75.361234 -93.31559 
L 75.264794 -93.31559 
L 75.168355 -93.31559 
L 75.071915 -93.31559 
L 74.975475 -93.31559 
L 74.879036 -93.31559 
L 74.782596 -93.31559 
L 74.686156 -93.31559 
L 74.589717 -93.31559 
L 74.493277 -93.31559 
L 74.396837 -93.31559 
L 74.300398 -93.31559 
L 74.203958 -93.31559 
L 74.107518 -93.31559 
L 74.011078 -93.31559 
L 73.914639 -93.31559 
L 73.818199 -93.31559 
L 73.721759 -93.108654 
L 73.62532 -93.108654 
L 73.52888 -93.108654 
L 73.43244 -93.069243 
L 73.336001 -93.069243 
L 73.239561 -93.069243 
L 73.143121 -93.069243 
L 73.046682 -93.069243 
L 72.950242 -93.069243 
L 72.853802 -93.069243 
L 72.757363 -93.069243 
L 72.660923 -93.069243 
L 72.564483 -93.069243 
L 72.468044 -93.069243 
L 72.371604 -93.069243 
L 72.275164 -93.069243 
L 72.178725 -93.069243 
L 72.082285 -93.069243 
L 71.985845 -93.069243 
L 71.889405 -93.069243 
L 71.792966 -93.069243 
L 71.696526 -93.069243 
L 71.600086 -93.069243 
L 71.503647 -92.822901 
L 71.407207 -92.822901 
L 71.310767 -92.822901 
L 71.214328 -92.822901 
L 71.117888 -92.822901 
L 71.021448 -92.822901 
L 70.925009 -92.822901 
L 70.828569 -92.822901 
L 70.732129 -92.822901 
L 70.63569 -92.822901 
L 70.53925 -92.822901 
L 70.44281 -92.822901 
L 70.346371 -92.822901 
L 70.249931 -92.822901 
L 70.153491 -92.822901 
L 70.057052 -92.822901 
L 69.960612 -92.822901 
L 69.864172 -92.822901 
L 69.767732 -92.822901 
L 69.671293 -92.576554 
L 69.574853 -92.576554 
L 69.478413 -92.576554 
L 69.381974 -92.576554 
L 69.285534 -92.576554 
L 69.189094 -92.576554 
L 69.092655 -92.576554 
L 68.996215 -92.576554 
L 68.899775 -92.576554 
L 68.803336 -92.576554 
L 68.706896 -92.576554 
L 68.610456 -92.576554 
L 68.514017 -92.576554 
L 68.417577 -92.576554 
L 68.321137 -92.576554 
L 68.224698 -92.576554 
L 68.128258 -92.576554 
L 68.031818 -92.576554 
L 67.935378 -92.576554 
L 67.838939 -92.576554 
L 67.742499 -92.576554 
L 67.646059 -92.576554 
L 67.54962 -92.576554 
L 67.45318 -92.576554 
L 67.35674 -92.576554 
L 67.260301 -92.576554 
L 67.163861 -92.576554 
L 67.067421 -92.576554 
L 66.970982 -92.576554 
L 66.874542 -92.576554 
L 66.778102 -92.576554 
L 66.681663 -92.576554 
L 66.585223 -92.576554 
L 66.488783 -92.330211 
L 66.392344 -92.330211 
L 66.295904 -92.330211 
L 66.199464 -92.330211 
L 66.103025 -92.330211 
L 66.006585 -92.330211 
L 65.910145 -92.330211 
L 65.813705 -92.330211 
L 65.717266 -92.330211 
L 65.620826 -92.330211 
L 65.524386 -92.330211 
L 65.427947 -92.330211 
L 65.331507 -92.330211 
L 65.235067 -92.330211 
L 65.138628 -92.330211 
L 65.042188 -92.330211 
L 64.945748 -92.330211 
L 64.849309 -92.330211 
L 64.752869 -92.330211 
L 64.656429 -92.330211 
L 64.55999 -92.083874 
L 64.46355 -92.083874 
L 64.36711 -92.083874 
L 64.270671 -92.083874 
L 64.174231 -92.083874 
L 64.077791 -92.083874 
L 63.981352 -92.083874 
L 63.884912 -92.083874 
L 63.788472 -92.083874 
L 63.692032 -92.083874 
L 63.595593 -92.083874 
L 63.499153 -92.083874 
L 63.402713 -92.083874 
L 63.306274 -92.083874 
L 63.209834 -92.083874 
L 63.113394 -92.083874 
L 63.016955 -91.837522 
L 62.920515 -91.837522 
L 62.824075 -91.837522 
L 62.727636 -91.837522 
L 62.631196 -91.837522 
L 62.534756 -91.837522 
L 62.438317 -91.59118 
L 62.341877 -91.59118 
L 62.245437 -91.59118 
L 62.148998 -91.59118 
L 62.052558 -91.59118 
L 61.956118 -91.59118 
L 61.859679 -91.59118 
L 61.763239 -91.59118 
L 61.666799 -91.59118 
L 61.570359 -91.59118 
L 61.47392 -91.59118 
L 61.37748 -91.59118 
L 61.28104 -91.59118 
L 61.184601 -91.59118 
L 61.088161 -91.59118 
L 60.991721 -91.59118 
L 60.895282 -91.59118 
L 60.798842 -91.59118 
L 60.702402 -91.59118 
L 60.605963 -91.384244 
L 60.509523 -91.344833 
L 60.413083 -91.344833 
L 60.316644 -91.344833 
L 60.220204 -91.344833 
L 60.123764 -91.344833 
L 60.027325 -91.344833 
L 59.930885 -91.344833 
L 59.834445 -91.344833 
L 59.738006 -91.098496 
L 59.641566 -91.098496 
L 59.545126 -91.098496 
L 59.448686 -91.098496 
L 59.352247 -91.098496 
L 59.255807 -91.098496 
L 59.159367 -91.098496 
L 59.062928 -91.098496 
L 58.966488 -91.098496 
L 58.870048 -91.098496 
L 58.773609 -90.852144 
L 58.677169 -90.852144 
L 58.580729 -90.852144 
L 58.48429 -90.852144 
L 58.38785 -90.852144 
L 58.29141 -90.852144 
L 58.194971 -90.852144 
L 58.098531 -90.852144 
L 58.002091 -90.852144 
L 57.905652 -90.852144 
L 57.809212 -90.852144 
L 57.712772 -90.852144 
L 57.616333 -90.605801 
L 57.519893 -90.605801 
L 57.423453 -90.605801 
L 57.327013 -90.605801 
L 57.230574 -90.605801 
L 57.134134 -90.605801 
L 57.037694 -90.605801 
L 56.941255 -90.359454 
L 56.844815 -90.359454 
L 56.748375 -90.359454 
L 56.651936 -90.359454 
L 56.555496 -90.359454 
L 56.459056 -90.113107 
L 56.362617 -90.113107 
L 56.266177 -90.113107 
L 56.169737 -90.113107 
L 56.073298 -90.113107 
L 55.976858 -90.113107 
L 55.880418 -90.113107 
L 55.783979 -90.113107 
L 55.687539 -89.866765 
L 55.591099 -89.866765 
L 55.49466 -89.866765 
L 55.39822 -89.866765 
L 55.30178 -89.866765 
L 55.20534 -89.866765 
L 55.108901 -89.866765 
L 55.012461 -89.866765 
L 54.916021 -89.866765 
L 54.819582 -89.866765 
L 54.723142 -89.866765 
L 54.626702 -89.866765 
L 54.530263 -89.866765 
L 54.433823 -89.866765 
L 54.337383 -89.866765 
L 54.240944 -89.866765 
L 54.144504 -89.866765 
L 54.048064 -89.866765 
L 53.951625 -89.620423 
L 53.855185 -89.620423 
L 53.758745 -89.620423 
L 53.662306 -89.620423 
L 53.565866 -89.620423 
L 53.469426 -89.374081 
L 53.372987 -89.374081 
L 53.276547 -89.374081 
L 53.180107 -89.374081 
L 53.083667 -89.374081 
L 52.987228 -89.374081 
L 52.890788 -89.374081 
L 52.794348 -89.374081 
L 52.697909 -89.374081 
L 52.601469 -89.374081 
L 52.505029 -89.16714 
L 52.40859 -89.127734 
L 52.31215 -89.127734 
L 52.21571 -89.127734 
L 52.119271 -89.127734 
L 52.022831 -89.127734 
L 51.926391 -89.127734 
L 51.829952 -89.127734 
L 51.733512 -89.127734 
L 51.637072 -89.127734 
L 51.540633 -89.127734 
L 51.444193 -89.127734 
L 51.347753 -89.127734 
L 51.251314 -89.127734 
L 51.154874 -89.127734 
L 51.058434 -89.127734 
L 50.961994 -89.127734 
L 50.865555 -89.127734 
L 50.769115 -89.127734 
L 50.672675 -88.920802 
L 50.576236 -88.881391 
L 50.479796 -88.881391 
L 50.383356 -88.881391 
L 50.286917 -88.881391 
L 50.190477 -88.881391 
L 50.094037 -88.881391 
L 49.997598 -88.881391 
L 49.901158 -88.881391 
L 49.804718 -88.881391 
L 49.708279 -88.881391 
L 49.611839 -88.881391 
L 49.515399 -88.635044 
L 49.41896 -88.635044 
L 49.32252 -88.635044 
L 49.22608 -88.635044 
L 49.129641 -88.635044 
L 49.033201 -88.635044 
L 48.936761 -88.635044 
L 48.840321 -88.635044 
L 48.743882 -88.635044 
L 48.647442 -88.635044 
L 48.551002 -88.635044 
L 48.454563 -88.388702 
L 48.358123 -88.388702 
L 48.261683 -88.388702 
L 48.165244 -88.388702 
L 48.068804 -88.388702 
L 47.972364 -88.388702 
L 47.875925 -88.142355 
L 47.779485 -88.142355 
L 47.683045 -88.142355 
L 47.586606 -88.142355 
L 47.490166 -88.142355 
L 47.393726 -88.142355 
L 47.297287 -88.142355 
L 47.200847 -87.896013 
L 47.104407 -87.896013 
L 47.007968 -87.649666 
L 46.911528 -87.649666 
L 46.815088 -87.649666 
L 46.718648 -87.649666 
L 46.622209 -87.649666 
L 46.525769 -87.649666 
L 46.429329 -87.649666 
L 46.33289 -87.403323 
L 46.23645 -87.403323 
L 46.14001 -87.403323 
L 46.043571 -87.403323 
L 45.947131 -87.156976 
L 45.850691 -87.156976 
L 45.754252 -87.156976 
L 45.657812 -87.156976 
L 45.561372 -87.156976 
L 45.464933 -87.156976 
L 45.368493 -87.156976 
L 45.272053 -86.910639 
L 45.175614 -86.910639 
L 45.079174 -86.910639 
L 44.982734 -86.664292 
L 44.886295 -86.664292 
L 44.789855 -86.664292 
L 44.693415 -86.664292 
L 44.596975 -86.664292 
L 44.500536 -86.664292 
L 44.404096 -86.417945 
L 44.307656 -86.417945 
L 44.211217 -86.417945 
L 44.114777 -86.417945 
L 44.018337 -86.417945 
L 43.921898 -86.171603 
L 43.825458 -86.171603 
L 43.729018 -86.171603 
L 43.632579 -86.171603 
L 43.536139 -86.171603 
L 43.439699 -86.171603 
L 43.34326 -86.171603 
L 43.24682 -85.925251 
L 43.15038 -85.925251 
L 43.053941 -85.925251 
L 42.957501 -85.925251 
L 42.861061 -85.925251 
L 42.764622 -85.925251 
L 42.668182 -85.925251 
L 42.571742 -85.925251 
L 42.475302 -85.678913 
L 42.378863 -85.678913 
L 42.282423 -85.432566 
L 42.185983 -85.432566 
L 42.089544 -85.432566 
L 41.993104 -85.186224 
L 41.896664 -85.186224 
L 41.800225 -85.186224 
L 41.703785 -85.186224 
L 41.607345 -85.186224 
L 41.510906 -84.939872 
L 41.414466 -84.939872 
L 41.318026 -84.939872 
L 41.221587 -84.693535 
L 41.125147 -84.693535 
L 41.028707 -84.693535 
L 40.932268 -84.447193 
L 40.835828 -84.447193 
L 40.739388 -84.447193 
L 40.642948 -84.447193 
L 40.546509 -84.200846 
L 40.450069 -84.200846 
L 40.353629 -84.200846 
L 40.25719 -84.200846 
L 40.16075 -84.200846 
L 40.06431 -83.954503 
L 39.967871 -83.954503 
L 39.871431 -83.708156 
L 39.774991 -83.461814 
L 39.678552 -83.461814 
L 39.582112 -83.461814 
L 39.485672 -83.461814 
L 39.389233 -83.215467 
L 39.292793 -83.215467 
L 39.196353 -83.215467 
L 39.099914 -83.215467 
L 39.003474 -82.969125 
L 38.907034 -82.969125 
L 38.810595 -82.969125 
L 38.714155 -82.969125 
L 38.617715 -82.722783 
L 38.521275 -82.722783 
L 38.424836 -82.722783 
L 38.328396 -82.722783 
L 38.231956 -82.476436 
L 38.135517 -82.476436 
L 38.039077 -82.476436 
L 37.942637 -82.230089 
L 37.846198 -82.230089 
L 37.749758 -81.983746 
L 37.653318 -81.983746 
L 37.556879 -81.983746 
L 37.460439 -81.983746 
L 37.363999 -81.491057 
L 37.26756 -81.491057 
L 37.17112 -81.244715 
L 37.07468 -81.244715 
L 36.978241 -80.998368 
L 36.881801 -80.998368 
L 36.785361 -80.998368 
L 36.688922 -80.752026 
L 36.592482 -80.752026 
L 36.496042 -80.752026 
L 36.399602 -80.752026 
L 36.303163 -80.752026 
L 36.206723 -80.752026 
L 36.110283 -80.752026 
L 36.013844 -80.505678 
L 35.917404 -80.259336 
L 35.820964 -80.259336 
L 35.724525 -80.012989 
L 35.628085 -80.012989 
L 35.531645 -80.012989 
L 35.435206 -80.012989 
L 35.338766 -79.5203 
L 35.242326 -79.5203 
L 35.145887 -79.5203 
L 35.049447 -79.273958 
L 34.953007 -79.273958 
L 34.856568 -79.067027 
L 34.760128 -79.02762 
L 34.663688 -79.02762 
L 34.567249 -79.02762 
L 34.470809 -79.02762 
L 34.374369 -78.781268 
L 34.277929 -78.534926 
L 34.18149 -78.534926 
L 34.08505 -78.534926 
L 33.98861 -78.288579 
L 33.892171 -78.288579 
L 33.795731 -77.79589 
L 33.699291 -77.79589 
L 33.602852 -77.79589 
L 33.506412 -77.549548 
L 33.409972 -77.549548 
L 33.313533 -77.549548 
L 33.217093 -77.303201 
L 33.120653 -77.303201 
L 33.024214 -77.056858 
L 32.927774 -77.056858 
L 32.831334 -77.056858 
L 32.734895 -77.056858 
L 32.638455 -77.056858 
L 32.542015 -76.810511 
L 32.445576 -76.810511 
L 32.349136 -76.317827 
L 32.252696 -76.07148 
L 32.156256 -75.825138 
L 32.059817 -75.578791 
L 31.963377 -75.578791 
L 31.866937 -75.332448 
L 31.770498 -75.332448 
L 31.674058 -75.332448 
L 31.577618 -75.086101 
L 31.481179 -74.839759 
L 31.384739 -74.839759 
L 31.288299 -74.839759 
L 31.19186 -74.839759 
L 31.09542 -74.593412 
L 30.99898 -74.100723 
L 30.902541 -74.100723 
L 30.806101 -73.854385 
L 30.709661 -73.608038 
L 30.613222 -73.608038 
L 30.516782 -73.361691 
L 30.420342 -73.361691 
L 30.323903 -73.115349 
L 30.227463 -72.868997 
L 30.131023 -72.868997 
L 30.034583 -72.62266 
L 29.938144 -72.62266 
L 29.841704 -72.376313 
L 29.745264 -72.12997 
L 29.648825 -72.12997 
L 29.552385 -71.883623 
L 29.455945 -71.43034 
L 29.359506 -71.144592 
L 29.263066 -71.144592 
L 29.166626 -70.651903 
L 29.070187 -70.651903 
L 28.973747 -70.651903 
L 28.877307 -70.40556 
L 28.780868 -70.40556 
L 28.684428 -69.666524 
L 28.587988 -69.420182 
L 28.491549 -69.173835 
L 28.395109 -68.68115 
L 28.298669 -68.68115 
L 28.20223 -68.434803 
L 28.10579 -67.942114 
L 28.00935 -67.942114 
L 27.91291 -67.449425 
L 27.816471 -66.996147 
L 27.720031 -66.956736 
L 27.623591 -66.710393 
L 27.527152 -66.464046 
L 27.430712 -66.464046 
L 27.334272 -66.217704 
L 27.237833 -66.217704 
L 27.141393 -65.971367 
L 27.044953 -65.725015 
L 26.948514 -65.725015 
L 26.852074 -65.478673 
L 26.755634 -65.025389 
L 26.659195 -64.985978 
L 26.562755 -64.739636 
L 26.466315 -64.739636 
L 26.369876 -63.507915 
L 26.273436 -63.015226 
L 26.176996 -62.522537 
L 26.080557 -62.522537 
L 25.984117 -62.276195 
L 25.887677 -62.276195 
L 25.791237 -61.783505 
L 25.694798 -61.290816 
L 25.598358 -60.798127 
L 25.501918 -60.798127 
L 25.405479 -60.551785 
L 25.309039 -60.344849 
L 25.212599 -60.305438 
L 25.11616 -60.305438 
L 25.01972 -60.059095 
L 24.92328 -59.566406 
L 24.826841 -59.073717 
L 24.730401 -58.82737 
L 24.633961 -58.33468 
L 24.537522 -58.088338 
L 24.441082 -57.841996 
L 24.344642 -57.841996 
L 24.248203 -57.595649 
L 24.151763 -57.595649 
L 24.055323 -57.10296 
L 23.958884 -56.856617 
L 23.862444 -56.856617 
L 23.766004 -56.61027 
L 23.669564 -55.871239 
L 23.573125 -55.37855 
L 23.476685 -55.37855 
L 23.380245 -54.88586 
L 23.283806 -54.639518 
L 23.187366 -54.393171 
L 23.090926 -53.900484 
L 22.994487 -53.16145 
L 22.898047 -52.176072 
L 22.801607 -51.43704 
L 22.705168 -49.958972 
L 22.608728 -49.712625 
L 22.512288 -49.219936 
L 22.415849 -48.973596 
L 22.319409 -48.234562 
L 22.222969 -47.988218 
L 22.12653 -47.741873 
L 22.03009 -47.249184 
L 21.93365 -47.249184 
L 21.837211 -46.51015 
L 21.740771 -46.017463 
L 21.644331 -45.278429 
L 21.547891 -44.78574 
L 21.451452 -44.539395 
L 21.355012 -44.046706 
L 21.258572 -43.307675 
L 21.162133 -42.814985 
L 21.065693 -42.322296 
L 20.969253 -41.336917 
L 20.872814 -40.844231 
L 20.776374 -40.105197 
L 20.679934 -39.612507 
L 20.583495 -39.119818 
L 20.487055 -38.873473 
L 20.390615 -37.888097 
L 20.294176 -37.641753 
L 20.197736 -36.902719 
L 20.101296 -36.41003 
L 20.004857 -36.163685 
L 19.908417 -36.163685 
L 19.811977 -35.91734 
L 19.715538 -35.424653 
L 19.619098 -35.178309 
L 19.522658 -34.685619 
L 19.426218 -33.700242 
L 19.329779 -33.207553 
L 19.233339 -31.236798 
L 19.136899 -30.497764 
L 19.04046 -30.005075 
L 18.94402 -29.512387 
L 18.84758 -29.266042 
L 18.751141 -28.280665 
L 18.654701 -27.048943 
L 18.558261 -26.802598 
L 18.461822 -26.556254 
L 18.365382 -25.324532 
L 18.268942 -24.339154 
L 18.172503 -23.600121 
L 18.076063 -22.614743 
L 17.979623 -21.87571 
L 17.883184 -21.383021 
L 17.786744 -20.890332 
L 17.690304 -20.151299 
L 17.593865 -18.673233 
L 17.497425 -17.195166 
L 17.400985 -15.963444 
L 17.304545 -13.5 
z
" id="mc8da2f8cb8" style="stroke:#1f77b4;stroke-opacity:0.3;"/>
    </defs>
    <g clip-path="url(#p9750065592)">
     <use style="fill:#1f77b4;fill-opacity:0.3;stroke:#1f77b4;stroke-opacity:0.3;" x="0" xlink:href="#mc8da2f8cb8" y="108"/>
    </g>
   </g>
   <g id="matplotlib.axis_1">
    <g id="xtick_1">
     <g id="line2d_1">
      <defs>
       <path d="M 0 0 
L 0 3.5 
" id="mac828a7ba9" style="stroke:#000000;stroke-width:0.8;"/>
      </defs>
      <g>
       <use style="stroke:#000000;stroke-width:0.8;" x="36.592482" xlink:href="#mac828a7ba9" y="94.5"/>
      </g>
     </g>
     <g id="text_1">
      <!-- 200 -->
      <g transform="translate(28.957482 107.57875)scale(0.08 -0.08)">
       <defs>
        <path d="M 1228 531 
L 3431 531 
L 3431 0 
L 469 0 
L 469 531 
Q 828 903 1448 1529 
Q 2069 2156 2228 2338 
Q 2531 2678 2651 2914 
Q 2772 3150 2772 3378 
Q 2772 3750 2511 3984 
Q 2250 4219 1831 4219 
Q 1534 4219 1204 4116 
Q 875 4013 500 3803 
L 500 4441 
Q 881 4594 1212 4672 
Q 1544 4750 1819 4750 
Q 2544 4750 2975 4387 
Q 3406 4025 3406 3419 
Q 3406 3131 3298 2873 
Q 3191 2616 2906 2266 
Q 2828 2175 2409 1742 
Q 1991 1309 1228 531 
z
" id="DejaVuSans-32" transform="scale(0.015625)"/>
        <path d="M 2034 4250 
Q 1547 4250 1301 3770 
Q 1056 3291 1056 2328 
Q 1056 1369 1301 889 
Q 1547 409 2034 409 
Q 2525 409 2770 889 
Q 3016 1369 3016 2328 
Q 3016 3291 2770 3770 
Q 2525 4250 2034 4250 
z
M 2034 4750 
Q 2819 4750 3233 4129 
Q 3647 3509 3647 2328 
Q 3647 1150 3233 529 
Q 2819 -91 2034 -91 
Q 1250 -91 836 529 
Q 422 1150 422 2328 
Q 422 3509 836 4129 
Q 1250 4750 2034 4750 
z
" id="DejaVuSans-30" transform="scale(0.015625)"/>
       </defs>
       <use xlink:href="#DejaVuSans-32"/>
       <use x="63.623047" xlink:href="#DejaVuSans-30"/>
       <use x="127.246094" xlink:href="#DejaVuSans-30"/>
      </g>
     </g>
    </g>
    <g id="xtick_2">
     <g id="line2d_2">
      <g>
       <use style="stroke:#000000;stroke-width:0.8;" x="55.880418" xlink:href="#mac828a7ba9" y="94.5"/>
      </g>
     </g>
     <g id="text_2">
      <!-- 400 -->
      <g transform="translate(48.245418 107.57875)scale(0.08 -0.08)">
       <defs>
        <path d="M 2419 4116 
L 825 1625 
L 2419 1625 
L 2419 4116 
z
M 2253 4666 
L 3047 4666 
L 3047 1625 
L 3713 1625 
L 3713 1100 
L 3047 1100 
L 3047 0 
L 2419 0 
L 2419 1100 
L 313 1100 
L 313 1709 
L 2253 4666 
z
" id="DejaVuSans-34" transform="scale(0.015625)"/>
       </defs>
       <use xlink:href="#DejaVuSans-34"/>
       <use x="63.623047" xlink:href="#DejaVuSans-30"/>
       <use x="127.246094" xlink:href="#DejaVuSans-30"/>
      </g>
     </g>
    </g>
    <g id="xtick_3">
     <g id="line2d_3">
      <g>
       <use style="stroke:#000000;stroke-width:0.8;" x="75.168355" xlink:href="#mac828a7ba9" y="94.5"/>
      </g>
     </g>
     <g id="text_3">
      <!-- 600 -->
      <g transform="translate(67.533355 107.57875)scale(0.08 -0.08)">
       <defs>
        <path d="M 2113 2584 
Q 1688 2584 1439 2293 
Q 1191 2003 1191 1497 
Q 1191 994 1439 701 
Q 1688 409 2113 409 
Q 2538 409 2786 701 
Q 3034 994 3034 1497 
Q 3034 2003 2786 2293 
Q 2538 2584 2113 2584 
z
M 3366 4563 
L 3366 3988 
Q 3128 4100 2886 4159 
Q 2644 4219 2406 4219 
Q 1781 4219 1451 3797 
Q 1122 3375 1075 2522 
Q 1259 2794 1537 2939 
Q 1816 3084 2150 3084 
Q 2853 3084 3261 2657 
Q 3669 2231 3669 1497 
Q 3669 778 3244 343 
Q 2819 -91 2113 -91 
Q 1303 -91 875 529 
Q 447 1150 447 2328 
Q 447 3434 972 4092 
Q 1497 4750 2381 4750 
Q 2619 4750 2861 4703 
Q 3103 4656 3366 4563 
z
" id="DejaVuSans-36" transform="scale(0.015625)"/>
       </defs>
       <use xlink:href="#DejaVuSans-36"/>
       <use x="63.623047" xlink:href="#DejaVuSans-30"/>
       <use x="127.246094" xlink:href="#DejaVuSans-30"/>
      </g>
     </g>
    </g>
    <g id="text_4">
     <!-- Frame -->
     <g transform="translate(42.88625 119.32125)scale(0.08 -0.08)">
      <defs>
       <path d="M 628 4666 
L 3309 4666 
L 3309 4134 
L 1259 4134 
L 1259 2759 
L 3109 2759 
L 3109 2228 
L 1259 2228 
L 1259 0 
L 628 0 
L 628 4666 
z
" id="DejaVuSans-46" transform="scale(0.015625)"/>
       <path d="M 2631 2963 
Q 2534 3019 2420 3045 
Q 2306 3072 2169 3072 
Q 1681 3072 1420 2755 
Q 1159 2438 1159 1844 
L 1159 0 
L 581 0 
L 581 3500 
L 1159 3500 
L 1159 2956 
Q 1341 3275 1631 3429 
Q 1922 3584 2338 3584 
Q 2397 3584 2469 3576 
Q 2541 3569 2628 3553 
L 2631 2963 
z
" id="DejaVuSans-72" transform="scale(0.015625)"/>
       <path d="M 2194 1759 
Q 1497 1759 1228 1600 
Q 959 1441 959 1056 
Q 959 750 1161 570 
Q 1363 391 1709 391 
Q 2188 391 2477 730 
Q 2766 1069 2766 1631 
L 2766 1759 
L 2194 1759 
z
M 3341 1997 
L 3341 0 
L 2766 0 
L 2766 531 
Q 2569 213 2275 61 
Q 1981 -91 1556 -91 
Q 1019 -91 701 211 
Q 384 513 384 1019 
Q 384 1609 779 1909 
Q 1175 2209 1959 2209 
L 2766 2209 
L 2766 2266 
Q 2766 2663 2505 2880 
Q 2244 3097 1772 3097 
Q 1472 3097 1187 3025 
Q 903 2953 641 2809 
L 641 3341 
Q 956 3463 1253 3523 
Q 1550 3584 1831 3584 
Q 2591 3584 2966 3190 
Q 3341 2797 3341 1997 
z
" id="DejaVuSans-61" transform="scale(0.015625)"/>
       <path d="M 3328 2828 
Q 3544 3216 3844 3400 
Q 4144 3584 4550 3584 
Q 5097 3584 5394 3201 
Q 5691 2819 5691 2113 
L 5691 0 
L 5113 0 
L 5113 2094 
Q 5113 2597 4934 2840 
Q 4756 3084 4391 3084 
Q 3944 3084 3684 2787 
Q 3425 2491 3425 1978 
L 3425 0 
L 2847 0 
L 2847 2094 
Q 2847 2600 2669 2842 
Q 2491 3084 2119 3084 
Q 1678 3084 1418 2786 
Q 1159 2488 1159 1978 
L 1159 0 
L 581 0 
L 581 3500 
L 1159 3500 
L 1159 2956 
Q 1356 3278 1631 3431 
Q 1906 3584 2284 3584 
Q 2666 3584 2933 3390 
Q 3200 3197 3328 2828 
z
" id="DejaVuSans-6d" transform="scale(0.015625)"/>
       <path d="M 3597 1894 
L 3597 1613 
L 953 1613 
Q 991 1019 1311 708 
Q 1631 397 2203 397 
Q 2534 397 2845 478 
Q 3156 559 3463 722 
L 3463 178 
Q 3153 47 2828 -22 
Q 2503 -91 2169 -91 
Q 1331 -91 842 396 
Q 353 884 353 1716 
Q 353 2575 817 3079 
Q 1281 3584 2069 3584 
Q 2775 3584 3186 3129 
Q 3597 2675 3597 1894 
z
M 3022 2063 
Q 3016 2534 2758 2815 
Q 2500 3097 2075 3097 
Q 1594 3097 1305 2825 
Q 1016 2553 972 2059 
L 3022 2063 
z
" id="DejaVuSans-65" transform="scale(0.015625)"/>
      </defs>
      <use xlink:href="#DejaVuSans-46"/>
      <use x="50.269531" xlink:href="#DejaVuSans-72"/>
      <use x="91.382812" xlink:href="#DejaVuSans-61"/>
      <use x="152.662109" xlink:href="#DejaVuSans-6d"/>
      <use x="250.074219" xlink:href="#DejaVuSans-65"/>
     </g>
    </g>
   </g>
   <g id="matplotlib.axis_2">
    <g id="ytick_1">
     <g id="line2d_4">
      <defs>
       <path d="M 0 0 
L -3.5 0 
" id="mf76f754de2" style="stroke:#000000;stroke-width:0.8;"/>
      </defs>
      <g>
       <use style="stroke:#000000;stroke-width:0.8;" x="13.5" xlink:href="#mf76f754de2" y="94.5"/>
      </g>
     </g>
     <g id="text_5">
      <!-- 0 -->
      <g transform="translate(1.41 97.539375)scale(0.08 -0.08)">
       <use xlink:href="#DejaVuSans-30"/>
      </g>
     </g>
    </g>
    <g id="ytick_2">
     <g id="line2d_5">
      <g>
       <use style="stroke:#000000;stroke-width:0.8;" x="13.5" xlink:href="#mf76f754de2" y="74.115"/>
      </g>
     </g>
     <g id="text_6">
      <!-- 0.25 -->
      <g transform="translate(-11.3125 77.154375)scale(0.08 -0.08)">
       <defs>
        <path d="M 684 794 
L 1344 794 
L 1344 0 
L 684 0 
L 684 794 
z
" id="DejaVuSans-2e" transform="scale(0.015625)"/>
        <path d="M 691 4666 
L 3169 4666 
L 3169 4134 
L 1269 4134 
L 1269 2991 
Q 1406 3038 1543 3061 
Q 1681 3084 1819 3084 
Q 2600 3084 3056 2656 
Q 3513 2228 3513 1497 
Q 3513 744 3044 326 
Q 2575 -91 1722 -91 
Q 1428 -91 1123 -41 
Q 819 9 494 109 
L 494 744 
Q 775 591 1075 516 
Q 1375 441 1709 441 
Q 2250 441 2565 725 
Q 2881 1009 2881 1497 
Q 2881 1984 2565 2268 
Q 2250 2553 1709 2553 
Q 1456 2553 1204 2497 
Q 953 2441 691 2322 
L 691 4666 
z
" id="DejaVuSans-35" transform="scale(0.015625)"/>
       </defs>
       <use xlink:href="#DejaVuSans-30"/>
       <use x="63.623047" xlink:href="#DejaVuSans-2e"/>
       <use x="95.410156" xlink:href="#DejaVuSans-32"/>
       <use x="159.033203" xlink:href="#DejaVuSans-35"/>
      </g>
     </g>
    </g>
    <g id="ytick_3">
     <g id="line2d_6">
      <g>
       <use style="stroke:#000000;stroke-width:0.8;" x="13.5" xlink:href="#mf76f754de2" y="53.73"/>
      </g>
     </g>
     <g id="text_7">
      <!-- 0.5 -->
      <g transform="translate(-6.2225 56.769375)scale(0.08 -0.08)">
       <use xlink:href="#DejaVuSans-30"/>
       <use x="63.623047" xlink:href="#DejaVuSans-2e"/>
       <use x="95.410156" xlink:href="#DejaVuSans-35"/>
      </g>
     </g>
    </g>
    <g id="ytick_4">
     <g id="line2d_7">
      <g>
       <use style="stroke:#000000;stroke-width:0.8;" x="13.5" xlink:href="#mf76f754de2" y="33.345"/>
      </g>
     </g>
     <g id="text_8">
      <!-- 0.75 -->
      <g transform="translate(-11.3125 36.384375)scale(0.08 -0.08)">
       <defs>
        <path d="M 525 4666 
L 3525 4666 
L 3525 4397 
L 1831 0 
L 1172 0 
L 2766 4134 
L 525 4134 
L 525 4666 
z
" id="DejaVuSans-37" transform="scale(0.015625)"/>
       </defs>
       <use xlink:href="#DejaVuSans-30"/>
       <use x="63.623047" xlink:href="#DejaVuSans-2e"/>
       <use x="95.410156" xlink:href="#DejaVuSans-37"/>
       <use x="159.033203" xlink:href="#DejaVuSans-35"/>
      </g>
     </g>
    </g>
    <g id="ytick_5">
     <g id="line2d_8">
      <g>
       <use style="stroke:#000000;stroke-width:0.8;" x="13.5" xlink:href="#mf76f754de2" y="12.96"/>
      </g>
     </g>
     <g id="text_9">
      <!-- 1 -->
      <g transform="translate(1.41 15.999375)scale(0.08 -0.08)">
       <defs>
        <path d="M 794 531 
L 1825 531 
L 1825 4091 
L 703 3866 
L 703 4441 
L 1819 4666 
L 2450 4666 
L 2450 531 
L 3481 531 
L 3481 0 
L 794 0 
L 794 531 
z
" id="DejaVuSans-31" transform="scale(0.015625)"/>
       </defs>
       <use xlink:href="#DejaVuSans-31"/>
      </g>
     </g>
    </g>
    <g id="text_10">
     <!-- Fraction bound -->
     <g transform="translate(-16.97625 83.565)rotate(-90)scale(0.08 -0.08)">
      <defs>
       <path d="M 3122 3366 
L 3122 2828 
Q 2878 2963 2633 3030 
Q 2388 3097 2138 3097 
Q 1578 3097 1268 2742 
Q 959 2388 959 1747 
Q 959 1106 1268 751 
Q 1578 397 2138 397 
Q 2388 397 2633 464 
Q 2878 531 3122 666 
L 3122 134 
Q 2881 22 2623 -34 
Q 2366 -91 2075 -91 
Q 1284 -91 818 406 
Q 353 903 353 1747 
Q 353 2603 823 3093 
Q 1294 3584 2113 3584 
Q 2378 3584 2631 3529 
Q 2884 3475 3122 3366 
z
" id="DejaVuSans-63" transform="scale(0.015625)"/>
       <path d="M 1172 4494 
L 1172 3500 
L 2356 3500 
L 2356 3053 
L 1172 3053 
L 1172 1153 
Q 1172 725 1289 603 
Q 1406 481 1766 481 
L 2356 481 
L 2356 0 
L 1766 0 
Q 1100 0 847 248 
Q 594 497 594 1153 
L 594 3053 
L 172 3053 
L 172 3500 
L 594 3500 
L 594 4494 
L 1172 4494 
z
" id="DejaVuSans-74" transform="scale(0.015625)"/>
       <path d="M 603 3500 
L 1178 3500 
L 1178 0 
L 603 0 
L 603 3500 
z
M 603 4863 
L 1178 4863 
L 1178 4134 
L 603 4134 
L 603 4863 
z
" id="DejaVuSans-69" transform="scale(0.015625)"/>
       <path d="M 1959 3097 
Q 1497 3097 1228 2736 
Q 959 2375 959 1747 
Q 959 1119 1226 758 
Q 1494 397 1959 397 
Q 2419 397 2687 759 
Q 2956 1122 2956 1747 
Q 2956 2369 2687 2733 
Q 2419 3097 1959 3097 
z
M 1959 3584 
Q 2709 3584 3137 3096 
Q 3566 2609 3566 1747 
Q 3566 888 3137 398 
Q 2709 -91 1959 -91 
Q 1206 -91 779 398 
Q 353 888 353 1747 
Q 353 2609 779 3096 
Q 1206 3584 1959 3584 
z
" id="DejaVuSans-6f" transform="scale(0.015625)"/>
       <path d="M 3513 2113 
L 3513 0 
L 2938 0 
L 2938 2094 
Q 2938 2591 2744 2837 
Q 2550 3084 2163 3084 
Q 1697 3084 1428 2787 
Q 1159 2491 1159 1978 
L 1159 0 
L 581 0 
L 581 3500 
L 1159 3500 
L 1159 2956 
Q 1366 3272 1645 3428 
Q 1925 3584 2291 3584 
Q 2894 3584 3203 3211 
Q 3513 2838 3513 2113 
z
" id="DejaVuSans-6e" transform="scale(0.015625)"/>
       <path id="DejaVuSans-20" transform="scale(0.015625)"/>
       <path d="M 3116 1747 
Q 3116 2381 2855 2742 
Q 2594 3103 2138 3103 
Q 1681 3103 1420 2742 
Q 1159 2381 1159 1747 
Q 1159 1113 1420 752 
Q 1681 391 2138 391 
Q 2594 391 2855 752 
Q 3116 1113 3116 1747 
z
M 1159 2969 
Q 1341 3281 1617 3432 
Q 1894 3584 2278 3584 
Q 2916 3584 3314 3078 
Q 3713 2572 3713 1747 
Q 3713 922 3314 415 
Q 2916 -91 2278 -91 
Q 1894 -91 1617 61 
Q 1341 213 1159 525 
L 1159 0 
L 581 0 
L 581 4863 
L 1159 4863 
L 1159 2969 
z
" id="DejaVuSans-62" transform="scale(0.015625)"/>
       <path d="M 544 1381 
L 544 3500 
L 1119 3500 
L 1119 1403 
Q 1119 906 1312 657 
Q 1506 409 1894 409 
Q 2359 409 2629 706 
Q 2900 1003 2900 1516 
L 2900 3500 
L 3475 3500 
L 3475 0 
L 2900 0 
L 2900 538 
Q 2691 219 2414 64 
Q 2138 -91 1772 -91 
Q 1169 -91 856 284 
Q 544 659 544 1381 
z
M 1991 3584 
L 1991 3584 
z
" id="DejaVuSans-75" transform="scale(0.015625)"/>
       <path d="M 2906 2969 
L 2906 4863 
L 3481 4863 
L 3481 0 
L 2906 0 
L 2906 525 
Q 2725 213 2448 61 
Q 2172 -91 1784 -91 
Q 1150 -91 751 415 
Q 353 922 353 1747 
Q 353 2572 751 3078 
Q 1150 3584 1784 3584 
Q 2172 3584 2448 3432 
Q 2725 3281 2906 2969 
z
M 947 1747 
Q 947 1113 1208 752 
Q 1469 391 1925 391 
Q 2381 391 2643 752 
Q 2906 1113 2906 1747 
Q 2906 2381 2643 2742 
Q 2381 3103 1925 3103 
Q 1469 3103 1208 2742 
Q 947 2381 947 1747 
z
" id="DejaVuSans-64" transform="scale(0.015625)"/>
      </defs>
      <use xlink:href="#DejaVuSans-46"/>
      <use x="50.269531" xlink:href="#DejaVuSans-72"/>
      <use x="91.382812" xlink:href="#DejaVuSans-61"/>
      <use x="152.662109" xlink:href="#DejaVuSans-63"/>
      <use x="207.642578" xlink:href="#DejaVuSans-74"/>
      <use x="246.851562" xlink:href="#DejaVuSans-69"/>
      <use x="274.634766" xlink:href="#DejaVuSans-6f"/>
      <use x="335.816406" xlink:href="#DejaVuSans-6e"/>
      <use x="399.195312" xlink:href="#DejaVuSans-20"/>
      <use x="430.982422" xlink:href="#DejaVuSans-62"/>
      <use x="494.458984" xlink:href="#DejaVuSans-6f"/>
      <use x="555.640625" xlink:href="#DejaVuSans-75"/>
      <use x="619.019531" xlink:href="#DejaVuSans-6e"/>
      <use x="682.398438" xlink:href="#DejaVuSans-64"/>
     </g>
    </g>
   </g>
   <g id="line2d_9">
    <path clip-path="url(#p9750065592)" d="M 17.304545 94.5 
L 17.690304 88.291875 
L 18.558261 81.846272 
L 18.654701 81.649936 
L 18.94402 79.236253 
L 19.233339 77.574909 
L 19.522658 74.23029 
L 20.004857 72.718967 
L 20.101296 72.534699 
L 20.969253 67.710538 
L 21.355012 64.976854 
L 21.644331 63.930138 
L 21.93365 61.9786 
L 22.03009 61.894843 
L 22.705168 59.186038 
L 22.994487 56.04736 
L 23.283806 54.465831 
L 23.380245 54.39513 
L 23.862444 52.426096 
L 23.958884 52.335444 
L 24.344642 51.457475 
L 24.633961 50.863291 
L 25.11616 49.046251 
L 25.598358 48.402557 
L 25.887677 47.019335 
L 26.080557 46.874979 
L 26.273436 46.310354 
L 26.755634 44.152379 
L 26.948514 43.589479 
L 27.044953 43.540455 
L 27.237833 43.165761 
L 27.334272 43.051455 
L 27.527152 42.707068 
L 27.623591 42.650899 
L 28.00935 41.33346 
L 28.10579 41.208806 
L 28.587988 39.7842 
L 28.684428 39.519132 
L 28.877307 38.8168 
L 29.455945 37.670307 
L 29.648825 37.135256 
L 29.745264 37.114076 
L 30.034583 36.509296 
L 30.806101 35.421189 
L 31.288299 34.427689 
L 31.481179 34.245146 
L 31.577618 34.13725 
L 31.770498 33.780048 
L 31.963377 33.692599 
L 32.349136 32.870045 
L 32.542015 32.17807 
L 33.024214 32.010555 
L 33.217093 31.744014 
L 33.795731 31.360698 
L 33.98861 30.862341 
L 34.18149 30.621656 
L 34.277929 30.602201 
L 34.567249 30.115665 
L 35.049447 29.852327 
L 35.628085 29.015008 
L 35.820964 28.873854 
L 36.496042 28.244935 
L 36.881801 28.139494 
L 37.556879 27.059031 
L 37.942637 26.871069 
L 38.135517 26.606501 
L 38.617715 26.313846 
L 38.810595 26.01724 
L 39.099914 25.899979 
L 39.292793 25.715225 
L 39.389233 25.690336 
L 39.582112 25.529965 
L 39.871431 25.257505 
L 40.06431 25.100584 
L 40.353629 24.68993 
L 40.739388 24.535469 
L 41.125147 24.365752 
L 41.510906 23.886856 
L 41.993104 23.705552 
L 42.185983 23.489999 
L 42.282423 23.467579 
L 42.571742 23.104958 
L 42.668182 23.098552 
L 42.861061 22.892851 
L 43.729018 22.698726 
L 43.921898 22.595258 
L 44.307656 22.410504 
L 44.886295 22.323794 
L 45.175614 21.919049 
L 45.850691 21.661874 
L 45.947131 21.654977 
L 46.14001 21.485741 
L 46.33289 21.453718 
L 46.525769 21.287928 
L 47.007968 21.153666 
L 47.490166 20.603573 
L 47.875925 20.568837 
L 48.068804 20.393191 
L 49.41896 20.204491 
L 49.708279 20.018502 
L 52.890788 19.526804 
L 53.083667 19.338594 
L 53.855185 19.208779 
L 54.530263 19.032895 
L 56.555496 18.564103 
L 57.230574 18.239653 
L 57.616333 18.088643 
L 57.809212 17.945273 
L 57.905652 17.943295 
L 58.098531 17.819385 
L 59.738006 17.632405 
L 60.027325 17.344674 
L 61.570359 17.174203 
L 61.763239 17.066551 
L 62.920515 16.821939 
L 63.692032 16.528555 
L 65.910145 16.323845 
L 68.706896 15.990535 
L 69.671293 15.95334 
L 69.864172 15.836565 
L 71.503647 15.66782 
L 72.757363 15.56288 
L 73.239561 15.541446 
L 73.43244 15.411126 
L 83.365728 14.781458 
L 83.558607 14.647444 
L 88.284151 14.356762 
L 93.395455 14.221781 
L 93.395455 14.221781 
" style="fill:none;stroke:#1f77b4;stroke-linecap:square;stroke-width:1.5;"/>
   </g>
   <g id="line2d_10">
    <path clip-path="url(#p9750065592)" d="M 17.304545 92.429968 
L 18.654701 81.45956 
L 20.004857 72.285722 
L 21.355012 64.590204 
L 22.705168 58.113446 
L 24.055323 52.643467 
L 25.501918 47.703666 
L 26.948514 43.54742 
L 28.395109 40.034334 
L 29.938144 36.868181 
L 31.481179 34.193239 
L 33.120653 31.789699 
L 34.856568 29.644569 
L 36.688922 27.739784 
L 38.617715 26.054241 
L 40.739388 24.500879 
L 43.053941 23.089041 
L 45.561372 21.818764 
L 48.454563 20.610499 
L 51.733512 19.493804 
L 55.49466 18.459425 
L 59.834445 17.507052 
L 64.849309 16.64118 
L 70.732129 15.857162 
L 77.675786 15.161707 
L 86.066039 14.553856 
L 93.395455 14.169286 
L 93.395455 14.169286 
" style="fill:none;stroke:#000000;stroke-linecap:square;stroke-width:1.5;"/>
   </g>
   <g id="patch_3">
    <path d="M 13.5 94.5 
L 13.5 12.96 
" style="fill:none;stroke:#000000;stroke-linecap:square;stroke-linejoin:miter;stroke-width:0.8;"/>
   </g>
   <g id="patch_4">
    <path d="M 97.2 94.5 
L 97.2 12.96 
" style="fill:none;stroke:#000000;stroke-linecap:square;stroke-linejoin:miter;stroke-width:0.8;"/>
   </g>
   <g id="patch_5">
    <path d="M 13.5 94.5 
L 97.2 94.5 
" style="fill:none;stroke:#000000;stroke-linecap:square;stroke-linejoin:miter;stroke-width:0.8;"/>
   </g>
   <g id="patch_6">
    <path d="M 13.5 12.96 
L 97.2 12.96 
" style="fill:none;stroke:#000000;stroke-linecap:square;stroke-linejoin:miter;stroke-width:0.8;"/>
   </g>
  </g>
 </g>
 <defs>
  <clipPath id="p9750065592">
   <rect height="81.54" width="83.7" x="13.5" y="12.96"/>
  </clipPath>
 </defs>
</svg>
