<?xml version="1.0" encoding="utf-8" standalone="no"?>
<!DOCTYPE svg PUBLIC "-//W3C//DTD SVG 1.1//EN"
  "http://www.w3.org/Graphics/SVG/1.1/DTD/svg11.dtd">
<svg height="144pt" version="1.1" viewBox="0 0 144 144" width="144pt" xmlns="http://www.w3.org/2000/svg" xmlns:xlink="http://www.w3.org/1999/xlink">
 <metadata>
  <rdf:RDF xmlns:cc="http://creativecommons.org/ns#" xmlns:dc="http://purl.org/dc/elements/1.1/" xmlns:rdf="http://www.w3.org/1999/02/22-rdf-syntax-ns#">
   <cc:Work>
    <dc:type rdf:resource="http://purl.org/dc/dcmitype/StillImage"/>
    <dc:date>2021-07-29T15:58:53.451199</dc:date>
    <dc:format>image/svg+xml</dc:format>
    <dc:creator>
     <cc:Agent>
      <dc:title>Matplotlib v3.4.2, https://matplotlib.org/</dc:title>
     </cc:Agent>
    </dc:creator>
   </cc:Work>
  </rdf:RDF>
 </metadata>
 <defs>
  <style type="text/css">*{stroke-linecap:butt;stroke-linejoin:round;}</style>
 </defs>
 <g id="figure_1">
  <g id="patch_1">
   <path d="M 0 144 
L 144 144 
L 144 0 
L 0 0 
z
" style="fill:none;"/>
  </g>
  <g id="axes_1">
   <g id="patch_2">
    <path d="M 18 126 
L 129.6 126 
L 129.6 17.28 
L 18 17.28 
z
" style="fill:#ffffff;"/>
   </g>
   <g id="matplotlib.axis_1">
    <g id="xtick_1">
     <g id="line2d_1">
      <defs>
       <path d="M 0 0 
L 0 3.5 
" id="mccfd94d734" style="stroke:#000000;stroke-width:0.8;"/>
      </defs>
      <g>
       <use style="stroke:#000000;stroke-width:0.8;" x="18" xlink:href="#mccfd94d734" y="126"/>
      </g>
     </g>
     <g id="text_1">
      <!-- 0 -->
      <g transform="translate(15.455 139.07875)scale(0.08 -0.08)">
       <defs>
        <path d="M 2034 4250 
Q 1547 4250 1301 3770 
Q 1056 3291 1056 2328 
Q 1056 1369 1301 889 
Q 1547 409 2034 409 
Q 2525 409 2770 889 
Q 3016 1369 3016 2328 
Q 3016 3291 2770 3770 
Q 2525 4250 2034 4250 
z
M 2034 4750 
Q 2819 4750 3233 4129 
Q 3647 3509 3647 2328 
Q 3647 1150 3233 529 
Q 2819 -91 2034 -91 
Q 1250 -91 836 529 
Q 422 1150 422 2328 
Q 422 3509 836 4129 
Q 1250 4750 2034 4750 
z
" id="DejaVuSans-30" transform="scale(0.015625)"/>
       </defs>
       <use xlink:href="#DejaVuSans-30"/>
      </g>
     </g>
    </g>
    <g id="xtick_2">
     <g id="line2d_2">
      <g>
       <use style="stroke:#000000;stroke-width:0.8;" x="43.363636" xlink:href="#mccfd94d734" y="126"/>
      </g>
     </g>
     <g id="text_2">
      <!-- 0.25 -->
      <g transform="translate(34.457386 139.07875)scale(0.08 -0.08)">
       <defs>
        <path d="M 684 794 
L 1344 794 
L 1344 0 
L 684 0 
L 684 794 
z
" id="DejaVuSans-2e" transform="scale(0.015625)"/>
        <path d="M 1228 531 
L 3431 531 
L 3431 0 
L 469 0 
L 469 531 
Q 828 903 1448 1529 
Q 2069 2156 2228 2338 
Q 2531 2678 2651 2914 
Q 2772 3150 2772 3378 
Q 2772 3750 2511 3984 
Q 2250 4219 1831 4219 
Q 1534 4219 1204 4116 
Q 875 4013 500 3803 
L 500 4441 
Q 881 4594 1212 4672 
Q 1544 4750 1819 4750 
Q 2544 4750 2975 4387 
Q 3406 4025 3406 3419 
Q 3406 3131 3298 2873 
Q 3191 2616 2906 2266 
Q 2828 2175 2409 1742 
Q 1991 1309 1228 531 
z
" id="DejaVuSans-32" transform="scale(0.015625)"/>
        <path d="M 691 4666 
L 3169 4666 
L 3169 4134 
L 1269 4134 
L 1269 2991 
Q 1406 3038 1543 3061 
Q 1681 3084 1819 3084 
Q 2600 3084 3056 2656 
Q 3513 2228 3513 1497 
Q 3513 744 3044 326 
Q 2575 -91 1722 -91 
Q 1428 -91 1123 -41 
Q 819 9 494 109 
L 494 744 
Q 775 591 1075 516 
Q 1375 441 1709 441 
Q 2250 441 2565 725 
Q 2881 1009 2881 1497 
Q 2881 1984 2565 2268 
Q 2250 2553 1709 2553 
Q 1456 2553 1204 2497 
Q 953 2441 691 2322 
L 691 4666 
z
" id="DejaVuSans-35" transform="scale(0.015625)"/>
       </defs>
       <use xlink:href="#DejaVuSans-30"/>
       <use x="63.623047" xlink:href="#DejaVuSans-2e"/>
       <use x="95.410156" xlink:href="#DejaVuSans-32"/>
       <use x="159.033203" xlink:href="#DejaVuSans-35"/>
      </g>
     </g>
    </g>
    <g id="xtick_3">
     <g id="line2d_3">
      <g>
       <use style="stroke:#000000;stroke-width:0.8;" x="68.727273" xlink:href="#mccfd94d734" y="126"/>
      </g>
     </g>
     <g id="text_3">
      <!-- 0.5 -->
      <g transform="translate(62.366023 139.07875)scale(0.08 -0.08)">
       <use xlink:href="#DejaVuSans-30"/>
       <use x="63.623047" xlink:href="#DejaVuSans-2e"/>
       <use x="95.410156" xlink:href="#DejaVuSans-35"/>
      </g>
     </g>
    </g>
    <g id="xtick_4">
     <g id="line2d_4">
      <g>
       <use style="stroke:#000000;stroke-width:0.8;" x="94.090909" xlink:href="#mccfd94d734" y="126"/>
      </g>
     </g>
     <g id="text_4">
      <!-- 0.75 -->
      <g transform="translate(85.184659 139.07875)scale(0.08 -0.08)">
       <defs>
        <path d="M 525 4666 
L 3525 4666 
L 3525 4397 
L 1831 0 
L 1172 0 
L 2766 4134 
L 525 4134 
L 525 4666 
z
" id="DejaVuSans-37" transform="scale(0.015625)"/>
       </defs>
       <use xlink:href="#DejaVuSans-30"/>
       <use x="63.623047" xlink:href="#DejaVuSans-2e"/>
       <use x="95.410156" xlink:href="#DejaVuSans-37"/>
       <use x="159.033203" xlink:href="#DejaVuSans-35"/>
      </g>
     </g>
    </g>
    <g id="xtick_5">
     <g id="line2d_5">
      <g>
       <use style="stroke:#000000;stroke-width:0.8;" x="119.454545" xlink:href="#mccfd94d734" y="126"/>
      </g>
     </g>
     <g id="text_5">
      <!-- 1 -->
      <g transform="translate(116.909545 139.07875)scale(0.08 -0.08)">
       <defs>
        <path d="M 794 531 
L 1825 531 
L 1825 4091 
L 703 3866 
L 703 4441 
L 1819 4666 
L 2450 4666 
L 2450 531 
L 3481 531 
L 3481 0 
L 794 0 
L 794 531 
z
" id="DejaVuSans-31" transform="scale(0.015625)"/>
       </defs>
       <use xlink:href="#DejaVuSans-31"/>
      </g>
     </g>
    </g>
    <g id="text_6">
     <!-- $\lambda$ (true) -->
     <g transform="translate(55.1 152.340937)scale(0.1 -0.1)">
      <defs>
       <path d="M 325 109 
Q 325 203 409 288 
L 2209 2053 
L 1575 3834 
Q 1500 4038 1417 4156 
Q 1334 4275 1178 4275 
Q 1106 4275 1106 4359 
Q 1113 4397 1138 4419 
Q 1163 4441 1203 4441 
Q 1875 4441 2016 4044 
L 3316 416 
Q 3400 144 3488 50 
Q 3519 3 3519 -13 
Q 3519 -72 3469 -72 
L 3122 -72 
Q 2963 -25 2869 206 
L 2284 1844 
L 738 25 
Q 622 -84 531 -84 
Q 450 -84 387 -28 
Q 325 28 325 109 
z
" id="Cmmi10-b8" transform="scale(0.015625)"/>
       <path id="DejaVuSans-20" transform="scale(0.015625)"/>
       <path d="M 1984 4856 
Q 1566 4138 1362 3434 
Q 1159 2731 1159 2009 
Q 1159 1288 1364 580 
Q 1569 -128 1984 -844 
L 1484 -844 
Q 1016 -109 783 600 
Q 550 1309 550 2009 
Q 550 2706 781 3412 
Q 1013 4119 1484 4856 
L 1984 4856 
z
" id="DejaVuSans-28" transform="scale(0.015625)"/>
       <path d="M 1172 4494 
L 1172 3500 
L 2356 3500 
L 2356 3053 
L 1172 3053 
L 1172 1153 
Q 1172 725 1289 603 
Q 1406 481 1766 481 
L 2356 481 
L 2356 0 
L 1766 0 
Q 1100 0 847 248 
Q 594 497 594 1153 
L 594 3053 
L 172 3053 
L 172 3500 
L 594 3500 
L 594 4494 
L 1172 4494 
z
" id="DejaVuSans-74" transform="scale(0.015625)"/>
       <path d="M 2631 2963 
Q 2534 3019 2420 3045 
Q 2306 3072 2169 3072 
Q 1681 3072 1420 2755 
Q 1159 2438 1159 1844 
L 1159 0 
L 581 0 
L 581 3500 
L 1159 3500 
L 1159 2956 
Q 1341 3275 1631 3429 
Q 1922 3584 2338 3584 
Q 2397 3584 2469 3576 
Q 2541 3569 2628 3553 
L 2631 2963 
z
" id="DejaVuSans-72" transform="scale(0.015625)"/>
       <path d="M 544 1381 
L 544 3500 
L 1119 3500 
L 1119 1403 
Q 1119 906 1312 657 
Q 1506 409 1894 409 
Q 2359 409 2629 706 
Q 2900 1003 2900 1516 
L 2900 3500 
L 3475 3500 
L 3475 0 
L 2900 0 
L 2900 538 
Q 2691 219 2414 64 
Q 2138 -91 1772 -91 
Q 1169 -91 856 284 
Q 544 659 544 1381 
z
M 1991 3584 
L 1991 3584 
z
" id="DejaVuSans-75" transform="scale(0.015625)"/>
       <path d="M 3597 1894 
L 3597 1613 
L 953 1613 
Q 991 1019 1311 708 
Q 1631 397 2203 397 
Q 2534 397 2845 478 
Q 3156 559 3463 722 
L 3463 178 
Q 3153 47 2828 -22 
Q 2503 -91 2169 -91 
Q 1331 -91 842 396 
Q 353 884 353 1716 
Q 353 2575 817 3079 
Q 1281 3584 2069 3584 
Q 2775 3584 3186 3129 
Q 3597 2675 3597 1894 
z
M 3022 2063 
Q 3016 2534 2758 2815 
Q 2500 3097 2075 3097 
Q 1594 3097 1305 2825 
Q 1016 2553 972 2059 
L 3022 2063 
z
" id="DejaVuSans-65" transform="scale(0.015625)"/>
       <path d="M 513 4856 
L 1013 4856 
Q 1481 4119 1714 3412 
Q 1947 2706 1947 2009 
Q 1947 1309 1714 600 
Q 1481 -109 1013 -844 
L 513 -844 
Q 928 -128 1133 580 
Q 1338 1288 1338 2009 
Q 1338 2731 1133 3434 
Q 928 4138 513 4856 
z
" id="DejaVuSans-29" transform="scale(0.015625)"/>
      </defs>
      <use transform="translate(0 0.125)" xlink:href="#Cmmi10-b8"/>
      <use transform="translate(58.300781 0.125)" xlink:href="#DejaVuSans-20"/>
      <use transform="translate(90.087891 0.125)" xlink:href="#DejaVuSans-28"/>
      <use transform="translate(129.101562 0.125)" xlink:href="#DejaVuSans-74"/>
      <use transform="translate(168.310547 0.125)" xlink:href="#DejaVuSans-72"/>
      <use transform="translate(209.423828 0.125)" xlink:href="#DejaVuSans-75"/>
      <use transform="translate(272.802734 0.125)" xlink:href="#DejaVuSans-65"/>
      <use transform="translate(334.326172 0.125)" xlink:href="#DejaVuSans-29"/>
     </g>
    </g>
   </g>
   <g id="matplotlib.axis_2">
    <g id="ytick_1">
     <g id="line2d_6">
      <defs>
       <path d="M 0 0 
L -3.5 0 
" id="m4c680d20fb" style="stroke:#000000;stroke-width:0.8;"/>
      </defs>
      <g>
       <use style="stroke:#000000;stroke-width:0.8;" x="18" xlink:href="#m4c680d20fb" y="126"/>
      </g>
     </g>
     <g id="text_7">
      <!-- 0 -->
      <g transform="translate(5.91 129.039375)scale(0.08 -0.08)">
       <use xlink:href="#DejaVuSans-30"/>
      </g>
     </g>
    </g>
    <g id="ytick_2">
     <g id="line2d_7">
      <g>
       <use style="stroke:#000000;stroke-width:0.8;" x="18" xlink:href="#m4c680d20fb" y="101.290909"/>
      </g>
     </g>
     <g id="text_8">
      <!-- 0.25 -->
      <g transform="translate(-6.8125 104.330284)scale(0.08 -0.08)">
       <use xlink:href="#DejaVuSans-30"/>
       <use x="63.623047" xlink:href="#DejaVuSans-2e"/>
       <use x="95.410156" xlink:href="#DejaVuSans-32"/>
       <use x="159.033203" xlink:href="#DejaVuSans-35"/>
      </g>
     </g>
    </g>
    <g id="ytick_3">
     <g id="line2d_8">
      <g>
       <use style="stroke:#000000;stroke-width:0.8;" x="18" xlink:href="#m4c680d20fb" y="76.581818"/>
      </g>
     </g>
     <g id="text_9">
      <!-- 0.5 -->
      <g transform="translate(-1.7225 79.621193)scale(0.08 -0.08)">
       <use xlink:href="#DejaVuSans-30"/>
       <use x="63.623047" xlink:href="#DejaVuSans-2e"/>
       <use x="95.410156" xlink:href="#DejaVuSans-35"/>
      </g>
     </g>
    </g>
    <g id="ytick_4">
     <g id="line2d_9">
      <g>
       <use style="stroke:#000000;stroke-width:0.8;" x="18" xlink:href="#m4c680d20fb" y="51.872727"/>
      </g>
     </g>
     <g id="text_10">
      <!-- 0.75 -->
      <g transform="translate(-6.8125 54.912102)scale(0.08 -0.08)">
       <use xlink:href="#DejaVuSans-30"/>
       <use x="63.623047" xlink:href="#DejaVuSans-2e"/>
       <use x="95.410156" xlink:href="#DejaVuSans-37"/>
       <use x="159.033203" xlink:href="#DejaVuSans-35"/>
      </g>
     </g>
    </g>
    <g id="ytick_5">
     <g id="line2d_10">
      <g>
       <use style="stroke:#000000;stroke-width:0.8;" x="18" xlink:href="#m4c680d20fb" y="27.163636"/>
      </g>
     </g>
     <g id="text_11">
      <!-- 1 -->
      <g transform="translate(5.91 30.203011)scale(0.08 -0.08)">
       <use xlink:href="#DejaVuSans-31"/>
      </g>
     </g>
    </g>
    <g id="text_12">
     <!-- $\lambda$ (fit) -->
     <g transform="translate(-12.892188 85.19)rotate(-90)scale(0.1 -0.1)">
      <defs>
       <path d="M 2375 4863 
L 2375 4384 
L 1825 4384 
Q 1516 4384 1395 4259 
Q 1275 4134 1275 3809 
L 1275 3500 
L 2222 3500 
L 2222 3053 
L 1275 3053 
L 1275 0 
L 697 0 
L 697 3053 
L 147 3053 
L 147 3500 
L 697 3500 
L 697 3744 
Q 697 4328 969 4595 
Q 1241 4863 1831 4863 
L 2375 4863 
z
" id="DejaVuSans-66" transform="scale(0.015625)"/>
       <path d="M 603 3500 
L 1178 3500 
L 1178 0 
L 603 0 
L 603 3500 
z
M 603 4863 
L 1178 4863 
L 1178 4134 
L 603 4134 
L 603 4863 
z
" id="DejaVuSans-69" transform="scale(0.015625)"/>
      </defs>
      <use transform="translate(0 0.015625)" xlink:href="#Cmmi10-b8"/>
      <use transform="translate(58.300781 0.015625)" xlink:href="#DejaVuSans-20"/>
      <use transform="translate(90.087891 0.015625)" xlink:href="#DejaVuSans-28"/>
      <use transform="translate(129.101562 0.015625)" xlink:href="#DejaVuSans-66"/>
      <use transform="translate(164.306641 0.015625)" xlink:href="#DejaVuSans-69"/>
      <use transform="translate(192.089844 0.015625)" xlink:href="#DejaVuSans-74"/>
      <use transform="translate(231.298828 0.015625)" xlink:href="#DejaVuSans-29"/>
     </g>
    </g>
   </g>
   <g id="LineCollection_1">
    <path clip-path="url(#p471f7b0db8)" d="M 69.871144 80.690373 
L 69.871144 77.208618 
" style="fill:none;stroke:#1f77b4;stroke-width:1.5;"/>
    <path clip-path="url(#p471f7b0db8)" d="M 68.264142 79.400996 
L 68.264142 75.88832 
" style="fill:none;stroke:#1f77b4;stroke-width:1.5;"/>
    <path clip-path="url(#p471f7b0db8)" d="M 85.947193 66.943052 
L 85.947193 62.979194 
" style="fill:none;stroke:#1f77b4;stroke-width:1.5;"/>
    <path clip-path="url(#p471f7b0db8)" d="M 81.482169 64.821655 
L 81.482169 60.781381 
" style="fill:none;stroke:#1f77b4;stroke-width:1.5;"/>
    <path clip-path="url(#p471f7b0db8)" d="M 24.748259 119.723042 
L 24.748259 118.215469 
" style="fill:none;stroke:#1f77b4;stroke-width:1.5;"/>
    <path clip-path="url(#p471f7b0db8)" d="M 93.066074 56.061585 
L 93.066074 51.986465 
" style="fill:none;stroke:#1f77b4;stroke-width:1.5;"/>
    <path clip-path="url(#p471f7b0db8)" d="M 18.045829 125.992475 
L 18.045829 125.874944 
" style="fill:none;stroke:#1f77b4;stroke-width:1.5;"/>
    <path clip-path="url(#p471f7b0db8)" d="M 72.367665 76.363948 
L 72.367665 72.979035 
" style="fill:none;stroke:#1f77b4;stroke-width:1.5;"/>
    <path clip-path="url(#p471f7b0db8)" d="M 26.642433 117.998479 
L 26.642433 116.391776 
" style="fill:none;stroke:#1f77b4;stroke-width:1.5;"/>
    <path clip-path="url(#p471f7b0db8)" d="M 18.652865 125.563905 
L 18.652865 125.094739 
" style="fill:none;stroke:#1f77b4;stroke-width:1.5;"/>
    <path clip-path="url(#p471f7b0db8)" d="M 100.515138 47.323232 
L 100.515138 42.696289 
" style="fill:none;stroke:#1f77b4;stroke-width:1.5;"/>
    <path clip-path="url(#p471f7b0db8)" d="M 36.734631 108.791943 
L 36.734631 106.547548 
" style="fill:none;stroke:#1f77b4;stroke-width:1.5;"/>
    <path clip-path="url(#p471f7b0db8)" d="M 19.101841 125.288979 
L 19.101841 124.729055 
" style="fill:none;stroke:#1f77b4;stroke-width:1.5;"/>
    <path clip-path="url(#p471f7b0db8)" d="M 36.842562 109.272665 
L 36.842562 107.044328 
" style="fill:none;stroke:#1f77b4;stroke-width:1.5;"/>
    <path clip-path="url(#p471f7b0db8)" d="M 45.505872 100.597362 
L 45.505872 97.829931 
" style="fill:none;stroke:#1f77b4;stroke-width:1.5;"/>
    <path clip-path="url(#p471f7b0db8)" d="M 59.547232 87.968904 
L 59.547232 84.648553 
" style="fill:none;stroke:#1f77b4;stroke-width:1.5;"/>
   </g>
   <g id="line2d_11">
    <path clip-path="url(#p471f7b0db8)" d="M 18.045829 125.955354 
L 18.652865 125.363983 
L 19.101841 124.926593 
L 24.748259 119.42589 
L 26.642433 117.580598 
L 36.734631 107.748843 
L 36.842562 107.643698 
L 45.505872 99.203957 
L 59.547232 85.524954 
L 68.264142 77.032998 
L 69.871144 75.467466 
L 72.367665 73.035371 
L 81.482169 64.15608 
L 85.947193 59.806283 
L 93.066074 52.871115 
L 100.515138 45.614285 
" style="fill:none;stroke:#000000;stroke-dasharray:5.55,2.4;stroke-dashoffset:0;stroke-width:1.5;"/>
   </g>
   <g id="line2d_12">
    <defs>
     <path d="M 2 0 
L -2 -0 
" id="m1e58c589e1" style="stroke:#1f77b4;"/>
    </defs>
    <g clip-path="url(#p471f7b0db8)">
     <use style="fill:#1f77b4;stroke:#1f77b4;" x="69.871144" xlink:href="#m1e58c589e1" y="80.690373"/>
     <use style="fill:#1f77b4;stroke:#1f77b4;" x="68.264142" xlink:href="#m1e58c589e1" y="79.400996"/>
     <use style="fill:#1f77b4;stroke:#1f77b4;" x="85.947193" xlink:href="#m1e58c589e1" y="66.943052"/>
     <use style="fill:#1f77b4;stroke:#1f77b4;" x="81.482169" xlink:href="#m1e58c589e1" y="64.821655"/>
     <use style="fill:#1f77b4;stroke:#1f77b4;" x="24.748259" xlink:href="#m1e58c589e1" y="119.723042"/>
     <use style="fill:#1f77b4;stroke:#1f77b4;" x="93.066074" xlink:href="#m1e58c589e1" y="56.061585"/>
     <use style="fill:#1f77b4;stroke:#1f77b4;" x="18.045829" xlink:href="#m1e58c589e1" y="125.992475"/>
     <use style="fill:#1f77b4;stroke:#1f77b4;" x="72.367665" xlink:href="#m1e58c589e1" y="76.363948"/>
     <use style="fill:#1f77b4;stroke:#1f77b4;" x="26.642433" xlink:href="#m1e58c589e1" y="117.998479"/>
     <use style="fill:#1f77b4;stroke:#1f77b4;" x="18.652865" xlink:href="#m1e58c589e1" y="125.563905"/>
     <use style="fill:#1f77b4;stroke:#1f77b4;" x="100.515138" xlink:href="#m1e58c589e1" y="47.323232"/>
     <use style="fill:#1f77b4;stroke:#1f77b4;" x="36.734631" xlink:href="#m1e58c589e1" y="108.791943"/>
     <use style="fill:#1f77b4;stroke:#1f77b4;" x="19.101841" xlink:href="#m1e58c589e1" y="125.288979"/>
     <use style="fill:#1f77b4;stroke:#1f77b4;" x="36.842562" xlink:href="#m1e58c589e1" y="109.272665"/>
     <use style="fill:#1f77b4;stroke:#1f77b4;" x="45.505872" xlink:href="#m1e58c589e1" y="100.597362"/>
     <use style="fill:#1f77b4;stroke:#1f77b4;" x="59.547232" xlink:href="#m1e58c589e1" y="87.968904"/>
    </g>
   </g>
   <g id="line2d_13">
    <g clip-path="url(#p471f7b0db8)">
     <use style="fill:#1f77b4;stroke:#1f77b4;" x="69.871144" xlink:href="#m1e58c589e1" y="77.208618"/>
     <use style="fill:#1f77b4;stroke:#1f77b4;" x="68.264142" xlink:href="#m1e58c589e1" y="75.88832"/>
     <use style="fill:#1f77b4;stroke:#1f77b4;" x="85.947193" xlink:href="#m1e58c589e1" y="62.979194"/>
     <use style="fill:#1f77b4;stroke:#1f77b4;" x="81.482169" xlink:href="#m1e58c589e1" y="60.781381"/>
     <use style="fill:#1f77b4;stroke:#1f77b4;" x="24.748259" xlink:href="#m1e58c589e1" y="118.215469"/>
     <use style="fill:#1f77b4;stroke:#1f77b4;" x="93.066074" xlink:href="#m1e58c589e1" y="51.986465"/>
     <use style="fill:#1f77b4;stroke:#1f77b4;" x="18.045829" xlink:href="#m1e58c589e1" y="125.874944"/>
     <use style="fill:#1f77b4;stroke:#1f77b4;" x="72.367665" xlink:href="#m1e58c589e1" y="72.979035"/>
     <use style="fill:#1f77b4;stroke:#1f77b4;" x="26.642433" xlink:href="#m1e58c589e1" y="116.391776"/>
     <use style="fill:#1f77b4;stroke:#1f77b4;" x="18.652865" xlink:href="#m1e58c589e1" y="125.094739"/>
     <use style="fill:#1f77b4;stroke:#1f77b4;" x="100.515138" xlink:href="#m1e58c589e1" y="42.696289"/>
     <use style="fill:#1f77b4;stroke:#1f77b4;" x="36.734631" xlink:href="#m1e58c589e1" y="106.547548"/>
     <use style="fill:#1f77b4;stroke:#1f77b4;" x="19.101841" xlink:href="#m1e58c589e1" y="124.729055"/>
     <use style="fill:#1f77b4;stroke:#1f77b4;" x="36.842562" xlink:href="#m1e58c589e1" y="107.044328"/>
     <use style="fill:#1f77b4;stroke:#1f77b4;" x="45.505872" xlink:href="#m1e58c589e1" y="97.829931"/>
     <use style="fill:#1f77b4;stroke:#1f77b4;" x="59.547232" xlink:href="#m1e58c589e1" y="84.648553"/>
    </g>
   </g>
   <g id="line2d_14">
    <defs>
     <path d="M 0 1.5 
C 0.397805 1.5 0.77937 1.341951 1.06066 1.06066 
C 1.341951 0.77937 1.5 0.397805 1.5 0 
C 1.5 -0.397805 1.341951 -0.77937 1.06066 -1.06066 
C 0.77937 -1.341951 0.397805 -1.5 0 -1.5 
C -0.397805 -1.5 -0.77937 -1.341951 -1.06066 -1.06066 
C -1.341951 -0.77937 -1.5 -0.397805 -1.5 0 
C -1.5 0.397805 -1.341951 0.77937 -1.06066 1.06066 
C -0.77937 1.341951 -0.397805 1.5 0 1.5 
z
" id="m26db6c441b" style="stroke:#1f77b4;"/>
    </defs>
    <g clip-path="url(#p471f7b0db8)">
     <use style="fill:#1f77b4;stroke:#1f77b4;" x="69.871144" xlink:href="#m26db6c441b" y="78.935198"/>
     <use style="fill:#1f77b4;stroke:#1f77b4;" x="68.264142" xlink:href="#m26db6c441b" y="77.505148"/>
     <use style="fill:#1f77b4;stroke:#1f77b4;" x="85.947193" xlink:href="#m26db6c441b" y="65.012207"/>
     <use style="fill:#1f77b4;stroke:#1f77b4;" x="81.482169" xlink:href="#m26db6c441b" y="62.77146"/>
     <use style="fill:#1f77b4;stroke:#1f77b4;" x="24.748259" xlink:href="#m26db6c441b" y="118.976441"/>
     <use style="fill:#1f77b4;stroke:#1f77b4;" x="93.066074" xlink:href="#m26db6c441b" y="54.064664"/>
     <use style="fill:#1f77b4;stroke:#1f77b4;" x="18.045829" xlink:href="#m26db6c441b" y="125.957383"/>
     <use style="fill:#1f77b4;stroke:#1f77b4;" x="72.367665" xlink:href="#m26db6c441b" y="74.627769"/>
     <use style="fill:#1f77b4;stroke:#1f77b4;" x="26.642433" xlink:href="#m26db6c441b" y="117.179295"/>
     <use style="fill:#1f77b4;stroke:#1f77b4;" x="18.652865" xlink:href="#m26db6c441b" y="125.372031"/>
     <use style="fill:#1f77b4;stroke:#1f77b4;" x="100.515138" xlink:href="#m26db6c441b" y="45.242081"/>
     <use style="fill:#1f77b4;stroke:#1f77b4;" x="36.734631" xlink:href="#m26db6c441b" y="107.63783"/>
     <use style="fill:#1f77b4;stroke:#1f77b4;" x="19.101841" xlink:href="#m26db6c441b" y="125.041195"/>
     <use style="fill:#1f77b4;stroke:#1f77b4;" x="36.842562" xlink:href="#m26db6c441b" y="108.115991"/>
     <use style="fill:#1f77b4;stroke:#1f77b4;" x="45.505872" xlink:href="#m26db6c441b" y="99.395388"/>
     <use style="fill:#1f77b4;stroke:#1f77b4;" x="59.547232" xlink:href="#m26db6c441b" y="86.397654"/>
    </g>
   </g>
   <g id="patch_3">
    <path d="M 18 126 
L 18 17.28 
" style="fill:none;stroke:#000000;stroke-linecap:square;stroke-linejoin:miter;stroke-width:0.8;"/>
   </g>
   <g id="patch_4">
    <path d="M 129.6 126 
L 129.6 17.28 
" style="fill:none;stroke:#000000;stroke-linecap:square;stroke-linejoin:miter;stroke-width:0.8;"/>
   </g>
   <g id="patch_5">
    <path d="M 18 126 
L 129.6 126 
" style="fill:none;stroke:#000000;stroke-linecap:square;stroke-linejoin:miter;stroke-width:0.8;"/>
   </g>
   <g id="patch_6">
    <path d="M 18 17.28 
L 129.6 17.28 
" style="fill:none;stroke:#000000;stroke-linecap:square;stroke-linejoin:miter;stroke-width:0.8;"/>
   </g>
  </g>
 </g>
 <defs>
  <clipPath id="p471f7b0db8">
   <rect height="108.72" width="111.6" x="18" y="17.28"/>
  </clipPath>
 </defs>
</svg>
