<?xml version="1.0" encoding="utf-8" standalone="no"?>
<!DOCTYPE svg PUBLIC "-//W3C//DTD SVG 1.1//EN"
  "http://www.w3.org/Graphics/SVG/1.1/DTD/svg11.dtd">
<svg height="144pt" version="1.1" viewBox="0 0 144 144" width="144pt" xmlns="http://www.w3.org/2000/svg" xmlns:xlink="http://www.w3.org/1999/xlink">
 <metadata>
  <rdf:RDF xmlns:cc="http://creativecommons.org/ns#" xmlns:dc="http://purl.org/dc/elements/1.1/" xmlns:rdf="http://www.w3.org/1999/02/22-rdf-syntax-ns#">
   <cc:Work>
    <dc:type rdf:resource="http://purl.org/dc/dcmitype/StillImage"/>
    <dc:date>2021-07-29T09:25:46.621957</dc:date>
    <dc:format>image/svg+xml</dc:format>
    <dc:creator>
     <cc:Agent>
      <dc:title>Matplotlib v3.4.2, https://matplotlib.org/</dc:title>
     </cc:Agent>
    </dc:creator>
   </cc:Work>
  </rdf:RDF>
 </metadata>
 <defs>
  <style type="text/css">*{stroke-linecap:butt;stroke-linejoin:round;}</style>
 </defs>
 <g id="figure_1">
  <g id="patch_1">
   <path d="M 0 144 
L 144 144 
L 144 0 
L 0 0 
z
" style="fill:none;"/>
  </g>
  <g id="axes_1">
   <g id="patch_2">
    <path d="M 18 126 
L 129.6 126 
L 129.6 17.28 
L 18 17.28 
z
" style="fill:#ffffff;"/>
   </g>
   <g id="matplotlib.axis_1">
    <g id="xtick_1">
     <g id="line2d_1">
      <defs>
       <path d="M 0 0 
L 0 3.5 
" id="mb8f58aa03c" style="stroke:#000000;stroke-width:0.8;"/>
      </defs>
      <g>
       <use style="stroke:#000000;stroke-width:0.8;" x="23.026243" xlink:href="#mb8f58aa03c" y="126"/>
      </g>
     </g>
     <g id="text_1">
      <!-- 0.0 -->
      <g transform="translate(16.664993 139.07875)scale(0.08 -0.08)">
       <defs>
        <path d="M 2034 4250 
Q 1547 4250 1301 3770 
Q 1056 3291 1056 2328 
Q 1056 1369 1301 889 
Q 1547 409 2034 409 
Q 2525 409 2770 889 
Q 3016 1369 3016 2328 
Q 3016 3291 2770 3770 
Q 2525 4250 2034 4250 
z
M 2034 4750 
Q 2819 4750 3233 4129 
Q 3647 3509 3647 2328 
Q 3647 1150 3233 529 
Q 2819 -91 2034 -91 
Q 1250 -91 836 529 
Q 422 1150 422 2328 
Q 422 3509 836 4129 
Q 1250 4750 2034 4750 
z
" id="DejaVuSans-30" transform="scale(0.015625)"/>
        <path d="M 684 794 
L 1344 794 
L 1344 0 
L 684 0 
L 684 794 
z
" id="DejaVuSans-2e" transform="scale(0.015625)"/>
       </defs>
       <use xlink:href="#DejaVuSans-30"/>
       <use x="63.623047" xlink:href="#DejaVuSans-2e"/>
       <use x="95.410156" xlink:href="#DejaVuSans-30"/>
      </g>
     </g>
    </g>
    <g id="xtick_2">
     <g id="line2d_2">
      <g>
       <use style="stroke:#000000;stroke-width:0.8;" x="74.479639" xlink:href="#mb8f58aa03c" y="126"/>
      </g>
     </g>
     <g id="text_2">
      <!-- 0.5 -->
      <g transform="translate(68.118389 139.07875)scale(0.08 -0.08)">
       <defs>
        <path d="M 691 4666 
L 3169 4666 
L 3169 4134 
L 1269 4134 
L 1269 2991 
Q 1406 3038 1543 3061 
Q 1681 3084 1819 3084 
Q 2600 3084 3056 2656 
Q 3513 2228 3513 1497 
Q 3513 744 3044 326 
Q 2575 -91 1722 -91 
Q 1428 -91 1123 -41 
Q 819 9 494 109 
L 494 744 
Q 775 591 1075 516 
Q 1375 441 1709 441 
Q 2250 441 2565 725 
Q 2881 1009 2881 1497 
Q 2881 1984 2565 2268 
Q 2250 2553 1709 2553 
Q 1456 2553 1204 2497 
Q 953 2441 691 2322 
L 691 4666 
z
" id="DejaVuSans-35" transform="scale(0.015625)"/>
       </defs>
       <use xlink:href="#DejaVuSans-30"/>
       <use x="63.623047" xlink:href="#DejaVuSans-2e"/>
       <use x="95.410156" xlink:href="#DejaVuSans-35"/>
      </g>
     </g>
    </g>
    <g id="xtick_3">
     <g id="line2d_3">
      <g>
       <use style="stroke:#000000;stroke-width:0.8;" x="125.933036" xlink:href="#mb8f58aa03c" y="126"/>
      </g>
     </g>
     <g id="text_3">
      <!-- 1.0 -->
      <g transform="translate(119.571786 139.07875)scale(0.08 -0.08)">
       <defs>
        <path d="M 794 531 
L 1825 531 
L 1825 4091 
L 703 3866 
L 703 4441 
L 1819 4666 
L 2450 4666 
L 2450 531 
L 3481 531 
L 3481 0 
L 794 0 
L 794 531 
z
" id="DejaVuSans-31" transform="scale(0.015625)"/>
       </defs>
       <use xlink:href="#DejaVuSans-31"/>
       <use x="63.623047" xlink:href="#DejaVuSans-2e"/>
       <use x="95.410156" xlink:href="#DejaVuSans-30"/>
      </g>
     </g>
    </g>
    <g id="text_4">
     <!-- $\lambda$ (true) -->
     <g transform="translate(58.8 150.82125)scale(0.08 -0.08)">
      <defs>
       <path d="M 2350 4316 
L 3125 0 
L 2516 0 
L 2038 2588 
L 328 0 
L -281 0 
L 1903 3356 
L 1794 3975 
Q 1725 4369 1391 4369 
L 1091 4369 
L 1184 4863 
L 1550 4856 
Q 2253 4847 2350 4316 
z
" id="DejaVuSans-Oblique-3bb" transform="scale(0.015625)"/>
       <path id="DejaVuSans-20" transform="scale(0.015625)"/>
       <path d="M 1984 4856 
Q 1566 4138 1362 3434 
Q 1159 2731 1159 2009 
Q 1159 1288 1364 580 
Q 1569 -128 1984 -844 
L 1484 -844 
Q 1016 -109 783 600 
Q 550 1309 550 2009 
Q 550 2706 781 3412 
Q 1013 4119 1484 4856 
L 1984 4856 
z
" id="DejaVuSans-28" transform="scale(0.015625)"/>
       <path d="M 1172 4494 
L 1172 3500 
L 2356 3500 
L 2356 3053 
L 1172 3053 
L 1172 1153 
Q 1172 725 1289 603 
Q 1406 481 1766 481 
L 2356 481 
L 2356 0 
L 1766 0 
Q 1100 0 847 248 
Q 594 497 594 1153 
L 594 3053 
L 172 3053 
L 172 3500 
L 594 3500 
L 594 4494 
L 1172 4494 
z
" id="DejaVuSans-74" transform="scale(0.015625)"/>
       <path d="M 2631 2963 
Q 2534 3019 2420 3045 
Q 2306 3072 2169 3072 
Q 1681 3072 1420 2755 
Q 1159 2438 1159 1844 
L 1159 0 
L 581 0 
L 581 3500 
L 1159 3500 
L 1159 2956 
Q 1341 3275 1631 3429 
Q 1922 3584 2338 3584 
Q 2397 3584 2469 3576 
Q 2541 3569 2628 3553 
L 2631 2963 
z
" id="DejaVuSans-72" transform="scale(0.015625)"/>
       <path d="M 544 1381 
L 544 3500 
L 1119 3500 
L 1119 1403 
Q 1119 906 1312 657 
Q 1506 409 1894 409 
Q 2359 409 2629 706 
Q 2900 1003 2900 1516 
L 2900 3500 
L 3475 3500 
L 3475 0 
L 2900 0 
L 2900 538 
Q 2691 219 2414 64 
Q 2138 -91 1772 -91 
Q 1169 -91 856 284 
Q 544 659 544 1381 
z
M 1991 3584 
L 1991 3584 
z
" id="DejaVuSans-75" transform="scale(0.015625)"/>
       <path d="M 3597 1894 
L 3597 1613 
L 953 1613 
Q 991 1019 1311 708 
Q 1631 397 2203 397 
Q 2534 397 2845 478 
Q 3156 559 3463 722 
L 3463 178 
Q 3153 47 2828 -22 
Q 2503 -91 2169 -91 
Q 1331 -91 842 396 
Q 353 884 353 1716 
Q 353 2575 817 3079 
Q 1281 3584 2069 3584 
Q 2775 3584 3186 3129 
Q 3597 2675 3597 1894 
z
M 3022 2063 
Q 3016 2534 2758 2815 
Q 2500 3097 2075 3097 
Q 1594 3097 1305 2825 
Q 1016 2553 972 2059 
L 3022 2063 
z
" id="DejaVuSans-65" transform="scale(0.015625)"/>
       <path d="M 513 4856 
L 1013 4856 
Q 1481 4119 1714 3412 
Q 1947 2706 1947 2009 
Q 1947 1309 1714 600 
Q 1481 -109 1013 -844 
L 513 -844 
Q 928 -128 1133 580 
Q 1338 1288 1338 2009 
Q 1338 2731 1133 3434 
Q 928 4138 513 4856 
z
" id="DejaVuSans-29" transform="scale(0.015625)"/>
      </defs>
      <use transform="translate(0 0.015625)" xlink:href="#DejaVuSans-Oblique-3bb"/>
      <use transform="translate(59.179688 0.015625)" xlink:href="#DejaVuSans-20"/>
      <use transform="translate(90.966797 0.015625)" xlink:href="#DejaVuSans-28"/>
      <use transform="translate(129.980469 0.015625)" xlink:href="#DejaVuSans-74"/>
      <use transform="translate(169.189453 0.015625)" xlink:href="#DejaVuSans-72"/>
      <use transform="translate(210.302734 0.015625)" xlink:href="#DejaVuSans-75"/>
      <use transform="translate(273.681641 0.015625)" xlink:href="#DejaVuSans-65"/>
      <use transform="translate(335.205078 0.015625)" xlink:href="#DejaVuSans-29"/>
     </g>
    </g>
   </g>
   <g id="matplotlib.axis_2">
    <g id="ytick_1">
     <g id="line2d_4">
      <defs>
       <path d="M 0 0 
L -3.5 0 
" id="m614d986750" style="stroke:#000000;stroke-width:0.8;"/>
      </defs>
      <g>
       <use style="stroke:#000000;stroke-width:0.8;" x="18" xlink:href="#m614d986750" y="126"/>
      </g>
     </g>
     <g id="text_5">
      <!-- 0.0 -->
      <g transform="translate(-1.7225 129.039375)scale(0.08 -0.08)">
       <use xlink:href="#DejaVuSans-30"/>
       <use x="63.623047" xlink:href="#DejaVuSans-2e"/>
       <use x="95.410156" xlink:href="#DejaVuSans-30"/>
      </g>
     </g>
    </g>
    <g id="ytick_2">
     <g id="line2d_5">
      <g>
       <use style="stroke:#000000;stroke-width:0.8;" x="18" xlink:href="#m614d986750" y="104.256"/>
      </g>
     </g>
     <g id="text_6">
      <!-- 0.2 -->
      <g transform="translate(-1.7225 107.295375)scale(0.08 -0.08)">
       <defs>
        <path d="M 1228 531 
L 3431 531 
L 3431 0 
L 469 0 
L 469 531 
Q 828 903 1448 1529 
Q 2069 2156 2228 2338 
Q 2531 2678 2651 2914 
Q 2772 3150 2772 3378 
Q 2772 3750 2511 3984 
Q 2250 4219 1831 4219 
Q 1534 4219 1204 4116 
Q 875 4013 500 3803 
L 500 4441 
Q 881 4594 1212 4672 
Q 1544 4750 1819 4750 
Q 2544 4750 2975 4387 
Q 3406 4025 3406 3419 
Q 3406 3131 3298 2873 
Q 3191 2616 2906 2266 
Q 2828 2175 2409 1742 
Q 1991 1309 1228 531 
z
" id="DejaVuSans-32" transform="scale(0.015625)"/>
       </defs>
       <use xlink:href="#DejaVuSans-30"/>
       <use x="63.623047" xlink:href="#DejaVuSans-2e"/>
       <use x="95.410156" xlink:href="#DejaVuSans-32"/>
      </g>
     </g>
    </g>
    <g id="ytick_3">
     <g id="line2d_6">
      <g>
       <use style="stroke:#000000;stroke-width:0.8;" x="18" xlink:href="#m614d986750" y="82.512"/>
      </g>
     </g>
     <g id="text_7">
      <!-- 0.4 -->
      <g transform="translate(-1.7225 85.551375)scale(0.08 -0.08)">
       <defs>
        <path d="M 2419 4116 
L 825 1625 
L 2419 1625 
L 2419 4116 
z
M 2253 4666 
L 3047 4666 
L 3047 1625 
L 3713 1625 
L 3713 1100 
L 3047 1100 
L 3047 0 
L 2419 0 
L 2419 1100 
L 313 1100 
L 313 1709 
L 2253 4666 
z
" id="DejaVuSans-34" transform="scale(0.015625)"/>
       </defs>
       <use xlink:href="#DejaVuSans-30"/>
       <use x="63.623047" xlink:href="#DejaVuSans-2e"/>
       <use x="95.410156" xlink:href="#DejaVuSans-34"/>
      </g>
     </g>
    </g>
    <g id="ytick_4">
     <g id="line2d_7">
      <g>
       <use style="stroke:#000000;stroke-width:0.8;" x="18" xlink:href="#m614d986750" y="60.768"/>
      </g>
     </g>
     <g id="text_8">
      <!-- 0.6 -->
      <g transform="translate(-1.7225 63.807375)scale(0.08 -0.08)">
       <defs>
        <path d="M 2113 2584 
Q 1688 2584 1439 2293 
Q 1191 2003 1191 1497 
Q 1191 994 1439 701 
Q 1688 409 2113 409 
Q 2538 409 2786 701 
Q 3034 994 3034 1497 
Q 3034 2003 2786 2293 
Q 2538 2584 2113 2584 
z
M 3366 4563 
L 3366 3988 
Q 3128 4100 2886 4159 
Q 2644 4219 2406 4219 
Q 1781 4219 1451 3797 
Q 1122 3375 1075 2522 
Q 1259 2794 1537 2939 
Q 1816 3084 2150 3084 
Q 2853 3084 3261 2657 
Q 3669 2231 3669 1497 
Q 3669 778 3244 343 
Q 2819 -91 2113 -91 
Q 1303 -91 875 529 
Q 447 1150 447 2328 
Q 447 3434 972 4092 
Q 1497 4750 2381 4750 
Q 2619 4750 2861 4703 
Q 3103 4656 3366 4563 
z
" id="DejaVuSans-36" transform="scale(0.015625)"/>
       </defs>
       <use xlink:href="#DejaVuSans-30"/>
       <use x="63.623047" xlink:href="#DejaVuSans-2e"/>
       <use x="95.410156" xlink:href="#DejaVuSans-36"/>
      </g>
     </g>
    </g>
    <g id="ytick_5">
     <g id="line2d_8">
      <g>
       <use style="stroke:#000000;stroke-width:0.8;" x="18" xlink:href="#m614d986750" y="39.024"/>
      </g>
     </g>
     <g id="text_9">
      <!-- 0.8 -->
      <g transform="translate(-1.7225 42.063375)scale(0.08 -0.08)">
       <defs>
        <path d="M 2034 2216 
Q 1584 2216 1326 1975 
Q 1069 1734 1069 1313 
Q 1069 891 1326 650 
Q 1584 409 2034 409 
Q 2484 409 2743 651 
Q 3003 894 3003 1313 
Q 3003 1734 2745 1975 
Q 2488 2216 2034 2216 
z
M 1403 2484 
Q 997 2584 770 2862 
Q 544 3141 544 3541 
Q 544 4100 942 4425 
Q 1341 4750 2034 4750 
Q 2731 4750 3128 4425 
Q 3525 4100 3525 3541 
Q 3525 3141 3298 2862 
Q 3072 2584 2669 2484 
Q 3125 2378 3379 2068 
Q 3634 1759 3634 1313 
Q 3634 634 3220 271 
Q 2806 -91 2034 -91 
Q 1263 -91 848 271 
Q 434 634 434 1313 
Q 434 1759 690 2068 
Q 947 2378 1403 2484 
z
M 1172 3481 
Q 1172 3119 1398 2916 
Q 1625 2713 2034 2713 
Q 2441 2713 2670 2916 
Q 2900 3119 2900 3481 
Q 2900 3844 2670 4047 
Q 2441 4250 2034 4250 
Q 1625 4250 1398 4047 
Q 1172 3844 1172 3481 
z
" id="DejaVuSans-38" transform="scale(0.015625)"/>
       </defs>
       <use xlink:href="#DejaVuSans-30"/>
       <use x="63.623047" xlink:href="#DejaVuSans-2e"/>
       <use x="95.410156" xlink:href="#DejaVuSans-38"/>
      </g>
     </g>
    </g>
    <g id="ytick_6">
     <g id="line2d_9">
      <g>
       <use style="stroke:#000000;stroke-width:0.8;" x="18" xlink:href="#m614d986750" y="17.28"/>
      </g>
     </g>
     <g id="text_10">
      <!-- 1.0 -->
      <g transform="translate(-1.7225 20.319375)scale(0.08 -0.08)">
       <use xlink:href="#DejaVuSans-31"/>
       <use x="63.623047" xlink:href="#DejaVuSans-2e"/>
       <use x="95.410156" xlink:href="#DejaVuSans-30"/>
      </g>
     </g>
    </g>
    <g id="text_11">
     <!-- $\sigma^{xy}$ (fit) -->
     <g transform="translate(-7.38625 86.28)rotate(-90)scale(0.08 -0.08)">
      <defs>
       <path d="M 2219 3044 
Q 1744 3044 1422 2700 
Q 1081 2341 969 1747 
Q 844 1119 1044 756 
Q 1241 397 1706 397 
Q 2166 397 2503 759 
Q 2844 1122 2966 1747 
Q 3075 2319 2881 2700 
Q 2700 3044 2219 3044 
z
M 2309 3503 
L 4219 3500 
L 4106 2925 
L 3463 2925 
Q 3706 2438 3575 1747 
Q 3406 888 2884 400 
Q 2359 -91 1609 -91 
Q 856 -91 525 400 
Q 194 888 363 1747 
Q 528 2609 1050 3097 
Q 1484 3503 2309 3503 
z
" id="DejaVuSans-Oblique-3c3" transform="scale(0.015625)"/>
       <path d="M 3841 3500 
L 2234 1784 
L 3219 0 
L 2559 0 
L 1819 1388 
L 531 0 
L -166 0 
L 1556 1844 
L 641 3500 
L 1300 3500 
L 1972 2234 
L 3144 3500 
L 3841 3500 
z
" id="DejaVuSans-Oblique-78" transform="scale(0.015625)"/>
       <path d="M 1588 -325 
Q 1188 -997 936 -1164 
Q 684 -1331 294 -1331 
L -159 -1331 
L -63 -850 
L 269 -850 
Q 509 -850 678 -719 
Q 847 -588 1056 -206 
L 1234 128 
L 459 3500 
L 1069 3500 
L 1650 819 
L 3256 3500 
L 3859 3500 
L 1588 -325 
z
" id="DejaVuSans-Oblique-79" transform="scale(0.015625)"/>
       <path d="M 2375 4863 
L 2375 4384 
L 1825 4384 
Q 1516 4384 1395 4259 
Q 1275 4134 1275 3809 
L 1275 3500 
L 2222 3500 
L 2222 3053 
L 1275 3053 
L 1275 0 
L 697 0 
L 697 3053 
L 147 3053 
L 147 3500 
L 697 3500 
L 697 3744 
Q 697 4328 969 4595 
Q 1241 4863 1831 4863 
L 2375 4863 
z
" id="DejaVuSans-66" transform="scale(0.015625)"/>
       <path d="M 603 3500 
L 1178 3500 
L 1178 0 
L 603 0 
L 603 3500 
z
M 603 4863 
L 1178 4863 
L 1178 4134 
L 603 4134 
L 603 4863 
z
" id="DejaVuSans-69" transform="scale(0.015625)"/>
      </defs>
      <use transform="translate(0 0.4375)" xlink:href="#DejaVuSans-Oblique-3c3"/>
      <use transform="translate(67.851615 38.71875)scale(0.7)" xlink:href="#DejaVuSans-Oblique-78"/>
      <use transform="translate(109.277396 38.71875)scale(0.7)" xlink:href="#DejaVuSans-Oblique-79"/>
      <use transform="translate(153.437552 0.4375)" xlink:href="#DejaVuSans-20"/>
      <use transform="translate(185.224661 0.4375)" xlink:href="#DejaVuSans-28"/>
      <use transform="translate(224.238333 0.4375)" xlink:href="#DejaVuSans-66"/>
      <use transform="translate(259.443411 0.4375)" xlink:href="#DejaVuSans-69"/>
      <use transform="translate(287.226615 0.4375)" xlink:href="#DejaVuSans-74"/>
      <use transform="translate(326.435599 0.4375)" xlink:href="#DejaVuSans-29"/>
     </g>
    </g>
   </g>
   <g id="LineCollection_1">
    <path clip-path="url(#pc34479f4f3)" d="M 23.072727 78.944849 
L 23.072727 73.980783 
" style="fill:none;stroke:#1f77b4;stroke-width:1.5;"/>
    <path clip-path="url(#pc34479f4f3)" d="M 23.688454 85.977448 
L 23.688454 79.893119 
" style="fill:none;stroke:#1f77b4;stroke-width:1.5;"/>
    <path clip-path="url(#pc34479f4f3)" d="M 24.143856 89.463968 
L 24.143856 85.224265 
" style="fill:none;stroke:#1f77b4;stroke-width:1.5;"/>
    <path clip-path="url(#pc34479f4f3)" d="M 29.871098 89.184607 
L 29.871098 71.000488 
" style="fill:none;stroke:#1f77b4;stroke-width:1.5;"/>
    <path clip-path="url(#pc34479f4f3)" d="M 31.792386 95.028197 
L 31.792386 92.939082 
" style="fill:none;stroke:#1f77b4;stroke-width:1.5;"/>
    <path clip-path="url(#pc34479f4f3)" d="M 42.029047 89.068667 
L 42.029047 82.950915 
" style="fill:none;stroke:#1f77b4;stroke-width:1.5;"/>
    <path clip-path="url(#pc34479f4f3)" d="M 42.138522 96.994857 
L 42.138522 93.316935 
" style="fill:none;stroke:#1f77b4;stroke-width:1.5;"/>
    <path clip-path="url(#pc34479f4f3)" d="M 50.925841 98.004283 
L 50.925841 93.849843 
" style="fill:none;stroke:#1f77b4;stroke-width:1.5;"/>
    <path clip-path="url(#pc34479f4f3)" d="M 65.168193 75.412675 
L 65.168193 64.206229 
" style="fill:none;stroke:#1f77b4;stroke-width:1.5;"/>
    <path clip-path="url(#pc34479f4f3)" d="M 74.009879 87.992174 
L 74.009879 82.866998 
" style="fill:none;stroke:#1f77b4;stroke-width:1.5;"/>
    <path clip-path="url(#pc34479f4f3)" d="M 75.639885 87.746352 
L 75.639885 83.250608 
" style="fill:none;stroke:#1f77b4;stroke-width:1.5;"/>
    <path clip-path="url(#pc34479f4f3)" d="M 78.172141 93.109411 
L 78.172141 66.398766 
" style="fill:none;stroke:#1f77b4;stroke-width:1.5;"/>
    <path clip-path="url(#pc34479f4f3)" d="M 87.417113 100.735264 
L 87.417113 96.776742 
" style="fill:none;stroke:#1f77b4;stroke-width:1.5;"/>
    <path clip-path="url(#pc34479f4f3)" d="M 91.946051 89.35123 
L 91.946051 85.104335 
" style="fill:none;stroke:#1f77b4;stroke-width:1.5;"/>
    <path clip-path="url(#pc34479f4f3)" d="M 99.166832 68.487506 
L 99.166832 57.234364 
" style="fill:none;stroke:#1f77b4;stroke-width:1.5;"/>
    <path clip-path="url(#pc34479f4f3)" d="M 106.722525 76.407754 
L 106.722525 62.402288 
" style="fill:none;stroke:#1f77b4;stroke-width:1.5;"/>
    <path clip-path="url(#pc34479f4f3)" d="M 124.527273 110.870305 
L 124.527273 -1 
" style="fill:none;stroke:#1f77b4;stroke-width:1.5;"/>
   </g>
   <g id="line2d_10">
    <path clip-path="url(#pc34479f4f3)" d="M 23.072727 75.431346 
L 23.688454 82.391013 
L 24.143856 87.958677 
L 29.871098 86.79161 
L 31.792386 93.495286 
L 42.029047 81.994117 
L 42.138522 94.229467 
L 50.925841 93.132834 
L 65.168193 75.653689 
L 74.009879 84.708533 
L 75.639885 86.646224 
L 78.172141 88.35292 
L 87.417113 101.406281 
L 91.946051 90.855762 
L 99.166832 64.145931 
L 106.722525 68.439767 
L 124.527273 103.521894 
" style="fill:none;stroke:#000000;stroke-dasharray:5.55,2.4;stroke-dashoffset:0;stroke-width:1.5;"/>
   </g>
   <g id="line2d_11">
    <defs>
     <path d="M 2 0 
L -2 -0 
" id="mf66c0b4f67" style="stroke:#1f77b4;"/>
    </defs>
    <g clip-path="url(#pc34479f4f3)">
     <use style="fill:#1f77b4;stroke:#1f77b4;" x="23.072727" xlink:href="#mf66c0b4f67" y="78.944849"/>
     <use style="fill:#1f77b4;stroke:#1f77b4;" x="23.688454" xlink:href="#mf66c0b4f67" y="85.977448"/>
     <use style="fill:#1f77b4;stroke:#1f77b4;" x="24.143856" xlink:href="#mf66c0b4f67" y="89.463968"/>
     <use style="fill:#1f77b4;stroke:#1f77b4;" x="29.871098" xlink:href="#mf66c0b4f67" y="89.184607"/>
     <use style="fill:#1f77b4;stroke:#1f77b4;" x="31.792386" xlink:href="#mf66c0b4f67" y="95.028197"/>
     <use style="fill:#1f77b4;stroke:#1f77b4;" x="42.029047" xlink:href="#mf66c0b4f67" y="89.068667"/>
     <use style="fill:#1f77b4;stroke:#1f77b4;" x="42.138522" xlink:href="#mf66c0b4f67" y="96.994857"/>
     <use style="fill:#1f77b4;stroke:#1f77b4;" x="50.925841" xlink:href="#mf66c0b4f67" y="98.004283"/>
     <use style="fill:#1f77b4;stroke:#1f77b4;" x="65.168193" xlink:href="#mf66c0b4f67" y="75.412675"/>
     <use style="fill:#1f77b4;stroke:#1f77b4;" x="74.009879" xlink:href="#mf66c0b4f67" y="87.992174"/>
     <use style="fill:#1f77b4;stroke:#1f77b4;" x="75.639885" xlink:href="#mf66c0b4f67" y="87.746352"/>
     <use style="fill:#1f77b4;stroke:#1f77b4;" x="78.172141" xlink:href="#mf66c0b4f67" y="93.109411"/>
     <use style="fill:#1f77b4;stroke:#1f77b4;" x="87.417113" xlink:href="#mf66c0b4f67" y="100.735264"/>
     <use style="fill:#1f77b4;stroke:#1f77b4;" x="91.946051" xlink:href="#mf66c0b4f67" y="89.35123"/>
     <use style="fill:#1f77b4;stroke:#1f77b4;" x="99.166832" xlink:href="#mf66c0b4f67" y="68.487506"/>
     <use style="fill:#1f77b4;stroke:#1f77b4;" x="106.722525" xlink:href="#mf66c0b4f67" y="76.407754"/>
     <use style="fill:#1f77b4;stroke:#1f77b4;" x="124.527273" xlink:href="#mf66c0b4f67" y="110.870305"/>
    </g>
   </g>
   <g id="line2d_12">
    <g clip-path="url(#pc34479f4f3)">
     <use style="fill:#1f77b4;stroke:#1f77b4;" x="23.072727" xlink:href="#mf66c0b4f67" y="73.980783"/>
     <use style="fill:#1f77b4;stroke:#1f77b4;" x="23.688454" xlink:href="#mf66c0b4f67" y="79.893119"/>
     <use style="fill:#1f77b4;stroke:#1f77b4;" x="24.143856" xlink:href="#mf66c0b4f67" y="85.224265"/>
     <use style="fill:#1f77b4;stroke:#1f77b4;" x="29.871098" xlink:href="#mf66c0b4f67" y="71.000488"/>
     <use style="fill:#1f77b4;stroke:#1f77b4;" x="31.792386" xlink:href="#mf66c0b4f67" y="92.939082"/>
     <use style="fill:#1f77b4;stroke:#1f77b4;" x="42.029047" xlink:href="#mf66c0b4f67" y="82.950915"/>
     <use style="fill:#1f77b4;stroke:#1f77b4;" x="42.138522" xlink:href="#mf66c0b4f67" y="93.316935"/>
     <use style="fill:#1f77b4;stroke:#1f77b4;" x="50.925841" xlink:href="#mf66c0b4f67" y="93.849843"/>
     <use style="fill:#1f77b4;stroke:#1f77b4;" x="65.168193" xlink:href="#mf66c0b4f67" y="64.206229"/>
     <use style="fill:#1f77b4;stroke:#1f77b4;" x="74.009879" xlink:href="#mf66c0b4f67" y="82.866998"/>
     <use style="fill:#1f77b4;stroke:#1f77b4;" x="75.639885" xlink:href="#mf66c0b4f67" y="83.250608"/>
     <use style="fill:#1f77b4;stroke:#1f77b4;" x="78.172141" xlink:href="#mf66c0b4f67" y="66.398766"/>
     <use style="fill:#1f77b4;stroke:#1f77b4;" x="87.417113" xlink:href="#mf66c0b4f67" y="96.776742"/>
     <use style="fill:#1f77b4;stroke:#1f77b4;" x="91.946051" xlink:href="#mf66c0b4f67" y="85.104335"/>
     <use style="fill:#1f77b4;stroke:#1f77b4;" x="99.166832" xlink:href="#mf66c0b4f67" y="57.234364"/>
     <use style="fill:#1f77b4;stroke:#1f77b4;" x="106.722525" xlink:href="#mf66c0b4f67" y="62.402288"/>
     <use style="fill:#1f77b4;stroke:#1f77b4;" x="112.168594" xlink:href="#mf66c0b4f67" y="-1"/>
    </g>
   </g>
   <g id="line2d_13">
    <defs>
     <path d="M 0 1.5 
C 0.397805 1.5 0.77937 1.341951 1.06066 1.06066 
C 1.341951 0.77937 1.5 0.397805 1.5 0 
C 1.5 -0.397805 1.341951 -0.77937 1.06066 -1.06066 
C 0.77937 -1.341951 0.397805 -1.5 0 -1.5 
C -0.397805 -1.5 -0.77937 -1.341951 -1.06066 -1.06066 
C -1.341951 -0.77937 -1.5 -0.397805 -1.5 0 
C -1.5 0.397805 -1.341951 0.77937 -1.06066 1.06066 
C -0.77937 1.341951 -0.397805 1.5 0 1.5 
z
" id="m7698c1fb92" style="stroke:#1f77b4;"/>
    </defs>
    <g clip-path="url(#pc34479f4f3)">
     <use style="fill:#1f77b4;stroke:#1f77b4;" x="23.072727" xlink:href="#m7698c1fb92" y="76.167733"/>
     <use style="fill:#1f77b4;stroke:#1f77b4;" x="23.688454" xlink:href="#m7698c1fb92" y="83.028854"/>
     <use style="fill:#1f77b4;stroke:#1f77b4;" x="24.143856" xlink:href="#m7698c1fb92" y="87.231517"/>
     <use style="fill:#1f77b4;stroke:#1f77b4;" x="29.871098" xlink:href="#m7698c1fb92" y="81.238088"/>
     <use style="fill:#1f77b4;stroke:#1f77b4;" x="31.792386" xlink:href="#m7698c1fb92" y="93.969496"/>
     <use style="fill:#1f77b4;stroke:#1f77b4;" x="42.029047" xlink:href="#m7698c1fb92" y="85.850882"/>
     <use style="fill:#1f77b4;stroke:#1f77b4;" x="42.138522" xlink:href="#m7698c1fb92" y="95.28923"/>
     <use style="fill:#1f77b4;stroke:#1f77b4;" x="50.925841" xlink:href="#m7698c1fb92" y="96.004521"/>
     <use style="fill:#1f77b4;stroke:#1f77b4;" x="65.168193" xlink:href="#m7698c1fb92" y="70.093018"/>
     <use style="fill:#1f77b4;stroke:#1f77b4;" x="74.009879" xlink:href="#m7698c1fb92" y="85.380078"/>
     <use style="fill:#1f77b4;stroke:#1f77b4;" x="75.639885" xlink:href="#m7698c1fb92" y="85.352056"/>
     <use style="fill:#1f77b4;stroke:#1f77b4;" x="78.172141" xlink:href="#m7698c1fb92" y="80.415756"/>
     <use style="fill:#1f77b4;stroke:#1f77b4;" x="87.417113" xlink:href="#m7698c1fb92" y="98.877714"/>
     <use style="fill:#1f77b4;stroke:#1f77b4;" x="91.946051" xlink:href="#m7698c1fb92" y="87.249297"/>
     <use style="fill:#1f77b4;stroke:#1f77b4;" x="99.166832" xlink:href="#m7698c1fb92" y="62.475987"/>
     <use style="fill:#1f77b4;stroke:#1f77b4;" x="106.722525" xlink:href="#m7698c1fb92" y="69.023959"/>
     <use style="fill:#1f77b4;stroke:#1f77b4;" x="124.527273" xlink:href="#m7698c1fb92" y="6.129731"/>
    </g>
   </g>
   <g id="patch_3">
    <path d="M 18 126 
L 18 17.28 
" style="fill:none;stroke:#000000;stroke-linecap:square;stroke-linejoin:miter;stroke-width:0.8;"/>
   </g>
   <g id="patch_4">
    <path d="M 129.6 126 
L 129.6 17.28 
" style="fill:none;stroke:#000000;stroke-linecap:square;stroke-linejoin:miter;stroke-width:0.8;"/>
   </g>
   <g id="patch_5">
    <path d="M 18 126 
L 129.6 126 
" style="fill:none;stroke:#000000;stroke-linecap:square;stroke-linejoin:miter;stroke-width:0.8;"/>
   </g>
   <g id="patch_6">
    <path d="M 18 17.28 
L 129.6 17.28 
" style="fill:none;stroke:#000000;stroke-linecap:square;stroke-linejoin:miter;stroke-width:0.8;"/>
   </g>
  </g>
 </g>
 <defs>
  <clipPath id="pc34479f4f3">
   <rect height="108.72" width="111.6" x="18" y="17.28"/>
  </clipPath>
 </defs>
</svg>
