<?xml version="1.0" encoding="utf-8" standalone="no"?>
<!DOCTYPE svg PUBLIC "-//W3C//DTD SVG 1.1//EN"
  "http://www.w3.org/Graphics/SVG/1.1/DTD/svg11.dtd">
<svg height="144pt" version="1.1" viewBox="0 0 144 144" width="144pt" xmlns="http://www.w3.org/2000/svg" xmlns:xlink="http://www.w3.org/1999/xlink">
 <metadata>
  <rdf:RDF xmlns:cc="http://creativecommons.org/ns#" xmlns:dc="http://purl.org/dc/elements/1.1/" xmlns:rdf="http://www.w3.org/1999/02/22-rdf-syntax-ns#">
   <cc:Work>
    <dc:type rdf:resource="http://purl.org/dc/dcmitype/StillImage"/>
    <dc:date>2021-07-29T15:58:54.565854</dc:date>
    <dc:format>image/svg+xml</dc:format>
    <dc:creator>
     <cc:Agent>
      <dc:title>Matplotlib v3.4.2, https://matplotlib.org/</dc:title>
     </cc:Agent>
    </dc:creator>
   </cc:Work>
  </rdf:RDF>
 </metadata>
 <defs>
  <style type="text/css">*{stroke-linecap:butt;stroke-linejoin:round;}</style>
 </defs>
 <g id="figure_1">
  <g id="patch_1">
   <path d="M 0 144 
L 144 144 
L 144 0 
L 0 0 
z
" style="fill:none;"/>
  </g>
  <g id="axes_1">
   <g id="patch_2">
    <path d="M 18 126 
L 129.6 126 
L 129.6 17.28 
L 18 17.28 
z
" style="fill:#ffffff;"/>
   </g>
   <g id="matplotlib.axis_1">
    <g id="xtick_1">
     <g id="line2d_1">
      <defs>
       <path d="M 0 0 
L 0 3.5 
" id="me9dc33c186" style="stroke:#000000;stroke-width:0.8;"/>
      </defs>
      <g>
       <use style="stroke:#000000;stroke-width:0.8;" x="28.145455" xlink:href="#me9dc33c186" y="126"/>
      </g>
     </g>
     <g id="text_1">
      <!-- 0.2 -->
      <g transform="translate(21.784205 139.07875)scale(0.08 -0.08)">
       <defs>
        <path d="M 2034 4250 
Q 1547 4250 1301 3770 
Q 1056 3291 1056 2328 
Q 1056 1369 1301 889 
Q 1547 409 2034 409 
Q 2525 409 2770 889 
Q 3016 1369 3016 2328 
Q 3016 3291 2770 3770 
Q 2525 4250 2034 4250 
z
M 2034 4750 
Q 2819 4750 3233 4129 
Q 3647 3509 3647 2328 
Q 3647 1150 3233 529 
Q 2819 -91 2034 -91 
Q 1250 -91 836 529 
Q 422 1150 422 2328 
Q 422 3509 836 4129 
Q 1250 4750 2034 4750 
z
" id="DejaVuSans-30" transform="scale(0.015625)"/>
        <path d="M 684 794 
L 1344 794 
L 1344 0 
L 684 0 
L 684 794 
z
" id="DejaVuSans-2e" transform="scale(0.015625)"/>
        <path d="M 1228 531 
L 3431 531 
L 3431 0 
L 469 0 
L 469 531 
Q 828 903 1448 1529 
Q 2069 2156 2228 2338 
Q 2531 2678 2651 2914 
Q 2772 3150 2772 3378 
Q 2772 3750 2511 3984 
Q 2250 4219 1831 4219 
Q 1534 4219 1204 4116 
Q 875 4013 500 3803 
L 500 4441 
Q 881 4594 1212 4672 
Q 1544 4750 1819 4750 
Q 2544 4750 2975 4387 
Q 3406 4025 3406 3419 
Q 3406 3131 3298 2873 
Q 3191 2616 2906 2266 
Q 2828 2175 2409 1742 
Q 1991 1309 1228 531 
z
" id="DejaVuSans-32" transform="scale(0.015625)"/>
       </defs>
       <use xlink:href="#DejaVuSans-30"/>
       <use x="63.623047" xlink:href="#DejaVuSans-2e"/>
       <use x="95.410156" xlink:href="#DejaVuSans-32"/>
      </g>
     </g>
    </g>
    <g id="xtick_2">
     <g id="line2d_2">
      <g>
       <use style="stroke:#000000;stroke-width:0.8;" x="68.727273" xlink:href="#me9dc33c186" y="126"/>
      </g>
     </g>
     <g id="text_2">
      <!-- 0.4 -->
      <g transform="translate(62.366023 139.07875)scale(0.08 -0.08)">
       <defs>
        <path d="M 2419 4116 
L 825 1625 
L 2419 1625 
L 2419 4116 
z
M 2253 4666 
L 3047 4666 
L 3047 1625 
L 3713 1625 
L 3713 1100 
L 3047 1100 
L 3047 0 
L 2419 0 
L 2419 1100 
L 313 1100 
L 313 1709 
L 2253 4666 
z
" id="DejaVuSans-34" transform="scale(0.015625)"/>
       </defs>
       <use xlink:href="#DejaVuSans-30"/>
       <use x="63.623047" xlink:href="#DejaVuSans-2e"/>
       <use x="95.410156" xlink:href="#DejaVuSans-34"/>
      </g>
     </g>
    </g>
    <g id="xtick_3">
     <g id="line2d_3">
      <g>
       <use style="stroke:#000000;stroke-width:0.8;" x="109.309091" xlink:href="#me9dc33c186" y="126"/>
      </g>
     </g>
     <g id="text_3">
      <!-- 0.6 -->
      <g transform="translate(102.947841 139.07875)scale(0.08 -0.08)">
       <defs>
        <path d="M 2113 2584 
Q 1688 2584 1439 2293 
Q 1191 2003 1191 1497 
Q 1191 994 1439 701 
Q 1688 409 2113 409 
Q 2538 409 2786 701 
Q 3034 994 3034 1497 
Q 3034 2003 2786 2293 
Q 2538 2584 2113 2584 
z
M 3366 4563 
L 3366 3988 
Q 3128 4100 2886 4159 
Q 2644 4219 2406 4219 
Q 1781 4219 1451 3797 
Q 1122 3375 1075 2522 
Q 1259 2794 1537 2939 
Q 1816 3084 2150 3084 
Q 2853 3084 3261 2657 
Q 3669 2231 3669 1497 
Q 3669 778 3244 343 
Q 2819 -91 2113 -91 
Q 1303 -91 875 529 
Q 447 1150 447 2328 
Q 447 3434 972 4092 
Q 1497 4750 2381 4750 
Q 2619 4750 2861 4703 
Q 3103 4656 3366 4563 
z
" id="DejaVuSans-36" transform="scale(0.015625)"/>
       </defs>
       <use xlink:href="#DejaVuSans-30"/>
       <use x="63.623047" xlink:href="#DejaVuSans-2e"/>
       <use x="95.410156" xlink:href="#DejaVuSans-36"/>
      </g>
     </g>
    </g>
    <g id="text_4">
     <!-- $\sigma^{xy}$ (true) -->
     <g transform="translate(50.85 152.340937)scale(0.1 -0.1)">
      <defs>
       <path d="M 1197 -72 
Q 913 -72 692 64 
Q 472 200 351 431 
Q 231 663 231 941 
Q 231 1238 365 1566 
Q 500 1894 733 2166 
Q 966 2438 1259 2598 
Q 1553 2759 1863 2759 
L 3475 2759 
Q 3541 2759 3587 2715 
Q 3634 2672 3634 2597 
Q 3634 2503 3567 2433 
Q 3500 2363 3406 2363 
L 2625 2363 
Q 2809 2088 2809 1697 
Q 2809 1375 2684 1062 
Q 2559 750 2337 492 
Q 2116 234 1820 81 
Q 1525 -72 1197 -72 
z
M 1203 97 
Q 1553 97 1823 370 
Q 2094 644 2237 1039 
Q 2381 1434 2381 1772 
Q 2381 2047 2229 2205 
Q 2078 2363 1806 2363 
Q 1434 2363 1173 2113 
Q 913 1863 783 1484 
Q 653 1106 653 756 
Q 653 481 798 289 
Q 944 97 1203 97 
z
" id="Cmmi10-be" transform="scale(0.015625)"/>
       <path d="M 500 184 
Q 613 97 819 97 
Q 1019 97 1172 289 
Q 1325 481 1381 709 
L 1672 1844 
Q 1741 2153 1741 2266 
Q 1741 2425 1652 2544 
Q 1563 2663 1403 2663 
Q 1200 2663 1022 2536 
Q 844 2409 722 2214 
Q 600 2019 550 1819 
Q 538 1778 500 1778 
L 422 1778 
Q 372 1778 372 1838 
L 372 1856 
Q 434 2094 584 2320 
Q 734 2547 951 2687 
Q 1169 2828 1416 2828 
Q 1650 2828 1839 2703 
Q 2028 2578 2106 2363 
Q 2216 2559 2386 2693 
Q 2556 2828 2759 2828 
Q 2897 2828 3040 2779 
Q 3184 2731 3275 2631 
Q 3366 2531 3366 2381 
Q 3366 2219 3261 2101 
Q 3156 1984 2994 1984 
Q 2891 1984 2822 2050 
Q 2753 2116 2753 2216 
Q 2753 2350 2845 2451 
Q 2938 2553 3066 2572 
Q 2950 2663 2747 2663 
Q 2541 2663 2389 2472 
Q 2238 2281 2175 2047 
L 1894 916 
Q 1825 659 1825 494 
Q 1825 331 1917 214 
Q 2009 97 2163 97 
Q 2463 97 2698 361 
Q 2934 625 3009 941 
Q 3022 978 3059 978 
L 3138 978 
Q 3163 978 3178 961 
Q 3194 944 3194 922 
Q 3194 916 3188 903 
Q 3097 522 2806 225 
Q 2516 -72 2150 -72 
Q 1916 -72 1727 54 
Q 1538 181 1459 397 
Q 1359 209 1182 68 
Q 1006 -72 806 -72 
Q 669 -72 523 -23 
Q 378 25 287 125 
Q 197 225 197 378 
Q 197 528 301 651 
Q 406 775 563 775 
Q 669 775 741 711 
Q 813 647 813 544 
Q 813 409 723 309 
Q 634 209 500 184 
z
" id="Cmmi10-78" transform="scale(0.015625)"/>
       <path d="M 538 -916 
Q 672 -1147 1006 -1147 
Q 1309 -1147 1531 -934 
Q 1753 -722 1889 -420 
Q 2025 -119 2100 197 
Q 1816 -72 1484 -72 
Q 1231 -72 1053 15 
Q 875 103 776 276 
Q 678 450 678 697 
Q 678 906 734 1126 
Q 791 1347 892 1617 
Q 994 1888 1069 2088 
Q 1153 2322 1153 2472 
Q 1153 2663 1013 2663 
Q 759 2663 595 2402 
Q 431 2141 353 1819 
Q 341 1778 300 1778 
L 225 1778 
Q 172 1778 172 1838 
L 172 1856 
Q 275 2238 487 2533 
Q 700 2828 1025 2828 
Q 1253 2828 1411 2678 
Q 1569 2528 1569 2297 
Q 1569 2178 1516 2047 
Q 1488 1969 1388 1706 
Q 1288 1444 1234 1272 
Q 1181 1100 1147 934 
Q 1113 769 1113 603 
Q 1113 391 1203 244 
Q 1294 97 1491 97 
Q 1888 97 2203 581 
L 2688 2553 
Q 2709 2638 2787 2698 
Q 2866 2759 2956 2759 
Q 3034 2759 3092 2709 
Q 3150 2659 3150 2578 
Q 3150 2541 3144 2528 
L 2509 -19 
Q 2425 -347 2200 -647 
Q 1975 -947 1658 -1130 
Q 1341 -1313 997 -1313 
Q 831 -1313 668 -1248 
Q 506 -1184 406 -1056 
Q 306 -928 306 -756 
Q 306 -581 409 -453 
Q 513 -325 684 -325 
Q 788 -325 858 -389 
Q 928 -453 928 -556 
Q 928 -703 818 -812 
Q 709 -922 563 -922 
Q 556 -919 550 -917 
Q 544 -916 538 -916 
z
" id="Cmmi10-79" transform="scale(0.015625)"/>
       <path id="DejaVuSans-20" transform="scale(0.015625)"/>
       <path d="M 1984 4856 
Q 1566 4138 1362 3434 
Q 1159 2731 1159 2009 
Q 1159 1288 1364 580 
Q 1569 -128 1984 -844 
L 1484 -844 
Q 1016 -109 783 600 
Q 550 1309 550 2009 
Q 550 2706 781 3412 
Q 1013 4119 1484 4856 
L 1984 4856 
z
" id="DejaVuSans-28" transform="scale(0.015625)"/>
       <path d="M 1172 4494 
L 1172 3500 
L 2356 3500 
L 2356 3053 
L 1172 3053 
L 1172 1153 
Q 1172 725 1289 603 
Q 1406 481 1766 481 
L 2356 481 
L 2356 0 
L 1766 0 
Q 1100 0 847 248 
Q 594 497 594 1153 
L 594 3053 
L 172 3053 
L 172 3500 
L 594 3500 
L 594 4494 
L 1172 4494 
z
" id="DejaVuSans-74" transform="scale(0.015625)"/>
       <path d="M 2631 2963 
Q 2534 3019 2420 3045 
Q 2306 3072 2169 3072 
Q 1681 3072 1420 2755 
Q 1159 2438 1159 1844 
L 1159 0 
L 581 0 
L 581 3500 
L 1159 3500 
L 1159 2956 
Q 1341 3275 1631 3429 
Q 1922 3584 2338 3584 
Q 2397 3584 2469 3576 
Q 2541 3569 2628 3553 
L 2631 2963 
z
" id="DejaVuSans-72" transform="scale(0.015625)"/>
       <path d="M 544 1381 
L 544 3500 
L 1119 3500 
L 1119 1403 
Q 1119 906 1312 657 
Q 1506 409 1894 409 
Q 2359 409 2629 706 
Q 2900 1003 2900 1516 
L 2900 3500 
L 3475 3500 
L 3475 0 
L 2900 0 
L 2900 538 
Q 2691 219 2414 64 
Q 2138 -91 1772 -91 
Q 1169 -91 856 284 
Q 544 659 544 1381 
z
M 1991 3584 
L 1991 3584 
z
" id="DejaVuSans-75" transform="scale(0.015625)"/>
       <path d="M 3597 1894 
L 3597 1613 
L 953 1613 
Q 991 1019 1311 708 
Q 1631 397 2203 397 
Q 2534 397 2845 478 
Q 3156 559 3463 722 
L 3463 178 
Q 3153 47 2828 -22 
Q 2503 -91 2169 -91 
Q 1331 -91 842 396 
Q 353 884 353 1716 
Q 353 2575 817 3079 
Q 1281 3584 2069 3584 
Q 2775 3584 3186 3129 
Q 3597 2675 3597 1894 
z
M 3022 2063 
Q 3016 2534 2758 2815 
Q 2500 3097 2075 3097 
Q 1594 3097 1305 2825 
Q 1016 2553 972 2059 
L 3022 2063 
z
" id="DejaVuSans-65" transform="scale(0.015625)"/>
       <path d="M 513 4856 
L 1013 4856 
Q 1481 4119 1714 3412 
Q 1947 2706 1947 2009 
Q 1947 1309 1714 600 
Q 1481 -109 1013 -844 
L 513 -844 
Q 928 -128 1133 580 
Q 1338 1288 1338 2009 
Q 1338 2731 1133 3434 
Q 928 4138 513 4856 
z
" id="DejaVuSans-29" transform="scale(0.015625)"/>
      </defs>
      <use transform="translate(0 0.125)" xlink:href="#Cmmi10-be"/>
      <use transform="translate(63.156953 38.389063)scale(0.7)" xlink:href="#Cmmi10-78"/>
      <use transform="translate(103.113008 38.389063)scale(0.7)" xlink:href="#Cmmi10-79"/>
      <use transform="translate(143.806758 0.125)" xlink:href="#DejaVuSans-20"/>
      <use transform="translate(175.593867 0.125)" xlink:href="#DejaVuSans-28"/>
      <use transform="translate(214.607539 0.125)" xlink:href="#DejaVuSans-74"/>
      <use transform="translate(253.816523 0.125)" xlink:href="#DejaVuSans-72"/>
      <use transform="translate(294.929805 0.125)" xlink:href="#DejaVuSans-75"/>
      <use transform="translate(358.308711 0.125)" xlink:href="#DejaVuSans-65"/>
      <use transform="translate(419.832148 0.125)" xlink:href="#DejaVuSans-29"/>
     </g>
    </g>
   </g>
   <g id="matplotlib.axis_2">
    <g id="ytick_1">
     <g id="line2d_4">
      <defs>
       <path d="M 0 0 
L -3.5 0 
" id="m45c9fa78a9" style="stroke:#000000;stroke-width:0.8;"/>
      </defs>
      <g>
       <use style="stroke:#000000;stroke-width:0.8;" x="18" xlink:href="#m45c9fa78a9" y="116.116364"/>
      </g>
     </g>
     <g id="text_5">
      <!-- 0.2 -->
      <g transform="translate(-1.7225 119.155739)scale(0.08 -0.08)">
       <use xlink:href="#DejaVuSans-30"/>
       <use x="63.623047" xlink:href="#DejaVuSans-2e"/>
       <use x="95.410156" xlink:href="#DejaVuSans-32"/>
      </g>
     </g>
    </g>
    <g id="ytick_2">
     <g id="line2d_5">
      <g>
       <use style="stroke:#000000;stroke-width:0.8;" x="18" xlink:href="#m45c9fa78a9" y="76.581818"/>
      </g>
     </g>
     <g id="text_6">
      <!-- 0.4 -->
      <g transform="translate(-1.7225 79.621193)scale(0.08 -0.08)">
       <use xlink:href="#DejaVuSans-30"/>
       <use x="63.623047" xlink:href="#DejaVuSans-2e"/>
       <use x="95.410156" xlink:href="#DejaVuSans-34"/>
      </g>
     </g>
    </g>
    <g id="ytick_3">
     <g id="line2d_6">
      <g>
       <use style="stroke:#000000;stroke-width:0.8;" x="18" xlink:href="#m45c9fa78a9" y="37.047273"/>
      </g>
     </g>
     <g id="text_7">
      <!-- 0.6 -->
      <g transform="translate(-1.7225 40.086648)scale(0.08 -0.08)">
       <use xlink:href="#DejaVuSans-30"/>
       <use x="63.623047" xlink:href="#DejaVuSans-2e"/>
       <use x="95.410156" xlink:href="#DejaVuSans-36"/>
      </g>
     </g>
    </g>
    <g id="text_8">
     <!-- $\sigma^{xy}$ (fit) -->
     <g transform="translate(-7.802188 89.44)rotate(-90)scale(0.1 -0.1)">
      <defs>
       <path d="M 2375 4863 
L 2375 4384 
L 1825 4384 
Q 1516 4384 1395 4259 
Q 1275 4134 1275 3809 
L 1275 3500 
L 2222 3500 
L 2222 3053 
L 1275 3053 
L 1275 0 
L 697 0 
L 697 3053 
L 147 3053 
L 147 3500 
L 697 3500 
L 697 3744 
Q 697 4328 969 4595 
Q 1241 4863 1831 4863 
L 2375 4863 
z
" id="DejaVuSans-66" transform="scale(0.015625)"/>
       <path d="M 603 3500 
L 1178 3500 
L 1178 0 
L 603 0 
L 603 3500 
z
M 603 4863 
L 1178 4863 
L 1178 4134 
L 603 4134 
L 603 4863 
z
" id="DejaVuSans-69" transform="scale(0.015625)"/>
      </defs>
      <use transform="translate(0 0.015625)" xlink:href="#Cmmi10-be"/>
      <use transform="translate(63.156953 38.279688)scale(0.7)" xlink:href="#Cmmi10-78"/>
      <use transform="translate(103.113008 38.279688)scale(0.7)" xlink:href="#Cmmi10-79"/>
      <use transform="translate(143.806758 0.015625)" xlink:href="#DejaVuSans-20"/>
      <use transform="translate(175.593867 0.015625)" xlink:href="#DejaVuSans-28"/>
      <use transform="translate(214.607539 0.015625)" xlink:href="#DejaVuSans-66"/>
      <use transform="translate(249.812617 0.015625)" xlink:href="#DejaVuSans-69"/>
      <use transform="translate(277.59582 0.015625)" xlink:href="#DejaVuSans-74"/>
      <use transform="translate(316.804805 0.015625)" xlink:href="#DejaVuSans-29"/>
     </g>
    </g>
   </g>
   <g id="LineCollection_1">
    <path clip-path="url(#p8d76c6fac9)" d="M 33.464015 109.715026 
L 33.464015 102.517713 
" style="fill:none;stroke:#1f77b4;stroke-width:1.5;"/>
    <path clip-path="url(#p8d76c6fac9)" d="M 46.85843 102.914286 
L 46.85843 96.227154 
" style="fill:none;stroke:#1f77b4;stroke-width:1.5;"/>
    <path clip-path="url(#p8d76c6fac9)" d="M 48.228665 99.33854 
L 48.228665 95.54015 
" style="fill:none;stroke:#1f77b4;stroke-width:1.5;"/>
    <path clip-path="url(#p8d76c6fac9)" d="M 48.905125 104.749606 
L 48.905125 97.196078 
" style="fill:none;stroke:#1f77b4;stroke-width:1.5;"/>
    <path clip-path="url(#p8d76c6fac9)" d="M 53.15493 89.016782 
L 53.15493 81.295154 
" style="fill:none;stroke:#1f77b4;stroke-width:1.5;"/>
    <path clip-path="url(#p8d76c6fac9)" d="M 57.826097 95.849839 
L 57.826097 47.285029 
" style="fill:none;stroke:#1f77b4;stroke-width:1.5;"/>
    <path clip-path="url(#p8d76c6fac9)" d="M 58.561892 89.22176 
L 58.561892 81.51321 
" style="fill:none;stroke:#1f77b4;stroke-width:1.5;"/>
    <path clip-path="url(#p8d76c6fac9)" d="M 60.740042 88.713831 
L 60.740042 55.651796 
" style="fill:none;stroke:#1f77b4;stroke-width:1.5;"/>
    <path clip-path="url(#p8d76c6fac9)" d="M 61.011382 86.098822 
L 61.011382 77.924742 
" style="fill:none;stroke:#1f77b4;stroke-width:1.5;"/>
    <path clip-path="url(#p8d76c6fac9)" d="M 64.627784 86.54577 
L 64.627784 77.227269 
" style="fill:none;stroke:#1f77b4;stroke-width:1.5;"/>
    <path clip-path="url(#p8d76c6fac9)" d="M 68.953076 82.882633 
L 68.953076 71.820216 
" style="fill:none;stroke:#1f77b4;stroke-width:1.5;"/>
    <path clip-path="url(#p8d76c6fac9)" d="M 69.693821 88.503031 
L 69.693821 77.379846 
" style="fill:none;stroke:#1f77b4;stroke-width:1.5;"/>
    <path clip-path="url(#p8d76c6fac9)" d="M 81.527251 63.673954 
L 81.527251 43.298598 
" style="fill:none;stroke:#1f77b4;stroke-width:1.5;"/>
    <path clip-path="url(#p8d76c6fac9)" d="M 81.942219 70.09609 
L 81.942219 61.070515 
" style="fill:none;stroke:#1f77b4;stroke-width:1.5;"/>
    <path clip-path="url(#p8d76c6fac9)" d="M 94.990922 65.483189 
L 94.990922 40.018706 
" style="fill:none;stroke:#1f77b4;stroke-width:1.5;"/>
    <path clip-path="url(#p8d76c6fac9)" d="M 103.004705 51.082738 
L 103.004705 30.62248 
" style="fill:none;stroke:#1f77b4;stroke-width:1.5;"/>
   </g>
   <g id="line2d_7">
    <path clip-path="url(#p8d76c6fac9)" d="M 33.464015 110.935056 
L 46.85843 97.886304 
L 48.228665 96.55143 
L 48.905125 95.892426 
L 53.15493 91.752294 
L 57.826097 87.201673 
L 58.561892 86.484867 
L 60.740042 84.362927 
L 61.011382 84.09859 
L 64.627784 80.575514 
L 68.953076 76.361842 
L 69.693821 75.640213 
L 81.527251 64.112162 
L 81.942219 63.707902 
L 94.990922 50.99594 
L 103.004705 43.188965 
" style="fill:none;stroke:#000000;stroke-dasharray:5.55,2.4;stroke-dashoffset:0;stroke-width:1.5;"/>
   </g>
   <g id="line2d_8">
    <defs>
     <path d="M 2 0 
L -2 -0 
" id="m8483e4fc95" style="stroke:#1f77b4;"/>
    </defs>
    <g clip-path="url(#p8d76c6fac9)">
     <use style="fill:#1f77b4;stroke:#1f77b4;" x="33.464015" xlink:href="#m8483e4fc95" y="109.715026"/>
     <use style="fill:#1f77b4;stroke:#1f77b4;" x="46.85843" xlink:href="#m8483e4fc95" y="102.914286"/>
     <use style="fill:#1f77b4;stroke:#1f77b4;" x="48.228665" xlink:href="#m8483e4fc95" y="99.33854"/>
     <use style="fill:#1f77b4;stroke:#1f77b4;" x="48.905125" xlink:href="#m8483e4fc95" y="104.749606"/>
     <use style="fill:#1f77b4;stroke:#1f77b4;" x="53.15493" xlink:href="#m8483e4fc95" y="89.016782"/>
     <use style="fill:#1f77b4;stroke:#1f77b4;" x="57.826097" xlink:href="#m8483e4fc95" y="95.849839"/>
     <use style="fill:#1f77b4;stroke:#1f77b4;" x="58.561892" xlink:href="#m8483e4fc95" y="89.22176"/>
     <use style="fill:#1f77b4;stroke:#1f77b4;" x="60.740042" xlink:href="#m8483e4fc95" y="88.713831"/>
     <use style="fill:#1f77b4;stroke:#1f77b4;" x="61.011382" xlink:href="#m8483e4fc95" y="86.098822"/>
     <use style="fill:#1f77b4;stroke:#1f77b4;" x="64.627784" xlink:href="#m8483e4fc95" y="86.54577"/>
     <use style="fill:#1f77b4;stroke:#1f77b4;" x="68.953076" xlink:href="#m8483e4fc95" y="82.882633"/>
     <use style="fill:#1f77b4;stroke:#1f77b4;" x="69.693821" xlink:href="#m8483e4fc95" y="88.503031"/>
     <use style="fill:#1f77b4;stroke:#1f77b4;" x="81.527251" xlink:href="#m8483e4fc95" y="63.673954"/>
     <use style="fill:#1f77b4;stroke:#1f77b4;" x="81.942219" xlink:href="#m8483e4fc95" y="70.09609"/>
     <use style="fill:#1f77b4;stroke:#1f77b4;" x="94.990922" xlink:href="#m8483e4fc95" y="65.483189"/>
     <use style="fill:#1f77b4;stroke:#1f77b4;" x="103.004705" xlink:href="#m8483e4fc95" y="51.082738"/>
    </g>
   </g>
   <g id="line2d_9">
    <g clip-path="url(#p8d76c6fac9)">
     <use style="fill:#1f77b4;stroke:#1f77b4;" x="33.464015" xlink:href="#m8483e4fc95" y="102.517713"/>
     <use style="fill:#1f77b4;stroke:#1f77b4;" x="46.85843" xlink:href="#m8483e4fc95" y="96.227154"/>
     <use style="fill:#1f77b4;stroke:#1f77b4;" x="48.228665" xlink:href="#m8483e4fc95" y="95.54015"/>
     <use style="fill:#1f77b4;stroke:#1f77b4;" x="48.905125" xlink:href="#m8483e4fc95" y="97.196078"/>
     <use style="fill:#1f77b4;stroke:#1f77b4;" x="53.15493" xlink:href="#m8483e4fc95" y="81.295154"/>
     <use style="fill:#1f77b4;stroke:#1f77b4;" x="57.826097" xlink:href="#m8483e4fc95" y="47.285029"/>
     <use style="fill:#1f77b4;stroke:#1f77b4;" x="58.561892" xlink:href="#m8483e4fc95" y="81.51321"/>
     <use style="fill:#1f77b4;stroke:#1f77b4;" x="60.740042" xlink:href="#m8483e4fc95" y="55.651796"/>
     <use style="fill:#1f77b4;stroke:#1f77b4;" x="61.011382" xlink:href="#m8483e4fc95" y="77.924742"/>
     <use style="fill:#1f77b4;stroke:#1f77b4;" x="64.627784" xlink:href="#m8483e4fc95" y="77.227269"/>
     <use style="fill:#1f77b4;stroke:#1f77b4;" x="68.953076" xlink:href="#m8483e4fc95" y="71.820216"/>
     <use style="fill:#1f77b4;stroke:#1f77b4;" x="69.693821" xlink:href="#m8483e4fc95" y="77.379846"/>
     <use style="fill:#1f77b4;stroke:#1f77b4;" x="81.527251" xlink:href="#m8483e4fc95" y="43.298598"/>
     <use style="fill:#1f77b4;stroke:#1f77b4;" x="81.942219" xlink:href="#m8483e4fc95" y="61.070515"/>
     <use style="fill:#1f77b4;stroke:#1f77b4;" x="94.990922" xlink:href="#m8483e4fc95" y="40.018706"/>
     <use style="fill:#1f77b4;stroke:#1f77b4;" x="103.004705" xlink:href="#m8483e4fc95" y="30.62248"/>
    </g>
   </g>
   <g id="line2d_10">
    <defs>
     <path d="M 0 1.5 
C 0.397805 1.5 0.77937 1.341951 1.06066 1.06066 
C 1.341951 0.77937 1.5 0.397805 1.5 0 
C 1.5 -0.397805 1.341951 -0.77937 1.06066 -1.06066 
C 0.77937 -1.341951 0.397805 -1.5 0 -1.5 
C -0.397805 -1.5 -0.77937 -1.341951 -1.06066 -1.06066 
C -1.341951 -0.77937 -1.5 -0.397805 -1.5 0 
C -1.5 0.397805 -1.341951 0.77937 -1.06066 1.06066 
C -0.77937 1.341951 -0.397805 1.5 0 1.5 
z
" id="mea06b72d73" style="stroke:#1f77b4;"/>
    </defs>
    <g clip-path="url(#p8d76c6fac9)">
     <use style="fill:#1f77b4;stroke:#1f77b4;" x="33.464015" xlink:href="#mea06b72d73" y="106.337662"/>
     <use style="fill:#1f77b4;stroke:#1f77b4;" x="46.85843" xlink:href="#mea06b72d73" y="99.813146"/>
     <use style="fill:#1f77b4;stroke:#1f77b4;" x="48.228665" xlink:href="#mea06b72d73" y="97.413628"/>
     <use style="fill:#1f77b4;stroke:#1f77b4;" x="48.905125" xlink:href="#mea06b72d73" y="101.113674"/>
     <use style="fill:#1f77b4;stroke:#1f77b4;" x="53.15493" xlink:href="#mea06b72d73" y="85.195085"/>
     <use style="fill:#1f77b4;stroke:#1f77b4;" x="57.826097" xlink:href="#mea06b72d73" y="72.770465"/>
     <use style="fill:#1f77b4;stroke:#1f77b4;" x="58.561892" xlink:href="#mea06b72d73" y="85.162759"/>
     <use style="fill:#1f77b4;stroke:#1f77b4;" x="60.740042" xlink:href="#mea06b72d73" y="74.265614"/>
     <use style="fill:#1f77b4;stroke:#1f77b4;" x="61.011382" xlink:href="#mea06b72d73" y="81.745557"/>
     <use style="fill:#1f77b4;stroke:#1f77b4;" x="64.627784" xlink:href="#mea06b72d73" y="81.796506"/>
     <use style="fill:#1f77b4;stroke:#1f77b4;" x="68.953076" xlink:href="#mea06b72d73" y="77.521552"/>
     <use style="fill:#1f77b4;stroke:#1f77b4;" x="69.693821" xlink:href="#mea06b72d73" y="82.652512"/>
     <use style="fill:#1f77b4;stroke:#1f77b4;" x="81.527251" xlink:href="#mea06b72d73" y="54.001852"/>
     <use style="fill:#1f77b4;stroke:#1f77b4;" x="81.942219" xlink:href="#mea06b72d73" y="65.046787"/>
     <use style="fill:#1f77b4;stroke:#1f77b4;" x="94.990922" xlink:href="#mea06b72d73" y="52.058108"/>
     <use style="fill:#1f77b4;stroke:#1f77b4;" x="103.004705" xlink:href="#mea06b72d73" y="40.152703"/>
    </g>
   </g>
   <g id="patch_3">
    <path d="M 18 126 
L 18 17.28 
" style="fill:none;stroke:#000000;stroke-linecap:square;stroke-linejoin:miter;stroke-width:0.8;"/>
   </g>
   <g id="patch_4">
    <path d="M 129.6 126 
L 129.6 17.28 
" style="fill:none;stroke:#000000;stroke-linecap:square;stroke-linejoin:miter;stroke-width:0.8;"/>
   </g>
   <g id="patch_5">
    <path d="M 18 126 
L 129.6 126 
" style="fill:none;stroke:#000000;stroke-linecap:square;stroke-linejoin:miter;stroke-width:0.8;"/>
   </g>
   <g id="patch_6">
    <path d="M 18 17.28 
L 129.6 17.28 
" style="fill:none;stroke:#000000;stroke-linecap:square;stroke-linejoin:miter;stroke-width:0.8;"/>
   </g>
  </g>
 </g>
 <defs>
  <clipPath id="p8d76c6fac9">
   <rect height="108.72" width="111.6" x="18" y="17.28"/>
  </clipPath>
 </defs>
</svg>
