<?xml version="1.0" encoding="utf-8" standalone="no"?>
<!DOCTYPE svg PUBLIC "-//W3C//DTD SVG 1.1//EN"
  "http://www.w3.org/Graphics/SVG/1.1/DTD/svg11.dtd">
<svg height="108pt" version="1.1" viewBox="0 0 108 108" width="108pt" xmlns="http://www.w3.org/2000/svg" xmlns:xlink="http://www.w3.org/1999/xlink">
 <metadata>
  <rdf:RDF xmlns:cc="http://creativecommons.org/ns#" xmlns:dc="http://purl.org/dc/elements/1.1/" xmlns:rdf="http://www.w3.org/1999/02/22-rdf-syntax-ns#">
   <cc:Work>
    <dc:type rdf:resource="http://purl.org/dc/dcmitype/StillImage"/>
    <dc:date>2021-07-13T12:58:40.308152</dc:date>
    <dc:format>image/svg+xml</dc:format>
    <dc:creator>
     <cc:Agent>
      <dc:title>Matplotlib v3.4.2, https://matplotlib.org/</dc:title>
     </cc:Agent>
    </dc:creator>
   </cc:Work>
  </rdf:RDF>
 </metadata>
 <defs>
  <style type="text/css">*{stroke-linecap:butt;stroke-linejoin:round;}</style>
 </defs>
 <g id="figure_1">
  <g id="patch_1">
   <path d="M 0 108 
L 108 108 
L 108 0 
L 0 0 
z
" style="fill:none;"/>
  </g>
  <g id="axes_1">
   <g id="patch_2">
    <path d="M 13.5 94.5 
L 97.2 94.5 
L 97.2 12.96 
L 13.5 12.96 
z
" style="fill:#ffffff;"/>
   </g>
   <g id="PolyCollection_1">
    <defs>
     <path d="M 17.304545 -13.5 
L 17.304545 -13.5 
L 17.400985 -14.731722 
L 17.497425 -15.7171 
L 17.593865 -17.441511 
L 17.690304 -18.673233 
L 17.786744 -19.65861 
L 17.883184 -19.904955 
L 17.979623 -20.397644 
L 18.076063 -21.136677 
L 18.172503 -21.87571 
L 18.268942 -22.614743 
L 18.365382 -23.353776 
L 18.461822 -24.339154 
L 18.558261 -24.585499 
L 18.654701 -24.831842 
L 18.751141 -25.570876 
L 18.84758 -26.309909 
L 18.94402 -26.802598 
L 19.04046 -27.048943 
L 19.136899 -27.541631 
L 19.233339 -28.280665 
L 19.329779 -29.758732 
L 19.426218 -30.25142 
L 19.522658 -30.990454 
L 19.619098 -31.236798 
L 19.715538 -31.483142 
L 19.811977 -31.975831 
L 19.908417 -32.46852 
L 20.004857 -32.714862 
L 20.101296 -32.961208 
L 20.197736 -33.207553 
L 20.294176 -33.946586 
L 20.390615 -33.946586 
L 20.487055 -35.178309 
L 20.583495 -35.424653 
L 20.679934 -36.163685 
L 20.776374 -36.41003 
L 20.872814 -36.902719 
L 20.969253 -37.395408 
L 21.065693 -38.380787 
L 21.162133 -38.627129 
L 21.258572 -39.119818 
L 21.355012 -40.105197 
L 21.451452 -40.351541 
L 21.547891 -40.844231 
L 21.644331 -41.090575 
L 21.740771 -42.075951 
L 21.837211 -42.322296 
L 21.93365 -43.06133 
L 22.03009 -43.06133 
L 22.12653 -43.554022 
L 22.222969 -43.800361 
L 22.319409 -44.046706 
L 22.415849 -44.539395 
L 22.512288 -44.78574 
L 22.608728 -45.278429 
L 22.705168 -45.524774 
L 22.801607 -46.51015 
L 22.898047 -47.495529 
L 22.994487 -48.480907 
L 23.090926 -48.973596 
L 23.187366 -49.712628 
L 23.283806 -49.958972 
L 23.380245 -50.20532 
L 23.476685 -50.698009 
L 23.573125 -50.944351 
L 23.669564 -51.43704 
L 23.766004 -51.929725 
L 23.862444 -52.176072 
L 23.958884 -52.176072 
L 24.055323 -52.422416 
L 24.151763 -52.915106 
L 24.248203 -52.915106 
L 24.344642 -52.915106 
L 24.441082 -53.16145 
L 24.537522 -53.407795 
L 24.633961 -53.65414 
L 24.730401 -54.146829 
L 24.826841 -54.393171 
L 24.92328 -54.88586 
L 25.01972 -55.132207 
L 25.11616 -55.624892 
L 25.212599 -55.871239 
L 25.309039 -55.871239 
L 25.405479 -56.117581 
L 25.501918 -56.363928 
L 25.598358 -56.363928 
L 25.694798 -56.856617 
L 25.791237 -57.10296 
L 25.887677 -57.595649 
L 25.984117 -57.595649 
L 26.080557 -57.841996 
L 26.176996 -57.841996 
L 26.273436 -58.33468 
L 26.369876 -58.82737 
L 26.466315 -59.812748 
L 26.562755 -60.059095 
L 26.659195 -60.059095 
L 26.755634 -60.305438 
L 26.852074 -60.551785 
L 26.948514 -60.798127 
L 27.044953 -60.798127 
L 27.141393 -61.290816 
L 27.237833 -61.290816 
L 27.334272 -61.290816 
L 27.430712 -61.783505 
L 27.527152 -61.783505 
L 27.623591 -61.783505 
L 27.720031 -62.276195 
L 27.816471 -62.522537 
L 27.91291 -62.768884 
L 28.00935 -63.261573 
L 28.10579 -63.261573 
L 28.20223 -63.754258 
L 28.298669 -63.754258 
L 28.395109 -64.000605 
L 28.491549 -64.246947 
L 28.587988 -64.493294 
L 28.684428 -64.739636 
L 28.780868 -65.478673 
L 28.877307 -65.478673 
L 28.973747 -65.725015 
L 29.070187 -65.725015 
L 29.166626 -65.971362 
L 29.263066 -66.217704 
L 29.359506 -66.464046 
L 29.455945 -66.464046 
L 29.552385 -66.956736 
L 29.648825 -66.956736 
L 29.745264 -66.956736 
L 29.841704 -67.203083 
L 29.938144 -67.695772 
L 30.034583 -67.695772 
L 30.131023 -67.695772 
L 30.227463 -67.942114 
L 30.323903 -68.188461 
L 30.420342 -68.434803 
L 30.516782 -68.434803 
L 30.613222 -68.434803 
L 30.709661 -68.434803 
L 30.806101 -68.927493 
L 30.902541 -69.173835 
L 30.99898 -69.420182 
L 31.09542 -69.666524 
L 31.19186 -69.912871 
L 31.288299 -69.912871 
L 31.384739 -70.159213 
L 31.481179 -70.159213 
L 31.577618 -70.40556 
L 31.674058 -70.89825 
L 31.770498 -70.89825 
L 31.866937 -70.89825 
L 31.963377 -70.89825 
L 32.059817 -71.144592 
L 32.156256 -71.637281 
L 32.252696 -71.637281 
L 32.349136 -71.883623 
L 32.445576 -72.376313 
L 32.542015 -72.62266 
L 32.638455 -72.62266 
L 32.734895 -72.62266 
L 32.831334 -72.62266 
L 32.927774 -72.62266 
L 33.024214 -72.62266 
L 33.120653 -72.869002 
L 33.217093 -72.869002 
L 33.313533 -73.115349 
L 33.409972 -73.115349 
L 33.506412 -73.115349 
L 33.602852 -73.361691 
L 33.699291 -73.361691 
L 33.795731 -73.608043 
L 33.892171 -73.854381 
L 33.98861 -74.100723 
L 34.08505 -74.34707 
L 34.18149 -74.34707 
L 34.277929 -74.34707 
L 34.374369 -74.593412 
L 34.470809 -74.839754 
L 34.567249 -74.839754 
L 34.663688 -74.839754 
L 34.760128 -75.086106 
L 34.856568 -75.086106 
L 34.953007 -75.332448 
L 35.049447 -75.332448 
L 35.145887 -75.578791 
L 35.242326 -75.825138 
L 35.338766 -75.825138 
L 35.435206 -76.07148 
L 35.531645 -76.07148 
L 35.628085 -76.317827 
L 35.724525 -76.317827 
L 35.820964 -76.564169 
L 35.917404 -76.564169 
L 36.013844 -76.771095 
L 36.110283 -76.810511 
L 36.206723 -77.056858 
L 36.303163 -77.056858 
L 36.399602 -77.056858 
L 36.496042 -77.056858 
L 36.592482 -77.056858 
L 36.688922 -77.056858 
L 36.785361 -77.056858 
L 36.881801 -77.303201 
L 36.978241 -77.549548 
L 37.07468 -77.79589 
L 37.17112 -77.79589 
L 37.26756 -77.79589 
L 37.363999 -78.042237 
L 37.460439 -78.288579 
L 37.556879 -78.534926 
L 37.653318 -78.534926 
L 37.749758 -78.534926 
L 37.846198 -78.534926 
L 37.942637 -78.534926 
L 38.039077 -78.781268 
L 38.135517 -78.781268 
L 38.231956 -79.027616 
L 38.328396 -79.027616 
L 38.424836 -79.027616 
L 38.521275 -79.027616 
L 38.617715 -79.273958 
L 38.714155 -79.5203 
L 38.810595 -79.5203 
L 38.907034 -79.5203 
L 39.003474 -79.5203 
L 39.099914 -79.5203 
L 39.196353 -79.766647 
L 39.292793 -79.766647 
L 39.389233 -79.766647 
L 39.485672 -79.766647 
L 39.582112 -79.766647 
L 39.678552 -80.012989 
L 39.774991 -80.012989 
L 39.871431 -80.012989 
L 39.967871 -80.259336 
L 40.06431 -80.259336 
L 40.16075 -80.259336 
L 40.25719 -80.505678 
L 40.353629 -80.505678 
L 40.450069 -80.505678 
L 40.546509 -80.505678 
L 40.642948 -80.505678 
L 40.739388 -80.752026 
L 40.835828 -80.998368 
L 40.932268 -80.998368 
L 41.028707 -80.998368 
L 41.125147 -80.998368 
L 41.221587 -81.244715 
L 41.318026 -81.491057 
L 41.414466 -81.491057 
L 41.510906 -81.491057 
L 41.607345 -81.491057 
L 41.703785 -81.737404 
L 41.800225 -81.737404 
L 41.896664 -81.737404 
L 41.993104 -81.737404 
L 42.089544 -81.983746 
L 42.185983 -81.983746 
L 42.282423 -81.983746 
L 42.378863 -82.230089 
L 42.475302 -82.230089 
L 42.571742 -82.476436 
L 42.668182 -82.476436 
L 42.764622 -82.722778 
L 42.861061 -82.722778 
L 42.957501 -82.722778 
L 43.053941 -82.722778 
L 43.15038 -82.722778 
L 43.24682 -82.722778 
L 43.34326 -82.969125 
L 43.439699 -82.969125 
L 43.536139 -82.969125 
L 43.632579 -82.969125 
L 43.729018 -82.969125 
L 43.825458 -82.969125 
L 43.921898 -82.969125 
L 44.018337 -83.215467 
L 44.114777 -83.215467 
L 44.211217 -83.215467 
L 44.307656 -83.215467 
L 44.404096 -83.215467 
L 44.500536 -83.461814 
L 44.596975 -83.461814 
L 44.693415 -83.461814 
L 44.789855 -83.461814 
L 44.886295 -83.461814 
L 44.982734 -83.461814 
L 45.079174 -83.708156 
L 45.175614 -83.708156 
L 45.272053 -83.708156 
L 45.368493 -83.954503 
L 45.464933 -83.954503 
L 45.561372 -83.954503 
L 45.657812 -83.954503 
L 45.754252 -83.954503 
L 45.850691 -83.954503 
L 45.947131 -83.954503 
L 46.043571 -84.200846 
L 46.14001 -84.200846 
L 46.23645 -84.200846 
L 46.33289 -84.200846 
L 46.429329 -84.200846 
L 46.525769 -84.200846 
L 46.622209 -84.200846 
L 46.718648 -84.200846 
L 46.815088 -84.200846 
L 46.911528 -84.447193 
L 47.007968 -84.447193 
L 47.104407 -84.693535 
L 47.200847 -84.939877 
L 47.297287 -85.186224 
L 47.393726 -85.186224 
L 47.490166 -85.186224 
L 47.586606 -85.186224 
L 47.683045 -85.186224 
L 47.779485 -85.186224 
L 47.875925 -85.186224 
L 47.972364 -85.432566 
L 48.068804 -85.432566 
L 48.165244 -85.432566 
L 48.261683 -85.432566 
L 48.358123 -85.432566 
L 48.454563 -85.432566 
L 48.551002 -85.432566 
L 48.647442 -85.432566 
L 48.743882 -85.639498 
L 48.840321 -85.678913 
L 48.936761 -85.678913 
L 49.033201 -85.678913 
L 49.129641 -85.678913 
L 49.22608 -85.678913 
L 49.32252 -85.678913 
L 49.41896 -85.678913 
L 49.515399 -85.925256 
L 49.611839 -85.925256 
L 49.708279 -85.925256 
L 49.804718 -85.925256 
L 49.901158 -85.925256 
L 49.997598 -85.925256 
L 50.094037 -85.925256 
L 50.190477 -85.925256 
L 50.286917 -85.925256 
L 50.383356 -85.925256 
L 50.479796 -85.925256 
L 50.576236 -86.171603 
L 50.672675 -86.171603 
L 50.769115 -86.171603 
L 50.865555 -86.171603 
L 50.961994 -86.171603 
L 51.058434 -86.171603 
L 51.154874 -86.171603 
L 51.251314 -86.417945 
L 51.347753 -86.417945 
L 51.444193 -86.417945 
L 51.540633 -86.417945 
L 51.637072 -86.417945 
L 51.733512 -86.417945 
L 51.829952 -86.417945 
L 51.926391 -86.664297 
L 52.022831 -86.664297 
L 52.119271 -86.664297 
L 52.21571 -86.910639 
L 52.31215 -86.910639 
L 52.40859 -86.910639 
L 52.505029 -86.910639 
L 52.601469 -86.910639 
L 52.697909 -86.910639 
L 52.794348 -86.910639 
L 52.890788 -86.910639 
L 52.987228 -87.117565 
L 53.083667 -87.156976 
L 53.180107 -87.156976 
L 53.276547 -87.156976 
L 53.372987 -87.156976 
L 53.469426 -87.156976 
L 53.565866 -87.156976 
L 53.662306 -87.156976 
L 53.758745 -87.156976 
L 53.855185 -87.156976 
L 53.951625 -87.156976 
L 54.048064 -87.403323 
L 54.144504 -87.403323 
L 54.240944 -87.403323 
L 54.337383 -87.403323 
L 54.433823 -87.403323 
L 54.530263 -87.403323 
L 54.626702 -87.403323 
L 54.723142 -87.403323 
L 54.819582 -87.403323 
L 54.916021 -87.403323 
L 55.012461 -87.403323 
L 55.108901 -87.403323 
L 55.20534 -87.403323 
L 55.30178 -87.649666 
L 55.39822 -87.649666 
L 55.49466 -87.649666 
L 55.591099 -87.649666 
L 55.687539 -87.649666 
L 55.783979 -87.649666 
L 55.880418 -87.896018 
L 55.976858 -87.896018 
L 56.073298 -87.896018 
L 56.169737 -87.896018 
L 56.266177 -87.896018 
L 56.362617 -87.896018 
L 56.459056 -87.896018 
L 56.555496 -87.896018 
L 56.651936 -88.14236 
L 56.748375 -88.14236 
L 56.844815 -88.14236 
L 56.941255 -88.14236 
L 57.037694 -88.14236 
L 57.134134 -88.14236 
L 57.230574 -88.14236 
L 57.327013 -88.14236 
L 57.423453 -88.14236 
L 57.519893 -88.14236 
L 57.616333 -88.388702 
L 57.712772 -88.388702 
L 57.809212 -88.388702 
L 57.905652 -88.388702 
L 58.002091 -88.635044 
L 58.098531 -88.635044 
L 58.194971 -88.635044 
L 58.29141 -88.635044 
L 58.38785 -88.635044 
L 58.48429 -88.635044 
L 58.580729 -88.635044 
L 58.677169 -88.635044 
L 58.773609 -88.635044 
L 58.870048 -88.635044 
L 58.966488 -88.635044 
L 59.062928 -88.841971 
L 59.159367 -88.881386 
L 59.255807 -88.881386 
L 59.352247 -88.881386 
L 59.448686 -88.881386 
L 59.545126 -88.881386 
L 59.641566 -88.881386 
L 59.738006 -88.881386 
L 59.834445 -89.127729 
L 59.930885 -89.127729 
L 60.027325 -89.127729 
L 60.123764 -89.127729 
L 60.220204 -89.127729 
L 60.316644 -89.127729 
L 60.413083 -89.127729 
L 60.509523 -89.127729 
L 60.605963 -89.127729 
L 60.702402 -89.374081 
L 60.798842 -89.374081 
L 60.895282 -89.374081 
L 60.991721 -89.374081 
L 61.088161 -89.374081 
L 61.184601 -89.374081 
L 61.28104 -89.374081 
L 61.37748 -89.374081 
L 61.47392 -89.374081 
L 61.570359 -89.374081 
L 61.666799 -89.374081 
L 61.763239 -89.374081 
L 61.859679 -89.374081 
L 61.956118 -89.374081 
L 62.052558 -89.374081 
L 62.148998 -89.374081 
L 62.245437 -89.374081 
L 62.341877 -89.620423 
L 62.438317 -89.620423 
L 62.534756 -89.620423 
L 62.631196 -89.620423 
L 62.727636 -89.620423 
L 62.824075 -89.620423 
L 62.920515 -89.620423 
L 63.016955 -89.866765 
L 63.113394 -89.866765 
L 63.209834 -89.866765 
L 63.306274 -89.866765 
L 63.402713 -90.113112 
L 63.499153 -90.113112 
L 63.595593 -90.113112 
L 63.692032 -90.113112 
L 63.788472 -90.113112 
L 63.884912 -90.113112 
L 63.981352 -90.359449 
L 64.077791 -90.359449 
L 64.174231 -90.359449 
L 64.270671 -90.359449 
L 64.36711 -90.359449 
L 64.46355 -90.359449 
L 64.55999 -90.359449 
L 64.656429 -90.359449 
L 64.752869 -90.359449 
L 64.849309 -90.359449 
L 64.945748 -90.359449 
L 65.042188 -90.359449 
L 65.138628 -90.359449 
L 65.235067 -90.359449 
L 65.331507 -90.359449 
L 65.427947 -90.359449 
L 65.524386 -90.359449 
L 65.620826 -90.359449 
L 65.717266 -90.605801 
L 65.813705 -90.605801 
L 65.910145 -90.605801 
L 66.006585 -90.605801 
L 66.103025 -90.605801 
L 66.199464 -90.605801 
L 66.295904 -90.605801 
L 66.392344 -90.605801 
L 66.488783 -90.605801 
L 66.585223 -90.605801 
L 66.681663 -90.605801 
L 66.778102 -90.852144 
L 66.874542 -90.852144 
L 66.970982 -90.852144 
L 67.067421 -90.852144 
L 67.163861 -90.852144 
L 67.260301 -90.852144 
L 67.35674 -90.852144 
L 67.45318 -90.852144 
L 67.54962 -90.852144 
L 67.646059 -90.852144 
L 67.742499 -90.852144 
L 67.838939 -90.852144 
L 67.935378 -90.852144 
L 68.031818 -90.852144 
L 68.128258 -90.852144 
L 68.224698 -90.852144 
L 68.321137 -90.852144 
L 68.417577 -90.852144 
L 68.514017 -90.852144 
L 68.610456 -90.852144 
L 68.706896 -90.852144 
L 68.803336 -90.852144 
L 68.899775 -91.098491 
L 68.996215 -91.098491 
L 69.092655 -91.098491 
L 69.189094 -91.098491 
L 69.285534 -91.098491 
L 69.381974 -91.098491 
L 69.478413 -91.098491 
L 69.574853 -91.098491 
L 69.671293 -91.098491 
L 69.767732 -91.098491 
L 69.864172 -91.098491 
L 69.960612 -91.098491 
L 70.057052 -91.098491 
L 70.153491 -91.098491 
L 70.249931 -91.098491 
L 70.346371 -91.098491 
L 70.44281 -91.098491 
L 70.53925 -91.098491 
L 70.63569 -91.098491 
L 70.732129 -91.098491 
L 70.828569 -91.344833 
L 70.925009 -91.344833 
L 71.021448 -91.344833 
L 71.117888 -91.344833 
L 71.214328 -91.344833 
L 71.310767 -91.344833 
L 71.407207 -91.344833 
L 71.503647 -91.344833 
L 71.600086 -91.344833 
L 71.696526 -91.344833 
L 71.792966 -91.344833 
L 71.889405 -91.344833 
L 71.985845 -91.344833 
L 72.082285 -91.344833 
L 72.178725 -91.344833 
L 72.275164 -91.344833 
L 72.371604 -91.344833 
L 72.468044 -91.344833 
L 72.564483 -91.344833 
L 72.660923 -91.344833 
L 72.757363 -91.59118 
L 72.853802 -91.59118 
L 72.950242 -91.59118 
L 73.046682 -91.59118 
L 73.143121 -91.59118 
L 73.239561 -91.59118 
L 73.336001 -91.59118 
L 73.43244 -91.59118 
L 73.52888 -91.59118 
L 73.62532 -91.59118 
L 73.721759 -91.59118 
L 73.818199 -91.837522 
L 73.914639 -91.837522 
L 74.011078 -91.837522 
L 74.107518 -91.837522 
L 74.203958 -91.837522 
L 74.300398 -91.837522 
L 74.396837 -91.837522 
L 74.493277 -91.837522 
L 74.589717 -91.837522 
L 74.686156 -91.837522 
L 74.782596 -91.837522 
L 74.879036 -91.837522 
L 74.975475 -91.837522 
L 75.071915 -91.837522 
L 75.168355 -91.837522 
L 75.264794 -91.837522 
L 75.361234 -91.837522 
L 75.457674 -91.837522 
L 75.554113 -91.837522 
L 75.650553 -91.837522 
L 75.746993 -91.837522 
L 75.843432 -91.837522 
L 75.939872 -91.837522 
L 76.036312 -91.837522 
L 76.132751 -91.837522 
L 76.229191 -91.837522 
L 76.325631 -91.837522 
L 76.422071 -91.837522 
L 76.51851 -91.837522 
L 76.61495 -91.837522 
L 76.71139 -91.837522 
L 76.807829 -91.837522 
L 76.904269 -91.837522 
L 77.000709 -92.044453 
L 77.097148 -92.083869 
L 77.193588 -92.083869 
L 77.290028 -92.083869 
L 77.386467 -92.083869 
L 77.482907 -92.083869 
L 77.579347 -92.083869 
L 77.675786 -92.083869 
L 77.772226 -92.083869 
L 77.868666 -92.083869 
L 77.965105 -92.083869 
L 78.061545 -92.083869 
L 78.157985 -92.083869 
L 78.254424 -92.083869 
L 78.350864 -92.083869 
L 78.447304 -92.083869 
L 78.543744 -92.083869 
L 78.640183 -92.083869 
L 78.736623 -92.083869 
L 78.833063 -92.083869 
L 78.929502 -92.083869 
L 79.025942 -92.083869 
L 79.122382 -92.083869 
L 79.218821 -92.083869 
L 79.315261 -92.083869 
L 79.411701 -92.083869 
L 79.50814 -92.083869 
L 79.60458 -92.083869 
L 79.70102 -92.083869 
L 79.797459 -92.083869 
L 79.893899 -92.083869 
L 79.990339 -92.083869 
L 80.086778 -92.083869 
L 80.183218 -92.083869 
L 80.279658 -92.083869 
L 80.376097 -92.083869 
L 80.472537 -92.083869 
L 80.568977 -92.083869 
L 80.665417 -92.330211 
L 80.761856 -92.330211 
L 80.858296 -92.330211 
L 80.954736 -92.330211 
L 81.051175 -92.330211 
L 81.147615 -92.330211 
L 81.244055 -92.330211 
L 81.340494 -92.330211 
L 81.436934 -92.330211 
L 81.533374 -92.330211 
L 81.629813 -92.330211 
L 81.726253 -92.330211 
L 81.822693 -92.330211 
L 81.919132 -92.330211 
L 82.015572 -92.330211 
L 82.112012 -92.330211 
L 82.208451 -92.330211 
L 82.304891 -92.330211 
L 82.401331 -92.330211 
L 82.49777 -92.330211 
L 82.59421 -92.330211 
L 82.69065 -92.330211 
L 82.78709 -92.330211 
L 82.883529 -92.576554 
L 82.979969 -92.576554 
L 83.076409 -92.576554 
L 83.172848 -92.576554 
L 83.269288 -92.576554 
L 83.365728 -92.576554 
L 83.462167 -92.576554 
L 83.558607 -92.576554 
L 83.655047 -92.576554 
L 83.751486 -92.576554 
L 83.847926 -92.576554 
L 83.944366 -92.576554 
L 84.040805 -92.822901 
L 84.137245 -92.822901 
L 84.233685 -92.822901 
L 84.330124 -92.822901 
L 84.426564 -92.822901 
L 84.523004 -92.822901 
L 84.619443 -92.822901 
L 84.715883 -92.822901 
L 84.812323 -92.822901 
L 84.908763 -92.822901 
L 85.005202 -92.822901 
L 85.101642 -92.822901 
L 85.198082 -92.822901 
L 85.294521 -92.822901 
L 85.390961 -92.822901 
L 85.487401 -92.822901 
L 85.58384 -92.822901 
L 85.68028 -92.822901 
L 85.77672 -92.822901 
L 85.873159 -92.822901 
L 85.969599 -93.069243 
L 86.066039 -93.069243 
L 86.162478 -93.069243 
L 86.258918 -93.069243 
L 86.355358 -93.069243 
L 86.451797 -93.069243 
L 86.548237 -93.069243 
L 86.644677 -93.069243 
L 86.741116 -93.069243 
L 86.837556 -93.069243 
L 86.933996 -93.069243 
L 87.030436 -93.069243 
L 87.126875 -93.069243 
L 87.223315 -93.069243 
L 87.319755 -93.069243 
L 87.416194 -93.069243 
L 87.512634 -93.069243 
L 87.609074 -93.069243 
L 87.705513 -93.069243 
L 87.801953 -93.069243 
L 87.898393 -93.069243 
L 87.994832 -93.069243 
L 88.091272 -93.069243 
L 88.187712 -93.069243 
L 88.284151 -93.069243 
L 88.380591 -93.069243 
L 88.477031 -93.069243 
L 88.57347 -93.069243 
L 88.66991 -93.069243 
L 88.76635 -93.069243 
L 88.862789 -93.069243 
L 88.959229 -93.069243 
L 89.055669 -93.069243 
L 89.152109 -93.069243 
L 89.248548 -93.069243 
L 89.344988 -93.069243 
L 89.441428 -93.069243 
L 89.537867 -93.069243 
L 89.634307 -93.069243 
L 89.730747 -93.069243 
L 89.827186 -93.069243 
L 89.923626 -93.069243 
L 90.020066 -93.069243 
L 90.116505 -93.069243 
L 90.212945 -93.069243 
L 90.309385 -93.069243 
L 90.405824 -93.069243 
L 90.502264 -93.069243 
L 90.598704 -93.069243 
L 90.695143 -93.069243 
L 90.791583 -93.069243 
L 90.888023 -93.069243 
L 90.984462 -93.069243 
L 91.080902 -93.069243 
L 91.177342 -93.069243 
L 91.273782 -93.069243 
L 91.370221 -93.069243 
L 91.466661 -93.069243 
L 91.563101 -93.276174 
L 91.65954 -93.31559 
L 91.75598 -93.31559 
L 91.85242 -93.31559 
L 91.948859 -93.31559 
L 92.045299 -93.31559 
L 92.141739 -93.31559 
L 92.238178 -93.31559 
L 92.334618 -93.31559 
L 92.431058 -93.31559 
L 92.527497 -93.31559 
L 92.623937 -93.31559 
L 92.720377 -93.31559 
L 92.816816 -93.31559 
L 92.913256 -93.31559 
L 93.009696 -93.31559 
L 93.106135 -93.31559 
L 93.202575 -93.31559 
L 93.299015 -93.31559 
L 93.395455 -93.31559 
L 93.395455 -94.300969 
L 93.395455 -94.300969 
L 93.299015 -94.300969 
L 93.202575 -94.300969 
L 93.106135 -94.300969 
L 93.009696 -94.300969 
L 92.913256 -94.300969 
L 92.816816 -94.300969 
L 92.720377 -94.300969 
L 92.623937 -94.300969 
L 92.527497 -94.300969 
L 92.431058 -94.300969 
L 92.334618 -94.300969 
L 92.238178 -94.300969 
L 92.141739 -94.300969 
L 92.045299 -94.300969 
L 91.948859 -94.300969 
L 91.85242 -94.300969 
L 91.75598 -94.300969 
L 91.65954 -94.300969 
L 91.563101 -94.300969 
L 91.466661 -94.300969 
L 91.370221 -94.300969 
L 91.273782 -94.300969 
L 91.177342 -94.300969 
L 91.080902 -94.300969 
L 90.984462 -94.300969 
L 90.888023 -94.300969 
L 90.791583 -94.300969 
L 90.695143 -94.300969 
L 90.598704 -94.300969 
L 90.502264 -94.300969 
L 90.405824 -94.300969 
L 90.309385 -94.300969 
L 90.212945 -94.094033 
L 90.116505 -94.094033 
L 90.020066 -94.094033 
L 89.923626 -94.054621 
L 89.827186 -94.054621 
L 89.730747 -94.054621 
L 89.634307 -94.054621 
L 89.537867 -94.054621 
L 89.441428 -94.054621 
L 89.344988 -94.054621 
L 89.248548 -94.054621 
L 89.152109 -94.054621 
L 89.055669 -94.054621 
L 88.959229 -94.054621 
L 88.862789 -94.054621 
L 88.76635 -94.054621 
L 88.66991 -94.054621 
L 88.57347 -94.054621 
L 88.477031 -94.054621 
L 88.380591 -94.054621 
L 88.284151 -94.054621 
L 88.187712 -94.054621 
L 88.091272 -94.054621 
L 87.994832 -94.054621 
L 87.898393 -94.054621 
L 87.801953 -94.054621 
L 87.705513 -94.054621 
L 87.609074 -94.054621 
L 87.512634 -94.054621 
L 87.416194 -94.054621 
L 87.319755 -94.054621 
L 87.223315 -94.054621 
L 87.126875 -94.054621 
L 87.030436 -94.054621 
L 86.933996 -94.054621 
L 86.837556 -94.054621 
L 86.741116 -94.054621 
L 86.644677 -94.054621 
L 86.548237 -94.054621 
L 86.451797 -94.054621 
L 86.355358 -94.054621 
L 86.258918 -94.054621 
L 86.162478 -94.054621 
L 86.066039 -94.054621 
L 85.969599 -94.054621 
L 85.873159 -94.054621 
L 85.77672 -94.054621 
L 85.68028 -94.054621 
L 85.58384 -93.847685 
L 85.487401 -93.808279 
L 85.390961 -93.808279 
L 85.294521 -93.808279 
L 85.198082 -93.808279 
L 85.101642 -93.808279 
L 85.005202 -93.808279 
L 84.908763 -93.808279 
L 84.812323 -93.808279 
L 84.715883 -93.808279 
L 84.619443 -93.808279 
L 84.523004 -93.808279 
L 84.426564 -93.808279 
L 84.330124 -93.808279 
L 84.233685 -93.808279 
L 84.137245 -93.808279 
L 84.040805 -93.808279 
L 83.944366 -93.808279 
L 83.847926 -93.808279 
L 83.751486 -93.808279 
L 83.655047 -93.808279 
L 83.558607 -93.808279 
L 83.462167 -93.808279 
L 83.365728 -93.561932 
L 83.269288 -93.561932 
L 83.172848 -93.561932 
L 83.076409 -93.561932 
L 82.979969 -93.561932 
L 82.883529 -93.561932 
L 82.78709 -93.561932 
L 82.69065 -93.561932 
L 82.59421 -93.561932 
L 82.49777 -93.561932 
L 82.401331 -93.561932 
L 82.304891 -93.561932 
L 82.208451 -93.561932 
L 82.112012 -93.561932 
L 82.015572 -93.561932 
L 81.919132 -93.561932 
L 81.822693 -93.561932 
L 81.726253 -93.561932 
L 81.629813 -93.561932 
L 81.533374 -93.561932 
L 81.436934 -93.561932 
L 81.340494 -93.561932 
L 81.244055 -93.561932 
L 81.147615 -93.561932 
L 81.051175 -93.561932 
L 80.954736 -93.561932 
L 80.858296 -93.31559 
L 80.761856 -93.31559 
L 80.665417 -93.31559 
L 80.568977 -93.31559 
L 80.472537 -93.31559 
L 80.376097 -93.31559 
L 80.279658 -93.31559 
L 80.183218 -93.31559 
L 80.086778 -93.31559 
L 79.990339 -93.31559 
L 79.893899 -93.31559 
L 79.797459 -93.31559 
L 79.70102 -93.31559 
L 79.60458 -93.31559 
L 79.50814 -93.31559 
L 79.411701 -93.31559 
L 79.315261 -93.31559 
L 79.218821 -93.31559 
L 79.122382 -93.31559 
L 79.025942 -93.31559 
L 78.929502 -93.31559 
L 78.833063 -93.31559 
L 78.736623 -93.31559 
L 78.640183 -93.31559 
L 78.543744 -93.31559 
L 78.447304 -93.31559 
L 78.350864 -93.31559 
L 78.254424 -93.31559 
L 78.157985 -93.31559 
L 78.061545 -93.31559 
L 77.965105 -93.31559 
L 77.868666 -93.31559 
L 77.772226 -93.108654 
L 77.675786 -93.108654 
L 77.579347 -93.108654 
L 77.482907 -93.108654 
L 77.386467 -93.069243 
L 77.290028 -93.069243 
L 77.193588 -93.069243 
L 77.097148 -93.069243 
L 77.000709 -93.069243 
L 76.904269 -93.069243 
L 76.807829 -93.069243 
L 76.71139 -93.069243 
L 76.61495 -93.069243 
L 76.51851 -93.069243 
L 76.422071 -93.069243 
L 76.325631 -93.069243 
L 76.229191 -93.069243 
L 76.132751 -93.069243 
L 76.036312 -93.069243 
L 75.939872 -93.069243 
L 75.843432 -93.069243 
L 75.746993 -93.069243 
L 75.650553 -93.069243 
L 75.554113 -93.069243 
L 75.457674 -93.069243 
L 75.361234 -93.069243 
L 75.264794 -93.069243 
L 75.168355 -93.069243 
L 75.071915 -93.069243 
L 74.975475 -93.069243 
L 74.879036 -93.069243 
L 74.782596 -93.069243 
L 74.686156 -93.069243 
L 74.589717 -93.069243 
L 74.493277 -93.069243 
L 74.396837 -93.069243 
L 74.300398 -93.069243 
L 74.203958 -93.069243 
L 74.107518 -93.069243 
L 74.011078 -93.069243 
L 73.914639 -93.069243 
L 73.818199 -93.069243 
L 73.721759 -93.069243 
L 73.62532 -92.822901 
L 73.52888 -92.822901 
L 73.43244 -92.822901 
L 73.336001 -92.822901 
L 73.239561 -92.822901 
L 73.143121 -92.822901 
L 73.046682 -92.822901 
L 72.950242 -92.822901 
L 72.853802 -92.822901 
L 72.757363 -92.822901 
L 72.660923 -92.822901 
L 72.564483 -92.822901 
L 72.468044 -92.822901 
L 72.371604 -92.822901 
L 72.275164 -92.576554 
L 72.178725 -92.576554 
L 72.082285 -92.576554 
L 71.985845 -92.576554 
L 71.889405 -92.576554 
L 71.792966 -92.576554 
L 71.696526 -92.576554 
L 71.600086 -92.576554 
L 71.503647 -92.576554 
L 71.407207 -92.576554 
L 71.310767 -92.576554 
L 71.214328 -92.576554 
L 71.117888 -92.576554 
L 71.021448 -92.576554 
L 70.925009 -92.576554 
L 70.828569 -92.576554 
L 70.732129 -92.576554 
L 70.63569 -92.576554 
L 70.53925 -92.576554 
L 70.44281 -92.576554 
L 70.346371 -92.576554 
L 70.249931 -92.576554 
L 70.153491 -92.576554 
L 70.057052 -92.576554 
L 69.960612 -92.576554 
L 69.864172 -92.576554 
L 69.767732 -92.576554 
L 69.671293 -92.330211 
L 69.574853 -92.330211 
L 69.478413 -92.330211 
L 69.381974 -92.330211 
L 69.285534 -92.330211 
L 69.189094 -92.330211 
L 69.092655 -92.330211 
L 68.996215 -92.330211 
L 68.899775 -92.330211 
L 68.803336 -92.330211 
L 68.706896 -92.330211 
L 68.610456 -92.330211 
L 68.514017 -92.330211 
L 68.417577 -92.330211 
L 68.321137 -92.330211 
L 68.224698 -92.330211 
L 68.128258 -92.330211 
L 68.031818 -92.330211 
L 67.935378 -92.330211 
L 67.838939 -92.330211 
L 67.742499 -92.330211 
L 67.646059 -92.330211 
L 67.54962 -92.330211 
L 67.45318 -92.330211 
L 67.35674 -92.330211 
L 67.260301 -92.330211 
L 67.163861 -92.330211 
L 67.067421 -92.330211 
L 66.970982 -92.330211 
L 66.874542 -92.330211 
L 66.778102 -92.330211 
L 66.681663 -92.083874 
L 66.585223 -92.083874 
L 66.488783 -92.083874 
L 66.392344 -92.083874 
L 66.295904 -92.083874 
L 66.199464 -92.083874 
L 66.103025 -92.083874 
L 66.006585 -92.083874 
L 65.910145 -92.083874 
L 65.813705 -92.083874 
L 65.717266 -92.083874 
L 65.620826 -91.876928 
L 65.524386 -91.837522 
L 65.427947 -91.837522 
L 65.331507 -91.837522 
L 65.235067 -91.837522 
L 65.138628 -91.837522 
L 65.042188 -91.837522 
L 64.945748 -91.837522 
L 64.849309 -91.837522 
L 64.752869 -91.837522 
L 64.656429 -91.837522 
L 64.55999 -91.837522 
L 64.46355 -91.837522 
L 64.36711 -91.837522 
L 64.270671 -91.837522 
L 64.174231 -91.837522 
L 64.077791 -91.837522 
L 63.981352 -91.837522 
L 63.884912 -91.59118 
L 63.788472 -91.59118 
L 63.692032 -91.59118 
L 63.595593 -91.59118 
L 63.499153 -91.59118 
L 63.402713 -91.59118 
L 63.306274 -91.59118 
L 63.209834 -91.59118 
L 63.113394 -91.59118 
L 63.016955 -91.344833 
L 62.920515 -91.344833 
L 62.824075 -91.344833 
L 62.727636 -91.344833 
L 62.631196 -91.344833 
L 62.534756 -91.098496 
L 62.438317 -91.098496 
L 62.341877 -91.098496 
L 62.245437 -91.098496 
L 62.148998 -91.098496 
L 62.052558 -91.098496 
L 61.956118 -91.098496 
L 61.859679 -91.098496 
L 61.763239 -91.098496 
L 61.666799 -91.098496 
L 61.570359 -91.098496 
L 61.47392 -91.098496 
L 61.37748 -90.852144 
L 61.28104 -90.852144 
L 61.184601 -90.852144 
L 61.088161 -90.852144 
L 60.991721 -90.852144 
L 60.895282 -90.852144 
L 60.798842 -90.852144 
L 60.702402 -90.852144 
L 60.605963 -90.852144 
L 60.509523 -90.852144 
L 60.413083 -90.852144 
L 60.316644 -90.852144 
L 60.220204 -90.852144 
L 60.123764 -90.852144 
L 60.027325 -90.852144 
L 59.930885 -90.605801 
L 59.834445 -90.605801 
L 59.738006 -90.605801 
L 59.641566 -90.605801 
L 59.545126 -90.605801 
L 59.448686 -90.605801 
L 59.352247 -90.605801 
L 59.255807 -90.359454 
L 59.159367 -90.359454 
L 59.062928 -90.359454 
L 58.966488 -90.359454 
L 58.870048 -90.359454 
L 58.773609 -90.359454 
L 58.677169 -90.359454 
L 58.580729 -90.359454 
L 58.48429 -90.359454 
L 58.38785 -90.359454 
L 58.29141 -90.359454 
L 58.194971 -90.359454 
L 58.098531 -90.359454 
L 58.002091 -90.359454 
L 57.905652 -90.113107 
L 57.809212 -90.113107 
L 57.712772 -90.113107 
L 57.616333 -90.113107 
L 57.519893 -89.866765 
L 57.423453 -89.866765 
L 57.327013 -89.866765 
L 57.230574 -89.866765 
L 57.134134 -89.866765 
L 57.037694 -89.866765 
L 56.941255 -89.866765 
L 56.844815 -89.866765 
L 56.748375 -89.866765 
L 56.651936 -89.866765 
L 56.555496 -89.620423 
L 56.459056 -89.620423 
L 56.362617 -89.620423 
L 56.266177 -89.620423 
L 56.169737 -89.620423 
L 56.073298 -89.620423 
L 55.976858 -89.620423 
L 55.880418 -89.374081 
L 55.783979 -89.374081 
L 55.687539 -89.374081 
L 55.591099 -89.374081 
L 55.49466 -89.374081 
L 55.39822 -89.374081 
L 55.30178 -89.374081 
L 55.20534 -89.374081 
L 55.108901 -89.374081 
L 55.012461 -89.127734 
L 54.916021 -89.127734 
L 54.819582 -89.127734 
L 54.723142 -89.127734 
L 54.626702 -89.127734 
L 54.530263 -89.127734 
L 54.433823 -89.127734 
L 54.337383 -89.127734 
L 54.240944 -89.127734 
L 54.144504 -89.127734 
L 54.048064 -89.127734 
L 53.951625 -89.127734 
L 53.855185 -88.881391 
L 53.758745 -88.881391 
L 53.662306 -88.881391 
L 53.565866 -88.881391 
L 53.469426 -88.881391 
L 53.372987 -88.881391 
L 53.276547 -88.881391 
L 53.180107 -88.881391 
L 53.083667 -88.881391 
L 52.987228 -88.881391 
L 52.890788 -88.635044 
L 52.794348 -88.635044 
L 52.697909 -88.635044 
L 52.601469 -88.635044 
L 52.505029 -88.635044 
L 52.40859 -88.635044 
L 52.31215 -88.635044 
L 52.21571 -88.635044 
L 52.119271 -88.635044 
L 52.022831 -88.388702 
L 51.926391 -88.388702 
L 51.829952 -88.388702 
L 51.733512 -88.388702 
L 51.637072 -88.142355 
L 51.540633 -88.142355 
L 51.444193 -88.142355 
L 51.347753 -88.142355 
L 51.251314 -88.142355 
L 51.154874 -88.142355 
L 51.058434 -88.142355 
L 50.961994 -88.142355 
L 50.865555 -88.142355 
L 50.769115 -88.142355 
L 50.672675 -88.142355 
L 50.576236 -88.142355 
L 50.479796 -87.896013 
L 50.383356 -87.896013 
L 50.286917 -87.896013 
L 50.190477 -87.896013 
L 50.094037 -87.896013 
L 49.997598 -87.896013 
L 49.901158 -87.896013 
L 49.804718 -87.896013 
L 49.708279 -87.896013 
L 49.611839 -87.649666 
L 49.515399 -87.649666 
L 49.41896 -87.649666 
L 49.32252 -87.649666 
L 49.22608 -87.649666 
L 49.129641 -87.649666 
L 49.033201 -87.649666 
L 48.936761 -87.649666 
L 48.840321 -87.403323 
L 48.743882 -87.403323 
L 48.647442 -87.403323 
L 48.551002 -87.403323 
L 48.454563 -87.403323 
L 48.358123 -87.403323 
L 48.261683 -87.403323 
L 48.165244 -87.403323 
L 48.068804 -87.403323 
L 47.972364 -87.156976 
L 47.875925 -87.156976 
L 47.779485 -87.156976 
L 47.683045 -87.156976 
L 47.586606 -87.156976 
L 47.490166 -87.156976 
L 47.393726 -87.156976 
L 47.297287 -86.910639 
L 47.200847 -86.664292 
L 47.104407 -86.664292 
L 47.007968 -86.417945 
L 46.911528 -86.417945 
L 46.815088 -86.171603 
L 46.718648 -86.171603 
L 46.622209 -86.171603 
L 46.525769 -86.171603 
L 46.429329 -86.171603 
L 46.33289 -86.171603 
L 46.23645 -86.171603 
L 46.14001 -86.171603 
L 46.043571 -86.171603 
L 45.947131 -85.925251 
L 45.850691 -85.925251 
L 45.754252 -85.925251 
L 45.657812 -85.925251 
L 45.561372 -85.925251 
L 45.464933 -85.925251 
L 45.368493 -85.925251 
L 45.272053 -85.678913 
L 45.175614 -85.678913 
L 45.079174 -85.678913 
L 44.982734 -85.432566 
L 44.886295 -85.432566 
L 44.789855 -85.432566 
L 44.693415 -85.432566 
L 44.596975 -85.432566 
L 44.500536 -85.22563 
L 44.404096 -85.186224 
L 44.307656 -85.186224 
L 44.211217 -85.186224 
L 44.114777 -85.186224 
L 44.018337 -85.186224 
L 43.921898 -84.979283 
L 43.825458 -84.939872 
L 43.729018 -84.939872 
L 43.632579 -84.939872 
L 43.536139 -84.939872 
L 43.439699 -84.939872 
L 43.34326 -84.939872 
L 43.24682 -84.939872 
L 43.15038 -84.693535 
L 43.053941 -84.693535 
L 42.957501 -84.693535 
L 42.861061 -84.693535 
L 42.764622 -84.693535 
L 42.668182 -84.447193 
L 42.571742 -84.447193 
L 42.475302 -84.200846 
L 42.378863 -84.200846 
L 42.282423 -83.954503 
L 42.185983 -83.954503 
L 42.089544 -83.954503 
L 41.993104 -83.708156 
L 41.896664 -83.708156 
L 41.800225 -83.708156 
L 41.703785 -83.708156 
L 41.607345 -83.708156 
L 41.510906 -83.708156 
L 41.414466 -83.461814 
L 41.318026 -83.461814 
L 41.221587 -83.215467 
L 41.125147 -83.215467 
L 41.028707 -83.215467 
L 40.932268 -82.969125 
L 40.835828 -82.969125 
L 40.739388 -82.969125 
L 40.642948 -82.722783 
L 40.546509 -82.722783 
L 40.450069 -82.722783 
L 40.353629 -82.722783 
L 40.25719 -82.476436 
L 40.16075 -82.476436 
L 40.06431 -82.230089 
L 39.967871 -82.230089 
L 39.871431 -82.230089 
L 39.774991 -81.983746 
L 39.678552 -81.983746 
L 39.582112 -81.983746 
L 39.485672 -81.983746 
L 39.389233 -81.737404 
L 39.292793 -81.737404 
L 39.196353 -81.737404 
L 39.099914 -81.737404 
L 39.003474 -81.737404 
L 38.907034 -81.737404 
L 38.810595 -81.491057 
L 38.714155 -81.491057 
L 38.617715 -81.244715 
L 38.521275 -81.244715 
L 38.424836 -81.244715 
L 38.328396 -81.244715 
L 38.231956 -80.998368 
L 38.135517 -80.998368 
L 38.039077 -80.998368 
L 37.942637 -80.752026 
L 37.846198 -80.752026 
L 37.749758 -80.505678 
L 37.653318 -80.505678 
L 37.556879 -80.505678 
L 37.460439 -80.505678 
L 37.363999 -80.259336 
L 37.26756 -80.012989 
L 37.17112 -80.012989 
L 37.07468 -79.766647 
L 36.978241 -79.766647 
L 36.881801 -79.5203 
L 36.785361 -79.273958 
L 36.688922 -79.273958 
L 36.592482 -79.273958 
L 36.496042 -79.273958 
L 36.399602 -79.273958 
L 36.303163 -79.273958 
L 36.206723 -79.273958 
L 36.110283 -79.02762 
L 36.013844 -78.781268 
L 35.917404 -78.781268 
L 35.820964 -78.781268 
L 35.724525 -78.534926 
L 35.628085 -78.534926 
L 35.531645 -78.288579 
L 35.435206 -78.288579 
L 35.338766 -78.042232 
L 35.242326 -78.042232 
L 35.145887 -77.79589 
L 35.049447 -77.588954 
L 34.953007 -77.549548 
L 34.856568 -77.549548 
L 34.760128 -77.549548 
L 34.663688 -77.303201 
L 34.567249 -77.303201 
L 34.470809 -77.056858 
L 34.374369 -76.810511 
L 34.277929 -76.564169 
L 34.18149 -76.564169 
L 34.08505 -76.564169 
L 33.98861 -76.317827 
L 33.892171 -76.317827 
L 33.795731 -75.825138 
L 33.699291 -75.825138 
L 33.602852 -75.825138 
L 33.506412 -75.578791 
L 33.409972 -75.578791 
L 33.313533 -75.332448 
L 33.217093 -75.332448 
L 33.120653 -75.332448 
L 33.024214 -75.086101 
L 32.927774 -75.086101 
L 32.831334 -75.086101 
L 32.734895 -75.086101 
L 32.638455 -75.086101 
L 32.542015 -74.839759 
L 32.445576 -74.593412 
L 32.349136 -74.100723 
L 32.252696 -74.100723 
L 32.156256 -73.854385 
L 32.059817 -73.608038 
L 31.963377 -73.361691 
L 31.866937 -73.361691 
L 31.770498 -73.115349 
L 31.674058 -73.115349 
L 31.577618 -72.868997 
L 31.481179 -72.62266 
L 31.384739 -72.62266 
L 31.288299 -72.376313 
L 31.19186 -72.12997 
L 31.09542 -72.12997 
L 30.99898 -71.637281 
L 30.902541 -71.637281 
L 30.806101 -71.390934 
L 30.709661 -70.89825 
L 30.613222 -70.89825 
L 30.516782 -70.651903 
L 30.420342 -70.651903 
L 30.323903 -70.651903 
L 30.227463 -70.159213 
L 30.131023 -70.159213 
L 30.034583 -70.159213 
L 29.938144 -69.912871 
L 29.841704 -69.666524 
L 29.745264 -69.420182 
L 29.648825 -69.420182 
L 29.552385 -69.420182 
L 29.455945 -68.927493 
L 29.359506 -68.927493 
L 29.263066 -68.68115 
L 29.166626 -68.434803 
L 29.070187 -68.188461 
L 28.973747 -68.188461 
L 28.877307 -67.942114 
L 28.780868 -67.942114 
L 28.684428 -67.203083 
L 28.587988 -66.956736 
L 28.491549 -66.710393 
L 28.395109 -66.464046 
L 28.298669 -66.217704 
L 28.20223 -65.971367 
L 28.10579 -65.725015 
L 28.00935 -65.478673 
L 27.91291 -65.232325 
L 27.816471 -64.739636 
L 27.720031 -64.739636 
L 27.623591 -64.246947 
L 27.527152 -64.246947 
L 27.430712 -64.000605 
L 27.334272 -63.754258 
L 27.237833 -63.754258 
L 27.141393 -63.754258 
L 27.044953 -63.261573 
L 26.948514 -63.261573 
L 26.852074 -63.015226 
L 26.755634 -62.522537 
L 26.659195 -62.522537 
L 26.562755 -62.276195 
L 26.466315 -62.276195 
L 26.369876 -61.290816 
L 26.273436 -60.551785 
L 26.176996 -60.305438 
L 26.080557 -60.059095 
L 25.984117 -60.059095 
L 25.887677 -60.059095 
L 25.791237 -59.566406 
L 25.694798 -59.320059 
L 25.598358 -58.581028 
L 25.501918 -58.581028 
L 25.405479 -58.33468 
L 25.309039 -58.33468 
L 25.212599 -58.088338 
L 25.11616 -57.841996 
L 25.01972 -57.595649 
L 24.92328 -57.349307 
L 24.826841 -56.61027 
L 24.730401 -56.363928 
L 24.633961 -55.871239 
L 24.537522 -55.624892 
L 24.441082 -55.37855 
L 24.344642 -55.132207 
L 24.248203 -55.132207 
L 24.151763 -55.132207 
L 24.055323 -54.639518 
L 23.958884 -54.393171 
L 23.862444 -54.146829 
L 23.766004 -54.146829 
L 23.669564 -53.407795 
L 23.573125 -53.16145 
L 23.476685 -52.915106 
L 23.380245 -52.422416 
L 23.283806 -52.422416 
L 23.187366 -51.929727 
L 23.090926 -51.230104 
L 22.994487 -50.698006 
L 22.898047 -49.712625 
L 22.801607 -48.727252 
L 22.705168 -47.781282 
L 22.608728 -47.495529 
L 22.512288 -47.002839 
L 22.415849 -46.756495 
L 22.319409 -46.26381 
L 22.222969 -46.017463 
L 22.12653 -45.56418 
L 22.03009 -45.278429 
L 21.93365 -45.032085 
L 21.837211 -44.539395 
L 21.740771 -44.046706 
L 21.644331 -43.06133 
L 21.547891 -42.568641 
L 21.451452 -42.322296 
L 21.355012 -42.075951 
L 21.258572 -41.090575 
L 21.162133 -40.597886 
L 21.065693 -40.144605 
L 20.969253 -39.366163 
L 20.872814 -38.873473 
L 20.776374 -38.134442 
L 20.679934 -38.134442 
L 20.583495 -37.395408 
L 20.487055 -36.902719 
L 20.390615 -35.91734 
L 20.294176 -35.91734 
L 20.197736 -35.178309 
L 20.101296 -34.685619 
L 20.004857 -34.439275 
L 19.908417 -34.439275 
L 19.811977 -33.700242 
L 19.715538 -33.453897 
L 19.619098 -32.961208 
L 19.522658 -32.714864 
L 19.426218 -31.975831 
L 19.329779 -31.483142 
L 19.233339 -30.005075 
L 19.136899 -29.266042 
L 19.04046 -28.773353 
L 18.94402 -28.280665 
L 18.84758 -27.787976 
L 18.751141 -27.048943 
L 18.654701 -26.309909 
L 18.558261 -26.063564 
L 18.461822 -25.817221 
L 18.365382 -24.585499 
L 18.268942 -23.846465 
L 18.172503 -23.107432 
L 18.076063 -22.122054 
L 17.979623 -21.629366 
L 17.883184 -20.890332 
L 17.786744 -20.397644 
L 17.690304 -19.65861 
L 17.593865 -18.426888 
L 17.497425 -16.456133 
L 17.400985 -15.224411 
L 17.304545 -13.5 
z
" id="m2df0691e03" style="stroke:#1f77b4;stroke-opacity:0.3;"/>
    </defs>
    <g clip-path="url(#pb7689f33f2)">
     <use style="fill:#1f77b4;fill-opacity:0.3;stroke:#1f77b4;stroke-opacity:0.3;" x="0" xlink:href="#m2df0691e03" y="108"/>
    </g>
   </g>
   <g id="matplotlib.axis_1">
    <g id="xtick_1">
     <g id="line2d_1">
      <defs>
       <path d="M 0 0 
L 0 3.5 
" id="m770ab58565" style="stroke:#000000;stroke-width:0.8;"/>
      </defs>
      <g>
       <use style="stroke:#000000;stroke-width:0.8;" x="36.592482" xlink:href="#m770ab58565" y="94.5"/>
      </g>
     </g>
     <g id="text_1">
      <!-- 200 -->
      <g transform="translate(28.957482 107.57875)scale(0.08 -0.08)">
       <defs>
        <path d="M 1228 531 
L 3431 531 
L 3431 0 
L 469 0 
L 469 531 
Q 828 903 1448 1529 
Q 2069 2156 2228 2338 
Q 2531 2678 2651 2914 
Q 2772 3150 2772 3378 
Q 2772 3750 2511 3984 
Q 2250 4219 1831 4219 
Q 1534 4219 1204 4116 
Q 875 4013 500 3803 
L 500 4441 
Q 881 4594 1212 4672 
Q 1544 4750 1819 4750 
Q 2544 4750 2975 4387 
Q 3406 4025 3406 3419 
Q 3406 3131 3298 2873 
Q 3191 2616 2906 2266 
Q 2828 2175 2409 1742 
Q 1991 1309 1228 531 
z
" id="DejaVuSans-32" transform="scale(0.015625)"/>
        <path d="M 2034 4250 
Q 1547 4250 1301 3770 
Q 1056 3291 1056 2328 
Q 1056 1369 1301 889 
Q 1547 409 2034 409 
Q 2525 409 2770 889 
Q 3016 1369 3016 2328 
Q 3016 3291 2770 3770 
Q 2525 4250 2034 4250 
z
M 2034 4750 
Q 2819 4750 3233 4129 
Q 3647 3509 3647 2328 
Q 3647 1150 3233 529 
Q 2819 -91 2034 -91 
Q 1250 -91 836 529 
Q 422 1150 422 2328 
Q 422 3509 836 4129 
Q 1250 4750 2034 4750 
z
" id="DejaVuSans-30" transform="scale(0.015625)"/>
       </defs>
       <use xlink:href="#DejaVuSans-32"/>
       <use x="63.623047" xlink:href="#DejaVuSans-30"/>
       <use x="127.246094" xlink:href="#DejaVuSans-30"/>
      </g>
     </g>
    </g>
    <g id="xtick_2">
     <g id="line2d_2">
      <g>
       <use style="stroke:#000000;stroke-width:0.8;" x="55.880418" xlink:href="#m770ab58565" y="94.5"/>
      </g>
     </g>
     <g id="text_2">
      <!-- 400 -->
      <g transform="translate(48.245418 107.57875)scale(0.08 -0.08)">
       <defs>
        <path d="M 2419 4116 
L 825 1625 
L 2419 1625 
L 2419 4116 
z
M 2253 4666 
L 3047 4666 
L 3047 1625 
L 3713 1625 
L 3713 1100 
L 3047 1100 
L 3047 0 
L 2419 0 
L 2419 1100 
L 313 1100 
L 313 1709 
L 2253 4666 
z
" id="DejaVuSans-34" transform="scale(0.015625)"/>
       </defs>
       <use xlink:href="#DejaVuSans-34"/>
       <use x="63.623047" xlink:href="#DejaVuSans-30"/>
       <use x="127.246094" xlink:href="#DejaVuSans-30"/>
      </g>
     </g>
    </g>
    <g id="xtick_3">
     <g id="line2d_3">
      <g>
       <use style="stroke:#000000;stroke-width:0.8;" x="75.168355" xlink:href="#m770ab58565" y="94.5"/>
      </g>
     </g>
     <g id="text_3">
      <!-- 600 -->
      <g transform="translate(67.533355 107.57875)scale(0.08 -0.08)">
       <defs>
        <path d="M 2113 2584 
Q 1688 2584 1439 2293 
Q 1191 2003 1191 1497 
Q 1191 994 1439 701 
Q 1688 409 2113 409 
Q 2538 409 2786 701 
Q 3034 994 3034 1497 
Q 3034 2003 2786 2293 
Q 2538 2584 2113 2584 
z
M 3366 4563 
L 3366 3988 
Q 3128 4100 2886 4159 
Q 2644 4219 2406 4219 
Q 1781 4219 1451 3797 
Q 1122 3375 1075 2522 
Q 1259 2794 1537 2939 
Q 1816 3084 2150 3084 
Q 2853 3084 3261 2657 
Q 3669 2231 3669 1497 
Q 3669 778 3244 343 
Q 2819 -91 2113 -91 
Q 1303 -91 875 529 
Q 447 1150 447 2328 
Q 447 3434 972 4092 
Q 1497 4750 2381 4750 
Q 2619 4750 2861 4703 
Q 3103 4656 3366 4563 
z
" id="DejaVuSans-36" transform="scale(0.015625)"/>
       </defs>
       <use xlink:href="#DejaVuSans-36"/>
       <use x="63.623047" xlink:href="#DejaVuSans-30"/>
       <use x="127.246094" xlink:href="#DejaVuSans-30"/>
      </g>
     </g>
    </g>
    <g id="text_4">
     <!-- Frame -->
     <g transform="translate(42.88625 119.32125)scale(0.08 -0.08)">
      <defs>
       <path d="M 628 4666 
L 3309 4666 
L 3309 4134 
L 1259 4134 
L 1259 2759 
L 3109 2759 
L 3109 2228 
L 1259 2228 
L 1259 0 
L 628 0 
L 628 4666 
z
" id="DejaVuSans-46" transform="scale(0.015625)"/>
       <path d="M 2631 2963 
Q 2534 3019 2420 3045 
Q 2306 3072 2169 3072 
Q 1681 3072 1420 2755 
Q 1159 2438 1159 1844 
L 1159 0 
L 581 0 
L 581 3500 
L 1159 3500 
L 1159 2956 
Q 1341 3275 1631 3429 
Q 1922 3584 2338 3584 
Q 2397 3584 2469 3576 
Q 2541 3569 2628 3553 
L 2631 2963 
z
" id="DejaVuSans-72" transform="scale(0.015625)"/>
       <path d="M 2194 1759 
Q 1497 1759 1228 1600 
Q 959 1441 959 1056 
Q 959 750 1161 570 
Q 1363 391 1709 391 
Q 2188 391 2477 730 
Q 2766 1069 2766 1631 
L 2766 1759 
L 2194 1759 
z
M 3341 1997 
L 3341 0 
L 2766 0 
L 2766 531 
Q 2569 213 2275 61 
Q 1981 -91 1556 -91 
Q 1019 -91 701 211 
Q 384 513 384 1019 
Q 384 1609 779 1909 
Q 1175 2209 1959 2209 
L 2766 2209 
L 2766 2266 
Q 2766 2663 2505 2880 
Q 2244 3097 1772 3097 
Q 1472 3097 1187 3025 
Q 903 2953 641 2809 
L 641 3341 
Q 956 3463 1253 3523 
Q 1550 3584 1831 3584 
Q 2591 3584 2966 3190 
Q 3341 2797 3341 1997 
z
" id="DejaVuSans-61" transform="scale(0.015625)"/>
       <path d="M 3328 2828 
Q 3544 3216 3844 3400 
Q 4144 3584 4550 3584 
Q 5097 3584 5394 3201 
Q 5691 2819 5691 2113 
L 5691 0 
L 5113 0 
L 5113 2094 
Q 5113 2597 4934 2840 
Q 4756 3084 4391 3084 
Q 3944 3084 3684 2787 
Q 3425 2491 3425 1978 
L 3425 0 
L 2847 0 
L 2847 2094 
Q 2847 2600 2669 2842 
Q 2491 3084 2119 3084 
Q 1678 3084 1418 2786 
Q 1159 2488 1159 1978 
L 1159 0 
L 581 0 
L 581 3500 
L 1159 3500 
L 1159 2956 
Q 1356 3278 1631 3431 
Q 1906 3584 2284 3584 
Q 2666 3584 2933 3390 
Q 3200 3197 3328 2828 
z
" id="DejaVuSans-6d" transform="scale(0.015625)"/>
       <path d="M 3597 1894 
L 3597 1613 
L 953 1613 
Q 991 1019 1311 708 
Q 1631 397 2203 397 
Q 2534 397 2845 478 
Q 3156 559 3463 722 
L 3463 178 
Q 3153 47 2828 -22 
Q 2503 -91 2169 -91 
Q 1331 -91 842 396 
Q 353 884 353 1716 
Q 353 2575 817 3079 
Q 1281 3584 2069 3584 
Q 2775 3584 3186 3129 
Q 3597 2675 3597 1894 
z
M 3022 2063 
Q 3016 2534 2758 2815 
Q 2500 3097 2075 3097 
Q 1594 3097 1305 2825 
Q 1016 2553 972 2059 
L 3022 2063 
z
" id="DejaVuSans-65" transform="scale(0.015625)"/>
      </defs>
      <use xlink:href="#DejaVuSans-46"/>
      <use x="50.269531" xlink:href="#DejaVuSans-72"/>
      <use x="91.382812" xlink:href="#DejaVuSans-61"/>
      <use x="152.662109" xlink:href="#DejaVuSans-6d"/>
      <use x="250.074219" xlink:href="#DejaVuSans-65"/>
     </g>
    </g>
   </g>
   <g id="matplotlib.axis_2">
    <g id="ytick_1">
     <g id="line2d_4">
      <defs>
       <path d="M 0 0 
L -3.5 0 
" id="mf52eaaf62d" style="stroke:#000000;stroke-width:0.8;"/>
      </defs>
      <g>
       <use style="stroke:#000000;stroke-width:0.8;" x="13.5" xlink:href="#mf52eaaf62d" y="94.5"/>
      </g>
     </g>
     <g id="text_5">
      <!-- 0 -->
      <g transform="translate(1.41 97.539375)scale(0.08 -0.08)">
       <use xlink:href="#DejaVuSans-30"/>
      </g>
     </g>
    </g>
    <g id="ytick_2">
     <g id="line2d_5">
      <g>
       <use style="stroke:#000000;stroke-width:0.8;" x="13.5" xlink:href="#mf52eaaf62d" y="74.115"/>
      </g>
     </g>
     <g id="text_6">
      <!-- 0.25 -->
      <g transform="translate(-11.3125 77.154375)scale(0.08 -0.08)">
       <defs>
        <path d="M 684 794 
L 1344 794 
L 1344 0 
L 684 0 
L 684 794 
z
" id="DejaVuSans-2e" transform="scale(0.015625)"/>
        <path d="M 691 4666 
L 3169 4666 
L 3169 4134 
L 1269 4134 
L 1269 2991 
Q 1406 3038 1543 3061 
Q 1681 3084 1819 3084 
Q 2600 3084 3056 2656 
Q 3513 2228 3513 1497 
Q 3513 744 3044 326 
Q 2575 -91 1722 -91 
Q 1428 -91 1123 -41 
Q 819 9 494 109 
L 494 744 
Q 775 591 1075 516 
Q 1375 441 1709 441 
Q 2250 441 2565 725 
Q 2881 1009 2881 1497 
Q 2881 1984 2565 2268 
Q 2250 2553 1709 2553 
Q 1456 2553 1204 2497 
Q 953 2441 691 2322 
L 691 4666 
z
" id="DejaVuSans-35" transform="scale(0.015625)"/>
       </defs>
       <use xlink:href="#DejaVuSans-30"/>
       <use x="63.623047" xlink:href="#DejaVuSans-2e"/>
       <use x="95.410156" xlink:href="#DejaVuSans-32"/>
       <use x="159.033203" xlink:href="#DejaVuSans-35"/>
      </g>
     </g>
    </g>
    <g id="ytick_3">
     <g id="line2d_6">
      <g>
       <use style="stroke:#000000;stroke-width:0.8;" x="13.5" xlink:href="#mf52eaaf62d" y="53.73"/>
      </g>
     </g>
     <g id="text_7">
      <!-- 0.5 -->
      <g transform="translate(-6.2225 56.769375)scale(0.08 -0.08)">
       <use xlink:href="#DejaVuSans-30"/>
       <use x="63.623047" xlink:href="#DejaVuSans-2e"/>
       <use x="95.410156" xlink:href="#DejaVuSans-35"/>
      </g>
     </g>
    </g>
    <g id="ytick_4">
     <g id="line2d_7">
      <g>
       <use style="stroke:#000000;stroke-width:0.8;" x="13.5" xlink:href="#mf52eaaf62d" y="33.345"/>
      </g>
     </g>
     <g id="text_8">
      <!-- 0.75 -->
      <g transform="translate(-11.3125 36.384375)scale(0.08 -0.08)">
       <defs>
        <path d="M 525 4666 
L 3525 4666 
L 3525 4397 
L 1831 0 
L 1172 0 
L 2766 4134 
L 525 4134 
L 525 4666 
z
" id="DejaVuSans-37" transform="scale(0.015625)"/>
       </defs>
       <use xlink:href="#DejaVuSans-30"/>
       <use x="63.623047" xlink:href="#DejaVuSans-2e"/>
       <use x="95.410156" xlink:href="#DejaVuSans-37"/>
       <use x="159.033203" xlink:href="#DejaVuSans-35"/>
      </g>
     </g>
    </g>
    <g id="ytick_5">
     <g id="line2d_8">
      <g>
       <use style="stroke:#000000;stroke-width:0.8;" x="13.5" xlink:href="#mf52eaaf62d" y="12.96"/>
      </g>
     </g>
     <g id="text_9">
      <!-- 1 -->
      <g transform="translate(1.41 15.999375)scale(0.08 -0.08)">
       <defs>
        <path d="M 794 531 
L 1825 531 
L 1825 4091 
L 703 3866 
L 703 4441 
L 1819 4666 
L 2450 4666 
L 2450 531 
L 3481 531 
L 3481 0 
L 794 0 
L 794 531 
z
" id="DejaVuSans-31" transform="scale(0.015625)"/>
       </defs>
       <use xlink:href="#DejaVuSans-31"/>
      </g>
     </g>
    </g>
    <g id="text_10">
     <!-- Fraction bound -->
     <g transform="translate(-16.97625 83.565)rotate(-90)scale(0.08 -0.08)">
      <defs>
       <path d="M 3122 3366 
L 3122 2828 
Q 2878 2963 2633 3030 
Q 2388 3097 2138 3097 
Q 1578 3097 1268 2742 
Q 959 2388 959 1747 
Q 959 1106 1268 751 
Q 1578 397 2138 397 
Q 2388 397 2633 464 
Q 2878 531 3122 666 
L 3122 134 
Q 2881 22 2623 -34 
Q 2366 -91 2075 -91 
Q 1284 -91 818 406 
Q 353 903 353 1747 
Q 353 2603 823 3093 
Q 1294 3584 2113 3584 
Q 2378 3584 2631 3529 
Q 2884 3475 3122 3366 
z
" id="DejaVuSans-63" transform="scale(0.015625)"/>
       <path d="M 1172 4494 
L 1172 3500 
L 2356 3500 
L 2356 3053 
L 1172 3053 
L 1172 1153 
Q 1172 725 1289 603 
Q 1406 481 1766 481 
L 2356 481 
L 2356 0 
L 1766 0 
Q 1100 0 847 248 
Q 594 497 594 1153 
L 594 3053 
L 172 3053 
L 172 3500 
L 594 3500 
L 594 4494 
L 1172 4494 
z
" id="DejaVuSans-74" transform="scale(0.015625)"/>
       <path d="M 603 3500 
L 1178 3500 
L 1178 0 
L 603 0 
L 603 3500 
z
M 603 4863 
L 1178 4863 
L 1178 4134 
L 603 4134 
L 603 4863 
z
" id="DejaVuSans-69" transform="scale(0.015625)"/>
       <path d="M 1959 3097 
Q 1497 3097 1228 2736 
Q 959 2375 959 1747 
Q 959 1119 1226 758 
Q 1494 397 1959 397 
Q 2419 397 2687 759 
Q 2956 1122 2956 1747 
Q 2956 2369 2687 2733 
Q 2419 3097 1959 3097 
z
M 1959 3584 
Q 2709 3584 3137 3096 
Q 3566 2609 3566 1747 
Q 3566 888 3137 398 
Q 2709 -91 1959 -91 
Q 1206 -91 779 398 
Q 353 888 353 1747 
Q 353 2609 779 3096 
Q 1206 3584 1959 3584 
z
" id="DejaVuSans-6f" transform="scale(0.015625)"/>
       <path d="M 3513 2113 
L 3513 0 
L 2938 0 
L 2938 2094 
Q 2938 2591 2744 2837 
Q 2550 3084 2163 3084 
Q 1697 3084 1428 2787 
Q 1159 2491 1159 1978 
L 1159 0 
L 581 0 
L 581 3500 
L 1159 3500 
L 1159 2956 
Q 1366 3272 1645 3428 
Q 1925 3584 2291 3584 
Q 2894 3584 3203 3211 
Q 3513 2838 3513 2113 
z
" id="DejaVuSans-6e" transform="scale(0.015625)"/>
       <path id="DejaVuSans-20" transform="scale(0.015625)"/>
       <path d="M 3116 1747 
Q 3116 2381 2855 2742 
Q 2594 3103 2138 3103 
Q 1681 3103 1420 2742 
Q 1159 2381 1159 1747 
Q 1159 1113 1420 752 
Q 1681 391 2138 391 
Q 2594 391 2855 752 
Q 3116 1113 3116 1747 
z
M 1159 2969 
Q 1341 3281 1617 3432 
Q 1894 3584 2278 3584 
Q 2916 3584 3314 3078 
Q 3713 2572 3713 1747 
Q 3713 922 3314 415 
Q 2916 -91 2278 -91 
Q 1894 -91 1617 61 
Q 1341 213 1159 525 
L 1159 0 
L 581 0 
L 581 4863 
L 1159 4863 
L 1159 2969 
z
" id="DejaVuSans-62" transform="scale(0.015625)"/>
       <path d="M 544 1381 
L 544 3500 
L 1119 3500 
L 1119 1403 
Q 1119 906 1312 657 
Q 1506 409 1894 409 
Q 2359 409 2629 706 
Q 2900 1003 2900 1516 
L 2900 3500 
L 3475 3500 
L 3475 0 
L 2900 0 
L 2900 538 
Q 2691 219 2414 64 
Q 2138 -91 1772 -91 
Q 1169 -91 856 284 
Q 544 659 544 1381 
z
M 1991 3584 
L 1991 3584 
z
" id="DejaVuSans-75" transform="scale(0.015625)"/>
       <path d="M 2906 2969 
L 2906 4863 
L 3481 4863 
L 3481 0 
L 2906 0 
L 2906 525 
Q 2725 213 2448 61 
Q 2172 -91 1784 -91 
Q 1150 -91 751 415 
Q 353 922 353 1747 
Q 353 2572 751 3078 
Q 1150 3584 1784 3584 
Q 2172 3584 2448 3432 
Q 2725 3281 2906 2969 
z
M 947 1747 
Q 947 1113 1208 752 
Q 1469 391 1925 391 
Q 2381 391 2643 752 
Q 2906 1113 2906 1747 
Q 2906 2381 2643 2742 
Q 2381 3103 1925 3103 
Q 1469 3103 1208 2742 
Q 947 2381 947 1747 
z
" id="DejaVuSans-64" transform="scale(0.015625)"/>
      </defs>
      <use xlink:href="#DejaVuSans-46"/>
      <use x="50.269531" xlink:href="#DejaVuSans-72"/>
      <use x="91.382812" xlink:href="#DejaVuSans-61"/>
      <use x="152.662109" xlink:href="#DejaVuSans-63"/>
      <use x="207.642578" xlink:href="#DejaVuSans-74"/>
      <use x="246.851562" xlink:href="#DejaVuSans-69"/>
      <use x="274.634766" xlink:href="#DejaVuSans-6f"/>
      <use x="335.816406" xlink:href="#DejaVuSans-6e"/>
      <use x="399.195312" xlink:href="#DejaVuSans-20"/>
      <use x="430.982422" xlink:href="#DejaVuSans-62"/>
      <use x="494.458984" xlink:href="#DejaVuSans-6f"/>
      <use x="555.640625" xlink:href="#DejaVuSans-75"/>
      <use x="619.019531" xlink:href="#DejaVuSans-6e"/>
      <use x="682.398438" xlink:href="#DejaVuSans-64"/>
     </g>
    </g>
   </g>
   <g id="line2d_9">
    <path clip-path="url(#pb7689f33f2)" d="M 17.304545 94.5 
L 17.786744 87.948716 
L 18.076063 86.38172 
L 18.558261 82.655023 
L 18.654701 82.466569 
L 19.04046 80.063478 
L 19.233339 78.81525 
L 19.426218 76.786853 
L 19.908417 74.543148 
L 20.197736 73.791797 
L 20.679934 70.912277 
L 20.776374 70.727024 
L 22.12653 63.403204 
L 22.705168 61.284644 
L 23.187366 57.194341 
L 23.862444 54.813668 
L 23.958884 54.739764 
L 24.248203 53.986444 
L 24.441082 53.720391 
L 24.633961 53.230409 
L 25.01972 51.577939 
L 25.309039 50.957146 
L 25.598358 50.489093 
L 25.887677 49.192829 
L 26.080557 49.06523 
L 26.273436 48.534355 
L 26.659195 46.695143 
L 26.755634 46.601045 
L 26.948514 46.012275 
L 27.044953 45.931966 
L 27.237833 45.483621 
L 27.334272 45.378923 
L 27.527152 45.03946 
L 27.623591 44.980337 
L 27.91291 44.031672 
L 28.20223 43.178076 
L 29.263066 40.442184 
L 29.455945 40.252987 
L 29.648825 39.766466 
L 29.745264 39.724085 
L 30.516782 38.422893 
L 30.709661 38.2374 
L 30.902541 37.538514 
L 30.99898 37.461412 
L 31.288299 36.844322 
L 31.866937 35.890481 
L 31.963377 35.822978 
L 32.349136 34.987871 
L 32.542015 34.273733 
L 33.024214 34.091677 
L 33.313533 33.743344 
L 33.506412 33.670422 
L 33.699291 33.420629 
L 33.795731 33.317166 
L 34.08505 32.557187 
L 34.277929 32.50496 
L 34.760128 31.684394 
L 35.145887 31.351585 
L 35.531645 30.698024 
L 36.496042 29.767089 
L 36.785361 29.728913 
L 37.653318 28.478227 
L 37.942637 28.303072 
L 38.135517 28.031841 
L 38.617715 27.764308 
L 38.810595 27.464018 
L 39.389233 27.258565 
L 39.582112 27.107059 
L 40.06431 26.736078 
L 40.353629 26.420012 
L 40.642948 26.338235 
L 40.835828 25.978325 
L 41.125147 25.920183 
L 41.607345 25.363928 
L 41.993104 25.270073 
L 42.185983 25.010176 
L 42.282423 24.988985 
L 42.571742 24.568231 
L 42.668182 24.553209 
L 42.861061 24.216467 
L 44.114777 23.820845 
L 44.404096 23.666137 
L 44.982734 23.428164 
L 45.754252 23.045338 
L 45.947131 23.015774 
L 46.14001 22.823623 
L 46.815088 22.699708 
L 47.393726 21.900333 
L 47.875925 21.807465 
L 48.165244 21.617286 
L 48.647442 21.493134 
L 49.41896 21.276599 
L 49.804718 21.108345 
L 50.576236 20.899192 
L 51.829952 20.645949 
L 52.119271 20.310914 
L 52.890788 20.234298 
L 53.083667 20.068751 
L 53.855185 19.95322 
L 54.144504 19.717711 
L 55.49466 19.537637 
L 55.783979 19.42753 
L 56.169737 19.23588 
L 56.651936 19.08955 
L 56.941255 18.961946 
L 57.616333 18.801085 
L 58.002091 18.598338 
L 58.966488 18.443634 
L 61.28104 17.880477 
L 61.570359 17.86422 
L 61.763239 17.733652 
L 62.534756 17.616886 
L 62.727636 17.497652 
L 63.016955 17.367332 
L 63.209834 17.260671 
L 63.402713 17.166072 
L 63.595593 17.051533 
L 65.331507 16.836962 
L 65.813705 16.744094 
L 66.392344 16.640888 
L 66.778102 16.546047 
L 68.803336 16.398492 
L 68.996215 16.318426 
L 70.249931 16.170123 
L 70.828569 16.082178 
L 72.468044 15.931163 
L 72.950242 15.869823 
L 73.336001 15.762418 
L 73.818199 15.652302 
L 79.70102 15.289423 
L 79.990339 15.219217 
L 81.147615 15.115016 
L 81.533374 15.066725 
L 83.365728 14.918918 
L 83.558607 14.778746 
L 85.873159 14.602857 
L 86.066039 14.479438 
L 93.395455 14.290999 
L 93.395455 14.290999 
" style="fill:none;stroke:#1f77b4;stroke-linecap:square;stroke-width:1.5;"/>
   </g>
   <g id="line2d_10">
    <path clip-path="url(#pb7689f33f2)" d="M 17.304545 93.024397 
L 18.654701 82.441198 
L 20.004857 73.556259 
L 21.355012 66.074772 
L 22.705168 59.754468 
L 24.151763 54.04575 
L 25.598358 49.241688 
L 27.044953 45.179798 
L 28.587988 41.516955 
L 30.131023 38.419408 
L 31.770498 35.63192 
L 33.409972 33.266275 
L 35.145887 31.13384 
L 37.07468 29.126111 
L 39.099914 27.345027 
L 41.318026 25.698069 
L 43.729018 24.190699 
L 46.429329 22.774506 
L 49.41896 21.46546 
L 52.794348 20.238249 
L 56.555496 19.110332 
L 60.895282 18.04825 
L 65.813705 17.080767 
L 71.407207 16.211983 
L 77.965105 15.429483 
L 85.487401 14.763684 
L 93.395455 14.257435 
L 93.395455 14.257435 
" style="fill:none;stroke:#000000;stroke-linecap:square;stroke-width:1.5;"/>
   </g>
   <g id="patch_3">
    <path d="M 13.5 94.5 
L 13.5 12.96 
" style="fill:none;stroke:#000000;stroke-linecap:square;stroke-linejoin:miter;stroke-width:0.8;"/>
   </g>
   <g id="patch_4">
    <path d="M 97.2 94.5 
L 97.2 12.96 
" style="fill:none;stroke:#000000;stroke-linecap:square;stroke-linejoin:miter;stroke-width:0.8;"/>
   </g>
   <g id="patch_5">
    <path d="M 13.5 94.5 
L 97.2 94.5 
" style="fill:none;stroke:#000000;stroke-linecap:square;stroke-linejoin:miter;stroke-width:0.8;"/>
   </g>
   <g id="patch_6">
    <path d="M 13.5 12.96 
L 97.2 12.96 
" style="fill:none;stroke:#000000;stroke-linecap:square;stroke-linejoin:miter;stroke-width:0.8;"/>
   </g>
  </g>
 </g>
 <defs>
  <clipPath id="pb7689f33f2">
   <rect height="81.54" width="83.7" x="13.5" y="12.96"/>
  </clipPath>
 </defs>
</svg>
